<svg width="64" height="64" viewBox="0 0 64 64" fill="none" xmlns="http://www.w3.org/2000/svg">
<rect width="64" height="64" fill="#6CB9E0"/>
<rect width="58" height="58" transform="matrix(0 -1 1 0 3 61)" fill="#FBF8EF"/>
<path d="M21.0319 21.0317C19.8278 22.2358 18.3212 23.0545 16.7028 23.7143C15.6754 24.133 14.6415 24.4745 13.6169 24.8128C13.004 25.0151 12.3946 25.2164 11.7919 25.4324C10.2217 25.9952 8.73541 26.6482 7.64352 27.6563C6.5259 28.6882 5.84786 30.0668 5.84786 32C5.84786 33.9332 6.5259 35.3118 7.64353 36.3437C8.73542 37.3518 10.2217 38.0048 11.7919 38.5676C12.3946 38.7836 13.004 38.9848 13.6169 39.1872C14.6415 39.5255 15.6754 39.8669 16.7028 40.2857C18.3212 40.9455 19.8278 41.7642 21.0319 42.9683C22.236 44.1724 23.0547 45.6789 23.7144 47.2974C24.1332 48.3246 24.4746 49.3586 24.8129 50.3831C25.0152 50.996 25.2165 51.6054 25.4325 52.2081C25.9953 53.7782 26.6482 55.2645 27.6563 56.3564C28.6882 57.474 30.0667 58.152 31.9999 58.1521C33.9331 58.1521 35.3117 57.4741 36.3436 56.3565C37.3518 55.2647 38.0048 53.7784 38.5676 52.2083C38.7837 51.6056 38.985 50.9961 39.1874 50.3832C39.5257 49.3586 39.8671 48.3247 40.2859 47.2974C40.9457 45.679 41.7645 44.1724 42.9686 42.9683C44.1726 41.7642 45.6792 40.9455 47.2977 40.2857C48.325 39.8669 49.3589 39.5255 50.3834 39.1871C50.9963 38.9848 51.6058 38.7835 52.2085 38.5674C53.7786 38.0046 55.2649 37.3516 56.3568 36.3434C57.4743 35.3115 58.1523 33.9329 58.1523 31.9997C58.1522 30.0665 57.4742 28.688 56.3566 27.6561C55.2647 26.648 53.7784 25.9951 52.2083 25.4323C51.6056 25.2163 50.9962 25.015 50.3834 24.8127C49.3588 24.4744 48.3249 24.1329 47.2976 23.7142C45.6792 23.0544 44.1726 22.2357 42.9686 21.0317C41.7645 19.8276 40.9457 18.321 40.286 16.7025C39.8672 15.6752 39.5258 14.6412 39.1874 13.6166C38.9851 13.0038 38.7838 12.3943 38.5678 11.7917C38.005 10.2215 37.352 8.73519 36.3439 7.6433C35.312 6.52568 33.9335 5.84763 32.0002 5.84763C30.067 5.84763 28.6884 6.52568 27.6565 7.6433C26.6484 8.73519 25.9955 10.2215 25.4326 11.7916C25.2166 12.3943 25.0154 13.0038 24.813 13.6166C24.4747 14.6412 24.1333 15.6752 23.7145 16.7025C23.0547 18.321 22.236 19.8276 21.0319 21.0317Z" fill="#6CB9E0" stroke="#111111"/>
<path d="M16.4868 31.9997C16.4868 33.7025 16.0004 35.3468 15.3225 36.9577C14.8922 37.9803 14.4025 38.9528 13.9172 39.9165C13.627 40.493 13.3383 41.0662 13.0649 41.6452C12.3526 43.1534 11.7634 44.6661 11.7041 46.151C11.6435 47.671 12.1388 49.1252 13.5058 50.4922C14.8729 51.8592 16.3271 52.3545 17.847 52.2939C19.332 52.2347 20.8447 51.6454 22.3529 50.9331C22.9318 50.6597 23.5051 50.3711 24.0815 50.0808C25.0452 49.5955 26.0178 49.1058 27.0403 48.6755C28.6513 47.9976 30.2955 47.5112 31.9984 47.5112C33.7012 47.5112 35.3454 47.9976 36.9563 48.6755C37.9788 49.1058 38.9513 49.5955 39.915 50.0807C40.4914 50.371 41.0647 50.6596 41.6436 50.933C43.1518 51.6453 44.6644 52.2346 46.1493 52.2938C47.6692 52.3544 49.1234 51.8591 50.4905 50.4922C51.8575 49.1252 52.3529 47.671 52.2923 46.1511C52.2331 44.6662 51.6439 43.1535 50.9316 41.6452C50.6582 41.0663 50.3696 40.4929 50.0793 39.9165C49.5941 38.9528 49.1044 37.9803 48.6742 36.9577C47.9963 35.3468 47.5099 33.7025 47.5099 31.9997C47.5099 30.2968 47.9963 28.6526 48.6742 27.0416C49.1044 26.0191 49.5941 25.0466 50.0793 24.0829C50.3696 23.5064 50.6582 22.9331 50.9316 22.3541C51.6439 20.8459 52.2331 19.3332 52.2923 17.8483C52.3529 16.3283 51.8575 14.8741 50.4905 13.5072C49.1234 12.1402 47.6692 11.6449 46.1493 11.7055C44.6644 11.7648 43.1518 12.354 41.6436 13.0663C41.0647 13.3397 40.4914 13.6284 39.915 13.9186C38.9513 14.4039 37.9788 14.8936 36.9563 15.3239C35.3454 16.0017 33.7012 16.4881 31.9984 16.4881C30.2955 16.4881 28.6513 16.0018 27.0403 15.3238C26.0178 14.8935 25.0452 14.4038 24.0815 13.9186C23.5051 13.6283 22.9318 13.3396 22.3529 13.0662C20.8447 12.354 19.332 11.7647 17.847 11.7054C16.3271 11.6448 14.8729 12.1402 13.5058 13.5072C12.1388 14.8742 11.6435 16.3284 11.7041 17.8483C11.7634 19.3333 12.3526 20.846 13.0649 22.3542C13.3383 22.9331 13.627 23.5064 13.9172 24.0828C14.4025 25.0465 14.8922 26.0191 15.3225 27.0416C16.0004 28.6526 16.4868 30.2968 16.4868 31.9997Z" stroke="#111111"/>
<path d="M58 46V58H46L58 46Z" fill="#6CB9E0"/>
<path d="M46 6H58V18L46 6Z" fill="#6CB9E0"/>
<path d="M18 6H6V18L18 6Z" fill="#6CB9E0"/>
<path d="M18 58H6V46L18 58Z" fill="#6CB9E0"/>
<path d="M32 10.5C27.3056 10.5 23.5 14.3056 23.5 19C23.5 21.3141 24.4759 24.7488 25.9978 27.5992C26.7614 29.0293 27.6778 30.3422 28.7059 31.3042C29.7309 32.2632 30.9116 32.9136 32.1914 32.9136C33.474 32.9136 34.6326 32.2607 35.6239 31.2977C36.617 30.333 37.485 29.0176 38.1998 27.5872C39.6258 24.7338 40.5 21.3039 40.5 19C40.5 14.3056 36.6944 10.5 32 10.5Z" fill="#FBF8EF" stroke="#111111"/>
<path d="M32.5 32.0864C32.5 30.7998 31.8257 29.6287 30.8391 28.6224C29.8492 27.6129 28.5005 26.7216 27.0363 25.9831C24.1165 24.5106 20.6162 23.5864 18.3086 23.5864C13.6142 23.5864 9.80859 27.392 9.80859 32.0864C9.80859 36.7808 13.6142 40.5864 18.3086 40.5864C20.6162 40.5864 24.1165 39.6622 27.0363 38.1897C28.5005 37.4513 29.8492 36.56 30.8391 35.5504C31.8257 34.5441 32.5 33.373 32.5 32.0864Z" fill="#FBF8EF" stroke="#111111"/>
<path d="M53.8086 32.0864C53.8086 27.392 50.003 23.5864 45.3086 23.5864C42.999 23.5864 39.5924 24.5118 36.7662 25.9863C35.3487 26.7258 34.0477 27.6184 33.0944 28.6294C32.1431 29.6382 31.5 30.8073 31.5 32.0864C31.5 33.3656 32.1431 34.5346 33.0944 35.5434C34.0477 36.5544 35.3487 37.447 36.7662 38.1866C39.5924 39.6611 42.999 40.5864 45.3086 40.5864C50.003 40.5864 53.8086 36.7808 53.8086 32.0864Z" fill="#FBF8EF" stroke="#111111"/>
<path d="M32 31.5C30.7168 31.5 29.5352 32.1645 28.5113 33.1395C27.4838 34.1179 26.568 35.4524 25.8049 36.9036C24.284 39.7962 23.3086 43.2732 23.3086 45.5864C23.3086 50.2808 27.1142 54.0864 31.8086 54.0864C36.503 54.0864 40.3086 50.2808 40.3086 45.5864C40.3086 43.2833 39.4348 39.8111 38.0098 36.9155C37.2954 35.464 36.428 34.1272 35.4356 33.146C34.4455 32.1671 33.286 31.5 32 31.5Z" fill="#FBF8EF" stroke="#111111"/>
<path d="M32.3368 31.6304C31.3946 30.7718 30.0706 30.4308 28.6441 30.4102C27.2114 30.3894 25.6142 30.69 24.0487 31.182C20.9323 32.1613 17.8126 33.9421 16.2448 35.6624C13.0827 39.1321 13.3321 44.5082 16.8018 47.6703C20.2715 50.8324 25.6476 50.583 28.8097 47.1133C30.3528 45.42 32.0923 42.404 33.0372 39.4311C33.5104 37.9423 33.7946 36.4331 33.7395 35.0847C33.6845 33.736 33.286 32.4955 32.3368 31.6304Z" fill="#6CB9E0" stroke="#111111"/>
<path d="M32.3694 32.3369C33.2269 31.3959 33.5741 30.0732 33.6034 28.6467C33.6328 27.2142 33.3438 25.6166 32.863 24.0505C31.9061 20.9333 30.1475 17.811 28.4258 16.2419C24.9561 13.0798 19.5799 13.3291 16.4179 16.7988C13.2558 20.2685 13.5051 25.6446 16.9748 28.8067C18.667 30.3489 21.6602 32.0894 24.6117 33.0354C26.0896 33.5092 27.5883 33.794 28.9289 33.7392C30.2705 33.6843 31.5049 33.2855 32.3694 32.3369Z" fill="#6CB9E0" stroke="#111111"/>
<path d="M47.2497 16.0191C43.78 12.857 38.4039 13.1064 35.2418 16.5761C33.6962 18.272 31.9447 21.3674 30.988 24.4153C30.5087 25.9421 30.2186 27.4887 30.2684 28.8644C30.3182 30.2386 30.711 31.5018 31.6632 32.3696C32.6099 33.2323 33.9429 33.5512 35.3747 33.5413C36.8129 33.5314 38.4165 33.1906 39.9873 32.6594C43.1157 31.6014 46.243 29.7428 47.8067 28.027C50.9687 24.5573 50.7194 19.1812 47.2497 16.0191Z" fill="#6CB9E0" stroke="#111111"/>
<path d="M47.9809 47.3361C51.143 43.8664 50.8936 38.4903 47.4239 35.3282C45.7294 33.784 42.6355 32.0109 39.5878 31.0323C38.0614 30.5421 36.5147 30.2407 35.1387 30.282C33.7641 30.3232 32.4993 30.71 31.6304 31.6634C30.7672 32.6106 30.4488 33.9494 30.4587 35.3883C30.4685 36.8341 30.8092 38.4482 31.3403 40.0296C32.3978 43.1788 34.2563 46.3286 35.973 47.8931C39.4427 51.0552 44.8188 50.8058 47.9809 47.3361Z" fill="#6CB9E0" stroke="#111111"/>
<path d="M24.5 32C24.5 27.8579 27.8579 24.5 32 24.5C36.1421 24.5 39.5 27.8579 39.5 32C39.5 36.1421 36.1421 39.5 32 39.5C27.8579 39.5 24.5 36.1421 24.5 32Z" fill="#FBF8EF" stroke="#111111"/>
</svg>
