<svg width="64" height="64" viewBox="0 0 64 64" fill="none" xmlns="http://www.w3.org/2000/svg">
<g clip-path="url(#clip0_400_1679)">
<rect width="64" height="64" fill="#7ECEA6"/>
<rect y="64" width="64" height="64" rx="32" transform="rotate(-90 0 64)" fill="#FBF8EF"/>
<path d="M28.8503 32.0025C28.5189 32.0604 28.1667 32.1232 27.7965 32.1909C25.336 32.6409 22.0774 33.3067 18.8959 34.1691C15.724 35.0288 12.5901 36.0939 10.4018 37.3537C9.31098 37.9816 8.40917 38.6834 7.86718 39.4714C7.3079 40.2845 7.12862 41.2012 7.52711 42.161C7.92559 43.1208 8.70144 43.641 9.67213 43.8189C10.6128 43.9913 11.7465 43.848 12.9613 43.5187C15.3984 42.8581 18.3652 41.3905 21.2133 39.7509C24.0701 38.1063 26.8421 36.2684 28.8977 34.8434C29.207 34.629 29.5002 34.4239 29.7751 34.2301C29.5817 34.5054 29.3771 34.7989 29.1632 35.1085C27.7416 37.1665 25.9082 39.9415 24.2683 42.8009C22.6334 45.6517 21.1705 48.6208 20.5139 51.059C20.1866 52.2744 20.0452 53.4083 20.2191 54.3487C20.3986 55.3191 20.92 56.0941 21.8805 56.491C22.841 56.8879 23.7574 56.7071 24.5696 56.1465C25.3566 55.6033 26.057 54.7003 26.6831 53.6085C27.9393 51.4181 28.9993 48.2825 29.8539 45.1092C30.711 41.9263 31.3715 38.6666 31.8175 36.2054C31.8846 35.8351 31.9468 35.4827 32.0042 35.1513C32.0621 35.4827 32.125 35.8349 32.1927 36.2051C32.6426 38.6655 33.3084 41.9242 34.1708 45.1057C35.0305 48.2775 36.0956 51.4114 37.3554 53.5998C37.9833 54.6906 38.6852 55.5924 39.4731 56.1344C40.2862 56.6937 41.2029 56.8729 42.1627 56.4745C43.1225 56.076 43.6427 55.3001 43.8206 54.3294C43.993 53.3887 43.8497 52.255 43.5204 51.0402C42.8599 48.6031 41.3922 45.6364 39.7526 42.7883C38.108 39.9315 36.2701 37.1595 34.8451 35.1039C34.6307 34.7946 34.4256 34.5014 34.2318 34.2265C34.5071 34.4198 34.8006 34.6245 35.1102 34.8384C37.1682 36.26 39.9432 38.0934 42.8026 39.7333C45.6534 41.3682 48.6225 42.831 51.0607 43.4877C52.2761 43.8149 53.41 43.9564 54.3504 43.7824C55.3208 43.603 56.0958 43.0815 56.4927 42.1211C56.8896 41.1606 56.7089 40.2442 56.1483 39.432C55.605 38.6449 54.702 37.9446 53.6102 37.3184C51.4198 36.0623 48.2842 35.0023 45.1109 34.1477C41.928 33.2905 38.6683 32.63 36.2071 32.1841C35.8368 32.117 35.4845 32.0547 35.153 31.9974C35.4844 31.9394 35.8366 31.8766 36.2068 31.8089C38.6672 31.359 41.9259 30.6931 45.1074 29.8308C48.2793 28.971 51.4131 27.9059 53.6015 26.6462C54.6923 26.0182 55.5941 25.3164 56.1361 24.5285C56.6954 23.7154 56.8746 22.7987 56.4762 21.8388C56.0777 20.879 55.3018 20.3588 54.3311 20.181C53.3905 20.0086 52.2568 20.1518 51.0419 20.4811C48.6048 21.1417 45.6381 22.6094 42.79 24.249C39.9332 25.8935 37.1612 27.7315 35.1056 29.1564C34.7963 29.3708 34.5031 29.576 34.2282 29.7698C34.4215 29.4945 34.6262 29.201 34.8401 28.8914C36.2617 26.8334 38.0951 24.0584 39.735 21.1989C41.3699 18.3482 42.8328 15.379 43.4894 12.9409C43.8167 11.7255 43.9581 10.5916 43.7842 9.65116C43.6047 8.68077 43.0832 7.90577 42.1228 7.50885C41.1623 7.11194 40.2459 7.29271 39.4337 7.85331C38.6467 8.39658 37.9463 9.29954 37.3201 10.3914C36.064 12.5818 35.004 15.7174 34.1494 18.8907C33.2922 22.0736 32.6317 25.3333 32.1858 27.7945C32.1187 28.1648 32.0564 28.5171 31.9991 28.8486C31.9412 28.5172 31.8783 28.165 31.8106 27.7948C31.3607 25.3343 30.6949 22.0757 29.8325 18.8942C28.9727 15.7223 27.9076 12.5884 26.6479 10.4001C26.0199 9.30927 25.3181 8.40746 24.5302 7.86547C23.7171 7.30619 22.8004 7.12692 21.8406 7.5254C20.8807 7.92388 20.3606 8.69973 20.1827 9.67042C20.0103 10.6111 20.1536 11.7448 20.4828 12.9596C21.1434 15.3967 22.6111 18.3635 24.2507 21.2116C25.8952 24.0683 27.7332 26.8404 29.1581 28.896C29.3725 29.2053 29.5777 29.4985 29.7715 29.7734C29.4962 29.58 29.2027 29.3754 28.8931 29.1615C26.8351 27.7399 24.0601 25.9065 21.2007 24.2666C18.3499 22.6317 15.3807 21.1688 12.9426 20.5122C11.7272 20.1849 10.5933 20.0435 9.65287 20.2174C8.68248 20.3969 7.90748 20.9183 7.51056 21.8788C7.11365 22.8392 7.29442 23.7557 7.85502 24.5678C8.39829 25.3549 9.30125 26.0553 10.3931 26.6814C12.5835 27.9376 15.7191 28.9976 18.8924 29.8522C22.0753 30.7093 25.335 31.3698 27.7962 31.8158C28.1665 31.8829 28.5188 31.9451 28.8503 32.0025Z" fill="#FBF8EF" stroke="#111111"/>
<path d="M29.0885 33.206C28.8044 33.3861 28.5029 33.5787 28.1866 33.7826C26.0845 35.1382 23.3272 36.9981 20.7163 39.0102C18.1132 41.0162 15.6237 43.1975 14.0824 45.1975C13.3141 46.1945 12.7487 47.1875 12.5487 48.1227C12.3424 49.0878 12.5268 50.0035 13.2617 50.7383C13.9965 51.4732 14.9123 51.6576 15.8773 51.4513C16.8125 51.2513 17.8056 50.6859 18.8025 49.9176C20.8026 48.3763 22.9838 45.8868 24.9898 43.2838C27.0019 40.6728 28.8619 37.9155 30.2174 35.8134C30.4214 35.4972 30.614 35.1956 30.794 34.9115C30.7205 35.2397 30.6434 35.5891 30.564 35.957C30.0362 38.4019 29.4016 41.6668 28.9781 44.9358C28.556 48.1949 28.338 51.4976 28.6624 54.0017C28.8241 55.25 29.1265 56.3519 29.6464 57.1546C30.1829 57.9829 30.9608 58.5 32 58.5C33.0393 58.5 33.8172 57.9829 34.3537 57.1546C34.8736 56.3519 35.176 55.2499 35.3377 54.0017C35.662 51.4976 35.4441 48.1949 35.0219 44.9358C34.5984 41.6668 33.9639 38.4019 33.436 35.957C33.3566 35.5891 33.2796 35.2397 33.206 34.9115C33.3861 35.1956 33.5787 35.4972 33.7826 35.8134C35.1382 37.9155 36.9981 40.6728 39.0102 43.2838C41.0162 45.8868 43.1975 48.3763 45.1975 49.9176C46.1945 50.6859 47.1875 51.2513 48.1228 51.4513C49.0878 51.6576 50.0035 51.4732 50.7384 50.7383C51.4732 50.0035 51.6577 49.0878 51.4513 48.1227C51.2513 47.1875 50.6859 46.1945 49.9177 45.1975C48.3764 43.1975 45.8868 41.0162 43.2838 39.0102C40.6728 36.9981 37.9155 35.1382 35.8134 33.7826C35.4972 33.5787 35.1956 33.386 34.9115 33.206C35.2397 33.2795 35.5892 33.3566 35.957 33.436C38.4019 33.9639 41.6668 34.5984 44.9358 35.0219C48.1949 35.4441 51.4976 35.662 54.0018 35.3376C55.25 35.1759 56.352 34.8735 57.1547 34.3536C57.9829 33.8172 58.5 33.0392 58.5 32C58.5 30.9608 57.9829 30.1828 57.1547 29.6464C56.352 29.1265 55.25 28.8241 54.0018 28.6624C51.4976 28.338 48.1949 28.5559 44.9358 28.9781C41.6668 29.4016 38.4019 30.0361 35.957 30.564C35.5892 30.6434 35.2397 30.7205 34.9115 30.794C35.1956 30.614 35.4972 30.4213 35.8134 30.2174C37.9155 28.8618 40.6728 27.0019 43.2838 24.9898C45.8868 22.9838 48.3764 20.8025 49.9177 18.8025C50.6859 17.8055 51.2513 16.8125 51.4513 15.8773C51.6577 14.9122 51.4732 13.9965 50.7384 13.2617C50.0035 12.5268 49.0878 12.3424 48.1228 12.5487C47.1875 12.7487 46.1945 13.3141 45.1975 14.0824C43.1975 15.6237 41.0162 18.1132 39.0102 20.7162C36.9981 23.3272 35.1382 26.0845 33.7826 28.1866C33.5787 28.5028 33.3861 28.8044 33.206 29.0885C33.2796 28.7603 33.3566 28.4109 33.436 28.043C33.9639 25.5981 34.5984 22.3332 35.0219 19.0642C35.4441 15.8051 35.662 12.5024 35.3377 9.99827C35.176 8.75005 34.8736 7.64806 34.3537 6.84537C33.8172 6.01708 33.0393 5.5 32 5.5C30.9608 5.5 30.1829 6.01708 29.6464 6.84537C29.1265 7.64806 28.8241 8.75005 28.6624 9.99827C28.338 12.5024 28.556 15.8051 28.9781 19.0642C29.4016 22.3332 30.0362 25.5981 30.564 28.043C30.6434 28.4109 30.7205 28.7603 30.794 29.0885C30.614 28.8044 30.4214 28.5028 30.2174 28.1866C28.8619 26.0845 27.0019 23.3272 24.9898 20.7162C22.9838 18.1132 20.8026 15.6237 18.8025 14.0824C17.8056 13.3141 16.8125 12.7487 15.8773 12.5487C14.9123 12.3424 13.9965 12.5268 13.2617 13.2617C12.5268 13.9965 12.3424 14.9122 12.5487 15.8773C12.7487 16.8125 13.3141 17.8055 14.0824 18.8025C15.6237 20.8025 18.1132 22.9838 20.7163 24.9898C23.3272 27.0019 26.0845 28.8618 28.1866 30.2174C28.5029 30.4213 28.8044 30.6139 29.0885 30.794C28.7603 30.7205 28.4109 30.6434 28.043 30.564C25.5981 30.0361 22.3333 29.4016 19.0643 28.9781C15.8052 28.5559 12.5024 28.338 9.99829 28.6624C8.75007 28.8241 7.64809 29.1265 6.8454 29.6464C6.01711 30.1828 5.50002 30.9608 5.50002 32C5.50002 33.0392 6.01711 33.8172 6.8454 34.3536C7.64809 34.8735 8.75007 35.1759 9.99829 35.3376C12.5024 35.662 15.8052 35.4441 19.0643 35.0219C22.3333 34.5984 25.5981 33.9639 28.043 33.436C28.4109 33.3566 28.7603 33.2795 29.0885 33.206Z" fill="#FBF8EF" stroke="#111111"/>
<path d="M29.7175 29.6804C29.7506 29.7281 29.7835 29.7754 29.8161 29.8221C29.7692 29.7897 29.7219 29.757 29.674 29.724C28.0885 28.6309 25.9497 27.2207 23.7451 25.9591C21.5491 24.7025 19.2535 23.5731 17.3626 23.0658C16.4208 22.8131 15.5289 22.7003 14.7808 22.8394C14.0028 22.9841 13.3705 23.4072 13.0485 24.1884C12.7265 24.9696 12.877 25.7154 13.3272 26.3663C13.76 26.9921 14.4724 27.5405 15.3187 28.0248C17.018 28.9972 19.4427 29.8133 21.8863 30.469C24.3396 31.1272 26.851 31.6335 28.7462 31.9751C28.8034 31.9854 28.8601 31.9956 28.9162 32.0056C28.8601 32.0158 28.8035 32.0261 28.7464 32.0366C26.8523 32.3849 24.3427 32.9001 21.8917 33.5669C19.4504 34.2311 17.0286 35.0557 15.3328 36.0341C14.4882 36.5214 13.7778 37.0723 13.3471 37.6996C12.8993 38.352 12.7514 39.0984 13.0761 39.8784C13.4008 40.6585 14.0346 41.0794 14.8131 41.2213C15.5617 41.3578 16.4532 41.2419 17.3941 40.9859C19.2832 40.4719 21.5749 39.3345 23.7664 38.0702C25.9665 36.8008 28.1004 35.3831 29.6821 34.2845C29.7298 34.2513 29.777 34.2184 29.8238 34.1859C29.7914 34.2327 29.7586 34.28 29.7257 34.3279C28.6326 35.9134 27.2223 38.0523 25.9608 40.2569C24.7041 42.4528 23.5748 44.7484 23.0675 46.6394C22.8148 47.5811 22.702 48.473 22.8411 49.2211C22.9857 49.9992 23.4089 50.6315 24.1901 50.9534C24.9713 51.2754 25.7171 51.1249 26.368 50.6747C26.9937 50.2419 27.5422 49.5295 28.0265 48.6833C28.9989 46.984 29.815 44.5593 30.4706 42.1156C31.1288 39.6624 31.6352 37.151 31.9768 35.2557C31.9871 35.1985 31.9972 35.1419 32.0072 35.0858C32.0174 35.1418 32.0278 35.1984 32.0383 35.2556C32.3865 37.1496 32.9017 39.6592 33.5685 42.1102C34.2327 44.5515 35.0574 46.9733 36.0358 48.6692C36.523 49.5137 37.074 50.2242 37.7013 50.6548C38.3537 51.1027 39.1001 51.2506 39.8801 50.9258C40.6601 50.6011 41.0811 49.9674 41.223 49.1888C41.3595 48.4402 41.2435 47.5487 40.9876 46.6079C40.4736 44.7187 39.3362 42.4271 38.0718 40.2356C36.8025 38.0354 35.3847 35.9015 34.2861 34.3199C34.253 34.2721 34.2201 34.2249 34.1875 34.1782C34.2344 34.2106 34.2817 34.2433 34.3296 34.2763C35.9151 35.3693 38.0539 36.7796 40.2585 38.0412C42.4545 39.2978 44.7501 40.4271 46.6411 40.9345C47.5828 41.1871 48.4747 41.2999 49.2228 41.1609C50.0008 41.0162 50.6331 40.593 50.9551 39.8118C51.2771 39.0307 51.1266 38.2848 50.6764 37.634C50.2436 37.0082 49.5312 36.4598 48.6849 35.9755C46.9856 35.0031 44.5609 34.1869 42.1173 33.5313C39.664 32.8731 37.1526 32.3668 35.2574 32.0252C35.2002 32.0149 35.1435 32.0047 35.0875 31.9947C35.1435 31.9845 35.2001 31.9741 35.2573 31.9636C37.1513 31.6154 39.6609 31.1002 42.1119 30.4334C44.5532 29.7692 46.975 28.9445 48.6708 27.9662C49.5154 27.4789 50.2259 26.928 50.6565 26.3007C51.1044 25.6482 51.2522 24.9019 50.9275 24.1218C50.6028 23.3418 49.969 22.9208 49.1905 22.7789C48.4419 22.6425 47.5504 22.7584 46.6095 23.0144C44.7204 23.5284 42.4288 24.6658 40.2373 25.9301C38.0371 27.1994 35.9032 28.6172 34.3216 29.7158C34.2738 29.749 34.2266 29.7818 34.1799 29.8144C34.2123 29.7676 34.245 29.7202 34.278 29.6724C35.371 28.0869 36.7813 25.948 38.0428 23.7434C39.2995 21.5475 40.4288 19.2519 40.9361 17.3609C41.1888 16.4192 41.3016 15.5272 41.1625 14.7792C41.0179 14.0011 40.5947 13.3688 39.8135 13.0468C39.0323 12.7249 38.2865 12.8754 37.6357 13.3255C37.0099 13.7584 36.4614 14.4707 35.9772 15.317C35.0047 17.0163 34.1886 19.441 33.533 21.8846C32.8748 24.3379 32.3684 26.8493 32.0269 28.7446C32.0166 28.8018 32.0064 28.8584 31.9964 28.9145C31.9862 28.8585 31.9758 28.8018 31.9653 28.7447C31.6171 26.8506 31.1019 24.341 30.4351 21.8901C29.7709 19.4488 28.9462 17.0269 27.9678 15.3311C27.4806 14.4865 26.9296 13.7761 26.3023 13.3455C25.6499 12.8976 24.9036 12.7497 24.1235 13.0744C23.3435 13.3991 22.9225 14.0329 22.7806 14.8115C22.6442 15.56 22.7601 16.4515 23.0161 17.3924C23.53 19.2816 24.6674 21.5732 25.9318 23.7647C27.2011 25.9648 28.6189 28.0987 29.7175 29.6804Z" fill="#FBF8EF" stroke="#111111"/>
<path d="M53.5625 31.9994L53.8563 32.404L54.4135 31.9994L53.8563 31.5948L53.5625 31.9994ZM53.5625 31.9994C53.8563 32.404 53.8562 32.4041 53.856 32.4042L53.8554 32.4047L53.8533 32.4062L53.8455 32.4118L53.8158 32.4331C53.7899 32.4517 53.7518 32.4789 53.7022 32.514C53.6029 32.5842 53.4577 32.6858 53.2723 32.8129C52.9016 33.0671 52.3697 33.4232 51.723 33.8328C50.4312 34.6507 48.6733 35.6868 46.8213 36.5485C44.9793 37.4056 42.9997 38.1115 41.2759 38.231C39.5382 38.3514 37.9402 37.8728 37.1153 36.223C36.3903 34.7731 36.0146 33.3952 36.0146 31.9994C36.0146 30.6037 36.3903 29.2257 37.1153 27.7758C37.9402 26.1261 39.5382 25.6475 41.2759 25.7679C42.9997 25.8873 44.9793 26.5933 46.8213 27.4503C48.6733 28.312 50.4312 29.3481 51.723 30.1661C52.3697 30.5756 52.9016 30.9318 53.2723 31.1859C53.4577 31.313 53.6029 31.4147 53.7022 31.4848C53.7518 31.5199 53.7899 31.5471 53.8158 31.5657L53.8455 31.587L53.8533 31.5926L53.8554 31.5942L53.856 31.5946C53.8562 31.5947 53.8563 31.5948 53.5625 31.9994Z" fill="#7ECEA6" stroke="#111111"/>
<path d="M10.5615 31.9995L10.2677 31.5949L9.71051 31.9995L10.2677 32.4041L10.5615 31.9995ZM10.5615 31.9995C10.2677 32.4041 10.2678 32.4042 10.268 32.4043L10.2686 32.4048L10.2707 32.4063L10.2785 32.4119L10.3082 32.4332C10.3341 32.4518 10.3722 32.479 10.4218 32.5141C10.5211 32.5842 10.6663 32.6859 10.8517 32.813C11.2224 33.0671 11.7543 33.4233 12.401 33.8328C13.6928 34.6508 15.4507 35.6869 17.3027 36.5486C19.1447 37.4056 21.1243 38.1115 22.8481 38.231C24.5858 38.3514 26.1838 37.8728 27.0087 36.223C27.7336 34.7731 28.1094 33.3952 28.1094 31.9994C28.1094 30.6036 27.7336 29.2257 27.0087 27.7758C26.1838 26.1261 24.5858 25.6475 22.848 25.7679C21.1243 25.8874 19.1447 26.5933 17.3027 27.4504C15.4507 28.312 13.6928 29.3482 12.401 30.1662C11.7543 30.5757 11.2224 30.9319 10.8517 31.186C10.6663 31.3131 10.5211 31.4148 10.4218 31.4849C10.3722 31.52 10.3341 31.5472 10.3082 31.5658L10.2785 31.5871L10.2707 31.5927L10.2686 31.5943L10.268 31.5947C10.2678 31.5948 10.2677 31.5949 10.5615 31.9995Z" fill="#7ECEA6" stroke="#111111"/>
<path d="M32.0581 10.4995L32.4627 10.2057L32.0581 9.64853L31.6535 10.2057L32.0581 10.4995ZM32.0581 10.4995C32.4627 10.2057 32.4628 10.2059 32.4629 10.206L32.4634 10.2066L32.4649 10.2087L32.4705 10.2165L32.4918 10.2462C32.5104 10.2721 32.5376 10.3102 32.5727 10.3599C32.6428 10.4591 32.7445 10.6043 32.8716 10.7897C33.1257 11.1604 33.4819 11.6923 33.8914 12.3391C34.7094 13.6308 35.7455 15.3887 36.6072 17.2407C37.4642 19.0827 38.1701 21.0623 38.2896 22.7861C38.41 24.5238 37.9314 26.1218 36.2816 26.9467C34.8317 27.6717 33.4538 28.0474 32.058 28.0474C30.6622 28.0474 29.2843 27.6717 27.8344 26.9467C26.1846 26.1218 25.706 24.5238 25.8265 22.7861C25.9459 21.0623 26.6519 19.0827 27.509 17.2407C28.3706 15.3887 29.4068 13.6308 30.2247 12.3391C30.6343 11.6923 30.9905 11.1604 31.2446 10.7897C31.3717 10.6043 31.4734 10.4591 31.5435 10.3598C31.5786 10.3102 31.6058 10.2721 31.6244 10.2462L31.6457 10.2165L31.6513 10.2087L31.6529 10.2066L31.6533 10.206C31.6534 10.2059 31.6535 10.2057 32.0581 10.4995Z" fill="#7ECEA6" stroke="#111111"/>
<path d="M32.0578 53.4994L31.6471 53.7847L32.0577 54.3758L32.4684 53.7847L32.0578 53.4994ZM32.0578 53.4994C32.4684 53.7847 32.4685 53.7846 32.4686 53.7844L32.469 53.7838L32.4706 53.7816L32.4764 53.7732L32.4986 53.7409C32.518 53.7127 32.5464 53.6712 32.5831 53.6171C32.6564 53.509 32.7628 53.3509 32.8957 53.1495C33.1615 52.7468 33.5339 52.1704 33.9616 51.4743C34.8158 50.0838 35.8955 48.2073 36.7861 46.2772C37.6705 44.3604 38.3944 42.3368 38.4911 40.6677C38.5397 39.8295 38.4334 39.0321 38.064 38.3766C37.6845 37.7031 37.0574 37.2334 36.1813 37.0144C35.3539 36.8075 34.6865 36.809 34.0391 36.8588C33.8358 36.8745 33.6416 36.8939 33.448 36.9132C33.0141 36.9565 32.5833 36.9994 32.06 36.9994C31.5366 36.9994 31.1059 36.9565 30.672 36.9132C30.4784 36.8939 30.2842 36.8745 30.0809 36.8588C29.4335 36.809 28.7661 36.8075 27.9387 37.0144C27.0626 37.2334 26.4355 37.7031 26.0558 38.3765C25.6863 39.032 25.5798 39.8294 25.6281 40.6676C25.7244 42.3367 26.4477 44.3603 27.3316 46.2771C28.2217 48.2072 29.3008 50.0837 30.1546 51.4742C30.5821 52.1703 30.9543 52.7467 31.22 53.1494C31.3529 53.3508 31.4592 53.509 31.5325 53.617C31.5691 53.6711 31.5975 53.7126 31.6169 53.7409L31.6391 53.7731L31.6449 53.7815L31.6465 53.7837L31.6469 53.7844C31.647 53.7845 31.6471 53.7847 32.0578 53.4994Z" fill="#7ECEA6" stroke="#111111"/>
<path d="M47.2645 16.7964L47.7583 16.8748L47.8662 16.1947L47.1862 16.3026L47.2645 16.7964ZM47.2645 16.7964C47.7583 16.8748 47.7583 16.8749 47.7583 16.8752L47.7582 16.8759L47.7578 16.8785L47.7562 16.8879L47.7503 16.924C47.7452 16.9555 47.7374 17.0017 47.7272 17.0615C47.7066 17.1813 47.6758 17.3559 47.6346 17.5768C47.5522 18.0187 47.4279 18.6466 47.2602 19.3935C46.9252 20.8853 46.4148 22.861 45.7146 24.7798C45.0182 26.6883 44.1176 28.5873 42.9833 29.8906C41.8397 31.2045 40.3713 31.996 38.6214 31.4128C37.0836 30.9001 35.8436 30.1915 34.8566 29.2045C33.8696 28.2175 33.161 26.9775 32.6484 25.4397C32.0651 23.6898 32.8566 22.2214 34.1705 21.0778C35.4738 19.9435 37.3728 19.0428 39.2812 18.3464C41.2 17.6462 43.1757 17.1358 44.6675 16.8008C45.4144 16.6331 46.0423 16.5088 46.4841 16.4264C46.7051 16.3852 46.8796 16.3544 46.9994 16.3338C47.0593 16.3235 47.1055 16.3158 47.137 16.3106L47.173 16.3047L47.1825 16.3032L47.1851 16.3028L47.1858 16.3027C47.186 16.3026 47.1862 16.3026 47.2645 16.7964Z" fill="#7ECEA6" stroke="#111111"/>
<path d="M16.8582 47.2022L16.3644 47.1239L16.2565 47.804L16.9366 47.696L16.8582 47.2022ZM16.8582 47.2022C16.9366 47.696 16.9368 47.696 16.937 47.696L16.9377 47.6959L16.9403 47.6955L16.9498 47.6939L16.9858 47.688C17.0173 47.6828 17.0635 47.6751 17.1234 47.6648C17.2431 47.6443 17.4177 47.6135 17.6387 47.5723C18.0805 47.4898 18.7085 47.3656 19.4554 47.1978C20.9472 46.8628 22.9229 46.3524 24.8418 45.6522C26.7503 44.9557 28.6493 44.0551 29.9527 42.9206C31.2666 41.777 32.0582 40.3086 31.4749 38.5588C30.9623 37.0209 30.2536 35.7809 29.2667 34.7939C28.2797 33.807 27.0397 33.0983 25.5018 32.5857C23.752 32.0024 22.2836 32.794 21.14 34.1079C20.0055 35.4112 19.1049 37.3102 18.4084 39.2187C17.7081 41.1376 17.1977 43.1133 16.8627 44.6051C16.6949 45.352 16.5707 45.9799 16.4882 46.4218C16.447 46.6428 16.4162 46.8173 16.3956 46.9371C16.3853 46.997 16.3776 47.0432 16.3724 47.0747L16.3665 47.1107L16.365 47.1202L16.3646 47.1227L16.3645 47.1235C16.3644 47.1237 16.3644 47.1239 16.8582 47.2022Z" fill="#7ECEA6" stroke="#111111"/>
<path d="M16.8572 16.7964L16.9356 16.3026L16.2554 16.1947L16.3634 16.8748L16.8572 16.7964ZM16.8572 16.7964C16.9356 16.3026 16.9357 16.3026 16.9359 16.3026L16.9367 16.3028L16.9392 16.3032L16.9487 16.3047L16.9848 16.3106C17.0162 16.3158 17.0624 16.3235 17.1223 16.3338C17.2421 16.3543 17.4167 16.3851 17.6377 16.4263C18.0797 16.5088 18.7077 16.633 19.4548 16.8007C20.9469 17.1357 22.9229 17.6461 24.8421 18.3463C26.751 19.0427 28.6503 19.9433 29.9539 21.0777C31.2681 22.2213 32.0599 23.6897 31.4766 25.4396C30.964 26.9774 30.2553 28.2174 29.2684 29.2044C28.2814 30.1914 27.0414 30.9 25.5035 31.4126C23.7537 31.9959 22.2851 31.2044 21.1413 29.8905C20.0066 28.5872 19.1056 26.6883 18.4088 24.7798C17.7081 22.861 17.1974 20.8854 16.8621 19.3936C16.6942 18.6467 16.5698 18.0187 16.4873 17.5769C16.4461 17.3559 16.4152 17.1814 16.3946 17.0616C16.3844 17.0017 16.3766 16.9555 16.3714 16.924L16.3655 16.888L16.364 16.8785L16.3636 16.8759L16.3635 16.8752C16.3634 16.875 16.3634 16.8748 16.8572 16.7964Z" fill="#7ECEA6" stroke="#111111"/>
<path d="M47.2606 47.2022L47.1822 47.6961L47.8623 47.804L47.7544 47.1239L47.2606 47.2022ZM47.2606 47.2022C47.7544 47.1239 47.7544 47.1237 47.7543 47.1235L47.7542 47.1228L47.7538 47.1202L47.7523 47.1107L47.7464 47.0747C47.7412 47.0432 47.7335 46.997 47.7232 46.9371C47.7026 46.8174 47.6718 46.6428 47.6306 46.4218C47.5482 45.98 47.4239 45.352 47.2562 44.6051C46.9212 43.1133 46.4109 41.1376 45.7106 39.2187C45.0142 37.3102 44.1136 35.4112 42.9792 34.1078C41.8356 32.7939 40.3672 32.0023 38.6174 32.5856C37.0795 33.0982 35.8395 33.8069 34.8526 34.7938C33.8656 35.7808 33.1569 37.0208 32.6443 38.5587C32.061 40.3085 32.8526 41.7769 34.1665 42.9206C35.4698 44.055 37.3687 44.9556 39.2772 45.6521C41.196 46.3524 43.1717 46.8628 44.6635 47.1978C45.4104 47.3656 46.0383 47.4898 46.4801 47.5723C46.7011 47.6135 46.8757 47.6443 46.9954 47.6649C47.0553 47.6751 47.1015 47.6829 47.133 47.6881L47.169 47.6939L47.1785 47.6955L47.1811 47.6959L47.1818 47.696C47.182 47.696 47.1822 47.6961 47.2606 47.2022Z" fill="#7ECEA6" stroke="#111111"/>
<rect x="21.5" y="21.5" width="21" height="21" rx="10.5" fill="#FBF8EF" stroke="#111111"/>
<rect x="24.5" y="24.5" width="15" height="15" rx="7.5" fill="#7ECEA6" stroke="#111111"/>
<path d="M61 53V61H53L61 53Z" fill="#FBF8EF"/>
<path d="M53 3H61V11L53 3Z" fill="#FBF8EF"/>
<path d="M11 3H3V11L11 3Z" fill="#FBF8EF"/>
<path d="M11 61H3V53L11 61Z" fill="#FBF8EF"/>
</g>
<defs>
<clipPath id="clip0_400_1679">
<rect width="64" height="64" fill="white"/>
</clipPath>
</defs>
</svg>
