<svg width="64" height="64" viewBox="0 0 64 64" fill="none" xmlns="http://www.w3.org/2000/svg">
<g clip-path="url(#clip0_403_209)">
<rect width="64" height="64" fill="#7ECEA6"/>
<rect width="45.2548" height="45.2548" transform="translate(0 32) rotate(-45)" fill="#FBF8EF"/>
<path d="M34.9294 21.717C34.9293 21.717 34.9291 21.717 34.9288 21.7169C34.9199 21.715 34.843 21.6984 34.7764 21.4347C34.708 21.1642 34.689 20.7633 34.7127 20.235C34.736 19.7152 34.798 19.1157 34.8694 18.4634C34.8786 18.3799 34.8879 18.2955 34.8973 18.2104C34.9606 17.6368 35.0274 17.0311 35.0753 16.4287C35.184 15.063 35.2059 13.6225 34.8252 12.5091C34.6311 11.9413 34.3228 11.4292 33.8421 11.0612C33.3577 10.6902 32.7428 10.5 32 10.5C31.2572 10.5 30.6423 10.6902 30.1579 11.0612C29.6772 11.4292 29.3689 11.9413 29.1748 12.5091C28.7941 13.6225 28.816 15.063 28.9247 16.4287C28.9727 17.0311 29.0395 17.637 29.1027 18.2106C29.1121 18.2956 29.1214 18.3799 29.1306 18.4634C29.202 19.1157 29.264 19.7152 29.2873 20.235C29.311 20.7633 29.292 21.1642 29.2236 21.4347C29.157 21.6984 29.0801 21.715 29.0712 21.7169C29.0709 21.717 29.0707 21.717 29.0706 21.717C29.0705 21.7171 29.0038 21.753 28.8187 21.5536C28.633 21.3536 28.4278 21.0146 28.1991 20.5412C27.9743 20.0757 27.7456 19.5212 27.5005 18.9155C27.4673 18.8335 27.4338 18.7506 27.4 18.667C27.1865 18.1382 26.9612 17.5803 26.7215 17.0345C26.1739 15.7875 25.5153 14.5152 24.6598 13.7297C24.2229 13.3285 23.7109 13.0319 23.1156 12.9496C22.5162 12.8668 21.8921 13.0097 21.25 13.3805C20.6042 13.7533 20.1685 14.2316 19.9408 14.8038C19.7153 15.3704 19.7144 15.9765 19.8407 16.573C20.0888 17.7446 20.8553 19.0031 21.6651 20.152C22.0566 20.7074 22.4701 21.2531 22.8577 21.7647C22.8762 21.7891 22.8947 21.8135 22.9131 21.8378C23.3196 22.3744 23.6922 22.8684 23.992 23.3104C24.2964 23.7594 24.5003 24.1186 24.5927 24.3873C24.6382 24.52 24.6454 24.5994 24.6427 24.6383C24.6426 24.6398 24.6425 24.6411 24.6424 24.6424C24.6411 24.6425 24.6398 24.6426 24.6383 24.6427C24.5994 24.6454 24.52 24.6382 24.3873 24.5927C24.1186 24.5003 23.7594 24.2964 23.3104 23.992C22.8684 23.6922 22.3744 23.3196 21.8378 22.9131C21.8135 22.8947 21.7891 22.8762 21.7647 22.8577C21.2531 22.4701 20.7074 22.0566 20.152 21.6651C19.0031 20.8553 17.7446 20.0888 16.573 19.8407C15.9765 19.7144 15.3704 19.7153 14.8038 19.9408C14.2316 20.1685 13.7533 20.6042 13.3805 21.25C13.0072 21.8965 12.8676 22.5324 12.947 23.1486C13.0257 23.7588 13.3127 24.2999 13.7061 24.7752C14.4797 25.7098 15.7395 26.4767 16.9869 27.1249C17.5941 27.4403 18.2156 27.7361 18.7977 28.013L18.8671 28.0461C19.4735 28.3346 20.0305 28.6009 20.5004 28.8552C20.9771 29.1131 21.3262 29.339 21.5369 29.5377C21.6409 29.6357 21.6884 29.7063 21.7074 29.7477C21.7108 29.755 21.7129 29.7607 21.7143 29.7649C21.6869 29.7824 21.621 29.8119 21.4906 29.8332C21.2212 29.8771 20.8195 29.8651 20.2896 29.8047C19.7685 29.7454 19.1676 29.6451 18.5138 29.5341C18.475 29.5275 18.4359 29.5208 18.3967 29.5142C17.7816 29.4097 17.1265 29.2983 16.474 29.2101C15.1057 29.0252 13.6595 28.9271 12.5386 29.2517C11.9663 29.4174 11.4452 29.7025 11.0696 30.1723C10.691 30.6459 10.5 31.2574 10.5 32C10.5 32.7424 10.6907 33.3533 11.0697 33.8256C11.4457 34.2942 11.9672 34.5765 12.5393 34.7391C13.6595 35.0575 15.1047 34.9519 16.4717 34.7613C17.1086 34.6725 17.7484 34.5619 18.3507 34.4577C18.4041 34.4485 18.4573 34.4393 18.5101 34.4302C19.1635 34.3174 19.764 34.2161 20.2847 34.1567C20.8145 34.0963 21.2155 34.0854 21.4842 34.1309C21.6162 34.1533 21.6823 34.1841 21.7096 34.2024C21.7131 34.2047 21.7157 34.2067 21.7175 34.2081C21.7175 34.2084 21.7175 34.2086 21.7174 34.209C21.7172 34.211 21.7159 34.221 21.7072 34.2406C21.6878 34.284 21.6403 34.3559 21.5371 34.455C21.3276 34.656 20.9797 34.884 20.5037 35.1439C20.0346 35.3999 19.4779 35.6675 18.8716 35.957C18.8362 35.9739 18.8007 35.9908 18.765 36.0079C18.1938 36.2805 17.5857 36.5707 16.9913 36.8795C15.7435 37.5277 14.4827 38.2934 13.7081 39.2267C13.3143 39.7013 13.0267 40.2419 12.9476 40.8518C12.8677 41.4678 13.0072 42.1035 13.3805 42.75C13.7533 43.3958 14.2316 43.8315 14.8038 44.0592C15.3704 44.2847 15.9765 44.2856 16.573 44.1593C17.7446 43.9113 19.0031 43.1447 20.152 42.3349C20.7074 41.9434 21.2531 41.53 21.7647 41.1423L21.8378 41.0869C22.3744 40.6804 22.8684 40.3078 23.3104 40.008C23.7594 39.7036 24.1186 39.4997 24.3873 39.4074C24.52 39.3618 24.5994 39.3546 24.6383 39.3573C24.6398 39.3574 24.6411 39.3575 24.6424 39.3576C24.6425 39.3589 24.6426 39.3602 24.6427 39.3617C24.6454 39.4007 24.6382 39.48 24.5927 39.6127C24.5003 39.8814 24.2964 40.2406 23.992 40.6896C23.6922 41.1316 23.3196 41.6256 22.9131 42.1622L22.8577 42.2353C22.4701 42.7469 22.0566 43.2926 21.6651 43.848C20.8553 44.9969 20.0888 46.2554 19.8407 47.427C19.7144 48.0236 19.7153 48.6296 19.9408 49.1962C20.1685 49.7684 20.6042 50.2467 21.25 50.6196C21.8925 50.9905 22.5179 51.1334 23.1192 51.0518C23.7162 50.9709 24.2318 50.6766 24.6734 50.2772C25.5385 49.4948 26.2085 48.226 26.764 46.9797C27.0223 46.4002 27.2632 45.8073 27.4901 45.2492C27.5106 45.1989 27.531 45.1488 27.5512 45.099C27.7978 44.4928 28.0264 43.9372 28.2493 43.4696C28.4759 42.9941 28.6777 42.6514 28.8591 42.4476C28.9481 42.3477 29.0113 42.3053 29.0456 42.2895C29.0692 42.2787 29.0704 42.2829 29.0706 42.283C29.0713 42.2832 29.0775 42.2814 29.0961 42.307C29.121 42.3413 29.1571 42.4132 29.1879 42.5464C29.2506 42.8179 29.2648 43.2203 29.2384 43.7493C29.2123 44.27 29.1498 44.8703 29.0794 45.5238C29.0741 45.5726 29.0688 45.6218 29.0635 45.6712C28.998 46.277 28.9285 46.9211 28.8809 47.5623C28.7793 48.9314 28.7691 50.3745 29.1596 51.49C29.3587 52.0585 29.6713 52.5705 30.1541 52.9383C30.6408 53.3091 31.2567 53.5 32 53.5C32.7438 53.5 33.3601 53.3079 33.8468 52.9354C34.3294 52.5659 34.6417 52.052 34.8405 51.4817C35.2307 50.3623 35.2204 48.9145 35.1188 47.542C35.0711 46.8976 35.0013 46.2508 34.9357 45.6429C34.9305 45.595 34.9254 45.5473 34.9203 45.4999C34.8498 44.8459 34.7873 44.2458 34.7613 43.7263C34.7348 43.1982 34.7492 42.799 34.8116 42.5321C34.8422 42.4011 34.8776 42.3332 34.9003 42.3028C34.9053 42.296 34.9092 42.2918 34.9116 42.2895L34.9142 42.2871L34.9146 42.2868C34.9151 42.2866 34.9158 42.2864 34.9169 42.2861C34.9207 42.2852 34.9211 42.2856 34.9212 42.2856C34.922 42.2857 34.93 42.2867 34.9466 42.2947C34.9838 42.3127 35.049 42.3583 35.1388 42.4606C35.3218 42.6691 35.5242 43.0154 35.7509 43.4921C35.9739 43.9613 36.2026 44.5173 36.4492 45.123C36.4672 45.1672 36.4853 45.2117 36.5035 45.2564C36.7324 45.8189 36.9756 46.4167 37.2365 47.0005C37.792 48.2436 38.4622 49.5076 39.3278 50.2858C39.7698 50.6832 40.2855 50.9751 40.8823 51.0543C41.4831 51.134 42.1079 50.9903 42.75 50.6196C43.3955 50.2469 43.8306 49.7696 44.0567 49.1981C44.2805 48.6323 44.2781 48.028 44.1486 47.434C43.8944 46.2681 43.1205 45.0164 42.3069 43.8729C41.9327 43.347 41.5388 42.8291 41.1674 42.3406C41.1297 42.291 41.0923 42.2418 41.0551 42.1929C40.6484 41.6576 40.2765 41.1639 39.9792 40.7214C39.677 40.2717 39.4773 39.9116 39.3896 39.6413C39.3465 39.5085 39.3407 39.4273 39.3446 39.3852C39.3474 39.3545 39.3533 39.3538 39.3536 39.3536C39.3538 39.3533 39.3545 39.3474 39.3852 39.3446C39.4273 39.3407 39.5085 39.3465 39.6413 39.3896C39.9116 39.4773 40.2717 39.677 40.7214 39.9792C41.1639 40.2765 41.6576 40.6484 42.1929 41.0551C42.2418 41.0923 42.291 41.1297 42.3406 41.1674C42.8291 41.5388 43.347 41.9327 43.8729 42.3069C45.0164 43.1205 46.2681 43.8944 47.434 44.1486C48.028 44.2781 48.6323 44.2805 49.1981 44.0567C49.7696 43.8306 50.2469 43.3955 50.6196 42.75C50.9926 42.1038 51.1321 41.4695 51.0511 40.8553C50.9708 40.2471 50.681 39.7101 50.2855 39.2399C49.508 38.3158 48.2437 37.5611 46.9951 36.9205C46.4335 36.6323 45.8593 36.3597 45.3164 36.102C45.2486 36.0698 45.1812 36.0378 45.1144 36.006C44.5085 35.718 43.9528 35.4504 43.4857 35.1925C43.0116 34.9307 42.6671 34.6994 42.4611 34.494C42.3601 34.3932 42.3127 34.3183 42.2929 34.2707C42.2767 34.2319 42.28 34.2164 42.283 34.2055L42.2832 34.2046C42.2856 34.1956 42.2871 34.1899 42.3067 34.176C42.3368 34.1547 42.4041 34.1217 42.5347 34.0968C42.802 34.0458 43.2014 34.0519 43.7305 34.1095C44.2504 34.1662 44.85 34.2669 45.5023 34.3806C45.5891 34.3958 45.6768 34.4111 45.7653 34.4266C46.3359 34.5266 46.9381 34.632 47.537 34.7187C48.9008 34.9162 50.3434 35.0331 51.4613 34.7243C52.0326 34.5665 52.5544 34.2885 52.9307 33.822C53.3099 33.3519 53.5 32.7419 53.5 32C53.5 31.2577 53.3094 30.6468 52.9307 30.1745C52.5549 29.7058 52.0337 29.4233 51.4618 29.2604C50.3422 28.9415 48.8976 29.0462 47.5311 29.2353C46.9017 29.3223 46.2694 29.4305 45.6733 29.5326C45.613 29.5429 45.553 29.5532 45.4935 29.5633C44.8403 29.6749 44.24 29.7748 43.7194 29.8326C43.1898 29.8913 42.7891 29.9004 42.5206 29.8533C42.3889 29.8301 42.3224 29.7987 42.2943 29.7797C42.2884 29.7757 42.2849 29.7727 42.2831 29.771C42.283 29.7709 42.283 29.7707 42.283 29.7706C42.2825 29.7689 42.2823 29.7677 42.2822 29.7667C42.282 29.7655 42.2821 29.7645 42.2822 29.7633C42.2825 29.7603 42.284 29.7497 42.2928 29.7298C42.3121 29.6859 42.3595 29.6137 42.4621 29.5146C42.6707 29.3134 43.0177 29.0856 43.4934 28.8265C43.962 28.5712 44.5185 28.3048 45.1247 28.0171C45.1668 27.9971 45.2092 27.977 45.2518 27.9567C45.8169 27.6886 46.4178 27.4036 47.0051 27.1007C48.253 26.457 49.5148 25.6966 50.2902 24.7673C50.6845 24.2947 50.9727 23.7557 51.0521 23.1466C51.1323 22.5314 50.9927 21.8963 50.6196 21.25C50.2467 20.6042 49.7684 20.1685 49.1962 19.9408C48.6296 19.7153 48.0236 19.7144 47.427 19.8407C46.2554 20.0888 44.9969 20.8553 43.848 21.6651C43.2926 22.0566 42.7469 22.4701 42.2352 22.8578L42.1622 22.9131C41.6256 23.3196 41.1316 23.6922 40.6896 23.992C40.2406 24.2964 39.8814 24.5003 39.6127 24.5927C39.48 24.6382 39.4007 24.6454 39.3617 24.6427C39.3602 24.6426 39.3589 24.6425 39.3576 24.6424C39.3575 24.6411 39.3574 24.6398 39.3573 24.6383C39.3546 24.5994 39.3618 24.52 39.4074 24.3873C39.4997 24.1186 39.7036 23.7594 40.008 23.3104C40.3078 22.8684 40.6804 22.3744 41.0869 21.8378L41.1423 21.7647C41.53 21.2531 41.9434 20.7074 42.3349 20.152C43.1447 19.0031 43.9113 17.7446 44.1593 16.573C44.2856 15.9765 44.2847 15.3704 44.0592 14.8038C43.8315 14.2316 43.3958 13.7533 42.75 13.3805C42.1079 13.0097 41.4838 12.8668 40.8844 12.9496C40.2891 13.0319 39.7771 13.3285 39.3402 13.7297C38.4847 14.5152 37.8261 15.7875 37.2785 17.0345C37.0388 17.5803 36.8135 18.1383 36.5999 18.6671C36.5662 18.7507 36.5327 18.8336 36.4995 18.9155C36.2544 19.5212 36.0257 20.0757 35.8009 20.5412C35.5722 21.0146 35.367 21.3536 35.1813 21.5536C34.9978 21.7512 34.9307 21.7177 34.9294 21.717L34.9294 21.717Z" fill="#7ECEA6" stroke="#111111"/>
<path d="M32 21C32.572 21 32.5713 29.8651 32.5713 29.8651C32.5713 29.8651 37.0007 22.2114 37.5 22.5C37.9993 22.7886 33.562 30.4371 33.562 30.4371C33.562 30.4371 40.7115 26.0002 41 26.5C41.2885 26.9998 34.134 31.4278 34.134 31.4278C34.134 31.4278 43 31.428 43 32C43 32.572 34.134 32.5718 34.134 32.5718C34.134 32.5718 42.2888 36.9998 42 37.5C41.7112 38.0002 33.562 33.5625 33.562 33.5625C33.562 33.5625 38.5007 41.7109 38 42C37.4993 42.2891 32.5713 34.1345 32.5713 34.1345C32.5713 34.1345 32.5713 44 32 44C31.4287 44 31.4273 34.1345 31.4273 34.1345C31.4273 34.1345 26.5 42.2887 26 42C25.5 41.7113 30.4366 33.5625 30.4366 33.5625C30.4366 33.5625 22.2877 38.0002 22 37.5C21.7123 36.9998 29.8646 32.5718 29.8646 32.5718C29.8646 32.5718 20.5 32.572 20.5 32C20.5 31.428 29.8646 31.4278 29.8646 31.4278C29.8646 31.4278 21.6383 27.0002 22 26.5C22.3617 25.9998 30.4366 30.4371 30.4366 30.4371C30.4366 30.4371 25.9993 22.7891 26.5 22.5C27.0007 22.2109 31.4273 29.8651 31.4273 29.8651C31.4273 29.8651 31.428 21 32 21Z" fill="#111111"/>
<rect x="27.5" y="27.5" width="9" height="9" rx="4.5" fill="#FBF8EF" stroke="#111111"/>
<path d="M61 45V61H45L61 45Z" fill="#FBF8EF"/>
<path d="M45 3H61V19L45 3Z" fill="#FBF8EF"/>
<path d="M19 3H3V19L19 3Z" fill="#FBF8EF"/>
<path d="M19 61H3V45L19 61Z" fill="#FBF8EF"/>
</g>
<defs>
<clipPath id="clip0_403_209">
<rect width="64" height="64" fill="white"/>
</clipPath>
</defs>
</svg>
