<svg width="64" height="64" viewBox="0 0 64 64" fill="none" xmlns="http://www.w3.org/2000/svg">
<g clip-path="url(#clip0_400_2536)">
<rect width="64" height="64" fill="#FBF8EF"/>
<rect x="-21.8284" y="32" width="76.1911" height="76.1911" transform="rotate(-45 -21.8284 32)" fill="#FBF8EF"/>
<rect x="-21.8284" y="32" width="76.1911" height="76.1911" transform="rotate(-45 -21.8284 32)" stroke="#6CB9E0" stroke-width="4"/>
<rect width="62.9413" height="62.9413" transform="translate(-13 32) rotate(-45)" fill="#6CB9E0"/>
<rect width="56" height="56" transform="translate(-8 32) rotate(-45)" fill="#FBF8EF"/>
<path d="M32 24L32.7909 29.0484L36 25.0718L34.1607 29.8393L38.9282 28L34.9516 31.2091L40 32L34.9516 32.7909L38.9282 36L34.1607 34.1607L36 38.9282L32.7909 34.9516L32 40L31.2091 34.9516L28 38.9282L29.8393 34.1607L25.0718 36L29.0484 32.7909L24 32L29.0484 31.2091L25.0718 28L29.8393 29.8393L28 25.0718L31.2091 29.0484L32 24Z" fill="#FBF8EF"/>
<rect x="-2.12132" y="32" width="48.2548" height="48.2548" transform="rotate(-45 -2.12132 32)" fill="#FBF8EF"/>
<rect x="-2.12132" y="32" width="48.2548" height="48.2548" transform="rotate(-45 -2.12132 32)" stroke="#6CB9E0" stroke-width="3"/>
<path d="M32.9297 24L33.7206 29.0484L36.9297 25.0718L35.0904 29.8393L39.8579 28L35.8813 31.2091L40.9297 32L35.8813 32.7909L39.8579 36L35.0904 34.1607L36.9297 38.9282L33.7206 34.9516L32.9297 40L32.1388 34.9516L28.9297 38.9282L30.769 34.1607L26.0015 36L29.9781 32.7909L24.9297 32L29.9781 31.2091L26.0015 28L30.769 29.8393L28.9297 25.0718L32.1388 29.0484L32.9297 24Z" fill="#FBF8EF"/>
<path d="M49.7125 29.2161C50.4413 29.0808 50.9528 28.9864 51.3518 28.9512C51.7453 28.9166 51.9687 28.9466 52.1362 29.017C52.4106 29.1324 52.6444 29.3268 52.808 29.5756C52.9078 29.7273 52.9781 29.9415 53.0159 30.3348C53.0541 30.7334 53.0547 31.2536 53.0547 31.9948C53.0547 32.7358 53.0541 33.2558 53.0159 33.6544C52.9781 34.0475 52.9079 34.2617 52.8081 34.4134C52.6446 34.6621 52.4108 34.8566 52.1365 34.972C51.9691 35.0424 51.7457 35.0725 51.3523 35.038C50.9535 35.003 50.442 34.9088 49.7135 34.7737C47.0374 34.2778 45.0573 33.9105 43.6884 33.5581C43.0033 33.3817 42.4969 33.2153 42.1431 33.0491C41.7747 32.876 41.6525 32.7397 41.6184 32.6722C41.4038 32.2472 41.4037 31.7456 41.6181 31.3205C41.6522 31.2529 41.7744 31.1166 42.1427 30.9434C42.4965 30.7771 43.0029 30.6104 43.6879 30.4338C45.0567 30.0809 47.0366 29.713 49.7125 29.2161Z" fill="#6CB9E0" stroke="#111111"/>
<path d="M14.3952 29.2229C17.0496 29.7183 19.0134 30.0851 20.3714 30.4367C21.051 30.6126 21.5534 30.7785 21.9046 30.944C22.2701 31.1162 22.3919 31.2518 22.4262 31.3194C22.6426 31.7459 22.6425 32.2501 22.4261 32.6767C22.3918 32.7442 22.27 32.8798 21.9045 33.052C21.5534 33.2175 21.0509 33.3833 20.3713 33.5592C19.0132 33.9107 17.0494 34.2773 14.395 34.7725C13.6678 34.9082 13.1573 35.0029 12.7591 35.0384C12.3664 35.0734 12.1433 35.0438 11.9761 34.9739C11.6999 34.8584 11.4645 34.6629 11.3003 34.4125C11.201 34.261 11.131 34.0471 11.0933 33.6546C11.0552 33.2567 11.0547 32.7375 11.0547 31.9977C11.0547 31.2579 11.0552 30.7387 11.0934 30.3407C11.131 29.9481 11.201 29.7343 11.3003 29.5828C11.4645 29.3324 11.6999 29.1369 11.9762 29.0214C12.1434 28.9515 12.3664 28.9219 12.7593 28.957C13.1575 28.9925 13.668 29.0872 14.3952 29.2229Z" fill="#6CB9E0" stroke="#111111"/>
<path d="M29.2721 14.3337C29.1392 13.6073 29.0464 13.0975 29.0124 12.6999C28.9788 12.3077 29.0091 12.0851 29.0795 11.9182C29.1953 11.6435 29.3903 11.4096 29.6396 11.2463C29.7911 11.147 30.0047 11.0771 30.3965 11.0396C30.7937 11.0015 31.3119 11.001 32.0504 11.001C32.7928 11.001 33.3139 11.0015 33.7132 11.0398C34.1071 11.0777 34.3215 11.1481 34.4733 11.2479C34.7231 11.4123 34.9181 11.6477 35.0332 11.9237L35.4947 11.7313L35.0332 11.9237C35.1031 12.0914 35.1325 12.3151 35.0964 12.7092C35.0598 13.1087 34.9635 13.6208 34.8255 14.3503C34.3218 17.0138 33.9487 18.9844 33.5926 20.3467C33.4144 21.0284 33.2467 21.5323 33.0797 21.8842C32.9059 22.2506 32.7697 22.3722 32.702 22.4062C32.2756 22.6204 31.7726 22.6189 31.3475 22.4021C31.28 22.3677 31.1445 22.2454 30.9729 21.8779C30.808 21.525 30.6433 21.0201 30.4692 20.3373C30.1212 18.9729 29.7599 17.0002 29.2721 14.3337Z" fill="#6CB9E0" stroke="#111111"/>
<path d="M29.2729 49.6645C29.7612 46.9982 30.1228 45.0256 30.4711 43.6613C30.6453 42.9785 30.8101 42.4737 30.975 42.1208C31.1467 41.7534 31.2822 41.631 31.3497 41.5967C31.7749 41.38 32.2778 41.3786 32.7043 41.5929C32.7719 41.6269 32.9081 41.7485 33.0819 42.1149C33.2487 42.4668 33.4163 42.9707 33.5944 43.6525C33.9503 45.0148 34.323 46.9854 34.8263 49.6489C34.9642 50.3783 35.0604 50.8903 35.0969 51.2897C35.1328 51.6838 35.1035 51.9075 35.0336 52.0752C34.9184 52.3512 34.7234 52.5865 34.4736 52.7508C34.3219 52.8507 34.1075 52.9211 33.7136 52.9589C33.3144 52.9972 32.7934 52.9977 32.0511 52.9977C31.3125 52.9977 30.7942 52.9972 30.3969 52.9591C30.0051 52.9216 29.7915 52.8516 29.64 52.7524C29.3906 52.589 29.1956 52.355 29.0799 52.0804C29.0095 51.9134 28.9792 51.6907 29.0129 51.2985C29.047 50.9009 29.1398 50.391 29.2729 49.6645Z" fill="#6CB9E0" stroke="#111111"/>
<path d="M42.5825 17.5403C43.0024 16.9316 43.2975 16.5047 43.5548 16.1989C43.8086 15.8973 43.9877 15.7611 44.1557 15.6928C44.4314 15.5807 44.7342 15.5532 45.0255 15.6136C45.2031 15.6505 45.4039 15.7521 45.7079 16.003C46.0162 16.2573 46.3835 16.6239 46.9065 17.1468C47.4313 17.6716 47.7993 18.0404 48.0545 18.3498C48.3062 18.655 48.408 18.8564 48.4447 19.0344C48.505 19.3266 48.4767 19.63 48.3636 19.906C48.2947 20.0742 48.1575 20.2533 47.8537 20.5069C47.5458 20.7639 47.1161 21.0584 46.5034 21.4773C44.2594 23.0117 42.5989 24.1468 41.3814 24.8619C40.7722 25.2197 40.2963 25.4587 39.9287 25.5903C39.5459 25.7274 39.3633 25.7171 39.2914 25.6933C38.8391 25.5435 38.4849 25.1878 38.337 24.7349C38.3135 24.6629 38.3039 24.4803 38.4426 24.0981C38.5757 23.731 38.8166 23.2561 39.177 22.6483C39.897 21.4338 41.0389 19.7779 42.5825 17.5403Z" fill="#6CB9E0" stroke="#111111"/>
<path d="M17.6081 42.522C19.8343 40.989 21.4815 39.855 22.69 39.1399C23.2948 38.7821 23.7673 38.5428 24.1327 38.4107C24.513 38.2731 24.6951 38.2825 24.7671 38.3059C25.2217 38.4536 25.5787 38.8092 25.7283 39.2632C25.752 39.3351 25.7621 39.5172 25.626 39.8981C25.4953 40.264 25.258 40.7374 24.9026 41.3436C24.1923 42.555 23.065 44.2068 21.5408 46.4391C21.1228 47.0513 20.829 47.4806 20.5726 47.7884C20.3196 48.092 20.1409 48.2293 19.9731 48.2983C19.6961 48.4123 19.3913 48.4408 19.098 48.3801C18.9204 48.3433 18.7193 48.2415 18.4145 47.99C18.1055 47.7351 17.7372 47.3676 17.213 46.8434C16.6907 46.3212 16.3246 45.9542 16.0705 45.6464C15.8199 45.3427 15.7183 45.1422 15.6814 44.965L15.1919 45.067L15.6814 44.965C15.6204 44.6724 15.6482 44.3683 15.7612 44.0916C15.8297 43.924 15.966 43.7453 16.2675 43.4921C16.5731 43.2354 16.9997 42.941 17.6081 42.522Z" fill="#6CB9E0" stroke="#111111"/>
<path d="M17.5982 21.4745C16.9899 21.0556 16.5634 20.7611 16.2577 20.5043C15.9563 20.2511 15.82 20.0724 15.7515 19.9048C15.6386 19.6281 15.6108 19.3241 15.6717 19.0316C15.7087 18.8543 15.8103 18.6539 16.0609 18.3502C16.315 18.0423 16.6811 17.6754 17.2034 17.1531C17.7276 16.6289 18.0959 16.2614 18.4049 16.0064C18.7098 15.7549 18.9109 15.6531 19.0886 15.6164C19.3819 15.5556 19.6866 15.5841 19.9636 15.6981C20.1314 15.7672 20.3101 15.9045 20.5631 16.2081C20.8195 16.5159 21.1134 16.9453 21.5314 17.5576C23.0558 19.7905 24.1834 21.4427 24.8938 22.6543C25.2492 23.2607 25.4866 23.7342 25.6174 24.1002C25.7534 24.4812 25.7433 24.6633 25.7196 24.7352C25.57 25.1892 25.2131 25.5447 24.7585 25.6924C24.6865 25.7158 24.5043 25.7251 24.1239 25.5875C23.7585 25.4552 23.2859 25.2159 22.681 24.8579C21.4723 24.1426 19.8248 23.0082 17.5982 21.4745Z" fill="#6CB9E0" stroke="#111111"/>
<path d="M42.5819 46.4597C41.0371 44.2215 39.8943 42.5653 39.1737 41.3504C38.8131 40.7425 38.5719 40.2675 38.4387 39.9003C38.2999 39.5179 38.3094 39.3353 38.3329 39.2633C38.4807 38.8105 38.8348 38.4548 39.2869 38.305C39.3588 38.2812 39.5414 38.2708 39.9244 38.4079C40.2922 38.5395 40.7682 38.7785 41.3778 39.1364C42.5959 39.8516 44.2572 40.9869 46.5023 42.5216C47.1153 42.9406 47.5451 43.2351 47.8532 43.4921C48.157 43.7457 48.2943 43.9249 48.3632 44.0931C48.4763 44.369 48.5046 44.6724 48.4444 44.9645C48.4077 45.1426 48.3059 45.344 48.0541 45.6493C47.7989 45.9588 47.4308 46.3277 46.9058 46.8527C46.3829 47.3755 46.0156 47.7421 45.7073 47.9964C45.4033 48.2472 45.2026 48.3488 45.025 48.3857C44.7337 48.4461 44.4311 48.4186 44.1555 48.3067C43.9875 48.2384 43.8083 48.1022 43.5545 47.8007C43.2972 47.495 43.0019 47.0683 42.5819 46.4597Z" fill="#6CB9E0" stroke="#111111"/>
<rect x="24.5" y="24.5" width="15" height="15" rx="7.5" fill="#FBF8EF" stroke="#111111"/>
<rect x="49.5" y="22.5" width="3" height="3" rx="1.5" fill="#FBF8EF" stroke="#111111"/>
<rect x="49.5" y="38.5" width="3" height="3" rx="1.5" fill="#FBF8EF" stroke="#111111"/>
<rect x="38.5" y="49.5" width="3" height="3" rx="1.5" fill="#FBF8EF" stroke="#111111"/>
<rect x="22.5" y="49.5" width="3" height="3" rx="1.5" fill="#FBF8EF" stroke="#111111"/>
<rect x="11.5" y="38.5" width="3" height="3" rx="1.5" fill="#FBF8EF" stroke="#111111"/>
<rect x="11.5" y="22.5" width="3" height="3" rx="1.5" fill="#FBF8EF" stroke="#111111"/>
<rect x="21.5" y="11.5" width="3" height="3" rx="1.5" fill="#FBF8EF" stroke="#111111"/>
<rect x="38.5" y="11.5" width="3" height="3" rx="1.5" fill="#FBF8EF" stroke="#111111"/>
</g>
<defs>
<clipPath id="clip0_400_2536">
<rect width="64" height="64" fill="white"/>
</clipPath>
</defs>
</svg>
