<svg width="64" height="64" viewBox="0 0 64 64" fill="none" xmlns="http://www.w3.org/2000/svg">
<g clip-path="url(#clip0_400_1820)">
<rect width="64" height="64" fill="#FBF8EF"/>
<rect x="-3.34743" y="32" width="50" height="50" transform="rotate(-45 -3.34743 32)" fill="#FBF8EF"/>
<rect x="-3.34743" y="32" width="50" height="50" transform="rotate(-45 -3.34743 32)" stroke="#7ECEA6" stroke-width="3"/>
<rect width="41" height="41" transform="translate(3 32) rotate(-45)" fill="#7ECEA6"/>
<mask id="path-2-outside-1_400_1820" maskUnits="userSpaceOnUse" x="4.77388" y="4.77499" width="54.45" height="54.45" fill="black">
<rect fill="white" x="4.77388" y="4.77499" width="54.45" height="54.45"/>
<path d="M24.685 13.3853C29.5077 11.4904 32 32 32 32C32 32 35.2397 11.5955 39.9898 13.6657C44.7398 15.736 32 32 32 32C32 32 48.7187 19.8634 50.6136 24.6861C52.5085 29.5088 32 32 32 32C32 32 52.4035 35.2409 50.3332 39.9909C48.2629 44.7409 32 32 32 32C32 32 44.1355 48.7198 39.3128 50.6147C34.4901 52.5096 32 32 32 32C32 32 28.7581 52.4046 24.008 50.3343C19.258 48.264 32 32 32 32C32 32 15.2791 44.1366 13.3842 39.3139C11.4893 34.4912 32 32 32 32C32 32 11.5944 28.7592 13.6646 24.0091C15.7349 19.2591 32 32 32 32C32 32 19.8623 15.2802 24.685 13.3853Z"/>
</mask>
<path d="M24.685 13.3853C29.5077 11.4904 32 32 32 32C32 32 35.2397 11.5955 39.9898 13.6657C44.7398 15.736 32 32 32 32C32 32 48.7187 19.8634 50.6136 24.6861C52.5085 29.5088 32 32 32 32C32 32 52.4035 35.2409 50.3332 39.9909C48.2629 44.7409 32 32 32 32C32 32 44.1355 48.7198 39.3128 50.6147C34.4901 52.5096 32 32 32 32C32 32 28.7581 52.4046 24.008 50.3343C19.258 48.264 32 32 32 32C32 32 15.2791 44.1366 13.3842 39.3139C11.4893 34.4912 32 32 32 32C32 32 11.5944 28.7592 13.6646 24.0091C15.7349 19.2591 32 32 32 32C32 32 19.8623 15.2802 24.685 13.3853Z" fill="#FBF8EF"/>
<path d="M25.0507 14.3161C25.2864 14.2235 25.4992 14.2374 25.8016 14.4541C26.1536 14.7062 26.5593 15.2006 26.9865 15.9767C27.8336 17.5154 28.5725 19.7978 29.181 22.2252C29.7847 24.6333 30.2417 27.1079 30.5483 28.9861C30.7013 29.9238 30.8164 30.7097 30.893 31.2603C30.9314 31.5356 30.9601 31.7519 30.9791 31.8988C30.9887 31.9723 30.9958 32.0283 31.0005 32.0657C31.0028 32.0844 31.0046 32.0985 31.0057 32.1077C31.0063 32.1123 31.0067 32.1157 31.007 32.1178C31.0071 32.1189 31.0072 32.1197 31.0072 32.1202C31.0073 32.1204 31.0073 32.1205 31.0073 32.1206C31.0073 32.1207 31.0073 32.1206 32 32C32.9927 31.8794 32.9927 31.8792 32.9926 31.8789C32.9926 31.8787 32.9926 31.8783 32.9925 31.878C32.9924 31.8772 32.9923 31.8761 32.9921 31.8747C32.9918 31.8719 32.9913 31.8678 32.9906 31.8626C32.9893 31.8521 32.9874 31.8367 32.9849 31.8167C32.9799 31.7766 32.9724 31.7178 32.9625 31.6415C32.9427 31.4888 32.9132 31.2664 32.8739 30.9845C32.7955 30.421 32.6781 29.6194 32.5222 28.6639C32.2107 26.7558 31.7433 24.2214 31.121 21.7389C30.5036 19.2759 29.7152 16.7862 28.7386 15.0122C28.254 14.132 27.6737 13.335 26.9663 12.8282C26.2093 12.2859 25.2893 12.0735 24.3193 12.4546L25.0507 14.3161ZM32 32C32.9876 32.1568 32.9876 32.1569 32.9876 32.1568C32.9876 32.1567 32.9877 32.1566 32.9877 32.1563C32.9878 32.1559 32.9879 32.1551 32.9881 32.154C32.9884 32.1519 32.989 32.1485 32.9897 32.1439C32.9912 32.1348 32.9934 32.1208 32.9964 32.1022C33.0025 32.065 33.0117 32.0092 33.0239 31.9362C33.0483 31.7901 33.0849 31.575 33.1332 31.3013C33.23 30.7538 33.3736 29.9726 33.5608 29.0412C33.9358 27.1755 34.4829 24.7193 35.1741 22.3349C35.8708 19.9314 36.6926 17.6776 37.5953 16.171C38.0506 15.4111 38.474 14.9319 38.8349 14.6928C39.145 14.4875 39.3581 14.4813 39.5902 14.5824L40.3893 12.749C39.4339 12.3326 38.5068 12.5112 37.7304 13.0255C37.005 13.506 36.396 14.2812 35.8796 15.1431C34.8389 16.8801 33.9601 19.3393 33.2532 21.7781C32.5407 24.2361 31.981 26.7517 31.6 28.6471C31.4093 29.5962 31.2627 30.393 31.1637 30.9533C31.1142 31.2335 31.0766 31.4548 31.0512 31.6065C31.0385 31.6824 31.0289 31.741 31.0224 31.7808C31.0192 31.8008 31.0167 31.8161 31.015 31.8265C31.0142 31.8317 31.0136 31.8357 31.0131 31.8385C31.0129 31.8399 31.0127 31.841 31.0126 31.8418C31.0125 31.8422 31.0125 31.8425 31.0124 31.8427C31.0124 31.843 31.0124 31.8432 32 32ZM39.5902 14.5824C39.8224 14.6836 39.963 14.844 40.0236 15.211C40.0942 15.6381 40.0315 16.2746 39.7848 17.1254C39.2958 18.8123 38.2045 20.9486 36.9183 23.0953C35.6424 25.2248 34.2159 27.2976 33.1046 28.8424C32.5498 29.6137 32.0754 30.2507 31.7403 30.6943C31.5727 30.916 31.4401 31.0892 31.3497 31.2066C31.3045 31.2653 31.2699 31.3099 31.2468 31.3397C31.2352 31.3546 31.2265 31.3658 31.2208 31.3731C31.2179 31.3767 31.2158 31.3794 31.2145 31.3811C31.2138 31.382 31.2133 31.3826 31.2131 31.383C31.2129 31.3832 31.2128 31.3833 31.2128 31.3833C31.2127 31.3834 31.2128 31.3833 32 32C32.7872 32.6167 32.7874 32.6165 32.7875 32.6163C32.7876 32.6161 32.7879 32.6158 32.7881 32.6155C32.7886 32.6149 32.7893 32.614 32.7901 32.6129C32.7919 32.6107 32.7944 32.6075 32.7976 32.6033C32.8041 32.595 32.8137 32.5828 32.826 32.5668C32.8508 32.5349 32.8872 32.488 32.9341 32.4271C33.028 32.3052 33.1645 32.127 33.336 31.9C33.679 31.446 34.1628 30.7962 34.7281 30.0104C35.8571 28.441 37.3187 26.3184 38.634 24.1232C39.939 21.945 41.142 19.6272 41.7057 17.6823C41.9855 16.7172 42.1387 15.7434 41.9969 14.8849C41.845 13.9661 41.3447 13.1654 40.3893 12.749L39.5902 14.5824ZM32 32C32.5875 32.8093 32.5874 32.8093 32.5875 32.8093C32.5876 32.8092 32.5876 32.8091 32.5878 32.809C32.5882 32.8087 32.5888 32.8082 32.5897 32.8076C32.5915 32.8063 32.5943 32.8043 32.598 32.8016C32.6055 32.7962 32.617 32.7879 32.6323 32.7769C32.6629 32.7549 32.7088 32.7219 32.7691 32.6789C32.8897 32.5928 33.0677 32.4666 33.2954 32.3073C33.7509 31.9886 34.4048 31.5378 35.1958 31.0116C36.7802 29.9575 38.9038 28.6078 41.0785 27.4106C43.2707 26.2038 45.4454 25.1913 47.1489 24.7643C48.0082 24.549 48.6465 24.5096 49.0707 24.5957C49.4352 24.6698 49.5903 24.8161 49.6829 25.0518L51.5443 24.3204C51.1632 23.3505 50.3814 22.8211 49.4688 22.6358C48.616 22.4626 47.6373 22.5801 46.6627 22.8243C44.6986 23.3166 42.3383 24.434 40.114 25.6585C37.8721 26.8927 35.6976 28.2756 34.088 29.3464C33.282 29.8827 32.615 30.3424 32.1488 30.6686C31.9157 30.8317 31.7326 30.9615 31.6073 31.0509C31.5447 31.0956 31.4965 31.1302 31.4637 31.1538C31.4473 31.1656 31.4348 31.1746 31.4262 31.1808C31.4219 31.1839 31.4186 31.1863 31.4164 31.188C31.4152 31.1888 31.4143 31.1895 31.4137 31.1899C31.4134 31.1901 31.4131 31.1904 31.4129 31.1905C31.4127 31.1906 31.4125 31.1907 32 32ZM49.6829 25.0518C49.7755 25.2875 49.7615 25.5003 49.5449 25.8027C49.2928 26.1546 48.7984 26.5602 48.0224 26.9874C46.4839 27.8344 44.2016 28.5732 41.7743 29.1816C39.3663 29.7851 36.8919 30.242 35.0138 30.5484C34.0762 30.7014 33.2903 30.8164 32.7397 30.8931C32.4644 30.9314 32.2481 30.9601 32.1012 30.9792C32.0278 30.9887 31.9717 30.9958 31.9343 31.0005C31.9156 31.0028 31.9016 31.0046 31.8924 31.0057C31.8878 31.0063 31.8844 31.0067 31.8822 31.007C31.8811 31.0071 31.8803 31.0072 31.8799 31.0072C31.8796 31.0073 31.8795 31.0073 31.8794 31.0073C31.8794 31.0073 31.8794 31.0073 32 32C32.1206 32.9927 32.1208 32.9927 32.1211 32.9926C32.1213 32.9926 32.1216 32.9926 32.122 32.9925C32.1228 32.9924 32.1239 32.9923 32.1253 32.9921C32.1281 32.9918 32.1321 32.9913 32.1374 32.9906C32.1479 32.9893 32.1632 32.9874 32.1832 32.9849C32.2233 32.9799 32.2822 32.9724 32.3585 32.9625C32.5111 32.9427 32.7336 32.9132 33.0154 32.874C33.5789 32.7956 34.3805 32.6782 35.3359 32.5223C37.2439 32.211 39.7782 31.7437 42.2605 31.1216C44.7234 30.5043 47.213 29.716 48.9869 28.7395C49.867 28.255 50.664 27.6748 51.1708 26.9674C51.713 26.2104 51.9254 25.2904 51.5443 24.3204L49.6829 25.0518ZM32 32C31.8431 32.9876 31.8431 32.9876 31.8431 32.9876C31.8432 32.9876 31.8434 32.9877 31.8436 32.9877C31.8441 32.9878 31.8448 32.9879 31.8459 32.9881C31.8481 32.9884 31.8514 32.9889 31.856 32.9897C31.8652 32.9912 31.8791 32.9934 31.8977 32.9964C31.9349 33.0025 31.9907 33.0117 32.0638 33.0239C32.2099 33.0483 32.425 33.0849 32.6986 33.1333C33.2461 33.23 34.0272 33.3737 34.9586 33.561C36.8242 33.936 39.2802 34.4833 41.6645 35.1746C44.0679 35.8715 46.3215 36.6934 47.828 37.5962C48.5879 38.0515 49.0671 38.475 49.3061 38.8359C49.5115 39.146 49.5177 39.3592 49.4165 39.5913L51.2499 40.3904C51.6663 39.4351 51.4877 38.5079 50.9735 37.7316C50.493 37.0061 49.7179 36.3971 48.856 35.8806C47.1191 34.8398 44.6601 33.9608 42.2214 33.2537C39.7636 32.5411 37.2481 31.9813 35.3528 31.6002C34.4037 31.4094 33.607 31.2628 33.0467 31.1638C32.7665 31.1143 32.5453 31.0766 32.3935 31.0512C32.3176 31.0386 32.2591 31.0289 32.2192 31.0224C32.1993 31.0192 32.184 31.0167 32.1736 31.0151C32.1683 31.0142 32.1643 31.0136 32.1615 31.0131C32.1601 31.0129 32.1591 31.0127 32.1583 31.0126C32.1579 31.0125 32.1575 31.0125 32.1573 31.0125C32.1571 31.0124 32.1569 31.0124 32 32ZM49.4165 39.5913C49.3153 39.8235 49.1549 39.9641 48.788 40.0247C48.3609 40.0952 47.7245 40.0325 46.8737 39.7858C45.187 39.2967 43.0508 38.2052 40.9043 36.9189C38.7749 35.6429 36.7021 34.2162 35.1575 33.1048C34.3863 32.55 33.7493 32.0755 33.3057 31.7404C33.084 31.5728 32.9108 31.4402 32.7935 31.3498C32.7348 31.3046 32.6901 31.2699 32.6603 31.2468C32.6455 31.2352 32.6343 31.2265 32.627 31.2208C32.6233 31.218 32.6206 31.2159 32.6189 31.2145C32.6181 31.2139 32.6174 31.2134 32.6171 31.2131C32.6169 31.213 32.6168 31.2129 32.6167 31.2128C32.6167 31.2128 32.6167 31.2128 32 32C31.3833 32.7872 31.3834 32.7873 31.3837 32.7875C31.3838 32.7876 31.3841 32.7878 31.3844 32.7881C31.385 32.7886 31.3859 32.7892 31.387 32.7901C31.3892 32.7918 31.3924 32.7943 31.3966 32.7976C31.4049 32.8041 31.4171 32.8136 31.4331 32.826C31.465 32.8508 31.5119 32.8871 31.5728 32.9341C31.6947 33.028 31.8729 33.1644 32.0999 33.336C32.5539 33.679 33.2036 34.1629 33.9894 34.7283C35.5587 35.8574 37.6811 37.319 39.8762 38.6345C42.0542 39.9396 44.3719 41.1428 46.3168 41.7067C47.2817 41.9865 48.2555 42.1398 49.1141 41.9979C50.0328 41.8461 50.8335 41.3458 51.2499 40.3904L49.4165 39.5913ZM32 32C31.1907 32.5874 31.1907 32.5874 31.1907 32.5874C31.1908 32.5875 31.1908 32.5876 31.191 32.5878C31.1913 32.5882 31.1917 32.5888 31.1923 32.5897C31.1936 32.5914 31.1956 32.5942 31.1983 32.598C31.2038 32.6055 31.2121 32.6169 31.2231 32.6322C31.2451 32.6628 31.2781 32.7088 31.3211 32.7691C31.4071 32.8896 31.5333 33.0676 31.6926 33.2953C32.0113 33.7509 32.462 34.4049 32.9882 35.1959C34.0421 36.7804 35.3918 38.9041 36.5888 41.079C37.7955 43.2713 38.8079 45.4462 39.2347 47.1498C39.45 48.0091 39.4894 48.6475 39.4032 49.0717C39.3292 49.4362 39.1828 49.5914 38.9471 49.684L39.6785 51.5454C40.6485 51.1643 41.1778 50.3824 41.3632 49.4699C41.5364 48.6171 41.419 47.6383 41.1748 46.6637C40.6826 44.6994 39.5653 42.3391 38.341 40.1146C37.107 37.8726 35.7242 35.698 34.6534 34.0882C34.1173 33.2822 33.6576 32.6151 33.3314 32.1489C33.1683 31.9158 33.0385 31.7327 32.9491 31.6074C32.9045 31.5448 32.8699 31.4966 32.8463 31.4638C32.8345 31.4474 32.8254 31.4349 32.8192 31.4263C32.8161 31.422 32.8137 31.4187 32.8121 31.4164C32.8112 31.4153 32.8106 31.4144 32.8101 31.4138C32.8099 31.4134 32.8097 31.4131 32.8096 31.413C32.8094 31.4128 32.8093 31.4126 32 32ZM38.9471 49.684C38.7114 49.7766 38.4987 49.7626 38.1964 49.546C37.8445 49.2939 37.4388 48.7995 37.0117 48.0234C36.1648 46.4848 35.4261 44.2024 34.8179 41.7749C34.2145 39.3668 33.7578 36.8922 33.4514 35.014C33.2984 34.0763 33.1835 33.2904 33.1069 32.7398C33.0686 32.4645 33.0399 32.2482 33.0208 32.1013C33.0113 32.0278 33.0042 31.9718 32.9995 31.9344C32.9972 31.9157 32.9954 31.9016 32.9943 31.8924C32.9937 31.8878 32.9933 31.8844 32.993 31.8823C32.9929 31.8812 32.9928 31.8804 32.9928 31.8799C32.9927 31.8797 32.9927 31.8796 32.9927 31.8795C32.9927 31.8794 32.9927 31.8795 32 32C31.0073 32.1205 31.0073 32.1207 31.0073 32.121C31.0074 32.1212 31.0074 32.1215 31.0075 32.1219C31.0076 32.1227 31.0077 32.1238 31.0079 32.1252C31.0082 32.128 31.0087 32.132 31.0093 32.1373C31.0106 32.1478 31.0125 32.1632 31.0151 32.1832C31.0201 32.2233 31.0276 32.2821 31.0374 32.3584C31.0572 32.5111 31.0867 32.7335 31.126 33.0154C31.2044 33.5789 31.3216 34.3805 31.4775 35.336C31.7887 37.2441 32.2559 39.7785 32.8779 42.261C33.495 44.724 34.2831 47.2138 35.2595 48.9878C35.744 49.868 36.3242 50.665 37.0315 51.1718C37.7885 51.7141 38.7085 51.9266 39.6785 51.5454L38.9471 49.684ZM32 32C31.0124 31.8431 31.0124 31.843 31.0124 31.8431C31.0124 31.8432 31.0124 31.8433 31.0123 31.8435C31.0122 31.844 31.0121 31.8448 31.0119 31.8459C31.0116 31.848 31.0111 31.8514 31.0103 31.856C31.0089 31.8651 31.0066 31.8791 31.0036 31.8977C30.9975 31.9349 30.9883 31.9907 30.9761 32.0637C30.9517 32.2098 30.9151 32.4249 30.8667 32.6986C30.7699 33.2461 30.6262 34.0273 30.4389 34.9587C30.0637 36.8244 29.5163 39.2806 28.8248 41.665C28.1278 44.0685 27.3058 46.3223 26.4029 47.8289C25.9475 48.5888 25.524 49.0681 25.163 49.3072C24.8529 49.5126 24.6397 49.5188 24.4076 49.4176L23.6085 51.251C24.5639 51.6674 25.4911 51.4888 26.2674 50.9746C26.9929 50.4941 27.602 49.7189 28.1185 48.857C29.1594 47.12 30.0385 44.6608 30.7457 42.222C31.4585 39.764 32.0185 37.2484 32.3996 35.353C32.5905 34.4039 32.7371 33.6071 32.8362 33.0468C32.8857 32.7666 32.9234 32.5453 32.9487 32.3936C32.9614 32.3177 32.971 32.2591 32.9775 32.2193C32.9808 32.1993 32.9833 32.184 32.9849 32.1736C32.9858 32.1684 32.9864 32.1644 32.9869 32.1616C32.9871 32.1602 32.9873 32.1591 32.9874 32.1583C32.9875 32.1579 32.9875 32.1576 32.9875 32.1574C32.9876 32.1571 32.9876 32.1569 32 32ZM24.4076 49.4176C24.1755 49.3164 24.0349 49.1561 23.9743 48.7891C23.9037 48.362 23.9666 47.7256 24.2133 46.8747C24.7025 45.1878 25.7941 43.0515 27.0805 40.9048C28.3567 38.7753 29.7835 36.7024 30.895 35.1576C31.4499 34.3864 31.9244 33.7494 32.2596 33.3058C32.4271 33.0841 32.5598 32.9108 32.6502 32.7935C32.6954 32.7348 32.7301 32.6901 32.7532 32.6603C32.7648 32.6455 32.7735 32.6343 32.7792 32.627C32.782 32.6233 32.7841 32.6206 32.7855 32.6189C32.7861 32.6181 32.7866 32.6175 32.7869 32.6171C32.787 32.6169 32.7871 32.6168 32.7872 32.6167C32.7872 32.6167 32.7872 32.6167 32 32C31.2128 31.3833 31.2127 31.3834 31.2125 31.3837C31.2124 31.3838 31.2122 31.3841 31.2119 31.3844C31.2115 31.385 31.2108 31.3859 31.2099 31.387C31.2082 31.3892 31.2057 31.3924 31.2024 31.3966C31.1959 31.4049 31.1864 31.4171 31.174 31.4331C31.1492 31.465 31.1129 31.5119 31.0659 31.5728C30.972 31.6948 30.8355 31.8729 30.664 32.1C30.3209 32.5539 29.837 33.2037 29.2716 33.9896C28.1424 35.559 26.6806 37.6815 25.365 39.8768C24.0597 42.0549 22.8564 44.3727 22.2924 46.3177C22.0126 47.2827 21.8592 48.2565 22.001 49.1151C22.1528 50.0338 22.6531 50.8346 23.6085 51.251L24.4076 49.4176ZM32 32C31.4126 31.1907 31.4126 31.1907 31.4126 31.1907C31.4125 31.1908 31.4124 31.1908 31.4122 31.191C31.4118 31.1913 31.4112 31.1917 31.4103 31.1924C31.4086 31.1936 31.4058 31.1956 31.402 31.1984C31.3945 31.2038 31.383 31.2121 31.3677 31.2231C31.3371 31.2451 31.2912 31.2781 31.2309 31.3211C31.1103 31.4071 30.9323 31.5334 30.7046 31.6927C30.249 32.0114 29.595 32.4621 28.8039 32.9884C27.2193 34.0424 25.0954 35.3922 22.9205 36.5894C20.728 37.7962 18.553 38.8087 16.8492 39.2357C15.9899 39.451 15.3515 39.4905 14.9272 39.4043C14.5626 39.3303 14.4075 39.1839 14.3149 38.9482L12.4535 39.6796C12.8346 40.6496 13.6165 41.1789 14.5291 41.3643C15.3819 41.5375 16.3607 41.4199 17.3354 41.1757C19.2998 40.6834 21.6603 39.566 23.8849 38.3415C26.127 37.1074 28.3018 35.7245 29.9116 34.6536C30.7177 34.1174 31.3848 33.6577 31.851 33.3315C32.0842 33.1683 32.2673 33.0385 32.3926 32.9491C32.4552 32.9045 32.5034 32.8699 32.5362 32.8463C32.5526 32.8345 32.5651 32.8254 32.5737 32.8192C32.578 32.8161 32.5813 32.8137 32.5836 32.8121C32.5847 32.8112 32.5856 32.8106 32.5863 32.8101C32.5866 32.8099 32.5869 32.8097 32.587 32.8096C32.5872 32.8094 32.5874 32.8093 32 32ZM14.3149 38.9482C14.2224 38.7126 14.2363 38.4998 14.453 38.1974C14.7051 37.8455 15.1996 37.4398 15.9757 37.0126C17.5145 36.1656 19.797 35.4268 22.2246 34.8185C24.6328 34.215 27.1075 33.758 28.9858 33.4516C29.9236 33.2986 30.7096 33.1836 31.2602 33.1069C31.5355 33.0686 31.7518 33.0399 31.8987 33.0208C31.9722 33.0113 32.0283 33.0042 32.0657 32.9995C32.0844 32.9972 32.0984 32.9954 32.1076 32.9943C32.1122 32.9937 32.1156 32.9933 32.1178 32.993C32.1189 32.9929 32.1196 32.9928 32.1201 32.9928C32.1203 32.9927 32.1205 32.9927 32.1206 32.9927C32.1206 32.9927 32.1206 32.9927 32 32C31.8794 31.0073 31.8792 31.0073 31.879 31.0074C31.8788 31.0074 31.8784 31.0074 31.878 31.0075C31.8772 31.0076 31.8761 31.0077 31.8747 31.0079C31.8719 31.0082 31.8679 31.0087 31.8627 31.0094C31.8522 31.0106 31.8368 31.0126 31.8168 31.0151C31.7767 31.0201 31.7178 31.0276 31.6415 31.0375C31.4889 31.0573 31.2664 31.0868 30.9845 31.126C30.4209 31.2044 29.6193 31.3218 28.6638 31.4777C26.7556 31.789 24.221 32.2563 21.7384 32.8784C19.2753 33.4957 16.7854 34.284 15.0113 35.2605C14.1311 35.745 13.334 36.3252 12.8272 37.0326C12.2848 37.7896 12.0724 38.7096 12.4535 39.6796L14.3149 38.9482ZM32 32C32.1569 31.0124 32.1569 31.0124 32.1569 31.0124C32.1567 31.0124 32.1566 31.0123 32.1564 31.0123C32.1559 31.0122 32.1552 31.0121 32.1541 31.0119C32.1519 31.0116 32.1486 31.0111 32.144 31.0103C32.1348 31.0088 32.1209 31.0066 32.1023 31.0036C32.065 30.9975 32.0092 30.9883 31.9362 30.9761C31.7901 30.9517 31.575 30.9151 31.3013 30.8667C30.7538 30.77 29.9725 30.6263 29.041 30.439C27.1752 30.064 24.7189 29.5167 22.3344 28.8254C19.9307 28.1285 17.6768 27.3066 16.1701 26.4038C15.4101 25.9485 14.9308 25.525 14.6918 25.164C14.4863 24.8539 14.4802 24.6408 14.5813 24.4087L12.7479 23.6096C12.3315 24.565 12.5101 25.4922 13.0244 26.2685C13.505 26.994 14.2802 27.603 15.1422 28.1194C16.8793 29.1603 19.3386 30.0392 21.7775 30.7463C24.2356 31.4589 26.7513 32.0188 28.6469 32.3998C29.5961 32.5906 30.3929 32.7372 30.9532 32.8362C31.2334 32.8857 31.4547 32.9234 31.6065 32.9488C31.6824 32.9614 31.7409 32.9711 31.7808 32.9776C31.8007 32.9808 31.816 32.9833 31.8265 32.985C31.8317 32.9858 31.8357 32.9864 31.8385 32.9869C31.8399 32.9871 31.841 32.9873 31.8417 32.9874C31.8421 32.9875 31.8425 32.9875 31.8427 32.9875C31.843 32.9876 31.8431 32.9876 32 32ZM14.5813 24.4087C14.6825 24.1766 14.8429 24.036 15.2099 23.9754C15.637 23.9048 16.2735 23.9676 17.1245 24.2142C18.8114 24.7033 20.9479 25.7948 23.0947 27.0811C25.2243 28.3572 27.2974 29.7838 28.8422 30.8952C29.6135 31.4501 30.2506 31.9245 30.6942 32.2597C30.916 32.4272 31.0892 32.5599 31.2066 32.6503C31.2652 32.6955 31.3099 32.7301 31.3397 32.7532C31.3546 32.7648 31.3658 32.7735 31.3731 32.7792C31.3767 32.7821 31.3794 32.7842 31.3811 32.7855C31.382 32.7862 31.3826 32.7867 31.383 32.7869C31.3832 32.7871 31.3832 32.7872 31.3833 32.7872C31.3834 32.7873 31.3833 32.7872 32 32C32.6167 31.2128 32.6165 31.2126 32.6163 31.2125C32.6161 31.2124 32.6159 31.2121 32.6155 31.2119C32.6149 31.2114 32.6141 31.2107 32.6129 31.2099C32.6107 31.2081 32.6075 31.2056 32.6033 31.2024C32.595 31.1959 32.5828 31.1863 32.5668 31.174C32.5349 31.1492 32.488 31.1128 32.4271 31.0659C32.3052 30.972 32.127 30.8355 31.8999 30.664C31.4459 30.3209 30.7961 29.8371 30.0102 29.2717C28.4407 28.1426 26.318 26.6809 24.1226 25.3655C21.9444 24.0603 19.6264 22.8572 17.6814 22.2933C16.7163 22.0136 15.7424 21.8603 14.8839 22.0021C13.9651 22.1539 13.1643 22.6542 12.7479 23.6096L14.5813 24.4087ZM32 32C32.8092 31.4125 32.8093 31.4126 32.8092 31.4125C32.8092 31.4124 32.8091 31.4123 32.809 31.4122C32.8087 31.4118 32.8082 31.4111 32.8076 31.4103C32.8063 31.4085 32.8043 31.4057 32.8016 31.402C32.7962 31.3945 32.7879 31.383 32.7769 31.3677C32.7548 31.3371 32.7219 31.2912 32.6789 31.2309C32.5928 31.1103 32.4666 30.9323 32.3072 30.7046C31.9885 30.249 31.5377 29.595 31.0114 28.804C29.9573 27.2195 28.6073 25.0958 27.41 22.921C26.2031 20.7286 25.1905 18.5538 24.7634 16.8501C24.548 15.9908 24.5085 15.3525 24.5947 14.9282C24.6687 14.5637 24.815 14.4087 25.0507 14.3161L24.3193 12.4546C23.3493 12.8357 22.82 13.6176 22.6347 14.5302C22.4615 15.383 22.5791 16.3618 22.8234 17.3364C23.3158 19.3007 24.4333 21.661 25.658 23.8855C26.8923 26.1275 28.2753 28.3021 29.3463 29.9118C29.8825 30.7179 30.3423 31.3849 30.6685 31.8512C30.8317 32.0843 30.9615 32.2674 31.0509 32.3927C31.0956 32.4553 31.1302 32.5035 31.1538 32.5363C31.1656 32.5527 31.1746 32.5652 31.1808 32.5738C31.1839 32.5781 31.1863 32.5814 31.188 32.5836C31.1888 32.5848 31.1895 32.5857 31.1899 32.5863C31.1902 32.5866 31.1904 32.5869 31.1905 32.5871C31.1906 32.5873 31.1908 32.5875 32 32Z" fill="#111111" mask="url(#path-2-outside-1_400_1820)"/>
<path d="M30.7826 28.9805C30.7949 29.0373 30.8071 29.0936 30.8192 29.1492C30.7884 29.1013 30.7572 29.0529 30.7257 29.0041C29.682 27.3856 28.2494 25.2617 26.6989 23.2498C25.1546 21.2457 23.4693 19.3209 21.9185 18.1258C21.1462 17.5306 20.3661 17.0837 19.622 16.9246C18.8481 16.7592 18.1018 16.9069 17.5043 17.5043C16.9069 18.1018 16.7592 18.8481 16.9246 19.622C17.0837 20.3661 17.5306 21.1462 18.1258 21.9185C19.3209 23.4693 21.2457 25.1546 23.2498 26.6989C25.2617 28.2494 27.3856 29.682 29.0041 30.7257C29.0529 30.7572 29.1013 30.7884 29.1492 30.8192C29.0936 30.8071 29.0373 30.7949 28.9805 30.7826C27.0981 30.3762 24.5832 29.8874 22.0642 29.5611C19.5551 29.236 17.0024 29.0666 15.0608 29.3182C14.0938 29.4434 13.2262 29.679 12.5876 30.0927C11.9233 30.5229 11.5 31.1551 11.5 32C11.5 32.8449 11.9233 33.4771 12.5876 33.9073C13.2262 34.321 14.0938 34.5566 15.0608 34.6818C17.0024 34.9333 19.5551 34.764 22.0642 34.4389C24.5832 34.1126 27.0981 33.6238 28.9805 33.2174C29.0373 33.2051 29.0936 33.1929 29.1492 33.1808C29.1013 33.2116 29.0529 33.2428 29.0041 33.2743C27.3856 34.318 25.2617 35.7506 23.2498 37.301C21.2457 38.8454 19.3209 40.5307 18.1258 42.0815C17.5306 42.8538 17.0837 43.6339 16.9246 44.378C16.7592 45.1519 16.9069 45.8982 17.5043 46.4957C18.1018 47.0931 18.8481 47.2408 19.622 47.0754C20.3661 46.9163 21.1462 46.4694 21.9185 45.8742C23.4693 44.6791 25.1546 42.7543 26.6989 40.7502C28.2494 38.7383 29.682 36.6144 30.7257 34.9959C30.7572 34.9471 30.7884 34.8987 30.8192 34.8508C30.8071 34.9064 30.7949 34.9627 30.7826 35.0195C30.3762 36.9019 29.8874 39.4168 29.5611 41.9358C29.236 44.4449 29.0666 46.9976 29.3182 48.9392C29.4434 49.9062 29.679 50.7738 30.0927 51.4124C30.5229 52.0767 31.1551 52.5 32 52.5C32.8449 52.5 33.4771 52.0767 33.9073 51.4124C34.321 50.7738 34.5566 49.9062 34.6818 48.9392C34.9333 46.9976 34.764 44.4449 34.4389 41.9358C34.1126 39.4168 33.6238 36.9019 33.2174 35.0195C33.2051 34.9627 33.1929 34.9064 33.1808 34.8508C33.2116 34.8987 33.2428 34.9471 33.2743 34.9959C34.318 36.6144 35.7506 38.7383 37.301 40.7502C38.8454 42.7543 40.5307 44.6791 42.0815 45.8742C42.8538 46.4694 43.6339 46.9163 44.378 47.0754C45.1519 47.2408 45.8982 47.0931 46.4957 46.4957C47.0931 45.8982 47.2408 45.1519 47.0754 44.378C46.9163 43.6339 46.4694 42.8538 45.8742 42.0815C44.6791 40.5307 42.7543 38.8454 40.7502 37.301C38.7383 35.7506 36.6144 34.318 34.9959 33.2743C34.9471 33.2428 34.8987 33.2116 34.8508 33.1808C34.9064 33.1929 34.9627 33.2051 35.0195 33.2174C36.9019 33.6238 39.4168 34.1126 41.9358 34.4389C44.4449 34.764 46.9976 34.9333 48.9392 34.6818C49.9062 34.5566 50.7738 34.321 51.4124 33.9073C52.0767 33.4771 52.5 32.8449 52.5 32C52.5 31.1551 52.0767 30.5229 51.4124 30.0927C50.7738 29.679 49.9062 29.4434 48.9392 29.3182C46.9976 29.0666 44.4449 29.236 41.9358 29.5611C39.4168 29.8874 36.9019 30.3762 35.0195 30.7826C34.9627 30.7949 34.9064 30.8071 34.8508 30.8192C34.8987 30.7884 34.9471 30.7572 34.9959 30.7257C36.6144 29.682 38.7383 28.2494 40.7502 26.6989C42.7543 25.1546 44.6791 23.4693 45.8742 21.9185C46.4694 21.1462 46.9163 20.3661 47.0754 19.622C47.2408 18.8481 47.0931 18.1018 46.4957 17.5043C45.8982 16.9069 45.1519 16.7592 44.378 16.9246C43.6339 17.0837 42.8538 17.5306 42.0815 18.1258C40.5307 19.3209 38.8454 21.2457 37.301 23.2498C35.7506 25.2617 34.318 27.3856 33.2743 29.0041C33.2428 29.0529 33.2116 29.1013 33.1808 29.1492C33.1929 29.0936 33.2051 29.0373 33.2174 28.9805C33.6238 27.0981 34.1126 24.5832 34.4389 22.0642C34.764 19.5551 34.9333 17.0024 34.6818 15.0608C34.5566 14.0938 34.321 13.2262 33.9073 12.5876C33.4771 11.9233 32.8449 11.5 32 11.5C31.1551 11.5 30.5229 11.9233 30.0927 12.5876C29.679 13.2262 29.4434 14.0938 29.3182 15.0608C29.0666 17.0024 29.236 19.5551 29.5611 22.0642C29.8874 24.5832 30.3762 27.0981 30.7826 28.9805Z" fill="#FBF8EF" stroke="#111111"/>
<path d="M32.0504 19.2534L32.687 30.513L41.0988 23.0014L33.5873 31.4133L44.8468 32.0499L33.5873 32.6865L41.0988 41.0984L32.687 33.5868L32.0504 44.8463L31.4138 33.5868L23.0019 41.0984L30.5135 32.6865L19.2539 32.0499L30.5135 31.4133L23.0019 23.0014L31.4138 30.513L32.0504 19.2534Z" fill="#111111"/>
<rect x="28.5" y="28.5" width="7" height="7" rx="3.5" fill="#7ECEA6" stroke="#111111"/>
<path d="M61 45V61H45L61 45Z" fill="#7ECEA6"/>
<path d="M45 3H61V19L45 3Z" fill="#7ECEA6"/>
<path d="M19 3H3V19L19 3Z" fill="#7ECEA6"/>
<path d="M19 61H3V45L19 61Z" fill="#7ECEA6"/>
<path d="M3 53H11V61L3 53Z" fill="#FBF8EF"/>
<path d="M11 3V11H3L11 3Z" fill="#FBF8EF"/>
<path d="M61 11L53 11V3L61 11Z" fill="#FBF8EF"/>
<path d="M53 61V53H61L53 61Z" fill="#FBF8EF"/>
</g>
<defs>
<clipPath id="clip0_400_1820">
<rect width="64" height="64" fill="white"/>
</clipPath>
</defs>
</svg>
