<svg width="84" height="13" viewBox="0 0 84 13" fill="none" xmlns="http://www.w3.org/2000/svg">
<g clip-path="url(#clip0_2753_412)">
<path d="M-0.0759999 9V0.624H3.884C4.276 0.624 4.628 0.692 4.94 0.827999C5.252 0.956 5.516 1.136 5.732 1.368C5.956 1.6 6.128 1.884 6.248 2.22C6.368 2.548 6.428 2.908 6.428 3.3C6.428 3.7 6.368 4.064 6.248 4.392C6.128 4.72 5.956 5 5.732 5.232C5.516 5.464 5.252 5.648 4.94 5.784C4.628 5.912 4.276 5.976 3.884 5.976H1.748V9H-0.0759999ZM1.748 4.392H3.668C3.94 4.392 4.152 4.324 4.304 4.188C4.464 4.044 4.544 3.836 4.544 3.564V3.036C4.544 2.764 4.464 2.56 4.304 2.424C4.152 2.28 3.94 2.208 3.668 2.208H1.748V4.392ZM10.0246 9.144C9.56063 9.144 9.14463 9.068 8.77663 8.916C8.41663 8.764 8.10863 8.544 7.85263 8.256C7.60463 7.968 7.41263 7.62 7.27663 7.212C7.14063 6.804 7.07263 6.348 7.07263 5.844C7.07263 5.34 7.14063 4.884 7.27663 4.476C7.41263 4.068 7.60463 3.724 7.85263 3.444C8.10863 3.156 8.41663 2.936 8.77663 2.784C9.14463 2.632 9.56063 2.556 10.0246 2.556C10.4886 2.556 10.9006 2.632 11.2606 2.784C11.6286 2.936 11.9366 3.156 12.1846 3.444C12.4406 3.724 12.6366 4.068 12.7726 4.476C12.9086 4.884 12.9766 5.34 12.9766 5.844C12.9766 6.348 12.9086 6.804 12.7726 7.212C12.6366 7.62 12.4406 7.968 12.1846 8.256C11.9366 8.544 11.6286 8.764 11.2606 8.916C10.9006 9.068 10.4886 9.144 10.0246 9.144ZM10.0246 7.74C10.3766 7.74 10.6486 7.632 10.8406 7.416C11.0326 7.2 11.1286 6.892 11.1286 6.492V5.208C11.1286 4.808 11.0326 4.5 10.8406 4.284C10.6486 4.068 10.3766 3.96 10.0246 3.96C9.67263 3.96 9.40063 4.068 9.20863 4.284C9.01663 4.5 8.92063 4.808 8.92063 5.208V6.492C8.92063 6.892 9.01663 7.2 9.20863 7.416C9.40063 7.632 9.67263 7.74 10.0246 7.74ZM16.7861 9.144C16.3141 9.144 15.8941 9.068 15.5261 8.916C15.1581 8.756 14.8501 8.536 14.6021 8.256C14.3541 7.968 14.1661 7.62 14.0381 7.212C13.9101 6.804 13.8461 6.348 13.8461 5.844C13.8461 5.34 13.9101 4.888 14.0381 4.488C14.1661 4.08 14.3541 3.732 14.6021 3.444C14.8501 3.156 15.1581 2.936 15.5261 2.784C15.8941 2.632 16.3141 2.556 16.7861 2.556C17.4261 2.556 17.9581 2.7 18.3821 2.988C18.8141 3.276 19.1221 3.68 19.3061 4.2L17.8661 4.824C17.8101 4.584 17.6941 4.38 17.5181 4.212C17.3421 4.044 17.0981 3.96 16.7861 3.96C16.4261 3.96 16.1541 4.08 15.9701 4.32C15.7861 4.552 15.6941 4.868 15.6941 5.268V6.444C15.6941 6.844 15.7861 7.16 15.9701 7.392C16.1541 7.624 16.4261 7.74 16.7861 7.74C17.1061 7.74 17.3581 7.656 17.5421 7.488C17.7341 7.312 17.8741 7.084 17.9621 6.804L19.3421 7.404C19.1341 8.004 18.8101 8.444 18.3701 8.724C17.9381 9.004 17.4101 9.144 16.7861 9.144ZM20.4413 0.12H22.2173V5.364H22.2893L23.0693 4.2L24.3293 2.7H26.2973L24.1973 5.112L26.5373 9H24.4253L23.0093 6.336L22.2173 7.224V9H20.4413V0.12ZM29.6669 9.144C29.1869 9.144 28.7589 9.068 28.3829 8.916C28.0069 8.756 27.6869 8.536 27.4229 8.256C27.1669 7.968 26.9709 7.62 26.8349 7.212C26.7069 6.804 26.6429 6.348 26.6429 5.844C26.6429 5.348 26.7069 4.9 26.8349 4.5C26.9629 4.092 27.1509 3.744 27.3989 3.456C27.6549 3.168 27.9669 2.948 28.3349 2.796C28.7029 2.636 29.1229 2.556 29.5949 2.556C30.1149 2.556 30.5589 2.644 30.9269 2.82C31.3029 2.996 31.6069 3.232 31.8389 3.528C32.0789 3.824 32.2509 4.168 32.3549 4.56C32.4669 4.944 32.5229 5.348 32.5229 5.772V6.3H28.4789V6.396C28.4789 6.812 28.5909 7.144 28.8149 7.392C29.0389 7.632 29.3909 7.752 29.8709 7.752C30.2389 7.752 30.5389 7.68 30.7709 7.536C31.0029 7.384 31.2189 7.204 31.4189 6.996L32.3069 8.1C32.0269 8.428 31.6589 8.684 31.2029 8.868C30.7549 9.052 30.2429 9.144 29.6669 9.144ZM29.6309 3.864C29.2709 3.864 28.9869 3.984 28.7789 4.224C28.5789 4.456 28.4789 4.768 28.4789 5.16V5.256H30.6869V5.148C30.6869 4.764 30.5989 4.456 30.4229 4.224C30.2549 3.984 29.9909 3.864 29.6309 3.864ZM35.9852 9C35.3692 9 34.9012 8.844 34.5812 8.532C34.2692 8.22 34.1132 7.764 34.1132 7.164V4.08H33.2252V2.7H33.6692C33.9092 2.7 34.0732 2.644 34.1612 2.532C34.2492 2.412 34.2932 2.244 34.2932 2.028V0.995999H35.8892V2.7H37.1372V4.08H35.8892V7.62H37.0412V9H35.9852ZM41.2069 2.7H42.9829V3.756H43.0429C43.1309 3.404 43.3309 3.116 43.6429 2.892C43.9629 2.668 44.3269 2.556 44.7349 2.556C45.5349 2.556 46.1389 2.836 46.5469 3.396C46.9549 3.956 47.1589 4.772 47.1589 5.844C47.1589 6.916 46.9549 7.736 46.5469 8.304C46.1389 8.864 45.5349 9.144 44.7349 9.144C44.5269 9.144 44.3309 9.112 44.1469 9.048C43.9629 8.992 43.7949 8.912 43.6429 8.808C43.4989 8.696 43.3749 8.568 43.2709 8.424C43.1669 8.272 43.0909 8.112 43.0429 7.944H42.9829V11.4H41.2069V2.7ZM44.1469 7.704C44.4829 7.704 44.7589 7.588 44.9749 7.356C45.1989 7.116 45.3109 6.796 45.3109 6.396V5.304C45.3109 4.904 45.1989 4.588 44.9749 4.356C44.7589 4.116 44.4829 3.996 44.1469 3.996C43.8109 3.996 43.5309 4.08 43.3069 4.248C43.0909 4.408 42.9829 4.632 42.9829 4.92V6.78C42.9829 7.068 43.0909 7.296 43.3069 7.464C43.5309 7.624 43.8109 7.704 44.1469 7.704ZM52.2277 7.944H52.1677C52.1117 8.104 52.0357 8.256 51.9397 8.4C51.8517 8.544 51.7357 8.672 51.5917 8.784C51.4477 8.896 51.2757 8.984 51.0757 9.048C50.8837 9.112 50.6597 9.144 50.4037 9.144C49.7557 9.144 49.2637 8.932 48.9277 8.508C48.5997 8.076 48.4357 7.46 48.4357 6.66V2.7H50.2117V6.504C50.2117 6.888 50.2797 7.184 50.4157 7.392C50.5517 7.6 50.7837 7.704 51.1117 7.704C51.2477 7.704 51.3837 7.684 51.5197 7.644C51.6557 7.604 51.7757 7.548 51.8797 7.476C51.9837 7.396 52.0677 7.3 52.1317 7.188C52.1957 7.076 52.2277 6.944 52.2277 6.792V2.7H54.0037V9H52.2277V7.944ZM55.2961 9V7.596L58.4281 4.08H55.4041V2.7H60.4921V4.092L57.3481 7.62H60.5761V9H55.2961ZM61.5071 9V7.596L64.6391 4.08H61.6151V2.7H66.7031V4.092L63.5591 7.62H66.7871V9H61.5071ZM69.842 9C69.234 9 68.786 8.852 68.498 8.556C68.218 8.26 68.078 7.832 68.078 7.272V0.12H69.854V7.62H70.646V9H69.842ZM74.3388 9.144C73.8588 9.144 73.4308 9.068 73.0548 8.916C72.6788 8.756 72.3588 8.536 72.0948 8.256C71.8388 7.968 71.6428 7.62 71.5068 7.212C71.3788 6.804 71.3148 6.348 71.3148 5.844C71.3148 5.348 71.3788 4.9 71.5068 4.5C71.6348 4.092 71.8228 3.744 72.0708 3.456C72.3268 3.168 72.6388 2.948 73.0068 2.796C73.3748 2.636 73.7948 2.556 74.2668 2.556C74.7868 2.556 75.2308 2.644 75.5988 2.82C75.9748 2.996 76.2788 3.232 76.5108 3.528C76.7508 3.824 76.9228 4.168 77.0268 4.56C77.1388 4.944 77.1948 5.348 77.1948 5.772V6.3H73.1508V6.396C73.1508 6.812 73.2628 7.144 73.4868 7.392C73.7108 7.632 74.0628 7.752 74.5428 7.752C74.9108 7.752 75.2108 7.68 75.4428 7.536C75.6748 7.384 75.8908 7.204 76.0908 6.996L76.9788 8.1C76.6988 8.428 76.3308 8.684 75.8748 8.868C75.4268 9.052 74.9148 9.144 74.3388 9.144ZM74.3028 3.864C73.9428 3.864 73.6588 3.984 73.4508 4.224C73.2508 4.456 73.1508 4.768 73.1508 5.16V5.256H75.3588V5.148C75.3588 4.764 75.2708 4.456 75.0948 4.224C74.9268 3.984 74.6628 3.864 74.3028 3.864ZM80.5851 9.144C79.9771 9.144 79.4651 9.048 79.0491 8.856C78.6331 8.656 78.2611 8.376 77.9331 8.016L78.9771 6.96C79.2011 7.208 79.4491 7.404 79.7211 7.548C79.9931 7.692 80.3011 7.764 80.6451 7.764C80.9971 7.764 81.2411 7.712 81.3771 7.608C81.5131 7.496 81.5811 7.348 81.5811 7.164C81.5811 6.868 81.3691 6.692 80.9451 6.636L80.2611 6.552C78.8451 6.376 78.1371 5.728 78.1371 4.608C78.1371 4.304 78.1931 4.028 78.3051 3.78C78.4251 3.524 78.5891 3.308 78.7971 3.132C79.0131 2.948 79.2691 2.808 79.5651 2.712C79.8691 2.608 80.2091 2.556 80.5851 2.556C80.9131 2.556 81.2011 2.58 81.4491 2.628C81.7051 2.668 81.9291 2.732 82.1211 2.82C82.3211 2.9 82.5011 3.004 82.6611 3.132C82.8291 3.252 82.9931 3.388 83.1531 3.54L82.1331 4.584C81.9331 4.384 81.7051 4.228 81.4491 4.116C81.2011 3.996 80.9451 3.936 80.6811 3.936C80.3771 3.936 80.1611 3.984 80.0331 4.08C79.9051 4.176 79.8411 4.304 79.8411 4.464C79.8411 4.632 79.8851 4.764 79.9731 4.86C80.0691 4.948 80.2451 5.012 80.5011 5.052L81.2091 5.148C82.5931 5.332 83.2851 5.964 83.2851 7.044C83.2851 7.348 83.2211 7.628 83.0931 7.884C82.9651 8.14 82.7811 8.364 82.5411 8.556C82.3091 8.74 82.0251 8.884 81.6891 8.988C81.3611 9.092 80.9931 9.144 80.5851 9.144Z" fill="#65D157"/>
<path d="M-0.0759999 9.5V1.124H3.884C4.276 1.124 4.628 1.192 4.94 1.328C5.252 1.456 5.516 1.636 5.732 1.868C5.956 2.1 6.128 2.384 6.248 2.72C6.368 3.048 6.428 3.408 6.428 3.8C6.428 4.2 6.368 4.564 6.248 4.892C6.128 5.22 5.956 5.5 5.732 5.732C5.516 5.964 5.252 6.148 4.94 6.284C4.628 6.412 4.276 6.476 3.884 6.476H1.748V9.5H-0.0759999ZM1.748 4.892H3.668C3.94 4.892 4.152 4.824 4.304 4.688C4.464 4.544 4.544 4.336 4.544 4.064V3.536C4.544 3.264 4.464 3.06 4.304 2.924C4.152 2.78 3.94 2.708 3.668 2.708H1.748V4.892ZM10.0246 9.644C9.56063 9.644 9.14463 9.568 8.77663 9.416C8.41663 9.264 8.10863 9.044 7.85263 8.756C7.60463 8.468 7.41263 8.12 7.27663 7.712C7.14063 7.304 7.07263 6.848 7.07263 6.344C7.07263 5.84 7.14063 5.384 7.27663 4.976C7.41263 4.568 7.60463 4.224 7.85263 3.944C8.10863 3.656 8.41663 3.436 8.77663 3.284C9.14463 3.132 9.56063 3.056 10.0246 3.056C10.4886 3.056 10.9006 3.132 11.2606 3.284C11.6286 3.436 11.9366 3.656 12.1846 3.944C12.4406 4.224 12.6366 4.568 12.7726 4.976C12.9086 5.384 12.9766 5.84 12.9766 6.344C12.9766 6.848 12.9086 7.304 12.7726 7.712C12.6366 8.12 12.4406 8.468 12.1846 8.756C11.9366 9.044 11.6286 9.264 11.2606 9.416C10.9006 9.568 10.4886 9.644 10.0246 9.644ZM10.0246 8.24C10.3766 8.24 10.6486 8.132 10.8406 7.916C11.0326 7.7 11.1286 7.392 11.1286 6.992V5.708C11.1286 5.308 11.0326 5 10.8406 4.784C10.6486 4.568 10.3766 4.46 10.0246 4.46C9.67263 4.46 9.40063 4.568 9.20863 4.784C9.01663 5 8.92063 5.308 8.92063 5.708V6.992C8.92063 7.392 9.01663 7.7 9.20863 7.916C9.40063 8.132 9.67263 8.24 10.0246 8.24ZM16.7861 9.644C16.3141 9.644 15.8941 9.568 15.5261 9.416C15.1581 9.256 14.8501 9.036 14.6021 8.756C14.3541 8.468 14.1661 8.12 14.0381 7.712C13.9101 7.304 13.8461 6.848 13.8461 6.344C13.8461 5.84 13.9101 5.388 14.0381 4.988C14.1661 4.58 14.3541 4.232 14.6021 3.944C14.8501 3.656 15.1581 3.436 15.5261 3.284C15.8941 3.132 16.3141 3.056 16.7861 3.056C17.4261 3.056 17.9581 3.2 18.3821 3.488C18.8141 3.776 19.1221 4.18 19.3061 4.7L17.8661 5.324C17.8101 5.084 17.6941 4.88 17.5181 4.712C17.3421 4.544 17.0981 4.46 16.7861 4.46C16.4261 4.46 16.1541 4.58 15.9701 4.82C15.7861 5.052 15.6941 5.368 15.6941 5.768V6.944C15.6941 7.344 15.7861 7.66 15.9701 7.892C16.1541 8.124 16.4261 8.24 16.7861 8.24C17.1061 8.24 17.3581 8.156 17.5421 7.988C17.7341 7.812 17.8741 7.584 17.9621 7.304L19.3421 7.904C19.1341 8.504 18.8101 8.944 18.3701 9.224C17.9381 9.504 17.4101 9.644 16.7861 9.644ZM20.4413 0.62H22.2173V5.864H22.2893L23.0693 4.7L24.3293 3.2H26.2973L24.1973 5.612L26.5373 9.5H24.4253L23.0093 6.836L22.2173 7.724V9.5H20.4413V0.62ZM29.6669 9.644C29.1869 9.644 28.7589 9.568 28.3829 9.416C28.0069 9.256 27.6869 9.036 27.4229 8.756C27.1669 8.468 26.9709 8.12 26.8349 7.712C26.7069 7.304 26.6429 6.848 26.6429 6.344C26.6429 5.848 26.7069 5.4 26.8349 5C26.9629 4.592 27.1509 4.244 27.3989 3.956C27.6549 3.668 27.9669 3.448 28.3349 3.296C28.7029 3.136 29.1229 3.056 29.5949 3.056C30.1149 3.056 30.5589 3.144 30.9269 3.32C31.3029 3.496 31.6069 3.732 31.8389 4.028C32.0789 4.324 32.2509 4.668 32.3549 5.06C32.4669 5.444 32.5229 5.848 32.5229 6.272V6.8H28.4789V6.896C28.4789 7.312 28.5909 7.644 28.8149 7.892C29.0389 8.132 29.3909 8.252 29.8709 8.252C30.2389 8.252 30.5389 8.18 30.7709 8.036C31.0029 7.884 31.2189 7.704 31.4189 7.496L32.3069 8.6C32.0269 8.928 31.6589 9.184 31.2029 9.368C30.7549 9.552 30.2429 9.644 29.6669 9.644ZM29.6309 4.364C29.2709 4.364 28.9869 4.484 28.7789 4.724C28.5789 4.956 28.4789 5.268 28.4789 5.66V5.756H30.6869V5.648C30.6869 5.264 30.5989 4.956 30.4229 4.724C30.2549 4.484 29.9909 4.364 29.6309 4.364ZM35.9852 9.5C35.3692 9.5 34.9012 9.344 34.5812 9.032C34.2692 8.72 34.1132 8.264 34.1132 7.664V4.58H33.2252V3.2H33.6692C33.9092 3.2 34.0732 3.144 34.1612 3.032C34.2492 2.912 34.2932 2.744 34.2932 2.528V1.496H35.8892V3.2H37.1372V4.58H35.8892V8.12H37.0412V9.5H35.9852ZM41.2069 3.2H42.9829V4.256H43.0429C43.1309 3.904 43.3309 3.616 43.6429 3.392C43.9629 3.168 44.3269 3.056 44.7349 3.056C45.5349 3.056 46.1389 3.336 46.5469 3.896C46.9549 4.456 47.1589 5.272 47.1589 6.344C47.1589 7.416 46.9549 8.236 46.5469 8.804C46.1389 9.364 45.5349 9.644 44.7349 9.644C44.5269 9.644 44.3309 9.612 44.1469 9.548C43.9629 9.492 43.7949 9.412 43.6429 9.308C43.4989 9.196 43.3749 9.068 43.2709 8.924C43.1669 8.772 43.0909 8.612 43.0429 8.444H42.9829V11.9H41.2069V3.2ZM44.1469 8.204C44.4829 8.204 44.7589 8.088 44.9749 7.856C45.1989 7.616 45.3109 7.296 45.3109 6.896V5.804C45.3109 5.404 45.1989 5.088 44.9749 4.856C44.7589 4.616 44.4829 4.496 44.1469 4.496C43.8109 4.496 43.5309 4.58 43.3069 4.748C43.0909 4.908 42.9829 5.132 42.9829 5.42V7.28C42.9829 7.568 43.0909 7.796 43.3069 7.964C43.5309 8.124 43.8109 8.204 44.1469 8.204ZM52.2277 8.444H52.1677C52.1117 8.604 52.0357 8.756 51.9397 8.9C51.8517 9.044 51.7357 9.172 51.5917 9.284C51.4477 9.396 51.2757 9.484 51.0757 9.548C50.8837 9.612 50.6597 9.644 50.4037 9.644C49.7557 9.644 49.2637 9.432 48.9277 9.008C48.5997 8.576 48.4357 7.96 48.4357 7.16V3.2H50.2117V7.004C50.2117 7.388 50.2797 7.684 50.4157 7.892C50.5517 8.1 50.7837 8.204 51.1117 8.204C51.2477 8.204 51.3837 8.184 51.5197 8.144C51.6557 8.104 51.7757 8.048 51.8797 7.976C51.9837 7.896 52.0677 7.8 52.1317 7.688C52.1957 7.576 52.2277 7.444 52.2277 7.292V3.2H54.0037V9.5H52.2277V8.444ZM55.2961 9.5V8.096L58.4281 4.58H55.4041V3.2H60.4921V4.592L57.3481 8.12H60.5761V9.5H55.2961ZM61.5071 9.5V8.096L64.6391 4.58H61.6151V3.2H66.7031V4.592L63.5591 8.12H66.7871V9.5H61.5071ZM69.842 9.5C69.234 9.5 68.786 9.352 68.498 9.056C68.218 8.76 68.078 8.332 68.078 7.772V0.62H69.854V8.12H70.646V9.5H69.842ZM74.3388 9.644C73.8588 9.644 73.4308 9.568 73.0548 9.416C72.6788 9.256 72.3588 9.036 72.0948 8.756C71.8388 8.468 71.6428 8.12 71.5068 7.712C71.3788 7.304 71.3148 6.848 71.3148 6.344C71.3148 5.848 71.3788 5.4 71.5068 5C71.6348 4.592 71.8228 4.244 72.0708 3.956C72.3268 3.668 72.6388 3.448 73.0068 3.296C73.3748 3.136 73.7948 3.056 74.2668 3.056C74.7868 3.056 75.2308 3.144 75.5988 3.32C75.9748 3.496 76.2788 3.732 76.5108 4.028C76.7508 4.324 76.9228 4.668 77.0268 5.06C77.1388 5.444 77.1948 5.848 77.1948 6.272V6.8H73.1508V6.896C73.1508 7.312 73.2628 7.644 73.4868 7.892C73.7108 8.132 74.0628 8.252 74.5428 8.252C74.9108 8.252 75.2108 8.18 75.4428 8.036C75.6748 7.884 75.8908 7.704 76.0908 7.496L76.9788 8.6C76.6988 8.928 76.3308 9.184 75.8748 9.368C75.4268 9.552 74.9148 9.644 74.3388 9.644ZM74.3028 4.364C73.9428 4.364 73.6588 4.484 73.4508 4.724C73.2508 4.956 73.1508 5.268 73.1508 5.66V5.756H75.3588V5.648C75.3588 5.264 75.2708 4.956 75.0948 4.724C74.9268 4.484 74.6628 4.364 74.3028 4.364ZM80.5851 9.644C79.9771 9.644 79.4651 9.548 79.0491 9.356C78.6331 9.156 78.2611 8.876 77.9331 8.516L78.9771 7.46C79.2011 7.708 79.4491 7.904 79.7211 8.048C79.9931 8.192 80.3011 8.264 80.6451 8.264C80.9971 8.264 81.2411 8.212 81.3771 8.108C81.5131 7.996 81.5811 7.848 81.5811 7.664C81.5811 7.368 81.3691 7.192 80.9451 7.136L80.2611 7.052C78.8451 6.876 78.1371 6.228 78.1371 5.108C78.1371 4.804 78.1931 4.528 78.3051 4.28C78.4251 4.024 78.5891 3.808 78.7971 3.632C79.0131 3.448 79.2691 3.308 79.5651 3.212C79.8691 3.108 80.2091 3.056 80.5851 3.056C80.9131 3.056 81.2011 3.08 81.4491 3.128C81.7051 3.168 81.9291 3.232 82.1211 3.32C82.3211 3.4 82.5011 3.504 82.6611 3.632C82.8291 3.752 82.9931 3.888 83.1531 4.04L82.1331 5.084C81.9331 4.884 81.7051 4.728 81.4491 4.616C81.2011 4.496 80.9451 4.436 80.6811 4.436C80.3771 4.436 80.1611 4.484 80.0331 4.58C79.9051 4.676 79.8411 4.804 79.8411 4.964C79.8411 5.132 79.8851 5.264 79.9731 5.36C80.0691 5.448 80.2451 5.512 80.5011 5.552L81.2091 5.648C82.5931 5.832 83.2851 6.464 83.2851 7.544C83.2851 7.848 83.2211 8.128 83.0931 8.384C82.9651 8.64 82.7811 8.864 82.5411 9.056C82.3091 9.24 82.0251 9.384 81.6891 9.488C81.3611 9.592 80.9931 9.644 80.5851 9.644Z" fill="#F8A300"/>
<path d="M-0.0759999 10V1.624H3.884C4.276 1.624 4.628 1.692 4.94 1.828C5.252 1.956 5.516 2.136 5.732 2.368C5.956 2.6 6.128 2.884 6.248 3.22C6.368 3.548 6.428 3.908 6.428 4.3C6.428 4.7 6.368 5.064 6.248 5.392C6.128 5.72 5.956 6 5.732 6.232C5.516 6.464 5.252 6.648 4.94 6.784C4.628 6.912 4.276 6.976 3.884 6.976H1.748V10H-0.0759999ZM1.748 5.392H3.668C3.94 5.392 4.152 5.324 4.304 5.188C4.464 5.044 4.544 4.836 4.544 4.564V4.036C4.544 3.764 4.464 3.56 4.304 3.424C4.152 3.28 3.94 3.208 3.668 3.208H1.748V5.392ZM10.0246 10.144C9.56063 10.144 9.14463 10.068 8.77663 9.916C8.41663 9.764 8.10863 9.544 7.85263 9.256C7.60463 8.968 7.41263 8.62 7.27663 8.212C7.14063 7.804 7.07263 7.348 7.07263 6.844C7.07263 6.34 7.14063 5.884 7.27663 5.476C7.41263 5.068 7.60463 4.724 7.85263 4.444C8.10863 4.156 8.41663 3.936 8.77663 3.784C9.14463 3.632 9.56063 3.556 10.0246 3.556C10.4886 3.556 10.9006 3.632 11.2606 3.784C11.6286 3.936 11.9366 4.156 12.1846 4.444C12.4406 4.724 12.6366 5.068 12.7726 5.476C12.9086 5.884 12.9766 6.34 12.9766 6.844C12.9766 7.348 12.9086 7.804 12.7726 8.212C12.6366 8.62 12.4406 8.968 12.1846 9.256C11.9366 9.544 11.6286 9.764 11.2606 9.916C10.9006 10.068 10.4886 10.144 10.0246 10.144ZM10.0246 8.74C10.3766 8.74 10.6486 8.632 10.8406 8.416C11.0326 8.2 11.1286 7.892 11.1286 7.492V6.208C11.1286 5.808 11.0326 5.5 10.8406 5.284C10.6486 5.068 10.3766 4.96 10.0246 4.96C9.67263 4.96 9.40063 5.068 9.20863 5.284C9.01663 5.5 8.92063 5.808 8.92063 6.208V7.492C8.92063 7.892 9.01663 8.2 9.20863 8.416C9.40063 8.632 9.67263 8.74 10.0246 8.74ZM16.7861 10.144C16.3141 10.144 15.8941 10.068 15.5261 9.916C15.1581 9.756 14.8501 9.536 14.6021 9.256C14.3541 8.968 14.1661 8.62 14.0381 8.212C13.9101 7.804 13.8461 7.348 13.8461 6.844C13.8461 6.34 13.9101 5.888 14.0381 5.488C14.1661 5.08 14.3541 4.732 14.6021 4.444C14.8501 4.156 15.1581 3.936 15.5261 3.784C15.8941 3.632 16.3141 3.556 16.7861 3.556C17.4261 3.556 17.9581 3.7 18.3821 3.988C18.8141 4.276 19.1221 4.68 19.3061 5.2L17.8661 5.824C17.8101 5.584 17.6941 5.38 17.5181 5.212C17.3421 5.044 17.0981 4.96 16.7861 4.96C16.4261 4.96 16.1541 5.08 15.9701 5.32C15.7861 5.552 15.6941 5.868 15.6941 6.268V7.444C15.6941 7.844 15.7861 8.16 15.9701 8.392C16.1541 8.624 16.4261 8.74 16.7861 8.74C17.1061 8.74 17.3581 8.656 17.5421 8.488C17.7341 8.312 17.8741 8.084 17.9621 7.804L19.3421 8.404C19.1341 9.004 18.8101 9.444 18.3701 9.724C17.9381 10.004 17.4101 10.144 16.7861 10.144ZM20.4413 1.12H22.2173V6.364H22.2893L23.0693 5.2L24.3293 3.7H26.2973L24.1973 6.112L26.5373 10H24.4253L23.0093 7.336L22.2173 8.224V10H20.4413V1.12ZM29.6669 10.144C29.1869 10.144 28.7589 10.068 28.3829 9.916C28.0069 9.756 27.6869 9.536 27.4229 9.256C27.1669 8.968 26.9709 8.62 26.8349 8.212C26.7069 7.804 26.6429 7.348 26.6429 6.844C26.6429 6.348 26.7069 5.9 26.8349 5.5C26.9629 5.092 27.1509 4.744 27.3989 4.456C27.6549 4.168 27.9669 3.948 28.3349 3.796C28.7029 3.636 29.1229 3.556 29.5949 3.556C30.1149 3.556 30.5589 3.644 30.9269 3.82C31.3029 3.996 31.6069 4.232 31.8389 4.528C32.0789 4.824 32.2509 5.168 32.3549 5.56C32.4669 5.944 32.5229 6.348 32.5229 6.772V7.3H28.4789V7.396C28.4789 7.812 28.5909 8.144 28.8149 8.392C29.0389 8.632 29.3909 8.752 29.8709 8.752C30.2389 8.752 30.5389 8.68 30.7709 8.536C31.0029 8.384 31.2189 8.204 31.4189 7.996L32.3069 9.1C32.0269 9.428 31.6589 9.684 31.2029 9.868C30.7549 10.052 30.2429 10.144 29.6669 10.144ZM29.6309 4.864C29.2709 4.864 28.9869 4.984 28.7789 5.224C28.5789 5.456 28.4789 5.768 28.4789 6.16V6.256H30.6869V6.148C30.6869 5.764 30.5989 5.456 30.4229 5.224C30.2549 4.984 29.9909 4.864 29.6309 4.864ZM35.9852 10C35.3692 10 34.9012 9.844 34.5812 9.532C34.2692 9.22 34.1132 8.764 34.1132 8.164V5.08H33.2252V3.7H33.6692C33.9092 3.7 34.0732 3.644 34.1612 3.532C34.2492 3.412 34.2932 3.244 34.2932 3.028V1.996H35.8892V3.7H37.1372V5.08H35.8892V8.62H37.0412V10H35.9852ZM41.2069 3.7H42.9829V4.756H43.0429C43.1309 4.404 43.3309 4.116 43.6429 3.892C43.9629 3.668 44.3269 3.556 44.7349 3.556C45.5349 3.556 46.1389 3.836 46.5469 4.396C46.9549 4.956 47.1589 5.772 47.1589 6.844C47.1589 7.916 46.9549 8.736 46.5469 9.304C46.1389 9.864 45.5349 10.144 44.7349 10.144C44.5269 10.144 44.3309 10.112 44.1469 10.048C43.9629 9.992 43.7949 9.912 43.6429 9.808C43.4989 9.696 43.3749 9.568 43.2709 9.424C43.1669 9.272 43.0909 9.112 43.0429 8.944H42.9829V12.4H41.2069V3.7ZM44.1469 8.704C44.4829 8.704 44.7589 8.588 44.9749 8.356C45.1989 8.116 45.3109 7.796 45.3109 7.396V6.304C45.3109 5.904 45.1989 5.588 44.9749 5.356C44.7589 5.116 44.4829 4.996 44.1469 4.996C43.8109 4.996 43.5309 5.08 43.3069 5.248C43.0909 5.408 42.9829 5.632 42.9829 5.92V7.78C42.9829 8.068 43.0909 8.296 43.3069 8.464C43.5309 8.624 43.8109 8.704 44.1469 8.704ZM52.2277 8.944H52.1677C52.1117 9.104 52.0357 9.256 51.9397 9.4C51.8517 9.544 51.7357 9.672 51.5917 9.784C51.4477 9.896 51.2757 9.984 51.0757 10.048C50.8837 10.112 50.6597 10.144 50.4037 10.144C49.7557 10.144 49.2637 9.932 48.9277 9.508C48.5997 9.076 48.4357 8.46 48.4357 7.66V3.7H50.2117V7.504C50.2117 7.888 50.2797 8.184 50.4157 8.392C50.5517 8.6 50.7837 8.704 51.1117 8.704C51.2477 8.704 51.3837 8.684 51.5197 8.644C51.6557 8.604 51.7757 8.548 51.8797 8.476C51.9837 8.396 52.0677 8.3 52.1317 8.188C52.1957 8.076 52.2277 7.944 52.2277 7.792V3.7H54.0037V10H52.2277V8.944ZM55.2961 10V8.596L58.4281 5.08H55.4041V3.7H60.4921V5.092L57.3481 8.62H60.5761V10H55.2961ZM61.5071 10V8.596L64.6391 5.08H61.6151V3.7H66.7031V5.092L63.5591 8.62H66.7871V10H61.5071ZM69.842 10C69.234 10 68.786 9.852 68.498 9.556C68.218 9.26 68.078 8.832 68.078 8.272V1.12H69.854V8.62H70.646V10H69.842ZM74.3388 10.144C73.8588 10.144 73.4308 10.068 73.0548 9.916C72.6788 9.756 72.3588 9.536 72.0948 9.256C71.8388 8.968 71.6428 8.62 71.5068 8.212C71.3788 7.804 71.3148 7.348 71.3148 6.844C71.3148 6.348 71.3788 5.9 71.5068 5.5C71.6348 5.092 71.8228 4.744 72.0708 4.456C72.3268 4.168 72.6388 3.948 73.0068 3.796C73.3748 3.636 73.7948 3.556 74.2668 3.556C74.7868 3.556 75.2308 3.644 75.5988 3.82C75.9748 3.996 76.2788 4.232 76.5108 4.528C76.7508 4.824 76.9228 5.168 77.0268 5.56C77.1388 5.944 77.1948 6.348 77.1948 6.772V7.3H73.1508V7.396C73.1508 7.812 73.2628 8.144 73.4868 8.392C73.7108 8.632 74.0628 8.752 74.5428 8.752C74.9108 8.752 75.2108 8.68 75.4428 8.536C75.6748 8.384 75.8908 8.204 76.0908 7.996L76.9788 9.1C76.6988 9.428 76.3308 9.684 75.8748 9.868C75.4268 10.052 74.9148 10.144 74.3388 10.144ZM74.3028 4.864C73.9428 4.864 73.6588 4.984 73.4508 5.224C73.2508 5.456 73.1508 5.768 73.1508 6.16V6.256H75.3588V6.148C75.3588 5.764 75.2708 5.456 75.0948 5.224C74.9268 4.984 74.6628 4.864 74.3028 4.864ZM80.5851 10.144C79.9771 10.144 79.4651 10.048 79.0491 9.856C78.6331 9.656 78.2611 9.376 77.9331 9.016L78.9771 7.96C79.2011 8.208 79.4491 8.404 79.7211 8.548C79.9931 8.692 80.3011 8.764 80.6451 8.764C80.9971 8.764 81.2411 8.712 81.3771 8.608C81.5131 8.496 81.5811 8.348 81.5811 8.164C81.5811 7.868 81.3691 7.692 80.9451 7.636L80.2611 7.552C78.8451 7.376 78.1371 6.728 78.1371 5.608C78.1371 5.304 78.1931 5.028 78.3051 4.78C78.4251 4.524 78.5891 4.308 78.7971 4.132C79.0131 3.948 79.2691 3.808 79.5651 3.712C79.8691 3.608 80.2091 3.556 80.5851 3.556C80.9131 3.556 81.2011 3.58 81.4491 3.628C81.7051 3.668 81.9291 3.732 82.1211 3.82C82.3211 3.9 82.5011 4.004 82.6611 4.132C82.8291 4.252 82.9931 4.388 83.1531 4.54L82.1331 5.584C81.9331 5.384 81.7051 5.228 81.4491 5.116C81.2011 4.996 80.9451 4.936 80.6811 4.936C80.3771 4.936 80.1611 4.984 80.0331 5.08C79.9051 5.176 79.8411 5.304 79.8411 5.464C79.8411 5.632 79.8851 5.764 79.9731 5.86C80.0691 5.948 80.2451 6.012 80.5011 6.052L81.2091 6.148C82.5931 6.332 83.2851 6.964 83.2851 8.044C83.2851 8.348 83.2211 8.628 83.0931 8.884C82.9651 9.14 82.7811 9.364 82.5411 9.556C82.3091 9.74 82.0251 9.884 81.6891 9.988C81.3611 10.092 80.9931 10.144 80.5851 10.144Z" fill="#63BCE5"/>
</g>
<defs>
<clipPath id="clip0_2753_412">
<rect width="84" height="13" fill="white"/>
</clipPath>
</defs>
</svg>
