<svg width="64" height="64" viewBox="0 0 64 64" fill="none" xmlns="http://www.w3.org/2000/svg">
<g clip-path="url(#clip0_379_1582)">
<rect width="64" height="64" fill="#FBF8EF"/>
<rect x="-3.34743" y="32" width="50" height="50" transform="rotate(-45 -3.34743 32)" fill="#FBF8EF"/>
<rect x="-3.34743" y="32" width="50" height="50" transform="rotate(-45 -3.34743 32)" stroke="#7ECEA6" stroke-width="3"/>
<rect width="41" height="41" transform="translate(3 32) rotate(-45)" fill="#7ECEA6"/>
<path d="M35.3182 23.9892C35.3578 23.6932 35.4014 23.3412 35.4439 22.9468C35.5753 21.7273 35.6967 20.0976 35.6547 18.4647C35.6129 16.8373 35.4085 15.1815 34.8728 13.9242C34.604 13.2935 34.2463 12.7496 33.7713 12.3623C33.2919 11.9716 32.7045 11.75 32 11.75C31.2955 11.75 30.7081 11.9716 30.2287 12.3623C29.7537 12.7496 29.396 13.2935 29.1272 13.9242C28.5915 15.1815 28.3871 16.8373 28.3453 18.4647C28.3033 20.0976 28.4247 21.7273 28.5561 22.9468C28.5986 23.3412 28.6422 23.6932 28.6818 23.9892C28.5005 23.7519 28.2824 23.4722 28.0336 23.1632C27.2642 22.208 26.1977 20.9698 25.0134 19.8448C23.8331 18.7237 22.5177 17.6974 21.2498 17.1871C20.6138 16.9312 19.9763 16.7995 19.3665 16.8616C18.7513 16.9243 18.1792 17.1829 17.6811 17.6811C17.1829 18.1792 16.9243 18.7513 16.8616 19.3665C16.7995 19.9763 16.9312 20.6138 17.1871 21.2498C17.6974 22.5177 18.7237 23.8331 19.8448 25.0134C20.9698 26.1977 22.208 27.2642 23.1632 28.0336C23.4722 28.2824 23.7519 28.5005 23.9892 28.6818C23.6932 28.6422 23.3412 28.5986 22.9468 28.5561C21.7273 28.4247 20.0976 28.3033 18.4647 28.3453C16.8373 28.3871 15.1815 28.5915 13.9242 29.1272C13.2935 29.396 12.7496 29.7537 12.3623 30.2287C11.9716 30.7081 11.75 31.2955 11.75 32C11.75 32.7045 11.9716 33.2919 12.3623 33.7713C12.7496 34.2463 13.2935 34.604 13.9242 34.8728C15.1815 35.4085 16.8373 35.6129 18.4647 35.6547C20.0976 35.6967 21.7273 35.5753 22.9468 35.4439C23.3412 35.4014 23.6932 35.3578 23.9892 35.3182C23.7519 35.4995 23.4722 35.7176 23.1632 35.9664C22.208 36.7358 20.9698 37.8023 19.8448 38.9866C18.7237 40.1669 17.6974 41.4823 17.1871 42.7502C16.9312 43.3862 16.7995 44.0237 16.8616 44.6335C16.9243 45.2487 17.1829 45.8207 17.6811 46.3189C18.1792 46.8171 18.7513 47.0757 19.3665 47.1384C19.9763 47.2005 20.6138 47.0688 21.2498 46.8128C22.5177 46.3026 23.8331 45.2763 25.0134 44.1552C26.1977 43.0302 27.2642 41.792 28.0336 40.8368C28.2824 40.5278 28.5005 40.2481 28.6818 40.0108C28.6422 40.3068 28.5986 40.6588 28.5561 41.0532C28.4247 42.2727 28.3033 43.9024 28.3453 45.5353C28.3871 47.1627 28.5915 48.8185 29.1272 50.0758C29.396 50.7065 29.7537 51.2504 30.2287 51.6377C30.7081 52.0284 31.2955 52.25 32 52.25C32.7045 52.25 33.2919 52.0284 33.7713 51.6377C34.2463 51.2504 34.604 50.7065 34.8728 50.0758C35.4085 48.8185 35.6129 47.1627 35.6547 45.5353C35.6967 43.9024 35.5753 42.2727 35.4439 41.0532C35.4014 40.6588 35.3578 40.3068 35.3182 40.0108C35.4995 40.2481 35.7176 40.5278 35.9664 40.8368C36.7358 41.792 37.8023 43.0302 38.9866 44.1552C40.1669 45.2763 41.4823 46.3026 42.7502 46.8128C43.3862 47.0688 44.0237 47.2005 44.6335 47.1384C45.2487 47.0757 45.8207 46.8171 46.3189 46.3189C46.8171 45.8207 47.0757 45.2487 47.1384 44.6335C47.2005 44.0237 47.0688 43.3862 46.8128 42.7502C46.3026 41.4823 45.2763 40.1669 44.1552 38.9866C43.0302 37.8023 41.792 36.7358 40.8368 35.9664C40.5278 35.7176 40.2481 35.4995 40.0108 35.3182C40.3068 35.3578 40.6588 35.4014 41.0532 35.4439C42.2727 35.5753 43.9024 35.6967 45.5353 35.6547C47.1627 35.6129 48.8185 35.4085 50.0758 34.8728C50.7065 34.604 51.2504 34.2463 51.6377 33.7713C52.0284 33.2919 52.25 32.7045 52.25 32C52.25 31.2955 52.0284 30.7081 51.6377 30.2287C51.2504 29.7537 50.7065 29.396 50.0758 29.1272C48.8185 28.5915 47.1627 28.3871 45.5353 28.3453C43.9024 28.3033 42.2727 28.4247 41.0532 28.5561C40.6588 28.5986 40.3068 28.6422 40.0108 28.6818C40.2481 28.5005 40.5278 28.2824 40.8368 28.0336C41.792 27.2642 43.0302 26.1977 44.1552 25.0134C45.2763 23.8331 46.3026 22.5177 46.8128 21.2498C47.0688 20.6138 47.2005 19.9763 47.1384 19.3665C47.0757 18.7513 46.8171 18.1792 46.3189 17.6811C45.8207 17.1829 45.2487 16.9243 44.6335 16.8616C44.0237 16.7995 43.3862 16.9312 42.7502 17.1871C41.4823 17.6974 40.1669 18.7237 38.9866 19.8448C37.8023 20.9698 36.7358 22.208 35.9664 23.1632C35.7176 23.4722 35.4995 23.7519 35.3182 23.9892Z" fill="#FBF8EF" stroke="#111111" stroke-width="0.5"/>
<path d="M32.3056 19.2562L32.5627 30.8779L41.2772 23.1845L33.2413 31.5841L44.8434 32.3062L33.2217 32.5633L40.915 41.2778L32.5154 33.2419L31.7933 44.844L31.5362 33.2223L22.8217 40.9156L30.8577 32.516L19.2556 31.7939L30.8773 31.5368L23.1839 22.8223L31.5835 30.8583L32.3056 19.2562Z" fill="#111111"/>
<rect x="28.25" y="28.25" width="7.5" height="7.5" rx="3.75" fill="#7ECEA6" stroke="#111111" stroke-width="0.5"/>
<path d="M61 45V61H45L61 45Z" fill="#7ECEA6"/>
<path d="M45 3H61V19L45 3Z" fill="#7ECEA6"/>
<path d="M19 3H3V19L19 3Z" fill="#7ECEA6"/>
<path d="M19 61H3V45L19 61Z" fill="#7ECEA6"/>
<path d="M3 53H11V61L3 53Z" fill="#FBF8EF"/>
<path d="M11 3V11H3L11 3Z" fill="#FBF8EF"/>
<path d="M61 11L53 11V3L61 11Z" fill="#FBF8EF"/>
<path d="M53 61V53H61L53 61Z" fill="#FBF8EF"/>
</g>
<defs>
<clipPath id="clip0_379_1582">
<rect width="64" height="64" fill="white"/>
</clipPath>
</defs>
</svg>
