<svg width="64" height="64" viewBox="0 0 64 64" fill="none" xmlns="http://www.w3.org/2000/svg">
<g clip-path="url(#clip0_400_2853)">
<rect width="64" height="64" fill="#6CB9E0"/>
<path d="M2.73224 53.3017C2.73224 53.3017 19.719 53.2577 13.336 45.0527C7.4696 37.5117 2.73224 53.3017 2.73224 53.3017Z" fill="#FBF8EF"/>
<path fill-rule="evenodd" clip-rule="evenodd" d="M13.4135 45.1482C13.3588 45.0751 3.75241 52.7134 3.75241 52.7134C3.75241 52.7134 13.8923 45.8267 13.7622 45.6329C13.6321 45.4391 13.498 45.2612 13.4135 45.1482Z" fill="#111111"/>
<path d="M5.89154 61.9321C5.89154 61.9321 10.971 40.3023 19.5373 50.8612C27.4104 60.5657 5.89154 61.9321 5.89154 61.9321Z" fill="#FBF8EF"/>
<path fill-rule="evenodd" clip-rule="evenodd" d="M19.4391 50.7357C19.5161 50.827 6.94329 60.8076 6.94329 60.8076C6.94329 60.8076 18.7163 49.925 18.9247 50.148C19.1332 50.3711 19.3201 50.5946 19.4391 50.7357Z" fill="#111111"/>
<path d="M59.5221 61.9865C59.5221 61.9865 35.2415 59.6455 45.4678 48.7707C54.8665 38.7758 59.5221 61.9865 59.5221 61.9865Z" fill="#FBF8EF"/>
<path fill-rule="evenodd" clip-rule="evenodd" d="M45.3478 48.8967C45.4358 48.7995 58.1459 61.0085 58.1459 61.0085C58.1459 61.0085 44.5723 49.8025 44.7842 49.5429C44.9962 49.2833 45.2118 49.0469 45.3478 48.8967Z" fill="#111111"/>
<path d="M3.5521 3.21373C3.5521 3.21373 28.586 1.51392 20.0333 14.2666C12.1727 25.9875 3.5521 3.21373 3.5521 3.21373Z" fill="#FBF8EF"/>
<path fill-rule="evenodd" clip-rule="evenodd" d="M20.1389 14.1175C20.0659 14.2309 5.11778 3.97409 5.11778 3.97409C5.11778 3.97409 20.7739 13.0681 20.6024 13.3671C20.4308 13.6662 20.2517 13.9422 20.1389 14.1175Z" fill="#111111"/>
<path d="M59.7549 2.14126C59.7549 2.14126 54.5399 24.9724 45.4429 13.898C37.082 3.71967 59.7549 2.14126 59.7549 2.14126Z" fill="#FBF8EF"/>
<path fill-rule="evenodd" clip-rule="evenodd" d="M45.5496 14.0304C45.4679 13.9346 58.656 3.33396 58.656 3.33396C58.656 3.33396 46.3167 14.8802 46.0955 14.6465C45.8744 14.4127 45.6759 14.1783 45.5496 14.0304Z" fill="#111111"/>
<path d="M4.01976 12.8992C4.01976 12.8992 20.8461 10.5699 15.6719 19.586C10.9164 27.8726 4.01976 12.8992 4.01976 12.8992Z" fill="#FBF8EF"/>
<path fill-rule="evenodd" clip-rule="evenodd" d="M15.7364 19.4808C15.6924 19.5608 5.11326 13.3393 5.11326 13.3393C5.11326 13.3393 16.1157 18.7421 16.014 18.9522C15.9122 19.1622 15.8043 19.3571 15.7364 19.4808Z" fill="#111111"/>
<path d="M61.8631 11.8992C61.8631 11.8992 45.0367 9.56992 50.2109 18.586C54.9664 26.8726 61.8631 11.8992 61.8631 11.8992Z" fill="#FBF8EF"/>
<path fill-rule="evenodd" clip-rule="evenodd" d="M50.1465 18.4808C50.1904 18.5608 60.7695 12.3393 60.7695 12.3393C60.7695 12.3393 49.7671 17.7421 49.8688 17.9522C49.9706 18.1622 50.0785 18.3571 50.1465 18.4808Z" fill="#111111"/>
<path d="M60.3576 53.0575C60.3576 53.0575 43.3709 53.0135 49.7538 44.8086C55.6202 37.2676 60.3576 53.0575 60.3576 53.0575Z" fill="#FBF8EF"/>
<path fill-rule="evenodd" clip-rule="evenodd" d="M49.6764 44.9041C49.7311 44.831 59.3374 52.4693 59.3374 52.4693C59.3374 52.4693 49.1976 45.5825 49.3277 45.3887C49.4578 45.195 49.5919 45.0171 49.6764 44.9041Z" fill="#111111"/>
<path d="M43.5125 20.4875C44.1703 19.6145 44.8467 18.6588 45.472 17.6715C46.664 15.7893 47.6998 13.747 48.0376 11.9228C48.2074 11.0061 48.2072 10.1114 47.9332 9.30927C47.6549 8.49488 47.1063 7.81263 46.25 7.31828C45.4104 6.83351 44.6212 6.69974 43.8957 6.94769C43.191 7.18855 42.6512 7.75546 42.2191 8.44002C41.3831 9.76437 40.7896 11.7993 40.2075 13.7953L40.1657 13.9386C39.5557 16.0293 38.9464 18.0829 38.09 19.5088C37.6651 20.2162 37.2043 20.7246 36.6945 21.0113C36.2018 21.2884 35.6239 21.381 34.8975 21.1864C34.1711 20.9918 33.717 20.6226 33.4288 20.1362C33.1306 19.6331 32.9858 18.9624 32.9715 18.1373C32.9428 16.4742 33.4419 14.3911 33.959 12.2755C33.9708 12.2272 33.9826 12.1788 33.9944 12.1305C34.4883 10.1109 34.9918 8.0518 34.93 6.4869C34.898 5.678 34.714 4.91714 34.2241 4.3562C33.7198 3.77872 32.9695 3.5 32 3.5C31.0113 3.5 30.195 3.81651 29.5468 4.38265C28.9084 4.94027 28.461 5.71508 28.1496 6.59386C27.53 8.34255 27.406 10.6291 27.4972 12.8552C27.5451 14.0228 27.653 15.1887 27.7862 16.2737C27.359 15.2675 26.8695 14.2038 26.3271 13.1687C25.2931 11.1952 24.0424 9.27707 22.6315 8.07244C21.9224 7.46708 21.1475 7.0198 20.3158 6.85609C19.4714 6.68988 18.6062 6.82392 17.75 7.31828C16.9104 7.80304 16.3999 8.41957 16.2519 9.17184C16.1082 9.90256 16.3292 10.6535 16.706 11.37C17.4349 12.7561 18.9005 14.2876 20.338 15.7897C20.3724 15.8257 20.4068 15.8616 20.4412 15.8976C21.9468 17.4713 23.4206 19.0257 24.2273 20.4803C24.6275 21.202 24.8374 21.8552 24.8308 22.4401C24.8243 23.0054 24.6157 23.5522 24.0839 24.0839C23.5522 24.6157 23.0054 24.8243 22.4401 24.8308C21.8552 24.8374 21.202 24.6275 20.4803 24.2273C19.0257 23.4206 17.4713 21.9468 15.8976 20.4412C15.8616 20.4068 15.8257 20.3724 15.7897 20.338C14.2876 18.9005 12.7561 17.4349 11.37 16.706C10.6535 16.3292 9.90256 16.1082 9.17184 16.2519C8.41957 16.3999 7.80304 16.9104 7.31828 17.75C6.82392 18.6062 6.68988 19.4714 6.85609 20.3158C7.0198 21.1475 7.46708 21.9224 8.07244 22.6315C9.27707 24.0424 11.1952 25.2931 13.1687 26.3271C14.2038 26.8695 15.2675 27.359 16.2737 27.7862C15.1887 27.653 14.0228 27.5451 12.8552 27.4972C10.6291 27.406 8.34255 27.53 6.59386 28.1496C5.71508 28.461 4.94027 28.9084 4.38265 29.5468C3.81651 30.195 3.5 31.0113 3.5 32C3.5 32.9695 3.77872 33.7198 4.3562 34.2241C4.91714 34.714 5.678 34.898 6.4869 34.93C8.0518 34.9918 10.1109 34.4883 12.1305 33.9944C12.1788 33.9826 12.2272 33.9708 12.2755 33.959C14.3911 33.4419 16.4742 32.9428 18.1373 32.9715C18.9624 32.9858 19.6331 33.1306 20.1362 33.4288C20.6226 33.717 20.9918 34.1711 21.1864 34.8975C21.381 35.6239 21.2884 36.2018 21.0113 36.6945C20.7246 37.2043 20.2162 37.6651 19.5088 38.09C18.0829 38.9464 16.0293 39.5557 13.9386 40.1657L13.7953 40.2075C11.7993 40.7896 9.76437 41.3831 8.44002 42.2191C7.75546 42.6512 7.18855 43.191 6.94769 43.8957C6.69974 44.6212 6.83351 45.4104 7.31828 46.25C7.81263 47.1063 8.49488 47.6549 9.30927 47.9332C10.1114 48.2072 11.0061 48.2074 11.9228 48.0376C13.747 47.6998 15.7893 46.664 17.6715 45.472C18.6588 44.8467 19.6145 44.1703 20.4875 43.5125C19.8297 44.3855 19.1533 45.3412 18.528 46.3285C17.336 48.2107 16.3002 50.253 15.9624 52.0772C15.7927 52.9939 15.7928 53.8886 16.0668 54.6907C16.3451 55.5051 16.8938 56.1874 17.75 56.6817C18.5896 57.1665 19.3788 57.3003 20.1043 57.0523C20.809 56.8115 21.3488 56.2445 21.7809 55.56C22.6168 54.2356 23.2103 52.2007 23.7925 50.2048L23.8343 50.0614C24.4443 47.9707 25.0536 45.9171 25.91 44.4912C26.3349 43.7838 26.7957 43.2754 27.3055 42.9887C27.7982 42.7116 28.3761 42.619 29.1025 42.8136C29.8289 43.0082 30.283 43.3774 30.5712 43.8638C30.8694 44.3669 31.0142 45.0376 31.0285 45.8627C31.0572 47.5258 30.5581 49.6089 30.041 51.7245L30.0056 51.8695C29.5117 53.8891 29.0082 55.9482 29.07 57.5131C29.102 58.322 29.286 59.0829 29.7759 59.6438C30.2802 60.2213 31.0305 60.5 32 60.5C32.9887 60.5 33.805 60.1835 34.4532 59.6173C35.0916 59.0597 35.539 58.2849 35.8504 57.4061C36.47 55.6575 36.594 53.3709 36.5028 51.1448C36.4549 49.9772 36.347 48.8113 36.2138 47.7263C36.641 48.7325 37.1305 49.7962 37.6729 50.8313C38.7069 52.8048 39.9576 54.7229 41.3685 55.9276C42.0776 56.5329 42.8525 56.9802 43.6842 57.1439C44.5286 57.3101 45.3938 57.1761 46.25 56.6817C47.0896 56.197 47.6001 55.5804 47.7481 54.8282C47.8918 54.0974 47.6708 53.3465 47.294 52.63C46.565 51.2439 45.0995 49.7124 43.662 48.2103L43.5588 48.1024C42.0532 46.5287 40.5794 44.9743 39.7727 43.5197C39.3725 42.798 39.1626 42.1448 39.1692 41.5599C39.1757 40.9946 39.3844 40.4478 39.9161 39.9161C40.4478 39.3844 40.9946 39.1757 41.5599 39.1692C42.1448 39.1626 42.798 39.3725 43.5197 39.7727C44.9743 40.5794 46.5287 42.0532 48.1024 43.5588L48.2103 43.662C49.7124 45.0995 51.2439 46.565 52.63 47.294C53.3465 47.6708 54.0974 47.8918 54.8282 47.7481C55.5804 47.6001 56.197 47.0896 56.6817 46.25C57.1761 45.3938 57.3101 44.5286 57.1439 43.6842C56.9802 42.8525 56.5329 42.0776 55.9276 41.3685C54.7229 39.9576 52.8048 38.7069 50.8313 37.6729C49.7962 37.1305 48.7325 36.641 47.7263 36.2139C48.8113 36.347 49.9772 36.4549 51.1448 36.5028C53.3709 36.594 55.6575 36.47 57.4061 35.8504C58.2849 35.539 59.0597 35.0916 59.6173 34.4532C60.1835 33.805 60.5 32.9887 60.5 32C60.5 31.0305 60.2213 30.2802 59.6438 29.7759C59.0829 29.286 58.322 29.102 57.5131 29.07C55.9482 29.0082 53.8891 29.5117 51.8695 30.0056L51.7245 30.041C49.6089 30.5581 47.5258 31.0572 45.8627 31.0285C45.0376 31.0142 44.3669 30.8694 43.8638 30.5712C43.3774 30.283 43.0082 29.8289 42.8136 29.1025C42.619 28.3761 42.7116 27.7982 42.9887 27.3055C43.2754 26.7957 43.7838 26.3349 44.4912 25.91C45.9171 25.0536 47.9707 24.4443 50.0614 23.8343L50.2048 23.7925C52.2007 23.2103 54.2356 22.6168 55.56 21.7809C56.2445 21.3488 56.8115 20.809 57.0523 20.1043C57.3003 19.3788 57.1665 18.5896 56.6817 17.75C56.1874 16.8938 55.5051 16.3451 54.6907 16.0668C53.8886 15.7928 52.9939 15.7927 52.0772 15.9624C50.253 16.3002 48.2107 17.336 46.3285 18.528C45.3412 19.1533 44.3855 19.8297 43.5125 20.4875Z" fill="#FBF8EF" stroke="#111111"/>
<path d="M46.397 24.4005C47.2834 23.7607 48.2118 23.0473 49.1008 22.2887C50.7955 20.8425 52.3882 19.1972 53.2496 17.5541C53.6825 16.7284 53.9466 15.8735 53.9216 15.0262C53.8963 14.166 53.5735 13.3522 52.9015 12.627C52.2424 11.9159 51.528 11.555 50.7616 11.5777C50.0172 11.5997 49.3341 11.9819 48.7191 12.5084C47.5293 13.5268 46.3613 15.2957 45.2157 17.0308L45.1335 17.1553C43.9333 18.9727 42.7447 20.7547 41.5055 21.8641C40.8906 22.4145 40.3002 22.7642 39.7285 22.8875C39.1759 23.0067 38.5964 22.9246 37.9599 22.5242C37.3234 22.1237 36.9985 21.6369 36.8668 21.0871C36.7305 20.5183 36.7902 19.8348 37.0202 19.0423C37.4839 17.4449 38.5759 15.6021 39.6947 13.7335C39.7203 13.6908 39.7458 13.6481 39.7714 13.6054C40.8396 11.8217 41.9287 10.0032 42.3318 8.48981C42.5402 7.70755 42.589 6.92628 42.2867 6.2457C41.9754 5.54505 41.3408 5.05719 40.4145 4.77088C39.4699 4.4789 38.5966 4.54024 37.8101 4.88973C37.0355 5.23395 36.3792 5.84207 35.8222 6.58971C34.7139 8.07745 33.9201 10.2254 33.3499 12.3791C33.0508 13.5088 32.8096 14.6546 32.6165 15.7305C32.5055 14.643 32.3519 13.4823 32.1394 12.3331C31.7343 10.1423 31.1058 7.94036 30.1135 6.37281C29.6149 5.58505 29.0066 4.92888 28.2604 4.52688C27.5027 4.11872 26.6365 3.99129 25.6725 4.21074C24.7272 4.42594 24.0574 4.86424 23.6939 5.53925C23.3407 6.19493 23.3302 6.97765 23.4786 7.77347C23.7657 9.31304 24.7136 11.209 25.6434 13.0686C25.6657 13.1131 25.6879 13.1577 25.7102 13.2022C26.6839 15.1503 27.633 17.0706 27.9741 18.6985C28.1433 19.5063 28.151 20.1923 27.9719 20.7491C27.7988 21.2873 27.438 21.7481 26.7729 22.0991C26.1079 22.4501 25.5238 22.488 24.9818 22.3272C24.4211 22.1608 23.859 21.7674 23.2877 21.1719C22.1361 19.9717 21.0863 18.1046 20.0274 16.2014C20.0032 16.1579 19.979 16.1144 19.9548 16.0709C18.9442 14.2539 17.9138 12.4015 16.8048 11.2958C16.2315 10.7242 15.5793 10.2912 14.8387 10.2128C14.0763 10.132 13.3365 10.4376 12.6254 11.0967C11.9003 11.7687 11.5167 12.5558 11.4262 13.4116C11.337 14.2545 11.5355 15.127 11.9044 15.9831C12.6387 17.6869 14.102 19.4483 15.6821 21.0189C16.5108 21.8428 17.3825 22.6246 18.2177 23.3298C17.2204 22.8822 16.1384 22.4348 15.037 22.0443C12.9371 21.2997 10.7159 20.743 8.86225 20.8186C7.93072 20.8565 7.05832 21.0552 6.33706 21.5005C5.60475 21.9526 5.0613 22.639 4.76933 23.5836C4.48302 24.5099 4.52773 25.309 4.93053 25.9614C5.3218 26.5951 5.99438 26.9956 6.75777 27.265C8.23463 27.7861 10.3505 27.9131 12.4259 28.0377C12.4756 28.0407 12.5253 28.0437 12.575 28.0467C14.7489 28.1775 16.8865 28.3157 18.4669 28.8343C19.251 29.0916 19.849 29.428 20.2417 29.8614C20.6212 30.2804 20.8399 30.8233 20.8113 31.5748C20.7828 32.3262 20.5236 32.851 20.1133 33.24C19.6889 33.6424 19.0671 33.9325 18.2657 34.1295C16.6505 34.5266 14.5086 34.5023 12.331 34.4677L12.1817 34.4653C10.1029 34.4321 7.98341 34.3982 6.47126 34.8058C5.68962 35.0165 4.98858 35.3648 4.55036 35.9669C4.09922 36.5868 3.99399 37.3803 4.20919 38.3256C4.42864 39.2897 4.91844 40.0154 5.61433 40.5217C6.29973 41.0204 7.15453 41.2847 8.0805 41.3933C9.92309 41.6093 12.1801 41.2227 14.3304 40.6397C15.4583 40.3339 16.5712 39.9699 17.5996 39.5992C16.7132 40.239 15.7848 40.9524 14.8958 41.711C13.2011 43.1572 11.6084 44.8025 10.747 46.4456C10.3141 47.2713 10.05 48.1262 10.075 48.9734C10.1003 49.8337 10.423 50.6475 11.0951 51.3727C11.7542 52.0838 12.4686 52.4446 13.235 52.422C13.9794 52.4 14.6625 52.0178 15.2775 51.4913C16.4673 50.4729 17.6352 48.704 18.7808 46.969L18.8631 46.8444C20.0633 45.027 21.2518 43.245 22.4911 42.1356C23.106 41.5852 23.6963 41.2355 24.2681 41.1122C24.8207 40.9929 25.4002 41.0751 26.0367 41.4755C26.6732 41.876 26.9981 42.3628 27.1298 42.9126C27.2661 43.4814 27.2064 44.1649 26.9763 44.9574C26.5127 46.5548 25.4206 48.3976 24.3019 50.2662L24.2252 50.3943C23.157 52.178 22.0679 53.9965 21.6648 55.5099C21.4564 56.2921 21.4076 57.0734 21.7099 57.754C22.0212 58.4546 22.6558 58.9425 23.582 59.2288C24.5267 59.5208 25.4 59.4595 26.1865 59.11C26.9611 58.7657 27.6174 58.1576 28.1743 57.41C29.2827 55.9222 30.0765 53.7743 30.6467 51.6206C30.9458 50.4909 31.187 49.3451 31.3801 48.2692C31.4911 49.3567 31.6446 50.5174 31.8572 51.6666C32.2623 53.8574 32.8908 56.0593 33.883 57.6269C34.3817 58.4146 34.99 59.0708 35.7362 59.4728C36.4939 59.881 37.36 60.0084 38.3241 59.789C39.2694 59.5738 39.9392 59.1355 40.3027 58.4604C40.6559 57.8048 40.6664 57.022 40.518 56.2262C40.2309 54.6866 39.283 52.7907 38.3532 50.9311L38.2864 50.7975C37.3127 48.8494 36.3636 46.9291 36.0225 45.3012C35.8533 44.4934 35.8456 43.8074 36.0247 43.2506C36.1978 42.7124 36.5586 42.2516 37.2237 41.9006C37.8887 41.5496 38.4728 41.5117 39.0147 41.6725C39.5755 41.8388 40.1376 42.2323 40.7089 42.8278C41.8605 44.028 42.9103 45.8951 43.9692 47.7983L44.0418 47.9288C45.0524 49.7457 46.0828 51.5982 47.1918 52.7039C47.7651 53.2755 48.4173 53.7085 49.1579 53.7869C49.9203 53.8677 50.66 53.5621 51.3711 52.903C52.0963 52.2309 52.4799 51.4439 52.5704 50.5881C52.6596 49.7452 52.4611 48.8727 52.0921 48.0165C51.3579 46.3128 49.8946 44.5514 48.3145 42.9807C47.4857 42.1569 46.6141 41.3751 45.7789 40.6699C46.7762 41.1175 47.8582 41.5649 48.9596 41.9554C51.0594 42.7 53.2807 43.2567 55.1343 43.1811C56.0659 43.1432 56.9383 42.9445 57.6595 42.4992C58.3918 42.0471 58.9353 41.3607 59.2273 40.4161C59.5136 39.4898 59.4689 38.6907 59.0661 38.0383C58.6748 37.4046 58.0022 37.0041 57.2388 36.7347C55.762 36.2136 53.646 36.0865 51.5707 35.962L51.4216 35.953C49.2476 35.8222 47.1101 35.684 45.5297 35.1654C44.7456 34.9081 44.1476 34.5717 43.7549 34.1382C43.3753 33.7193 43.1567 33.1764 43.1853 32.4249C43.2138 31.6734 43.473 31.1487 43.8833 30.7597C44.3077 30.3573 44.9295 30.0672 45.7309 29.8702C47.3461 29.473 49.488 29.4974 51.6656 29.532L51.8149 29.5344C53.8938 29.5676 56.0132 29.6015 57.5253 29.1939C58.307 28.9832 59.008 28.6349 59.4462 28.0328C59.8974 27.4129 60.0026 26.6194 59.7874 25.6741C59.5679 24.71 59.0781 23.9843 58.3823 23.478C57.6969 22.9793 56.8421 22.715 55.9161 22.6064C54.0735 22.3904 51.8164 22.777 49.6662 23.36C48.5383 23.6658 47.4254 24.0298 46.397 24.4005Z" fill="#FBF8EF" stroke="#111111"/>
<path d="M46.2878 31.9911C47.0494 31.8743 47.8423 31.7308 48.6276 31.5545C50.468 31.1413 52.3198 30.5371 53.6246 29.64C54.2809 29.1888 54.8268 28.6446 55.1502 27.9856C55.4793 27.3149 55.5604 26.5598 55.3394 25.7352C55.1185 24.9105 54.6706 24.2971 54.0503 23.8809C53.4408 23.4718 52.6959 23.2735 51.902 23.2109C50.3233 23.0864 48.4175 23.489 46.6172 24.0514C45.8489 24.2913 45.0905 24.5635 44.3725 24.8431C44.9737 24.3612 45.5886 23.8405 46.1805 23.2951C47.5678 22.0172 48.8694 20.568 49.5509 19.1386C49.8936 18.4197 50.0943 17.6755 50.0448 16.9431C49.9945 16.1977 49.6872 15.5032 49.0835 14.8995C48.4798 14.2958 47.7853 13.9886 47.0399 13.9382C46.3075 13.8888 45.5633 14.0894 44.8444 14.4322C43.415 15.1137 41.9659 16.4153 40.6879 17.8025C40.1426 18.3944 39.6218 19.0093 39.1399 19.6105C39.4196 18.8925 39.6917 18.1341 39.9316 17.3659C40.494 15.5655 40.8967 13.6597 40.7722 12.0811C40.7096 11.2871 40.5112 10.5423 40.1022 9.93271C39.6859 9.31238 39.0725 8.86454 38.2479 8.64358C37.4232 8.42262 36.6681 8.50377 35.9974 8.83285C35.3384 9.15621 34.7943 9.70208 34.343 10.3584C33.4459 11.6632 32.8417 13.5151 32.4285 15.3554C32.2522 16.1407 32.1087 16.9336 31.9919 17.6952C31.8752 16.9336 31.7316 16.1407 31.5553 15.3554C31.1422 13.5151 30.5379 11.6632 29.6408 10.3584C29.1896 9.70208 28.6454 9.15621 27.9864 8.83285C27.3157 8.50377 26.5606 8.42262 25.736 8.64358C24.9113 8.86454 24.298 9.31238 23.8817 9.93271C23.4726 10.5423 23.2743 11.2871 23.2117 12.0811C23.0872 13.6597 23.4898 15.5655 24.0522 17.3659C24.2922 18.1341 24.5643 18.8925 24.844 19.6105C24.362 19.0093 23.8413 18.3944 23.296 17.8025C22.018 16.4153 20.5688 15.1137 19.1395 14.4322C18.4205 14.0894 17.6763 13.8888 16.9439 13.9382C16.1986 13.9886 15.504 14.2958 14.9004 14.8995C14.2967 15.5032 13.9894 16.1977 13.9391 16.9431C13.8896 17.6755 14.0902 18.4197 14.433 19.1386C15.1145 20.568 16.4161 22.0172 17.8033 23.2951C18.3952 23.8405 19.0101 24.3612 19.6113 24.8431C18.8933 24.5635 18.1349 24.2913 17.3667 24.0514C15.5663 23.489 13.6605 23.0864 12.0819 23.2109C11.2879 23.2735 10.5431 23.4718 9.93353 23.8809C9.3132 24.2971 8.86536 24.9105 8.6444 25.7352C8.42344 26.5598 8.50459 27.3149 8.83367 27.9856C9.15704 28.6446 9.7029 29.1888 10.3592 29.64C11.6641 30.5371 13.5159 31.1413 15.3562 31.5545C16.1415 31.7308 16.9344 31.8743 17.696 31.9911C16.9344 32.1079 16.1415 32.2514 15.3562 32.4277C13.5159 32.8409 11.6641 33.4451 10.3592 34.3422C9.7029 34.7934 9.15704 35.3376 8.83367 35.9966C8.50459 36.6673 8.42344 37.4224 8.6444 38.2471C8.86536 39.0717 9.3132 39.6851 9.93353 40.1013C10.5431 40.5104 11.2879 40.7087 12.0819 40.7713C13.6605 40.8958 15.5663 40.4932 17.3667 39.9308C18.1349 39.6909 18.8933 39.4187 19.6113 39.1391C19.0101 39.621 18.3952 40.1417 17.8033 40.6871C16.4161 41.965 15.1145 43.4142 14.433 44.8436C14.0902 45.5625 13.8896 46.3067 13.9391 47.0391C13.9894 47.7845 14.2967 48.479 14.9004 49.0827C15.504 49.6864 16.1986 49.9936 16.9439 50.044C17.6763 50.0934 18.4205 49.8928 19.1395 49.55C20.5688 48.8685 22.018 47.5669 23.296 46.1797C23.8413 45.5878 24.362 44.9729 24.844 44.3717C24.5643 45.0897 24.2922 45.8481 24.0522 46.6163C23.4898 48.4167 23.0872 50.3225 23.2117 51.9011C23.2743 52.6951 23.4726 53.4399 23.8817 54.0495C24.298 54.6698 24.9113 55.1177 25.736 55.3386C26.5606 55.5596 27.3157 55.4784 27.9864 55.1494C28.6454 54.826 29.1896 54.2801 29.6408 53.6238C30.5379 52.319 31.1421 50.4671 31.5553 48.6268C31.7316 47.8415 31.8752 47.0486 31.9919 46.287C32.1087 47.0486 32.2522 47.8415 32.4285 48.6268C32.8417 50.4671 33.4459 52.319 34.343 53.6238C34.7943 54.2801 35.3384 54.826 35.9975 55.1494C36.6681 55.4784 37.4232 55.5596 38.2479 55.3386C39.0725 55.1177 39.6859 54.6698 40.1022 54.0495C40.5112 53.4399 40.7096 52.6951 40.7722 51.9011C40.8967 50.3225 40.494 48.4167 39.9316 46.6163C39.6917 45.8481 39.4196 45.0897 39.1399 44.3717C39.6218 44.9729 40.1426 45.5878 40.6879 46.1797C41.9659 47.5669 43.415 48.8685 44.8444 49.55C45.5633 49.8928 46.3075 50.0934 47.0399 50.044C47.7853 49.9936 48.4798 49.6864 49.0835 49.0827C49.6872 48.479 49.9945 47.7845 50.0448 47.0391C50.0943 46.3067 49.8936 45.5625 49.5509 44.8436C48.8694 43.4142 47.5678 41.9651 46.1805 40.6871C45.5886 40.1417 44.9737 39.621 44.3725 39.1391C45.0905 39.4187 45.8489 39.6909 46.6172 39.9308C48.4175 40.4932 50.3234 40.8958 51.902 40.7713C52.6959 40.7087 53.4408 40.5104 54.0503 40.1013C54.6706 39.6851 55.1185 39.0717 55.3394 38.2471C55.5604 37.4224 55.4793 36.6673 55.1502 35.9966C54.8268 35.3376 54.2809 34.7934 53.6246 34.3422C52.3198 33.4451 50.468 32.8409 48.6276 32.4277C47.8423 32.2514 47.0494 32.1079 46.2878 31.9911Z" fill="#6CB9E0" stroke="#111111"/>
<path d="M32 17C35.7417 17 32.5 24.5981 34 25C35.5 25.4019 36.2596 17.1388 39.5 19.0096C42.7404 20.8805 36 26 37 27C38 28 43.1195 21.2596 44.9904 24.5C46.8612 27.7404 38.6198 29.0811 39 30.5C39.3802 31.9189 47 28.2583 47 32C47 35.7417 39.3973 32 39 33.4829C38.6027 34.9658 46.8612 36.2596 44.9904 39.5C43.1195 42.7404 38.0509 35.9491 37 37C35.9491 38.0509 42.7404 43.1195 39.5 44.9904C36.2596 46.8612 35.4176 38.6592 34 39C32.5824 39.3409 35.7417 47 32 47C28.2583 47 31.417 39.3797 30 39C28.583 38.6203 27.7404 46.8612 24.5 44.9904C21.2596 43.1195 28 38 27 37C26 36 20.8805 42.7404 19.0096 39.5C17.1388 36.2596 25.3758 34.8855 25 33.4829C24.6242 32.0803 17 35.7417 17 32C17 28.2583 24.6325 31.8715 25 30.5C25.3675 29.1285 17.1388 27.7404 19.0096 24.5C20.8805 21.2596 26 28 27 27C28 26 21.2596 20.8805 24.5 19.0096C27.7404 17.1388 28.5 25.4019 30 25C31.5 24.5981 28.2583 17 32 17Z" fill="#FBF8EF"/>
<path fill-rule="evenodd" clip-rule="evenodd" d="M34.7133 22.177C34.757 21.7806 34.8037 21.3535 34.8375 20.9286C34.9152 19.952 34.9454 18.8032 34.6263 17.8699C34.4591 17.3811 34.1777 16.8939 33.7066 16.5333C33.228 16.1668 32.6438 16 32 16C31.3562 16 30.772 16.1668 30.2934 16.5333C29.8223 16.8939 29.5409 17.3811 29.3737 17.8699C29.0546 18.8032 29.0848 19.952 29.1625 20.9286C29.1963 21.3535 29.243 21.7806 29.2867 22.177C29.1412 21.8168 28.9844 21.4302 28.8182 21.0519C28.4272 20.1615 27.9122 19.1377 27.1918 18.4763C26.8132 18.1286 26.3317 17.8372 25.742 17.7558C25.1439 17.6732 24.5552 17.823 24 18.1436C23.4374 18.4684 23.0145 18.9126 22.789 19.4793C22.5679 20.0346 22.5779 20.6035 22.6859 21.1139C22.8928 22.0914 23.5125 23.0846 24.0925 23.9075C24.2557 24.1391 24.4239 24.368 24.5894 24.5894C24.368 24.4239 24.1391 24.2557 23.9075 24.0925C23.0846 23.5125 22.0914 22.8928 21.1139 22.6859C20.6035 22.5779 20.0346 22.5679 19.4793 22.789C18.9126 23.0145 18.4684 23.4374 18.1436 24C17.818 24.5639 17.6756 25.1586 17.7532 25.7598C17.8291 26.3488 18.1034 26.8454 18.4377 27.2493C19.0802 28.0256 20.0847 28.623 20.98 29.0882C21.2482 29.2276 21.5197 29.3614 21.7838 29.4889C21.5258 29.4469 21.2608 29.406 20.9962 29.3702C20.018 29.238 18.8636 29.1462 17.9202 29.4194C17.4247 29.5629 16.9218 29.8249 16.5476 30.2931C16.1674 30.7687 16 31.3567 16 32C16 32.6428 16.1671 33.2311 16.5484 33.7063C16.9239 34.1742 17.4281 34.434 17.9237 34.5749C18.8669 34.843 20.0207 34.7452 20.9972 34.609C21.292 34.5679 21.5873 34.5205 21.873 34.4724C21.5821 34.6125 21.2805 34.7604 20.9832 34.9149C20.0881 35.3798 19.0829 35.9763 18.4397 36.7514C18.1049 37.1548 17.83 37.651 17.7536 38.24C17.6756 38.8413 17.818 39.4361 18.1436 40C18.4684 40.5626 18.9126 40.9855 19.4793 41.211C20.0346 41.4321 20.6035 41.4221 21.1139 41.3141C22.0914 41.1072 23.0846 40.4875 23.9075 39.9075C24.1391 39.7443 24.368 39.5761 24.5894 39.4105C24.4239 39.632 24.2557 39.8609 24.0925 40.0925C23.5125 40.9154 22.8928 41.9086 22.6859 42.8861C22.5779 43.3965 22.5679 43.9654 22.789 44.5207C23.0145 45.0874 23.4374 45.5316 24 45.8564C24.556 46.1774 25.145 46.3266 25.7429 46.2455C26.3323 46.1656 26.8158 45.8775 27.1979 45.5319C27.9259 44.8735 28.4498 43.853 28.8472 42.9615C28.9788 42.6662 29.104 42.3667 29.2225 42.0779C29.1887 42.3989 29.1558 42.7339 29.131 43.0684C29.0582 44.0492 29.0373 45.1995 29.3644 46.1338C29.5355 46.6226 29.8203 47.108 30.2919 47.4673C30.7712 47.8325 31.3553 48 32 48C32.6458 48 33.2305 47.8312 33.7099 47.4643C34.1811 47.1036 34.4653 46.6167 34.636 46.1271C34.9624 45.1905 34.9416 44.0373 34.8688 43.054C34.8451 42.7334 34.8139 42.4125 34.7817 42.104C34.8991 42.3896 35.0232 42.6854 35.1534 42.9769C35.5509 43.8664 36.0752 44.8839 36.8044 45.5394C37.1872 45.8836 37.6711 46.1693 38.26 46.2475C38.8569 46.3267 39.4448 46.1769 40 45.8564C40.5619 45.532 40.9853 45.0883 41.2097 44.5209C41.4297 43.9647 41.4166 43.3959 41.3057 42.8873C41.0934 41.914 40.4678 40.9259 39.8859 40.108C39.6793 39.8177 39.4648 39.531 39.2582 39.2582C39.531 39.4648 39.8177 39.6793 40.108 39.8859C40.9259 40.4678 41.914 41.0934 42.8873 41.3057C43.3959 41.4166 43.9647 41.4297 44.5209 41.2097C45.0883 40.9853 45.532 40.5619 45.8564 40C46.1816 39.4368 46.3246 38.8423 46.2452 38.241C46.1674 37.6519 45.8896 37.1576 45.553 36.7575C44.9068 35.9896 43.8984 35.4014 43.0043 34.9427C42.6275 34.7493 42.2431 34.5657 41.8835 34.3949C42.2438 34.4578 42.6257 34.5232 43.0057 34.5782C43.9781 34.719 45.1303 34.8257 46.0721 34.5656C46.5676 34.4287 47.0738 34.1725 47.4509 33.705C47.8337 33.2304 48 32.6419 48 32C48 31.3573 47.8331 30.7691 47.452 30.2939C47.0768 29.826 46.5728 29.566 46.0774 29.4249C45.1347 29.1564 43.9813 29.2534 43.0056 29.3884C42.693 29.4316 42.3798 29.4819 42.0781 29.5325C42.3827 29.3871 42.7 29.233 43.0126 29.0718C43.9073 28.6103 44.9137 28.0178 45.558 27.2457C45.8934 26.8437 46.1694 26.3483 46.2461 25.7592C46.3245 25.158 46.1818 24.5635 45.8564 24C45.5316 23.4374 45.0874 23.0145 44.5207 22.789C43.9654 22.5679 43.3965 22.5779 42.8861 22.6859C41.9086 22.8928 40.9154 23.5125 40.0925 24.0925C39.8609 24.2557 39.632 24.4239 39.4106 24.5894C39.5761 24.368 39.7443 24.1391 39.9075 23.9075C40.4875 23.0846 41.1072 22.0914 41.3141 21.1139C41.4221 20.6035 41.4321 20.0346 41.211 19.4793C40.9855 18.9126 40.5626 18.4684 40 18.1436C39.4448 17.823 38.8561 17.6732 38.258 17.7558C37.6683 17.8372 37.1868 18.1286 36.8082 18.4763C36.0878 19.1377 35.5728 20.1615 35.1818 21.0519C35.0156 21.4302 34.8588 21.8168 34.7133 22.177ZM33.7145 22.1107C33.9675 19.8166 34.2781 17 32 17C29.7219 17 30.0325 19.8166 30.2855 22.1107C30.448 23.5846 30.5867 24.8428 30 25C29.4119 25.1576 28.9376 23.9831 28.3829 22.6096C27.5229 20.4801 26.4699 17.8723 24.5 19.0096C22.4927 20.1685 24.3154 22.5741 25.7555 24.4748C26.6402 25.6424 27.3805 26.6195 27 27C26.6195 27.3805 25.6424 26.6402 24.4748 25.7555C22.5741 24.3154 20.1685 22.4927 19.0096 24.5C17.8489 26.5104 20.5756 27.8078 22.7251 28.8306C24.0403 29.4564 25.1395 29.9794 25 30.5C24.8595 31.0244 23.6569 30.8201 22.2249 30.5767C19.9117 30.1837 17 29.689 17 32C17 34.3008 19.8828 33.8024 22.1904 33.4035C23.6356 33.1536 24.8553 32.9428 25 33.4829C25.1436 34.019 24.0291 34.5509 22.7017 35.1844C20.5559 36.2085 17.8538 37.4981 19.0096 39.5C20.1685 41.5073 22.5741 39.6846 24.4748 38.2445C25.6424 37.3598 26.6195 36.6195 27 37C27.3805 37.3805 26.6402 38.3576 25.7555 39.5252C24.3154 41.4259 22.4927 43.8315 24.5 44.9904C26.492 46.1405 27.5779 43.4692 28.4481 41.3285C28.9935 39.9869 29.4541 38.8537 30 39C30.5446 39.1459 30.4133 40.3613 30.2577 41.8026C30.0083 44.1114 29.6963 47 32 47C34.3048 47 33.9912 44.0939 33.7417 41.7823C33.5862 40.3411 33.4556 39.1309 34 39C34.5445 38.8691 35.004 39.9985 35.5472 41.3333C36.4182 43.4738 37.5042 46.1426 39.5 44.9904C41.4881 43.8425 39.7 41.4909 38.2637 39.602C37.359 38.4123 36.5939 37.4061 37 37C37.4061 36.5939 38.4123 37.359 39.602 38.2637C41.4909 39.7 43.8425 41.4881 44.9904 39.5C46.1337 37.5197 43.4938 36.2664 41.3585 35.2526C39.9999 34.6076 38.8455 34.0595 39 33.4829C39.1557 32.9019 40.4173 33.1229 41.8944 33.3816C44.1875 33.7832 47 34.2758 47 32C47 29.7042 44.1313 30.1952 41.8264 30.5897C40.3748 30.8381 39.1469 31.0483 39 30.5C38.8541 29.9556 39.9772 29.4228 41.3114 28.7898C43.455 27.7728 46.1435 26.4972 44.9904 24.5C43.8315 22.4927 41.4259 24.3154 39.5252 25.7555C38.3576 26.6402 37.3805 27.3805 37 27C36.6195 26.6195 37.3598 25.6424 38.2445 24.4748C39.6846 22.5741 41.5073 20.1685 39.5 19.0096C37.5301 17.8723 36.4771 20.4801 35.6171 22.6096C35.0624 23.9831 34.5881 25.1576 34 25C33.4133 24.8428 33.552 23.5846 33.7145 22.1107Z" fill="#111111"/>
<path d="M32.4693 28.456C32.4562 28.4079 32.4425 28.3597 32.4283 28.3116C32.3062 27.8988 32.1284 27.4421 31.8627 27.1029C31.727 26.9298 31.551 26.7646 31.3247 26.663C31.0885 26.5569 30.8266 26.5337 30.5578 26.6057C30.2891 26.6777 30.0739 26.8288 29.9223 27.0387C29.7772 27.2399 29.7074 27.471 29.6765 27.6887C29.6159 28.1153 29.6903 28.5998 29.7909 29.0182C29.8027 29.067 29.8149 29.1156 29.8276 29.1638C29.7844 29.139 29.7406 29.1146 29.6965 29.0907C29.3184 28.8851 28.8697 28.6879 28.442 28.636C28.2236 28.6095 27.9823 28.6171 27.7505 28.7053C27.5085 28.7973 27.3069 28.9661 27.1677 29.207C27.0286 29.448 26.9832 29.707 27.0246 29.9626C27.0641 30.2074 27.1782 30.4203 27.3103 30.5961C27.5691 30.9405 27.9643 31.2305 28.3314 31.4552C28.3742 31.4814 28.4172 31.5071 28.4602 31.5322C28.4121 31.5453 28.3639 31.559 28.3158 31.5732C27.9031 31.6952 27.4463 31.8731 27.1072 32.1388C26.9341 32.2744 26.7688 32.4505 26.6672 32.6767C26.5612 32.9129 26.538 33.1749 26.61 33.4436C26.682 33.7124 26.833 33.9276 27.043 34.0791C27.2441 34.2243 27.4752 34.2941 27.693 34.325C28.1195 34.3856 28.604 34.3112 29.0225 34.2105C29.0713 34.1988 29.1199 34.1865 29.168 34.1738C29.1433 34.2171 29.1189 34.2608 29.0949 34.3049C28.8894 34.6831 28.6922 35.1318 28.6402 35.5595C28.6137 35.7778 28.6214 36.0192 28.7095 36.251C28.8015 36.493 28.9703 36.6946 29.2113 36.8337C29.4523 36.9728 29.7113 37.0182 29.9669 36.9769C30.2117 36.9373 30.4245 36.8233 30.6003 36.6912C30.9448 36.4324 31.2348 36.0372 31.4595 35.6701C31.4857 35.6273 31.5114 35.5843 31.5365 35.5412C31.5496 35.5893 31.5632 35.6375 31.5775 35.6856C31.6995 36.0984 31.8774 36.5551 32.1431 36.8943C32.2787 37.0674 32.4548 37.2326 32.681 37.3342C32.9172 37.4403 33.1791 37.4635 33.4479 37.3915C33.7166 37.3195 33.9319 37.1684 34.0834 36.9585C34.2285 36.7574 34.2984 36.5262 34.3293 36.3085C34.3898 35.8819 34.3155 35.3974 34.2148 34.979C34.2031 34.9302 34.1908 34.8816 34.1781 34.8334C34.2214 34.8582 34.2651 34.8826 34.3092 34.9065C34.6873 35.1121 35.1361 35.3093 35.5638 35.3612C35.7821 35.3877 36.0234 35.3801 36.2552 35.292C36.4973 35.1999 36.6989 35.0311 36.838 34.7902C36.9771 34.5492 37.0225 34.2902 36.9812 34.0346C36.9416 33.7898 36.8275 33.5769 36.6954 33.4011C36.4366 33.0567 36.0415 32.7667 35.6744 32.542C35.6316 32.5158 35.5886 32.4901 35.5455 32.465C35.5936 32.4519 35.6418 32.4382 35.6899 32.424C36.1027 32.302 36.5594 32.1241 36.8985 31.8584C37.0717 31.7228 37.2369 31.5467 37.3385 31.3205C37.4446 31.0843 37.4678 30.8223 37.3957 30.5536C37.3237 30.2848 37.1727 30.0696 36.9627 29.9181C36.7616 29.7729 36.5305 29.7031 36.3127 29.6722C35.8862 29.6117 35.4017 29.686 34.9832 29.7867C34.9344 29.7984 34.8859 29.8107 34.8377 29.8234C34.8624 29.7801 34.8868 29.7364 34.9108 29.6923C35.1164 29.3141 35.3136 28.8654 35.3655 28.4377C35.392 28.2194 35.3843 27.978 35.2962 27.7462C35.2042 27.5042 35.0354 27.3026 34.7944 27.1635C34.5535 27.0244 34.2945 26.979 34.0389 27.0203C33.794 27.0599 33.5812 27.1739 33.4054 27.306C33.061 27.5649 32.7709 27.96 32.5462 28.3271C32.52 28.3699 32.4944 28.4129 32.4693 28.456Z" fill="#6CB9E0" stroke="#111111"/>
<rect x="30.5" y="30.5" width="3" height="3" rx="1.5" fill="#FBF8EF" stroke="#111111"/>
</g>
<defs>
<clipPath id="clip0_400_2853">
<rect width="64" height="64" fill="white"/>
</clipPath>
</defs>
</svg>
