<svg width="64" height="64" viewBox="0 0 64 64" fill="none" xmlns="http://www.w3.org/2000/svg">
<g clip-path="url(#clip0_400_1655)">
<rect width="64" height="64" fill="#FBF8EF"/>
<rect y="64" width="64" height="64" rx="32" transform="rotate(-90 0 64)" fill="#7ECEA6"/>
<path d="M28.8503 32.0025C28.5189 32.0604 28.1667 32.1232 27.7965 32.1909C25.336 32.6409 22.0774 33.3067 18.8959 34.1691C15.724 35.0288 12.5901 36.0939 10.4018 37.3537C9.31098 37.9816 8.40917 38.6834 7.86718 39.4714C7.3079 40.2845 7.12862 41.2012 7.52711 42.161C7.92559 43.1208 8.70144 43.641 9.67213 43.8189C10.6128 43.9913 11.7465 43.848 12.9613 43.5187C15.3984 42.8581 18.3652 41.3905 21.2133 39.7509C24.0701 38.1063 26.8421 36.2684 28.8977 34.8434C29.207 34.629 29.5002 34.4239 29.7751 34.2301C29.5817 34.5054 29.3771 34.7989 29.1632 35.1085C27.7416 37.1665 25.9082 39.9415 24.2683 42.8009C22.6334 45.6517 21.1705 48.6208 20.5139 51.059C20.1866 52.2744 20.0452 53.4083 20.2191 54.3487C20.3986 55.3191 20.92 56.0941 21.8805 56.491C22.841 56.8879 23.7574 56.7071 24.5696 56.1465C25.3566 55.6033 26.057 54.7003 26.6831 53.6085C27.9393 51.4181 28.9993 48.2825 29.8539 45.1092C30.711 41.9263 31.3715 38.6666 31.8175 36.2054C31.8846 35.8351 31.9468 35.4827 32.0042 35.1513C32.0621 35.4827 32.125 35.8349 32.1927 36.2051C32.6426 38.6655 33.3084 41.9242 34.1708 45.1057C35.0305 48.2775 36.0956 51.4114 37.3554 53.5998C37.9833 54.6906 38.6852 55.5924 39.4731 56.1344C40.2862 56.6937 41.2029 56.8729 42.1627 56.4745C43.1225 56.076 43.6427 55.3001 43.8206 54.3294C43.993 53.3887 43.8497 52.255 43.5204 51.0402C42.8599 48.6031 41.3922 45.6364 39.7526 42.7883C38.108 39.9315 36.2701 37.1595 34.8451 35.1039C34.6307 34.7946 34.4256 34.5014 34.2318 34.2265C34.5071 34.4198 34.8006 34.6245 35.1102 34.8384C37.1682 36.26 39.9432 38.0934 42.8026 39.7333C45.6534 41.3682 48.6225 42.831 51.0607 43.4877C52.2761 43.8149 53.41 43.9564 54.3504 43.7824C55.3208 43.603 56.0958 43.0815 56.4927 42.1211C56.8896 41.1606 56.7089 40.2442 56.1483 39.432C55.605 38.6449 54.702 37.9446 53.6102 37.3184C51.4198 36.0623 48.2842 35.0023 45.1109 34.1477C41.928 33.2905 38.6683 32.63 36.2071 32.1841C35.8368 32.117 35.4845 32.0547 35.153 31.9974C35.4844 31.9394 35.8366 31.8766 36.2068 31.8089C38.6672 31.359 41.9259 30.6931 45.1074 29.8308C48.2793 28.971 51.4131 27.9059 53.6015 26.6462C54.6923 26.0182 55.5941 25.3164 56.1361 24.5285C56.6954 23.7154 56.8746 22.7987 56.4762 21.8388C56.0777 20.879 55.3018 20.3588 54.3311 20.181C53.3905 20.0086 52.2568 20.1518 51.0419 20.4811C48.6048 21.1417 45.6381 22.6094 42.79 24.249C39.9332 25.8935 37.1612 27.7315 35.1056 29.1564C34.7963 29.3708 34.5031 29.576 34.2282 29.7698C34.4215 29.4945 34.6262 29.201 34.8401 28.8914C36.2617 26.8334 38.0951 24.0584 39.735 21.1989C41.3699 18.3482 42.8328 15.379 43.4894 12.9409C43.8167 11.7255 43.9581 10.5916 43.7842 9.65116C43.6047 8.68077 43.0832 7.90577 42.1228 7.50885C41.1623 7.11194 40.2459 7.29271 39.4337 7.85331C38.6467 8.39658 37.9463 9.29954 37.3201 10.3914C36.064 12.5818 35.004 15.7174 34.1494 18.8907C33.2922 22.0736 32.6317 25.3333 32.1858 27.7945C32.1187 28.1648 32.0564 28.5171 31.9991 28.8486C31.9412 28.5172 31.8783 28.165 31.8106 27.7948C31.3607 25.3343 30.6949 22.0757 29.8325 18.8942C28.9727 15.7223 27.9076 12.5884 26.6479 10.4001C26.0199 9.30927 25.3181 8.40746 24.5302 7.86547C23.7171 7.30619 22.8004 7.12692 21.8406 7.5254C20.8807 7.92388 20.3606 8.69973 20.1827 9.67042C20.0103 10.6111 20.1536 11.7448 20.4828 12.9596C21.1434 15.3967 22.6111 18.3635 24.2507 21.2116C25.8952 24.0683 27.7332 26.8404 29.1581 28.896C29.3725 29.2053 29.5777 29.4985 29.7715 29.7734C29.4962 29.58 29.2027 29.3754 28.8931 29.1615C26.8351 27.7399 24.0601 25.9065 21.2007 24.2666C18.3499 22.6317 15.3807 21.1688 12.9426 20.5122C11.7272 20.1849 10.5933 20.0435 9.65287 20.2174C8.68248 20.3969 7.90748 20.9183 7.51056 21.8788C7.11365 22.8392 7.29442 23.7557 7.85502 24.5678C8.39829 25.3549 9.30125 26.0553 10.3931 26.6814C12.5835 27.9376 15.7191 28.9976 18.8924 29.8522C22.0753 30.7093 25.335 31.3698 27.7962 31.8158C28.1665 31.8829 28.5188 31.9451 28.8503 32.0025Z" fill="#7ECEA6" stroke="#111111"/>
<path d="M29.0885 33.206C28.8044 33.3861 28.5029 33.5787 28.1866 33.7826C26.0845 35.1382 23.3272 36.9981 20.7163 39.0102C18.1132 41.0162 15.6237 43.1975 14.0824 45.1975C13.3141 46.1945 12.7487 47.1875 12.5487 48.1227C12.3424 49.0878 12.5268 50.0035 13.2617 50.7383C13.9965 51.4732 14.9123 51.6576 15.8773 51.4513C16.8125 51.2513 17.8056 50.6859 18.8025 49.9176C20.8026 48.3763 22.9838 45.8868 24.9898 43.2838C27.0019 40.6728 28.8619 37.9155 30.2174 35.8134C30.4214 35.4972 30.614 35.1956 30.794 34.9115C30.7205 35.2397 30.6434 35.5891 30.564 35.957C30.0362 38.4019 29.4016 41.6668 28.9781 44.9358C28.556 48.1949 28.338 51.4976 28.6624 54.0017C28.8241 55.25 29.1265 56.3519 29.6464 57.1546C30.1829 57.9829 30.9608 58.5 32 58.5C33.0393 58.5 33.8172 57.9829 34.3537 57.1546C34.8736 56.3519 35.176 55.2499 35.3377 54.0017C35.662 51.4976 35.4441 48.1949 35.0219 44.9358C34.5984 41.6668 33.9639 38.4019 33.436 35.957C33.3566 35.5891 33.2796 35.2397 33.206 34.9115C33.3861 35.1956 33.5787 35.4972 33.7826 35.8134C35.1382 37.9155 36.9981 40.6728 39.0102 43.2838C41.0162 45.8868 43.1975 48.3763 45.1975 49.9176C46.1945 50.6859 47.1875 51.2513 48.1228 51.4513C49.0878 51.6576 50.0035 51.4732 50.7384 50.7383C51.4732 50.0035 51.6577 49.0878 51.4513 48.1227C51.2513 47.1875 50.6859 46.1945 49.9177 45.1975C48.3764 43.1975 45.8868 41.0162 43.2838 39.0102C40.6728 36.9981 37.9155 35.1382 35.8134 33.7826C35.4972 33.5787 35.1956 33.386 34.9115 33.206C35.2397 33.2795 35.5892 33.3566 35.957 33.436C38.4019 33.9639 41.6668 34.5984 44.9358 35.0219C48.1949 35.4441 51.4976 35.662 54.0018 35.3376C55.25 35.1759 56.352 34.8735 57.1547 34.3536C57.9829 33.8172 58.5 33.0392 58.5 32C58.5 30.9608 57.9829 30.1828 57.1547 29.6464C56.352 29.1265 55.25 28.8241 54.0018 28.6624C51.4976 28.338 48.1949 28.5559 44.9358 28.9781C41.6668 29.4016 38.4019 30.0361 35.957 30.564C35.5892 30.6434 35.2397 30.7205 34.9115 30.794C35.1956 30.614 35.4972 30.4213 35.8134 30.2174C37.9155 28.8618 40.6728 27.0019 43.2838 24.9898C45.8868 22.9838 48.3764 20.8025 49.9177 18.8025C50.6859 17.8055 51.2513 16.8125 51.4513 15.8773C51.6577 14.9122 51.4732 13.9965 50.7384 13.2617C50.0035 12.5268 49.0878 12.3424 48.1228 12.5487C47.1875 12.7487 46.1945 13.3141 45.1975 14.0824C43.1975 15.6237 41.0162 18.1132 39.0102 20.7162C36.9981 23.3272 35.1382 26.0845 33.7826 28.1866C33.5787 28.5028 33.3861 28.8044 33.206 29.0885C33.2796 28.7603 33.3566 28.4109 33.436 28.043C33.9639 25.5981 34.5984 22.3332 35.0219 19.0642C35.4441 15.8051 35.662 12.5024 35.3377 9.99827C35.176 8.75005 34.8736 7.64806 34.3537 6.84537C33.8172 6.01708 33.0393 5.5 32 5.5C30.9608 5.5 30.1829 6.01708 29.6464 6.84537C29.1265 7.64806 28.8241 8.75005 28.6624 9.99827C28.338 12.5024 28.556 15.8051 28.9781 19.0642C29.4016 22.3332 30.0362 25.5981 30.564 28.043C30.6434 28.4109 30.7205 28.7603 30.794 29.0885C30.614 28.8044 30.4214 28.5028 30.2174 28.1866C28.8619 26.0845 27.0019 23.3272 24.9898 20.7162C22.9838 18.1132 20.8026 15.6237 18.8025 14.0824C17.8056 13.3141 16.8125 12.7487 15.8773 12.5487C14.9123 12.3424 13.9965 12.5268 13.2617 13.2617C12.5268 13.9965 12.3424 14.9122 12.5487 15.8773C12.7487 16.8125 13.3141 17.8055 14.0824 18.8025C15.6237 20.8025 18.1132 22.9838 20.7163 24.9898C23.3272 27.0019 26.0845 28.8618 28.1866 30.2174C28.5029 30.4213 28.8044 30.6139 29.0885 30.794C28.7603 30.7205 28.4109 30.6434 28.043 30.564C25.5981 30.0361 22.3333 29.4016 19.0643 28.9781C15.8052 28.5559 12.5024 28.338 9.99829 28.6624C8.75007 28.8241 7.64809 29.1265 6.8454 29.6464C6.01711 30.1828 5.50002 30.9608 5.50002 32C5.50002 33.0392 6.01711 33.8172 6.8454 34.3536C7.64809 34.8735 8.75007 35.1759 9.99829 35.3376C12.5024 35.662 15.8052 35.4441 19.0643 35.0219C22.3333 34.5984 25.5981 33.9639 28.043 33.436C28.4109 33.3566 28.7603 33.2795 29.0885 33.206Z" fill="#7ECEA6" stroke="#111111"/>
<path d="M29.7175 29.6804C29.7506 29.7281 29.7835 29.7754 29.8161 29.8221C29.7692 29.7897 29.7219 29.757 29.674 29.724C28.0885 28.6309 25.9497 27.2207 23.7451 25.9591C21.5491 24.7025 19.2535 23.5731 17.3626 23.0658C16.4208 22.8131 15.5289 22.7003 14.7808 22.8394C14.0028 22.9841 13.3705 23.4072 13.0485 24.1884C12.7265 24.9696 12.877 25.7154 13.3272 26.3663C13.76 26.9921 14.4724 27.5405 15.3187 28.0248C17.018 28.9972 19.4427 29.8133 21.8863 30.469C24.3396 31.1272 26.851 31.6335 28.7462 31.9751C28.8034 31.9854 28.8601 31.9956 28.9162 32.0056C28.8601 32.0158 28.8035 32.0261 28.7464 32.0366C26.8523 32.3849 24.3427 32.9001 21.8917 33.5669C19.4504 34.2311 17.0286 35.0557 15.3328 36.0341C14.4882 36.5214 13.7778 37.0723 13.3471 37.6996C12.8993 38.352 12.7514 39.0984 13.0761 39.8784C13.4008 40.6585 14.0346 41.0794 14.8131 41.2213C15.5617 41.3578 16.4532 41.2419 17.3941 40.9859C19.2832 40.4719 21.5749 39.3345 23.7664 38.0702C25.9665 36.8008 28.1004 35.3831 29.6821 34.2845C29.7298 34.2513 29.777 34.2184 29.8238 34.1859C29.7914 34.2327 29.7586 34.28 29.7257 34.3279C28.6326 35.9134 27.2223 38.0523 25.9608 40.2569C24.7041 42.4528 23.5748 44.7484 23.0675 46.6394C22.8148 47.5811 22.702 48.473 22.8411 49.2211C22.9857 49.9992 23.4089 50.6315 24.1901 50.9534C24.9713 51.2754 25.7171 51.1249 26.368 50.6747C26.9937 50.2419 27.5422 49.5295 28.0265 48.6833C28.9989 46.984 29.815 44.5593 30.4706 42.1156C31.1288 39.6624 31.6352 37.151 31.9768 35.2557C31.9871 35.1985 31.9972 35.1419 32.0072 35.0858C32.0174 35.1418 32.0278 35.1984 32.0383 35.2556C32.3865 37.1496 32.9017 39.6592 33.5685 42.1102C34.2327 44.5515 35.0574 46.9733 36.0358 48.6692C36.523 49.5137 37.074 50.2242 37.7013 50.6548C38.3537 51.1027 39.1001 51.2506 39.8801 50.9258C40.6601 50.6011 41.0811 49.9674 41.223 49.1888C41.3595 48.4402 41.2435 47.5487 40.9876 46.6079C40.4736 44.7187 39.3362 42.4271 38.0718 40.2356C36.8025 38.0354 35.3847 35.9015 34.2861 34.3199C34.253 34.2721 34.2201 34.2249 34.1875 34.1782C34.2344 34.2106 34.2817 34.2433 34.3296 34.2763C35.9151 35.3693 38.0539 36.7796 40.2585 38.0412C42.4545 39.2978 44.7501 40.4271 46.6411 40.9345C47.5828 41.1871 48.4747 41.2999 49.2228 41.1609C50.0008 41.0162 50.6331 40.593 50.9551 39.8118C51.2771 39.0307 51.1266 38.2848 50.6764 37.634C50.2436 37.0082 49.5312 36.4598 48.6849 35.9755C46.9856 35.0031 44.5609 34.1869 42.1173 33.5313C39.664 32.8731 37.1526 32.3668 35.2574 32.0252C35.2002 32.0149 35.1435 32.0047 35.0875 31.9947C35.1435 31.9845 35.2001 31.9741 35.2573 31.9636C37.1513 31.6154 39.6609 31.1002 42.1119 30.4334C44.5532 29.7692 46.975 28.9445 48.6708 27.9662C49.5154 27.4789 50.2259 26.928 50.6565 26.3007C51.1044 25.6482 51.2522 24.9019 50.9275 24.1218C50.6028 23.3418 49.969 22.9208 49.1905 22.7789C48.4419 22.6425 47.5504 22.7584 46.6095 23.0144C44.7204 23.5284 42.4288 24.6658 40.2373 25.9301C38.0371 27.1994 35.9032 28.6172 34.3216 29.7158C34.2738 29.749 34.2266 29.7818 34.1799 29.8144C34.2123 29.7676 34.245 29.7202 34.278 29.6724C35.371 28.0869 36.7813 25.948 38.0428 23.7434C39.2995 21.5475 40.4288 19.2519 40.9361 17.3609C41.1888 16.4192 41.3016 15.5272 41.1625 14.7792C41.0179 14.0011 40.5947 13.3688 39.8135 13.0468C39.0323 12.7249 38.2865 12.8754 37.6357 13.3255C37.0099 13.7584 36.4614 14.4707 35.9772 15.317C35.0047 17.0163 34.1886 19.441 33.533 21.8846C32.8748 24.3379 32.3684 26.8493 32.0269 28.7446C32.0166 28.8018 32.0064 28.8584 31.9964 28.9145C31.9862 28.8585 31.9758 28.8018 31.9653 28.7447C31.6171 26.8506 31.1019 24.341 30.4351 21.8901C29.7709 19.4488 28.9462 17.0269 27.9678 15.3311C27.4806 14.4865 26.9296 13.7761 26.3023 13.3455C25.6499 12.8976 24.9036 12.7497 24.1235 13.0744C23.3435 13.3991 22.9225 14.0329 22.7806 14.8115C22.6442 15.56 22.7601 16.4515 23.0161 17.3924C23.53 19.2816 24.6674 21.5732 25.9318 23.7647C27.2011 25.9648 28.6189 28.0987 29.7175 29.6804Z" fill="#7ECEA6" stroke="#111111"/>
<path d="M51.1919 31.0109C51.8172 31.4069 52.3327 31.7518 52.6943 31.9994C52.3327 32.2471 51.8172 32.5919 51.1919 32.9879C49.9202 33.7932 48.2021 34.8049 46.4034 35.6419C44.5947 36.4834 42.7489 37.1268 41.2107 37.2334C39.6865 37.339 38.5859 36.9204 38.0136 35.7758C37.3414 34.4314 37.0185 33.2065 37.0185 31.9994C37.0185 30.7924 37.3414 29.5675 38.0136 28.223C38.5859 27.0784 39.6865 26.6599 41.2107 26.7655C42.7489 26.8721 44.5947 27.5154 46.4034 28.357C48.2021 29.1939 49.9202 30.2057 51.1919 31.0109Z" fill="#FBF8EF" stroke="#111111"/>
<path d="M26.1182 28.223C26.7904 29.5675 27.1133 30.7924 27.1133 31.9994C27.1133 33.2065 26.7904 34.4314 26.1182 35.7758C25.5459 36.9204 24.4453 37.339 22.9211 37.2334C21.3829 37.1268 19.5371 36.4834 17.7284 35.6419C15.9297 34.805 14.2116 33.7932 12.9399 32.988C12.3146 32.592 11.7991 32.2471 11.4375 31.9995C11.7991 31.7519 12.3146 31.407 12.9399 31.011C14.2116 30.2057 15.9297 29.1939 17.7284 28.357C19.5371 27.5155 21.3829 26.8721 22.9211 26.7655C24.4453 26.6599 25.5459 27.0784 26.1182 28.223Z" fill="#FBF8EF" stroke="#111111"/>
<path d="M31.0735 12.8736C31.4695 12.2482 31.8144 11.7327 32.062 11.3711C32.3097 11.7327 32.6545 12.2482 33.0505 12.8736C33.8557 14.1452 34.8675 15.8633 35.7044 17.6621C36.5459 19.4708 37.1893 21.3165 37.2959 22.8547C37.4015 24.379 36.9829 25.4795 35.8383 26.0518C34.4938 26.724 33.269 27.0469 32.0619 27.0469C30.8549 27.0469 29.63 26.724 28.2855 26.0518C27.1409 25.4795 26.7224 24.379 26.828 22.8547C26.9346 21.3165 27.578 19.4708 28.4195 17.6621C29.2564 15.8633 30.2682 14.1452 31.0735 12.8736Z" fill="#FBF8EF" stroke="#111111"/>
<path d="M28.1852 37.984C28.8733 37.812 29.4248 37.8105 30.008 37.8554C30.1714 37.868 30.3436 37.8851 30.525 37.9031C30.9781 37.9482 31.4888 37.999 32.0639 37.999C32.639 37.999 33.1497 37.9482 33.6028 37.9031C33.7842 37.8851 33.9564 37.868 34.1198 37.8554C34.703 37.8105 35.2545 37.812 35.9426 37.984C36.5819 38.1438 36.9664 38.4583 37.1967 38.867C37.4372 39.2937 37.5392 39.8765 37.4967 40.6094C37.4113 42.0823 36.7558 43.964 35.882 45.8578C35.0143 47.7382 33.9568 49.5776 33.1134 50.9503C32.6923 51.6358 32.3259 52.2029 32.065 52.5982C32.0639 52.5998 32.0628 52.6014 32.0618 52.603C32.0607 52.6015 32.0597 52.5999 32.0586 52.5983C31.7979 52.203 31.4316 51.6359 31.0107 50.9504C30.1677 49.5777 29.1108 47.7383 28.2437 45.8579C27.3704 43.9641 26.7154 42.0825 26.6304 40.6095C26.5881 39.8767 26.6902 39.2938 26.9308 38.8671C27.1613 38.4583 27.5458 38.1439 28.1852 37.984Z" fill="#FBF8EF" stroke="#111111"/>
<path d="M44.8905 17.7765C45.6127 17.6143 46.221 17.4937 46.6518 17.4131C46.5712 17.8439 46.4506 18.4522 46.2884 19.1744C45.9586 20.643 45.4592 22.5733 44.7791 24.437C44.0953 26.311 43.2451 28.071 42.2329 29.2341C41.2298 30.3865 40.1556 30.8687 38.9416 30.4641C37.5156 29.9887 36.4211 29.3509 35.5676 28.4974C34.7141 27.6439 34.0763 26.5495 33.601 25.1234C33.1963 23.9094 33.6785 22.8352 34.8309 21.8321C35.994 20.8198 37.754 19.9697 39.628 19.2858C41.4916 18.6057 43.4219 18.1063 44.8905 17.7765Z" fill="#FBF8EF" stroke="#111111"/>
<path d="M25.1895 33.5344C26.6155 34.0097 27.71 34.6475 28.5635 35.5011C29.417 36.3546 30.0548 37.449 30.5302 38.875C30.9348 40.089 30.4526 41.1632 29.3001 42.1663C28.137 43.1787 26.3769 44.0289 24.5029 44.7128C22.6392 45.3929 20.7088 45.8923 19.2402 46.2221C18.518 46.3843 17.9096 46.505 17.4788 46.5856C17.5594 46.1547 17.6801 45.5464 17.8423 44.8242C18.1721 43.3556 18.6716 41.4253 19.3517 39.5616C20.0356 37.6876 20.8858 35.9275 21.8982 34.7644C22.9013 33.6119 23.9755 33.1297 25.1895 33.5344Z" fill="#FBF8EF" stroke="#111111"/>
<path d="M16.8623 16.7959L16.9406 16.3021L16.2606 16.1942L16.3685 16.8743L16.8623 16.7959ZM16.8623 16.7959C16.9406 16.3021 16.9408 16.3021 16.941 16.3021L16.9418 16.3023L16.9443 16.3027L16.9538 16.3042L16.9898 16.3101C17.0213 16.3153 17.0675 16.323 17.1274 16.3333C17.2472 16.3538 17.4217 16.3846 17.6427 16.4259C18.0846 16.5083 18.7125 16.6326 19.4594 16.8003C20.9512 17.1353 22.9269 17.6457 24.8458 18.346C26.7543 19.0424 28.6533 19.9431 29.9567 21.0775C31.2706 22.2211 32.0622 23.6895 31.4789 25.4393C30.9663 26.9772 30.2576 28.2172 29.2706 29.2041C28.2837 30.1911 27.0436 30.8998 25.5058 31.4124C23.756 31.9957 22.2875 31.2041 21.1439 29.8902C20.0095 28.5869 19.1089 26.6879 18.4124 24.7794C17.7121 22.8605 17.2017 20.8848 16.8667 19.393C16.699 18.6461 16.5747 18.0182 16.4923 17.5763C16.451 17.3554 16.4202 17.1808 16.3997 17.061C16.3894 17.0011 16.3817 16.9549 16.3765 16.9235L16.3706 16.8874L16.3691 16.8779L16.3686 16.8754L16.3685 16.8746C16.3685 16.8744 16.3685 16.8743 16.8623 16.7959Z" fill="#FBF8EF" stroke="#111111"/>
<path d="M47.2645 47.2018L47.1861 47.6956L47.8662 47.8035L47.7583 47.1234L47.2645 47.2018ZM47.2645 47.2018C47.7583 47.1234 47.7583 47.1232 47.7582 47.123L47.7581 47.1223L47.7577 47.1197L47.7562 47.1102L47.7503 47.0742C47.7451 47.0427 47.7374 46.9965 47.7271 46.9366C47.7065 46.8169 47.6758 46.6423 47.6345 46.4213C47.5521 45.9795 47.4278 45.3515 47.2601 44.6046C46.9251 43.1128 46.4148 41.1371 45.7145 39.2182C45.0181 37.3097 44.1175 35.4107 42.9831 34.1073C41.8395 32.7934 40.3711 32.0018 38.6213 32.5851C37.0835 33.0977 35.8434 33.8064 34.8565 34.7934C33.8695 35.7803 33.1608 37.0203 32.6482 38.5582C32.0649 40.308 32.8565 41.7764 34.1704 42.9201C35.4737 44.0545 37.3726 44.9551 39.2811 45.6516C41.1999 46.3519 43.1756 46.8623 44.6674 47.1973C45.4143 47.3651 46.0422 47.4893 46.4841 47.5718C46.705 47.613 46.8796 47.6438 46.9994 47.6644C47.0592 47.6747 47.1054 47.6824 47.1369 47.6876L47.1729 47.6935L47.1824 47.695L47.185 47.6954L47.1857 47.6955C47.186 47.6955 47.1861 47.6956 47.2645 47.2018Z" fill="#FBF8EF" stroke="#111111"/>
<rect x="22.5" y="22.5" width="19" height="19" rx="9.5" fill="#7ECEA6" stroke="#111111"/>
<rect x="25.5" y="25.5" width="13" height="13" rx="6.5" fill="#FBF8EF" stroke="#111111"/>
<path d="M61 53V61H53L61 53Z" fill="#7ECEA6"/>
<path d="M53 3H61V11L53 3Z" fill="#7ECEA6"/>
<path d="M11 3H3V11L11 3Z" fill="#7ECEA6"/>
<path d="M11 61H3V53L11 61Z" fill="#7ECEA6"/>
</g>
<defs>
<clipPath id="clip0_400_1655">
<rect width="64" height="64" fill="white"/>
</clipPath>
</defs>
</svg>
