<svg width="64" height="64" viewBox="0 0 64 64" fill="none" xmlns="http://www.w3.org/2000/svg">
<g clip-path="url(#clip0_403_41)">
<rect width="64" height="64" fill="#F2995A"/>
<path d="M2.73224 53.3017C2.73224 53.3017 19.719 53.2577 13.336 45.0527C7.4696 37.5117 2.73224 53.3017 2.73224 53.3017Z" fill="#FBF8EF"/>
<path fill-rule="evenodd" clip-rule="evenodd" d="M13.4135 45.1482C13.3588 45.0751 3.75241 52.7134 3.75241 52.7134C3.75241 52.7134 13.8923 45.8267 13.7622 45.6329C13.6321 45.4391 13.498 45.2612 13.4135 45.1482Z" fill="#111111"/>
<path d="M5.89154 61.9321C5.89154 61.9321 10.971 40.3023 19.5373 50.8612C27.4104 60.5657 5.89154 61.9321 5.89154 61.9321Z" fill="#FBF8EF"/>
<path fill-rule="evenodd" clip-rule="evenodd" d="M19.4391 50.7357C19.5161 50.827 6.94329 60.8076 6.94329 60.8076C6.94329 60.8076 18.7163 49.925 18.9247 50.148C19.1332 50.3711 19.3201 50.5946 19.4391 50.7357Z" fill="#111111"/>
<path d="M59.5221 61.9865C59.5221 61.9865 35.2415 59.6455 45.4678 48.7707C54.8665 38.7758 59.5221 61.9865 59.5221 61.9865Z" fill="#FBF8EF"/>
<path fill-rule="evenodd" clip-rule="evenodd" d="M45.3478 48.8967C45.4358 48.7995 58.1459 61.0085 58.1459 61.0085C58.1459 61.0085 44.5723 49.8025 44.7842 49.5429C44.9962 49.2833 45.2118 49.0469 45.3478 48.8967Z" fill="#111111"/>
<path d="M3.5521 3.21373C3.5521 3.21373 28.586 1.51393 20.0333 14.2666C12.1728 25.9875 3.5521 3.21373 3.5521 3.21373Z" fill="#FBF8EF"/>
<path fill-rule="evenodd" clip-rule="evenodd" d="M20.1389 14.1175C20.0659 14.2309 5.11778 3.97409 5.11778 3.97409C5.11778 3.97409 20.7739 13.0681 20.6024 13.3671C20.4308 13.6662 20.2517 13.9422 20.1389 14.1175Z" fill="#111111"/>
<path d="M59.7549 2.14126C59.7549 2.14126 54.5399 24.9724 45.4429 13.898C37.082 3.71967 59.7549 2.14126 59.7549 2.14126Z" fill="#FBF8EF"/>
<path fill-rule="evenodd" clip-rule="evenodd" d="M45.5496 14.0304C45.4679 13.9346 58.656 3.33396 58.656 3.33396C58.656 3.33396 46.3167 14.8802 46.0955 14.6465C45.8744 14.4127 45.6759 14.1783 45.5496 14.0304Z" fill="#111111"/>
<path d="M4.01976 12.8992C4.01976 12.8992 20.8461 10.5699 15.6719 19.586C10.9164 27.8726 4.01976 12.8992 4.01976 12.8992Z" fill="#FBF8EF"/>
<path fill-rule="evenodd" clip-rule="evenodd" d="M15.7364 19.4808C15.6924 19.5608 5.11326 13.3393 5.11326 13.3393C5.11326 13.3393 16.1157 18.7421 16.014 18.9522C15.9122 19.1622 15.8043 19.3571 15.7364 19.4808Z" fill="#111111"/>
<path d="M61.8631 11.8992C61.8631 11.8992 45.0367 9.56992 50.2109 18.586C54.9664 26.8726 61.8631 11.8992 61.8631 11.8992Z" fill="#FBF8EF"/>
<path fill-rule="evenodd" clip-rule="evenodd" d="M50.1465 18.4808C50.1904 18.5608 60.7695 12.3393 60.7695 12.3393C60.7695 12.3393 49.7671 17.7421 49.8688 17.9522C49.9706 18.1622 50.0785 18.3571 50.1465 18.4808Z" fill="#111111"/>
<path d="M60.3576 53.0575C60.3576 53.0575 43.3709 53.0135 49.7538 44.8086C55.6202 37.2676 60.3576 53.0575 60.3576 53.0575Z" fill="#FBF8EF"/>
<path fill-rule="evenodd" clip-rule="evenodd" d="M49.6764 44.9041C49.7311 44.831 59.3374 52.4693 59.3374 52.4693C59.3374 52.4693 49.1976 45.5825 49.3277 45.3887C49.4578 45.195 49.5919 45.0171 49.6764 44.9041Z" fill="#111111"/>
<path d="M43.5125 20.4875C44.1703 19.6145 44.8467 18.6588 45.472 17.6715C46.664 15.7893 47.6998 13.747 48.0376 11.9228C48.2073 11.0061 48.2072 10.1114 47.9332 9.30927C47.6549 8.49488 47.1062 7.81263 46.25 7.31828C45.4104 6.83351 44.6212 6.69974 43.8957 6.94769C43.191 7.18855 42.6512 7.75546 42.2191 8.44002C41.3832 9.76435 40.7897 11.7993 40.2075 13.7952C40.1936 13.843 40.1797 13.8908 40.1657 13.9386C39.5557 16.0293 38.9464 18.0829 38.09 19.5088C37.6651 20.2162 37.2043 20.7246 36.6945 21.0113C36.2018 21.2884 35.6239 21.381 34.8975 21.1864C34.1711 20.9918 33.717 20.6226 33.4288 20.1362C33.1306 19.6331 32.9858 18.9624 32.9715 18.1373C32.9428 16.4742 33.4419 14.3911 33.959 12.2755C33.9708 12.2272 33.9826 12.1788 33.9945 12.1304C34.4883 10.1108 34.9918 8.05179 34.93 6.4869C34.898 5.678 34.714 4.91714 34.2241 4.3562C33.7198 3.77872 32.9695 3.5 32 3.5C31.0113 3.5 30.195 3.81651 29.5468 4.38265C28.9084 4.94027 28.461 5.71508 28.1496 6.59386C27.53 8.34255 27.406 10.6291 27.4972 12.8552C27.5451 14.0228 27.653 15.1887 27.7862 16.2737C27.359 15.2675 26.8695 14.2038 26.3271 13.1687C25.2931 11.1952 24.0424 9.27707 22.6315 8.07244C21.9224 7.46708 21.1475 7.0198 20.3158 6.85609C19.4714 6.68988 18.6062 6.82392 17.75 7.31828C16.9104 7.80304 16.3999 8.41957 16.2519 9.17184C16.1082 9.90256 16.3292 10.6535 16.706 11.37C17.4349 12.7561 18.9005 14.2876 20.338 15.7897C20.3724 15.8257 20.4068 15.8616 20.4412 15.8976C21.9468 17.4713 23.4206 19.0257 24.2273 20.4803C24.6275 21.202 24.8374 21.8552 24.8308 22.4401C24.8243 23.0054 24.6157 23.5522 24.0839 24.0839C23.5522 24.6157 23.0054 24.8243 22.4401 24.8308C21.8552 24.8374 21.202 24.6275 20.4803 24.2273C19.0257 23.4206 17.4713 21.9468 15.8976 20.4412C15.8616 20.4068 15.8257 20.3724 15.7897 20.338C14.2876 18.9005 12.7561 17.4349 11.37 16.706C10.6535 16.3292 9.90256 16.1082 9.17184 16.2519C8.41957 16.3999 7.80304 16.9104 7.31828 17.75C6.82392 18.6062 6.68988 19.4714 6.85609 20.3158C7.0198 21.1475 7.46708 21.9224 8.07244 22.6315C9.27707 24.0424 11.1952 25.2931 13.1687 26.3271C14.2038 26.8695 15.2675 27.359 16.2737 27.7862C15.1887 27.653 14.0228 27.5451 12.8552 27.4972C10.6291 27.406 8.34255 27.53 6.59386 28.1496C5.71508 28.461 4.94027 28.9084 4.38265 29.5468C3.81651 30.195 3.5 31.0113 3.5 32C3.5 32.9695 3.77872 33.7198 4.3562 34.2241C4.91714 34.714 5.678 34.898 6.4869 34.93C8.05179 34.9918 10.1108 34.4883 12.1304 33.9945C12.1788 33.9826 12.2272 33.9708 12.2755 33.959C14.3911 33.4419 16.4742 32.9428 18.1373 32.9715C18.9624 32.9858 19.6331 33.1306 20.1362 33.4288C20.6226 33.717 20.9918 34.1711 21.1864 34.8975C21.381 35.6239 21.2884 36.2018 21.0113 36.6945C20.7246 37.2043 20.2162 37.6651 19.5088 38.09C18.0829 38.9464 16.0293 39.5557 13.9386 40.1657C13.8908 40.1797 13.843 40.1936 13.7952 40.2075C11.7993 40.7897 9.76435 41.3832 8.44002 42.2191C7.75546 42.6512 7.18855 43.191 6.94769 43.8957C6.69974 44.6212 6.83351 45.4104 7.31828 46.25C7.81263 47.1062 8.49488 47.6549 9.30927 47.9332C10.1114 48.2072 11.0061 48.2073 11.9228 48.0376C13.747 47.6998 15.7893 46.664 17.6715 45.472C18.6588 44.8467 19.6145 44.1703 20.4875 43.5125C19.8297 44.3855 19.1533 45.3412 18.528 46.3285C17.336 48.2107 16.3002 50.253 15.9624 52.0772C15.7927 52.9939 15.7928 53.8886 16.0668 54.6907C16.3451 55.5051 16.8938 56.1874 17.75 56.6817C18.5896 57.1665 19.3788 57.3003 20.1043 57.0523C20.809 56.8115 21.3488 56.2445 21.7809 55.56C22.6168 54.2356 23.2103 52.2007 23.7925 50.2048L23.8343 50.0614C24.4443 47.9707 25.0536 45.9171 25.91 44.4912C26.3349 43.7838 26.7957 43.2754 27.3055 42.9887C27.7982 42.7116 28.3761 42.619 29.1025 42.8136C29.8289 43.0082 30.283 43.3774 30.5712 43.8638C30.8694 44.3669 31.0142 45.0376 31.0285 45.8627C31.0572 47.5258 30.5581 49.6089 30.041 51.7245L30.0056 51.8695C29.5117 53.8891 29.0082 55.9482 29.07 57.5131C29.102 58.322 29.286 59.0829 29.7759 59.6438C30.2802 60.2213 31.0305 60.5 32 60.5C32.9887 60.5 33.805 60.1835 34.4532 59.6173C35.0916 59.0597 35.539 58.2849 35.8504 57.4061C36.4699 55.6574 36.594 53.3709 36.5028 51.1448C36.4549 49.9772 36.347 48.8113 36.2138 47.7263C36.641 48.7325 37.1305 49.7962 37.6729 50.8313C38.7069 52.8048 39.9576 54.7229 41.3685 55.9276C42.0776 56.5329 42.8525 56.9802 43.6842 57.1439C44.5286 57.3101 45.3938 57.1761 46.25 56.6817C47.0896 56.197 47.6001 55.5804 47.7481 54.8282C47.8918 54.0974 47.6708 53.3465 47.294 52.63C46.565 51.2439 45.0995 49.7124 43.662 48.2103L43.5588 48.1024C42.0532 46.5287 40.5794 44.9743 39.7727 43.5197C39.3725 42.798 39.1626 42.1448 39.1692 41.5599C39.1757 40.9946 39.3844 40.4478 39.9161 39.9161C40.4478 39.3844 40.9946 39.1757 41.5599 39.1692C42.1448 39.1626 42.798 39.3725 43.5197 39.7727C44.9743 40.5794 46.5287 42.0532 48.1024 43.5588L48.2103 43.662C49.7124 45.0995 51.2439 46.565 52.63 47.294C53.3465 47.6708 54.0974 47.8918 54.8282 47.7481C55.5804 47.6001 56.197 47.0896 56.6817 46.25C57.1761 45.3938 57.3101 44.5286 57.1439 43.6842C56.9802 42.8525 56.5329 42.0776 55.9276 41.3685C54.7229 39.9576 52.8048 38.7069 50.8313 37.6729C49.7962 37.1305 48.7325 36.641 47.7263 36.2138C48.8113 36.347 49.9772 36.4549 51.1448 36.5028C53.3709 36.594 55.6574 36.4699 57.4061 35.8504C58.2849 35.539 59.0597 35.0916 59.6173 34.4532C60.1835 33.805 60.5 32.9887 60.5 32C60.5 31.0305 60.2213 30.2802 59.6438 29.7759C59.0829 29.286 58.322 29.102 57.5131 29.07C55.9482 29.0082 53.8891 29.5117 51.8695 30.0056L51.7245 30.041C49.6089 30.5581 47.5258 31.0572 45.8627 31.0285C45.0376 31.0142 44.3669 30.8694 43.8638 30.5712C43.3774 30.283 43.0082 29.8289 42.8136 29.1025C42.619 28.3761 42.7116 27.7982 42.9887 27.3055C43.2754 26.7957 43.7838 26.3349 44.4912 25.91C45.9171 25.0536 47.9707 24.4443 50.0614 23.8343L50.2048 23.7925C52.2007 23.2103 54.2356 22.6168 55.56 21.7809C56.2445 21.3488 56.8115 20.809 57.0523 20.1043C57.3003 19.3788 57.1665 18.5896 56.6817 17.75C56.1874 16.8938 55.5051 16.3451 54.6907 16.0668C53.8886 15.7928 52.9939 15.7927 52.0772 15.9624C50.253 16.3002 48.2107 17.336 46.3285 18.528C45.3412 19.1533 44.3855 19.8297 43.5125 20.4875Z" fill="#FBF8EF" stroke="#111111"/>
<path d="M46.397 24.4005C47.2834 23.7607 48.2118 23.0473 49.1007 22.2887C50.7955 20.8425 52.3882 19.1972 53.2496 17.5541C53.6825 16.7284 53.9466 15.8735 53.9216 15.0262C53.8963 14.166 53.5735 13.3522 52.9015 12.627C52.2424 11.9159 51.528 11.555 50.7616 11.5777C50.0172 11.5997 49.3341 11.9819 48.7191 12.5084C47.5293 13.5268 46.3614 15.2957 45.2158 17.0307C45.1884 17.0722 45.1609 17.1138 45.1335 17.1553C43.9333 18.9727 42.7447 20.7547 41.5055 21.8641C40.8906 22.4145 40.3002 22.7642 39.7285 22.8875C39.1759 23.0067 38.5964 22.9246 37.9599 22.5242C37.3234 22.1237 36.9985 21.6369 36.8668 21.0871C36.7305 20.5183 36.7902 19.8348 37.0202 19.0423C37.4839 17.4449 38.5759 15.6021 39.6947 13.7335C39.7203 13.6908 39.7458 13.6481 39.7714 13.6054C40.8396 11.8217 41.9287 10.0032 42.3318 8.48981C42.5402 7.70755 42.589 6.92628 42.2867 6.2457C41.9754 5.54505 41.3408 5.05719 40.4145 4.77088C39.4699 4.4789 38.5966 4.54024 37.8101 4.88973C37.0355 5.23395 36.3792 5.84207 35.8222 6.58971C34.7139 8.07745 33.9201 10.2254 33.3499 12.3791C33.0508 13.5088 32.8096 14.6546 32.6165 15.7305C32.5055 14.643 32.3519 13.4823 32.1394 12.3331C31.7343 10.1423 31.1058 7.94036 30.1135 6.37281C29.6149 5.58505 29.0066 4.92888 28.2604 4.52688C27.5027 4.11872 26.6365 3.99129 25.6725 4.21074C24.7272 4.42594 24.0574 4.86424 23.6939 5.53925C23.3407 6.19493 23.3302 6.97765 23.4786 7.77347C23.7657 9.31304 24.7136 11.209 25.6434 13.0686C25.6657 13.1131 25.6879 13.1577 25.7102 13.2022C26.6839 15.1503 27.633 17.0706 27.9741 18.6985C28.1433 19.5063 28.151 20.1923 27.9719 20.7491C27.7988 21.2873 27.438 21.7481 26.7729 22.0991C26.1079 22.4501 25.5238 22.488 24.9818 22.3272C24.4211 22.1608 23.859 21.7674 23.2877 21.1719C22.1361 19.9717 21.0863 18.1046 20.0274 16.2014C20.0032 16.1579 19.979 16.1144 19.9548 16.0709C18.9442 14.2539 17.9138 12.4015 16.8048 11.2958C16.2315 10.7242 15.5793 10.2912 14.8387 10.2128C14.0763 10.132 13.3365 10.4376 12.6254 11.0967C11.9003 11.7687 11.5167 12.5558 11.4262 13.4116C11.337 14.2545 11.5355 15.127 11.9044 15.9831C12.6387 17.6869 14.102 19.4483 15.6821 21.0189C16.5108 21.8428 17.3825 22.6246 18.2177 23.3298C17.2204 22.8822 16.1384 22.4348 15.037 22.0443C12.9371 21.2997 10.7159 20.743 8.86225 20.8186C7.93072 20.8565 7.05832 21.0552 6.33706 21.5005C5.60475 21.9526 5.0613 22.639 4.76933 23.5836C4.48302 24.5099 4.52773 25.309 4.93053 25.9614C5.3218 26.5951 5.99438 26.9956 6.75778 27.265C8.23463 27.7861 10.3505 27.9131 12.4259 28.0377C12.4756 28.0407 12.5253 28.0437 12.575 28.0467C14.7489 28.1775 16.8865 28.3157 18.4669 28.8343C19.251 29.0916 19.849 29.428 20.2417 29.8614C20.6212 30.2804 20.8399 30.8233 20.8113 31.5748C20.7828 32.3262 20.5236 32.851 20.1133 33.24C19.6889 33.6424 19.0671 33.9325 18.2657 34.1295C16.6505 34.5266 14.5086 34.5023 12.331 34.4677C12.2812 34.4669 12.2314 34.4661 12.1816 34.4653C10.1028 34.4321 7.98338 34.3982 6.47125 34.8058C5.68962 35.0165 4.98858 35.3648 4.55036 35.9669C4.09922 36.5868 3.99399 37.3803 4.20919 38.3256C4.42864 39.2897 4.91844 40.0154 5.61433 40.5217C6.29973 41.0204 7.15453 41.2847 8.0805 41.3933C9.92309 41.6093 12.1801 41.2227 14.3304 40.6397C15.4583 40.3339 16.5712 39.9699 17.5996 39.5992C16.7132 40.239 15.7848 40.9524 14.8958 41.711C13.2011 43.1572 11.6084 44.8025 10.747 46.4456C10.3141 47.2713 10.05 48.1262 10.075 48.9734C10.1003 49.8337 10.423 50.6475 11.0951 51.3727C11.7542 52.0838 12.4686 52.4446 13.235 52.422C13.9794 52.4 14.6625 52.0178 15.2775 51.4913C16.4673 50.4729 17.6352 48.704 18.7808 46.969L18.8631 46.8444C20.0633 45.027 21.2518 43.245 22.4911 42.1356C23.106 41.5851 23.6963 41.2355 24.2681 41.1122C24.8207 40.9929 25.4002 41.0751 26.0367 41.4755C26.6732 41.876 26.9981 42.3628 27.1298 42.9126C27.2661 43.4814 27.2064 44.1649 26.9763 44.9574C26.5127 46.5548 25.4206 48.3976 24.3019 50.2662L24.2252 50.3943C23.157 52.178 22.0679 53.9965 21.6648 55.5099C21.4564 56.2921 21.4076 57.0734 21.7099 57.754C22.0212 58.4546 22.6558 58.9425 23.582 59.2288C24.5267 59.5208 25.4 59.4595 26.1865 59.11C26.9611 58.7657 27.6174 58.1576 28.1743 57.41C29.2827 55.9222 30.0765 53.7743 30.6467 51.6206C30.9458 50.4909 31.187 49.3451 31.3801 48.2692C31.4911 49.3567 31.6446 50.5174 31.8572 51.6666C32.2623 53.8574 32.8908 56.0593 33.883 57.6269C34.3817 58.4146 34.99 59.0708 35.7362 59.4728C36.4939 59.881 37.36 60.0084 38.3241 59.789C39.2694 59.5738 39.9392 59.1355 40.3027 58.4604C40.6559 57.8048 40.6664 57.022 40.518 56.2262C40.2309 54.6866 39.283 52.7907 38.3532 50.9311L38.2864 50.7975C37.3127 48.8494 36.3636 46.9291 36.0225 45.3012C35.8533 44.4934 35.8456 43.8074 36.0247 43.2506C36.1978 42.7124 36.5586 42.2516 37.2237 41.9006C37.8887 41.5496 38.4728 41.5117 39.0147 41.6725C39.5755 41.8388 40.1376 42.2323 40.7089 42.8278C41.8605 44.028 42.9103 45.8951 43.9692 47.7983L44.0418 47.9288C45.0524 49.7457 46.0828 51.5982 47.1918 52.7039C47.7651 53.2755 48.4173 53.7085 49.1579 53.7869C49.9203 53.8677 50.66 53.5621 51.3711 52.903C52.0963 52.2309 52.4799 51.4439 52.5704 50.5881C52.6596 49.7452 52.4611 48.8727 52.0921 48.0165C51.3579 46.3128 49.8946 44.5514 48.3145 42.9807C47.4857 42.1569 46.6141 41.3751 45.7789 40.6699C46.7761 41.1175 47.8582 41.5649 48.9596 41.9554C51.0594 42.7 53.2807 43.2567 55.1343 43.1811C56.0659 43.1432 56.9383 42.9445 57.6595 42.4992C58.3918 42.0471 58.9353 41.3607 59.2273 40.4161C59.5136 39.4898 59.4689 38.6907 59.0661 38.0383C58.6748 37.4046 58.0022 37.0041 57.2388 36.7347C55.762 36.2136 53.646 36.0865 51.5707 35.962L51.4216 35.953C49.2476 35.8222 47.1101 35.684 45.5297 35.1654C44.7455 34.9081 44.1476 34.5717 43.7549 34.1382C43.3753 33.7193 43.1567 33.1764 43.1853 32.4249C43.2138 31.6734 43.473 31.1487 43.8833 30.7597C44.3077 30.3573 44.9295 30.0672 45.7309 29.8702C47.3461 29.473 49.488 29.4974 51.6656 29.532L51.8149 29.5344C53.8938 29.5676 56.0132 29.6015 57.5253 29.1939C58.307 28.9832 59.008 28.6349 59.4462 28.0328C59.8974 27.4129 60.0026 26.6194 59.7874 25.6741C59.5679 24.71 59.0781 23.9843 58.3823 23.478C57.6969 22.9793 56.8421 22.715 55.9161 22.6064C54.0735 22.3904 51.8164 22.777 49.6662 23.36C48.5383 23.6658 47.4254 24.0298 46.397 24.4005Z" fill="#FBF8EF" stroke="#111111"/>
<path d="M46.2878 31.9911C47.0494 31.8743 47.8423 31.7308 48.6276 31.5545C50.468 31.1413 52.3198 30.5371 53.6246 29.64C54.2809 29.1888 54.8268 28.6446 55.1502 27.9856C55.4793 27.3149 55.5604 26.5598 55.3394 25.7352C55.1185 24.9105 54.6706 24.2971 54.0503 23.8809C53.4408 23.4718 52.6959 23.2735 51.902 23.2109C50.3234 23.0864 48.4175 23.489 46.6172 24.0514C45.8489 24.2913 45.0905 24.5635 44.3725 24.8432C44.9737 24.3612 45.5886 23.8405 46.1805 23.2951C47.5678 22.0172 48.8694 20.568 49.5509 19.1386C49.8936 18.4197 50.0943 17.6755 50.0448 16.9431C49.9945 16.1977 49.6872 15.5032 49.0835 14.8995C48.4798 14.2958 47.7853 13.9886 47.0399 13.9382C46.3075 13.8888 45.5633 14.0894 44.8444 14.4322C43.415 15.1137 41.9659 16.4153 40.6879 17.8025C40.1426 18.3944 39.6218 19.0093 39.1399 19.6105C39.4196 18.8925 39.6917 18.1341 39.9316 17.3659C40.494 15.5655 40.8967 13.6597 40.7722 12.0811C40.7096 11.2871 40.5112 10.5423 40.1022 9.93271C39.6859 9.31238 39.0725 8.86454 38.2479 8.64358C37.4232 8.42262 36.6681 8.50377 35.9974 8.83285C35.3384 9.15621 34.7943 9.70208 34.343 10.3584C33.4459 11.6632 32.8417 13.5151 32.4285 15.3554C32.2522 16.1407 32.1087 16.9336 31.9919 17.6952C31.8752 16.9336 31.7316 16.1407 31.5553 15.3554C31.1422 13.5151 30.5379 11.6632 29.6408 10.3584C29.1896 9.70208 28.6454 9.15621 27.9864 8.83285C27.3157 8.50377 26.5606 8.42262 25.736 8.64358C24.9113 8.86454 24.298 9.31238 23.8817 9.93271C23.4726 10.5423 23.2743 11.2871 23.2117 12.0811C23.0872 13.6597 23.4898 15.5655 24.0522 17.3659C24.2922 18.1341 24.5643 18.8925 24.844 19.6105C24.362 19.0093 23.8413 18.3944 23.296 17.8025C22.018 16.4153 20.5688 15.1137 19.1395 14.4322C18.4205 14.0894 17.6763 13.8888 16.9439 13.9382C16.1986 13.9886 15.504 14.2958 14.9004 14.8995C14.2967 15.5032 13.9894 16.1977 13.9391 16.9431C13.8896 17.6755 14.0902 18.4197 14.433 19.1386C15.1145 20.568 16.4161 22.0172 17.8033 23.2951C18.3952 23.8405 19.0101 24.3612 19.6113 24.8431C18.8933 24.5635 18.1349 24.2913 17.3667 24.0514C15.5663 23.489 13.6605 23.0864 12.0819 23.2109C11.2879 23.2735 10.5431 23.4718 9.93353 23.8809C9.3132 24.2971 8.86536 24.9105 8.6444 25.7352C8.42344 26.5598 8.50459 27.3149 8.83367 27.9856C9.15704 28.6446 9.7029 29.1888 10.3592 29.64C11.6641 30.5371 13.5159 31.1413 15.3562 31.5545C16.1415 31.7308 16.9344 31.8743 17.696 31.9911C16.9344 32.1079 16.1415 32.2514 15.3562 32.4277C13.5159 32.8409 11.6641 33.4451 10.3592 34.3422C9.7029 34.7934 9.15704 35.3376 8.83367 35.9966C8.50459 36.6673 8.42344 37.4224 8.6444 38.2471C8.86536 39.0717 9.3132 39.6851 9.93353 40.1013C10.5431 40.5104 11.2879 40.7087 12.0819 40.7713C13.6605 40.8958 15.5663 40.4932 17.3667 39.9308C18.1349 39.6909 18.8933 39.4187 19.6113 39.1391C19.0101 39.621 18.3952 40.1417 17.8033 40.6871C16.4161 41.965 15.1145 43.4142 14.433 44.8436C14.0902 45.5625 13.8896 46.3067 13.9391 47.0391C13.9894 47.7845 14.2967 48.479 14.9004 49.0827C15.504 49.6864 16.1986 49.9936 16.9439 50.044C17.6763 50.0934 18.4205 49.8928 19.1395 49.55C20.5688 48.8685 22.018 47.5669 23.296 46.1797C23.8413 45.5878 24.362 44.9729 24.844 44.3717C24.5643 45.0897 24.2922 45.8481 24.0522 46.6163C23.4898 48.4167 23.0872 50.3225 23.2117 51.9011C23.2743 52.6951 23.4726 53.4399 23.8817 54.0495C24.298 54.6698 24.9113 55.1177 25.736 55.3386C26.5606 55.5596 27.3157 55.4784 27.9864 55.1494C28.6454 54.826 29.1896 54.2801 29.6408 53.6238C30.5379 52.319 31.1421 50.4671 31.5553 48.6268C31.7316 47.8415 31.8752 47.0486 31.9919 46.287C32.1087 47.0486 32.2522 47.8415 32.4285 48.6268C32.8417 50.4671 33.4459 52.319 34.343 53.6238C34.7943 54.2801 35.3384 54.826 35.9975 55.1494C36.6681 55.4784 37.4232 55.5596 38.2479 55.3386C39.0725 55.1177 39.6859 54.6698 40.1022 54.0495C40.5112 53.4399 40.7096 52.6951 40.7722 51.9011C40.8967 50.3225 40.494 48.4167 39.9316 46.6163C39.6917 45.8481 39.4196 45.0897 39.1399 44.3717C39.6218 44.9729 40.1426 45.5878 40.6879 46.1797C41.9659 47.5669 43.415 48.8685 44.8444 49.55C45.5633 49.8928 46.3075 50.0934 47.0399 50.044C47.7853 49.9936 48.4798 49.6864 49.0835 49.0827C49.6872 48.479 49.9945 47.7845 50.0448 47.0391C50.0943 46.3067 49.8936 45.5625 49.5509 44.8436C48.8694 43.4142 47.5678 41.9651 46.1805 40.6871C45.5886 40.1417 44.9737 39.621 44.3725 39.1391C45.0905 39.4187 45.8489 39.6909 46.6172 39.9308C48.4175 40.4932 50.3234 40.8958 51.902 40.7713C52.6959 40.7087 53.4408 40.5104 54.0503 40.1013C54.6706 39.6851 55.1185 39.0717 55.3394 38.2471C55.5604 37.4224 55.4793 36.6673 55.1502 35.9966C54.8268 35.3376 54.2809 34.7934 53.6246 34.3422C52.3198 33.4451 50.468 32.8409 48.6276 32.4277C47.8423 32.2514 47.0494 32.1079 46.2878 31.9911Z" fill="#F2995A" stroke="#111111"/>
<path d="M34.1371 24.4723C34.1322 24.4574 34.127 24.4396 34.1216 24.4184C34.0782 24.2463 34.0636 23.9773 34.0804 23.6029C34.0968 23.2368 34.1405 22.813 34.1916 22.3466C34.1981 22.2871 34.2048 22.2269 34.2115 22.1662C34.2566 21.7567 34.3046 21.3216 34.3391 20.889C34.4167 19.9132 34.4356 18.8576 34.1532 18.0317C34.0082 17.6076 33.7744 17.2149 33.4026 16.9303C33.0271 16.6428 32.5558 16.5 32 16.5C31.4442 16.5 30.9729 16.6428 30.5974 16.9303C30.2256 17.2149 29.9918 17.6076 29.8468 18.0317C29.5644 18.8576 29.5833 19.9132 29.6609 20.889C29.6954 21.3216 29.7434 21.7566 29.7885 22.1661C29.7952 22.2269 29.8019 22.2871 29.8084 22.3466C29.8595 22.813 29.9032 23.2368 29.9196 23.6029C29.9364 23.9773 29.9218 24.2463 29.8784 24.4184C29.873 24.4396 29.8678 24.4574 29.8629 24.4723C29.8538 24.4635 29.8436 24.4532 29.8324 24.4411C29.7149 24.3146 29.5759 24.0886 29.4137 23.753C29.2554 23.4253 29.0937 23.0334 28.9185 22.6004C28.8948 22.542 28.871 22.4829 28.8469 22.4232C28.6944 22.0457 28.5326 21.6449 28.3604 21.2529C27.9693 20.3623 27.489 19.4279 26.8536 18.8446C26.5267 18.5444 26.1353 18.3149 25.6736 18.2511C25.2076 18.1867 24.7301 18.2994 24.25 18.5766C23.7662 18.8559 23.4302 19.2203 23.2535 19.6642C23.0791 20.1023 23.0809 20.5655 23.175 21.0103C23.3588 21.8784 23.9224 22.7983 24.5012 23.6194C24.7822 24.0182 25.0789 24.4098 25.3555 24.7748C25.3689 24.7924 25.3822 24.81 25.3955 24.8276C25.6863 25.2114 25.9501 25.5612 26.1617 25.8733C26.3558 26.1595 26.4855 26.3848 26.5531 26.5531C26.3848 26.4855 26.1595 26.3558 25.8733 26.1617C25.5612 25.9501 25.2114 25.6863 24.8276 25.3955C24.81 25.3822 24.7924 25.3689 24.7748 25.3555C24.4098 25.0789 24.0182 24.7822 23.6194 24.5012C22.7983 23.9224 21.8784 23.3588 21.0103 23.175C20.5655 23.0809 20.1023 23.0791 19.6642 23.2535C19.2203 23.4302 18.8559 23.7662 18.5766 24.25C18.2969 24.7345 18.1877 25.2199 18.2491 25.6959C18.3097 26.1657 18.53 26.5767 18.8229 26.9305C19.3954 27.6223 20.3185 28.1811 21.2105 28.6445C21.6465 28.8711 22.0925 29.0833 22.5078 29.2809L22.558 29.3047C22.9918 29.5112 23.3862 29.6998 23.718 29.8793C24.035 30.0509 24.2616 30.1968 24.401 30.3202C24.229 30.3371 23.9809 30.3275 23.6516 30.29C23.2839 30.2481 22.8587 30.1772 22.3909 30.0978C22.363 30.093 22.3349 30.0883 22.3067 30.0835C21.8678 30.0089 21.3977 29.929 20.9292 29.8657C19.9516 29.7335 18.8916 29.6587 18.0592 29.8997C17.6312 30.0236 17.23 30.2402 16.9381 30.6053C16.6433 30.9741 16.5 31.4445 16.5 32C16.5 32.5553 16.6431 33.0254 16.9384 33.3934C17.2307 33.7577 17.6325 33.9723 18.0604 34.0939C18.8924 34.3304 19.9517 34.25 20.9281 34.1138C21.3854 34.0501 21.8446 33.9707 22.2744 33.8964C22.3128 33.8897 22.3508 33.8832 22.3886 33.8766C22.856 33.796 23.2809 33.7243 23.6481 33.6824C23.9938 33.643 24.2494 33.6351 24.4212 33.6566C24.285 33.7851 24.0526 33.9386 23.7199 34.1202C23.3888 34.3009 22.9948 34.4904 22.5611 34.6975C22.5357 34.7096 22.5103 34.7217 22.4847 34.7339C22.0771 34.9285 21.6405 35.1368 21.2137 35.3586C20.3216 35.822 19.3977 36.38 18.8244 37.0707C18.5313 37.424 18.3104 37.8346 18.2494 38.3043C18.1877 38.7802 18.2969 39.2655 18.5766 39.75C18.8559 40.2338 19.2203 40.5698 19.6642 40.7465C20.1023 40.9209 20.5655 40.9191 21.0103 40.825C21.8784 40.6412 22.7983 40.0776 23.6194 39.4988C24.0182 39.2177 24.4098 38.921 24.7748 38.6444L24.8276 38.6045C25.2114 38.3137 25.5612 38.0499 25.8733 37.8383C26.1595 37.6442 26.3848 37.5145 26.5531 37.4469C26.4855 37.6152 26.3558 37.8405 26.1617 38.1267C25.9501 38.4388 25.6863 38.7886 25.3955 39.1724L25.3555 39.2252C25.0789 39.5902 24.7823 39.9818 24.5012 40.3806C23.9224 41.2017 23.3588 42.1216 23.175 42.9897C23.0809 43.4345 23.0791 43.8977 23.2535 44.3358C23.4302 44.7797 23.7662 45.1441 24.25 45.4234C24.7305 45.7008 25.2088 45.8133 25.6757 45.75C26.1384 45.6873 26.5323 45.4598 26.8625 45.1611C27.5049 44.5801 27.9936 43.6484 28.3905 42.7579C28.576 42.3417 28.749 41.9161 28.9109 41.5178C28.9256 41.4817 28.9401 41.4458 28.9546 41.4103C29.131 40.9767 29.2927 40.5837 29.4499 40.2541C29.606 39.9265 29.7398 39.7008 29.853 39.5692C29.8924 39.743 29.9034 40.0125 29.8847 40.3852C29.8664 40.7524 29.8222 41.1771 29.7718 41.6445C29.768 41.6795 29.7642 41.7148 29.7604 41.7502C29.7137 42.1825 29.6638 42.6449 29.6296 43.1054C29.557 44.0839 29.5467 45.1413 29.8363 45.9686C29.9849 46.3931 30.2219 46.7854 30.5949 47.0696C30.9718 47.3567 31.4438 47.5 32 47.5C32.5567 47.5 33.0291 47.3558 33.406 47.0673C33.7788 46.7819 34.0154 46.3882 34.1638 45.9625C34.4531 45.1325 34.4428 44.0719 34.3702 43.0909C34.3359 42.6281 34.2858 42.1638 34.239 41.7301C34.2353 41.6957 34.2316 41.6615 34.2279 41.6275C34.1776 41.1597 34.1334 40.7351 34.115 40.3688C34.097 40.0084 34.1068 39.7465 34.1429 39.5757C34.2581 39.7103 34.3931 39.9396 34.5502 40.27C34.7075 40.6008 34.8693 40.9942 35.0457 41.4275C35.0586 41.4592 35.0716 41.4911 35.0847 41.5232C35.248 41.9246 35.4226 42.3536 35.6099 42.7729C36.0069 43.6612 36.4957 44.5895 37.1387 45.1675C37.4693 45.4648 37.8633 45.6905 38.3257 45.7518C38.7922 45.8137 39.2699 45.7006 39.75 45.4234C40.2335 45.1442 40.5693 44.7805 40.7448 44.3369C40.918 43.899 40.9138 43.4368 40.8172 42.9939C40.6287 42.1299 40.0598 41.2149 39.4785 40.3978C39.2099 40.0203 38.9272 39.6486 38.6621 39.3C38.6351 39.2645 38.6083 39.2292 38.5817 39.1942C38.2908 38.8114 38.0277 38.462 37.818 38.1499C37.6036 37.8309 37.4705 37.5874 37.4143 37.4143C37.5874 37.4705 37.8309 37.6036 38.1499 37.818C38.462 38.0277 38.8114 38.2908 39.1942 38.5817C39.2292 38.6083 39.2645 38.6351 39.3 38.6621C39.6486 38.9272 40.0203 39.2099 40.3978 39.4785C41.2149 40.0598 42.1299 40.6287 42.9939 40.8172C43.4368 40.9138 43.899 40.918 44.3369 40.7448C44.7805 40.5693 45.1442 40.2335 45.4234 39.75C45.7029 39.2659 45.8122 38.7813 45.7495 38.3065C45.6876 37.8377 45.4649 37.4295 45.1704 37.0794C44.5948 36.3954 43.6684 35.8454 42.776 35.3875C42.3727 35.1806 41.9604 34.9849 41.5728 34.8009C41.5244 34.7779 41.4763 34.7551 41.4287 34.7324C40.9955 34.5265 40.6024 34.3371 40.2731 34.1553C39.9368 33.9696 39.7054 33.8122 39.5731 33.6802C39.5586 33.6658 39.5463 33.6527 39.536 33.6411C39.5409 33.6401 39.5461 33.6391 39.5515 33.638C39.7205 33.6058 39.9881 33.6079 40.3634 33.6488C40.7296 33.6887 41.1536 33.7599 41.62 33.8412C41.6818 33.852 41.7443 33.8629 41.8074 33.874C42.2149 33.9453 42.6473 34.0211 43.0774 34.0833C44.0512 34.2243 45.1086 34.313 45.939 34.0837C46.3665 33.9656 46.7688 33.7542 47.0617 33.3911C47.3575 33.0245 47.5 32.5548 47.5 32C47.5 31.4448 47.357 30.9747 47.0619 30.6067C46.7698 30.2423 46.3682 30.0276 45.9404 29.9058C45.1089 29.6689 44.0501 29.7487 43.0741 29.8837C42.6221 29.9462 42.1682 30.0239 41.7427 30.0967C41.6995 30.1041 41.6567 30.1114 41.6141 30.1187C41.147 30.1985 40.7223 30.2691 40.3553 30.3099C40.0002 30.3492 39.7405 30.3553 39.569 30.3306C39.57 30.3296 39.5711 30.3286 39.5721 30.3275C39.7066 30.1978 39.9402 30.0426 40.2779 29.8587C40.6086 29.6785 41.0024 29.4899 41.436 29.2841C41.4662 29.2698 41.4966 29.2554 41.5271 29.2409C41.9304 29.0496 42.3617 28.845 42.7834 28.6274C43.6755 28.1673 44.6001 27.6132 45.1741 26.9253C45.4677 26.5734 45.6892 26.1639 45.7503 25.6946C45.8123 25.2192 45.703 24.7343 45.4234 24.25C45.1441 23.7662 44.7797 23.4302 44.3358 23.2535C43.8977 23.0791 43.4345 23.0809 42.9897 23.175C42.1216 23.3588 41.2017 23.9224 40.3806 24.5012C39.9818 24.7823 39.5902 25.0789 39.2252 25.3555L39.1724 25.3955C38.7886 25.6863 38.4388 25.9501 38.1267 26.1617C37.8405 26.3558 37.6152 26.4855 37.4469 26.5531C37.5145 26.3848 37.6442 26.1595 37.8383 25.8733C38.0499 25.5612 38.3137 25.2114 38.6045 24.8276L38.6444 24.7749C38.921 24.4098 39.2177 24.0183 39.4988 23.6194C40.0776 22.7983 40.6412 21.8784 40.825 21.0103C40.9191 20.5655 40.9209 20.1023 40.7465 19.6642C40.5698 19.2203 40.2338 18.8559 39.75 18.5766C39.2699 18.2994 38.7924 18.1867 38.3264 18.2511C37.8647 18.3149 37.4733 18.5444 37.1464 18.8446C36.511 19.4279 36.0307 20.3623 35.6396 21.2529C35.4674 21.6449 35.3056 22.0457 35.1531 22.4233C35.129 22.4829 35.1052 22.542 35.0815 22.6004C34.9063 23.0334 34.7446 23.4253 34.5863 23.753C34.4242 24.0886 34.2851 24.3146 34.1676 24.4411C34.1564 24.4532 34.1462 24.4635 34.1371 24.4723ZM37.2678 26.6024C37.2681 26.6021 37.2713 26.6019 37.2768 26.6027C37.2704 26.6031 37.2676 26.6027 37.2678 26.6024ZM37.3973 26.7232C37.3981 26.7287 37.3979 26.7319 37.3976 26.7322C37.3973 26.7324 37.3969 26.7296 37.3973 26.7232ZM39.4327 30.2957C39.4331 30.2956 39.436 30.2969 39.4404 30.3001C39.4345 30.2975 39.4323 30.2959 39.4327 30.2957ZM39.4857 30.4292C39.4844 30.4341 39.4831 30.4366 39.4827 30.4366C39.4824 30.4367 39.483 30.4343 39.4857 30.4292ZM39.4836 33.5646C39.484 33.5647 39.4853 33.5674 39.4861 33.5725C39.4836 33.5671 39.4832 33.5645 39.4836 33.5646ZM39.4523 33.6659C39.448 33.6695 39.445 33.671 39.4446 33.6708C39.4441 33.6707 39.4463 33.6689 39.4523 33.6659ZM37.3885 37.2882C37.3888 37.2885 37.3889 37.2917 37.3878 37.2971C37.3876 37.2906 37.3882 37.2879 37.3885 37.2882ZM37.2971 37.3878C37.2917 37.3889 37.2885 37.3888 37.2882 37.3885C37.2879 37.3882 37.2906 37.3876 37.2971 37.3878ZM34.1862 39.4443C34.1864 39.4447 34.1849 39.4474 34.1814 39.4515C34.1843 39.446 34.1861 39.444 34.1862 39.4443ZM34.0502 39.4859C34.0452 39.4841 34.0426 39.4825 34.0426 39.4821C34.0426 39.4817 34.0451 39.4826 34.0502 39.4859ZM29.9495 39.4794C29.9494 39.4798 29.9468 39.4815 29.9417 39.4833C29.947 39.4799 29.9495 39.479 29.9495 39.4794ZM29.815 39.4529C29.8114 39.449 29.8098 39.4464 29.81 39.446C29.8101 39.4457 29.8119 39.4476 29.815 39.4529ZM26.7322 37.3976C26.7319 37.3979 26.7287 37.3981 26.7232 37.3973C26.7296 37.3969 26.7324 37.3973 26.7322 37.3976ZM26.6027 37.2768C26.6019 37.2713 26.6021 37.2681 26.6024 37.2678C26.6027 37.2676 26.6031 37.2704 26.6027 37.2768ZM24.5712 33.6921C24.5708 33.6922 24.5679 33.6909 24.5634 33.6878C24.5693 33.6903 24.5715 33.6919 24.5712 33.6921ZM24.5145 33.5491C24.5158 33.5443 24.5171 33.5419 24.5175 33.5418C24.5178 33.5418 24.5171 33.5441 24.5145 33.5491ZM24.5183 30.4509C24.5179 30.4509 24.5165 30.4484 24.5151 30.4437C24.5179 30.4486 24.5186 30.451 24.5183 30.4509ZM24.5693 30.2872C24.5738 30.284 24.5768 30.2828 24.5772 30.283C24.5776 30.2831 24.5753 30.2847 24.5693 30.2872ZM26.6024 26.7322C26.6021 26.7319 26.6019 26.7287 26.6027 26.7232C26.6031 26.7296 26.6027 26.7324 26.6024 26.7322ZM26.7232 26.6027C26.7287 26.6019 26.7319 26.6021 26.7322 26.6024C26.7324 26.6027 26.7296 26.6031 26.7232 26.6027ZM29.8303 24.5407C29.8301 24.5402 29.832 24.5374 29.8363 24.5337C29.8326 24.5393 29.8305 24.5411 29.8303 24.5407ZM29.9153 24.515C29.9209 24.5164 29.9239 24.5181 29.924 24.5186C29.9241 24.5191 29.9213 24.5184 29.9153 24.515ZM34.0847 24.515C34.0787 24.5184 34.0759 24.5191 34.076 24.5186C34.0761 24.5181 34.0791 24.5164 34.0847 24.515ZM34.1637 24.5337C34.168 24.5374 34.1699 24.5402 34.1697 24.5407C34.1695 24.5411 34.1674 24.5393 34.1637 24.5337Z" fill="#FBF8EF" stroke="#111111"/>
<path d="M32.4693 28.456C32.4562 28.4079 32.4425 28.3597 32.4283 28.3116C32.3062 27.8988 32.1284 27.4421 31.8627 27.1029C31.727 26.9298 31.551 26.7646 31.3247 26.663C31.0885 26.5569 30.8266 26.5337 30.5578 26.6057C30.2891 26.6777 30.0739 26.8288 29.9223 27.0387C29.7772 27.2399 29.7074 27.471 29.6765 27.6887C29.6159 28.1153 29.6903 28.5998 29.7909 29.0182C29.8027 29.067 29.8149 29.1156 29.8276 29.1638C29.7844 29.139 29.7406 29.1146 29.6965 29.0907C29.3184 28.8851 28.8697 28.6879 28.442 28.636C28.2236 28.6095 27.9823 28.6171 27.7505 28.7053C27.5085 28.7973 27.3069 28.9661 27.1677 29.207C27.0286 29.448 26.9832 29.707 27.0246 29.9626C27.0641 30.2074 27.1782 30.4203 27.3103 30.5961C27.5691 30.9405 27.9643 31.2305 28.3314 31.4552C28.3742 31.4814 28.4172 31.5071 28.4602 31.5322C28.4121 31.5453 28.3639 31.559 28.3158 31.5732C27.9031 31.6952 27.4463 31.8731 27.1072 32.1388C26.9341 32.2744 26.7688 32.4505 26.6672 32.6767C26.5612 32.9129 26.538 33.1749 26.61 33.4436C26.682 33.7124 26.833 33.9276 27.043 34.0791C27.2441 34.2243 27.4752 34.2941 27.693 34.325C28.1195 34.3856 28.604 34.3112 29.0225 34.2105C29.0713 34.1988 29.1199 34.1865 29.168 34.1738C29.1433 34.2171 29.1189 34.2608 29.0949 34.3049C28.8894 34.6831 28.6922 35.1318 28.6402 35.5595C28.6137 35.7778 28.6214 36.0192 28.7095 36.251C28.8015 36.493 28.9703 36.6946 29.2113 36.8337C29.4523 36.9728 29.7113 37.0182 29.9669 36.9769C30.2117 36.9373 30.4245 36.8233 30.6003 36.6912C30.9448 36.4324 31.2348 36.0372 31.4595 35.6701C31.4857 35.6273 31.5114 35.5843 31.5365 35.5412C31.5496 35.5893 31.5632 35.6375 31.5775 35.6856C31.6995 36.0984 31.8774 36.5551 32.1431 36.8943C32.2787 37.0674 32.4548 37.2326 32.681 37.3342C32.9172 37.4403 33.1791 37.4635 33.4479 37.3915C33.7166 37.3195 33.9319 37.1684 34.0834 36.9585C34.2285 36.7574 34.2984 36.5262 34.3293 36.3085C34.3898 35.8819 34.3155 35.3974 34.2148 34.979C34.2031 34.9302 34.1908 34.8816 34.1781 34.8334C34.2214 34.8582 34.2651 34.8826 34.3092 34.9065C34.6873 35.1121 35.1361 35.3093 35.5638 35.3612C35.7821 35.3877 36.0234 35.3801 36.2552 35.292C36.4973 35.1999 36.6989 35.0311 36.838 34.7902C36.9771 34.5492 37.0225 34.2902 36.9812 34.0346C36.9416 33.7898 36.8275 33.5769 36.6954 33.4011C36.4366 33.0567 36.0415 32.7667 35.6744 32.542C35.6316 32.5158 35.5886 32.4901 35.5455 32.465C35.5936 32.4519 35.6418 32.4382 35.6899 32.424C36.1027 32.302 36.5594 32.1241 36.8985 31.8584C37.0717 31.7228 37.2369 31.5467 37.3385 31.3205C37.4446 31.0843 37.4678 30.8223 37.3957 30.5536C37.3237 30.2848 37.1727 30.0696 36.9627 29.9181C36.7616 29.7729 36.5305 29.7031 36.3127 29.6722C35.8862 29.6117 35.4017 29.686 34.9832 29.7867C34.9344 29.7984 34.8859 29.8107 34.8377 29.8234C34.8624 29.7801 34.8868 29.7364 34.9108 29.6923C35.1164 29.3141 35.3136 28.8654 35.3655 28.4377C35.392 28.2194 35.3843 27.978 35.2962 27.7462C35.2042 27.5042 35.0354 27.3026 34.7944 27.1635C34.5535 27.0244 34.2945 26.979 34.0389 27.0203C33.794 27.0599 33.5812 27.1739 33.4054 27.306C33.061 27.5649 32.7709 27.96 32.5462 28.3271C32.52 28.3699 32.4944 28.4129 32.4693 28.456Z" fill="#F2995A" stroke="#111111"/>
<rect x="30.5" y="30.5" width="3" height="3" rx="1.5" fill="#FBF8EF" stroke="#111111"/>
</g>
<defs>
<clipPath id="clip0_403_41">
<rect width="64" height="64" fill="white"/>
</clipPath>
</defs>
</svg>
