<svg width="64" height="64" viewBox="0 0 64 64" fill="none" xmlns="http://www.w3.org/2000/svg">
<g clip-path="url(#clip0_400_1631)">
<rect width="64" height="64" fill="#6CB9E0"/>
<rect y="64" width="64" height="64" rx="32" transform="rotate(-90 0 64)" fill="#FBF8EF"/>
<path d="M28.8503 32.0025C28.5189 32.0604 28.1667 32.1232 27.7965 32.1909C25.336 32.6409 22.0774 33.3067 18.8959 34.1691C15.724 35.0288 12.5901 36.0939 10.4018 37.3537C9.31098 37.9816 8.40917 38.6834 7.86718 39.4714C7.3079 40.2845 7.12862 41.2012 7.52711 42.161C7.92559 43.1208 8.70144 43.641 9.67213 43.8189C10.6128 43.9913 11.7465 43.848 12.9613 43.5187C15.3984 42.8581 18.3652 41.3905 21.2133 39.7509C24.0701 38.1063 26.8421 36.2684 28.8977 34.8434C29.207 34.629 29.5002 34.4239 29.7751 34.2301C29.5817 34.5054 29.3771 34.7989 29.1632 35.1085C27.7416 37.1665 25.9082 39.9415 24.2683 42.8009C22.6334 45.6517 21.1705 48.6208 20.5139 51.059C20.1866 52.2744 20.0452 53.4083 20.2191 54.3487C20.3986 55.3191 20.92 56.0941 21.8805 56.491C22.841 56.8879 23.7574 56.7071 24.5696 56.1465C25.3566 55.6033 26.057 54.7003 26.6831 53.6085C27.9393 51.4181 28.9993 48.2825 29.8539 45.1092C30.711 41.9263 31.3715 38.6666 31.8175 36.2054C31.8846 35.8351 31.9468 35.4827 32.0042 35.1513C32.0621 35.4827 32.125 35.8349 32.1927 36.2051C32.6426 38.6655 33.3084 41.9242 34.1708 45.1057C35.0305 48.2775 36.0956 51.4114 37.3554 53.5998C37.9833 54.6906 38.6852 55.5924 39.4731 56.1344C40.2862 56.6937 41.2029 56.8729 42.1627 56.4745C43.1225 56.076 43.6427 55.3001 43.8206 54.3294C43.993 53.3887 43.8497 52.255 43.5204 51.0402C42.8599 48.6031 41.3922 45.6364 39.7526 42.7883C38.108 39.9315 36.2701 37.1595 34.8451 35.1039C34.6307 34.7946 34.4256 34.5014 34.2318 34.2265C34.5071 34.4198 34.8006 34.6245 35.1102 34.8384C37.1682 36.26 39.9432 38.0934 42.8026 39.7333C45.6534 41.3682 48.6225 42.831 51.0607 43.4877C52.2761 43.8149 53.41 43.9564 54.3504 43.7824C55.3208 43.603 56.0958 43.0815 56.4927 42.1211C56.8896 41.1606 56.7089 40.2442 56.1483 39.432C55.605 38.6449 54.702 37.9446 53.6102 37.3184C51.4198 36.0623 48.2842 35.0023 45.1109 34.1477C41.928 33.2905 38.6683 32.63 36.2071 32.1841C35.8368 32.117 35.4845 32.0547 35.153 31.9974C35.4844 31.9394 35.8366 31.8766 36.2068 31.8089C38.6672 31.359 41.9259 30.6931 45.1074 29.8308C48.2793 28.971 51.4131 27.9059 53.6015 26.6462C54.6923 26.0182 55.5941 25.3164 56.1361 24.5285C56.6954 23.7154 56.8746 22.7987 56.4762 21.8388C56.0777 20.879 55.3018 20.3588 54.3311 20.181C53.3905 20.0086 52.2568 20.1518 51.0419 20.4811C48.6048 21.1417 45.6381 22.6094 42.79 24.249C39.9332 25.8935 37.1612 27.7315 35.1056 29.1564C34.7963 29.3708 34.5031 29.576 34.2282 29.7698C34.4215 29.4945 34.6262 29.201 34.8401 28.8914C36.2617 26.8334 38.0951 24.0584 39.735 21.1989C41.3699 18.3482 42.8328 15.379 43.4894 12.9409C43.8167 11.7255 43.9581 10.5916 43.7842 9.65116C43.6047 8.68077 43.0832 7.90577 42.1228 7.50885C41.1623 7.11194 40.2459 7.29271 39.4337 7.85331C38.6467 8.39658 37.9463 9.29954 37.3201 10.3914C36.064 12.5818 35.004 15.7174 34.1494 18.8907C33.2922 22.0736 32.6317 25.3333 32.1858 27.7945C32.1187 28.1648 32.0564 28.5171 31.9991 28.8486C31.9412 28.5172 31.8783 28.165 31.8106 27.7948C31.3607 25.3343 30.6949 22.0757 29.8325 18.8942C28.9727 15.7223 27.9076 12.5884 26.6479 10.4001C26.0199 9.30927 25.3181 8.40746 24.5302 7.86547C23.7171 7.30619 22.8004 7.12692 21.8406 7.5254C20.8807 7.92388 20.3606 8.69973 20.1827 9.67042C20.0103 10.6111 20.1536 11.7448 20.4828 12.9596C21.1434 15.3967 22.6111 18.3635 24.2507 21.2116C25.8952 24.0683 27.7332 26.8404 29.1581 28.896C29.3725 29.2053 29.5777 29.4985 29.7715 29.7734C29.4962 29.58 29.2027 29.3754 28.8931 29.1615C26.8351 27.7399 24.0601 25.9065 21.2007 24.2666C18.3499 22.6317 15.3807 21.1688 12.9426 20.5122C11.7272 20.1849 10.5933 20.0435 9.65287 20.2174C8.68248 20.3969 7.90748 20.9183 7.51056 21.8788C7.11365 22.8392 7.29442 23.7557 7.85502 24.5678C8.39829 25.3549 9.30125 26.0553 10.3931 26.6814C12.5835 27.9376 15.7191 28.9976 18.8924 29.8522C22.0753 30.7093 25.335 31.3698 27.7962 31.8158C28.1665 31.8829 28.5188 31.9451 28.8503 32.0025Z" fill="#FBF8EF" stroke="#111111"/>
<path d="M29.0885 33.206C28.8044 33.3861 28.5029 33.5787 28.1866 33.7826C26.0845 35.1382 23.3272 36.9981 20.7163 39.0102C18.1132 41.0162 15.6237 43.1975 14.0824 45.1975C13.3141 46.1945 12.7487 47.1875 12.5487 48.1227C12.3424 49.0878 12.5268 50.0035 13.2617 50.7383C13.9965 51.4732 14.9123 51.6576 15.8773 51.4513C16.8125 51.2513 17.8056 50.6859 18.8025 49.9176C20.8026 48.3763 22.9838 45.8868 24.9898 43.2838C27.0019 40.6728 28.8619 37.9155 30.2174 35.8134C30.4214 35.4972 30.614 35.1956 30.794 34.9115C30.7205 35.2397 30.6434 35.5891 30.564 35.957C30.0362 38.4019 29.4016 41.6668 28.9781 44.9358C28.556 48.1949 28.338 51.4976 28.6624 54.0017C28.8241 55.25 29.1265 56.3519 29.6464 57.1546C30.1829 57.9829 30.9608 58.5 32 58.5C33.0393 58.5 33.8172 57.9829 34.3537 57.1546C34.8736 56.3519 35.176 55.2499 35.3377 54.0017C35.662 51.4976 35.4441 48.1949 35.0219 44.9358C34.5984 41.6668 33.9639 38.4019 33.436 35.957C33.3566 35.5891 33.2796 35.2397 33.206 34.9115C33.3861 35.1956 33.5787 35.4972 33.7826 35.8134C35.1382 37.9155 36.9981 40.6728 39.0102 43.2838C41.0162 45.8868 43.1975 48.3763 45.1975 49.9176C46.1945 50.6859 47.1875 51.2513 48.1228 51.4513C49.0878 51.6576 50.0035 51.4732 50.7384 50.7383C51.4732 50.0035 51.6577 49.0878 51.4513 48.1227C51.2513 47.1875 50.6859 46.1945 49.9177 45.1975C48.3764 43.1975 45.8868 41.0162 43.2838 39.0102C40.6728 36.9981 37.9155 35.1382 35.8134 33.7826C35.4972 33.5787 35.1956 33.386 34.9115 33.206C35.2397 33.2795 35.5892 33.3566 35.957 33.436C38.4019 33.9639 41.6668 34.5984 44.9358 35.0219C48.1949 35.4441 51.4976 35.662 54.0018 35.3376C55.25 35.1759 56.352 34.8735 57.1547 34.3536C57.9829 33.8172 58.5 33.0392 58.5 32C58.5 30.9608 57.9829 30.1828 57.1547 29.6464C56.352 29.1265 55.25 28.8241 54.0018 28.6624C51.4976 28.338 48.1949 28.5559 44.9358 28.9781C41.6668 29.4016 38.4019 30.0361 35.957 30.564C35.5892 30.6434 35.2397 30.7205 34.9115 30.794C35.1956 30.614 35.4972 30.4213 35.8134 30.2174C37.9155 28.8618 40.6728 27.0019 43.2838 24.9898C45.8868 22.9838 48.3764 20.8025 49.9177 18.8025C50.6859 17.8055 51.2513 16.8125 51.4513 15.8773C51.6577 14.9122 51.4732 13.9965 50.7384 13.2617C50.0035 12.5268 49.0878 12.3424 48.1228 12.5487C47.1875 12.7487 46.1945 13.3141 45.1975 14.0824C43.1975 15.6237 41.0162 18.1132 39.0102 20.7162C36.9981 23.3272 35.1382 26.0845 33.7826 28.1866C33.5787 28.5028 33.3861 28.8044 33.206 29.0885C33.2796 28.7603 33.3566 28.4109 33.436 28.043C33.9639 25.5981 34.5984 22.3332 35.0219 19.0642C35.4441 15.8051 35.662 12.5024 35.3377 9.99827C35.176 8.75005 34.8736 7.64806 34.3537 6.84537C33.8172 6.01708 33.0393 5.5 32 5.5C30.9608 5.5 30.1829 6.01708 29.6464 6.84537C29.1265 7.64806 28.8241 8.75005 28.6624 9.99827C28.338 12.5024 28.556 15.8051 28.9781 19.0642C29.4016 22.3332 30.0362 25.5981 30.564 28.043C30.6434 28.4109 30.7205 28.7603 30.794 29.0885C30.614 28.8044 30.4214 28.5028 30.2174 28.1866C28.8619 26.0845 27.0019 23.3272 24.9898 20.7162C22.9838 18.1132 20.8026 15.6237 18.8025 14.0824C17.8056 13.3141 16.8125 12.7487 15.8773 12.5487C14.9123 12.3424 13.9965 12.5268 13.2617 13.2617C12.5268 13.9965 12.3424 14.9122 12.5487 15.8773C12.7487 16.8125 13.3141 17.8055 14.0824 18.8025C15.6237 20.8025 18.1132 22.9838 20.7163 24.9898C23.3272 27.0019 26.0845 28.8618 28.1866 30.2174C28.5029 30.4213 28.8044 30.6139 29.0885 30.794C28.7603 30.7205 28.4109 30.6434 28.043 30.564C25.5981 30.0361 22.3333 29.4016 19.0643 28.9781C15.8052 28.5559 12.5024 28.338 9.99829 28.6624C8.75007 28.8241 7.64809 29.1265 6.8454 29.6464C6.01711 30.1828 5.50002 30.9608 5.50002 32C5.50002 33.0392 6.01711 33.8172 6.8454 34.3536C7.64809 34.8735 8.75007 35.1759 9.99829 35.3376C12.5024 35.662 15.8052 35.4441 19.0643 35.0219C22.3333 34.5984 25.5981 33.9639 28.043 33.436C28.4109 33.3566 28.7603 33.2795 29.0885 33.206Z" fill="#FBF8EF" stroke="#111111"/>
<path d="M29.7175 29.6804C29.7506 29.7281 29.7835 29.7754 29.8161 29.8221C29.7692 29.7897 29.7219 29.757 29.674 29.724C28.0885 28.6309 25.9497 27.2207 23.7451 25.9591C21.5491 24.7025 19.2535 23.5731 17.3626 23.0658C16.4208 22.8131 15.5289 22.7003 14.7808 22.8394C14.0028 22.9841 13.3705 23.4072 13.0485 24.1884C12.7265 24.9696 12.877 25.7154 13.3272 26.3663C13.76 26.9921 14.4724 27.5405 15.3187 28.0248C17.018 28.9972 19.4427 29.8133 21.8863 30.469C24.3396 31.1272 26.851 31.6335 28.7462 31.9751C28.8034 31.9854 28.8601 31.9956 28.9162 32.0056C28.8601 32.0158 28.8035 32.0261 28.7464 32.0366C26.8523 32.3849 24.3427 32.9001 21.8917 33.5669C19.4504 34.2311 17.0286 35.0557 15.3328 36.0341C14.4882 36.5214 13.7778 37.0723 13.3471 37.6996C12.8993 38.352 12.7514 39.0984 13.0761 39.8784C13.4008 40.6585 14.0346 41.0794 14.8131 41.2213C15.5617 41.3578 16.4532 41.2419 17.3941 40.9859C19.2832 40.4719 21.5749 39.3345 23.7664 38.0702C25.9665 36.8008 28.1004 35.3831 29.6821 34.2845C29.7298 34.2513 29.777 34.2184 29.8238 34.1859C29.7914 34.2327 29.7586 34.28 29.7257 34.3279C28.6326 35.9134 27.2223 38.0523 25.9608 40.2569C24.7041 42.4528 23.5748 44.7484 23.0675 46.6394C22.8148 47.5811 22.702 48.473 22.8411 49.2211C22.9857 49.9992 23.4089 50.6315 24.1901 50.9534C24.9713 51.2754 25.7171 51.1249 26.368 50.6747C26.9937 50.2419 27.5422 49.5295 28.0265 48.6833C28.9989 46.984 29.815 44.5593 30.4706 42.1156C31.1288 39.6624 31.6352 37.151 31.9768 35.2557C31.9871 35.1985 31.9972 35.1419 32.0072 35.0858C32.0174 35.1418 32.0278 35.1984 32.0383 35.2556C32.3865 37.1496 32.9017 39.6592 33.5685 42.1102C34.2327 44.5515 35.0574 46.9733 36.0358 48.6692C36.523 49.5137 37.074 50.2242 37.7013 50.6548C38.3537 51.1027 39.1001 51.2506 39.8801 50.9258C40.6601 50.6011 41.0811 49.9674 41.223 49.1888C41.3595 48.4402 41.2435 47.5487 40.9876 46.6079C40.4736 44.7187 39.3362 42.4271 38.0718 40.2356C36.8025 38.0354 35.3847 35.9015 34.2861 34.3199C34.253 34.2721 34.2201 34.2249 34.1875 34.1782C34.2344 34.2106 34.2817 34.2433 34.3296 34.2763C35.9151 35.3693 38.0539 36.7796 40.2585 38.0412C42.4545 39.2978 44.7501 40.4271 46.6411 40.9345C47.5828 41.1871 48.4747 41.2999 49.2228 41.1609C50.0008 41.0162 50.6331 40.593 50.9551 39.8118C51.2771 39.0307 51.1266 38.2848 50.6764 37.634C50.2436 37.0082 49.5312 36.4598 48.6849 35.9755C46.9856 35.0031 44.5609 34.1869 42.1173 33.5313C39.664 32.8731 37.1526 32.3668 35.2574 32.0252C35.2002 32.0149 35.1435 32.0047 35.0875 31.9947C35.1435 31.9845 35.2001 31.9741 35.2573 31.9636C37.1513 31.6154 39.6609 31.1002 42.1119 30.4334C44.5532 29.7692 46.975 28.9445 48.6708 27.9662C49.5154 27.4789 50.2259 26.928 50.6565 26.3007C51.1044 25.6482 51.2522 24.9019 50.9275 24.1218C50.6028 23.3418 49.969 22.9208 49.1905 22.7789C48.4419 22.6425 47.5504 22.7584 46.6095 23.0144C44.7204 23.5284 42.4288 24.6658 40.2373 25.9301C38.0371 27.1994 35.9032 28.6172 34.3216 29.7158C34.2738 29.749 34.2266 29.7818 34.1799 29.8144C34.2123 29.7676 34.245 29.7202 34.278 29.6724C35.371 28.0869 36.7813 25.948 38.0428 23.7434C39.2995 21.5475 40.4288 19.2519 40.9361 17.3609C41.1888 16.4192 41.3016 15.5272 41.1625 14.7792C41.0179 14.0011 40.5947 13.3688 39.8135 13.0468C39.0323 12.7249 38.2865 12.8754 37.6357 13.3255C37.0099 13.7584 36.4614 14.4707 35.9772 15.317C35.0047 17.0163 34.1886 19.441 33.533 21.8846C32.8748 24.3379 32.3684 26.8493 32.0269 28.7446C32.0166 28.8018 32.0064 28.8584 31.9964 28.9145C31.9862 28.8585 31.9758 28.8018 31.9653 28.7447C31.6171 26.8506 31.1019 24.341 30.4351 21.8901C29.7709 19.4488 28.9462 17.0269 27.9678 15.3311C27.4806 14.4865 26.9296 13.7761 26.3023 13.3455C25.6499 12.8976 24.9036 12.7497 24.1235 13.0744C23.3435 13.3991 22.9225 14.0329 22.7806 14.8115C22.6442 15.56 22.7601 16.4515 23.0161 17.3924C23.53 19.2816 24.6674 21.5732 25.9318 23.7647C27.2011 25.9648 28.6189 28.0987 29.7175 29.6804Z" fill="#FBF8EF" stroke="#111111"/>
<path d="M53.5664 31.9989L53.8602 32.4035L54.4174 31.9989L53.8602 31.5943L53.5664 31.9989ZM53.5664 31.9989C53.8602 32.4035 53.8601 32.4036 53.8599 32.4037L53.8593 32.4042L53.8572 32.4057L53.8494 32.4113L53.8197 32.4326C53.7938 32.4512 53.7557 32.4784 53.7061 32.5135C53.6068 32.5837 53.4616 32.6853 53.2762 32.8124C52.9055 33.0666 52.3736 33.4227 51.7269 33.8323C50.4351 34.6503 48.6772 35.6864 46.8252 36.548C44.9832 37.4051 43.0036 38.111 41.2798 38.2305C39.5421 38.3509 37.9441 37.8723 37.1192 36.2226C36.3942 34.7727 36.0185 33.3947 36.0185 31.9989C36.0185 30.6032 36.3942 29.2252 37.1192 27.7753C37.9441 26.1256 39.5421 25.647 41.2798 25.7674C43.0036 25.8868 44.9832 26.5928 46.8252 27.4498C48.6772 28.3115 50.4351 29.3476 51.7269 30.1656C52.3736 30.5751 52.9055 30.9313 53.2762 31.1854C53.4616 31.3125 53.6068 31.4142 53.7061 31.4843C53.7557 31.5194 53.7938 31.5466 53.8197 31.5652L53.8494 31.5865L53.8572 31.5921L53.8593 31.5937L53.8599 31.5941C53.8601 31.5942 53.8602 31.5943 53.5664 31.9989Z" fill="#6CB9E0" stroke="#111111"/>
<path d="M10.5654 31.999L10.2716 31.5944L9.71441 31.999L10.2716 32.4036L10.5654 31.999ZM10.5654 31.999C10.2716 32.4036 10.2717 32.4037 10.2719 32.4038L10.2725 32.4043L10.2746 32.4058L10.2824 32.4114L10.3121 32.4327C10.338 32.4513 10.3761 32.4785 10.4257 32.5136C10.525 32.5838 10.6702 32.6854 10.8556 32.8125C11.2263 33.0667 11.7582 33.4228 12.4049 33.8323C13.6967 34.6503 15.4546 35.6864 17.3066 36.5481C19.1486 37.4051 21.1282 38.111 22.852 38.2305C24.5897 38.3509 26.1877 37.8723 27.0126 36.2225C27.7376 34.7726 28.1133 33.3947 28.1133 31.9989C28.1133 30.6032 27.7376 29.2252 27.0126 27.7753C26.1877 26.1256 24.5897 25.647 22.852 25.7674C21.1282 25.8869 19.1486 26.5928 17.3066 27.4499C15.4546 28.3116 13.6967 29.3477 12.4049 30.1657C11.7582 30.5752 11.2263 30.9314 10.8556 31.1855C10.6702 31.3126 10.525 31.4143 10.4257 31.4844C10.3761 31.5195 10.338 31.5467 10.3121 31.5653L10.2824 31.5866L10.2746 31.5922L10.2725 31.5938L10.2719 31.5942C10.2717 31.5943 10.2716 31.5944 10.5654 31.999Z" fill="#6CB9E0" stroke="#111111"/>
<path d="M32.062 10.499L32.4666 10.2052L32.062 9.64804L31.6574 10.2052L32.062 10.499ZM32.062 10.499C32.4666 10.2052 32.4667 10.2054 32.4668 10.2055L32.4673 10.2062L32.4688 10.2083L32.4744 10.216L32.4957 10.2457C32.5143 10.2716 32.5415 10.3097 32.5766 10.3594C32.6468 10.4586 32.7484 10.6038 32.8755 10.7892C33.1297 11.1599 33.4858 11.6918 33.8953 12.3386C34.7133 13.6303 35.7494 15.3882 36.6111 17.2402C37.4681 19.0822 38.174 21.0618 38.2935 22.7856C38.4139 24.5233 37.9353 26.1214 36.2855 26.9462C34.8356 27.6712 33.4577 28.0469 32.0619 28.0469C30.6661 28.0469 29.2882 27.6712 27.8383 26.9462C26.1885 26.1214 25.7099 24.5233 25.8304 22.7856C25.9498 21.0618 26.6558 19.0822 27.5129 17.2402C28.3746 15.3882 29.4107 13.6303 30.2287 12.3386C30.6382 11.6918 30.9944 11.1599 31.2485 10.7892C31.3756 10.6038 31.4773 10.4586 31.5474 10.3594C31.5825 10.3097 31.6097 10.2716 31.6283 10.2457L31.6496 10.216L31.6552 10.2083L31.6568 10.2061L31.6572 10.2055C31.6573 10.2054 31.6574 10.2052 32.062 10.499Z" fill="#6CB9E0" stroke="#111111"/>
<path d="M32.0617 53.499L31.651 53.7842L32.0616 54.3754L32.4723 53.7842L32.0617 53.499ZM32.0617 53.499C32.4723 53.7842 32.4724 53.7841 32.4725 53.784L32.4729 53.7833L32.4745 53.7811L32.4803 53.7727L32.5025 53.7405C32.5219 53.7122 32.5503 53.6707 32.587 53.6166C32.6603 53.5086 32.7667 53.3504 32.8996 53.149C33.1654 52.7463 33.5378 52.1699 33.9655 51.4738C34.8197 50.0834 35.8994 48.2069 36.79 46.2767C37.6744 44.3599 38.3983 42.3363 38.495 40.6672C38.5436 39.829 38.4373 39.0316 38.0679 38.3761C37.6884 37.7027 37.0613 37.2329 36.1852 37.0139C35.3578 36.807 34.6904 36.8085 34.043 36.8584C33.8397 36.874 33.6455 36.8934 33.4519 36.9127C33.018 36.956 32.5873 36.999 32.0639 36.999C31.5405 36.999 31.1098 36.956 30.6759 36.9127C30.4823 36.8934 30.2881 36.874 30.0848 36.8584C29.4374 36.8085 28.77 36.807 27.9426 37.0139C27.0665 37.2329 26.4394 37.7026 26.0597 38.376C25.6902 39.0315 25.5837 39.8289 25.632 40.6671C25.7284 42.3362 26.4516 44.3598 27.3356 46.2766C28.2256 48.2068 29.3047 50.0833 30.1585 51.4737C30.586 52.1698 30.9582 52.7462 31.2239 53.1489C31.3568 53.3504 31.4631 53.5085 31.5364 53.6166C31.573 53.6706 31.6014 53.7122 31.6208 53.7404L31.643 53.7726L31.6488 53.781L31.6504 53.7832L31.6508 53.7839C31.6509 53.784 31.651 53.7842 32.0617 53.499Z" fill="#6CB9E0" stroke="#111111"/>
<path d="M47.2684 16.7964L47.7623 16.8748L47.8702 16.1947L47.1901 16.3026L47.2684 16.7964ZM47.2684 16.7964C47.7623 16.8748 47.7622 16.8749 47.7622 16.8752L47.7621 16.8759L47.7617 16.8785L47.7601 16.8879L47.7542 16.924C47.7491 16.9555 47.7413 17.0017 47.7311 17.0615C47.7105 17.1813 47.6797 17.3559 47.6385 17.5768C47.5561 18.0187 47.4318 18.6466 47.2641 19.3935C46.9291 20.8853 46.4188 22.861 45.7186 24.7798C45.0221 26.6883 44.1215 28.5873 42.9872 29.8906C41.8436 31.2045 40.3752 31.996 38.6254 31.4128C37.0875 30.9001 35.8475 30.1915 34.8605 29.2045C33.8736 28.2175 33.1649 26.9775 32.6523 25.4397C32.069 23.6898 32.8605 22.2214 34.1744 21.0778C35.4777 19.9435 37.3767 19.0428 39.2851 18.3464C41.2039 17.6462 43.1796 17.1358 44.6714 16.8008C45.4183 16.6331 46.0462 16.5088 46.488 16.4264C46.709 16.3852 46.8835 16.3544 47.0033 16.3338C47.0632 16.3235 47.1094 16.3158 47.1409 16.3106L47.1769 16.3047L47.1864 16.3032L47.189 16.3028L47.1897 16.3027C47.1899 16.3026 47.1901 16.3026 47.2684 16.7964Z" fill="#6CB9E0" stroke="#111111"/>
<path d="M16.8622 47.2022L16.3683 47.1239L16.2604 47.804L16.9405 47.696L16.8622 47.2022ZM16.8622 47.2022C16.9405 47.696 16.9407 47.696 16.9409 47.696L16.9416 47.6959L16.9442 47.6955L16.9537 47.6939L16.9897 47.688C17.0212 47.6828 17.0674 47.6751 17.1273 47.6648C17.247 47.6443 17.4216 47.6135 17.6426 47.5723C18.0844 47.4898 18.7124 47.3656 19.4593 47.1978C20.9511 46.8628 22.9268 46.3524 24.8457 45.6522C26.7542 44.9557 28.6532 44.0551 29.9566 42.9206C31.2705 41.777 32.0621 40.3086 31.4788 38.5588C30.9662 37.0209 30.2576 35.7809 29.2706 34.7939C28.2836 33.807 27.0436 33.0983 25.5058 32.5857C23.7559 32.0024 22.2875 32.794 21.1439 34.1079C20.0094 35.4112 19.1088 37.3102 18.4123 39.2187C17.712 41.1376 17.2016 43.1133 16.8666 44.6051C16.6988 45.352 16.5746 45.9799 16.4921 46.4218C16.4509 46.6428 16.4201 46.8173 16.3995 46.9371C16.3892 46.997 16.3815 47.0432 16.3763 47.0747L16.3704 47.1107L16.3689 47.1202L16.3685 47.1227L16.3684 47.1235C16.3684 47.1237 16.3683 47.1239 16.8622 47.2022Z" fill="#6CB9E0" stroke="#111111"/>
<path d="M16.8623 16.7959L16.9406 16.3021L16.2606 16.1942L16.3685 16.8743L16.8623 16.7959ZM16.8623 16.7959C16.9406 16.3021 16.9408 16.3021 16.941 16.3021L16.9418 16.3023L16.9443 16.3027L16.9538 16.3042L16.9898 16.3101C17.0213 16.3153 17.0675 16.323 17.1274 16.3333C17.2472 16.3538 17.4217 16.3846 17.6427 16.4259C18.0846 16.5083 18.7125 16.6326 19.4594 16.8003C20.9512 17.1353 22.9269 17.6457 24.8458 18.346C26.7543 19.0424 28.6533 19.9431 29.9567 21.0775C31.2706 22.2211 32.0622 23.6895 31.4789 25.4393C30.9663 26.9772 30.2576 28.2172 29.2706 29.2042C28.2837 30.1911 27.0436 30.8998 25.5058 31.4124C23.756 31.9957 22.2875 31.2041 21.1439 29.8902C20.0095 28.5869 19.1089 26.6879 18.4124 24.7794C17.7121 22.8605 17.2017 20.8848 16.8667 19.393C16.699 18.6461 16.5747 18.0182 16.4923 17.5763C16.451 17.3554 16.4202 17.1808 16.3997 17.061C16.3894 17.0011 16.3817 16.9549 16.3765 16.9235L16.3706 16.8874L16.3691 16.8779L16.3686 16.8754L16.3685 16.8746C16.3685 16.8744 16.3685 16.8743 16.8623 16.7959Z" fill="#6CB9E0" stroke="#111111"/>
<path d="M47.2645 47.2018L47.1861 47.6956L47.8662 47.8035L47.7583 47.1234L47.2645 47.2018ZM47.2645 47.2018C47.7583 47.1234 47.7583 47.1232 47.7582 47.123L47.7581 47.1223L47.7577 47.1197L47.7562 47.1102L47.7503 47.0742C47.7451 47.0427 47.7374 46.9965 47.7271 46.9366C47.7065 46.8169 47.6758 46.6423 47.6345 46.4213C47.5521 45.9795 47.4278 45.3515 47.2601 44.6046C46.9251 43.1128 46.4148 41.1371 45.7145 39.2182C45.0181 37.3097 44.1175 35.4107 42.9831 34.1073C41.8395 32.7934 40.3711 32.0018 38.6213 32.5851C37.0835 33.0977 35.8434 33.8064 34.8565 34.7934C33.8695 35.7803 33.1608 37.0203 32.6482 38.5582C32.0649 40.308 32.8565 41.7764 34.1704 42.9201C35.4737 44.0545 37.3726 44.9551 39.2811 45.6516C41.1999 46.3519 43.1756 46.8623 44.6674 47.1973C45.4143 47.3651 46.0422 47.4893 46.4841 47.5718C46.705 47.613 46.8796 47.6438 46.9994 47.6644C47.0592 47.6747 47.1054 47.6824 47.1369 47.6876L47.1729 47.6935L47.1824 47.695L47.185 47.6954L47.1857 47.6955C47.186 47.6955 47.1861 47.6956 47.2645 47.2018Z" fill="#6CB9E0" stroke="#111111"/>
<rect x="21.5" y="21.5" width="21" height="21" rx="10.5" fill="#FBF8EF" stroke="#111111"/>
<rect x="24.5" y="24.5" width="15" height="15" rx="7.5" fill="#6CB9E0" stroke="#111111"/>
<path d="M61 53V61H53L61 53Z" fill="#FBF8EF"/>
<path d="M53 3H61V11L53 3Z" fill="#FBF8EF"/>
<path d="M11 3H3V11L11 3Z" fill="#FBF8EF"/>
<path d="M11 61H3V53L11 61Z" fill="#FBF8EF"/>
</g>
<defs>
<clipPath id="clip0_400_1631">
<rect width="64" height="64" fill="white"/>
</clipPath>
</defs>
</svg>
