<svg width="64" height="64" viewBox="0 0 64 64" fill="none" xmlns="http://www.w3.org/2000/svg">
<g clip-path="url(#clip0_379_1596)">
<rect width="64" height="64" fill="#FBF8EF"/>
<rect x="-3.34743" y="32" width="50" height="50" transform="rotate(-45 -3.34743 32)" fill="#FBF8EF"/>
<rect x="-3.34743" y="32" width="50" height="50" transform="rotate(-45 -3.34743 32)" stroke="#7ECEA6" stroke-width="3"/>
<rect width="41" height="41" transform="translate(3 32) rotate(-45)" fill="#7ECEA6"/>
<path d="M30.3796 31.9703C29.9232 32.0374 29.3845 32.12 28.7846 32.2179C26.8875 32.5274 24.3755 32.9908 21.9208 33.606C19.4709 34.2199 17.0588 34.9896 15.373 35.9175C14.5318 36.3806 13.8482 36.8953 13.4368 37.4694C13.0166 38.0559 12.8786 38.7107 13.1515 39.4053C13.4245 40.1 13.9713 40.4857 14.6784 40.6293C15.3705 40.7698 16.2217 40.6816 17.1531 40.4482C19.0197 39.9804 21.3107 38.9023 23.5232 37.6845C25.7402 36.4642 27.8959 35.0937 29.4962 34.0291C30.0023 33.6925 30.4532 33.3862 30.8332 33.1248C30.5579 33.4949 30.2354 33.9342 29.8804 34.4276C28.7578 35.9878 27.3091 38.0917 26.0083 40.2623C24.7101 42.4286 23.5487 44.6784 23.0128 46.5265C22.7453 47.4488 22.6259 48.2961 22.741 48.9928C22.8586 49.7047 23.224 50.2653 23.9082 50.5635C24.5923 50.8617 25.2518 50.7477 25.8533 50.3493C26.4421 49.9593 26.9816 49.2951 27.4751 48.4715C28.4643 46.8209 29.322 44.4387 30.0254 42.0131C30.7302 39.5827 31.2854 37.0894 31.6643 35.2051C31.7842 34.6092 31.8864 34.0739 31.9702 33.6204C32.0373 34.0767 32.1198 34.6154 32.2177 35.2153C32.5271 37.1122 32.9904 39.6241 33.6054 42.0787C34.2192 44.5284 34.9888 46.9404 35.9166 48.6261C36.3796 49.4673 36.8943 50.1508 37.4683 50.5621C38.0548 50.9823 38.7096 51.1203 39.4042 50.8474C40.0988 50.5745 40.4846 50.0276 40.6282 49.3206C40.7688 48.6285 40.6806 47.7774 40.4472 46.846C39.9796 44.9795 38.9016 42.6887 37.6839 40.4762C36.4638 38.2594 35.0934 36.1039 34.029 34.5036C33.6923 33.9975 33.3861 33.5467 33.1247 33.1668C33.4948 33.4419 33.934 33.7645 34.4274 34.1195C35.9875 35.2419 38.0913 36.6905 40.2617 37.9911C42.4279 39.2892 44.6776 40.4505 46.5256 40.9863C47.4478 41.2537 48.295 41.3731 48.9918 41.258C49.7036 41.1404 50.2642 40.7749 50.5624 40.0908C50.8606 39.4066 50.7466 38.7472 50.3483 38.1457C49.9583 37.5569 49.2941 37.0175 48.4705 36.5239C46.82 35.5349 44.438 34.6773 42.0126 33.9741C39.5823 33.2694 37.0892 32.7143 35.205 32.3355C34.6091 32.2157 34.0738 32.1135 33.6203 32.0297C34.0765 31.9626 34.6152 31.88 35.2151 31.7821C37.1119 31.4726 39.6237 31.0092 42.0782 30.3941C44.5277 29.7801 46.9396 29.0104 48.6252 28.0825C49.4663 27.6194 50.1498 27.1047 50.5611 26.5306C50.9812 25.9441 51.1192 25.2893 50.8463 24.5947C50.5734 23.9001 50.0265 23.5144 49.3195 23.3708C48.6275 23.2302 47.7764 23.3184 46.845 23.5518C44.9786 24.0196 42.6879 25.0977 40.4757 26.3155C38.259 27.5358 36.1036 28.9063 34.5034 29.9709C33.9974 30.3075 33.5466 30.6138 33.1667 30.8752C33.4418 30.5051 33.7644 30.0658 34.1193 29.5724C35.2417 28.0122 36.6901 25.9083 37.9906 23.7377C39.2886 21.5714 40.4497 19.3216 40.9854 17.4735C41.2527 16.5512 41.372 15.7039 41.2569 15.0072C41.1393 14.2953 40.7738 13.7347 40.0897 13.4366C39.4055 13.1384 38.7461 13.2523 38.1446 13.6507C37.5559 14.0407 37.0165 14.7049 36.523 15.5286C35.534 17.1792 34.6766 19.5613 33.9735 21.9869C33.269 24.4173 32.714 26.9106 32.3353 28.7949C32.2156 29.3908 32.1134 29.9261 32.0296 30.3796C31.9625 29.9233 31.8799 29.3846 31.782 28.7847C31.4723 26.8878 31.0088 24.3759 30.3935 21.9213C29.7794 19.4716 29.0096 17.0596 28.0815 15.3739C27.6185 14.5327 27.1037 13.8492 26.5295 13.4379C25.943 13.0177 25.2882 12.8797 24.5936 13.1526C23.899 13.4256 23.5133 13.9724 23.3697 14.6795C23.2292 15.3716 23.3174 16.2227 23.5509 17.1541C24.0188 19.0206 25.097 21.3114 26.315 23.5238C27.5354 25.7406 28.906 27.8962 29.9707 29.4964C30.3074 30.0025 30.6137 30.4533 30.8751 30.8332C30.505 30.5581 30.0657 30.2355 29.5722 29.8805C28.0119 28.7581 25.9079 27.3095 23.7372 26.0089C21.5707 24.7108 19.3208 23.5495 17.4725 23.0137C16.5503 22.7463 15.7029 22.627 15.0061 22.7421C14.2943 22.8597 13.7336 23.2251 13.4354 23.9093C13.1373 24.5934 13.2512 25.2529 13.6497 25.8543C14.0397 26.4431 14.7039 26.9825 15.5276 27.4761C17.1783 28.4651 19.5606 29.3227 21.9863 30.0259C24.4169 30.7306 26.9103 31.2857 28.7947 31.6645C29.3906 31.7843 29.926 31.8865 30.3796 31.9703Z" fill="#FBF8EF" stroke="#111111" stroke-width="0.5"/>
<path d="M30.5027 31.3798C30.0535 31.2754 29.5219 31.1552 28.9278 31.027C27.0491 30.6214 24.5416 30.1341 22.0321 29.809C19.5276 29.4845 17.0012 29.3189 15.0929 29.5661C14.1407 29.6894 13.3162 29.9186 12.7235 30.3025C12.1179 30.6947 11.75 31.2537 11.75 32C11.75 32.7463 12.1179 33.3053 12.7235 33.6975C13.3162 34.0814 14.1407 34.3106 15.0929 34.4339C17.0012 34.6811 19.5276 34.5155 22.0321 34.191C24.5416 33.8659 27.0491 33.3786 28.9278 32.973C29.5219 32.8448 30.0535 32.7246 30.5027 32.6202C30.1113 32.864 29.6504 33.1549 29.1396 33.4844C27.5243 34.526 25.4067 35.9545 23.4024 37.4991C21.402 39.0406 19.4984 40.7099 18.3238 42.2341C17.7377 42.9947 17.3168 43.7396 17.1691 44.4302C17.0183 45.1358 17.1534 45.7912 17.6811 46.3189C18.2088 46.8466 18.8642 46.9817 19.5698 46.8309C20.2604 46.6832 21.0053 46.2623 21.7659 45.6762C23.2901 44.5016 24.9594 42.598 26.5009 40.5976C28.0455 38.5933 29.474 36.4757 30.5156 34.8604C30.8451 34.3496 31.136 33.8887 31.3798 33.4973C31.2754 33.9465 31.1552 34.4781 31.027 35.0722C30.6214 36.9509 30.1341 39.4584 29.809 41.9679C29.4845 44.4724 29.3189 46.9988 29.5661 48.9071C29.6894 49.8593 29.9186 50.6838 30.3025 51.2765C30.6947 51.8821 31.2537 52.25 32 52.25C32.7463 52.25 33.3053 51.8821 33.6975 51.2765C34.0814 50.6838 34.3106 49.8593 34.4339 48.9071C34.6811 46.9988 34.5155 44.4724 34.191 41.9679C33.8659 39.4584 33.3786 36.9509 32.973 35.0722C32.8448 34.4781 32.7246 33.9465 32.6202 33.4973C32.864 33.8887 33.1549 34.3496 33.4844 34.8604C34.526 36.4757 35.9545 38.5933 37.4991 40.5976C39.0406 42.598 40.7099 44.5016 42.2341 45.6762C42.9947 46.2623 43.7396 46.6832 44.4302 46.8309C45.1358 46.9817 45.7912 46.8466 46.3189 46.3189C46.8466 45.7912 46.9817 45.1358 46.8309 44.4302C46.6832 43.7396 46.2623 42.9947 45.6762 42.2341C44.5016 40.7099 42.598 39.0406 40.5976 37.4991C38.5933 35.9545 36.4757 34.526 34.8604 33.4844C34.3496 33.1549 33.8887 32.864 33.4973 32.6202C33.9465 32.7246 34.4781 32.8448 35.0722 32.973C36.9509 33.3786 39.4584 33.8659 41.9679 34.191C44.4724 34.5155 46.9988 34.6811 48.9071 34.4339C49.8593 34.3106 50.6838 34.0814 51.2765 33.6975C51.8821 33.3053 52.25 32.7463 52.25 32C52.25 31.2537 51.8821 30.6947 51.2765 30.3025C50.6838 29.9186 49.8593 29.6894 48.9071 29.5661C46.9988 29.3189 44.4724 29.4845 41.9679 29.809C39.4584 30.1341 36.9509 30.6214 35.0722 31.027C34.4781 31.1552 33.9465 31.2754 33.4973 31.3798C33.8887 31.136 34.3496 30.8451 34.8604 30.5156C36.4757 29.474 38.5933 28.0455 40.5976 26.5009C42.598 24.9594 44.5016 23.2901 45.6762 21.7659C46.2623 21.0053 46.6832 20.2604 46.8309 19.5698C46.9817 18.8642 46.8466 18.2088 46.3189 17.6811C45.7912 17.1534 45.1358 17.0183 44.4302 17.1691C43.7396 17.3168 42.9947 17.7377 42.2341 18.3238C40.7099 19.4984 39.0406 21.402 37.4991 23.4024C35.9545 25.4067 34.526 27.5243 33.4844 29.1396C33.1549 29.6504 32.864 30.1113 32.6202 30.5027C32.7246 30.0535 32.8448 29.5219 32.973 28.9278C33.3786 27.0491 33.8659 24.5416 34.191 22.0321C34.5155 19.5276 34.6811 17.0012 34.4339 15.0929C34.3106 14.1407 34.0814 13.3162 33.6975 12.7235C33.3053 12.1179 32.7463 11.75 32 11.75C31.2537 11.75 30.6947 12.1179 30.3025 12.7235C29.9186 13.3162 29.6894 14.1407 29.5661 15.0929C29.3189 17.0012 29.4845 19.5276 29.809 22.0321C30.1341 24.5416 30.6214 27.0491 31.027 28.9278C31.1552 29.5219 31.2754 30.0535 31.3798 30.5027C31.136 30.1113 30.8451 29.6504 30.5156 29.1396C29.474 27.5243 28.0455 25.4067 26.5009 23.4024C24.9594 21.402 23.2901 19.4984 21.7659 18.3238C21.0053 17.7377 20.2604 17.3168 19.5698 17.1691C18.8642 17.0183 18.2088 17.1534 17.6811 17.6811C17.1534 18.2088 17.0183 18.8642 17.1691 19.5698C17.3168 20.2604 17.7377 21.0053 18.3238 21.7659C19.4984 23.2901 21.402 24.9594 23.4024 26.5009C25.4067 28.0455 27.5243 29.474 29.1396 30.5156C29.6504 30.8451 30.1113 31.136 30.5027 31.3798Z" fill="#FBF8EF" stroke="#111111" stroke-width="0.5"/>
<path d="M32.3056 19.2562L32.5627 30.8779L41.2772 23.1845L33.2413 31.5841L44.8434 32.3062L33.2217 32.5633L40.915 41.2778L32.5154 33.2419L31.7933 44.844L31.5362 33.2223L22.8217 40.9156L30.8577 32.516L19.2556 31.7939L30.8773 31.5368L23.1839 22.8223L31.5835 30.8583L32.3056 19.2562Z" fill="#111111"/>
<rect x="28.25" y="28.25" width="7.5" height="7.5" rx="3.75" fill="#7ECEA6" stroke="#111111" stroke-width="0.5"/>
<path d="M61 45V61H45L61 45Z" fill="#7ECEA6"/>
<path d="M45 3H61V19L45 3Z" fill="#7ECEA6"/>
<path d="M19 3H3V19L19 3Z" fill="#7ECEA6"/>
<path d="M19 61H3V45L19 61Z" fill="#7ECEA6"/>
<path d="M3 53H11V61L3 53Z" fill="#FBF8EF"/>
<path d="M11 3V11H3L11 3Z" fill="#FBF8EF"/>
<path d="M61 11L53 11V3L61 11Z" fill="#FBF8EF"/>
<path d="M53 61V53H61L53 61Z" fill="#FBF8EF"/>
</g>
<defs>
<clipPath id="clip0_379_1596">
<rect width="64" height="64" fill="white"/>
</clipPath>
</defs>
</svg>
