<svg width="128" height="128" viewBox="0 0 128 128" fill="none" xmlns="http://www.w3.org/2000/svg">
<rect width="128" height="128" fill="white"/>
<path d="M59.424 80.096L57.76 58.88C62.8213 58.464 66.6693 57.3547 69.304 55.552C71.9387 53.7493 73.256 51.08 73.256 47.544C73.256 44.4933 72.424 42.1013 70.76 40.368C69.1653 38.5653 66.8773 37.664 63.896 37.664C61.0533 37.664 58.7653 38.5653 57.032 40.368C55.368 42.1013 54.2587 44.32 53.704 47.024L41.744 45.048C42.2293 41.4427 43.4427 38.288 45.384 35.584C47.3947 32.88 49.9947 30.7653 53.184 29.24C56.3733 27.7147 59.944 26.952 63.896 26.952C68.1947 26.952 71.9733 27.784 75.232 29.448C78.56 31.0427 81.16 33.4 83.032 36.52C84.904 39.5707 85.84 43.2453 85.84 47.544C85.84 52.4667 84.3147 56.4533 81.264 59.504C78.2827 62.5547 74.296 64.704 69.304 65.952L68.368 80.096H59.424ZM63.896 102.456C61.7467 102.456 59.8747 101.693 58.28 100.168C56.7547 98.6427 55.992 96.8053 55.992 94.656C55.992 92.4373 56.7547 90.5653 58.28 89.04C59.8747 87.5147 61.7467 86.752 63.896 86.752C66.1147 86.752 67.9867 87.5147 69.512 89.04C71.1067 90.5653 71.904 92.4373 71.904 94.656C71.904 96.8053 71.1067 98.6427 69.512 100.168C67.9867 101.693 66.1147 102.456 63.896 102.456Z" fill="#005B98"/>
</svg>
