<svg width="128" height="128" viewBox="0 0 128 128" fill="none" xmlns="http://www.w3.org/2000/svg">
<g clip-path="url(#clip0_2741_1043)">
<rect width="128" height="128" fill="#FBF8EF"/>
<path d="M47 5.49947C44.438 6.93466 47.0003 11.4995 47.0003 11.4995C47.0003 11.4995 44.3014 13.4382 43.0003 14.9995C40.6516 17.8179 39.1754 19.3349 38.9998 22.9995C38.875 25.6017 39.6777 28.5277 40.5 30.9997C41.7402 34.7282 45 38.9998 45 38.9998L46.8578 37.9997C46.8578 37.9997 43.6368 32.9638 42.5002 29.5003C41.7471 27.2054 41.3927 25.9128 41.5003 23.4998C41.6443 20.2708 42.8912 18.449 45 15.9995C46.1746 14.6352 48.5 12.9995 48.5 12.9995C48.5 12.9995 51.7066 14.1716 53.5 12.4995C55.2935 10.8274 54.7402 7.74585 52.4 6.94608C49.3356 5.89883 49.5621 4.06428 47 5.49947Z" fill="#65D157" stroke="#FBF8EF" stroke-width="0.5"/>
<path d="M62.9987 19.0015C60.5803 18.7491 60.8034 21.8151 60.8034 21.8151C60.8034 21.8151 57.1809 22.6013 54.9987 23.5015C52.5294 24.5202 50.804 24.8567 49.043 26.8653C47.3328 28.8159 46.4998 31.4058 46.5 34C46.5001 35.4978 46.9993 39.4994 46.9993 39.4994L50.9997 43.9994C50.9997 43.9994 47.9997 36.4994 48.4987 33.0015C48.7957 30.9195 49.1458 29.6116 50.4987 28.0015C52.0726 26.1283 53.6992 25.8373 55.9987 25.0015C58.2174 24.195 61.9193 23.7812 61.9193 23.7812C61.9193 23.7812 64.4987 25.5015 65.4987 24.5015C66.4987 23.5015 66.4987 23.4403 66.4987 21.8151C66.4987 19.1337 65.4172 19.2538 62.9987 19.0015Z" fill="#65D157" stroke="#FBF8EF" stroke-width="0.5"/>
<path d="M106.565 52.1727C107.071 51.3824 107.935 50.7235 108.873 50.4015C109.756 50.0987 110.772 50.0747 111.636 50.6054L111.807 50.7193C113.277 51.7774 113.746 53.7983 112.715 55.4087C111.697 56.9984 109.615 57.5321 108.052 56.5309C107.338 56.0739 106.704 55.432 106.373 54.6776C106.034 53.902 106.025 53.0167 106.565 52.1727Z" fill="#F8A300" stroke="#FBF8EF"/>
<path d="M49.4621 104.484C50.0253 103.851 50.886 103.388 51.7655 103.234C52.5928 103.09 53.5064 103.211 54.2061 103.811L54.3434 103.937C55.5055 105.09 55.6372 106.961 54.4875 108.253C53.354 109.526 51.4197 109.711 50.1634 108.593C49.5956 108.087 49.1199 107.427 48.9319 106.705C48.7381 105.962 48.8566 105.164 49.4621 104.484Z" fill="#F8A300" stroke="#FBF8EF"/>
<path d="M67.8931 115.34C68.2315 114.902 68.7749 114.557 69.3459 114.415C69.8827 114.282 70.4784 114.322 70.9544 114.675L71.0476 114.75C71.8563 115.446 72.0273 116.656 71.3396 117.548C70.6593 118.429 69.4117 118.633 68.5488 117.968C68.1493 117.659 67.8087 117.248 67.6539 116.789C67.4954 116.319 67.5353 115.804 67.8931 115.34Z" fill="#F8A300" stroke="#FBF8EF" stroke-width="0.5"/>
<path d="M105.82 53.1538C105.491 53.382 105.065 53.4492 104.688 53.4648C103.933 53.4961 102.972 53.3228 102.405 53.2563L101.949 53.2143C100.884 53.1348 99.8111 53.145 98.7271 52.2848L98.5323 52.1215C98.0871 51.727 97.7194 51.2424 97.5554 50.67C97.3864 50.0798 97.4494 49.4495 97.7818 48.8109L97.9408 48.5371C98.2781 48.0105 98.7238 47.827 99.0361 47.6913C99.3025 47.5754 99.4705 47.4956 99.6085 47.3109L99.6658 47.2254C99.7988 47.0048 99.7936 46.8328 99.7757 46.5224C99.7594 46.2422 99.7346 45.8592 99.9443 45.4308L100.05 45.2436C100.559 44.4501 101.202 43.981 101.931 43.8456C102.56 43.7288 103.187 43.8722 103.756 44.1675L103.997 44.3037C104.702 44.7331 105.104 45.191 105.423 45.6858C105.576 45.9229 105.711 46.1716 105.844 46.4083C105.912 46.5291 105.981 46.6503 106.054 46.7731L106.292 47.1479C106.607 47.6134 107.16 48.398 107.452 49.1222C107.595 49.479 107.709 49.9003 107.64 50.2975C107.604 50.5074 107.516 50.7132 107.356 50.8877C107.197 51.0605 106.992 51.1775 106.76 51.2502L106.599 51.2895C106.437 51.3182 106.277 51.3133 106.121 51.2732C105.918 51.2209 105.751 51.1167 105.618 51.0016C105.367 50.7853 105.173 50.4747 105.027 50.2434C104.86 49.9792 104.737 49.7871 104.604 49.6592C104.492 49.5514 104.429 49.5422 104.362 49.5533L104.138 49.6013C104.082 49.618 104.04 49.6354 104.007 49.6541C103.95 49.686 103.887 49.7376 103.808 49.8618L103.758 49.9487C103.718 50.027 103.705 50.0837 103.701 50.1321C103.698 50.1693 103.699 50.2134 103.707 50.2706L103.757 50.4896C103.778 50.5619 103.818 50.6179 103.963 50.6745C104.135 50.7416 104.36 50.7719 104.669 50.8127C104.939 50.8484 105.301 50.8944 105.601 51.0312C105.762 51.1041 105.926 51.2112 106.058 51.3739C106.194 51.5403 106.275 51.7402 106.304 51.964L106.317 52.1412C106.32 52.3166 106.294 52.4876 106.229 52.6483C106.141 52.8659 105.994 53.0326 105.82 53.1538Z" fill="#F8A300" stroke="#FBF8EF"/>
<path d="M48.4155 104.984C48.0707 105.15 47.6595 105.148 47.3085 105.107C46.6043 105.025 45.7394 104.723 45.2305 104.58L44.3336 104.33C44.0352 104.244 43.7421 104.153 43.4684 104.051C42.9165 103.846 42.3813 103.573 41.9737 103.141L41.8135 102.961C41.4515 102.53 41.1797 102.022 41.113 101.46C41.0347 100.798 41.2493 100.134 41.7929 99.5228C42.1882 99.0787 42.6353 98.9729 42.9429 98.8935C43.2048 98.826 43.3635 98.7781 43.5109 98.6346L43.5745 98.5673C43.7219 98.3923 43.7418 98.2427 43.7707 97.9543C43.7969 97.6931 43.8309 97.3293 44.0924 96.9575L44.2191 96.7975C44.8099 96.1339 45.4745 95.7997 46.1746 95.7879C46.7731 95.7779 47.3303 96.0047 47.8188 96.342L48.0243 96.4934C48.5059 96.8701 48.8102 97.3718 49.0537 97.8814C49.1757 98.1366 49.2877 98.4066 49.3979 98.6713C49.4538 98.8056 49.5096 98.9396 49.567 99.0733L49.7468 99.4747C49.9683 99.9483 50.3644 100.756 50.5279 101.47C50.6083 101.821 50.6538 102.234 50.5289 102.599C50.4626 102.792 50.3473 102.975 50.1686 103.117C49.9919 103.257 49.7799 103.337 49.5514 103.371L49.3928 103.384C49.2352 103.387 49.0831 103.357 48.9406 103.295C48.9116 103.283 48.8848 103.267 48.8579 103.252C48.8758 103.278 48.8943 103.304 48.9104 103.331C49.0139 103.51 49.0612 103.713 49.0546 103.929L49.0409 104.097C49.0181 104.263 48.9668 104.421 48.8803 104.565C48.7633 104.759 48.5991 104.895 48.4155 104.984ZM48.4474 102.888C48.2761 102.658 48.1567 102.379 48.0662 102.168C47.9504 101.899 47.867 101.709 47.7667 101.575C47.6836 101.465 47.6354 101.455 47.5855 101.455L47.3769 101.467C47.3244 101.474 47.286 101.483 47.2553 101.495C47.2044 101.513 47.1435 101.548 47.0548 101.648C46.9648 101.749 46.9366 101.815 46.9237 101.867C46.9162 101.898 46.9108 101.936 46.9102 101.988L46.9241 102.193C46.9309 102.249 46.9512 102.297 47.0702 102.367C47.2144 102.452 47.4134 102.512 47.6928 102.595C47.9106 102.66 48.2007 102.745 48.4474 102.888Z" fill="#F8A300" stroke="#FBF8EF"/>
<path d="M67.1268 115.651C66.9285 115.764 66.6781 115.782 66.4502 115.771C65.9931 115.75 65.4247 115.596 65.0761 115.523L64.803 115.475C64.7171 115.461 64.6355 115.45 64.5551 115.439C64.3967 115.417 64.2385 115.395 64.0756 115.355C63.7386 115.273 63.4002 115.119 62.9313 114.766L62.8079 114.665C62.5305 114.419 62.3362 114.105 62.2761 113.748C62.2155 113.388 62.2952 113.009 62.527 112.647L62.6361 112.493C62.8589 112.205 63.126 112.12 63.3239 112.054C63.4689 112.005 63.5764 111.967 63.6701 111.883L63.7605 111.783C63.8646 111.64 63.8706 111.519 63.8763 111.329C63.8813 111.158 63.8868 110.935 64.0301 110.698L64.1006 110.595C64.4448 110.149 64.8678 109.885 65.3084 109.829C65.6975 109.779 66.0739 109.896 66.384 110.152L66.5123 110.269C66.9651 110.729 67.1743 111.012 67.32 111.279C67.3907 111.408 67.4453 111.532 67.5016 111.656C67.5301 111.719 67.5595 111.784 67.5942 111.855L67.7155 112.085C67.8843 112.389 68.1758 112.891 68.3128 113.341C68.3804 113.564 68.4244 113.814 68.3652 114.038C68.334 114.155 68.2737 114.266 68.1758 114.355C68.0787 114.444 67.9568 114.501 67.8194 114.531L67.7258 114.546C67.6332 114.555 67.5436 114.544 67.4587 114.514C67.3478 114.475 67.2585 114.408 67.1875 114.335C67.0528 114.197 66.9542 114.004 66.8763 113.854C66.7895 113.686 66.7221 113.555 66.6428 113.463C66.5727 113.383 66.5181 113.362 66.453 113.367L66.3076 113.384C66.2687 113.392 66.2379 113.402 66.2119 113.413C66.1655 113.434 66.1176 113.47 66.0579 113.548C65.9978 113.626 65.976 113.681 65.9674 113.732C65.9627 113.759 65.961 113.79 65.9633 113.83L65.9828 113.973C65.9959 114.04 66.0331 114.089 66.1289 114.136C66.2376 114.19 66.381 114.222 66.5647 114.263C66.7297 114.3 66.9401 114.346 67.1076 114.441C67.196 114.491 67.2833 114.56 67.3492 114.657C67.4162 114.756 67.4523 114.872 67.4575 115.001L67.4559 115.103C67.4492 115.204 67.4257 115.3 67.3812 115.386C67.3212 115.504 67.2314 115.591 67.1268 115.651Z" fill="#F8A300" stroke="#FBF8EF" stroke-width="0.5"/>
<path d="M18.2607 25.1198C17.8252 25.4197 17.2425 25.5157 16.6871 25.5362C15.5741 25.5774 14.1671 25.3157 13.2848 25.2082L12.574 25.1349C10.9351 24.9894 9.43073 24.961 7.88162 23.7792L7.59048 23.544C6.93018 22.975 6.41154 22.2781 6.18834 21.4677C5.94469 20.5827 6.07044 19.6235 6.64468 18.6452L6.76551 18.4495C7.23219 17.7281 7.83932 17.4796 8.31085 17.2771C8.71616 17.103 9.0217 16.9634 9.27414 16.632L9.37963 16.4765C9.62595 16.072 9.61283 15.7411 9.58779 15.2723C9.56219 14.7933 9.52671 14.1805 9.96901 13.4967C10.7121 12.3479 11.7092 11.6197 12.7542 11.3902C13.7438 11.173 14.7427 11.4132 15.5228 12.1118L15.6759 12.2577C16.7532 13.3492 17.4267 14.2056 18.1673 15.268L18.9476 16.415C19.4267 17.1296 20.2362 18.29 20.6584 19.353C20.8673 19.8791 21.0153 20.4603 20.9211 20.9876C20.8719 21.2628 20.7553 21.5263 20.5499 21.7484C20.3463 21.9685 20.0783 22.1233 19.7624 22.2209L19.5497 22.2725C19.3396 22.3088 19.1346 22.3007 18.9374 22.249C18.6787 22.1812 18.4625 22.0453 18.2829 21.889C17.9398 21.5904 17.6679 21.1562 17.4438 20.7986C17.1991 20.4081 16.9983 20.0875 16.7728 19.8678C16.5677 19.6681 16.3963 19.6032 16.1907 19.6361L15.989 19.6734C15.8059 19.7122 15.6768 19.7576 15.572 19.8157C15.4423 19.8877 15.3186 19.9978 15.1797 20.2125L15.0905 20.3644C15.0167 20.5071 14.9858 20.624 14.9761 20.7345C14.9658 20.8527 14.9769 20.9884 15.0174 21.1691L15.0676 21.3661C15.1263 21.5744 15.2613 21.7073 15.5279 21.8127C15.8215 21.9288 16.196 21.9792 16.6506 22.0413C17.0669 22.0983 17.573 22.1668 17.9847 22.3565C18.2003 22.4558 18.4118 22.5972 18.5793 22.8053C18.7496 23.0169 18.8544 23.2732 18.8908 23.5684L18.9073 23.8086C18.9112 24.0443 18.8745 24.2675 18.7902 24.4729C18.6763 24.75 18.4886 24.9629 18.2607 25.1198Z" fill="#F8A300" stroke="#FBF8EF"/>
<path d="M22.9582 19.2914C22.4989 19.0757 22.1398 18.6405 21.8577 18.1963C21.2924 17.3059 20.8335 16.0297 20.5021 15.2619L19.9356 13.9753C19.7514 13.5504 19.5793 13.1307 19.4388 12.7217C19.1537 11.8914 18.9774 11.0417 19.0921 10.158L19.1474 9.80867C19.301 8.99908 19.6238 8.23967 20.1813 7.66645C20.7911 7.03953 21.6378 6.68055 22.7159 6.68247L22.9341 6.68823C23.7537 6.72546 24.2514 7.10678 24.6411 7.39479C24.9761 7.64227 25.2312 7.82139 25.6143 7.86825L25.7873 7.87956C26.2253 7.88761 26.4819 7.72361 26.852 7.47999C27.2309 7.23064 27.7209 6.90493 28.4989 6.94026C29.794 6.99913 30.788 7.44072 31.4374 8.18731C32.0027 8.83724 32.2639 9.66923 32.2782 10.5564L32.2691 10.9389C32.1454 12.9678 31.2982 13.9886 30.565 15.403L30.4199 15.6916C30.0661 16.4214 29.5042 17.6369 28.8363 18.4904C28.5059 18.9127 28.0982 19.3155 27.6157 19.4926C27.3638 19.585 27.0888 19.6168 26.8042 19.5539C26.5218 19.4915 26.2637 19.3434 26.0306 19.1296L25.8847 18.9785C25.7526 18.8215 25.6599 18.6467 25.607 18.4571C25.5376 18.2087 25.5453 17.9633 25.5877 17.7394C25.6687 17.3127 25.8952 16.8807 26.0796 16.5286C26.282 16.1419 26.4469 15.8288 26.5176 15.5441C26.5813 15.2875 26.551 15.1275 26.4338 14.9845L26.3077 14.8378C26.1903 14.7086 26.0946 14.6267 26.0005 14.5708C25.8847 14.5021 25.7405 14.454 25.5031 14.4432L25.3392 14.4433C25.1906 14.451 25.0838 14.4813 24.9927 14.5244C24.8948 14.5707 24.7928 14.6427 24.6661 14.7605L24.5308 14.8933C24.3966 15.0323 24.353 15.1958 24.3932 15.458C24.4377 15.7486 24.5725 16.0752 24.7388 16.4767C24.8903 16.8421 25.0772 17.2909 25.1192 17.7216C25.1412 17.9478 25.1268 18.1925 25.035 18.4332C24.9415 18.6781 24.7793 18.89 24.5522 19.0631L24.3625 19.1928C24.1693 19.3099 23.9664 19.3878 23.7544 19.4174C23.4681 19.4575 23.1992 19.4046 22.9582 19.2914Z" fill="#F8A300" stroke="#FBF8EF"/>
<path d="M66.4995 18.6717C66.5073 18.2575 66.7108 17.8568 66.93 17.5257C67.3695 16.8618 68.1085 16.1491 68.5188 15.7025L69.2193 14.9295C69.4532 14.6741 69.6881 14.427 69.9251 14.2057C70.4085 13.7543 70.9479 13.3627 71.6081 13.1647L71.8685 13.0949C72.481 12.9495 73.1204 12.9356 73.7079 13.1508C74.3109 13.3717 74.8076 13.8149 75.1456 14.4898L75.2799 14.7932C75.5186 15.3995 75.4021 15.8873 75.325 16.2389C75.2592 16.5389 75.2217 16.7384 75.2962 16.9782L75.3355 17.0837C75.4458 17.3431 75.6031 17.4494 75.8801 17.6263C76.13 17.7859 76.4684 17.9987 76.7018 18.4375L76.7948 18.6398C77.157 19.56 77.1643 20.4055 76.8369 21.1108C76.5524 21.7235 76.0426 22.1716 75.4245 22.4601L75.1524 22.5739C73.8067 23.0795 72.8487 22.8795 71.7865 22.7953L71.3232 22.7684C70.7277 22.75 69.7172 22.7377 68.92 22.5397C68.527 22.442 68.1021 22.2807 67.8104 21.9813C67.6565 21.8233 67.5384 21.6248 67.4891 21.3857C67.4404 21.1489 67.4657 20.9054 67.5457 20.6658L67.6107 20.5067C67.6845 20.3539 67.7859 20.2225 67.9135 20.1166C68.0798 19.9787 68.2676 19.9027 68.4457 19.8604C68.7815 19.7806 69.1641 19.8061 69.454 19.8241C69.7822 19.8444 70.0264 19.8587 70.222 19.8238C70.3892 19.7939 70.4464 19.7423 70.4839 19.6673L70.583 19.442C70.6043 19.3818 70.6151 19.3335 70.62 19.2909C70.6286 19.2168 70.6225 19.1257 70.5639 18.9768L70.5197 18.8777C70.476 18.792 70.433 18.7428 70.3907 18.7066C70.3428 18.6655 70.2757 18.6246 70.1656 18.5778L70.0401 18.5285C69.9545 18.4975 69.8727 18.5013 69.7296 18.5936C69.5622 18.7015 69.3938 18.8784 69.1687 19.1164C68.9702 19.3263 68.7093 19.6054 68.4101 19.7757C68.2513 19.8661 68.0621 19.9379 67.8465 19.95C67.6261 19.9624 67.4095 19.9102 67.2042 19.7984L67.0473 19.7014C66.8974 19.5976 66.7703 19.4718 66.6753 19.3202C66.5467 19.1148 66.4954 18.8914 66.4995 18.6717Z" fill="#F8A300" stroke="#FBF8EF"/>
<path d="M21.0089 33.0023C21.0995 33.501 20.9536 34.0453 20.7557 34.5321C20.359 35.5076 19.5874 36.6201 19.155 37.3343L18.4598 38.4903C17.787 39.5877 17.1165 40.5222 15.875 41.4045L15.7218 41.5084C14.9487 42.0089 14.0634 42.2222 13.1939 42.0643C12.32 41.9056 11.5163 41.3814 10.8937 40.5027L10.7716 40.3226C10.3269 39.6341 10.3489 39.0082 10.3573 38.5244C10.3646 38.1086 10.3628 37.7978 10.179 37.4591L10.0888 37.3118C9.84169 36.9511 9.55914 36.8376 9.14639 36.6776C8.75052 36.5241 8.24419 36.3302 7.8347 35.7681L7.75404 35.6509C7.05022 34.5612 6.84953 33.5179 7.09081 32.5674C7.29922 31.7468 7.82072 31.0613 8.49798 30.5117L8.79663 30.2843C9.79957 29.5716 10.6041 29.3262 11.4056 29.2263C11.7891 29.1785 12.1756 29.1638 12.5494 29.1427C12.8352 29.1266 13.1268 29.1066 13.4388 29.0664L13.7577 29.0191C14.5561 28.8841 15.8708 28.6366 16.952 28.6854C17.4869 28.7095 18.0511 28.8069 18.4747 29.0969C18.6959 29.2483 18.8807 29.4541 18.9945 29.7221C19.1073 29.988 19.1367 30.284 19.0979 30.5974L19.0595 30.8039C19.0083 31.0024 18.9195 31.1796 18.7959 31.3326C18.634 31.5328 18.4302 31.6687 18.2236 31.7638C17.8295 31.9453 17.3464 32.0109 16.9532 32.0649C16.5215 32.1243 16.1715 32.1723 15.8991 32.2797C15.6539 32.3764 15.5406 32.4929 15.4924 32.6706L15.4471 32.8577C15.41 33.0285 15.3988 33.1539 15.4079 33.2628C15.4191 33.3967 15.4639 33.5417 15.5927 33.7411L15.6869 33.8742C15.7791 33.9905 15.8656 34.0593 15.9532 34.1083C16.0475 34.1611 16.1648 34.2033 16.3339 34.2382L16.5207 34.2704C16.7112 34.2989 16.8696 34.24 17.0594 34.0556C17.2698 33.8511 17.4562 33.5523 17.6863 33.1846C17.8958 32.8496 18.1531 32.4373 18.4794 32.1535C18.6507 32.0045 18.8577 31.8748 19.1067 31.81C19.3602 31.7441 19.6265 31.7532 19.8989 31.8376L20.1146 31.9169C20.322 32.0062 20.5033 32.1265 20.6504 32.2819C20.8487 32.4916 20.9613 32.7408 21.0089 33.0023Z" fill="#F8A300" stroke="#FBF8EF"/>
<path d="M23.4709 58.0768C23.9031 58.0419 24.3452 58.2119 24.72 58.4096C25.4715 58.8061 26.3054 59.5157 26.8284 59.9081L27.6898 60.5502C28.5108 61.173 29.2126 61.7896 29.8236 62.8599L29.9617 63.129C30.2543 63.7649 30.3329 64.4582 30.1445 65.1162C29.9415 65.8252 29.4432 66.4405 28.6782 66.8759L28.5216 66.961C27.9108 67.2746 27.3879 67.2025 27.0049 67.1576C26.6774 67.1192 26.4533 67.1007 26.1963 67.2095L26.0835 67.2635C25.8081 67.4145 25.7074 67.6029 25.5482 67.9172C25.4049 68.2001 25.2174 68.5762 24.7826 68.8661L24.5803 68.9847C23.6438 69.4655 22.7466 69.5614 21.9681 69.2928C21.2897 69.0586 20.761 68.5678 20.3995 67.9371L20.2551 67.6589C19.5326 66.117 19.6806 65.215 19.6671 64.1083L19.6482 63.6181C19.6045 62.9793 19.5106 61.9049 19.6364 61.0385C19.6985 60.6111 19.8242 60.1489 20.1059 59.8139C20.2543 59.6375 20.4479 59.4948 20.6904 59.4191C20.9305 59.3443 21.1859 59.3456 21.445 59.4043L21.6175 59.4546C21.7838 59.5155 21.9302 59.6068 22.0528 59.7279C22.2127 59.8858 22.311 60.073 22.3738 60.2547C22.4925 60.5985 22.5063 61.0032 22.518 61.3156C22.5311 61.6666 22.542 61.9336 22.6016 62.1436C22.6533 62.326 22.7203 62.3924 22.8183 62.4297L22.9582 62.4798C23.0839 62.5205 23.1718 62.536 23.2454 62.5372C23.3324 62.5386 23.4351 62.5198 23.5918 62.4393L23.6949 62.3802C23.7852 62.3223 23.8369 62.2685 23.8741 62.2152C23.9156 62.1558 23.9538 62.0762 23.9927 61.9517L24.0319 61.8105C24.0594 61.7017 24.0417 61.6043 23.9234 61.4556C23.7872 61.2843 23.5766 61.1203 23.2999 60.9063C23.0539 60.7161 22.7343 60.4706 22.5246 60.175C22.4135 60.0183 22.3182 59.8292 22.2835 59.6071C22.2481 59.3808 22.2801 59.1517 22.375 58.9267L22.4599 58.7519C22.5527 58.5846 22.6704 58.4393 22.8176 58.3253C23.0168 58.1712 23.2425 58.0953 23.4709 58.0768Z" fill="#F8A300" stroke="#FBF8EF"/>
<path d="M13.6344 53.7394C13.4074 54.0575 13.0384 54.2585 12.7006 54.3954C12.0228 54.6701 11.0907 54.8253 10.556 54.9487L9.66481 55.1575C8.80548 55.3509 8.00662 55.4717 6.96118 55.2796L6.70328 55.221C6.11367 55.0584 5.60345 54.7195 5.26722 54.219C4.92879 53.7152 4.79329 53.087 4.89015 52.3927L4.94593 52.0917C5.08251 51.4979 5.43259 51.1833 5.67211 50.9585C5.87596 50.7671 5.9994 50.6425 6.06323 50.4348L6.08655 50.3396C6.13434 50.1022 6.07674 49.9525 5.95979 49.677C5.85384 49.4274 5.70442 49.0836 5.75624 48.6212L5.7917 48.4146C5.99665 47.524 6.43119 46.8897 7.05479 46.5306C7.59052 46.2221 8.20765 46.1504 8.81972 46.223L9.08112 46.2633C9.92949 46.4192 10.4534 46.706 10.9007 47.0644C11.1107 47.2328 11.3064 47.4194 11.4902 47.5883C11.6321 47.7187 11.7769 47.8474 11.9394 47.9765L12.108 48.1059C12.5449 48.4259 13.3044 48.9597 13.806 49.5246C14.053 49.8028 14.2962 50.1518 14.3633 50.5399C14.3987 50.7453 14.3851 50.9643 14.2951 51.1783C14.206 51.3899 14.0556 51.565 13.8672 51.7076L13.7311 51.7975C13.5916 51.8772 13.4419 51.9255 13.2845 51.9399C13.224 51.9455 13.1651 51.9451 13.1078 51.9411C13.1614 51.9627 13.2152 51.9879 13.2676 52.0197C13.4474 52.1287 13.5888 52.2862 13.6889 52.4829L13.7589 52.6407C13.82 52.801 13.8523 52.9673 13.8452 53.1374C13.8356 53.3678 13.7553 53.5701 13.6344 53.7394ZM12.7283 51.8538C12.4285 51.7373 12.1503 51.5181 11.9435 51.3566C11.7053 51.1706 11.5333 51.0375 11.3737 50.9655C11.2406 50.9053 11.1862 50.9183 11.135 50.9467L10.9491 51.0619C10.9039 51.0949 10.8733 51.1237 10.8501 51.1504C10.8111 51.1953 10.7718 51.2598 10.7403 51.3965L10.7233 51.489C10.7124 51.5718 10.7194 51.6257 10.7309 51.6686C10.7398 51.7019 10.7548 51.7401 10.7806 51.7884L10.8957 51.9687C10.9338 52.0218 10.9819 52.0584 11.1285 52.0626C11.3038 52.0676 11.5163 52.0228 11.8105 51.9594C12.0651 51.9046 12.4092 51.8283 12.7283 51.8538Z" fill="#F8A300" stroke="#FBF8EF"/>
<path d="M18.0025 59.6234C18.2241 60.0492 18.2438 60.5792 18.2018 61.0656C18.1178 62.0405 17.7376 63.2411 17.5518 63.9869L17.2542 65.1985C16.9593 66.3548 16.6205 67.371 15.7601 68.4965L15.6524 68.6315C15.1006 69.292 14.3674 69.7284 13.5447 69.828C12.7178 69.9281 11.8545 69.6813 11.057 69.07L10.8987 68.9428C10.3076 68.4479 10.153 67.8785 10.0281 67.4484C9.92088 67.0795 9.83637 66.8133 9.58864 66.5716L9.47173 66.4692C9.16439 66.2257 8.89423 66.2017 8.48571 66.1732C8.06697 66.1441 7.51389 66.1089 6.95208 65.6385C6.02555 64.8627 5.55617 63.9863 5.50865 63.0673C5.46778 62.2747 5.74429 61.5178 6.19583 60.8418L6.40001 60.557C7.0955 59.6474 7.74384 59.2069 8.43039 58.8968C8.75801 58.7488 9.09769 58.6296 9.42153 58.509C9.66959 58.4166 9.92057 58.3188 10.1842 58.1983L10.4522 58.0697C11.1195 57.7326 12.2176 57.1518 13.1915 56.8976C13.673 56.772 14.2072 56.7025 14.6712 56.846C14.9141 56.9212 15.1403 57.056 15.3194 57.268C15.4971 57.4782 15.6063 57.7381 15.6586 58.0311L15.6809 58.2281C15.6903 58.4227 15.6604 58.6086 15.5909 58.7831C15.4999 59.0113 15.3524 59.1916 15.1927 59.3351C14.889 59.6077 14.4744 59.8007 14.1428 59.9555C13.7762 60.1267 13.4849 60.2623 13.2778 60.4282C13.093 60.5763 13.0337 60.7009 13.0392 60.8562L13.0499 61.0317C13.0636 61.1905 13.0877 61.3006 13.1237 61.3899C13.1675 61.4983 13.2426 61.6092 13.4073 61.7471L13.5241 61.8368C13.634 61.912 13.7246 61.9471 13.81 61.9654C13.9029 61.9852 14.0143 61.9898 14.1706 61.9746L14.3433 61.9534C14.5045 61.9288 14.62 61.8429 14.7336 61.6345C14.861 61.401 14.9429 61.0905 15.046 60.701C15.1393 60.3489 15.2555 59.9083 15.4697 59.5625C15.5825 59.3805 15.7338 59.2047 15.9423 59.0755C16.1548 58.9439 16.3995 58.8777 16.6698 58.8778L16.8865 58.889C17.0982 58.9117 17.2957 58.9695 17.4731 59.0694C17.713 59.2044 17.8859 59.3994 18.0025 59.6234Z" fill="#F8A300" stroke="#FBF8EF"/>
<path d="M109.301 49.9666C108.97 49.7418 108.755 49.3677 108.605 49.0215C108.305 48.3273 108.123 47.3683 107.982 46.8152L107.862 46.3272C107.606 45.2271 107.504 44.3689 107.549 43.1653L107.558 43.0212C107.626 42.3082 107.993 41.7073 108.56 41.3255C109.084 40.9721 109.755 40.8224 110.477 40.9066L110.79 40.9569C111.402 41.0833 111.733 41.4337 111.972 41.6766C112.175 41.8839 112.31 42.0122 112.532 42.0749L112.632 42.0977C112.886 42.1429 113.045 42.0765 113.328 41.9486C113.584 41.8331 113.932 41.6727 114.407 41.7151L114.62 41.747C115.54 41.9367 116.236 42.3735 116.639 43.0045C116.992 43.5575 117.088 44.2084 116.966 44.8607L116.901 45.1398C116.507 46.5429 115.938 47.115 115.337 47.9026L115.078 48.2567C114.756 48.7177 114.221 49.5148 113.65 50.0464C113.368 50.3082 113.015 50.5657 112.62 50.6434C112.411 50.6844 112.187 50.6759 111.967 50.5891C111.749 50.5031 111.566 50.3531 111.415 50.163L111.321 50.0264C111.236 49.8859 111.183 49.7346 111.165 49.5748C111.141 49.3663 111.178 49.1734 111.238 49.0075C111.35 48.6959 111.571 48.4036 111.734 48.1841C111.921 47.9334 112.056 47.7496 112.128 47.58C112.189 47.4371 112.175 47.375 112.14 47.316L112.016 47.1246C111.98 47.0778 111.949 47.0453 111.919 47.0208C111.869 46.9792 111.798 46.9388 111.654 46.909L111.555 46.8935C111.467 46.8841 111.41 46.8926 111.363 46.9062C111.328 46.9166 111.287 46.9334 111.236 46.9617L111.05 47.0868C110.99 47.1321 110.952 47.1893 110.951 47.3449C110.95 47.5295 111.002 47.751 111.075 48.0537C111.138 48.3185 111.225 48.6731 111.205 49.0027C111.194 49.1784 111.153 49.3705 111.048 49.5522C110.941 49.7378 110.784 49.8856 110.585 49.9925L110.424 50.0679C110.262 50.1341 110.093 50.1708 109.919 50.1675C109.685 50.1631 109.476 50.086 109.301 49.9666Z" fill="#F8A300" stroke="#FBF8EF"/>
<path d="M52.052 102.548C51.7731 102.286 51.6282 101.901 51.5407 101.558C51.3654 100.872 51.3369 99.9561 51.2885 99.4296L51.1925 98.5172C51.1602 98.2094 51.1329 97.9033 51.1256 97.6172C51.1107 97.0254 51.1739 96.4176 51.4757 95.8539L51.597 95.6384C51.8921 95.142 52.2654 94.7067 52.7588 94.4481C53.346 94.1406 54.0243 94.1238 54.7792 94.4088C55.3354 94.6189 55.5943 94.9984 55.7786 95.2572C55.9354 95.4775 56.037 95.6086 56.2238 95.6948L56.3093 95.7301C56.5256 95.8051 56.6724 95.7701 56.952 95.6938C57.2052 95.6247 57.5571 95.5261 57.9979 95.6371L58.1926 95.6981C59.0256 96.0127 59.5664 96.5125 59.8225 97.1618C60.0398 97.7131 60.027 98.3102 59.9033 98.8827L59.8439 99.126C59.6349 99.8967 59.2801 100.37 58.8664 100.762C58.6711 100.947 58.4571 101.12 58.2629 101.281C58.1628 101.365 58.0635 101.448 57.9653 101.536L57.6727 101.818C57.3098 102.194 56.6979 102.853 56.0895 103.262C55.7901 103.463 55.4213 103.653 55.036 103.667C54.8317 103.674 54.6199 103.632 54.4234 103.516C54.2292 103.401 54.0785 103.232 53.9653 103.031L53.8962 102.887C53.8371 102.741 53.8099 102.589 53.8166 102.434C53.818 102.402 53.8233 102.371 53.8273 102.341C53.8099 102.367 53.7925 102.393 53.7722 102.418C53.6422 102.579 53.4704 102.696 53.2663 102.767L53.1045 102.814C52.941 102.852 52.7746 102.861 52.6099 102.832C52.3871 102.792 52.2005 102.688 52.052 102.548ZM54.0206 101.827C54.1734 101.585 54.3917 101.373 54.5557 101.214C54.7654 101.009 54.9135 100.863 55.0021 100.722C55.0754 100.604 55.0679 100.556 55.0498 100.509L54.9638 100.319C54.9386 100.272 54.916 100.24 54.8944 100.215C54.8586 100.174 54.8041 100.13 54.6793 100.083C54.5527 100.035 54.4815 100.032 54.428 100.039C54.3963 100.043 54.3588 100.052 54.3101 100.07L54.124 100.156C54.0742 100.182 54.036 100.219 54.0135 100.355C53.9862 100.52 54.0012 100.727 54.0236 101.018C54.0411 101.244 54.0651 101.546 54.0206 101.827Z" fill="#F8A300" stroke="#FBF8EF"/>
<path d="M69.489 114.081C69.312 113.936 69.2058 113.709 69.1339 113.492C68.9899 113.058 68.9309 112.472 68.8735 112.12L68.7899 111.538C68.7275 110.991 68.7285 110.527 68.8048 109.886L68.8376 109.688C68.9337 109.243 69.1647 108.928 69.5152 108.765C69.8493 108.61 70.2494 108.614 70.6547 108.71L70.8288 108.757C71.1781 108.862 71.3526 109.081 71.4852 109.242C71.5824 109.36 71.6572 109.446 71.7686 109.504L71.8946 109.553C72.0651 109.599 72.1803 109.561 72.36 109.498C72.5217 109.441 72.7318 109.367 73.0046 109.416L73.1256 109.445C73.6652 109.606 74.0698 109.91 74.2834 110.302C74.4726 110.649 74.5002 111.045 74.3597 111.426L74.2895 111.589C74.0115 112.142 73.7317 112.511 73.3917 112.921L73.0289 113.353C72.806 113.62 72.4416 114.072 72.0699 114.361C71.8865 114.504 71.6682 114.635 71.4386 114.659C71.3181 114.672 71.1929 114.656 71.074 114.596C70.9562 114.537 70.8596 114.444 70.7821 114.327L70.7346 114.245C70.6937 114.161 70.6717 114.074 70.6692 113.984C70.6661 113.866 70.6963 113.759 70.739 113.666C70.8199 113.491 70.9643 113.33 71.0772 113.203C71.203 113.062 71.3012 112.952 71.3581 112.845C71.4082 112.751 71.4082 112.693 71.3803 112.634L71.3117 112.504C71.2904 112.471 71.2704 112.445 71.2503 112.425C71.214 112.389 71.1635 112.358 71.0699 112.33C70.9755 112.301 70.9156 112.301 70.8657 112.311C70.8383 112.316 70.8084 112.326 70.7727 112.342L70.646 112.412C70.5874 112.448 70.5558 112.5 70.5458 112.607C70.5345 112.727 70.5558 112.873 70.5834 113.059C70.6082 113.226 70.64 113.439 70.6115 113.63C70.5965 113.73 70.5637 113.836 70.4964 113.932C70.4277 114.031 70.3327 114.106 70.2145 114.157L70.1181 114.192C70.0214 114.222 69.9239 114.234 69.8268 114.224C69.6957 114.21 69.5824 114.157 69.489 114.081Z" fill="#F8A300" stroke="#FBF8EF" stroke-width="0.5"/>
<path d="M106.116 54.6531C105.762 54.4678 105.33 54.4547 104.955 54.4864C104.201 54.55 103.27 54.8423 102.716 54.9793L102.252 55.0835C102.101 55.1153 101.951 55.1449 101.801 55.1751C101.505 55.2346 101.205 55.2968 100.912 55.3831C100.312 55.5604 99.7371 55.8394 99.1873 56.4049L99.0155 56.5914C98.6247 57.039 98.3206 57.5651 98.2292 58.1529C98.135 58.7596 98.276 59.3769 98.6858 59.969L98.8778 60.2207C99.2785 60.7009 99.7437 60.8271 100.07 60.9226C100.349 61.0042 100.526 61.0624 100.686 61.2283L100.754 61.306C100.913 61.5081 100.93 61.6794 100.951 61.9896C100.97 62.2697 100.993 62.6527 101.255 63.0515L101.383 63.2239C101.989 63.95 102.671 64.3139 103.404 64.3429C104.026 64.3674 104.618 64.1478 105.154 63.8303L105.38 63.689C106.033 63.2584 106.381 62.7312 106.64 62.18C106.765 61.9138 106.874 61.6322 106.979 61.3664C107.034 61.2304 107.089 61.0954 107.148 60.96L107.337 60.5526C107.592 60.0512 108.042 59.2035 108.24 58.4485C108.338 58.0765 108.399 57.6442 108.28 57.2588C108.218 57.0551 108.104 56.862 107.924 56.7089C107.745 56.5573 107.527 56.467 107.288 56.4239L107.123 56.4051C106.959 56.3969 106.801 56.4218 106.651 56.4811C106.456 56.5585 106.304 56.6827 106.186 56.8136C105.964 57.0597 105.811 57.3921 105.694 57.64C105.562 57.923 105.463 58.129 105.348 58.2725C105.251 58.3934 105.189 58.4104 105.121 58.4079L104.893 58.3883C104.835 58.3788 104.792 58.3668 104.756 58.3524C104.696 58.3278 104.627 58.2846 104.532 58.1714L104.472 58.0914C104.422 58.0187 104.403 57.9641 104.393 57.9165C104.385 57.88 104.38 57.8361 104.382 57.7783L104.404 57.5547C104.415 57.4804 104.448 57.4199 104.584 57.3455C104.747 57.2574 104.967 57.1991 105.268 57.12C105.531 57.0507 105.885 56.9597 106.166 56.7863C106.315 56.6939 106.465 56.567 106.576 56.389C106.689 56.2071 106.745 55.9985 106.746 55.7729L106.736 55.5955C106.718 55.421 106.67 55.2547 106.585 55.1034C106.471 54.8985 106.304 54.7515 106.116 54.6531Z" fill="#F8A300" stroke="#FBF8EF"/>
<path d="M48.4724 106.348C48.1652 106.12 47.761 106.044 47.4085 106.018C46.7014 105.966 45.7952 106.099 45.2684 106.144L44.3964 106.206C43.5461 106.268 42.7445 106.375 41.8347 106.919L41.6095 107.064C41.1024 107.419 40.7263 107.878 40.5712 108.441C40.3927 109.088 40.5324 109.78 40.9382 110.462C41.2427 110.972 41.6617 111.16 41.9489 111.296C42.1932 111.412 42.3401 111.489 42.4578 111.658L42.5075 111.736C42.6193 111.936 42.6106 112.086 42.5846 112.375C42.561 112.636 42.5257 113 42.7123 113.415L42.8066 113.596C43.2731 114.378 43.9084 114.805 44.5992 114.935C45.1889 115.046 45.7759 114.934 46.2794 114.712L46.4895 114.61C47.127 114.276 47.5213 113.849 47.8443 113.389C48.0007 113.166 48.1441 112.929 48.2837 112.703C48.355 112.588 48.4271 112.473 48.5021 112.357L48.7402 112.01C49.047 111.586 49.5884 110.868 49.8837 110.198C50.029 109.868 50.1515 109.471 50.0977 109.089C50.0691 108.887 49.9903 108.686 49.8416 108.513C49.6946 108.342 49.5014 108.223 49.2835 108.147L49.1301 108.104C48.9759 108.072 48.8211 108.072 48.6694 108.105C48.6385 108.112 48.6093 108.123 48.5801 108.132C48.6025 108.111 48.6255 108.089 48.6466 108.064C48.7819 107.908 48.8666 107.719 48.9009 107.505L48.9191 107.338C48.9281 107.17 48.9076 107.005 48.8497 106.848C48.7714 106.635 48.6359 106.47 48.4724 106.348ZM48.1082 108.413C47.8966 108.606 47.7267 108.858 47.5981 109.047C47.4336 109.29 47.3157 109.461 47.192 109.573C47.0896 109.666 47.0404 109.667 46.9914 109.657L46.7888 109.606C46.7385 109.589 46.7026 109.573 46.6745 109.556C46.6281 109.528 46.575 109.482 46.5067 109.367C46.4374 109.251 46.422 109.181 46.4193 109.128C46.4177 109.096 46.4196 109.057 46.4288 109.006L46.481 108.808C46.4983 108.754 46.5274 108.71 46.6574 108.664C46.815 108.608 47.0218 108.587 47.3119 108.558C47.538 108.535 47.839 108.506 48.1082 108.413Z" fill="#F8A300" stroke="#FBF8EF"/>
<path d="M67.2263 116.677C67.0338 116.554 66.7846 116.524 66.5564 116.524C66.0989 116.522 65.5235 116.649 65.1718 116.704L64.8855 116.74C64.7917 116.749 64.6989 116.757 64.6062 116.765C64.4241 116.78 64.2379 116.796 64.0559 116.829C63.6803 116.896 63.3174 117.034 62.9587 117.381L62.7531 117.598C62.5564 117.825 62.395 118.082 62.3203 118.368C62.2302 118.714 62.2732 119.078 62.4843 119.45L62.5856 119.61C62.7938 119.909 63.0565 120.007 63.2508 120.083C63.3933 120.138 63.4988 120.182 63.5883 120.27L63.6737 120.375C63.7705 120.522 63.7706 120.644 63.7669 120.834C63.7635 121.005 63.7579 121.228 63.8895 121.472L63.9548 121.578C64.2789 122.044 64.6665 122.294 65.095 122.351C65.462 122.4 65.8254 122.302 66.1612 122.132L66.303 122.055C66.6999 121.826 66.9329 121.534 67.1184 121.221C67.2086 121.069 67.2898 120.907 67.3705 120.75C67.4116 120.671 67.453 120.59 67.497 120.51L67.6387 120.268C67.8223 119.973 68.1381 119.486 68.2971 119.042C68.3756 118.824 68.4319 118.575 68.3837 118.35C68.3584 118.231 68.3036 118.117 68.2102 118.023C68.1176 117.929 67.9987 117.867 67.8629 117.83L67.7702 117.81C67.678 117.797 67.5881 117.803 67.5018 117.829C67.3891 117.863 67.2966 117.925 67.2221 117.994C67.0808 118.126 66.9728 118.313 66.8875 118.46C66.7926 118.624 66.7189 118.751 66.6351 118.838C66.5612 118.916 66.5056 118.934 66.4409 118.926L66.2965 118.901C66.258 118.891 66.2277 118.88 66.2024 118.867C66.157 118.844 66.1109 118.806 66.0551 118.725C65.9989 118.645 65.9799 118.588 65.9738 118.537C65.9705 118.509 65.9703 118.478 65.9745 118.439L66.001 118.297C66.0175 118.23 66.0569 118.184 66.155 118.141C66.2663 118.093 66.4111 118.068 66.5966 118.036C66.7631 118.007 66.9755 117.971 67.1476 117.885C67.2383 117.839 67.3289 117.775 67.3994 117.681C67.4713 117.585 67.5131 117.471 67.5245 117.343L67.528 117.241C67.5263 117.139 67.5075 117.043 67.4674 116.954C67.4132 116.834 67.3278 116.742 67.2263 116.677Z" fill="#F8A300" stroke="#FBF8EF" stroke-width="0.5"/>
<path d="M109.429 57.7333C109.139 58.0083 108.986 58.4121 108.894 58.7777C108.709 59.511 108.683 60.4869 108.633 61.0554L108.557 62.0103C108.504 62.9125 108.531 63.6987 108.796 64.7514L108.828 64.8632C109.008 65.419 109.468 65.9291 110.046 66.2406C110.639 66.5604 111.395 66.6937 112.185 66.4429L112.343 66.3876C112.928 66.1647 113.198 65.7657 113.395 65.4877C113.562 65.2504 113.675 65.1022 113.884 65.0047L113.979 64.9661C114.222 64.8808 114.39 64.9209 114.69 65.0017C114.961 65.0747 115.331 65.1771 115.793 65.0591L115.998 64.9935C116.858 64.665 117.419 64.2048 117.681 63.5323C117.897 62.9782 117.88 62.3494 117.788 61.6918L117.744 61.4078C117.613 60.6079 117.211 60.0897 116.754 59.6653C116.534 59.4617 116.289 59.2681 116.066 59.0858C115.894 58.9448 115.726 58.8041 115.564 58.6513L115.405 58.4946C115.014 58.0912 114.358 57.3901 113.709 56.9572C113.388 56.7439 112.999 56.5463 112.596 56.5331C112.383 56.5261 112.164 56.5704 111.96 56.6914C111.759 56.8112 111.603 56.9886 111.484 57.2004L111.413 57.3504C111.352 57.5026 111.324 57.6604 111.332 57.8211C111.341 58.0307 111.409 58.2152 111.495 58.3693C111.656 58.6589 111.92 58.912 112.117 59.1025C112.341 59.32 112.504 59.4798 112.603 59.6356C112.685 59.7669 112.681 59.8305 112.657 59.8942L112.564 60.1032C112.537 60.1551 112.511 60.1922 112.486 60.221C112.443 60.2702 112.38 60.3214 112.242 60.374L112.147 60.4052C112.062 60.4285 112.004 60.4293 111.956 60.4234C111.919 60.4188 111.876 60.4088 111.821 60.3889L111.617 60.2953C111.55 60.2604 111.504 60.21 111.478 60.0565C111.447 59.8745 111.464 59.6474 111.486 59.3371C111.507 59.0655 111.535 58.7016 111.463 58.3794C111.424 58.2078 111.353 58.0248 111.22 57.8622C111.085 57.696 110.906 57.5755 110.692 57.5018L110.522 57.4532C110.351 57.4139 110.178 57.4048 110.007 57.4358C109.776 57.4779 109.583 57.5874 109.429 57.7333Z" fill="#F8A300" stroke="#FBF8EF"/>
<path d="M51.0339 109.671C50.718 109.888 50.5155 110.245 50.3765 110.57C50.0976 111.222 49.9287 112.122 49.7999 112.635L49.5896 113.503C49.4054 114.328 49.3116 115.064 49.4095 116.079L49.4455 116.315C49.6947 117.483 50.9318 118.457 52.4769 118.133C53.0588 118.011 53.373 117.676 53.5949 117.448C53.7837 117.255 53.9042 117.141 54.102 117.084L54.192 117.063C54.4172 117.022 54.5569 117.079 54.8214 117.197C55.061 117.305 55.3936 117.456 55.8462 117.414L56.048 117.384C56.9167 117.202 57.5418 116.792 57.9031 116.191C58.2131 115.675 58.2935 115.076 58.236 114.481L58.2038 114.227C58.0836 113.479 57.8104 112.968 57.4777 112.517C57.3182 112.301 57.1414 112.095 56.9759 111.898C56.8913 111.797 56.8072 111.695 56.7236 111.589L56.4754 111.257C56.1747 110.829 55.6714 110.084 55.1331 109.587C54.8682 109.342 54.533 109.098 54.1544 109.025C53.9537 108.986 53.738 108.995 53.526 109.079C53.3163 109.163 53.1415 109.307 52.9986 109.488L52.9083 109.62C52.8274 109.755 52.7771 109.901 52.7599 110.056C52.7564 110.087 52.7569 110.118 52.7561 110.149C52.7429 110.121 52.7298 110.092 52.7136 110.064C52.6099 109.885 52.4581 109.744 52.2674 109.642L52.1147 109.57C51.9591 109.507 51.7961 109.473 51.6288 109.477C51.4025 109.482 51.202 109.556 51.0339 109.671ZM52.8681 110.686C52.9819 110.949 53.1651 111.192 53.3025 111.375C53.4783 111.609 53.6022 111.776 53.6679 111.93C53.7224 112.057 53.7075 112.104 53.6824 112.147L53.5681 112.322C53.5361 112.364 53.5088 112.393 53.4837 112.414C53.442 112.448 53.3814 112.484 53.2508 112.511C53.1184 112.539 53.0475 112.531 52.9957 112.516C52.965 112.507 52.9293 112.493 52.8839 112.467L52.7133 112.354C52.6682 112.32 52.636 112.278 52.6347 112.14C52.6331 111.973 52.6798 111.77 52.7467 111.487C52.7988 111.265 52.8689 110.971 52.8681 110.686Z" fill="#F8A300" stroke="#FBF8EF"/>
<path d="M69.147 118.733C68.968 118.875 68.8586 119.101 68.7838 119.316C68.6338 119.749 68.5667 120.334 68.5044 120.685L68.4066 121.307C68.3796 121.514 68.3598 121.716 68.3481 121.91C68.3249 122.293 68.3349 122.66 68.4111 122.955L68.4576 123.108C68.5803 123.459 68.8009 123.757 69.1113 123.945C69.4241 124.135 69.807 124.2 70.2296 124.119L70.413 124.075C70.7638 123.975 70.9413 123.758 71.0761 123.599C71.1749 123.482 71.251 123.397 71.3631 123.341L71.4898 123.294C71.6609 123.25 71.7755 123.289 71.9544 123.355C72.1153 123.414 72.3243 123.491 72.5977 123.446L72.7192 123.419C73.266 123.263 73.621 122.979 73.8093 122.592C73.9693 122.263 73.994 121.89 73.9548 121.52L73.9343 121.363C73.8659 120.914 73.6625 120.596 73.4224 120.317C73.305 120.181 73.1744 120.049 73.0497 119.921C72.9863 119.855 72.9233 119.789 72.8611 119.721L72.6765 119.509C72.4573 119.24 72.0991 118.783 71.7315 118.488C71.55 118.343 71.3336 118.209 71.1044 118.181C70.9841 118.167 70.8586 118.182 70.7389 118.239C70.6203 118.297 70.5225 118.389 70.4433 118.505L70.3946 118.586C70.3526 118.669 70.3294 118.756 70.3257 118.846C70.321 118.964 70.3497 119.072 70.3911 119.165C70.4696 119.341 70.6117 119.504 70.7229 119.632C70.8467 119.775 70.9434 119.886 70.9988 119.994C71.0476 120.089 71.0468 120.147 71.0181 120.206L70.9477 120.334C70.9259 120.368 70.9056 120.393 70.8852 120.413C70.8484 120.448 70.7974 120.479 70.7035 120.506C70.6087 120.533 70.5488 120.532 70.4991 120.522C70.4717 120.516 70.4419 120.506 70.4065 120.489L70.2808 120.418C70.2227 120.381 70.1918 120.328 70.1833 120.222C70.1737 120.101 70.1969 119.955 70.2271 119.77C70.2543 119.603 70.289 119.39 70.2632 119.2C70.2495 119.099 70.2182 118.992 70.1522 118.895C70.0849 118.796 69.9909 118.72 69.8734 118.667L69.7776 118.63C69.6812 118.599 69.5839 118.586 69.4867 118.595C69.3554 118.607 69.2414 118.658 69.147 118.733Z" fill="#F8A300" stroke="#FBF8EF" stroke-width="0.5"/>
<path d="M113.374 51.5693C113.502 51.1906 113.805 50.8831 114.099 50.6466C114.688 50.1722 115.563 49.7404 116.058 49.4568L116.859 48.9775C117.644 48.5059 118.421 48.0924 119.558 48.0517L119.848 48.0495C120.516 48.0674 121.118 48.2394 121.584 48.632C122.056 49.0293 122.326 49.5989 122.423 50.2928L122.454 50.5973C122.496 51.2213 122.246 51.6338 122.076 51.9286C121.931 52.1802 121.843 52.3443 121.842 52.5748L121.847 52.6776C121.871 52.9341 121.977 53.0693 122.176 53.3082C122.356 53.5239 122.604 53.817 122.69 54.2862L122.716 54.4997C122.779 55.4395 122.537 56.2255 122.034 56.7809C121.594 57.2667 120.994 57.5328 120.34 57.5915L120.057 57.6036C118.799 57.6036 117.96 57.2104 116.99 56.837L116.565 56.6794C116.034 56.4924 115.124 56.1903 114.459 55.7812C114.131 55.5797 113.789 55.3088 113.608 54.9483C113.513 54.7577 113.461 54.54 113.486 54.3045C113.511 54.0715 113.606 53.8552 113.749 53.6591L113.856 53.5316C113.968 53.4125 114.1 53.3212 114.249 53.2608C114.444 53.1821 114.64 53.1667 114.816 53.1799C115.146 53.2048 115.486 53.3393 115.742 53.4382C116.033 53.5512 116.246 53.6324 116.429 53.6565C116.583 53.6767 116.639 53.6467 116.687 53.5977L116.838 53.4263C116.873 53.3793 116.896 53.3405 116.912 53.3057C116.939 53.2463 116.959 53.1673 116.949 53.0202L116.937 52.9206C116.923 52.8338 116.9 52.7807 116.874 52.7394C116.854 52.7076 116.827 52.6727 116.786 52.6317L116.616 52.4854C116.556 52.4395 116.491 52.4182 116.341 52.4588C116.163 52.5071 115.963 52.6169 115.691 52.7675C115.453 52.8993 115.134 53.0776 114.811 53.1463C114.639 53.1829 114.443 53.1947 114.24 53.1424C114.032 53.089 113.848 52.9767 113.692 52.8138L113.576 52.679C113.469 52.54 113.389 52.387 113.345 52.219C113.287 51.9915 113.306 51.7704 113.374 51.5693Z" fill="#F8A300" stroke="#FBF8EF"/>
<path d="M55.5612 104.581C55.7395 104.242 56.0716 104 56.3782 103.824C56.9934 103.472 57.868 103.2 58.3624 103.012L59.1999 102.701C60.0014 102.417 60.735 102.225 61.7476 102.225L62.01 102.238C62.613 102.297 63.1567 102.562 63.5477 103.01C63.9945 103.521 64.2063 104.229 64.1331 105.035C64.0793 105.627 63.7827 105.978 63.5825 106.225C63.4121 106.435 63.313 106.568 63.2798 106.771L63.2686 106.862C63.2541 107.091 63.3271 107.223 63.4753 107.472C63.6095 107.698 63.7985 108.01 63.8093 108.465L63.8026 108.669C63.6462 110.387 62.3319 111.525 60.9278 111.191L60.7918 111.155C59.8768 110.875 59.2526 110.591 58.5476 110.222L57.8025 109.822L57.7661 109.802C57.3065 109.553 56.508 109.14 55.9519 108.662C55.6783 108.428 55.3964 108.123 55.28 107.755C55.2184 107.561 55.2025 107.345 55.2618 107.125C55.3205 106.907 55.4434 106.717 55.6071 106.554L55.7269 106.449C55.8519 106.353 55.9915 106.286 56.1429 106.251C56.1737 106.244 56.2047 106.241 56.235 106.236C56.2055 106.227 56.1753 106.217 56.1458 106.204C55.9562 106.122 55.798 105.987 55.6748 105.81L55.5859 105.666C55.5054 105.519 55.4524 105.361 55.4368 105.194C55.4156 104.969 55.4663 104.761 55.5612 104.581ZM56.7818 106.285C57.0559 106.368 57.3181 106.522 57.516 106.637C57.7691 106.785 57.9495 106.888 58.1094 106.936C58.2419 106.975 58.2867 106.955 58.3267 106.925L58.4873 106.792C58.5255 106.755 58.5507 106.724 58.5687 106.697C58.5984 106.652 58.6265 106.587 58.6386 106.454C58.6508 106.32 58.6347 106.25 58.6138 106.2C58.6015 106.171 58.5832 106.137 58.5527 106.095L58.4199 105.939C58.3811 105.898 58.3359 105.871 58.1988 105.885C58.0325 105.903 57.8367 105.973 57.5626 106.072C57.349 106.15 57.0648 106.253 56.7818 106.285Z" fill="#F8A300" stroke="#FBF8EF"/>
<path d="M71.9029 115.158C71.9949 114.949 72.1857 114.786 72.3752 114.659C72.7551 114.404 73.3043 114.19 73.6275 114.041L74.1499 113.794C74.6529 113.559 75.1242 113.375 75.7995 113.375L75.9645 113.382C76.3436 113.412 76.6882 113.549 76.947 113.803C77.2074 114.059 77.3601 114.413 77.3872 114.84L77.3909 115.027C77.3835 115.392 77.2188 115.618 77.0991 115.789C77.0113 115.914 76.9479 116.01 76.9222 116.132L76.909 116.267C76.9103 116.443 76.9773 116.544 77.086 116.701C77.1837 116.841 77.3119 117.024 77.3376 117.3L77.3419 117.424C77.3304 117.983 77.1662 118.42 76.848 118.715C76.5718 118.97 76.2088 119.091 75.8092 119.117L75.6358 119.123C75.1844 119.123 74.8367 119.013 74.5118 118.863C74.353 118.79 74.1976 118.705 74.0429 118.623C73.9645 118.581 73.8853 118.539 73.8037 118.498L73.5493 118.375C73.2331 118.231 72.7003 118.001 72.3222 117.72C72.1356 117.581 71.9512 117.406 71.8662 117.191C71.8216 117.079 71.8041 116.954 71.8295 116.823C71.8547 116.694 71.919 116.576 72.0114 116.47L72.0777 116.402C72.1473 116.34 72.2258 116.296 72.3118 116.269C72.4243 116.235 72.5357 116.235 72.6361 116.252C72.8267 116.283 73.0204 116.379 73.1728 116.454C73.3424 116.538 73.4744 116.603 73.5926 116.629C73.6968 116.652 73.7532 116.637 73.8026 116.594L73.9089 116.493C73.9356 116.464 73.9547 116.438 73.9686 116.413C73.9935 116.369 74.0107 116.311 74.0127 116.214L74.0041 116.093C73.9977 116.061 73.9876 116.035 73.9761 116.012C73.9635 115.987 73.9463 115.961 73.9211 115.931L73.8203 115.827C73.7695 115.78 73.711 115.764 73.6058 115.783C73.4863 115.804 73.3519 115.863 73.1799 115.94C73.0254 116.008 72.8285 116.096 72.6375 116.119C72.5366 116.132 72.4256 116.128 72.3148 116.089C72.2019 116.049 72.1041 115.978 72.0235 115.877L71.9638 115.794C71.9091 115.709 71.8713 115.618 71.8554 115.522C71.8339 115.392 71.8544 115.268 71.9029 115.158Z" fill="#F8A300" stroke="#FBF8EF" stroke-width="0.5"/>
<path d="M27.2 25.7179C27.2 25.7179 31.3916 27.302 33.9487 28.5938L34.0329 28.6364C38.3774 30.831 40.951 32.1311 44.4997 35.4999C47.22 38.0823 48.4093 39.8855 50.4997 42.9999C51.7688 44.8905 53.4999 47.9997 53.4999 47.9997C53.4999 47.9997 50.4997 46.5 48.9999 44.9997C46.4545 42.4533 45.6375 40.4504 42.9997 37.9999C39.4459 34.6983 37.1262 33.0533 32.7159 31.0337C30.1648 29.8654 25.9274 28.6801 25.9274 28.6801C25.9274 28.6801 20.9964 31.5587 20.0822 29.8171C19.4179 28.5517 20.0822 27.0007 20.0822 27.0007C20.0822 27.0007 19.3658 24.7317 20.0822 23.5007C20.7846 22.2935 22.9989 22.0007 22.9989 22.0007C22.9989 22.0007 23.9929 19.8862 25.5303 20.1443C27.0808 20.4046 27.2 25.7179 27.2 25.7179Z" fill="#65D157"/>
<path d="M91 71C98.2974 74.2263 104.711 79.3547 109.684 85.5945C114.705 91.8951 116.45 96.3589 119 104.001C121.267 110.794 124 124 124 124L121 124C121 124 118.627 111.411 116.5 105.001C114.079 97.7072 112.177 93.5993 107.5 87.5008C102.705 81.2469 97.7931 77.4953 91 73.5C87.3087 71.329 80 68.5 80 68.5C80 68.5 86.755 69.1232 91 71Z" fill="#65D157"/>
<path d="M20.2279 89.6439C21.0531 84.8109 23.172 81.3294 25.6492 78.3198C28.1505 75.2809 30.1065 73.9939 33.4997 71.9995C36.5156 70.2267 38.7323 69.7219 42.1052 69.1433C44.6604 68.705 48.5 68.5 48.5 68.5C48.5 68.5 45.0645 70.4563 42.5664 71.1725C39.4614 72.0628 37.3469 72.3323 34.4997 73.9995C31.2598 75.8965 29.4898 77.2228 27.0501 80.0766C24.5483 83.003 23.2664 85.9425 22.0664 90.1725C21.435 92.3983 21 96 21 96C21 96 19.4026 94.4769 20.2279 89.6439Z" fill="#65D157"/>
<path d="M110 86.0001C110 86 110 86 110 86C110 86 111.946 89.8921 110 86.0001C109.988 86.0139 107.764 88.6121 106 81.5002C104.562 75.7074 104.298 70.1281 106.499 64.0003C107.15 62.1904 108.999 58.0003 108.999 58.0003C108.999 58.0003 107.985 62.3002 107.499 64.0003C105.499 71.0003 106.13 78.2594 109 83.9996C109.412 84.8234 109.74 85.4809 110 86.0001Z" fill="#65D157"/>
<path d="M14.4997 52.4992C14.7808 50.5278 18.9997 51.4992 18.9997 51.4992C18.9997 51.4992 21.8023 46.1149 23.9994 43.4993C25.8665 41.2765 26.8726 39.7333 29.5004 38.4998C32.8631 36.9214 35.3186 37.0001 38.9996 37.4993C42.6708 37.9973 44.6803 39.3533 47.9994 40.9993C49.4097 41.6988 50.4994 44.4993 50.4994 44.4993C50.4994 44.4993 48.5 44.4993 48 44C45.4189 41.4223 42.6298 40.3576 38.9996 39.9993C35.6905 39.6727 33.4829 39.5316 30.4994 40.9997C28.0217 42.2189 27.1946 43.8197 25.4994 45.9993C23.5663 48.4847 21.4999 52.9999 21.4999 52.9999C21.4999 52.9999 24.4997 55.4992 21.9997 58.0006C21.2374 58.7634 19.9997 57.5001 19.9997 57.5001C19.9997 57.5001 17.9332 58.5415 17.0003 58.0006C15.9316 57.381 15.9998 54.9997 15.9998 54.9997C15.9998 54.9997 14.3009 53.8927 14.4997 52.4992Z" fill="#65D157"/>
<path d="M7.20113 83.1104C7.85566 80.8077 9.68386 80.2769 10.8585 78.191C11.4835 77.0812 11.4157 76.1978 12.2646 75.2482C13.0524 74.3669 13.6691 73.941 14.7989 73.5931C15.8223 73.278 17.2161 73.0274 18.2825 73.1242C19.8535 73.2667 20.7196 73.8436 22.138 74.0853C27.5002 74.9994 30.9996 73.4998 30.9996 73.4998L32 73C32 73 30.5 75.167 28 76C25.5 76.833 23.8576 80.3178 22.5 81.5C21.1424 82.6822 20 83 20 83C20 83 18.9139 85.0506 17.5 85.4348C16.467 85.7155 14.9385 85.4348 14.9385 85.4348C14.9385 85.4348 13.1991 86.8331 12.2646 87C11.3165 87.1694 9.5 86.5 9.5 86.5C9.5 86.5 8.13475 88.3251 7.2806 87.3368C6.35278 86.2633 6.81318 84.4753 7.20113 83.1104Z" fill="#65D157"/>
<path d="M118.542 68.9213C116.404 69.9981 116.227 71.8935 114.4 73.4402C113.428 74.2631 112.547 74.363 111.775 75.3756C111.058 76.3154 110.756 77.0014 110.627 78.1764C110.51 79.2408 110.527 80.6569 110.823 81.686C111.259 83.202 113.036 86.1956 112.999 87.4993C112.846 92.9368 114.367 94.2559 114.367 94.2559L117.061 98.6368C117.061 98.6368 114.433 92.8947 116.027 89.4344C117.116 87.0698 119.85 86.291 120.755 84.7349C121.66 83.1788 120.845 81.5117 120.845 81.5117C120.845 81.5117 123.152 80.1032 123.262 78.6422C123.343 77.5748 122.283 76.0821 122.283 76.0821C122.283 76.0821 122.685 74.6321 122.673 73.6829C122.661 72.7199 122.304 70.5403 122.304 70.5403C122.304 70.5403 123.839 68.8556 122.708 68.203C121.478 67.4941 119.809 68.2831 118.542 68.9213Z" fill="#65D157"/>
<path d="M30.6153 86.7451C29.8665 85.3875 30.4654 84.3099 30.0547 82.8149C29.8362 82.0194 29.2848 81.6168 29.3598 80.8202C29.4348 80.0236 30.5349 79.681 30.5349 79.681C30.5349 79.681 30.0492 78.3544 31.1595 77.0995C32.2698 75.8446 32.8652 76.5481 33.3711 75.7838C35.6044 72.4101 39.481 71.9914 39.481 71.9914C39.481 71.9914 37.4024 73.0781 36.9404 73.9919C36.4783 74.9056 38.1105 77.8319 37.2748 80.0483C37.0754 80.5772 36.5602 80.8506 36.5602 80.8506C36.5602 80.8506 37.0493 82.6118 36.6941 83.2768C36.3675 83.8883 35.75 83.8235 35.234 84.2866C34.3265 85.1012 34.4054 85.6242 33.4307 86.8361C32.9968 87.3756 33.4223 88.718 32.5788 88.6529C31.6626 88.5821 31.0592 87.5498 30.6153 86.7451Z" fill="#65D157"/>
<path d="M67.8303 104.339C67.8741 101.481 73.634 98.4992 73.634 98.4992C73.634 98.4992 75.9255 95.8052 78.0004 95.4992C79.9322 95.2143 83.5004 96.2707 83.5004 96.2707C83.5004 96.2707 84.1845 92.9992 88.5004 93.4992C92.8163 93.9992 95.29 96.2707 95.29 96.2707C95.29 96.2707 99.315 94.5081 103.424 97.714C107.533 100.92 106.897 103.093 108.5 104C110.103 104.906 110.346 103.761 112.501 105.5C115.344 107.794 117.087 112.26 119 115.201C120.684 117.79 121 124 121 124C121 124 117.5 116.5 114 115.5C110.5 114.5 102.485 119.433 95.444 117.265C93.7638 116.747 92.8163 115.2 92.8163 115.2C92.8163 115.2 87.4428 117.057 85.3102 116.082C83.349 115.185 81.895 111.743 81.895 111.743C81.895 111.743 78.559 111.366 76.9999 110.5C75.1338 109.463 73.634 106.635 73.634 106.635C73.634 106.635 67.79 106.97 67.8303 104.339Z" fill="#65D157"/>
<path d="M17.8334 102.386C18.9077 101.544 20.4204 101.047 21.8764 101.055C23.2442 101.062 24.6324 101.519 25.5452 102.639L25.7207 102.873C27.2267 105.023 26.9006 108.005 24.724 109.712C22.5667 111.404 19.4748 111.13 17.8272 109.029C17.0533 108.043 16.491 106.85 16.3999 105.665C16.3071 104.457 16.7089 103.268 17.8334 102.386Z" fill="#F8A300" stroke="#FBF8EF"/>
<path d="M16.3946 102.918C15.9156 103.051 15.3721 102.957 14.8821 102.809C13.8998 102.511 12.7503 101.86 12.0209 101.505L11.4288 101.227C10.088 100.616 9.0229 100.206 7.77222 98.6753L7.55777 98.3907C7.0885 97.7096 6.8431 96.9258 6.90986 96.1266C6.98204 95.264 7.41325 94.4404 8.21157 93.7569L8.3754 93.6223C9.00668 93.1272 9.61949 93.0932 10.0893 93.0584C10.4928 93.0284 10.7905 92.9982 11.0993 92.7919L11.2333 92.6921C11.5573 92.4234 11.6416 92.1439 11.7599 91.7298C11.8735 91.3322 12.0169 90.8205 12.5282 90.3708L12.6354 90.2814C13.6281 89.5029 14.6607 89.184 15.6246 89.315C16.5284 89.4379 17.3021 89.9471 17.8714 90.7051L17.9825 90.8602C18.7283 91.9484 19.0242 93.0717 19.315 94.2802L19.6197 95.5182C19.8215 96.2795 20.1792 97.5338 20.2283 98.588C20.2525 99.1093 20.208 99.6675 19.9629 100.107C19.8347 100.337 19.65 100.537 19.3978 100.672C19.1477 100.807 18.8608 100.862 18.5517 100.852L18.3466 100.832C18.1478 100.8 17.9664 100.73 17.8054 100.622C17.5947 100.482 17.4435 100.295 17.3322 100.102C17.12 99.7339 17.0129 99.2689 16.9256 98.8929C16.8295 98.4794 16.7528 98.1463 16.6254 97.8936C16.5109 97.6666 16.3899 97.5714 16.2185 97.5414L16.034 97.5132C15.8664 97.4926 15.7455 97.494 15.6426 97.5121C15.5165 97.5345 15.3816 97.5887 15.2011 97.7302C15.0194 97.8728 14.933 97.9909 14.881 98.1076C14.8391 98.202 14.8099 98.3185 14.7912 98.4843L14.7759 98.6684C14.7654 98.8502 14.8336 98.9943 15.0272 99.1601C15.2427 99.3446 15.547 99.4981 15.9244 99.6887C16.2673 99.8618 16.6921 100.076 16.998 100.368C17.1586 100.522 17.3041 100.713 17.3899 100.951C17.4773 101.193 17.4916 101.455 17.4336 101.728L17.3758 101.946C17.3072 102.156 17.2064 102.344 17.0676 102.502C16.8801 102.715 16.6462 102.848 16.3946 102.918Z" fill="#F8A300" stroke="#FBF8EF"/>
<path d="M22.602 100.408C22.306 100.009 22.1989 99.4679 22.1622 98.9571C22.0887 97.9332 22.2849 96.6268 22.3551 95.8187L22.3768 95.488C22.393 95.1592 22.3931 94.8343 22.3922 94.5065C22.391 94.0771 22.3883 93.6335 22.4263 93.2061C22.5042 92.329 22.7583 91.4688 23.5691 90.7193L24.0481 90.289C24.5395 89.8646 25.0731 89.4726 25.6638 89.2531C26.4457 88.9627 27.2899 88.9858 28.2213 89.4861L28.409 89.592C29.0973 90.0041 29.3485 90.5641 29.5494 90.9903C29.7218 91.3562 29.8566 91.6234 30.1598 91.8379L30.3011 91.9273C30.6679 92.1335 30.9591 92.1121 31.3881 92.0743C31.8 92.0379 32.3291 91.9886 32.9321 92.3049L33.0539 92.373C34.1548 93.0321 34.6872 93.8358 34.8312 94.7602C34.9333 95.4166 34.8318 96.0996 34.672 96.7655L34.4988 97.4232C34.2054 98.4694 33.554 99.0588 32.8317 99.51C32.482 99.7284 32.0954 99.9267 31.7363 100.12C31.4604 100.269 31.1894 100.42 30.9263 100.591L30.6659 100.77C30.0273 101.231 28.9843 102.014 28.0176 102.437C27.5396 102.646 27.0025 102.805 26.5041 102.733C26.2436 102.696 25.991 102.595 25.7741 102.408C25.5591 102.223 25.4045 101.975 25.303 101.683L25.2481 101.484C25.207 101.287 25.2078 101.092 25.2504 100.903C25.3062 100.656 25.4266 100.448 25.567 100.275C25.8345 99.9454 26.2304 99.6788 26.5501 99.4627C26.9018 99.2249 27.1853 99.034 27.3756 98.8245C27.5466 98.6363 27.5921 98.4893 27.5587 98.3184L27.519 98.1361C27.4782 97.9723 27.4336 97.8598 27.3798 97.7703C27.3138 97.6605 27.2148 97.554 27.0181 97.4362C26.8199 97.3176 26.6787 97.2793 26.5511 97.2725C26.4479 97.2671 26.3287 97.2816 26.1672 97.3236L25.9898 97.3751C25.8164 97.4305 25.7062 97.5458 25.6207 97.7859C25.5257 98.0532 25.4913 98.3923 25.4486 98.8129C25.4097 99.195 25.3622 99.6683 25.1985 100.059C25.1124 100.264 24.9864 100.468 24.7949 100.633C24.5999 100.802 24.3611 100.909 24.0847 100.952L23.8611 100.976C23.6402 100.988 23.4289 100.961 23.2317 100.888C22.9655 100.789 22.7574 100.618 22.602 100.408Z" fill="#F8A300" stroke="#FBF8EF"/>
<path d="M16.0057 105.325C15.6657 104.963 15.1527 104.76 14.6568 104.632C13.6626 104.377 12.3423 104.335 11.5346 104.26L10.8579 104.198C9.34049 104.069 8.2197 104.052 6.4875 104.453L6.30786 104.499C5.41935 104.755 4.7261 105.341 4.34844 106.139C3.9723 106.933 3.92608 107.898 4.25349 108.899L4.32349 109.099C4.60551 109.85 5.11139 110.198 5.49463 110.472C5.82376 110.707 6.06244 110.887 6.21904 111.224L6.28166 111.379C6.41878 111.777 6.34555 112.06 6.23139 112.475C6.1218 112.874 5.97839 113.385 6.18149 114.035L6.22665 114.167C6.67191 115.353 7.37268 116.111 8.25959 116.472C9.02311 116.782 9.86218 116.772 10.6854 116.571L11.0375 116.474C11.9454 116.194 12.6017 115.696 13.1866 115.128C13.4753 114.847 13.7533 114.542 14.031 114.241C14.1714 114.089 14.313 113.935 14.4591 113.782L14.9152 113.323C15.4833 112.778 16.4408 111.892 17.0306 111.017C17.3222 110.584 17.5743 110.084 17.5934 109.581C17.6034 109.318 17.5494 109.051 17.4044 108.805C17.2605 108.56 17.0443 108.363 16.7751 108.211L16.5895 108.121C16.403 108.046 16.2113 108.012 16.018 108.02C15.7649 108.03 15.5386 108.111 15.3432 108.218C14.9707 108.423 14.6374 108.764 14.3675 109.04C14.0705 109.343 13.8318 109.588 13.5917 109.738C13.3759 109.872 13.223 109.891 13.061 109.827L12.8887 109.755C12.7348 109.686 12.6322 109.622 12.5538 109.553C12.4576 109.468 12.3706 109.352 12.2899 109.137C12.2088 108.921 12.1964 108.775 12.2126 108.648C12.2258 108.546 12.2614 108.431 12.3317 108.28L12.4142 108.115C12.4998 107.954 12.6329 107.866 12.8845 107.825C13.1645 107.779 13.5043 107.806 13.9257 107.84C14.3086 107.87 14.7827 107.908 15.1962 107.817C15.4133 107.769 15.6367 107.682 15.8337 107.523C16.0344 107.361 16.1824 107.146 16.2751 106.882L16.3387 106.666C16.3894 106.451 16.4008 106.238 16.3643 106.031C16.3149 105.751 16.1843 105.516 16.0057 105.325Z" fill="#F8A300" stroke="#FBF8EF"/>
<path d="M15.7275 119.676C15.7275 117.795 16.3677 116.708 17.1423 114.994C17.8556 113.416 18.8876 110.357 20.3969 111.549C21.6238 112.518 19.2021 114.424 20.2526 115.55C20.6531 115.979 20.9724 116.174 21.5592 116.158C22.146 116.141 22.4494 115.924 22.8295 115.477C23.8159 114.316 21.2882 112.528 22.4581 111.49C23.8971 110.214 25.2204 113.273 25.9036 114.745C26.6748 116.407 27.5774 117.378 27.5774 119.21C27.5774 121 26.6383 122.461 24.319 122.527C23.1411 122.56 22.8912 121.567 21.7128 121.569C20.4394 121.571 20.1805 122.644 18.9075 122.68C16.8462 122.739 15.7275 121.253 15.7275 119.676Z" fill="#F8A300" stroke="#FBF8EF"/>
<path d="M27.1917 104.596C27.4976 104.205 27.9903 103.957 28.4727 103.785C29.4398 103.441 30.7511 103.281 31.5487 103.133L32.8436 102.899C34.0695 102.698 35.1463 102.618 36.6099 102.874L36.7748 102.907C38.4092 103.286 39.688 104.987 39.2189 107.091L39.1662 107.303C38.9529 108.077 38.4804 108.468 38.1234 108.776C37.8167 109.04 37.5953 109.241 37.4696 109.59L37.4212 109.75C37.3205 110.159 37.4188 110.434 37.5699 110.837C37.715 111.224 37.9039 111.721 37.7601 112.387L37.727 112.522C37.3877 113.753 36.7457 114.536 35.8911 114.954C35.1644 115.308 34.3387 115.371 33.5275 115.298L33.1804 115.258C32.1464 115.119 31.4324 114.673 30.8076 114.135C30.5034 113.873 30.2109 113.58 29.9239 113.3C29.7048 113.087 29.4827 112.875 29.2429 112.668L28.9977 112.464C28.3829 111.972 27.3495 111.176 26.6833 110.357C26.3539 109.952 26.0578 109.477 25.9935 108.978C25.9599 108.717 25.9897 108.446 26.1119 108.188C26.2331 107.931 26.4308 107.716 26.6852 107.54L26.862 107.434C27.0409 107.342 27.2287 107.29 27.422 107.281C27.6749 107.269 27.9077 107.329 28.1119 107.418C28.5013 107.588 28.864 107.898 29.1576 108.149C29.4807 108.424 29.7405 108.646 29.9931 108.774C30.2201 108.888 30.374 108.893 30.5297 108.815L30.6948 108.728C30.8418 108.645 30.9382 108.572 31.0102 108.496C31.0983 108.403 31.1745 108.279 31.2355 108.058C31.2969 107.836 31.2961 107.689 31.2685 107.564C31.2462 107.464 31.2004 107.353 31.1168 107.208L31.0197 107.051C30.92 106.899 30.7795 106.823 30.5252 106.805C30.2423 106.785 29.9063 106.842 29.4896 106.913C29.111 106.978 28.6422 107.059 28.2222 107.005C28.0016 106.977 27.7713 106.91 27.5608 106.77C27.3464 106.627 27.1796 106.425 27.0635 106.171L26.9807 105.962C26.9108 105.752 26.8803 105.541 26.8981 105.331C26.9221 105.048 27.031 104.802 27.1917 104.596Z" fill="#F8A300" stroke="#FBF8EF"/>
<path d="M61.9971 54.5C64.1879 54.5001 66.6058 55.3739 68.4492 56.8359C70.2375 58.2544 71.5412 60.2761 71.499 62.6533L71.4912 62.8848C71.2641 67.0772 67.9132 70.4998 63.4961 70.5C59.1032 70.5 55.5 67.1008 55.5 62.8574C55.5 60.8165 55.9791 58.7473 57.0303 57.1719C58.0943 55.5773 59.7422 54.5 61.9971 54.5Z" fill="#F8A300" stroke="#FBF8EF"/>
<path d="M59.8459 53.2097C59.0822 52.8924 58.4286 52.1904 57.8723 51.3964C56.7584 49.8063 55.8149 47.5079 55.104 46.0468L54.807 45.4571C54.5067 44.8791 54.1985 44.3345 53.8976 43.7991C53.4994 43.0905 53.111 42.3937 52.7907 41.6799C52.1421 40.2345 51.764 38.7066 52.058 36.7543L52.1664 36.128C52.4499 34.6779 52.9612 33.3173 53.8589 32.2741C54.8379 31.1365 56.2366 30.4227 58.161 30.3379L58.5525 30.3289C59.953 30.3289 60.8237 30.9298 61.5819 31.4386C62.2858 31.9109 62.894 32.3055 63.8441 32.3294L64.0395 32.3287C65.0137 32.3023 65.5813 31.892 66.2589 31.4006C66.9018 30.9343 67.6391 30.4007 68.8124 30.3358L69.0528 30.3289C71.4138 30.3289 73.073 31.0577 74.1924 32.3114C75.2257 33.4687 75.7477 35.0166 76.0016 36.6797L76.0486 37.0139C76.2887 38.8508 75.8545 40.3209 75.2006 41.7234C74.8775 42.4163 74.4946 43.1047 74.1171 43.8026C73.8316 44.3304 73.5453 44.8701 73.2761 45.4419L73.013 46.0254C72.4007 47.4496 71.4672 49.7347 70.3164 51.3515C69.7445 52.155 69.0705 52.865 68.2932 53.1911C67.8939 53.3585 67.464 53.4257 67.0164 53.3478C66.571 53.2704 66.1417 53.0555 65.7313 52.7119L65.6035 52.5979C65.3181 52.3268 65.1233 52.0194 65.0124 51.6823C64.8874 51.3017 64.8785 50.9116 64.9323 50.5346C65.0372 49.8011 65.3957 49.0294 65.7195 48.3359C66.0598 47.6074 66.37 46.9501 66.4916 46.3444C66.6075 45.767 66.5373 45.3084 66.1815 44.913L65.9177 44.634C65.6655 44.3805 65.4423 44.2017 65.2092 44.0774C64.9085 43.917 64.5582 43.8289 64.0533 43.8288L63.8696 43.833C63.4587 43.8518 63.1559 43.9359 62.8925 44.0753C62.6599 44.1985 62.4368 44.376 62.1875 44.6298L61.9285 44.9095C61.569 45.3175 61.4991 45.7847 61.615 46.3638C61.7366 46.9711 62.0478 47.6265 62.3877 48.3518C62.7112 49.0421 63.0688 49.8104 63.1735 50.5408C63.2274 50.9167 63.2189 51.3059 63.0934 51.6857C62.9665 52.0699 62.7293 52.4143 62.3739 52.7119L62.2199 52.8341C61.8597 53.1054 61.4875 53.2805 61.104 53.352C60.6624 53.4343 60.2391 53.373 59.8459 53.2097Z" fill="#F8A300" stroke="#FBF8EF"/>
<path d="M71.0848 57.7268C71.1075 56.9001 71.5289 56.0385 72.0711 55.2348C73.1567 53.6253 74.9648 51.9212 76.0743 50.7342L76.5171 50.2515C78.6697 47.8719 79.927 45.9928 83.5876 44.5847L83.8952 44.4727C85.4386 43.9459 87.0324 43.9031 88.4502 44.4665C89.8757 45.033 91.0685 46.1908 91.837 47.9629L91.9847 48.3248C92.4863 49.6324 92.237 50.6606 92.0336 51.5507C91.8447 52.3771 91.6941 53.0862 92.012 53.9818L92.0827 54.164C92.4562 55.0642 93.0426 55.4472 93.744 55.9038C94.4097 56.3371 95.1719 56.8344 95.6527 57.9067L95.7452 58.1286C96.5887 60.3275 96.5414 62.2093 95.7946 63.7409C95.0991 65.1669 93.8311 66.2197 92.2796 66.9367L91.9654 67.0757C90.242 67.8054 88.7389 67.928 87.2293 67.8532C86.4825 67.8163 85.7276 67.7306 84.956 67.6476C84.3739 67.585 83.7771 67.5231 83.1484 67.4816L82.5082 67.4476C80.9592 67.386 78.4913 67.3327 76.5696 66.8374C75.6145 66.5911 74.7103 66.2161 74.1275 65.6071C73.8282 65.2943 73.6115 64.917 73.5238 64.4712C73.4366 64.0276 73.4836 63.5498 73.6574 63.0436L73.718 62.8835C73.8689 62.5199 74.0862 62.2279 74.3613 62.0037C74.6718 61.7506 75.0328 61.6026 75.4041 61.5178C76.1265 61.353 76.9754 61.4114 77.7389 61.4654C78.541 61.5222 79.2658 61.5764 79.8748 61.473C80.4554 61.3744 80.8585 61.1447 81.1002 60.6709L81.2662 60.3247C81.4126 59.9984 81.4996 59.7259 81.5322 59.4638C81.5742 59.1256 81.5311 58.767 81.3503 58.2955L81.2806 58.1255C81.1158 57.7486 80.9289 57.496 80.7044 57.3C80.5061 57.127 80.2604 56.9822 79.9342 56.8403L79.5803 56.6987C79.0706 56.5092 78.6094 56.6112 78.1102 56.9268C77.5867 57.2578 77.0863 57.7832 76.5308 58.3603C76.0021 58.9095 75.4129 59.5186 74.7684 59.8779C74.4368 60.0628 74.0704 60.1943 73.6708 60.2132C73.2666 60.2323 72.8601 60.1342 72.455 59.9089L72.2858 59.8089C71.9035 59.5697 71.6067 59.2849 71.4026 58.9525C71.1676 58.5696 71.0731 58.1525 71.0848 57.7268Z" fill="#F8A300" stroke="#FBF8EF"/>
<path d="M56.0567 57.3693C55.9841 56.5455 55.5114 55.7109 54.9217 54.9413C53.7409 53.4003 51.8332 51.8086 50.654 50.6907L50.1762 50.227C49.7074 49.7636 49.2652 49.302 48.8268 48.8495C48.2461 48.2501 47.6709 47.6666 47.0692 47.1438C45.8572 46.0909 44.5148 45.2659 42.7076 44.9882L42.0786 44.9048C40.6106 44.7429 39.1591 44.821 37.8945 45.3614C36.5153 45.9508 35.4138 47.0667 34.7535 48.876L34.6271 49.2466C34.2054 50.5822 34.5163 51.5934 34.7732 52.4696C35.0116 53.2831 35.2048 53.9818 34.9415 54.895L34.882 55.0811C34.5635 56.0022 34.0013 56.4199 33.3287 56.9181C32.6905 57.3908 31.9597 57.9332 31.5445 59.0326L31.4655 59.2596C30.7553 61.5089 30.9378 63.3368 31.7886 64.7956C32.5765 66.1464 33.8986 67.1135 35.4388 67.8142L35.7498 67.9508C37.6282 68.7485 39.1509 68.7822 40.6452 68.5717C41.3781 68.4685 42.1125 68.3052 42.856 68.1518C43.419 68.0356 43.9971 67.9236 44.6126 67.8382L45.2413 67.7622C46.7837 67.6071 49.2438 67.405 51.1321 66.7944C52.0706 66.491 52.9505 66.062 53.4955 65.419C53.7754 65.0886 53.9688 64.6989 54.0294 64.2486C54.0897 63.8006 54.014 63.3265 53.8099 62.8317L53.7397 62.6755C53.5671 62.3217 53.3326 62.0434 53.0445 61.8362C52.7192 61.6023 52.35 61.4764 51.9742 61.4142C51.2432 61.2934 50.3993 61.4029 49.6406 61.5029C48.8433 61.608 48.1231 61.7059 47.509 61.6395C46.9235 61.5761 46.5073 61.3712 46.2373 60.9128L46.0507 60.5773C45.8849 60.2604 45.7817 59.9937 45.7333 59.7341C45.6709 59.399 45.6923 59.0384 45.8443 58.5569L45.9036 58.383C46.0453 57.9968 46.2166 57.7334 46.4289 57.5242C46.6164 57.3395 46.8528 57.1802 47.1699 57.0189L47.5146 56.8561C48.0119 56.6361 48.4784 56.7102 48.9958 56.995C49.5383 57.2938 50.0695 57.788 50.6589 58.3305C51.2198 58.8468 51.8447 59.4192 52.5097 59.7389C52.8519 59.9035 53.2256 60.0126 53.6256 60.0073C54.0302 60.0019 54.43 59.8795 54.8208 59.6301L54.9837 59.5201C55.3508 59.2582 55.6299 58.956 55.8135 58.6119C56.025 58.2155 56.094 57.7934 56.0567 57.3693Z" fill="#F8A300" stroke="#FBF8EF"/>
<path d="M56.1855 67.588C55.3828 67.389 54.4399 67.565 53.5206 67.8727C51.6796 68.489 49.5545 69.7762 48.1141 70.5283L47.5238 70.8261C46.9372 71.1131 46.362 71.3691 45.7976 71.6229C45.0507 71.9589 44.3184 72.2924 43.6322 72.6781C42.244 73.4585 41.0289 74.4633 40.1382 76.1947L39.8485 76.7851C39.2062 78.1649 38.8082 79.5622 38.9138 80.9204C39.0294 82.4044 39.7398 83.7748 41.2332 84.979L41.5424 85.217C42.6685 86.0497 43.7259 86.0841 44.638 86.1258C45.4848 86.1645 46.2084 86.2088 46.9866 86.7544L47.1433 86.8712C47.911 87.4716 48.1234 88.139 48.3761 88.9369C48.6158 89.6941 48.8914 90.5615 49.7963 91.3113L49.9854 91.4597C51.8849 92.8641 53.7048 93.2789 55.3737 92.9472C56.9225 92.6392 58.2696 91.7021 59.3851 90.471L59.6055 90.2217C60.8294 88.7896 61.351 87.3651 61.6699 85.8766C61.8275 85.1414 61.9373 84.3821 62.0554 83.6118C62.1446 83.0298 62.2397 82.4348 62.3652 81.8176L62.5017 81.1928C62.856 79.6837 63.464 77.2913 63.4999 75.3071C63.5178 74.3209 63.3979 73.3493 62.9667 72.625C62.7452 72.2531 62.4395 71.9435 62.0333 71.7399C61.6291 71.5374 61.1562 71.455 60.6219 71.4873L60.4514 71.503C60.0607 71.5512 59.7213 71.6826 59.4317 71.8878C59.1049 72.1195 58.8659 72.4278 58.685 72.763C58.3332 73.4151 58.1627 74.2488 58.0109 74.9989C57.8513 75.787 57.7099 76.5 57.4476 77.0592C57.1975 77.5924 56.8685 77.9195 56.3473 78.0259L55.9693 78.0934C55.6158 78.1473 55.33 78.1583 55.0687 78.1197C54.7316 78.0699 54.3975 77.9325 53.9915 77.6324L53.8462 77.5198C53.527 77.2603 53.3336 77.0128 53.2047 76.744C53.0909 76.5067 53.017 76.2313 52.9674 75.879L52.9255 75.5002C52.8789 74.9583 53.1005 74.5412 53.538 74.1444C53.9968 73.7284 54.6367 73.3865 55.3412 73.0053C56.0117 72.6425 56.7561 72.2374 57.2745 71.7124C57.5413 71.4422 57.7658 71.1242 57.8908 70.7441C58.0171 70.3597 58.0312 69.9418 57.9223 69.4913L57.8711 69.3014C57.7428 68.8692 57.5476 68.507 57.2817 68.2216C56.9755 67.8928 56.5988 67.6904 56.1855 67.588Z" fill="#F8A300" stroke="#FBF8EF"/>
<path d="M72.2452 67.588C73.0479 67.389 73.9907 67.565 74.9101 67.8727C76.7511 68.489 78.8762 69.7762 80.3165 70.5283L81.4768 71.115C84.1226 72.4248 86.3498 73.4096 88.2576 76.1371L88.4606 76.4371C89.4431 77.9403 89.9181 79.4634 89.7284 80.9452C89.5376 82.4343 88.6875 83.7923 87.1951 84.9816L86.8883 85.217C85.7622 86.0497 84.7048 86.0841 83.7927 86.1258C82.9458 86.1645 82.2222 86.2088 81.4441 86.7544L81.2874 86.8712C80.5197 87.4716 80.3072 88.139 80.0546 88.9369C79.8148 89.6941 79.5393 90.5615 78.6343 91.3113L78.4452 91.4597C76.5384 92.8696 74.6098 93.2766 72.8959 92.9477C71.2976 92.641 69.933 91.7034 68.9785 90.4372L68.793 90.1793C66.8403 87.3368 66.7234 84.8696 66.0682 81.8121L65.929 81.1928C65.5746 79.6837 64.9667 77.2913 64.9307 75.3071C64.9129 74.3209 65.0328 73.3493 65.4639 72.625C65.6854 72.2531 65.9912 71.9435 66.3974 71.7399C66.8015 71.5374 67.2745 71.455 67.8088 71.4873L67.9793 71.503C68.3699 71.5512 68.7093 71.6826 68.9989 71.8878C69.3258 72.1195 69.5648 72.4278 69.7456 72.763C70.0974 73.4151 70.2679 74.2488 70.4198 74.9989C70.5794 75.787 70.7207 76.5 70.983 77.0592C71.2332 77.5924 71.5622 77.9195 72.0834 78.0259L72.4613 78.0934C72.8149 78.1473 73.1006 78.1583 73.3619 78.1197C73.6991 78.0699 74.0332 77.9325 74.4392 77.6324L74.5844 77.5198C74.9036 77.2603 75.0971 77.0128 75.226 76.744C75.3398 76.5067 75.4137 76.2313 75.4632 75.879L75.5052 75.5002C75.5517 74.9583 75.3302 74.5412 74.8927 74.1444C74.4339 73.7284 73.794 73.3865 73.0894 73.0053C72.4189 72.6425 71.6746 72.2374 71.1562 71.7124C70.8894 71.4422 70.6648 71.1242 70.5399 70.7441C70.4135 70.3597 70.3995 69.9418 70.5084 69.4913L70.5596 69.3014C70.6879 68.8692 70.8831 68.507 71.1489 68.2216C71.4551 67.8928 71.8319 67.6904 72.2452 67.588Z" fill="#F8A300" stroke="#FBF8EF"/>
<path d="M16.441 79.8304C14.4202 80.9093 12.3486 82.1094 11.329 82.7072C9.94166 83.5208 9.19912 84.4587 9.19912 84.4587C9.19912 84.4587 10.0804 83.0907 11.329 82.1032C12.2934 81.3405 14.672 79.8304 14.672 79.8304C14.672 79.8304 13.6618 79.5702 12.9999 79.5001C12.224 79.4178 11.002 79.4987 11.002 79.4987C11.002 79.4987 12.2039 79.1144 12.9999 79.0001C14.1107 78.8405 15.8734 78.9995 15.8734 78.9995C15.8734 78.9995 17.1879 78.4274 17.9999 78.0001C19.0074 77.4698 20.4999 76.5001 20.4999 76.5001C20.4999 76.5001 19.2974 76.1103 18.4999 76.0001C17.4838 75.8597 15.8734 76.0001 15.8734 76.0001C15.8734 76.0001 17.456 75.5241 18.4999 75.5001C19.6873 75.4728 21.4999 76.0001 21.4999 76.0001C21.4999 76.0001 23.6204 75.5585 24.9998 75.5002C25.585 75.4755 26.4995 75.5002 26.4995 75.5002C26.4995 75.5002 23.7024 76.2704 21.9999 77.0001C20.7959 77.516 19.5712 78.1777 18.9999 78.5001C18.019 79.0536 17.4346 79.3 16.441 79.8304Z" fill="#FBF8EF"/>
<path d="M121.189 77.2668C121.189 77.2668 120.165 77.6766 119.488 77.8741C118.729 78.0955 117.511 78.3111 117.511 78.3111C117.511 78.3111 118.283 75.1921 118.646 74.0675C119.141 72.5372 119.897 71.6097 119.897 71.6097C119.897 71.6097 118.751 72.7655 118.056 74.1979C117.52 75.3042 117.072 76.4597 116.559 77.9527C116.077 79.3554 115.732 80.7121 115.49 81.5972C115.19 82.6955 114.79 83.2459 114.565 84.3621C114.21 86.127 114.561 87.5 114.561 88.9718C114.561 89.5575 114.815 91.0006 114.815 91.0006L115.377 85.7188C115.377 85.7188 116.781 84.8526 117.603 84.2027C118.213 83.7191 119.04 82.819 119.04 82.819C119.04 82.819 117.857 83.5754 117.006 83.8224C116.498 83.9701 115.672 84.0623 115.672 84.0623C115.672 84.0623 116.003 83.0932 116.194 82.4657C116.523 81.3884 116.941 79.6799 116.941 79.6799C116.941 79.6799 118.661 79.119 119.627 78.5047C120.284 78.0874 121.189 77.2668 121.189 77.2668Z" fill="#FBF8EF"/>
<path d="M34.827 83.8267C34.827 83.8267 34.4147 83.2436 34.1161 82.898C33.7815 82.5106 33.1954 81.9648 33.1954 81.9648C33.1954 81.9648 32.517 83.9319 32.3189 84.6713C32.0494 85.6774 32.1337 86.4476 32.1337 86.4476C32.1337 86.4476 31.9177 85.4161 32.0441 84.3929C32.1418 83.6026 32.3095 82.2225 32.7274 80.8949C32.9058 80.3281 33.0731 80.0333 33.2531 79.4669C33.4763 78.7641 33.4914 77.8599 33.9569 76.9528C34.3651 76.1573 34.7336 75.7847 35.343 75.1304C35.6015 74.8528 36.0344 74.4482 36.0344 74.4482L34.6422 77.1864C34.6422 77.1864 35.1007 78.1514 35.3184 78.7938C35.4803 79.2717 35.6127 80.0518 35.6127 80.0518C35.6127 80.0518 35.2358 79.2243 34.8605 78.7907C34.636 78.5315 34.2195 78.1907 34.2195 78.1907C34.2195 78.1907 34.0582 78.834 33.9415 79.2425C33.7411 79.9439 33.367 81.0198 33.367 81.0198C33.367 81.0198 34.1047 81.9301 34.4139 82.6042C34.624 83.0622 34.827 83.8267 34.827 83.8267Z" fill="#FBF8EF"/>
<path d="M83.2422 110.392C83.2422 110.392 84.973 109 85.9886 108.007C87.1271 106.894 88.7087 104.969 88.7087 104.969C88.7087 104.969 82.4718 103.241 80.1384 102.768C76.9632 102.125 74.5885 102.534 74.5885 102.534C74.5885 102.534 77.7493 101.666 80.9501 101.862C83.4221 102.013 87.1539 102.101 90.9999 103C93.1762 103.509 94.6816 104.219 96.4743 104.669C98.6989 105.227 101.101 105.111 103.821 106.204C106.614 107.328 108.69 108.085 110.838 109.852C111.749 110.601 113.089 111.867 113.089 111.867C113.089 111.867 110.354 110.308 108.5 109.528C106.907 108.858 103.821 108.543 103.821 108.543C103.821 108.543 100.913 110.152 98.9605 110.951C97.5082 111.545 95.1116 112.106 95.1116 112.106C95.1116 112.106 97.6084 110.777 98.8821 109.529C99.6437 108.782 100.622 107.424 100.622 107.424C100.622 107.424 98.5937 107.047 97.3031 106.763C95.0873 106.275 91.6753 105.32 91.6753 105.32C91.6753 105.32 88.991 107.785 86.9579 108.875C85.5763 109.615 83.2422 110.392 83.2422 110.392Z" fill="#FBF8EF"/>
<path d="M121.169 8.01639C119.839 5.20376 114.202 8.3292 114.202 8.3292C114.202 8.3292 111.366 6.93472 109.277 7.42857C107.332 7.88834 104.453 10.3045 104.453 10.3045C104.453 10.3045 102.334 7.32823 98.5017 9.4806C94.6689 11.633 93.3672 14.8318 93.3672 14.8318C93.3672 14.8318 89.653 14.4222 86.0218 18.2912C82.3906 22.1602 83.3854 25.5872 83.3854 25.5872C83.3854 25.5872 81.4427 26.2803 79.9128 28.1434C77.5636 31.0042 78.6917 34.6487 78.6917 34.6487C78.6917 34.6487 79.4645 36.6769 79.1423 38.5956C78.8974 40.0542 78.4221 42.972 78.4221 42.972C78.4221 42.972 80.4738 42.5009 81.4079 42.1478C82.291 41.814 82.1555 41.9071 82.9009 41.7359C86.3759 40.9377 90.1762 43.2819 92.633 41.8114C94.2507 40.8432 95.9349 38.3907 95.9349 38.3907C95.9349 38.3907 99.1529 38.3396 101.229 37.4844C103.483 36.556 104.23 32.6229 104.23 32.6229C104.23 32.6229 109.267 31.6596 110.832 29.8755C112.272 28.2347 112.94 25.0064 112.94 25.0064C112.94 25.0064 115.436 23.5436 116.511 22.0872C117.798 20.344 118.216 14.9124 118.216 14.9124C118.216 14.9124 122.393 10.6057 121.169 8.01639Z" fill="#65D157"/>
<path d="M109.78 23.0856C109.78 23.0856 107.443 22.4792 105.981 21.9496C104.342 21.3559 101.871 20.1591 101.871 20.1591C101.871 20.1591 106.836 15.7002 108.782 14.2031C111.43 12.1661 112.918 10.5566 112.918 10.5566C112.918 10.5566 110.458 12.0613 107.556 13.6688C105.314 14.9104 100.54 18.301 100.54 18.301C100.54 18.301 100.737 16.0635 101.07 14.6862C101.461 13.0718 102.503 10.7152 102.503 10.7152C102.503 10.7152 100.859 12.7634 100.055 14.244C98.9332 16.31 97.9894 19.9533 97.9894 19.9533C97.9894 19.9533 95.8609 21.4674 94.4099 22.7028C92.6094 24.2358 89.5909 26.9351 89.5909 26.9351C89.5909 26.9351 89.6636 24.201 90.0129 22.5188C90.458 20.3758 91.9003 17.3001 91.9003 17.3001C91.9003 17.3001 89.7966 20.0237 88.9979 22.0766C88.0893 24.4118 87.8573 28.4799 87.8573 28.4799C87.8573 28.4799 86.8949 30.1668 85.3507 33.1432C84.6854 34.4256 81.3319 38.7694 81.3319 38.7694C81.3319 38.7694 83.031 37.3084 83.858 36.5423C86.3969 34.19 89.5282 30.3579 89.5282 30.3579C89.5282 30.3579 93.0807 30.6577 95.322 30.5823C96.9893 30.5262 99.525 30.0197 99.525 30.0197C99.525 30.0197 96.8847 29.7361 94.9791 29.5147C93.537 29.3472 91.1082 28.7615 91.1082 28.7615C91.1082 28.7615 93.6639 26.5738 94.729 25.7237C96.5575 24.2643 99.7526 21.8345 99.7526 21.8345C99.7526 21.8345 103.051 23.0581 105.517 23.233C107.192 23.3518 109.78 23.0856 109.78 23.0856Z" fill="#FBF8EF"/>
<path d="M71.499 89.708L71 89.208C71 89.208 73.7229 88.8995 75.2008 88.0575C77.16 86.9411 77.1781 85.0384 78.999 83.7084C80.6801 82.4806 82.3461 82.9414 83.8532 81.5053C84.8417 80.5633 85.8044 78.6037 85.8044 78.6037L86.499 79.208C86.499 79.208 86.0131 82.2314 84.999 83.2084C83.4758 84.6761 81.7821 84.2329 80.0962 85.5104C78.3755 86.8143 78.3862 88.6598 76.499 89.7084C75.0917 90.4904 71.499 89.708 71.499 89.708Z" fill="#FBF8EF" stroke="#F8A300"/>
<path d="M42.0383 78.5994L42.4121 78C42.4121 78 43.3299 80.5821 44.4851 81.8305C46.0166 83.4856 47.8739 83.0718 49.5821 84.5438C51.1591 85.9027 51.088 87.6297 52.8284 88.772C53.97 89.5212 56.0968 90.0146 56.0968 90.0146L55.6658 90.8281C55.6658 90.8281 52.611 91.0403 51.4295 90.2742C49.6547 89.1234 49.7023 87.3733 48.0758 86.021C46.4157 84.6407 44.6207 85.0696 43.1715 83.4693C42.0908 82.2759 42.0383 78.5994 42.0383 78.5994Z" fill="#FBF8EF" stroke="#F8A300"/>
<path d="M40.9692 46.9326L41.668 47.0361C41.668 47.0361 39.6669 48.9083 38.9833 50.4658C38.0771 52.5307 39.1978 54.0684 38.53 56.2222C37.9135 58.2106 36.3017 58.8347 35.9491 60.8864C35.7178 62.2322 36.1144 64.3791 36.1144 64.3791L35.1964 64.3086C35.1964 64.3086 33.7825 61.5924 34.0133 60.2033C34.36 58.1167 35.9837 57.4617 36.5744 55.4307C37.1773 53.3576 36.0676 51.8831 36.9564 49.9155C37.6192 48.4483 40.9692 46.9326 40.9692 46.9326Z" fill="#FBF8EF" stroke="#F8A300"/>
<path d="M15.0006 13.4996L15.0008 13.9995C15.0008 13.9995 13.7374 13.504 13.0204 14.3701C12.0699 15.5184 12.7387 16.7942 11.9599 18.057C11.241 19.2227 9.92786 19.2563 9.40341 20.5257C9.0594 21.3582 9.09756 22.8659 9.09756 22.8659L8.40249 22.6043C8.40249 22.6043 7.65485 20.4833 8.00388 19.622C8.52816 18.3283 9.85411 18.2771 10.5586 17.0772C11.2776 15.8525 10.5474 14.5649 11.5345 13.5326C13 12 15.0006 13.4996 15.0006 13.4996Z" fill="#FBF8EF" stroke="#F8A300"/>
<path d="M32.7153 113.433L32.5371 113.014C32.5371 113.014 33.931 113.12 34.3136 112.218C34.8209 111.022 33.7224 110.117 34.0234 108.868C34.3013 107.715 35.5547 107.364 35.6083 106.172C35.6435 105.39 35.0702 104.135 35.0702 104.135L35.833 104.184C35.833 104.184 37.3084 105.778 37.2785 106.586C37.2337 107.798 35.9742 108.167 35.7225 109.345C35.4655 110.548 36.6273 111.448 36.0435 112.555C35.1768 114.199 32.7153 113.433 32.7153 113.433Z" fill="#FBF8EF" stroke="#F8A300"/>
<path d="M74.6969 21.3349L74.4391 21.1445C74.4391 21.1445 75.0643 20.6762 74.8274 19.9731C74.5133 19.0409 73.6597 18.9024 73.2363 18.016C72.6242 16.7343 73.2123 16.5018 72.7112 15.7451C72.3824 15.2487 71.5937 14.6939 71.5937 14.6939L71.932 14.432C71.932 14.432 73.0479 14.6874 73.5868 15.3616C74.3254 16.2859 73.847 16.743 74.2597 17.5669C74.681 18.4078 75.4506 18.6125 75.6941 19.5195C76.0557 20.866 74.6969 21.3349 74.6969 21.3349Z" fill="#FBF8EF" stroke="#F8A300" stroke-width="0.5"/>
<path d="M109.911 64.3509L110.112 64.0996C110.112 64.0996 110.557 64.7416 111.273 64.5291C112.222 64.2475 112.395 63.3982 113.302 63.0056C114.614 62.438 114.824 63.0345 115.604 62.5596C116.115 62.248 116.704 61.4783 116.704 61.4783L116.954 61.8259C116.954 61.8259 116.653 62.9334 115.954 63.449C114.996 64.1557 114.556 63.6611 113.712 64.0452C112.851 64.4373 112.615 65.2001 111.694 65.4121C110.327 65.7268 109.911 64.3509 109.911 64.3509Z" fill="#FBF8EF" stroke="#F8A300" stroke-width="0.5"/>
<path d="M69.0668 122.521L69.187 122.368C69.187 122.368 69.4405 122.886 69.8605 122.83C70.4173 122.756 70.527 122.173 71.0607 122.014C71.8323 121.784 71.9489 122.238 72.4091 122.003C72.711 121.849 73.0626 121.378 73.0626 121.378L73.2048 121.659C73.2048 121.659 73.0177 122.41 72.6046 122.685C72.0382 123.061 71.7863 122.649 71.2896 122.811C70.7827 122.975 70.637 123.488 70.0973 123.517C69.296 123.559 69.0668 122.521 69.0668 122.521Z" fill="#FBF8EF" stroke="#F8A300" stroke-width="0.5"/>
<path d="M63.9184 117.598L64.1017 117.69C64.1017 117.69 63.6447 118.063 63.8061 118.487C64.0201 119.048 64.6338 119.038 64.9272 119.558C65.3514 120.309 64.9242 120.527 65.2755 120.954C65.5059 121.234 66.0671 121.499 66.0671 121.499L65.8197 121.706C65.8197 121.706 65.0186 121.672 64.6391 121.301C64.1188 120.794 64.4699 120.445 64.1833 119.965C63.8908 119.474 63.3386 119.432 63.1751 118.878C62.9324 118.056 63.9184 117.598 63.9184 117.598Z" fill="#FBF8EF" stroke="#F8A300" stroke-width="0.5"/>
<path d="M61.3117 110.489L61.1622 110.204C61.1622 110.204 61.9288 110.053 62.0209 109.312C62.143 108.33 61.4342 107.831 61.438 106.843C61.4435 105.414 62.0743 105.46 61.9516 104.555C61.8712 103.962 61.4018 103.114 61.4018 103.114L61.8203 103.024C61.8203 103.024 62.7144 103.744 62.9069 104.591C63.1706 105.751 62.5411 105.956 62.5549 106.883C62.569 107.83 63.1733 108.352 62.9986 109.28C62.7393 110.659 61.3117 110.489 61.3117 110.489Z" fill="#FBF8EF" stroke="#F8A300" stroke-width="0.5"/>
<path d="M50.231 115.897L50.4692 115.69C50.4692 115.69 50.7819 116.406 51.5063 116.337C52.4668 116.246 52.7845 115.448 53.7249 115.24C55.0846 114.939 55.167 115.813 56 115.5C56.5464 115.295 57.2613 114.407 57.2613 114.407L57.4386 114.796C57.4386 114.796 57.1767 115.968 56.4143 116.337C55.3694 116.843 54.811 116.126 53.9328 116.338C53.0365 116.554 52.6736 117.255 51.7525 117.284C50.3851 117.326 50.231 115.897 50.231 115.897Z" fill="#FBF8EF" stroke="#F8A300" stroke-width="0.5"/>
<path d="M42.8292 107.467L43.0748 107.65C43.0748 107.65 42.4947 108.095 42.7291 108.767C43.0399 109.659 43.8449 109.795 44.2577 110.644C44.8545 111.871 44.3054 112.091 44.7891 112.816C45.1065 113.291 45.8573 113.825 45.8573 113.825L45.5436 114.074C45.5436 114.074 44.4901 113.825 43.9722 113.178C43.2623 112.292 43.7046 111.857 43.3029 111.069C42.8928 110.263 42.1657 110.064 41.9217 109.197C41.5593 107.909 42.8292 107.467 42.8292 107.467Z" fill="#FBF8EF" stroke="#F8A300" stroke-width="0.5"/>
<path d="M21.6933 66.4435L21.9094 66.1854C21.9094 66.1854 22.3615 66.8242 23.1144 66.5944C24.1126 66.2898 24.3118 65.4284 25.2689 65.0127C26.6527 64.4115 26.8597 65.0095 27.6855 64.5133C28.2272 64.1878 28.8593 63.3979 28.8593 63.3979L29.1128 63.7436C29.1128 63.7436 28.7745 64.8685 28.0328 65.404C27.0162 66.1381 26.5665 65.648 25.6758 66.0538C24.7666 66.4681 24.5033 67.2435 23.536 67.4772C22.0998 67.8241 21.6933 66.4435 21.6933 66.4435Z" fill="#FBF8EF" stroke="#F8A300" stroke-width="0.5"/>
<path d="M119.768 56.5762L119.603 56.2995C119.603 56.2995 120.36 56.1065 120.411 55.3617C120.478 54.3744 119.743 53.9154 119.692 52.9282C119.619 51.5009 120.251 51.5125 120.079 50.6157C119.966 50.0275 119.45 49.2069 119.45 49.2069L119.863 49.0946C119.863 49.0946 120.795 49.7636 121.034 50.5984C121.362 51.7427 120.745 51.9822 120.81 52.9071C120.876 53.8512 121.508 54.3391 121.385 55.2758C121.203 56.6664 119.768 56.5762 119.768 56.5762Z" fill="#FBF8EF" stroke="#F8A300" stroke-width="0.5"/>
<path d="M17.0008 117.936L17.367 117.659C17.367 117.659 17.5876 119.08 18.5536 119.25C19.8342 119.475 20.4601 118.16 21.7453 118.166C22.9317 118.172 23.5631 119.344 24.7355 119.116C25.5046 118.966 26.3599 118.353 26.3599 118.353L26.4894 119.129C26.4894 119.129 25.5124 120.725 24.72 120.886C23.5297 121.128 22.8796 119.954 21.6748 119.981C20.4451 120.008 19.839 121.384 18.6264 121.062C16.8263 120.583 17.0008 117.936 17.0008 117.936Z" fill="#FBF8EF" stroke="#F8A300"/>
<path d="M8.12889 105.842L8.5172 106.096C8.5172 106.096 7.20195 106.778 7.3465 107.75C7.53813 109.037 9.02135 109.192 9.42837 110.412C9.80413 111.537 8.8632 112.525 9.46259 113.56C9.85576 114.238 10.728 114.844 10.728 114.844L10.013 115.225C10.013 115.225 8.14194 114.831 7.73021 114.135C7.11174 113.088 8.04853 112.081 7.63557 110.949C7.21407 109.794 5.67653 109.678 5.60188 108.422C5.49107 106.558 8.12889 105.842 8.12889 105.842Z" fill="#FBF8EF" stroke="#F8A300"/>
<path d="M8.00478 61.2274L8.46896 61.2321C8.46896 61.2321 7.72931 62.5159 8.37495 63.256C9.23089 64.2371 10.5635 63.5677 11.5637 64.3748C12.4872 65.1198 12.2279 66.4596 13.2904 67.0073C13.9874 67.3665 15.0488 67.4065 15.0488 67.4065L14.6521 68.1129C14.6521 68.1129 12.8642 68.7905 12.1417 68.4258C11.0564 67.878 11.3023 66.525 10.344 65.7944C9.36581 65.0486 8.00871 65.7805 7.26854 64.7632C6.16968 63.253 8.00478 61.2274 8.00478 61.2274Z" fill="#FBF8EF" stroke="#F8A300"/>
<path d="M31.2025 11.0466L30.771 11.2989C30.771 11.2989 30.5617 9.95794 29.4522 9.77557C27.9813 9.53379 27.2168 10.7547 25.7337 10.719C24.3644 10.686 23.6733 9.56901 22.3127 9.75619C21.4202 9.87898 20.2642 10.5 20.2642 10.5L20.2642 9.7562C20.2642 9.7562 21.4675 8.22486 22.3873 8.09196C23.7688 7.89232 24.4817 9.01154 25.8731 9.01478C27.2933 9.01809 28.0369 7.73827 29.4262 8.07012C31.4886 8.56279 31.2025 11.0466 31.2025 11.0466Z" fill="#FBF8EF" stroke="#F8A300"/>
<path d="M85.3035 46.1145L84.6104 46.251C84.6104 46.251 86.6979 48.0262 87.4545 49.5496C88.4575 51.5692 87.4109 53.1583 88.1799 55.2781C88.8899 57.235 90.5295 57.7821 90.9789 59.8148C91.2737 61.1481 90.9793 63.3114 90.9793 63.3114L91.8929 63.1975C91.8929 63.1975 93.1765 60.4174 92.8802 59.0408C92.435 56.9729 90.7821 56.3956 90.0959 54.3948C89.3954 52.3526 90.434 50.8272 89.453 48.9039C88.7215 47.4698 85.3035 46.1145 85.3035 46.1145Z" fill="#FBF8EF" stroke="#F8A300"/>
<path d="M54.1122 35.1072L54 35.8047C54 35.8047 56.3888 34.462 58.08 34.2804C60.3221 34.0396 61.4498 35.5722 63.7047 35.5856C65.7865 35.598 66.868 34.2497 68.9304 34.5328C70.2833 34.7184 72.2104 35.7445 72.2104 35.7445L72.4202 34.8481C72.4202 34.8481 70.2575 32.6803 68.8634 32.4811C66.7695 32.1819 65.655 33.5321 63.5404 33.4823C61.382 33.4314 60.3112 31.9284 58.1672 32.1819C56.5683 32.3709 54.1122 35.1072 54.1122 35.1072Z" fill="#FBF8EF" stroke="#F8A300"/>
</g>
<defs>
<clipPath id="clip0_2741_1043">
<rect width="128" height="128" fill="white"/>
</clipPath>
</defs>
</svg>
