<svg width="128" height="128" viewBox="0 0 128 128" fill="none" xmlns="http://www.w3.org/2000/svg">
<g clip-path="url(#clip0_2741_1122)">
<rect width="128" height="128" fill="#FBF8EF"/>
<path d="M116.867 12.2233C116.867 12.2233 96.5106 20.2704 89.8809 31.3591C83.8 41.53 83.5851 49.5567 85.049 61.3161C86.4547 72.6086 90.3455 78.4965 96.2905 88.1998C102.53 98.3838 107.499 102 107.499 102C107.499 102 102.929 90.4312 102.929 82.6767C102.929 56.5002 116.867 41.5 116.867 41.5C116.867 41.5 104.999 58.5 106.071 82.3222C106.856 99.7663 123.5 123.5 123.5 123.5C123.5 123.5 97.7862 105.138 78.7655 104.028C70.4663 103.543 65.8597 105.381 57.5693 106C45.0663 106.932 36.6669 101.8 25.4997 107.5C22.3644 109.1 20.8763 110.471 17.9997 112.5C14.8085 114.751 9.99975 118.5 9.99975 118.5C9.99975 118.5 13.6395 113.332 16.4997 110.5C19.6636 107.366 21.5017 105.46 25.4997 103.5C33.742 99.4585 46.4991 102.975 46.4991 102.975C46.4991 102.975 36.5971 99.923 30.7713 96.8351C7.5 84.5 4.5 77 4.5 77C4.5 77 20.579 89.0145 32.2261 94.1635C41.5066 98.2663 46.5265 100.995 56.9991 102C65.3207 102.799 70.6771 100.211 78.9997 101C92.1467 102.245 104.999 109.5 104.999 109.5C104.999 109.5 92.598 102.522 84.9991 97.5002C77.7652 92.7193 73.9164 89.7053 66.9991 84.5002C55.5952 75.9192 51.5861 65.4815 37.5319 62.9992C33.0928 62.2151 30.5074 62.4696 25.9997 62.4995C22.0898 62.5256 11.4996 64.4999 11.4996 64.4999C11.4996 64.4999 21.6674 60.6704 25.4997 60.0004C30.4874 59.1283 33.4708 59.1673 38.4651 60.0004C51.33 62.1464 62.4991 76.5002 62.4991 76.5002C62.4991 76.5002 59.359 66.2912 57.9984 56.5002C56.5277 45.9173 51.0716 36.6137 41 29C34.2301 23.8823 27.8159 25.5564 21 20.5001C15.1134 16.1333 8.49958 6.50047 8.49958 6.50047C8.49958 6.50047 16.412 14.6543 22.5 18.5001C29.6222 22.9993 35.6189 21.8026 42.4243 26.768C53 34.4842 56.9991 43.5 56.9991 43.5C56.9991 43.5 55.9662 35.6054 57.9996 29.9281C59.915 24.5802 62.8633 22.3942 66.9992 18.5001C70.3544 15.3411 85.049 8 85.049 8C85.049 8 71.8501 16.9219 68.9992 20.5001C65.773 24.5494 62.904 26.2574 60.9987 31.0714C58.3793 37.6898 60.1876 42.2265 60.999 49.298C62.3848 61.3745 62.0407 69.0332 68.9991 79.0002C74.1511 86.3799 80.7502 89.4145 87.4991 94.5002C95.5009 100.53 108.999 108.5 108.999 108.5C108.999 108.5 98.8234 97.8946 93.8638 89.9792C87.498 79.8194 83.4729 73.5762 81.9513 61.6838C80.3426 49.1109 80.1062 40.1989 87.1195 29.6405C94.568 18.427 116.867 12.2233 116.867 12.2233Z" fill="#65D157"/>
<path d="M86.2672 120.401C81.528 128.208 56.9963 120.994 56.9963 120.994C56.9963 120.994 66.7236 113.735 75.4957 111.494C83.3444 109.489 100 110 100 110L102 111C102 111 93.4955 108.494 86.2672 120.401Z" fill="#65D157"/>
<path d="M61.741 90.3226C58 81.5 34.4994 83.5009 34.4994 83.5009C34.4994 83.5009 40.9862 93.4184 49.4997 97.0001C56.3417 99.8787 72.0984 101.48 72.0984 101.48L73.5884 100.951C73.5884 100.951 66.5502 101.665 61.741 90.3226Z" fill="#65D157"/>
<path d="M72.6154 55.6067C78.1067 52.9685 75.2717 34.5066 75.2717 34.5066C75.2717 34.5066 65.3183 43.0151 64.2034 48.5243C62.8137 55.3916 63.1122 67.5005 63.1122 67.5005L63.8557 68.8959C63.8557 68.8959 61.5109 60.9417 72.6154 55.6067Z" fill="#65D157"/>
<path d="M42.9935 49.4615C44.069 43.6596 28.0119 35.3247 28.0119 35.3247C28.0119 35.3247 28.9766 47.9709 32.6474 51.9915C37.2232 57.0032 46.8626 63.6905 46.8626 63.6905L48.3787 63.9066C48.3787 63.9066 40.8186 61.194 42.9935 49.4615Z" fill="#65D157"/>
<path d="M42.5531 76.3816C37.5174 79.4574 23.9998 67.4335 23.9998 67.4335C23.9998 67.4335 36.1572 63.8203 41.2232 65.8141C47.5382 68.2994 57.2258 74.9165 57.2258 74.9165L57.9689 76.2556C57.9689 76.2556 52.7363 70.1619 42.5531 76.3816Z" fill="#65D157"/>
<path d="M99.5969 66.1785C105.027 63.4163 102.5 41.5 102.5 41.5C102.5 41.5 92.0158 53.7558 91.0263 59.289C89.7929 66.1861 90.3663 78.285 90.3663 78.285L91.1413 79.6632C91.1413 79.6632 88.6165 71.7643 99.5969 66.1785Z" fill="#65D157"/>
<path d="M115.144 69.5397C119.468 69.1009 123 53 123 53C123 53 115.144 59.5 111.217 62.7482C107.365 65.9342 105.884 75.216 105.884 75.216L106.044 76.3326C106.044 76.3326 106.4 70.4271 115.144 69.5397Z" fill="#65D157"/>
<path d="M118.084 94.331C121.874 92.2019 118.682 76.03 118.682 76.03C118.682 76.03 114.075 85.1265 111.772 89.6727C109.513 94.1318 111.862 103.233 111.862 103.233L112.455 104.192C112.455 104.192 110.422 98.6364 118.084 94.331Z" fill="#65D157"/>
<path d="M81.476 84.4822C76.5904 85.2363 69.5 70 69.5 70C69.5 70 79.0154 70.1596 81.476 74C84.9999 79.5 93.2935 88.0813 93.2935 88.0813L93.4362 89.3563C93.4362 89.3563 91.3555 82.9571 81.476 84.4822Z" fill="#65D157"/>
<path d="M78.9644 29.8C76.1885 28.6897 77.1838 18.5751 77.1838 18.5751C77.1838 18.5751 81.5 20.5 82.5 24.5C84 30.5 83.5 36.5 83.5 36.5L82.9999 38.0001C82.9999 38.0001 84.5777 32.0452 78.9644 29.8Z" fill="#65D157"/>
<path d="M20.2485 74.9263C20.603 75.7569 20.3986 76.3526 19.3176 77.0431C18.2366 77.7337 17.488 77.054 17.1452 76.2506C16.8023 75.4472 17.2191 74.4994 18.0761 74.1338C19.3368 73.5958 19.8941 74.0957 20.2485 74.9263Z" fill="#F8A300"/>
<path d="M17.3353 68.2029C16.2003 68.3611 15.3935 68.8463 15.0014 69.9214C14.6242 70.9555 15.7165 72.2901 16.4958 73.0724C16.8728 73.451 17.5155 73.4058 17.742 72.9219C18.1825 71.9803 17.2912 70.3016 17.813 70.214C18.3348 70.1264 17.9535 72.1297 18.7963 72.829C19.1955 73.1601 19.7756 72.9168 19.9378 72.4242C20.2857 71.3666 20.6667 69.6311 19.7672 68.8532C19.0127 68.2008 18.2917 68.0697 17.3353 68.2029Z" fill="#F8A300"/>
<path d="M25.0479 72.3679C24.5809 71.3214 23.8908 70.6811 22.7491 70.6027C21.651 70.5274 20.672 71.9472 20.1367 72.913C19.8777 73.3803 20.0995 73.9852 20.6273 74.0685C21.6541 74.2303 23.0195 72.9081 23.2485 73.3851C23.4775 73.8621 21.447 74.0518 21.0092 75.0556C20.8018 75.531 21.1966 76.0208 21.7149 76.0398C22.8275 76.0806 24.6006 75.9649 25.0982 74.8847C25.5156 73.9788 25.4414 73.2497 25.0479 72.3679Z" fill="#F8A300"/>
<path d="M11.4853 74.1763C11.1626 75.2759 11.273 76.2108 12.0916 77.0105C12.879 77.7796 14.5448 77.333 15.5784 76.9445C16.0785 76.7566 16.3018 76.1522 15.9538 75.7467C15.2768 74.9579 13.38 75.0797 13.5148 74.5681C13.6496 74.0565 15.3188 75.228 16.3028 74.7475C16.7689 74.5199 16.7858 73.891 16.4034 73.5406C15.5825 72.7884 14.1574 71.7272 13.0783 72.2272C12.1733 72.6465 11.7572 73.2498 11.4853 74.1763Z" fill="#F8A300"/>
<path d="M15.0631 82.0451C16.0125 82.6869 16.9367 82.866 17.9475 82.3293C18.9195 81.8131 19.0007 80.0904 18.9449 78.9876C18.9179 78.454 18.4101 78.0576 17.918 78.2658C16.9606 78.6708 16.4999 80.5148 16.0535 80.2308C15.6071 79.9468 17.2308 78.7129 17.0722 77.6294C16.9971 77.1162 16.4031 76.9089 15.953 77.1666C14.9868 77.7198 13.5425 78.7548 13.6907 79.9348C13.8149 80.9245 14.2631 81.5043 15.0631 82.0451Z" fill="#F8A300"/>
<path d="M24.0184 80.8015C24.8246 79.987 25.1713 79.1117 24.8305 78.0192C24.5028 76.9685 22.8248 76.5705 21.7306 76.4216C21.2012 76.3496 20.7178 76.7755 20.8315 77.2976C21.0527 78.3132 22.7798 79.1067 22.4183 79.4929C22.0567 79.8792 21.144 78.0555 20.0498 78.0112C19.5316 77.9902 19.2181 78.5357 19.3882 79.0256C19.7535 80.0774 20.5038 81.688 21.6909 81.7604C22.6865 81.8211 23.3391 81.4878 24.0184 80.8015Z" fill="#F8A300"/>
<path d="M15.2612 50.9618C16.145 51.4889 16.3565 52.1746 15.8244 53.5359C15.2923 54.8973 14.1468 54.7737 13.292 54.2639C12.4371 53.7541 12.185 52.6016 12.7287 51.6898C13.5287 50.3484 14.3774 50.4348 15.2612 50.9618Z" fill="#F8A300"/>
<path d="M8.06684 46.7259C7.12772 47.6333 6.71044 48.6215 7.07078 49.8747C7.41734 51.08 9.31879 51.5761 10.5614 51.7736C11.1627 51.8692 11.7242 51.3963 11.608 50.7987C11.3819 49.636 9.43457 48.6882 9.8563 48.2574C10.278 47.8265 11.2713 49.9272 12.5166 50.0056C13.1065 50.0427 13.4775 49.4294 13.2961 48.8669C12.9069 47.6594 12.0931 45.8055 10.7427 45.6928C9.61009 45.5983 8.85812 45.9614 8.06684 46.7259Z" fill="#F8A300"/>
<path d="M17.9649 45.3863C16.8325 44.736 15.7673 44.6094 14.6634 45.3034C13.6016 45.9709 13.6528 47.9354 13.808 49.184C13.8831 49.7882 14.4932 50.1964 15.0351 49.9188C16.0893 49.3789 16.4594 47.245 16.9903 47.5306C17.5213 47.8161 15.7788 49.3535 16.0492 50.5716C16.1773 51.1486 16.8695 51.3347 17.3596 51.0044C18.4115 50.2953 19.9667 48.9989 19.7001 47.6703C19.4765 46.556 18.919 45.9343 17.9649 45.3863Z" fill="#F8A300"/>
<path d="M6.68736 56.1521C7.12808 57.3813 7.85717 58.1681 9.14768 58.3552C10.3888 58.5351 11.6232 57.006 12.3143 55.9546C12.6488 55.4459 12.4488 54.7395 11.8562 54.5997C10.7035 54.3275 9.03851 55.7126 8.81931 55.1509C8.6001 54.5893 10.9234 54.5481 11.5071 53.4452C11.7836 52.9229 11.3771 52.3324 10.7898 52.2663C9.52914 52.1244 7.5046 52.1036 6.84642 53.2881C6.29439 54.2816 6.31602 55.1163 6.68736 56.1521Z" fill="#F8A300"/>
<path d="M15.264 60.998C16.5691 60.9519 17.5403 60.4966 18.111 59.3241C18.6598 58.1965 17.5785 56.5556 16.7871 55.5774C16.4041 55.1041 15.6704 55.0799 15.357 55.6018C14.7472 56.6172 15.5603 58.6245 14.9586 58.6626C14.357 58.7006 15.0242 56.4748 14.151 55.5834C13.7375 55.1612 13.0514 55.3688 12.8098 55.9082C12.2913 57.066 11.6558 58.9884 12.5841 59.9756C13.3626 60.8036 14.1645 61.0368 15.264 60.998Z" fill="#F8A300"/>
<path d="M22.6754 53.8437C22.8713 52.5527 22.6032 51.514 21.5563 50.7366C20.5494 49.9889 18.7371 50.7485 17.6295 51.3456C17.0936 51.6345 16.9343 52.3511 17.3893 52.7556C18.2746 53.5424 20.3976 53.1141 20.3238 53.7125C20.25 54.3108 18.1858 53.2439 17.1484 53.9373C16.6571 54.2658 16.7344 54.9784 17.2199 55.3154C18.262 56.0389 20.0338 57.0186 21.1756 56.2887C22.1331 55.6765 22.5105 54.9315 22.6754 53.8437Z" fill="#F8A300"/>
<path d="M13.7509 25.9237C14.6534 26.4181 14.8898 27.0956 14.4079 28.4755C13.926 29.8553 12.7767 29.7737 11.9038 29.2955C11.0309 28.8173 10.7367 27.6749 11.2468 26.7438C11.9972 25.374 12.8484 25.4293 13.7509 25.9237Z" fill="#F8A300"/>
<path d="M6.40646 21.9526C5.50115 22.8937 5.12028 23.8965 5.5262 25.1357C5.9166 26.3275 7.83492 26.7538 9.08395 26.9057C9.68831 26.9792 10.2322 26.4862 10.0942 25.8932C9.82569 24.7396 7.84502 23.8636 8.25072 23.4176C8.65642 22.9716 9.72582 25.0346 10.9732 25.0674C11.564 25.0829 11.9123 24.4564 11.7105 23.9009C11.2774 22.7085 10.3964 20.8856 9.04275 20.8224C7.90744 20.7694 7.16925 21.1597 6.40646 21.9526Z" fill="#F8A300"/>
<path d="M16.2491 20.252C15.0937 19.6435 14.0245 19.5559 12.9467 20.2899C11.9101 20.9958 12.0331 22.957 12.2338 24.1991C12.3309 24.8002 12.9556 25.1858 13.487 24.8886C14.5207 24.3105 14.8125 22.1645 15.3536 22.4304C15.8946 22.6964 14.2095 24.2964 14.5243 25.5039C14.6734 26.0758 15.3719 26.2365 15.8496 25.8885C16.8749 25.1414 18.3816 23.789 18.0667 22.471C17.8025 21.3656 17.2226 20.7647 16.2491 20.252Z" fill="#F8A300"/>
<path d="M5.37323 31.424C5.8586 32.6363 6.61598 33.3959 7.91246 33.5357C9.15937 33.6701 10.337 32.0969 10.9892 31.0209C11.3048 30.5003 11.0791 29.8017 10.4819 29.6836C9.31995 29.4538 7.70674 30.8988 7.46714 30.3456C7.22754 29.7924 9.54781 29.6662 10.0908 28.5427C10.3479 28.0106 9.92016 27.4354 9.33085 27.3908C8.06583 27.2952 6.04188 27.3483 5.42745 28.5561C4.91212 29.5691 4.96427 30.4026 5.37323 31.424Z" fill="#F8A300"/>
<path d="M14.12 35.9523C15.4225 35.8586 16.3765 35.3681 16.9038 34.1755C17.4111 33.0285 16.2705 31.4283 15.4438 30.4797C15.0438 30.0207 14.3097 30.0233 14.0156 30.5564C13.4433 31.5934 14.3293 33.5696 13.7294 33.6297C13.1295 33.6897 13.7149 31.4409 12.8098 30.582C12.381 30.1752 11.703 30.4079 11.4813 30.9557C11.0055 32.1317 10.4407 34.076 11.4045 35.0286C12.2128 35.8276 13.0226 36.0313 14.12 35.9523Z" fill="#F8A300"/>
<path d="M21.2658 28.532C21.4143 27.2346 21.1084 26.2064 20.0338 25.4678C19.0002 24.7575 17.2168 25.5828 16.1319 26.22C15.6069 26.5283 15.4739 27.2503 15.9434 27.6379C16.8569 28.3918 18.9627 27.8862 18.9109 28.4868C18.8591 29.0874 16.7572 28.0967 15.7459 28.8276C15.2669 29.1738 15.3702 29.8832 15.8677 30.2022C16.9356 30.8871 18.742 31.8014 19.8563 31.0302C20.7908 30.3833 21.1407 29.6251 21.2658 28.532Z" fill="#F8A300"/>
<path d="M36.3169 10.2202C37.3241 10.0093 37.9441 10.3705 38.4747 11.7324C39.0054 13.0943 38.0789 13.7793 37.1047 13.9832C36.1306 14.1872 35.1645 13.5102 34.9469 12.471C34.6268 10.9423 35.3097 10.4311 36.3169 10.2202Z" fill="#F8A300"/>
<path d="M28.1548 11.9768C28.0785 13.2804 28.4408 14.29 29.5548 14.9679C30.6261 15.6199 32.361 14.697 33.4089 14.0006C33.916 13.6637 34.0089 12.9355 33.5186 12.5745C32.5647 11.8723 30.4901 12.494 30.5086 11.8914C30.527 11.2888 32.6806 12.1615 33.6499 11.3756C34.1089 11.0034 33.9664 10.3009 33.452 10.0099C32.3478 9.38525 30.4935 8.57255 29.4237 9.40432C28.5264 10.1019 28.2191 10.8784 28.1548 11.9768Z" fill="#F8A300"/>
<path d="M34.5291 4.28732C33.2555 4.57583 32.3861 5.20419 32.0441 6.46252C31.7151 7.67273 33.0833 9.08327 34.0432 9.89676C34.5076 10.2904 35.233 10.1774 35.4437 9.60623C35.8535 8.49494 34.6804 6.6744 35.2645 6.52487C35.8485 6.37534 35.6079 8.68653 36.6319 9.39958C37.1169 9.73729 37.7523 9.40537 37.889 8.83043C38.1827 7.59624 38.4487 5.58914 37.3527 4.79226C36.4334 4.12391 35.6022 4.04423 34.5291 4.28732Z" fill="#F8A300"/>
<path d="M33.5247 19.8461C34.6815 20.452 35.7508 20.537 36.8269 19.8005C37.8619 19.0922 37.7343 17.1313 37.5306 15.8896C37.4321 15.2888 36.8065 14.9046 36.2759 15.2031C35.2435 15.7837 34.9567 17.9303 34.415 17.6656C33.8734 17.4009 35.5547 15.797 35.2371 14.5902C35.0867 14.0187 34.3877 13.8596 33.9109 14.2088C32.8873 14.9583 31.3838 16.3142 31.7019 17.6315C31.9687 18.7362 32.55 19.3357 33.5247 19.8461Z" fill="#F8A300"/>
<path d="M43.1155 17.6018C44.0444 16.684 44.4506 15.6912 44.0762 14.4421C43.7162 13.2408 41.8093 12.766 40.5645 12.5824C39.9622 12.4936 39.406 12.9727 39.5289 13.569C39.7681 14.7291 41.7259 15.655 41.309 16.0906C40.8921 16.5261 39.8754 14.4366 38.6292 14.3722C38.039 14.3417 37.6749 14.9592 37.8626 15.5196C38.2653 16.7226 39.0998 18.5673 40.4514 18.6648C41.585 18.7467 42.3328 18.3752 43.1155 17.6018Z" fill="#F8A300"/>
<path d="M43.7233 7.31872C42.9929 6.23627 42.0922 5.65367 40.7954 5.79084C39.5482 5.92277 38.7294 7.70914 38.319 8.89858C38.1205 9.47411 38.4886 10.1093 39.0973 10.0986C40.2816 10.0779 41.5533 8.3248 41.9043 8.81496C42.2553 9.30512 40.014 9.91837 39.7205 11.1312C39.5815 11.7056 40.1211 12.1775 40.7066 12.0966C41.9633 11.923 43.9303 11.4437 44.2759 10.1333C44.5657 9.03437 44.3387 8.23076 43.7233 7.31872Z" fill="#F8A300"/>
<path d="M56.7429 12.0063C57.0854 11.036 57.7159 10.6935 59.1554 10.9467C60.595 11.2 60.6996 12.3474 60.3684 13.2859C60.0371 14.2245 58.957 14.6989 57.9558 14.3456C56.483 13.8257 56.4004 12.9767 56.7429 12.0063Z" fill="#F8A300"/>
<path d="M54.0085 19.8942C55.0832 20.636 56.1343 20.8503 57.2919 20.25C58.4052 19.6726 58.5167 17.7107 58.4653 16.4535C58.4405 15.8452 57.8662 15.3879 57.3032 15.6196C56.208 16.0705 55.6626 18.1665 55.1571 17.838C54.6516 17.5094 56.5153 16.1215 56.3466 14.8852C56.2667 14.2996 55.5922 14.0568 55.0765 14.3455C53.9695 14.9651 52.3124 16.1284 52.4682 17.4745C52.5988 18.6035 53.103 19.2692 54.0085 19.8942Z" fill="#F8A300"/>
<path d="M50.7436 10.4551C50.3292 11.6934 50.4151 12.7627 51.3132 13.7081C52.1769 14.6174 54.0927 14.18 55.2862 13.7817C55.8637 13.589 56.1437 12.9104 55.7647 12.4338C55.0275 11.5067 52.8626 11.5646 53.0379 10.9878C53.2132 10.4109 55.0638 11.8161 56.2048 11.3109C56.7452 11.0716 56.7912 10.3562 56.3707 9.94094C55.4682 9.04942 53.8906 7.78033 52.6406 8.30361C51.5923 8.7425 51.0927 9.41166 50.7436 10.4551Z" fill="#F8A300"/>
<path d="M63.5217 19.3882C64.6399 18.7138 65.2676 17.8439 65.1965 16.5418C65.1282 15.2896 63.3858 14.3809 62.2188 13.9106C61.6541 13.683 61.0011 14.0183 60.9808 14.6268C60.9412 15.8106 62.6273 17.1698 62.1199 17.4955C61.6125 17.8211 61.1141 15.5515 59.9178 15.1967C59.3512 15.0286 58.8525 15.5435 58.9034 16.1323C59.0129 17.3962 59.3915 19.3851 60.6826 19.7969C61.7654 20.1422 62.5795 19.9564 63.5217 19.3882Z" fill="#F8A300"/>
<path d="M66.581 10.0256C66.2786 8.75531 65.6408 7.89284 64.3788 7.56455C63.1651 7.24881 61.7696 8.63238 60.9666 9.6011C60.5781 10.0698 60.699 10.7939 61.2725 10.9983C62.3882 11.396 64.1958 10.2031 64.3517 10.7855C64.5076 11.3678 62.1939 11.1525 61.4921 12.1842C61.1597 12.6729 61.4986 13.3046 62.075 13.4351C63.3123 13.7152 65.3222 13.9592 66.107 12.8546C66.7653 11.9281 66.8359 11.096 66.581 10.0256Z" fill="#F8A300"/>
<path d="M58.1059 4.16912C56.8016 4.23167 55.8361 4.69921 55.2804 5.87884C54.7459 7.01336 55.8478 8.64042 56.6516 9.60849C57.0405 10.0769 57.7744 10.0919 58.0812 9.56603C58.6782 8.54299 57.8397 6.54613 58.4408 6.50048C59.042 6.45483 58.4029 8.68892 59.2873 9.56924C59.7062 9.98617 60.3896 9.76986 60.6243 9.22747C61.1281 8.06318 61.7393 6.13297 60.7986 5.15757C60.0096 4.33949 59.2049 4.11642 58.1059 4.16912Z" fill="#F8A300"/>
<path d="M94.307 10.9177C95.1904 11.4455 95.4013 12.1313 94.8682 13.4923C94.335 14.8532 93.1896 14.7287 92.3352 14.2182C91.4807 13.7078 91.2295 12.5551 91.774 11.6437C92.575 10.3029 93.4236 10.39 94.307 10.9177Z" fill="#F8A300"/>
<path d="M87.1159 6.67644C86.1761 7.58304 85.758 8.57093 86.1174 9.82443C86.463 11.03 88.3641 11.5276 89.6065 11.7261C90.2077 11.8221 90.7697 11.3497 90.6539 10.752C90.4287 9.58916 88.4821 8.63977 88.9042 8.20928C89.3263 7.77879 90.3179 9.88029 91.5632 9.95962C92.153 9.9972 92.5244 9.38414 92.3435 8.82151C91.9552 7.61375 91.1429 5.7592 89.7926 5.64546C88.6601 5.55007 87.9078 5.91257 87.1159 6.67644Z" fill="#F8A300"/>
<path d="M97.0143 5.34388C95.8825 4.69262 94.8174 4.5652 93.7129 5.25836C92.6506 5.92502 92.7002 7.8895 92.8544 9.13825C92.929 9.74248 93.5388 10.1512 94.0809 9.87406C95.1356 9.33493 95.5074 7.20134 96.0381 7.48733C96.5688 7.77333 94.8251 9.30927 95.0946 10.5277C95.2222 11.1047 95.9143 11.2914 96.4046 10.9615C97.4571 10.2532 99.0133 8.95803 98.7478 7.6292C98.525 6.51469 97.968 5.89261 97.0143 5.34388Z" fill="#F8A300"/>
<path d="M85.7289 16.1018C86.1687 17.3314 86.8971 18.1188 88.1875 18.3069C89.4285 18.4878 90.6641 16.9597 91.3561 15.9088C91.6909 15.4003 91.4915 14.6939 90.899 14.5535C89.7465 14.2804 88.0804 15.6642 87.8617 15.1024C87.6429 14.5406 89.9663 14.5012 90.5508 13.3988C90.8277 12.8767 90.4217 12.2859 89.8344 12.2193C88.5739 12.0764 86.5494 12.054 85.8902 13.238C85.3374 14.231 85.3584 15.0658 85.7289 16.1018Z" fill="#F8A300"/>
<path d="M94.3016 20.9539C95.6066 20.9088 96.5783 20.4543 97.1499 19.2823C97.6996 18.155 96.6195 16.5133 95.8289 15.5345C95.4463 15.0609 94.7126 15.0361 94.3988 15.5578C93.7882 16.5727 94.5997 18.5807 93.998 18.6182C93.3963 18.6558 94.0653 16.4305 93.1929 15.5384C92.7796 15.1158 92.0934 15.323 91.8514 15.8621C91.332 17.0196 90.6949 18.9414 91.6224 19.9293C92.4003 20.7579 93.202 20.9918 94.3016 20.9539Z" fill="#F8A300"/>
<path d="M101.719 13.8056C101.916 12.5147 101.649 11.4758 100.602 10.6975C99.596 9.94905 97.783 10.7072 96.675 11.3034C96.1389 11.5919 95.979 12.3084 96.4337 12.7132C97.3184 13.5008 99.4417 13.0742 99.3675 13.6724C99.2932 14.2707 97.2298 13.2022 96.1919 13.8948C95.7003 14.2229 95.7771 14.9356 96.2623 15.273C97.3038 15.9973 99.0749 16.9784 100.217 16.2494C101.175 15.6379 101.553 14.8933 101.719 13.8056Z" fill="#F8A300"/>
<path d="M111.808 30.5031C112.826 30.6548 113.282 31.2086 113.307 32.67C113.332 34.1314 112.226 34.4524 111.241 34.3057C110.257 34.159 109.586 33.1888 109.742 32.1387C109.973 30.5939 110.79 30.3514 111.808 30.5031Z" fill="#F8A300"/>
<path d="M103.543 29.3183C103.019 30.5144 103.009 31.5871 103.819 32.6094C104.597 33.5925 106.544 33.3289 107.769 33.0394C108.361 32.8993 108.701 32.2486 108.367 31.7399C107.716 30.7504 105.554 30.6136 105.781 30.0548C106.007 29.4961 107.724 31.0618 108.906 30.661C109.465 30.4712 109.575 29.7629 109.194 29.3115C108.375 28.3426 106.918 26.9369 105.626 27.3459C104.542 27.6888 103.985 28.3104 103.543 29.3183Z" fill="#F8A300"/>
<path d="M112.19 24.3178C110.896 24.1465 109.862 24.4342 109.105 25.4957C108.376 26.5166 109.17 28.3142 109.788 29.4102C110.087 29.9405 110.807 30.0863 111.202 29.6237C111.972 28.7236 111.504 26.6091 112.104 26.6715C112.703 26.7339 111.676 28.8181 112.389 29.8421C112.726 30.3271 113.437 30.2363 113.765 29.7445C114.469 28.6889 115.415 26.8987 114.663 25.7711C114.033 24.8253 113.281 24.4622 112.19 24.3178Z" fill="#F8A300"/>
<path d="M105.85 38.5621C106.725 39.5316 107.698 39.9824 108.963 39.665C110.179 39.3598 110.74 37.4764 110.98 36.2412C111.096 35.6436 110.642 35.0662 110.041 35.162C108.871 35.3483 107.858 37.2621 107.442 36.8259C107.025 36.3897 109.159 35.4688 109.28 34.2268C109.337 33.6386 108.736 33.2469 108.168 33.4089C106.948 33.7567 105.067 34.5067 104.909 35.8525C104.776 36.9812 105.113 37.7451 105.85 38.5621Z" fill="#F8A300"/>
<path d="M115.623 39.7843C116.813 39.2458 117.538 38.4556 117.621 37.1542C117.7 35.9026 116.076 34.7957 114.972 34.1916C114.438 33.8993 113.75 34.1557 113.659 34.7576C113.481 35.9286 114.996 37.4763 114.453 37.7401C113.911 38.004 113.683 35.6915 112.536 35.1988C111.993 34.9654 111.438 35.4182 111.419 36.0089C111.38 37.2769 111.522 39.2965 112.756 39.8569C113.791 40.327 114.621 40.238 115.623 39.7843Z" fill="#F8A300"/>
<path d="M119.761 30.3507C119.452 29.082 118.809 28.2231 117.546 27.9019C116.33 27.5929 114.942 28.9842 114.145 29.9573C113.759 30.4282 113.884 31.1516 114.458 31.3528C115.576 31.7443 117.377 30.5414 117.536 31.1229C117.696 31.7044 115.381 31.5019 114.685 32.5375C114.355 33.028 114.697 33.6578 115.274 33.7851C116.513 34.0583 118.524 34.2912 119.303 33.1822C119.956 32.252 120.022 31.4196 119.761 30.3507Z" fill="#F8A300"/>
<path d="M12.415 99.2003C13.4401 99.1106 14.0129 99.5429 14.378 100.958C14.7431 102.373 13.7419 102.944 12.7504 103.03C11.7589 103.117 10.88 102.33 10.7874 101.273C10.6512 99.7166 11.3899 99.2901 12.415 99.2003Z" fill="#F8A300"/>
<path d="M4.10228 99.9752C3.87166 101.261 4.11153 102.306 5.13706 103.111C6.12338 103.886 7.9556 103.176 9.07885 102.609C9.62237 102.334 9.80104 101.622 9.35708 101.206C8.49337 100.395 6.35961 100.766 6.44951 100.17C6.5394 99.5738 8.57409 100.696 9.62983 100.031C10.1299 99.7159 10.0718 99.0014 9.5956 98.6514C8.57341 97.9 6.82868 96.8728 5.66768 97.5716C4.69392 98.1578 4.2966 98.8922 4.10228 99.9752Z" fill="#F8A300"/>
<path d="M11.3446 93.0973C10.0458 93.2325 9.10789 93.7532 8.61879 94.9619C8.14839 96.1245 9.33939 97.6876 10.1959 98.6093C10.6103 99.0553 11.3439 99.0293 11.6209 98.4872C12.1599 97.4324 11.2113 95.4854 11.809 95.4063C12.4067 95.3272 11.8932 97.5935 12.8253 98.4231C13.2668 98.816 13.9371 98.5619 14.1412 98.0073C14.5793 96.8167 15.0818 94.8554 14.0882 93.934C13.2548 93.1612 12.4389 92.9834 11.3446 93.0973Z" fill="#F8A300"/>
<path d="M8.49949 108.426C9.57616 109.165 10.6278 109.377 11.7838 108.773C12.8955 108.193 13.0018 106.231 12.947 104.974C12.9205 104.365 12.345 103.91 11.7827 104.143C10.6886 104.597 10.1489 106.694 9.64253 106.367C9.13613 106.04 10.9961 104.647 10.824 103.411C10.7426 102.826 10.0674 102.585 9.55252 102.875C8.44718 103.497 6.79323 104.665 6.95262 106.011C7.08631 107.139 7.59232 107.804 8.49949 108.426Z" fill="#F8A300"/>
<path d="M18.2887 107.337C19.32 106.536 19.8412 105.598 19.6179 104.314C19.4031 103.078 17.5661 102.38 16.3519 102.05C15.7644 101.89 15.1552 102.3 15.2065 102.907C15.3061 104.087 17.1401 105.239 16.6745 105.622C16.2088 106.005 15.4474 103.809 14.2178 103.597C13.6353 103.497 13.2005 104.067 13.3202 104.646C13.5772 105.888 14.1867 107.819 15.5172 108.076C16.633 108.292 17.4197 108.012 18.2887 107.337Z" fill="#F8A300"/>
<path d="M20.114 97.1985C19.5174 96.037 18.6922 95.3515 17.3883 95.3337C16.1343 95.3166 15.1091 96.993 14.5604 98.1253C14.2949 98.6732 14.585 99.3476 15.1907 99.4093C16.369 99.5293 17.8399 97.9397 18.1302 98.4681C18.4205 98.9965 16.1223 99.3392 15.6868 100.509C15.4806 101.062 15.9603 101.595 16.5512 101.584C17.8196 101.561 19.8297 101.319 20.3284 100.059C20.7467 99.0021 20.6168 98.1772 20.114 97.1985Z" fill="#F8A300"/>
<path d="M40.7704 113.387C41.7871 113.546 42.2392 114.103 42.2537 115.564C42.2682 117.026 41.1593 117.339 40.176 117.185C39.1927 117.031 38.5286 116.056 38.6927 115.007C38.9342 113.464 39.7538 113.227 40.7704 113.387Z" fill="#F8A300"/>
<path d="M32.5147 112.141C31.9821 113.334 31.9639 114.406 32.7659 115.434C33.5373 116.423 35.4865 116.174 36.713 115.893C37.3065 115.758 37.651 115.109 37.3201 114.598C36.6764 113.604 34.516 113.451 34.7465 112.894C34.9769 112.337 36.6825 113.915 37.8671 113.523C38.4281 113.338 38.5434 112.63 38.1652 112.176C37.3534 111.201 35.9065 109.785 34.6116 110.184C33.5256 110.519 32.9635 111.137 32.5147 112.141Z" fill="#F8A300"/>
<path d="M41.1971 107.204C39.9039 107.023 38.8684 107.303 38.1032 108.359C37.3674 109.375 38.148 111.178 38.758 112.279C39.0532 112.811 39.7716 112.962 40.1707 112.502C40.9472 111.608 40.4941 109.49 41.0933 109.557C41.6925 109.624 40.6497 111.7 41.3553 112.73C41.6894 113.217 42.4011 113.131 42.7324 112.642C43.4437 111.591 44.4026 109.808 43.6594 108.675C43.0361 107.725 42.2868 107.356 41.1971 107.204Z" fill="#F8A300"/>
<path d="M34.7536 121.401C35.6213 122.377 36.5914 122.835 37.8585 122.527C39.0771 122.23 39.6515 120.351 39.9003 119.118C40.0207 118.521 39.5715 117.94 38.9696 118.032C37.7985 118.209 36.7708 120.116 36.3579 119.677C35.9449 119.237 38.0849 118.332 38.2148 117.091C38.2763 116.503 37.6788 116.107 37.1093 116.265C35.8868 116.604 34.0008 117.34 33.8323 118.685C33.6909 119.812 34.0226 120.579 34.7536 121.401Z" fill="#F8A300"/>
<path d="M44.5186 122.696C45.7121 122.166 46.4433 121.381 46.535 120.08C46.6233 118.829 45.0077 117.71 43.9084 117.098C43.3765 116.802 42.6867 117.053 42.5907 117.655C42.404 118.824 43.9076 120.383 43.3636 120.643C42.8196 120.903 42.6078 118.589 41.4651 118.088C40.9238 117.85 40.3648 118.299 40.342 118.89C40.2931 120.157 40.421 122.178 41.6507 122.747C42.682 123.225 43.5129 123.142 44.5186 122.696Z" fill="#F8A300"/>
<path d="M48.7244 113.293C48.4242 112.022 47.7878 111.159 46.5264 110.828C45.3132 110.51 43.9154 111.891 43.1107 112.859C42.7214 113.327 42.841 114.051 43.4141 114.256C44.5291 114.656 46.3388 113.466 46.4937 114.049C46.6486 114.632 44.3353 114.412 43.6317 115.443C43.2985 115.931 43.6362 116.563 44.2124 116.695C45.4492 116.977 47.4587 117.224 48.2455 116.121C48.9053 115.196 48.9774 114.364 48.7244 113.293Z" fill="#F8A300"/>
<path d="M22.4734 22.9938C26.1554 22.213 34 25.5 34 25.5C34 25.5 26.2129 23.6772 22.5273 24.006C20.5342 24.1837 17.5007 24.9996 17.5007 24.9996C17.5007 24.9996 20.4249 23.4281 22.4734 22.9938Z" fill="#65D157"/>
<path d="M34.5 59.5L32.0424 60.0042C32.0424 60.0042 27.31 60.226 24.4159 59.4949C21.985 58.8807 18.5 57 18.5 57C18.5 57 22.1701 58.108 24.5861 58.5043C27.492 58.9811 34.5 59.5 34.5 59.5Z" fill="#65D157"/>
<path d="M109.5 54.5L107 59.5C107 59.5 107.728 53.0698 108.5 49.0002C109.285 44.8591 110.999 38.5007 110.999 38.5007C110.999 38.5007 110.378 44.8988 110 49.0002C109.801 51.1477 109.5 54.5 109.5 54.5Z" fill="#65D157"/>
<path d="M45.8781 29.5218L42 27C42 27 40.9931 25.5263 40.5 24.5C39.5359 22.4934 39 19.0003 39 19.0003C39 19.0003 40.6634 22.4509 42 24.5C43.3537 26.5754 45.8781 29.5218 45.8781 29.5218Z" fill="#65D157"/>
<path d="M59 30L56.9999 34.4992C56.9999 34.4992 58.0318 28.1153 58.5 24C58.7218 22.0501 58.9998 18.9995 58.9998 18.9995C58.9998 18.9995 59.4673 22.0377 59.4997 23.9999C59.5386 26.3509 59 30 59 30Z" fill="#65D157"/>
<path d="M85.9614 33.2753L83.9996 35.5006C83.9996 35.5006 84.6925 26.6673 87.5 22C88.5065 20.3268 90.5 18 90.5 18C90.5 18 89.1741 20.3889 88.5 22C86.7578 26.1637 85.9614 33.2753 85.9614 33.2753Z" fill="#65D157"/>
<path d="M25 90.5L21.5001 89.0005C21.5001 89.0005 20.8244 87.8113 20.5001 87.0005C19.5002 84.5005 19.5002 81.0007 19.5002 81.0007C19.5002 81.0007 20.6113 84.8759 21.9997 87.001C22.9842 88.5079 25 90.5 25 90.5Z" fill="#65D157"/>
<path d="M30.3651 102.005L29.0003 103C29.0003 103 25.9542 103.68 24.0001 103.499C21.9703 103.312 18 102 18 102C18 102 22.0577 102.457 24.0001 102.499C26.4927 102.554 30.3651 102.005 30.3651 102.005Z" fill="#65D157"/>
<path d="M53.0007 105.499L57.0007 105.999C57.0007 105.999 51.186 106.321 48.0007 107.999C46.7548 108.656 44.0006 111 44.0006 111C44.0006 111 46.2682 107.898 47.5005 107C49.2996 105.688 53.0007 105.499 53.0007 105.499Z" fill="#65D157"/>
</g>
<defs>
<clipPath id="clip0_2741_1122">
<rect width="128" height="128" fill="white"/>
</clipPath>
</defs>
</svg>
