<svg width="128" height="128" viewBox="0 0 128 128" fill="none" xmlns="http://www.w3.org/2000/svg">
<g clip-path="url(#clip0_2793_551)">
<mask id="mask0_2793_551" style="mask-type:luminance" maskUnits="userSpaceOnUse" x="0" y="0" width="128" height="128">
<path d="M128 0H0V128H128V0Z" fill="white"/>
</mask>
<g mask="url(#mask0_2793_551)">
<path d="M128 0H0V128H128V0Z" fill="#FBF8EF"/>
<path d="M64.0159 -6.71068L-6.69482 64L64.0159 134.711L134.727 64L64.0159 -6.71068Z" fill="#FBF8EF"/>
<path d="M64.1445 11L11.1448 64.2893L64.1445 117L117.145 64.29L64.1445 11Z" fill="#63BCE5" stroke="#63BCE5" stroke-width="10"/>
<path d="M59.9415 58.9922C60.6149 60.0044 61.2275 60.906 61.7503 61.6658C61.0101 61.1156 60.1315 60.4704 59.1445 59.7604C56.0239 57.5156 51.8159 54.6184 47.4745 52.0172C43.1415 49.421 38.6417 47.0984 34.9451 46.0268C33.1007 45.492 31.4059 45.2534 30.0123 45.4836C28.5887 45.7188 27.4673 46.4496 26.8709 47.818C26.2747 49.1862 26.5025 50.5052 27.2995 51.708C28.0795 52.8856 29.4079 53.9644 31.0553 54.9516C34.3567 56.9296 39.1213 58.6448 43.9727 60.0512C48.8339 61.4606 53.8207 62.5708 57.5895 63.3284C58.7813 63.568 59.8521 63.7724 60.7593 63.94C59.8465 64.0742 58.7691 64.2394 57.5693 64.4352C53.7751 65.0542 48.7511 65.981 43.8417 67.2114C38.9419 68.4392 34.1177 69.9786 30.7461 71.8344C29.0637 72.7606 27.6965 73.79 26.8737 74.9382C26.0333 76.1112 25.7573 77.4208 26.3031 78.81C26.8491 80.1994 27.9427 80.9708 29.3569 81.258C30.7411 81.539 32.4435 81.3626 34.3063 80.8958C38.0395 79.9602 42.6215 77.804 47.0465 75.3684C51.4805 72.9278 55.7919 70.1868 58.9925 68.0576C60.0047 67.3844 60.9065 66.7718 61.6665 66.249C61.1159 66.9892 60.4709 67.8678 59.7609 68.8546C57.5157 71.975 54.6183 76.1828 52.0167 80.524C49.4203 84.8566 47.0975 89.3562 46.0257 93.0524C45.4907 94.897 45.2519 96.5916 45.4821 97.985C45.7173 99.4088 46.4481 100.53 47.8165 101.126C49.1847 101.723 50.5037 101.495 51.7067 100.698C52.8843 99.918 53.9633 98.5896 54.9503 96.9424C56.9287 93.6412 58.6441 88.8768 60.0509 84.0256C61.4605 79.1648 62.5709 74.1782 63.3287 70.4096C63.5685 69.2178 63.7729 68.1472 63.9405 67.2402C64.0747 68.1528 64.2397 69.2302 64.4355 70.43C65.0543 74.2238 65.9809 79.2476 67.2109 84.1568C68.4385 89.0562 69.9777 93.8802 71.8333 97.2516C72.7593 98.934 73.7887 100.301 74.9367 101.124C76.1097 101.964 77.4193 102.24 78.8085 101.694C80.1977 101.148 80.9693 100.055 81.2565 98.6406C81.5377 97.2564 81.3613 95.5542 80.8945 93.6914C79.9593 89.9584 77.8033 85.3768 75.3679 80.9518C72.9277 76.5182 70.1869 72.2072 68.0581 69.0066C67.3847 67.9944 66.7723 67.0928 66.2495 66.333C66.9897 66.8832 67.8681 67.5284 68.8549 68.2384C71.9751 70.4832 76.1827 73.3804 80.5235 75.9816C84.8559 78.5778 89.3553 80.9004 93.0513 81.972C94.8957 82.5068 96.5901 82.7456 97.9837 82.5154C99.4073 82.2802 100.529 81.5492 101.125 80.181C101.721 78.8126 101.493 77.4938 100.697 76.2908C99.9167 75.1132 98.5883 74.0344 96.9411 73.0472C93.6401 71.0692 88.8761 69.354 84.0253 67.9476C79.1647 66.5382 74.1785 65.428 70.4101 64.6704C69.2183 64.4308 68.1477 64.2264 67.2407 64.0588C68.1531 63.9246 69.2305 63.7594 70.4303 63.5636C74.2239 62.9446 79.2475 62.0178 84.1565 60.7876C89.0555 59.5596 93.8793 58.0202 97.2505 56.1644C98.9327 55.2382 100.3 54.2088 101.122 53.0606C101.963 51.8876 102.239 50.578 101.693 49.1888C101.147 47.7996 100.053 47.0282 98.6391 46.741C97.2551 46.4598 95.5529 46.6362 93.6901 47.103C89.9573 48.0386 85.3759 50.1948 80.9515 52.6304C76.5181 55.071 72.2073 57.812 69.0069 59.9412C67.9949 60.6144 67.0933 61.227 66.3335 61.7498C66.8837 61.0096 67.5289 60.131 68.2387 59.1442C70.4835 56.0238 73.3803 51.816 75.9813 47.4748C78.5773 43.1422 80.8995 38.6426 81.9709 34.9464C82.5055 33.1018 82.7441 31.4072 82.5139 30.0138C82.2787 28.59 81.5477 27.4688 80.1795 26.8726C78.8111 26.2762 77.4923 26.504 76.2893 27.3008C75.1119 28.0808 74.0331 29.4092 73.0461 31.0566C71.0681 34.3578 69.3533 39.122 67.9471 43.9732C66.5381 48.834 65.4281 53.8206 64.6707 57.5892C64.4313 58.781 64.2269 59.8516 64.0593 60.7586C63.9251 59.846 63.7599 58.7686 63.5641 57.5688C62.9447 53.775 62.0177 48.7512 60.7871 43.842C59.5589 38.9426 58.0193 34.1186 56.1631 30.7472C55.2371 29.0648 54.2075 27.6978 53.0591 26.8752C51.8861 26.0348 50.5765 25.7588 49.1873 26.3046C47.7981 26.8506 47.0267 27.9442 46.7395 29.3584C46.4585 30.7426 46.6349 32.4448 47.1019 34.3076C48.0377 38.0406 50.1941 42.6222 52.6301 47.047C55.0709 51.4806 57.8121 55.7918 59.9415 58.9922Z" fill="#F8A300" stroke="#FBF8EF"/>
<path d="M62.054 57.8546C62.3104 59.0428 62.5508 60.106 62.7596 61.0044C62.272 60.2216 61.6902 59.2998 61.0312 58.2782C58.948 55.0476 56.091 50.8124 53.0018 46.8038C49.9188 42.803 46.5802 38.9958 43.5318 36.6466C42.0106 35.4744 40.5208 34.6326 39.1396 34.3372C37.7284 34.0356 36.4176 34.3058 35.3622 35.3612C34.3068 36.4166 34.0366 37.7274 34.3382 39.1386C34.6336 40.5198 35.4754 42.0096 36.6476 43.5308C38.9968 46.5792 42.804 49.9178 46.8048 53.0008C50.8134 56.09 55.0486 58.947 58.2792 61.0302C59.3008 61.6892 60.2226 62.271 61.0054 62.7586C60.107 62.5498 59.0438 62.3094 57.8556 62.053C54.0982 61.2418 49.0832 60.2672 44.0642 59.617C39.0552 58.968 34.0024 58.6368 30.1858 59.1312C28.2814 59.3778 26.6324 59.8362 25.447 60.604C24.2358 61.3884 23.5 62.5064 23.5 63.999C23.5 65.4916 24.2358 66.6096 25.447 67.394C26.6324 68.1618 28.2814 68.6202 30.1858 68.8668C34.0024 69.3612 39.0552 69.03 44.0642 68.381C49.0832 67.7308 54.0982 66.7562 57.8556 65.945C59.0438 65.6886 60.107 65.4482 61.0054 65.2394C60.2226 65.727 59.3008 66.3088 58.2792 66.9678C55.0486 69.051 50.8134 71.908 46.8048 74.9972C42.804 78.0802 38.9968 81.4188 36.6476 84.4672C35.4754 85.9884 34.6336 87.4782 34.3382 88.8594C34.0366 90.2706 34.3068 91.5814 35.3622 92.6368C36.4176 93.6922 37.7284 93.9624 39.1396 93.6608C40.5208 93.3654 42.0106 92.5236 43.5318 91.3514C46.5802 89.0022 49.9188 85.195 53.0018 81.1942C56.091 77.1856 58.948 72.9504 61.0312 69.7198C61.6902 68.6982 62.272 67.7764 62.7596 66.9936C62.5508 67.892 62.3104 68.9552 62.054 70.1434C61.2428 73.9008 60.2682 78.9158 59.618 83.9348C58.969 88.9438 58.6378 93.9966 59.1322 97.8132C59.3788 99.7176 59.8372 101.367 60.605 102.552C61.3894 103.763 62.5074 104.499 64 104.499C65.4926 104.499 66.6106 103.763 67.395 102.552C68.1628 101.367 68.6212 99.7176 68.8678 97.8132C69.3622 93.9966 69.031 88.9438 68.382 83.9348C67.7318 78.9158 66.7572 73.9008 65.946 70.1434C65.6896 68.9552 65.4492 67.892 65.2404 66.9936C65.728 67.7764 66.3098 68.6982 66.9688 69.7198C69.052 72.9504 71.909 77.1856 74.9982 81.1942C78.0812 85.195 81.4198 89.0022 84.4682 91.3514C85.9894 92.5236 87.4792 93.3654 88.8604 93.6608C90.2716 93.9624 91.5824 93.6922 92.6378 92.6368C93.6932 91.5814 93.9634 90.2706 93.6618 88.8594C93.3664 87.4782 92.5246 85.9884 91.3524 84.4672C89.0032 81.4188 85.196 78.0802 81.1952 74.9972C77.1866 71.908 72.9514 69.051 69.7208 66.9678C68.6992 66.3088 67.7774 65.727 66.9946 65.2394C67.893 65.4482 68.9562 65.6886 70.1444 65.945C73.9018 66.7562 78.9168 67.7308 83.9358 68.381C88.9448 69.03 93.9976 69.3612 97.8142 68.8668C99.7186 68.6202 101.368 68.1618 102.553 67.394C103.764 66.6096 104.5 65.4916 104.5 63.999C104.5 62.5064 103.764 61.3884 102.553 60.604C101.368 59.8362 99.7186 59.3778 97.8142 59.1312C93.9976 58.6368 88.9448 58.968 83.9358 59.617C78.9168 60.2672 73.9018 61.2418 70.1444 62.053C68.9562 62.3094 67.893 62.5498 66.9946 62.7586C67.7774 62.271 68.6992 61.6892 69.7208 61.0302C72.9514 58.947 77.1866 56.09 81.1952 53.0008C85.196 49.9178 89.0032 46.5792 91.3524 43.5308C92.5246 42.0096 93.3664 40.5198 93.6618 39.1386C93.9634 37.7274 93.6932 36.4166 92.6378 35.3612C91.5824 34.3058 90.2716 34.0356 88.8604 34.3372C87.4792 34.6326 85.9894 35.4744 84.4682 36.6466C81.4198 38.9958 78.0812 42.803 74.9982 46.8038C71.909 50.8124 69.052 55.0476 66.9688 58.2782C66.3098 59.2998 65.728 60.2216 65.2404 61.0044C65.4492 60.106 65.6896 59.0428 65.946 57.8546C66.7572 54.0972 67.7318 49.0822 68.382 44.0632C69.031 39.0542 69.3622 34.0014 68.8678 30.1848C68.6212 28.2804 68.1628 26.6314 67.395 25.446C66.6106 24.2348 65.4926 23.499 64 23.499C62.5074 23.499 61.3894 24.2348 60.605 25.446C59.8372 26.6314 59.3788 28.2804 59.1322 30.1848C58.6378 34.0014 58.969 39.0542 59.618 44.0632C60.2682 49.0822 61.2428 54.0972 62.054 57.8546Z" fill="#F8A300" stroke="#FBF8EF"/>
<path d="M64.6112 38.5117L65.4334 61.0517L82.5544 46.3683L67.1976 62.8879L89.6868 64.6117L67.1466 65.4339L81.83 82.5549L65.3104 67.1981L63.5866 89.6873L62.7644 67.1471L45.6434 81.8305L61.0002 65.3109L38.5112 63.5871L61.0512 62.7649L46.3678 45.6439L62.8874 61.0007L64.6112 38.5117Z" fill="#FBF8EF"/>
<path d="M64 56C68.4183 56 72 59.5817 72 64C72 68.4183 68.4183 72 64 72C59.5817 72 56 68.4183 56 64C56 59.5817 59.5817 56 64 56Z" fill="#FBF8EF" stroke="#FBF8EF"/>
<path d="M124 92V124H92L124 92Z" fill="#63BCE5"/>
<path d="M92 4H124V36L92 4Z" fill="#63BCE5"/>
<path d="M36 3.99902H4V35.999L36 3.99902Z" fill="#63BCE5"/>
<path d="M36 123.999H4V91.999L36 123.999Z" fill="#63BCE5"/>
<path d="M4 107.999H20V123.999L4 107.999Z" fill="#FBF8EF"/>
<path d="M20 3.99902V19.999H4L20 3.99902Z" fill="#FBF8EF"/>
<path d="M124 20H108V4L124 20Z" fill="#FBF8EF"/>
<path d="M108 124V108H124L108 124Z" fill="#FBF8EF"/>
</g>
</g>
<defs>
<clipPath id="clip0_2793_551">
<rect width="128" height="128" fill="white"/>
</clipPath>
</defs>
</svg>
