<svg width="128" height="128" viewBox="0 0 128 128" fill="none" xmlns="http://www.w3.org/2000/svg">
<g clip-path="url(#clip0_2802_209)">
<mask id="mask0_2802_209" style="mask-type:luminance" maskUnits="userSpaceOnUse" x="0" y="0" width="128" height="128">
<path d="M128 0H0V128H128V0Z" fill="white"/>
</mask>
<g mask="url(#mask0_2802_209)">
<path d="M128 0H0V128H128V0Z" fill="#FBF8EF"/>
<path d="M64.0159 -6.71068L-6.69482 64L64.0159 134.711L134.727 64L64.0159 -6.71068Z" fill="#FBF8EF"/>
<path d="M64.1445 11L11.1448 64.2893L64.1445 117L117.145 64.29L64.1445 11Z" fill="#65D157" stroke="#65D157" stroke-width="10"/>
<path d="M59.9415 58.9932C60.6149 60.0054 61.2275 60.907 61.7503 61.6668C61.0101 61.1166 60.1315 60.4714 59.1445 59.7614C56.0239 57.5166 51.8159 54.6194 47.4745 52.0182C43.1415 49.422 38.6417 47.0994 34.9451 46.0278C33.1007 45.493 31.4059 45.2544 30.0123 45.4846C28.5887 45.7198 27.4673 46.4506 26.8709 47.819C26.2747 49.1872 26.5025 50.5062 27.2995 51.709C28.0795 52.8866 29.4079 53.9654 31.0553 54.9526C34.3567 56.9306 39.1213 58.6458 43.9727 60.0522C48.8339 61.4616 53.8207 62.5718 57.5895 63.3294C58.7813 63.569 59.8521 63.7734 60.7593 63.941C59.8465 64.0752 58.7691 64.2404 57.5693 64.4362C53.7751 65.0552 48.7511 65.982 43.8417 67.2124C38.9419 68.4402 34.1177 69.9796 30.7461 71.8354C29.0637 72.7616 27.6965 73.791 26.8737 74.9392C26.0333 76.1122 25.7573 77.4218 26.3031 78.811C26.8491 80.2004 27.9427 80.9718 29.3569 81.259C30.7411 81.54 32.4435 81.3636 34.3063 80.8968C38.0395 79.9612 42.6215 77.805 47.0465 75.3694C51.4805 72.9288 55.7919 70.1878 58.9925 68.0586C60.0047 67.3854 60.9065 66.7728 61.6665 66.25C61.1159 66.9902 60.4709 67.8688 59.7609 68.8556C57.5157 71.976 54.6183 76.1838 52.0167 80.525C49.4203 84.8576 47.0975 89.3572 46.0257 93.0534C45.4907 94.898 45.2519 96.5926 45.4821 97.986C45.7173 99.4098 46.4481 100.531 47.8165 101.127C49.1847 101.724 50.5037 101.496 51.7067 100.699C52.8843 99.919 53.9633 98.5906 54.9503 96.9434C56.9287 93.6422 58.6441 88.8778 60.0509 84.0266C61.4605 79.1658 62.5709 74.1792 63.3287 70.4106C63.5685 69.2188 63.7729 68.1482 63.9405 67.2412C64.0747 68.1538 64.2397 69.2312 64.4355 70.431C65.0543 74.2248 65.9809 79.2486 67.2109 84.1578C68.4385 89.0572 69.9777 93.8812 71.8333 97.2526C72.7593 98.935 73.7887 100.302 74.9367 101.125C76.1097 101.965 77.4193 102.241 78.8085 101.695C80.1977 101.149 80.9693 100.056 81.2565 98.6416C81.5377 97.2574 81.3613 95.5552 80.8945 93.6924C79.9593 89.9594 77.8033 85.3778 75.3679 80.9528C72.9277 76.5192 70.1869 72.2082 68.0581 69.0076C67.3847 67.9954 66.7723 67.0938 66.2495 66.334C66.9897 66.8842 67.8681 67.5294 68.8549 68.2394C71.9751 70.4842 76.1827 73.3814 80.5235 75.9826C84.8559 78.5788 89.3553 80.9014 93.0513 81.973C94.8957 82.5078 96.5901 82.7466 97.9837 82.5164C99.4073 82.2812 100.529 81.5502 101.125 80.182C101.721 78.8136 101.493 77.4948 100.697 76.2918C99.9167 75.1142 98.5883 74.0354 96.9411 73.0482C93.6401 71.0702 88.8761 69.3549 84.0253 67.9486C79.1647 66.5392 74.1785 65.429 70.4101 64.6714C69.2183 64.4318 68.1477 64.2274 67.2407 64.0598C68.1531 63.9256 69.2305 63.7604 70.4303 63.5646C74.2239 62.9456 79.2475 62.0188 84.1565 60.7886C89.0555 59.5606 93.8793 58.0212 97.2505 56.1654C98.9327 55.2392 100.3 54.2098 101.122 53.0616C101.963 51.8886 102.239 50.579 101.693 49.1898C101.147 47.8006 100.053 47.0292 98.6391 46.742C97.2551 46.4608 95.5529 46.6372 93.6901 47.104C89.9573 48.0396 85.3759 50.1958 80.9515 52.6314C76.5181 55.072 72.2073 57.813 69.0069 59.9422C67.9949 60.6154 67.0933 61.228 66.3335 61.7508C66.8837 61.0106 67.5289 60.132 68.2387 59.1452C70.4835 56.0248 73.3803 51.817 75.9813 47.4758C78.5773 43.1432 80.8995 38.6436 81.9709 34.9474C82.5055 33.1028 82.7441 31.4082 82.5139 30.0148C82.2787 28.591 81.5477 27.4698 80.1795 26.8736C78.8111 26.2772 77.4923 26.505 76.2893 27.3018C75.1119 28.0818 74.0331 29.4102 73.0461 31.0576C71.0681 34.3588 69.3533 39.123 67.9471 43.9742C66.5381 48.835 65.4281 53.8216 64.6707 57.5902C64.4313 58.782 64.2269 59.8526 64.0593 60.7596C63.9251 59.847 63.7599 58.7696 63.5641 57.5698C62.9447 53.776 62.0177 48.7522 60.7871 43.843C59.5589 38.9436 58.0193 34.1196 56.1631 30.7482C55.2371 29.0658 54.2075 27.6988 53.0591 26.8762C51.8861 26.0358 50.5765 25.7598 49.1873 26.3056C47.7981 26.8516 47.0267 27.9452 46.7395 29.3594C46.4585 30.7436 46.6349 32.4458 47.1019 34.3086C48.0377 38.0416 50.1941 42.6232 52.6301 47.048C55.0709 51.4816 57.8121 55.7928 59.9415 58.9932Z" fill="#F8A300" stroke="#FBF8EF"/>
<path d="M62.054 57.8556C62.3104 59.0438 62.5508 60.107 62.7596 61.0054C62.272 60.2226 61.6902 59.3008 61.0312 58.2792C58.948 55.0486 56.091 50.8134 53.0018 46.8048C49.9188 42.804 46.5802 38.9968 43.5318 36.6476C42.0106 35.4754 40.5208 34.6336 39.1396 34.3382C37.7284 34.0366 36.4176 34.3068 35.3622 35.3622C34.3068 36.4176 34.0366 37.7284 34.3382 39.1396C34.6336 40.5208 35.4754 42.0106 36.6476 43.5318C38.9968 46.5802 42.804 49.9188 46.8048 53.0018C50.8134 56.091 55.0486 58.948 58.2792 61.0312C59.3008 61.6902 60.2226 62.272 61.0054 62.7596C60.107 62.5508 59.0438 62.3104 57.8556 62.054C54.0982 61.2428 49.0832 60.2682 44.0642 59.618C39.0552 58.969 34.0024 58.6378 30.1858 59.1322C28.2814 59.3788 26.6324 59.8372 25.447 60.605C24.2358 61.3894 23.5 62.5074 23.5 64C23.5 65.4926 24.2358 66.6106 25.447 67.395C26.6324 68.1628 28.2814 68.6212 30.1858 68.8678C34.0024 69.3622 39.0552 69.031 44.0642 68.382C49.0832 67.7318 54.0982 66.7572 57.8556 65.946C59.0438 65.6896 60.107 65.4492 61.0054 65.2404C60.2226 65.728 59.3008 66.3098 58.2792 66.9688C55.0486 69.052 50.8134 71.909 46.8048 74.9982C42.804 78.0812 38.9968 81.4198 36.6476 84.4682C35.4754 85.9894 34.6336 87.4792 34.3382 88.8604C34.0366 90.2716 34.3068 91.5824 35.3622 92.6378C36.4176 93.6932 37.7284 93.9634 39.1396 93.6618C40.5208 93.3664 42.0106 92.5246 43.5318 91.3524C46.5802 89.0032 49.9188 85.196 53.0018 81.1952C56.091 77.1866 58.948 72.9514 61.0312 69.7208C61.6902 68.6992 62.272 67.7774 62.7596 66.9946C62.5508 67.893 62.3104 68.9562 62.054 70.1444C61.2428 73.9018 60.2682 78.9168 59.618 83.9358C58.969 88.9448 58.6378 93.9976 59.1322 97.8142C59.3788 99.7186 59.8372 101.368 60.605 102.553C61.3894 103.764 62.5074 104.5 64 104.5C65.4926 104.5 66.6106 103.764 67.395 102.553C68.1628 101.368 68.6212 99.7186 68.8678 97.8142C69.3622 93.9976 69.031 88.9448 68.382 83.9358C67.7318 78.9168 66.7572 73.9018 65.946 70.1444C65.6896 68.9562 65.4492 67.893 65.2404 66.9946C65.728 67.7774 66.3098 68.6992 66.9688 69.7208C69.052 72.9514 71.909 77.1866 74.9982 81.1952C78.0812 85.196 81.4198 89.0032 84.4682 91.3524C85.9894 92.5246 87.4792 93.3664 88.8604 93.6618C90.2716 93.9634 91.5824 93.6932 92.6378 92.6378C93.6932 91.5824 93.9634 90.2716 93.6618 88.8604C93.3664 87.4792 92.5246 85.9894 91.3524 84.4682C89.0032 81.4198 85.196 78.0812 81.1952 74.9982C77.1866 71.909 72.9514 69.052 69.7208 66.9688C68.6992 66.3098 67.7774 65.728 66.9946 65.2404C67.893 65.4492 68.9562 65.6896 70.1444 65.946C73.9018 66.7572 78.9168 67.7318 83.9358 68.382C88.9448 69.031 93.9976 69.3622 97.8142 68.8678C99.7186 68.6212 101.368 68.1628 102.553 67.395C103.764 66.6106 104.5 65.4926 104.5 64C104.5 62.5074 103.764 61.3894 102.553 60.605C101.368 59.8372 99.7186 59.3788 97.8142 59.1322C93.9976 58.6378 88.9448 58.969 83.9358 59.618C78.9168 60.2682 73.9018 61.2428 70.1444 62.054C68.9562 62.3104 67.893 62.5508 66.9946 62.7596C67.7774 62.272 68.6992 61.6902 69.7208 61.0312C72.9514 58.948 77.1866 56.091 81.1952 53.0018C85.196 49.9188 89.0032 46.5802 91.3524 43.5318C92.5246 42.0106 93.3664 40.5208 93.6618 39.1396C93.9634 37.7284 93.6932 36.4176 92.6378 35.3622C91.5824 34.3068 90.2716 34.0366 88.8604 34.3382C87.4792 34.6336 85.9894 35.4754 84.4682 36.6476C81.4198 38.9968 78.0812 42.804 74.9982 46.8048C71.909 50.8134 69.052 55.0486 66.9688 58.2792C66.3098 59.3008 65.728 60.2226 65.2404 61.0054C65.4492 60.107 65.6896 59.0438 65.946 57.8556C66.7572 54.0982 67.7318 49.0832 68.382 44.0642C69.031 39.0552 69.3622 34.0024 68.8678 30.1858C68.6212 28.2814 68.1628 26.6324 67.395 25.447C66.6106 24.2358 65.4926 23.5 64 23.5C62.5074 23.5 61.3894 24.2358 60.605 25.447C59.8372 26.6324 59.3788 28.2814 59.1322 30.1858C58.6378 34.0024 58.969 39.0552 59.618 44.0642C60.2682 49.0832 61.2428 54.0982 62.054 57.8556Z" fill="#F8A300" stroke="#FBF8EF"/>
<path d="M64.6112 38.5127L65.4334 61.0527L82.5544 46.3693L67.1976 62.8889L89.6868 64.6127L67.1466 65.4349L81.83 82.5559L65.3104 67.1991L63.5866 89.6883L62.7644 67.1481L45.6434 81.8315L61.0002 65.3119L38.5112 63.5881L61.0512 62.7659L46.3678 45.6449L62.8874 61.0017L64.6112 38.5127Z" fill="#FBF8EF"/>
<path d="M64 56C68.4183 56 72 59.5817 72 64C72 68.4183 68.4183 72 64 72C59.5817 72 56 68.4183 56 64C56 59.5817 59.5817 56 64 56Z" fill="#FBF8EF" stroke="#FBF8EF"/>
<path d="M124 92.001V124.001H92L124 92.001Z" fill="#65D157"/>
<path d="M92 4.00098H124V36.001L92 4.00098Z" fill="#65D157"/>
<path d="M36 4H4V36L36 4Z" fill="#65D157"/>
<path d="M36 124H4V92L36 124Z" fill="#65D157"/>
<path d="M4 108H20V124L4 108Z" fill="#FBF8EF"/>
<path d="M20 4V20H4L20 4Z" fill="#FBF8EF"/>
<path d="M124 20.001H108V4.00098L124 20.001Z" fill="#FBF8EF"/>
<path d="M108 124.001V108.001H124L108 124.001Z" fill="#FBF8EF"/>
</g>
</g>
<defs>
<clipPath id="clip0_2802_209">
<rect width="128" height="128" fill="white"/>
</clipPath>
</defs>
</svg>
