<svg width="128" height="128" viewBox="0 0 128 128" fill="none" xmlns="http://www.w3.org/2000/svg">
<g clip-path="url(#clip0_2741_1423)">
<rect width="128" height="128" fill="#FBF8EF"/>
<path d="M55.4997 74.4998C43.4342 77.3819 41.2628 71.9432 33.9999 81.9996L38.4997 83.4997C44.9999 76 44.1088 80.4621 54.9997 77.5001C66.1163 74.4767 73.7506 72.8549 84.4997 76.9996C87.3513 78.0991 89.7941 78.7907 92.4997 81.0001C95.1925 83.1991 97.9218 87.4024 99.4998 90.5003C101.327 94.0873 100.5 98.0005 100.5 98.0005L102.5 97.0008C102.5 97.0008 101.505 90.2646 99.4998 86.5005C97.7365 83.1899 96.4045 81.3734 93.4996 79.0003C90.4564 76.5142 87.7944 75.9117 84.4997 74.4998C74 70 66.515 71.8685 55.4997 74.4998Z" fill="#65D157"/>
<path d="M38.4997 83.4997L33.9999 81.9996C33.9999 81.9996 26.3461 92.8407 25.0001 95.5001C23.5756 98.3147 22.5 100 21.5 103C23.2573 103 25.9998 103 25.9998 103C25.9998 103 28.0686 98.1146 29.4998 95.5001C30.548 93.5852 38.4997 83.4997 38.4997 83.4997Z" fill="#65D157"/>
<path d="M25.9998 103C25.9998 103 23.2573 103 21.5 103C20.603 105.843 19.2869 112.598 19.0512 115.569C18.7909 118.852 18.9995 124 18.9995 124L23.9995 124C23.9995 124 22.7591 119.562 22.9997 115.569C23.1371 113.29 25.9998 103 25.9998 103Z" fill="#65D157"/>
<path d="M9.00082 64.5C9.00082 71.5 6.42741 81.5724 7.99993 93.0001C9.7851 105.973 18.9999 124 18.9999 124L24.0004 124C24.0004 124 13.5884 106.766 11.5009 93.0001C9.98445 83.0001 11.5009 70.9911 11.5009 64.5C11.5009 61.0003 15.542 55.6704 16.5011 50.501C17.2851 46.2758 15.8008 43.6908 16.7512 39.5C17.804 34.8581 19.2512 28.5 19.2512 28.5L16.7512 28.5C16.7512 28.5 15.4531 34.8785 14.5013 39.5C13.6347 43.7078 15.29 46.2778 14.5013 50.501C13.5222 55.7436 9.00083 60.7903 9.00082 64.5Z" fill="#65D157"/>
<path d="M20.6751 74.2911C19.0728 73.411 17.587 71.5911 16.2619 72.7852C14.9596 73.9587 17.1292 75.5025 17.1463 77.2844C17.1596 78.6663 16.5366 79.3985 16.6739 80.7771C17.0018 84.0699 20.0489 84.7578 22.0184 87.4551C24.3557 90.6558 24.8025 92.744 27.7632 94.9165C31.0128 97.301 37.6653 95.3546 36.1886 99.0155C35.779 100.031 33 101.5 33 101.5C33 101.5 48.5337 99.9338 43.0895 88.4955C40.1678 82.3569 30.8411 82.7827 25.4418 78.6432C23.443 77.1108 22.8776 75.5007 20.6751 74.2911Z" fill="#65D157"/>
<path d="M44.0385 52.0659C43.5874 50.5567 43.7958 48.5505 42.223 48.4642C40.6773 48.3794 41.0682 50.6358 39.9665 51.7234C39.112 52.5669 38.266 52.6296 37.4911 53.5467C35.6401 55.7372 37.1132 58.0113 36.6591 60.8429C36.1203 64.2032 33.6857 66.1114 34 69.5C34.3534 73.3107 42 72 37 78.5C32 85 47.9054 76.1363 49.7865 71.5367C52.0002 66.1237 45.0847 63.3987 44.2977 57.6037C44.0063 55.4584 44.6585 54.1402 44.0385 52.0659Z" fill="#65D157"/>
<path d="M72.3436 112.097C74.4039 111.367 77.1994 111.515 77.2089 109.329C77.2182 107.18 74.1179 107.88 72.5332 106.429C71.3042 105.304 71.1581 104.135 69.8326 103.126C66.6667 100.713 63.622 102.873 59.6609 102.483C54.825 102.007 50.8948 99.0942 47 102C44.6589 103.747 39.5009 102.306 36.4292 103.337C27 106.5 24.7457 113.5 25 113.5C25.2543 113.5 30 105.5 43.1177 116.606C47.4211 120.249 56.7082 114.341 64.6857 112.844C67.6389 112.29 69.5117 113.102 72.3436 112.097Z" fill="#65D157"/>
<path d="M114.246 72.2515C115.838 72.6466 118.004 72.5392 118.002 73.7727C118 74.985 115.602 74.6163 114.368 75.4484C113.411 76.0937 113.293 76.7542 112.262 77.3352C109.799 78.7231 107.447 77.5068 104.38 77.7835C100.741 78.1118 98.089 81.0943 95.1272 78.9883C91.6276 76.5 75 72 75 72C75 72 84.0363 72.9988 91.6276 69.9542C96.4998 68.0001 98.5 69.4999 102.5 71.0003C104.656 71.8092 112.057 71.7085 114.246 72.2515Z" fill="#65D157"/>
<path d="M55.1702 41.9348C53.795 40.4309 51.2998 35.2159 49.5001 35.9997C47.7312 36.7701 50.0964 40.0487 49.5001 41.9348C49.0376 43.3976 49.0739 45.8371 48.7425 47.3408C47.9508 50.9327 50.9057 52.7528 52.0392 56.3059C53.3843 60.5223 52.6083 63.4915 54.919 67.2612C57.5174 71.5005 64.2747 77.969 62.7873 81.0457C61.3 84.1224 70.5003 72 68.8903 64.7316C67.2515 57.3325 62.8925 54.5449 58.6633 48.2385C57.0976 45.9039 57.0604 44.002 55.1702 41.9348Z" fill="#65D157"/>
<path d="M4.90971 43.863C4.28685 43.0603 3.90711 41.8029 3.01329 42.1213C2.1348 42.4342 2.90878 43.7011 2.56612 44.6155C2.30037 45.3247 1.84648 45.5617 1.64301 46.2965C1.15702 48.0516 2.53571 49.0743 2.98295 50.8866C3.51368 53.0373 2.67872 54.7368 4.06413 56.4501C8.51618 61.9559 8 79 8 79C8 79 9.56217 60.4769 10.3223 55.1606C10.8555 51.4314 8.28825 50.442 6.42082 47.1372C5.72949 45.9137 5.76584 44.9663 4.90971 43.863Z" fill="#65D157"/>
<path d="M32.8197 47.5324C34.3194 46.9984 35.9329 45.6916 36.7464 46.804C37.5459 47.8973 35.4371 48.9051 35.0275 50.3441C34.7099 51.4601 35.0544 52.1212 34.6366 53.2208C33.6387 55.8471 31.0057 56.0655 28.8037 58.0282C26.1906 60.3572 25.4426 62.5685 22.404 64.2836L22.3728 64.3011C18.9408 66.2382 11.354 70.5203 11.0131 73.0305C10.6712 75.5484 10.4998 62.4998 14.6046 57.9878C18.6037 53.592 22.6597 53.2717 27.9736 50.5231C29.9408 49.5056 30.7585 48.2663 32.8197 47.5324Z" fill="#65D157"/>
<path d="M85.1235 89.1778C86.6568 89.6821 88.7678 89.6571 88.7163 91.0174C88.6658 92.3544 86.3479 91.8443 85.1146 92.7089C84.1582 93.3795 84.0167 94.1029 82.9907 94.6993C80.5399 96.1239 78.3008 94.6811 75.307 94.8541C71.7543 95.0594 69.7645 96.3154 66.2589 95.7843C62.3167 95.187 51.6471 96.1983 49.5365 97.499C47.4259 98.7997 58.8934 88.7783 63.8592 87.513C69.7032 86.024 73.3991 87.4056 79.3717 88.5287C81.5828 88.9445 83.016 88.4846 85.1235 89.1778Z" fill="#65D157"/>
<path d="M124.556 56.5669C125.953 55.6244 123.585 52.0205 121.848 49.9281C117.566 44.7717 111.277 45.0077 104.213 45.8232C98.0938 46.5295 97.2664 49.0608 91.9999 52.0007C87.5181 54.5025 80.7419 57.5258 76.9999 61.0007C74.1486 63.6483 71 72.5 71 72.5C71 72.5 77.8298 64.4126 81.5395 64.404C87.5923 64.3901 91.6032 67.775 97.5328 66.643C106.449 64.941 107.614 57.2467 117.847 56.1562C120.492 55.8743 123.072 57.5688 124.556 56.5669Z" fill="#65D157"/>
<path d="M28.0002 104C19.5 108.812 23.9997 124 23.9997 124C23.9997 124 21.9194 112.289 29.9998 107.5C36.6894 103.535 52.0358 97.5342 57.4996 92.001C60.4165 89.0471 62.0866 87.379 64.4996 84.001C69.1435 77.4999 70.5002 73.4989 73.4997 66.9999C77.9032 57.4591 87.0643 54.4765 94 45.0001C98.6086 38.7032 104.5 27.9999 104.5 27.9999L102.5 26.5C102.5 26.5 96.8301 37.3715 92 43.5001C85.8441 51.3108 73.4997 61 73.4997 61C73.4997 61 74.4917 51.1692 73.4997 45C72.382 38.049 66.499 28.0001 66.499 28.0001L64.4994 29.5002C64.4994 29.5002 69.9849 38.6579 70.9999 45.0001C72.1742 52.3375 71.1679 59.3963 70.0001 64.0014C68.0838 71.5581 65.9994 75.9984 61.9997 82.4999C59.974 85.7927 58.3665 86.9073 55.5001 89.5014C49.9116 94.559 34.5596 100.288 28.0002 104Z" fill="#65D157"/>
<path d="M13.5003 66.5C13.5003 66.5 16.3037 62.0334 18.6478 59.6419C20.6031 57.647 21.9068 56.6716 24.2269 55.0773C26.5511 53.4801 28.1252 53.0211 30.5 51.5C32.0479 50.5086 34.3763 48.8299 34.3763 48.8299C34.3763 48.8299 32.2589 50.7644 30.8112 51.8929C28.5753 53.6357 26.9887 54.4935 24.7729 55.9224C22.4734 57.4052 21.3682 58.5113 19.351 60.3599C16.9092 62.5977 13.5003 66.5 13.5003 66.5Z" fill="#FBF8EF"/>
<path d="M58.0481 91.9339C58.0481 91.9339 62.9913 90.0972 66.3069 89.627C69.0725 89.2348 70.7006 89.2547 73.5118 89.4024C76.3281 89.5503 77.8563 90.1444 80.6663 90.3835C82.4979 90.5393 85.367 90.6252 85.367 90.6252C85.367 90.6252 82.5095 90.8707 80.674 90.8846C77.8391 90.906 76.0582 90.6206 73.4305 90.4052C70.7035 90.1816 69.1533 90.3863 66.4276 90.6248C63.1281 90.9134 58.0481 91.9339 58.0481 91.9339Z" fill="#FBF8EF"/>
<path d="M87.5 73.5508C87.5 73.5508 93.9915 73.8371 97.3071 74.3073C100.073 74.6995 101.701 74.6796 104.512 74.5319C107.328 74.384 108.857 73.7899 111.667 73.5508C113.498 73.395 116.367 73.3092 116.367 73.3092C116.367 73.3092 113.51 73.0636 111.674 73.0497C108.839 73.0283 107.058 73.3137 104.431 73.5291C101.704 73.7527 100.154 73.548 97.4278 73.3095C94.1283 73.0209 87.5 73.5508 87.5 73.5508Z" fill="#FBF8EF"/>
<path d="M19.5 75.5C19.5 75.5 24.0944 80.3814 26.9765 82.0866C29.3806 83.5089 30.8978 85.6278 33 87.5C35.106 89.3756 36.263 89.1612 38.3072 91.104C39.6396 92.3703 39.5 95.5 39.5 95.5C39.5 95.5 39.4415 92.6363 38 91.5C35.7736 89.745 34.2264 90.0425 32.3098 88.232C30.3207 86.3532 28.7241 84.4583 26.4472 82.941C23.6911 81.1042 19.5 75.5 19.5 75.5Z" fill="#FBF8EF"/>
<path d="M42.0344 51C42.0344 51 42.8554 56.7325 42.8554 59.6608C42.8554 62 41.8175 64.2607 42.0344 66.7092C42.2517 69.1622 43.2308 69.6894 43.3573 72.1509C43.4397 73.7554 41.1777 75.7373 41.1777 75.7373C41.1777 75.7373 43.1137 73.8162 42.8631 72.2344C42.476 69.7914 41.1593 69.0935 41.033 66.7928C40.902 64.4053 41.8851 62.5 41.8851 59.918C41.8851 57.0262 42.0344 51 42.0344 51Z" fill="#FBF8EF"/>
<path d="M64.6422 72.7903C64.6422 72.7903 64.8086 67.5265 63.7109 64.3445C62.8059 61.7208 60.4321 59.1711 59.1825 56.6929C57.2888 52.9372 55.1103 49.8493 53.95 47.2789C53.0766 45.3442 52.4173 42.0638 52.4173 42.0638C52.4173 42.0638 52.7698 45.4622 53.5001 47.4998C54.4566 50.1686 56.9158 54.9282 58.3019 57.171C59.7404 59.4985 61.761 62.1953 62.7873 64.7316C64.0297 67.8019 64.6422 72.7903 64.6422 72.7903Z" fill="#FBF8EF"/>
<path d="M81.0001 60.9668C81.0001 60.9668 83.2929 59.6857 87.2019 58.9859C90.3188 58.4279 95.9757 58.936 99.0005 57.9997C104.007 56.4499 108.057 53.5881 111.284 52.5963C113.713 51.8498 118.5 52.5968 118.5 52.5968C118.5 52.5968 113.641 51.5285 111.123 52.1217C107.826 52.8986 103.684 54.7164 98.8898 56.2977C95.7791 57.3237 90.1595 57.1412 87.0005 57.999C83.1764 59.0375 81.0001 60.9668 81.0001 60.9668Z" fill="#FBF8EF"/>
<path d="M30.1085 107.863C30.1085 107.863 32.4426 107.115 36.1489 107.175C39.1041 107.223 44.1877 108.675 47.1282 108.367C51.9952 107.856 55.3868 106.503 58.5337 106.653C65.0063 106.962 72.0454 108.842 72.0454 108.842C72.0454 108.842 64.8163 105.799 58.5358 105.814C55.373 105.822 52.0188 106.241 47.3403 106.818C44.3045 107.192 39.1952 106.038 36.1462 106.253C32.4553 106.512 30.1085 107.863 30.1085 107.863Z" fill="#FBF8EF"/>
<path d="M8.12372 62.8342C8.12372 62.8342 8.50874 59.4854 8.24323 57.3282C7.96827 55.094 7.25485 53.3699 6.70071 51.7419C6.14656 50.114 5.72534 49.4169 4.91813 47.856C4.39199 46.8386 3.9999 44.4997 3.9999 44.4997C3.9999 44.4997 4.17274 46.8091 4.5 48C4.97979 49.746 5.37656 50.4578 5.87377 52.0536C6.53976 54.1911 7.39702 57.5805 7.39702 57.5805L8.12372 62.8342Z" fill="#FBF8EF"/>
<path d="M8.09777 38.9658C7.29459 37.5239 7.45808 36.1613 7.73292 34.8642C8.03098 33.4576 8.43578 32.1711 8.18662 30.6735L8.14226 30.4467C7.897 29.3262 7.26892 28.4582 6.69435 27.4515C6.0963 26.4036 5.59741 25.2385 6.13559 23.7405L6.26011 23.4278C6.91857 21.9208 8.12208 21.2778 9.32539 21.0771C9.33159 21.0761 9.33826 21.076 9.34446 21.075C8.59764 20.7007 7.82897 20.2557 7.14968 19.7443C6.28642 19.0943 5.51619 18.3005 5.14711 17.3633C4.7645 16.3913 4.83658 15.3208 5.55395 14.2171L5.70464 13.9969C6.47132 12.9312 7.41376 12.429 8.40522 12.0608C9.4884 11.6585 10.4962 11.4448 11.6148 10.8516L11.8342 10.7284C12.3405 10.4278 12.8023 10.0424 13.2526 9.62061C13.5099 9.37961 13.758 9.13186 14.0097 8.88242C14.259 8.63534 14.512 8.38597 14.7684 8.15405C15.2778 7.6934 15.8344 7.26827 16.4752 7.03149C17.0514 6.81859 17.6747 6.76603 18.3616 6.9385L18.6603 7.02656C19.5993 7.34373 20.3016 8.14212 20.823 9.01628C20.8168 8.23536 20.8676 7.43686 21.0099 6.67993C21.2067 5.63331 21.5859 4.623 22.2728 3.85204C22.9286 3.116 23.8352 2.63173 25.0315 2.5182L25.2746 2.49998C27.7104 2.37462 29.2748 3.51266 30.5764 5.03844C31.2177 5.79031 31.8108 6.65398 32.4124 7.50866C32.9441 8.26415 33.488 9.02144 34.1012 9.7352L34.3685 10.0383C34.889 10.6131 35.4967 10.7846 36.2081 11.0715C36.5483 11.2087 36.9189 11.3796 37.24 11.659C37.5303 11.9117 37.7629 12.2371 37.9186 12.6692L37.9803 12.862C38.4753 14.5813 37.9878 15.9881 37.2254 17.0368C37.2178 17.0473 37.2094 17.0575 37.2018 17.0679C37.7966 16.8756 38.4196 16.7126 39.0272 16.6206C39.9266 16.4845 40.8636 16.4893 41.6348 16.8434C42.3961 17.193 42.9301 17.8525 43.1264 18.8539L43.1614 19.0591C43.4455 21.0333 42.8016 22.4651 42.0229 23.8032C41.2858 25.07 40.4684 26.2067 40.0108 27.7294L39.9242 28.04C39.7865 28.5731 39.7588 29.1135 39.7729 29.6668C39.78 29.944 39.7969 30.2197 39.815 30.4993C39.8328 30.7753 39.8515 31.0581 39.8593 31.335C39.889 32.3842 39.7665 33.4727 38.7837 34.342L38.5754 34.5132C37.9663 34.9773 37.2357 35.1135 36.5118 35.073C35.8995 35.0388 35.2681 34.8773 34.6661 34.6575C34.9577 34.9952 35.2372 35.3477 35.4849 35.711C36.0715 36.5711 36.5297 37.5428 36.5487 38.5182C36.5671 39.4727 36.1629 40.3607 35.2232 41.0856L35.0282 41.2287C33.6428 42.1908 32.3176 42.2308 31.0021 42.0426C30.3643 41.9514 29.6895 41.8003 29.0409 41.6778C28.3774 41.5526 27.7015 41.4488 26.9857 41.4329L26.4755 41.4367C25.9705 41.4545 25.4814 41.5119 24.9982 41.5815C24.3695 41.6721 23.7118 41.7906 23.0933 41.8522C21.8154 41.9795 20.5342 41.8864 19.234 40.8974L19.0492 40.7488C17.3544 39.311 17.3964 37.1147 17.8419 35.3065C17.2606 36.027 16.6122 36.782 15.9297 37.4886C14.7106 38.7506 13.3355 39.9129 12.0148 40.4185C11.3463 40.6744 10.6523 40.7774 9.98679 40.6005C9.31144 40.4209 8.73338 39.9714 8.27207 39.2556L8.09777 38.9658Z" fill="#F8A300" stroke="#FBF8EF"/>
<path d="M19.9444 22.4714C19.4268 23.973 17.381 26.0137 17.381 26.0137C17.381 26.0137 20.2228 26.5381 21.4993 27.4831C22.7759 28.428 23.9184 30.8531 23.9184 30.8531C23.9184 30.8531 25.3812 28.1279 26.7701 26.7634C27.9258 25.6281 30.1401 24.3444 30.1401 24.3444C30.1401 24.3444 27.9134 23.3207 27.1449 22.0688C26.3018 20.6951 26.5613 17.983 26.5613 17.983C26.5613 17.983 24.895 19.3709 23.6025 19.5051C22.1417 19.6568 20.032 18.3238 20.032 18.3238C20.032 18.3238 20.4621 20.9699 19.9444 22.4714Z" fill="#FBF8EF"/>
<path d="M24.7782 21.5216C25.7453 22.0307 26.7617 24.1261 26.2526 25.0932C25.7435 26.0603 23.8786 26.6389 22.9115 26.1298C21.9444 25.6207 21.3658 23.7558 21.8749 22.7887C22.384 21.8216 23.8111 21.0126 24.7782 21.5216Z" fill="#F8A300"/>
<path d="M32.5026 39.1021C30.4841 40.3158 28.8567 38.4916 26.5014 38.5009C24.3265 38.5096 22.7655 40.2682 20.9599 39.0558C18.4139 37.3462 22.0363 31.277 22.0363 31.277C22.0363 31.277 19.7807 36.6428 22.036 37.9426C23.5538 38.8173 24.7477 37.4866 26.4995 37.4963C28.0682 37.5049 29.0671 38.5423 30.4965 37.896C33.3498 36.606 26.9157 30.7217 26.9157 30.7217C26.9157 30.7217 35.8735 37.0752 32.5026 39.1021Z" fill="#FBF8EF"/>
<path d="M10.7386 37C8.40833 34.8903 11.9679 33.666 11.4857 30.5598C11.1271 28.2492 8.06804 27.0112 9.26178 25.0007C10.6089 22.7318 15.9998 25.5008 15.9998 25.5008C15.9998 25.5008 11.6588 24.1531 10.7386 26.0005C9.92961 27.6247 12.7539 28.7621 13 30.5598C13.2766 32.5797 10.7386 34.7939 11.7393 35.4847C13.9344 37 19.3638 28.843 19.3638 28.843C19.3638 28.843 13.5 39.5 10.7386 37Z" fill="#FBF8EF"/>
<path d="M14.2096 13.0871C15.8188 11.9263 15.9344 9.71433 17.9158 9.61188C20.9097 9.45708 20 17 20 17C20 17 19.8626 11.0581 17.484 11.3888C16.0549 11.5875 15.9565 13.0686 14.7883 13.9154C13.2721 15.0145 11.4812 14.4653 10.4992 16.0599C8.65495 19.0548 17.4246 21.8179 17.4246 21.8179C17.4246 21.8179 6.60376 19.6574 8.50042 15.9402C9.63324 13.72 12.1882 14.5452 14.2096 13.0871Z" fill="#FBF8EF"/>
<path d="M31.816 12.0998C33.1051 12.9658 34.44 12.6364 35.373 13.8779C37.4531 16.6456 28.8378 19.8688 28.8378 19.8688C28.8378 19.8688 35.5895 16.2843 33.6255 14.122C32.9084 13.3326 32.0749 13.4855 31.1827 12.9013C28.9381 11.4314 29.4624 7.79868 26.7851 7.62273C23.1971 7.38694 24.0098 16.402 24.0098 16.402C24.0098 16.402 21.824 5.34811 26.2149 5.37664C29.6321 5.39885 28.9793 10.1942 31.816 12.0998Z" fill="#FBF8EF"/>
<path d="M37 27.6021C36.7268 29.4621 38.6119 31.0328 37 32C34.5 33.5 29.5 27.0007 29.5 27.0007C29.5 27.0007 34.473 32 36.041 30.5C36.9672 29.614 35.8597 28.5719 36.041 27.3031C36.4068 24.7436 40.2894 23.241 39 21C37.4893 18.3744 30.9999 22.4999 30.9999 22.4999C30.9999 22.4999 38.2635 16.6176 40.3498 19.795C42.1708 22.5683 37.482 24.3196 37 27.6021Z" fill="#FBF8EF"/>
<path d="M65.2256 43.6062C63.6994 43.2383 62.8526 42.2451 62.1265 41.2218C61.3386 40.1113 60.7079 39.0133 59.5138 38.2308L59.3285 38.1153C58.3986 37.5714 57.3993 37.4539 56.3289 37.2074C55.2158 36.9511 54.0778 36.5477 53.3762 35.2035L53.2338 34.9055C52.6106 33.4555 53.018 32.1539 53.7145 31.1471C53.0047 31.4197 52.2455 31.664 51.496 31.8222C50.4428 32.0446 49.3449 32.1112 48.4129 31.7952C47.4413 31.4658 46.7009 30.7359 46.3866 29.5031L46.3296 29.2547C46.0792 28.0327 46.3356 27.051 46.7159 26.1239C47.132 25.1096 47.6267 24.2785 47.9306 23.1241L47.9863 22.8909C48.1052 22.3449 48.1465 21.7808 48.1611 21.2048C48.1771 20.5744 48.1607 19.863 48.1988 19.2447C48.238 18.6078 48.3362 17.9636 48.6172 17.3841C48.8692 16.8644 49.257 16.4189 49.8295 16.0726L50.0864 15.9308C50.6704 15.6349 51.2826 15.5658 51.8753 15.6263C51.3025 14.9994 50.7657 14.2895 50.3778 13.524C49.981 12.7407 49.7286 11.8783 49.7716 10.9756C49.8122 10.122 50.1149 9.26608 50.7525 8.44088L50.8838 8.27655C52.3644 6.49517 54.1669 6.13637 56.0651 6.20981C56.9997 6.24598 57.9811 6.38749 58.9594 6.51702C59.8244 6.63156 60.6975 6.73869 61.5842 6.76991L61.9654 6.77819C62.7334 6.78528 63.3789 6.49377 64.1878 6.24961C64.9126 6.03089 65.7351 5.87721 66.5958 6.34194L66.768 6.44279C67.3294 6.79918 67.6925 7.35783 67.9259 7.96823C68.128 8.49676 68.2397 9.09056 68.2998 9.68806C68.4719 9.29568 68.6628 8.90943 68.8776 8.54621C69.3711 7.71177 70.0087 6.94893 70.8292 6.50676C71.6205 6.0804 72.5403 5.97586 73.5699 6.32444L73.7776 6.39944C75.6144 7.12022 76.2152 8.56606 76.6001 10.0588C76.9694 11.4914 77.1492 12.9114 77.8936 14.2045L78.0499 14.4619C78.3301 14.896 78.6862 15.2593 79.0787 15.603C79.2753 15.7752 79.4771 15.9397 79.6828 16.1063C79.8859 16.2707 80.0945 16.4393 80.2924 16.6117C81.0422 17.2649 81.7273 18.0538 81.7015 19.3051L81.6869 19.5619C81.6246 20.224 81.2587 20.7469 80.7778 21.1471C80.3305 21.5192 79.7592 21.8069 79.1566 22.0327C79.7015 22.107 80.2417 22.2087 80.7519 22.3491C81.7054 22.6115 82.6098 23.0178 83.2437 23.6607C83.8587 24.2847 84.1904 25.1035 84.1023 26.1211L84.0793 26.3274C83.8591 27.9157 83.0319 28.8684 82.0556 29.664C81.5832 30.049 81.0443 30.421 80.5451 30.7922C80.0336 31.1725 79.5301 31.575 79.0621 32.0604L78.7395 32.4157C78.4293 32.7768 78.1565 33.152 77.8956 33.5319C77.5566 34.0254 77.2165 34.5595 76.8628 35.0291C76.1304 36.0012 75.2393 36.8379 73.71 37.1091L73.4898 37.1426C71.388 37.4083 69.8359 36.0588 68.8189 34.6739C68.9661 35.5408 69.0957 36.4841 69.1643 37.4193C69.2814 39.0165 69.2312 40.666 68.7481 41.8734C68.5027 42.4867 68.1307 43.0227 67.5769 43.362C67.0168 43.7051 66.332 43.8099 65.539 43.6717L65.2256 43.6062Z" fill="#F8A300" stroke="#FBF8EF"/>
<path d="M61.363 24.7873C62.0743 26.1086 62.1815 28.8366 62.1815 28.8366C62.1815 28.8366 64.3658 27.1986 65.8397 26.9172C67.3136 26.6358 69.7298 27.3954 69.7298 27.3954C69.7298 27.3954 68.7739 24.6341 68.7157 22.7955C68.6673 21.2656 69.194 18.9054 69.194 18.9054C69.194 18.9054 67.0568 19.7964 65.6951 19.5283C64.201 19.2341 62.4835 17.3168 62.4835 17.3168C62.4835 17.3168 62.3802 19.3631 61.6456 20.3468C60.8153 21.4586 58.5383 22.0701 58.5383 22.0701C58.5383 22.0701 60.6516 23.4661 61.363 24.7873Z" fill="#FBF8EF"/>
<path d="M63.7987 20.8213C64.7717 20.4757 66.8781 21.1118 67.2237 22.0848C67.5693 23.0578 66.7768 24.7236 65.8038 25.0693C64.8308 25.4149 63.1649 24.6223 62.8193 23.6494C62.4736 22.6764 62.8257 21.1669 63.7987 20.8213Z" fill="#F8A300"/>
<path d="M80.9566 26.7164C80.5068 28.8957 78.1974 28.8576 76.6954 30.4996C75.3084 32.0157 75.5301 34.2262 73.5316 34.7038C70.7135 35.3772 68.8181 28.974 68.8181 28.974C68.8181 28.974 71.1003 33.9774 73.4476 33.2434C75.0272 32.7495 74.8676 31.0679 75.9963 29.8574C77.0071 28.7734 78.3674 28.744 78.834 27.3373C79.7655 24.5293 71.5576 25.2293 71.5576 25.2293C71.5576 25.2293 81.7078 23.0769 80.9566 26.7164Z" fill="#FBF8EF"/>
<path d="M65.5575 40.4866C62.5997 40.7539 64.0292 37.4974 61.563 35.8428C59.7284 34.612 56.9093 35.9438 56.2774 33.827C55.5643 31.4382 60.9403 29.4673 60.9403 29.4673C60.9403 29.4673 57.224 31.6193 57.9177 33.4416C58.5277 35.0438 61.1266 33.8106 62.5328 34.7911C64.1129 35.8927 64.0253 39.0736 65.146 38.821C67.6044 38.2669 65.4162 29.2715 65.4162 29.2715C65.4162 29.2715 69.0626 40.1698 65.5575 40.4866Z" fill="#FBF8EF"/>
<path d="M51.1717 22.7604C51.3961 20.8993 49.9338 19.4023 51.1318 17.9604C52.9417 15.7819 57.5981 21.2448 57.5981 21.2448C57.5981 21.2448 53.3831 17.5346 52.0894 19.3985C51.3121 20.5183 52.2778 21.5353 52.1177 22.889C51.9099 24.6461 50.3815 25.5382 50.8601 27.2415C51.7591 30.4407 59.295 26.1193 59.295 26.1193C59.295 26.1193 50.8638 32.2513 49.4968 28.5532C48.6803 26.3444 50.8898 25.0984 51.1717 22.7604Z" fill="#FBF8EF"/>
<path d="M61.7623 9.89846C63.1895 9.55773 63.8157 8.4196 65.2755 8.56671C68.5302 8.89466 65.251 16.9429 65.251 16.9429C65.251 16.9429 67.0856 9.95763 64.3259 9.93686C63.3183 9.92928 62.8906 10.6062 61.9134 10.8517C59.4549 11.4692 57.2675 8.77841 55.4306 10.5252C52.9688 12.8663 59.7508 18.0758 59.7508 18.0758C59.7508 18.0758 50.6733 12.5142 53.5053 9.48274C55.7094 7.12349 58.6219 10.6482 61.7623 9.89846Z" fill="#FBF8EF"/>
<path d="M75.8495 16.227C76.9664 17.608 79.2647 17.3047 78.9041 19.0438C78.3447 21.7409 70.6282 21.051 70.6282 21.051C70.6282 21.051 77.2856 20.7989 77.248 18.7491C77.2258 17.5384 75.7927 17.6402 75.0276 16.7016C73.4842 14.8082 74.9272 11.1491 72.5449 10.6094C69.7537 9.97705 68.4628 17.1266 68.4628 17.1266C68.4628 17.1266 69.0293 8.31402 72.5724 8.90003C75.665 9.41151 73.8783 13.7899 75.8495 16.227Z" fill="#FBF8EF"/>
<path d="M96.8805 44.1253C95.5554 43.1413 95.1441 41.8319 94.8612 40.5365C94.5544 39.1318 94.3944 37.7927 93.5514 36.53L93.4177 36.3416C92.7333 35.421 91.8038 34.8881 90.8661 34.2068C89.89 33.4975 88.9562 32.6407 88.8307 31.0538L88.8192 30.7404C88.8228 30.0236 89.0418 29.4099 89.4127 28.8966C89.8293 28.3201 90.42 27.893 91.0568 27.575C91.1277 27.5396 91.2004 27.5074 91.273 27.4743C90.2935 27.3856 89.2856 27.2363 88.3568 26.9934C87.2185 26.6957 86.1431 26.2441 85.3894 25.5447C84.6098 24.8211 84.1943 23.8474 84.3842 22.6122L84.431 22.3496C84.6916 21.0628 85.3441 20.2175 86.0964 19.4741C86.9183 18.662 87.749 18.0527 88.5248 17.052L88.67 16.8537C88.9939 16.3823 89.2198 15.8565 89.4082 15.3053C89.5159 14.9902 89.6097 14.6732 89.7037 14.3534C89.7966 14.0376 89.8908 13.7162 89.9965 13.4112C90.2061 12.8069 90.4813 12.2015 90.9571 11.7476C91.3889 11.3357 91.9476 11.0837 92.6716 11.0174L92.9919 11.0003C94.4713 10.9761 95.5711 11.2729 96.383 11.6829C96.0507 10.8211 95.7331 9.82402 95.5619 8.83226C95.3921 7.84806 95.3576 6.82153 95.6348 5.92325C95.9016 5.05886 96.4538 4.32794 97.39 3.88767L97.5829 3.80368C99.8135 2.89863 101.681 3.27995 103.473 4.08774C104.356 4.48592 105.234 4.99436 106.123 5.49899C106.907 5.94444 107.708 6.3919 108.561 6.78717L108.931 6.95351C109.29 7.11023 109.688 7.19454 110.121 7.25111C110.337 7.27935 110.556 7.29971 110.782 7.32047C111.004 7.34096 111.235 7.36262 111.461 7.3904C112.299 7.49359 113.219 7.70829 113.817 8.56719L113.932 8.74814C114.252 9.29723 114.308 9.9723 114.257 10.61C114.225 11.005 114.148 11.4098 114.051 11.8024C114.222 11.6423 114.401 11.4844 114.59 11.3345C115.353 10.729 116.292 10.2109 117.338 10.1294C118.343 10.0514 119.38 10.3805 120.384 11.2836L120.584 11.4716C122.064 12.9244 122.052 14.5689 121.809 16.1795C121.576 17.7232 121.161 19.1876 121.351 20.7612L121.398 21.0779C121.492 21.6205 121.689 22.1245 121.929 22.623C122.05 22.8727 122.178 23.1171 122.31 23.3645C122.44 23.6088 122.573 23.8588 122.694 24.1081C123.152 25.0522 123.488 26.0948 122.95 27.2914L122.831 27.5331C122.461 28.2156 121.741 28.5596 120.974 28.7247C120.205 28.8902 119.289 28.8992 118.361 28.8276C118.883 29.0888 119.394 29.3675 119.87 29.6668C120.92 30.3269 121.86 31.1098 122.384 32.0138C122.65 32.4727 122.814 32.973 122.822 33.507C122.828 33.9762 122.713 34.4472 122.471 34.9136L122.359 35.1132C121.492 36.5599 120.3 37.1414 119.024 37.5108C118.405 37.6899 117.728 37.8296 117.086 37.9848C116.43 38.1434 115.771 38.3268 115.112 38.6067L114.648 38.82C114.195 39.0439 113.773 39.2973 113.361 39.5595C112.826 39.9006 112.275 40.279 111.736 40.5895C110.624 41.2311 109.418 41.6732 107.826 41.3063L107.599 41.2482C105.468 40.6461 104.56 38.756 104.185 37.0323C103.954 37.936 103.672 38.909 103.332 39.8478C102.759 41.4284 102.001 42.9846 101.015 43.9362C100.515 44.419 99.9285 44.772 99.2541 44.8649C98.5726 44.9586 97.869 44.7777 97.1585 44.3177L96.8805 44.1253Z" fill="#F8A300" stroke="#FBF8EF"/>
<path d="M100.896 24.219C101.042 25.8005 100.016 28.502 100.016 28.502C100.016 28.502 102.822 27.8114 104.374 28.1478C105.926 28.4842 107.965 30.2248 107.965 30.2248C107.965 30.2248 108.178 27.1392 108.883 25.3243C109.469 23.8141 110.96 21.7334 110.96 21.7334C110.96 21.7334 108.509 21.716 107.294 20.8908C105.96 19.9855 105.082 17.4066 105.082 17.4066C105.082 17.4066 104.133 19.3569 103.011 20.0108C101.741 20.7498 99.2701 20.4023 99.2701 20.4023C99.2701 20.4023 100.75 22.6374 100.896 24.219Z" fill="#FBF8EF"/>
<path d="M104.912 21.3647C106.003 21.431 107.791 22.923 107.724 24.0139C107.658 25.1048 106.196 26.3991 105.105 26.3328C104.014 26.2664 102.72 24.8045 102.786 23.7136C102.853 22.6227 103.821 21.2983 104.912 21.3647Z" fill="#F8A300"/>
<path d="M119.183 34.2133C117.842 36.1498 115.608 35.1561 113.465 36.1333C111.486 37.0355 110.787 39.2805 108.642 38.9179C105.618 38.4065 106.424 31.3846 106.424 31.3846C106.424 31.3846 106.575 37.2033 109.165 37.4606C110.908 37.6338 111.449 35.9298 113.05 35.2182C114.484 34.581 115.821 35.1158 116.858 33.9389C118.928 31.5896 110.644 28.8718 110.644 28.8718C110.644 28.8718 121.422 30.9795 119.183 34.2133Z" fill="#FBF8EF"/>
<path d="M98.4796 41.2478C95.4879 40.283 98.229 37.7032 96.5122 35.0701C95.2351 33.1114 91.9376 33.241 92.1989 30.9174C92.4937 28.2953 98.5464 28.6023 98.5464 28.6023C98.5464 28.6023 94.0353 29.1591 93.9562 31.2214C93.8867 33.0346 96.9289 32.9099 97.8925 34.4474C98.9752 36.1749 97.5724 39.2368 98.7686 39.455C101.393 39.9336 102.987 30.2654 102.987 30.2654C102.987 30.2654 102.025 42.391 98.4796 41.2478Z" fill="#FBF8EF"/>
<path d="M91.8093 18.0226C92.7988 16.3028 91.9945 14.2389 93.7585 13.3307C96.4239 11.9584 98.6966 19.208 98.6966 19.208C98.6966 19.208 96.1278 13.8484 94.0957 15.128C92.8747 15.8968 93.3941 17.2873 92.6775 18.5396C91.7473 20.165 89.8891 20.4009 89.6498 22.2582C89.2003 25.7466 98.3304 24.6589 98.3304 24.6589C98.3304 24.6589 87.5783 27.1394 87.7785 22.9711C87.8981 20.4815 90.5664 20.183 91.8093 18.0226Z" fill="#FBF8EF"/>
<path d="M107.452 9.88216C108.983 10.1414 110.065 9.29221 111.426 10.0402C114.46 11.7077 107.933 18.1886 107.933 18.1886C107.933 18.1886 112.613 12.1447 109.933 10.9814C108.955 10.5567 108.258 11.0389 107.205 10.8732C104.554 10.4564 103.538 6.92949 101.025 7.87009C97.6579 9.13067 102.106 17.0139 102.106 17.0139C102.106 17.0139 95.5678 7.83688 99.5819 6.05723C102.706 4.67218 104.083 9.31171 107.452 9.88216Z" fill="#FBF8EF"/>
<path d="M118.552 21.8816C119.068 23.6892 121.433 24.3458 120.361 25.8903C118.699 28.2857 111.469 24.4175 111.469 24.4175C111.469 24.4175 118.058 26.9295 118.87 24.9174C119.35 23.7289 117.912 23.2344 117.555 22.0033C116.836 19.5199 119.757 16.5535 117.661 15.041C115.204 13.269 110.985 19.6982 110.985 19.6982C110.985 19.6982 115.187 11.3492 118.395 13.3875C121.196 15.1666 117.642 18.6912 118.552 21.8816Z" fill="#FBF8EF"/>
<path d="M92.3782 86.9129C91.2854 88.1499 91.1539 89.516 91.1452 90.8419C91.1358 92.2796 91.2563 93.6229 90.6929 95.0327L90.6011 95.2447C90.122 96.287 89.3229 97.0007 88.5465 97.8614C87.7384 98.7572 87.002 99.7888 87.2076 101.367L87.2624 101.689C87.5944 103.245 88.7708 104.041 90.0347 104.412C90.0902 104.428 90.1465 104.442 90.2026 104.457C89.3004 104.72 88.3772 105.048 87.5429 105.453C86.5042 105.957 85.5493 106.605 84.9607 107.443C84.3509 108.312 84.1556 109.358 84.6042 110.546L84.7044 110.794C85.2256 111.999 86.0389 112.691 86.9288 113.262C87.901 113.887 88.8398 114.311 89.8058 115.129L89.9968 115.297C90.4341 115.7 90.8125 116.162 91.1742 116.646C91.5712 117.178 91.9854 117.791 92.3925 118.297C92.8116 118.819 93.2835 119.307 93.8711 119.64C94.3958 119.938 94.9928 120.1 95.6927 120.076L95.9992 120.055C97.2123 119.926 98.1509 119.062 98.8496 118.083C98.7462 118.879 98.678 119.705 98.6762 120.513C98.6737 121.692 98.8102 122.867 99.1992 123.865C99.5672 124.809 100.17 125.613 101.103 126.09L101.294 126.181C102.41 126.675 103.436 126.741 104.401 126.498C105.351 126.259 106.209 125.729 107.012 125.089C107.813 124.452 108.599 123.673 109.385 122.92C110.081 122.253 110.784 121.597 111.535 121.026L111.86 120.786C112.199 120.545 112.562 120.354 112.941 120.174C113.304 120.002 113.724 119.821 114.09 119.632C114.808 119.261 115.501 118.772 115.895 117.859L115.97 117.671C116.377 116.549 115.933 115.301 115.309 114.232C115.875 114.572 116.465 114.878 117.057 115.113C117.985 115.481 118.964 115.694 119.888 115.559C120.777 115.428 121.578 114.981 122.203 114.13L122.326 113.955C123.474 112.227 123.121 110.621 122.55 109.095C122.003 107.633 121.294 106.286 121.154 104.707L121.135 104.388C121.114 103.838 121.202 103.304 121.334 102.766C121.4 102.497 121.476 102.231 121.553 101.962C121.63 101.696 121.708 101.424 121.775 101.155C122.028 100.136 122.141 99.0469 121.367 97.9877L121.2 97.7759C120.69 97.1752 119.878 97.0152 119.067 97.039C118.24 97.0633 117.285 97.2816 116.328 97.5847C116.316 97.5886 116.304 97.5927 116.291 97.5966C116.768 97.2186 117.229 96.8263 117.652 96.4232C118.596 95.5234 119.401 94.5339 119.765 93.5245C119.949 93.0128 120.026 92.4811 119.936 91.9497C119.857 91.4813 119.653 91.0385 119.32 90.6304L119.17 90.4575C118.022 89.2215 116.736 88.8992 115.411 88.802C114.768 88.7548 114.077 88.7582 113.417 88.7393C112.742 88.7198 112.06 88.6767 111.357 88.5393L110.859 88.4265C110.37 88.3012 109.904 88.1407 109.447 87.9694C108.852 87.7465 108.235 87.4903 107.644 87.2979C106.423 86.9004 105.151 86.7175 103.67 87.4059L103.459 87.5105C101.443 88.5737 100.946 90.7593 100.931 92.6122C100.52 91.739 100.042 90.8024 99.5124 89.9124C98.6427 88.4502 97.5988 87.0478 96.4516 86.2925C95.8695 85.9093 95.227 85.6699 94.5482 85.7093C93.8618 85.7492 93.2107 86.0697 92.6104 86.6671L92.3782 86.9129Z" fill="#F8A300" stroke="#FBF8EF"/>
<path d="M100.426 105.557C100.241 103.98 98.679 101.549 98.679 101.549C98.679 101.549 101.567 101.644 103.016 100.994C104.465 100.344 106.1 98.2187 106.1 98.2187C106.1 98.2187 106.946 101.193 108.011 102.823C108.898 104.179 110.787 105.907 110.787 105.907C110.787 105.907 108.393 106.431 107.374 107.49C106.257 108.651 105.931 111.356 105.931 111.356C105.931 111.356 104.6 109.644 103.366 109.237C101.971 108.777 99.6254 109.628 99.6254 109.628C99.6254 109.628 100.611 107.135 100.426 105.557Z" fill="#FBF8EF"/>
<path d="M104.946 107.518C105.999 107.227 107.44 105.398 107.149 104.344C106.858 103.291 105.16 102.327 104.107 102.618C103.053 102.908 102.089 104.606 102.38 105.66C102.671 106.713 103.892 107.809 104.946 107.518Z" fill="#F8A300"/>
<path d="M116.249 91.9952C114.536 90.3781 112.556 91.8124 110.257 91.2999C108.135 90.8267 106.986 88.7751 104.963 89.5737C102.11 90.6997 104.352 97.4028 104.352 97.4028C104.352 97.4028 103.295 91.6789 105.776 90.8911C107.446 90.3609 108.328 91.9161 110.041 92.281C111.575 92.6078 112.773 91.8078 114.031 92.7447C116.543 94.6146 109 98.988 109 98.988C109 98.988 119.108 94.6956 116.249 91.9952Z" fill="#FBF8EF"/>
<path d="M94.5381 89.3974C91.8108 90.9604 95.0265 92.9171 93.8917 95.8485C93.0476 98.0291 89.7946 98.5847 90.5311 100.804C91.3622 103.308 97.2203 101.755 97.2203 101.755C97.2203 101.755 92.6916 102.144 92.1875 100.143C91.7443 98.3833 94.7464 97.8757 95.371 96.1721C96.0728 94.258 94.0667 91.5526 95.1919 91.0916C97.6601 90.0804 101.221 99.2093 101.221 99.2093C101.221 99.2093 97.77 87.5453 94.5381 89.3974Z" fill="#FBF8EF"/>
<path d="M92.8185 113.5C94.1424 114.978 93.7826 117.163 95.6964 117.687C98.588 118.478 99.3113 110.915 99.3113 110.915C99.3113 110.915 97.9073 116.69 95.6543 115.859C94.3007 115.359 94.5211 113.891 93.5608 112.814C92.3145 111.417 90.4476 111.57 89.8291 109.803C88.6675 106.483 97.825 105.658 97.825 105.658C97.825 105.658 86.7924 105.456 87.8509 109.493C88.4831 111.904 91.1553 111.644 92.8185 113.5Z" fill="#FBF8EF"/>
<path d="M109.807 118.227C111.252 117.656 112.485 118.263 113.662 117.25C116.286 114.99 108.558 110.001 108.558 110.001C108.558 110.001 114.388 114.945 112.007 116.638C111.138 117.256 110.356 116.928 109.36 117.308C106.853 118.265 106.589 121.925 103.936 121.525C100.38 120.989 103.101 112.356 103.101 112.356C103.101 112.356 98.6033 122.687 102.899 123.597C106.242 124.306 106.629 119.482 109.807 118.227Z" fill="#FBF8EF"/>
<path d="M118.184 104.19C118.315 102.315 120.492 101.183 119.124 99.8939C117.002 97.8943 110.729 103.175 110.729 103.175C110.729 103.175 116.656 99.3539 117.867 101.154C118.582 102.218 117.278 102.999 117.184 104.277C116.994 106.856 120.466 109.154 118.727 111.067C116.69 113.309 111.233 107.892 111.233 107.892C111.233 107.892 117.071 115.191 119.788 112.533C122.16 110.213 117.954 107.5 118.184 104.19Z" fill="#FBF8EF"/>
</g>
<defs>
<clipPath id="clip0_2741_1423">
<rect width="128" height="128" fill="white"/>
</clipPath>
</defs>
</svg>
