<svg width="128" height="128" viewBox="0 0 128 128" fill="none" xmlns="http://www.w3.org/2000/svg">
<g clip-path="url(#clip0_2793_407)">
<rect width="128" height="128" transform="matrix(-1 0 0 1 128 0)" fill="#FBF8EF"/>
<path d="M72.5003 74.4998C84.5658 77.3819 86.7372 71.9432 94.0001 81.9996L89.5003 83.4997C83.0001 76 83.8912 80.4621 73.0003 77.5001C61.8837 74.4767 54.2494 72.8549 43.5003 76.9996C40.6487 78.0991 38.2059 78.7907 35.5003 81.0001C32.8075 83.1991 30.0782 87.4024 28.5002 90.5003C26.6731 94.0873 27.5 98.0005 27.5 98.0005L25.5001 97.0008C25.5001 97.0008 26.4954 90.2646 28.5002 86.5005C30.2635 83.1899 31.5955 81.3734 34.5004 79.0003C37.5436 76.5142 40.2056 75.9117 43.5003 74.4998C54 70 61.485 71.8685 72.5003 74.4998Z" fill="#65D157"/>
<path d="M89.5003 83.4997L94.0001 81.9996C94.0001 81.9996 101.654 92.8407 103 95.5001C104.424 98.3147 105.5 100 106.5 103C104.743 103 102 103 102 103C102 103 99.9314 98.1146 98.5002 95.5001C97.452 93.5852 89.5003 83.4997 89.5003 83.4997Z" fill="#65D157"/>
<path d="M102 103C102 103 104.743 103 106.5 103C107.397 105.843 108.713 112.598 108.949 115.569C109.209 118.852 109 124 109 124L104 124C104 124 105.241 119.562 105 115.569C104.863 113.29 102 103 102 103Z" fill="#65D157"/>
<path d="M118.999 64.5C118.999 71.5 121.573 81.5724 120 93.0001C118.215 105.973 109 124 109 124L104 124C104 124 114.412 106.766 116.499 93.0001C118.016 83.0001 116.499 70.9911 116.499 64.5C116.499 61.0003 112.458 55.6704 111.499 50.501C110.715 46.2758 112.199 43.6908 111.249 39.5C110.196 34.8581 108.749 28.5 108.749 28.5L111.249 28.5C111.249 28.5 112.547 34.8785 113.499 39.5C114.365 43.7078 112.71 46.2778 113.499 50.501C114.478 55.7436 118.999 60.7903 118.999 64.5Z" fill="#65D157"/>
<path d="M107.325 74.2911C108.927 73.411 110.413 71.5911 111.738 72.7852C113.04 73.9587 110.871 75.5025 110.854 77.2844C110.84 78.6663 111.463 79.3985 111.326 80.7771C110.998 84.0699 107.951 84.7578 105.982 87.4551C103.644 90.6558 103.197 92.744 100.237 94.9165C96.9872 97.301 90.3347 95.3546 91.8114 99.0155C92.221 100.031 95 101.5 95 101.5C95 101.5 79.4663 99.9338 84.9105 88.4955C87.8322 82.3569 97.1589 82.7827 102.558 78.6432C104.557 77.1108 105.122 75.5007 107.325 74.2911Z" fill="#65D157"/>
<path d="M83.9615 52.0659C84.4126 50.5567 84.2042 48.5505 85.777 48.4642C87.3227 48.3794 86.9318 50.6358 88.0335 51.7234C88.888 52.5669 89.734 52.6296 90.5089 53.5467C92.3599 55.7372 90.8868 58.0113 91.3409 60.8429C91.8797 64.2032 94.3143 66.1114 94 69.5C93.6466 73.3107 86 72 91 78.5C96 85 80.0946 76.1363 78.2135 71.5367C75.9998 66.1237 82.9153 63.3987 83.7023 57.6037C83.9937 55.4584 83.3415 54.1402 83.9615 52.0659Z" fill="#65D157"/>
<path d="M55.6564 112.097C53.5961 111.367 50.8006 111.515 50.7911 109.329C50.7818 107.18 53.8821 107.88 55.4668 106.429C56.6958 105.304 56.8419 104.135 58.1674 103.126C61.3333 100.713 64.378 102.873 68.3391 102.483C73.175 102.007 77.1052 99.0942 81 102C83.3411 103.747 88.4991 102.306 91.5708 103.337C101 106.5 103.254 113.5 103 113.5C102.746 113.5 98 105.5 84.8823 116.606C80.5789 120.249 71.2918 114.341 63.3143 112.844C60.3611 112.29 58.4883 113.102 55.6564 112.097Z" fill="#65D157"/>
<path d="M13.7542 72.2515C12.1615 72.6466 9.99556 72.5392 9.9977 73.7727C9.9998 74.985 12.3982 74.6163 13.6319 75.4484C14.5887 76.0937 14.707 76.7542 15.738 77.3352C18.2007 78.7231 20.5529 77.5068 23.6196 77.7835C27.2588 78.1118 29.911 81.0943 32.8728 78.9883C36.3724 76.5 53 72 53 72C53 72 43.9637 72.9988 36.3724 69.9542C31.5002 68.0001 29.5 69.4999 25.5 71.0003C23.3435 71.8092 15.9434 71.7085 13.7542 72.2515Z" fill="#65D157"/>
<path d="M72.8298 41.9348C74.205 40.4309 76.7002 35.2159 78.4999 35.9997C80.2688 36.7701 77.9036 40.0487 78.4999 41.9348C78.9624 43.3976 78.9261 45.8371 79.2575 47.3408C80.0492 50.9327 77.0943 52.7528 75.9608 56.3059C74.6157 60.5223 75.3917 63.4915 73.081 67.2612C70.4826 71.5005 63.7253 77.969 65.2127 81.0457C66.7 84.1224 57.4997 72 59.1097 64.7316C60.7485 57.3325 65.1075 54.5449 69.3367 48.2385C70.9024 45.9039 70.9396 44.002 72.8298 41.9348Z" fill="#65D157"/>
<path d="M123.09 43.863C123.713 43.0603 124.093 41.8029 124.987 42.1213C125.865 42.4342 125.091 43.7011 125.434 44.6155C125.7 45.3247 126.154 45.5617 126.357 46.2965C126.843 48.0516 125.464 49.0743 125.017 50.8866C124.486 53.0373 125.321 54.7368 123.936 56.4501C119.484 61.9559 120 79 120 79C120 79 118.438 60.4769 117.678 55.1606C117.144 51.4314 119.712 50.442 121.579 47.1372C122.271 45.9137 122.234 44.9663 123.09 43.863Z" fill="#65D157"/>
<path d="M95.1803 47.5324C93.6806 46.9984 92.0671 45.6916 91.2536 46.804C90.4541 47.8973 92.5629 48.9051 92.9725 50.3441C93.2901 51.4601 92.9456 52.1212 93.3634 53.2208C94.3613 55.8471 96.9943 56.0655 99.1963 58.0282C101.809 60.3572 102.557 62.5685 105.596 64.2836L105.627 64.3011C109.059 66.2382 116.646 70.5203 116.987 73.0305C117.329 75.5484 117.5 62.4998 113.395 57.9878C109.396 53.592 105.34 53.2717 100.026 50.5231C98.0592 49.5056 97.2415 48.2663 95.1803 47.5324Z" fill="#65D157"/>
<path d="M42.8765 89.1778C41.3432 89.6821 39.2322 89.6571 39.2837 91.0174C39.3342 92.3544 41.6521 91.8443 42.8854 92.7089C43.8418 93.3795 43.9833 94.1029 45.0093 94.6993C47.4601 96.1239 49.6992 94.6811 52.693 94.8541C56.2457 95.0594 58.2355 96.3154 61.7411 95.7843C65.6833 95.187 76.3529 96.1983 78.4635 97.499C80.5741 98.7997 69.1066 88.7783 64.1408 87.513C58.2968 86.024 54.6009 87.4056 48.6283 88.5287C46.4172 88.9445 44.984 88.4846 42.8765 89.1778Z" fill="#65D157"/>
<path d="M3.4436 56.5669C2.04691 55.6244 4.41515 52.0205 6.15239 49.9281C10.4336 44.7717 16.7228 45.0077 23.7871 45.8232C29.9062 46.5295 30.7336 49.0608 36.0001 52.0007C40.4819 54.5025 47.2581 57.5258 51.0001 61.0007C53.8514 63.6483 57 72.5 57 72.5C57 72.5 50.1702 64.4126 46.4605 64.404C40.4077 64.3901 36.3968 67.775 30.4672 66.643C21.5511 64.941 20.3859 57.2467 10.1526 56.1562C7.50754 55.8743 4.92839 57.5688 3.4436 56.5669Z" fill="#65D157"/>
<path d="M99.9998 104C108.5 108.812 104 124 104 124C104 124 106.081 112.289 98.0002 107.5C91.3106 103.535 75.9642 97.5342 70.5004 92.001C67.5835 89.0471 65.9134 87.379 63.5004 84.001C58.8565 77.4999 57.4998 73.4989 54.5003 66.9999C50.0968 57.4591 40.9357 54.4765 34 45.0001C29.3914 38.7032 23.5 27.9999 23.5 27.9999L25.5003 26.5C25.5003 26.5 31.1699 37.3715 36 43.5001C42.1559 51.3108 54.5003 61 54.5003 61C54.5003 61 53.5083 51.1692 54.5003 45C55.618 38.049 61.501 28.0001 61.501 28.0001L63.5006 29.5002C63.5006 29.5002 58.0151 38.6579 57.0001 45.0001C55.8258 52.3375 56.8321 59.3963 57.9999 64.0014C59.9162 71.5581 62.0006 75.9984 66.0003 82.4999C68.026 85.7927 69.6335 86.9073 72.4999 89.5014C78.0884 94.559 93.4404 100.288 99.9998 104Z" fill="#65D157"/>
<path d="M114.5 66.5C114.5 66.5 111.696 62.0334 109.352 59.6419C107.397 57.647 106.093 56.6716 103.773 55.0773C101.449 53.4801 99.8748 53.0211 97.5 51.5C95.9521 50.5086 93.6237 48.8299 93.6237 48.8299C93.6237 48.8299 95.7411 50.7644 97.1888 51.8929C99.4247 53.6357 101.011 54.4935 103.227 55.9224C105.527 57.4052 106.632 58.5113 108.649 60.3599C111.091 62.5977 114.5 66.5 114.5 66.5Z" fill="#FBF8EF"/>
<path d="M69.9519 91.9339C69.9519 91.9339 65.0087 90.0972 61.6931 89.627C58.9275 89.2348 57.2994 89.2547 54.4882 89.4024C51.6719 89.5503 50.1437 90.1444 47.3337 90.3835C45.5021 90.5393 42.633 90.6252 42.633 90.6252C42.633 90.6252 45.4905 90.8707 47.326 90.8846C50.1609 90.906 51.9418 90.6206 54.5695 90.4052C57.2965 90.1816 58.8467 90.3863 61.5724 90.6248C64.8719 90.9134 69.9519 91.9339 69.9519 91.9339Z" fill="#FBF8EF"/>
<path d="M40.5 73.5508C40.5 73.5508 34.0085 73.8371 30.6929 74.3073C27.9273 74.6995 26.2992 74.6796 23.488 74.5319C20.6717 74.384 19.1435 73.7899 16.3335 73.5508C14.5019 73.395 11.6328 73.3092 11.6328 73.3092C11.6328 73.3092 14.4903 73.0636 16.3258 73.0497C19.1607 73.0283 20.9416 73.3137 23.5693 73.5291C26.2963 73.7527 27.8465 73.548 30.5722 73.3095C33.8717 73.0209 40.5 73.5508 40.5 73.5508Z" fill="#FBF8EF"/>
<path d="M108.5 75.5C108.5 75.5 103.906 80.3814 101.023 82.0866C98.6194 83.5089 97.1022 85.6278 95 87.5C92.894 89.3756 91.737 89.1612 89.6928 91.104C88.3604 92.3703 88.5 95.5 88.5 95.5C88.5 95.5 88.5585 92.6363 90 91.5C92.2264 89.745 93.7736 90.0425 95.6902 88.232C97.6793 86.3532 99.2759 84.4583 101.553 82.941C104.309 81.1042 108.5 75.5 108.5 75.5Z" fill="#FBF8EF"/>
<path d="M85.9656 51C85.9656 51 85.1446 56.7325 85.1446 59.6608C85.1446 62 86.1825 64.2607 85.9656 66.7092C85.7483 69.1622 84.7692 69.6894 84.6427 72.1509C84.5603 73.7554 86.8223 75.7373 86.8223 75.7373C86.8223 75.7373 84.8863 73.8162 85.1369 72.2344C85.524 69.7914 86.8407 69.0935 86.967 66.7928C87.098 64.4053 86.1149 62.5 86.1149 59.918C86.1149 57.0262 85.9656 51 85.9656 51Z" fill="#FBF8EF"/>
<path d="M63.3578 72.7903C63.3578 72.7903 63.1914 67.5265 64.2891 64.3445C65.1941 61.7208 67.5679 59.1711 68.8175 56.6929C70.7112 52.9372 72.8897 49.8493 74.05 47.2789C74.9234 45.3442 75.5827 42.0638 75.5827 42.0638C75.5827 42.0638 75.2302 45.4622 74.4999 47.4998C73.5434 50.1686 71.0842 54.9282 69.6981 57.171C68.2596 59.4985 66.239 62.1953 65.2127 64.7316C63.9703 67.8019 63.3578 72.7903 63.3578 72.7903Z" fill="#FBF8EF"/>
<path d="M46.9999 60.9668C46.9999 60.9668 44.7071 59.6857 40.7981 58.9859C37.6812 58.4279 32.0243 58.936 28.9995 57.9997C23.9932 56.4499 19.9426 53.5881 16.7157 52.5963C14.2868 51.8498 9.5 52.5968 9.5 52.5968C9.5 52.5968 14.3587 51.5285 16.8767 52.1217C20.1745 52.8986 24.3161 54.7164 29.1102 56.2977C32.2209 57.3237 37.8405 57.1412 40.9995 57.999C44.8236 59.0375 46.9999 60.9668 46.9999 60.9668Z" fill="#FBF8EF"/>
<path d="M97.8915 107.863C97.8915 107.863 95.5574 107.115 91.8511 107.175C88.8959 107.223 83.8123 108.675 80.8718 108.367C76.0048 107.856 72.6132 106.503 69.4663 106.653C62.9937 106.962 55.9546 108.842 55.9546 108.842C55.9546 108.842 63.1837 105.799 69.4642 105.814C72.627 105.822 75.9812 106.241 80.6597 106.818C83.6955 107.192 88.8048 106.038 91.8538 106.253C95.5447 106.512 97.8915 107.863 97.8915 107.863Z" fill="#FBF8EF"/>
<path d="M119.876 62.8342C119.876 62.8342 119.491 59.4854 119.757 57.3282C120.032 55.094 120.745 53.3699 121.299 51.7419C121.853 50.114 122.275 49.4169 123.082 47.856C123.608 46.8386 124 44.4997 124 44.4997C124 44.4997 123.827 46.8091 123.5 48C123.02 49.746 122.623 50.4578 122.126 52.0536C121.46 54.1911 120.603 57.5805 120.603 57.5805L119.876 62.8342Z" fill="#FBF8EF"/>
<path d="M119.902 38.9658C120.705 37.5239 120.542 36.1613 120.267 34.8642C119.969 33.4576 119.564 32.1711 119.813 30.6735L119.858 30.4467C120.103 29.3262 120.731 28.4582 121.306 27.4515C121.904 26.4036 122.403 25.2385 121.864 23.7405L121.74 23.4278C121.081 21.9208 119.878 21.2778 118.675 21.0771C118.668 21.0761 118.662 21.076 118.656 21.075C119.402 20.7007 120.171 20.2557 120.85 19.7443C121.714 19.0943 122.484 18.3005 122.853 17.3633C123.235 16.3913 123.163 15.3208 122.446 14.2171L122.295 13.9969C121.529 12.9312 120.586 12.429 119.595 12.0608C118.512 11.6585 117.504 11.4448 116.385 10.8516L116.166 10.7284C115.66 10.4278 115.198 10.0424 114.747 9.62061C114.49 9.37961 114.242 9.13186 113.99 8.88242C113.741 8.63534 113.488 8.38597 113.232 8.15405C112.722 7.6934 112.166 7.26827 111.525 7.03149C110.949 6.81859 110.325 6.76603 109.638 6.9385L109.34 7.02656C108.401 7.34373 107.698 8.14212 107.177 9.01628C107.183 8.23536 107.132 7.43686 106.99 6.67993C106.793 5.63331 106.414 4.623 105.727 3.85204C105.071 3.116 104.165 2.63173 102.969 2.5182L102.725 2.49998C100.29 2.37462 98.7252 3.51266 97.4236 5.03844C96.7823 5.79031 96.1892 6.65398 95.5876 7.50866C95.0559 8.26415 94.512 9.02144 93.8988 9.7352L93.6315 10.0383C93.111 10.6131 92.5033 10.7846 91.7919 11.0715C91.4517 11.2087 91.0811 11.3796 90.76 11.659C90.4697 11.9117 90.2371 12.2371 90.0814 12.6692L90.0197 12.862C89.5247 14.5813 90.0122 15.9881 90.7746 17.0368C90.7822 17.0473 90.7906 17.0575 90.7982 17.0679C90.2034 16.8756 89.5804 16.7126 88.9728 16.6206C88.0734 16.4845 87.1364 16.4893 86.3652 16.8434C85.6039 17.193 85.0699 17.8525 84.8736 18.8539L84.8386 19.0591C84.5545 21.0333 85.1984 22.4651 85.9771 23.8032C86.7142 25.07 87.5316 26.2067 87.9892 27.7294L88.0758 28.04C88.2135 28.5731 88.2412 29.1135 88.2271 29.6668C88.22 29.944 88.2031 30.2197 88.185 30.4993C88.1672 30.7753 88.1485 31.0581 88.1407 31.335C88.111 32.3842 88.2335 33.4727 89.2163 34.342L89.4246 34.5132C90.0337 34.9773 90.7643 35.1135 91.4882 35.073C92.1005 35.0388 92.7319 34.8773 93.3339 34.6575C93.0423 34.9952 92.7628 35.3477 92.5151 35.711C91.9285 36.5711 91.4703 37.5428 91.4513 38.5182C91.4329 39.4727 91.8371 40.3607 92.7768 41.0856L92.9718 41.2287C94.3572 42.1908 95.6824 42.2308 96.9979 42.0426C97.6357 41.9514 98.3105 41.8003 98.9591 41.6778C99.6226 41.5526 100.298 41.4488 101.014 41.4329L101.525 41.4367C102.029 41.4545 102.519 41.5119 103.002 41.5815C103.631 41.6721 104.288 41.7906 104.907 41.8522C106.185 41.9795 107.466 41.8864 108.766 40.8974L108.951 40.7488C110.646 39.311 110.604 37.1147 110.158 35.3065C110.739 36.027 111.388 36.782 112.07 37.4886C113.289 38.7506 114.664 39.9129 115.985 40.4185C116.654 40.6744 117.348 40.7774 118.013 40.6005C118.689 40.4209 119.267 39.9714 119.728 39.2556L119.902 38.9658Z" fill="#63BCE5" stroke="#FBF8EF"/>
<path d="M108.056 22.4714C108.573 23.973 110.619 26.0137 110.619 26.0137C110.619 26.0137 107.777 26.5381 106.501 27.4831C105.224 28.428 104.082 30.8531 104.082 30.8531C104.082 30.8531 102.619 28.1279 101.23 26.7634C100.074 25.6281 97.8599 24.3444 97.8599 24.3444C97.8599 24.3444 100.087 23.3207 100.855 22.0688C101.698 20.6951 101.439 17.983 101.439 17.983C101.439 17.983 103.105 19.3709 104.397 19.5051C105.858 19.6568 107.968 18.3238 107.968 18.3238C107.968 18.3238 107.538 20.9699 108.056 22.4714Z" fill="#FBF8EF"/>
<path d="M103.222 21.5216C102.255 22.0307 101.238 24.1261 101.747 25.0932C102.257 26.0603 104.121 26.6389 105.089 26.1298C106.056 25.6207 106.634 23.7558 106.125 22.7887C105.616 21.8216 104.189 21.0126 103.222 21.5216Z" fill="#63BCE5"/>
<path d="M95.4974 39.1021C97.5159 40.3158 99.1433 38.4916 101.499 38.5009C103.673 38.5096 105.234 40.2682 107.04 39.0558C109.586 37.3462 105.964 31.277 105.964 31.277C105.964 31.277 108.219 36.6428 105.964 37.9426C104.446 38.8173 103.252 37.4866 101.501 37.4963C99.9318 37.5049 98.9329 38.5423 97.5035 37.896C94.6502 36.606 101.084 30.7217 101.084 30.7217C101.084 30.7217 92.1265 37.0752 95.4974 39.1021Z" fill="#FBF8EF"/>
<path d="M117.261 37C119.592 34.8903 116.032 33.666 116.514 30.5598C116.873 28.2492 119.932 27.0112 118.738 25.0007C117.391 22.7318 112 25.5008 112 25.5008C112 25.5008 116.341 24.1531 117.261 26.0005C118.07 27.6247 115.246 28.7621 115 30.5598C114.723 32.5797 117.261 34.7939 116.261 35.4847C114.066 37 108.636 28.843 108.636 28.843C108.636 28.843 114.5 39.5 117.261 37Z" fill="#FBF8EF"/>
<path d="M113.79 13.0871C112.181 11.9263 112.066 9.71433 110.084 9.61188C107.09 9.45708 108 17 108 17C108 17 108.137 11.0581 110.516 11.3888C111.945 11.5875 112.043 13.0686 113.212 13.9154C114.728 15.0145 116.519 14.4653 117.501 16.0599C119.345 19.0548 110.575 21.8179 110.575 21.8179C110.575 21.8179 121.396 19.6574 119.5 15.9402C118.367 13.72 115.812 14.5452 113.79 13.0871Z" fill="#FBF8EF"/>
<path d="M96.184 12.0998C94.8949 12.9658 93.56 12.6364 92.627 13.8779C90.5469 16.6456 99.1622 19.8688 99.1622 19.8688C99.1622 19.8688 92.4105 16.2843 94.3745 14.122C95.0916 13.3326 95.9251 13.4855 96.8173 12.9013C99.0619 11.4314 98.5376 7.79868 101.215 7.62273C104.803 7.38694 103.99 16.402 103.99 16.402C103.99 16.402 106.176 5.34811 101.785 5.37664C98.3679 5.39885 99.0207 10.1942 96.184 12.0998Z" fill="#FBF8EF"/>
<path d="M91 27.6021C91.2732 29.4621 89.3881 31.0328 91 32C93.5 33.5 98.5 27.0007 98.5 27.0007C98.5 27.0007 93.527 32 91.959 30.5C91.0328 29.614 92.1403 28.5719 91.959 27.3031C91.5932 24.7436 87.7106 23.241 89 21C90.5107 18.3744 97.0001 22.4999 97.0001 22.4999C97.0001 22.4999 89.7365 16.6176 87.6502 19.795C85.8292 22.5683 90.518 24.3196 91 27.6021Z" fill="#FBF8EF"/>
<path d="M62.7744 43.6072C64.3006 43.2392 65.1474 42.2461 65.8735 41.2228C66.6614 40.1123 67.2921 39.0143 68.4862 38.2318L68.6715 38.1162C69.6014 37.5723 70.6007 37.4548 71.6711 37.2084C72.7842 36.9521 73.9222 36.5487 74.6238 35.2045L74.7662 34.9064C75.3894 33.4564 74.982 32.1549 74.2855 31.1481C74.9953 31.4207 75.7545 31.6649 76.504 31.8232C77.5572 32.0456 78.6551 32.1122 79.5871 31.7962C80.5587 31.4667 81.2991 30.7369 81.6134 29.5041L81.6704 29.2557C81.9208 28.0336 81.6644 27.052 81.2841 26.1249C80.868 25.1106 80.3733 24.2795 80.0694 23.125L80.0137 22.8919C79.8948 22.3458 79.8535 21.7818 79.8389 21.2057C79.8229 20.5754 79.8393 19.864 79.8012 19.2457C79.762 18.6088 79.6638 17.9646 79.3828 17.3851C79.1308 16.8654 78.743 16.4199 78.1705 16.0736L77.9136 15.9317C77.3296 15.6358 76.7174 15.5668 76.1247 15.6273C76.6975 15.0003 77.2343 14.2905 77.6222 13.525C78.019 12.7417 78.2714 11.8793 78.2284 10.9765C78.1878 10.123 77.8851 9.26706 77.2475 8.44186L77.1162 8.27753C75.6356 6.49615 73.8331 6.13735 71.9349 6.21079C71.0003 6.24695 70.0189 6.38846 69.0406 6.518C68.1756 6.63254 67.3025 6.73967 66.4158 6.77089L66.0346 6.77917C65.2666 6.78626 64.6211 6.49475 63.8122 6.25059C63.0874 6.03187 62.2649 5.87819 61.4042 6.34292L61.232 6.44377C60.6706 6.80015 60.3075 7.35881 60.0741 7.9692C59.872 8.49774 59.7603 9.09154 59.7002 9.68903C59.5281 9.29666 59.3372 8.9104 59.1224 8.54719C58.6289 7.71275 57.9913 6.94991 57.1708 6.50774C56.3795 6.08138 55.4597 5.97683 54.4301 6.32542L54.2224 6.40041C52.3856 7.1212 51.7848 8.56703 51.3999 10.0598C51.0306 11.4924 50.8508 12.9124 50.1064 14.2054L49.9501 14.4628C49.6699 14.897 49.3138 15.2603 48.9213 15.604C48.7247 15.7762 48.5229 15.9407 48.3172 16.1072C48.1141 16.2716 47.9055 16.4403 47.7076 16.6126C46.9578 17.2658 46.2727 18.0548 46.2985 19.3061L46.3131 19.5629C46.3754 20.225 46.7413 20.7479 47.2222 21.148C47.6695 21.5202 48.2408 21.8079 48.8434 22.0337C48.2985 22.1079 47.7583 22.2097 47.2481 22.3501C46.2946 22.6124 45.3902 23.0188 44.7563 23.6617C44.1413 24.2856 43.8096 25.1045 43.8977 26.1221L43.9207 26.3284C44.1409 27.9167 44.9681 28.8694 45.9444 29.665C46.4168 30.0499 46.9557 30.422 47.4549 30.7932C47.9664 31.1734 48.4699 31.576 48.9379 32.0614L49.2605 32.4167C49.5707 32.7777 49.8435 33.153 50.1044 33.5329C50.4434 34.0264 50.7835 34.5604 51.1372 35.0301C51.8696 36.0022 52.7607 36.8389 54.29 37.1101L54.5102 37.1436C56.612 37.4093 58.1641 36.0598 59.1811 34.6749C59.0339 35.5418 58.9043 36.4851 58.8357 37.4203C58.7186 39.0174 58.7688 40.667 59.2519 41.8744C59.4973 42.4877 59.8693 43.0237 60.4231 43.363C60.9832 43.7061 61.668 43.8109 62.461 43.6727L62.7744 43.6072Z" fill="#63BCE5" stroke="#FBF8EF"/>
<path d="M66.6375 24.7883C65.9261 26.1096 65.819 28.8375 65.819 28.8375C65.819 28.8375 63.6347 27.1996 62.1608 26.9182C60.6869 26.6368 58.2707 27.3964 58.2707 27.3964C58.2707 27.3964 59.2266 24.635 59.2848 22.7964C59.3331 21.2666 58.8065 18.9064 58.8065 18.9064C58.8065 18.9064 60.9437 19.7974 62.3054 19.5293C63.7995 19.2351 65.517 17.3178 65.517 17.3178C65.517 17.3178 65.6203 19.3641 66.3549 20.3477C67.1852 21.4595 69.4622 22.071 69.4622 22.071C69.4622 22.071 67.3489 23.4671 66.6375 24.7883Z" fill="#FBF8EF"/>
<path d="M64.2013 20.8213C63.2283 20.4757 61.1219 21.1118 60.7763 22.0848C60.4307 23.0578 61.2232 24.7236 62.1962 25.0693C63.1692 25.4149 64.8351 24.6223 65.1807 23.6494C65.5264 22.6764 65.1743 21.1669 64.2013 20.8213Z" fill="#63BCE5"/>
<path d="M47.0434 26.7164C47.4932 28.8957 49.8026 28.8576 51.3046 30.4996C52.6916 32.0157 52.4699 34.2262 54.4684 34.7038C57.2865 35.3772 59.1819 28.974 59.1819 28.974C59.1819 28.974 56.8997 33.9774 54.5524 33.2434C52.9728 32.7495 53.1324 31.0679 52.0037 29.8574C50.9929 28.7734 49.6326 28.744 49.166 27.3373C48.2345 24.5293 56.4424 25.2293 56.4424 25.2293C56.4424 25.2293 46.2922 23.0769 47.0434 26.7164Z" fill="#FBF8EF"/>
<path d="M62.4425 40.4875C65.4003 40.7548 63.9708 37.4984 66.437 35.8438C68.2716 34.613 71.0907 35.9448 71.7226 33.828C72.4357 31.4392 67.0597 29.4683 67.0597 29.4683C67.0597 29.4683 70.776 31.6203 70.0823 33.4426C69.4723 35.0447 66.8734 33.8116 65.4672 34.7921C63.8871 35.8937 63.9747 39.0746 62.854 38.822C60.3956 38.2679 62.5838 29.2724 62.5838 29.2724C62.5838 29.2724 58.9374 40.1708 62.4425 40.4875Z" fill="#FBF8EF"/>
<path d="M76.8288 22.7604C76.6043 20.8993 78.0667 19.4023 76.8687 17.9604C75.0587 15.7819 70.4024 21.2448 70.4024 21.2448C70.4024 21.2448 74.6174 17.5346 75.9111 19.3985C76.6884 20.5183 75.7227 21.5353 75.8828 22.889C76.0905 24.6461 77.6189 25.5382 77.1403 27.2415C76.2414 30.4407 68.7055 26.1193 68.7055 26.1193C68.7055 26.1193 77.1367 32.2513 78.5037 28.5532C79.3202 26.3444 77.1107 25.0984 76.8288 22.7604Z" fill="#FBF8EF"/>
<path d="M66.2382 9.89943C64.811 9.55871 64.1848 8.42058 62.725 8.56768C59.4703 8.89564 62.7495 16.9439 62.7495 16.9439C62.7495 16.9439 60.9149 9.9586 63.6746 9.93784C64.6822 9.93026 65.1098 10.6072 66.0871 10.8526C68.5456 11.4702 70.7329 8.77939 72.5699 10.5262C75.0317 12.8673 68.2497 18.0767 68.2497 18.0767C68.2497 18.0767 77.3272 12.5151 74.4952 9.48372C72.2911 7.12447 69.3785 10.6492 66.2382 9.89943Z" fill="#FBF8EF"/>
<path d="M52.1505 16.227C51.0336 17.608 48.7353 17.3047 49.0959 19.0438C49.6553 21.7409 57.3718 21.051 57.3718 21.051C57.3718 21.051 50.7144 20.7989 50.752 18.7491C50.7742 17.5384 52.2073 17.6402 52.9724 16.7016C54.5158 14.8082 53.0728 11.1491 55.4551 10.6094C58.2463 9.97705 59.5372 17.1266 59.5372 17.1266C59.5372 17.1266 58.9707 8.31402 55.4276 8.90003C52.335 9.41151 54.1217 13.7899 52.1505 16.227Z" fill="#FBF8EF"/>
<path d="M31.12 44.1253C32.4451 43.1413 32.8564 41.8319 33.1393 40.5365C33.4461 39.1318 33.6061 37.7927 34.4491 36.53L34.5828 36.3416C35.2672 35.421 36.1967 34.8881 37.1344 34.2068C38.1104 33.4975 39.0443 32.6407 39.1698 31.0538L39.1813 30.7404C39.1776 30.0236 38.9587 29.4099 38.5878 28.8966C38.1712 28.3201 37.5805 27.893 36.9437 27.575C36.8728 27.5396 36.8001 27.5074 36.7275 27.4743C37.707 27.3856 38.7148 27.2363 39.6437 26.9934C40.782 26.6957 41.8574 26.2441 42.6111 25.5447C43.3907 24.8211 43.8062 23.8474 43.6163 22.6122L43.5695 22.3496C43.3089 21.0628 42.6564 20.2175 41.9041 19.4741C41.0822 18.662 40.2515 18.0527 39.4757 17.052L39.3305 16.8537C39.0066 16.3823 38.7807 15.8565 38.5923 15.3053C38.4846 14.9902 38.3908 14.6732 38.2968 14.3534C38.2039 14.0376 38.1097 13.7162 38.0039 13.4112C37.7944 12.8069 37.5192 12.2015 37.0434 11.7476C36.6116 11.3357 36.0529 11.0837 35.3289 11.0174L35.0086 11.0003C33.5292 10.9761 32.4293 11.2729 31.6175 11.6829C31.9497 10.8211 32.2673 9.82402 32.4386 8.83226C32.6084 7.84806 32.6429 6.82153 32.3657 5.92325C32.0989 5.05886 31.5467 4.32794 30.6105 3.88767L30.4176 3.80368C28.187 2.89863 26.319 3.27995 24.5277 4.08774C23.6447 4.48592 22.7661 4.99436 21.8774 5.49899C21.093 5.94444 20.2926 6.3919 19.4392 6.78717L19.0695 6.95351C18.7101 7.11023 18.3123 7.19454 17.8793 7.25111C17.6632 7.27935 17.4441 7.29971 17.2187 7.32047C16.9964 7.34096 16.7652 7.36262 16.5395 7.3904C15.7014 7.49359 14.7811 7.70829 14.1835 8.56719L14.0685 8.74814C13.748 9.29723 13.6923 9.9723 13.7434 10.61C13.7751 11.005 13.8527 11.4098 13.9499 11.8024C13.7787 11.6423 13.5992 11.4844 13.4105 11.3345C12.6479 10.729 11.709 10.2109 10.6622 10.1294C9.65775 10.0514 8.62008 10.3805 7.61643 11.2836L7.41646 11.4716C5.93609 12.9244 5.94864 14.5689 6.19166 16.1795C6.42459 17.7232 6.83913 19.1876 6.64907 20.7612L6.60234 21.0779C6.50867 21.6205 6.3117 22.1245 6.07129 22.623C5.95084 22.8727 5.82204 23.1171 5.69063 23.3645C5.56086 23.6088 5.42754 23.8588 5.3065 24.1081C4.84801 25.0522 4.512 26.0948 5.05043 27.2914L5.16987 27.5331C5.53903 28.2156 6.25904 28.5596 7.02603 28.7247C7.79542 28.8902 8.71116 28.8992 9.63914 28.8276C9.11702 29.0888 8.60619 29.3675 8.13025 29.6668C7.08063 30.3269 6.14098 31.1098 5.61682 32.0138C5.3508 32.4727 5.18604 32.973 5.17861 33.507C5.17211 33.9762 5.28717 34.4472 5.5295 34.9136L5.64159 35.1132C6.50871 36.5599 7.70027 37.1414 8.97679 37.5108C9.59567 37.6899 10.2729 37.8296 10.9145 37.9848C11.5708 38.1434 12.2295 38.3268 12.8886 38.6067L13.3521 38.82C13.805 39.0439 14.2273 39.2973 14.6391 39.5595C15.175 39.9006 15.7257 40.279 16.2642 40.5895C17.3767 41.2311 18.5828 41.6732 20.1747 41.3063L20.4015 41.2482C22.5321 40.6461 23.4401 38.756 23.8153 37.0323C24.0462 37.936 24.3289 38.909 24.669 39.8478C25.2417 41.4284 25.9992 42.9846 26.9854 43.9362C27.4859 44.419 28.072 44.772 28.7464 44.8649C29.4279 44.9586 30.1315 44.7777 30.842 44.3177L31.12 44.1253Z" fill="#63BCE5" stroke="#FBF8EF"/>
<path d="M27.1045 24.219C26.9589 25.8005 27.9845 28.502 27.9845 28.502C27.9845 28.502 25.1784 27.8114 23.6262 28.1478C22.074 28.4842 20.0353 30.2248 20.0353 30.2248C20.0353 30.2248 19.8226 27.1392 19.1177 25.3243C18.5312 23.8141 17.0406 21.7334 17.0406 21.7334C17.0406 21.7334 19.4913 21.716 20.7066 20.8908C22.0401 19.9855 22.9188 17.4066 22.9188 17.4066C22.9188 17.4066 23.867 19.3569 24.9899 20.0108C26.2592 20.7498 28.7303 20.4023 28.7303 20.4023C28.7303 20.4023 27.2501 22.6374 27.1045 24.219Z" fill="#FBF8EF"/>
<path d="M23.0887 21.3647C21.9978 21.431 20.2097 22.923 20.276 24.0139C20.3424 25.1048 21.8043 26.3991 22.8952 26.3328C23.9861 26.2664 25.2804 24.8045 25.2141 23.7136C25.1477 22.6227 24.1796 21.2983 23.0887 21.3647Z" fill="#63BCE5"/>
<path d="M8.81785 34.2133C10.1587 36.1498 12.3923 35.1561 14.5354 36.1333C16.5143 37.0355 17.214 39.2805 19.3584 38.9179C22.3823 38.4065 21.5762 31.3846 21.5762 31.3846C21.5762 31.3846 21.4257 37.2033 18.8353 37.4606C17.0921 37.6338 16.5511 35.9298 14.9503 35.2182C13.5168 34.581 12.1797 35.1158 11.1425 33.9389C9.07216 31.5896 17.3568 28.8718 17.3568 28.8718C17.3568 28.8718 6.57872 30.9795 8.81785 34.2133Z" fill="#FBF8EF"/>
<path d="M29.5209 41.2478C32.5126 40.283 29.7714 37.7032 31.4883 35.0701C32.7654 33.1114 36.0629 33.241 35.8016 30.9174C35.5067 28.2953 29.4541 28.6023 29.4541 28.6023C29.4541 28.6023 33.9652 29.1591 34.0443 31.2214C34.1138 33.0346 31.0716 32.9099 30.108 34.4474C29.0252 36.1749 30.4281 39.2368 29.2319 39.455C26.6078 39.9336 25.0132 30.2654 25.0132 30.2654C25.0132 30.2654 25.9757 42.391 29.5209 41.2478Z" fill="#FBF8EF"/>
<path d="M36.1912 18.0226C35.2017 16.3028 36.006 14.2389 34.2419 13.3307C31.5766 11.9584 29.3039 19.208 29.3039 19.208C29.3039 19.208 31.8727 13.8484 33.9048 15.128C35.1258 15.8968 34.6064 17.2873 35.323 18.5396C36.2531 20.165 38.1114 20.4009 38.3507 22.2582C38.8002 25.7466 29.6701 24.6589 29.6701 24.6589C29.6701 24.6589 40.4222 27.1394 40.2219 22.9711C40.1024 20.4815 37.4341 20.183 36.1912 18.0226Z" fill="#FBF8EF"/>
<path d="M20.5482 9.88216C19.017 10.1414 17.9357 9.29221 16.5747 10.0402C13.5404 11.7077 20.068 18.1886 20.068 18.1886C20.068 18.1886 15.3877 12.1447 18.0671 10.9814C19.0454 10.5567 19.7424 11.0389 20.7959 10.8732C23.4463 10.4564 24.4623 6.92949 26.9751 7.87009C30.3426 9.13067 25.8945 17.0139 25.8945 17.0139C25.8945 17.0139 32.4327 7.83688 28.4186 6.05723C25.2945 4.67218 23.9176 9.31171 20.5482 9.88216Z" fill="#FBF8EF"/>
<path d="M9.44799 21.8816C8.93209 23.6892 6.56781 24.3458 7.63943 25.8903C9.3014 28.2857 16.5318 24.4175 16.5318 24.4175C16.5318 24.4175 9.94285 26.9295 9.13041 24.9174C8.65053 23.7289 10.0886 23.2344 10.4451 22.0033C11.1642 19.5199 8.24301 16.5535 10.3399 15.041C12.7967 13.269 17.0154 19.6982 17.0154 19.6982C17.0154 19.6982 12.8135 11.3492 9.60509 13.3875C6.80475 15.1666 10.3585 18.6912 9.44799 21.8816Z" fill="#FBF8EF"/>
<path d="M35.6218 86.9129C36.7146 88.1499 36.8461 89.516 36.8548 90.8419C36.8642 92.2796 36.7437 93.6229 37.3071 95.0327L37.3989 95.2447C37.878 96.287 38.6771 97.0007 39.4535 97.8614C40.2616 98.7572 40.998 99.7888 40.7924 101.367L40.7376 101.689C40.4056 103.245 39.2292 104.041 37.9653 104.412C37.9098 104.428 37.8535 104.442 37.7974 104.457C38.6996 104.72 39.6228 105.048 40.4571 105.453C41.4958 105.957 42.4507 106.605 43.0393 107.443C43.6491 108.312 43.8444 109.358 43.3958 110.546L43.2956 110.794C42.7744 111.999 41.9611 112.691 41.0712 113.262C40.099 113.887 39.1602 114.311 38.1942 115.129L38.0032 115.297C37.5659 115.7 37.1875 116.162 36.8258 116.646C36.4288 117.178 36.0146 117.791 35.6075 118.297C35.1884 118.819 34.7165 119.307 34.1289 119.64C33.6042 119.938 33.0072 120.1 32.3073 120.076L32.0008 120.055C30.7877 119.926 29.8491 119.062 29.1504 118.083C29.2538 118.879 29.322 119.705 29.3238 120.513C29.3263 121.692 29.1898 122.867 28.8008 123.865C28.4328 124.809 27.8298 125.613 26.897 126.09L26.7056 126.181C25.5904 126.675 24.5645 126.741 23.5994 126.498C22.6489 126.259 21.7914 125.729 20.9879 125.089C20.1868 124.452 19.4011 123.673 18.6152 122.92C17.9194 122.253 17.2156 121.597 16.465 121.026L16.1399 120.786C15.8009 120.545 15.438 120.354 15.0589 120.174C14.6964 120.002 14.2756 119.821 13.9098 119.632C13.1916 119.261 12.4986 118.772 12.1049 117.859L12.03 117.671C11.6226 116.549 12.0668 115.301 12.6913 114.232C12.1249 114.572 11.5355 114.878 10.9432 115.113C10.0148 115.481 9.03629 115.694 8.1115 115.559C7.22256 115.428 6.42164 114.981 5.79668 114.13L5.67408 113.955C4.5264 112.227 4.87897 110.621 5.45004 109.095C5.99737 107.633 6.70597 106.286 6.84566 104.707L6.86548 104.388C6.88612 103.838 6.79771 103.304 6.66567 102.766C6.59951 102.497 6.52406 102.231 6.44669 101.962C6.3703 101.696 6.29159 101.424 6.22475 101.155C5.97156 100.136 5.85858 99.0469 6.63297 97.9877L6.79984 97.7759C7.31019 97.1752 8.12227 97.0152 8.93287 97.039C9.75997 97.0633 10.7148 97.2816 11.6716 97.5847C11.6838 97.5886 11.6964 97.5927 11.7086 97.5966C11.2318 97.2186 10.7709 96.8263 10.348 96.4232C9.40431 95.5234 8.5991 94.5339 8.23511 93.5245C8.05062 93.0128 7.97436 92.4811 8.06377 91.9497C8.14267 91.4813 8.34682 91.0385 8.67954 90.6304L8.82996 90.4575C9.9777 89.2215 11.2638 88.8992 12.5891 88.802C13.2317 88.7548 13.9232 88.7582 14.5829 88.7393C15.2579 88.7198 15.9403 88.6767 16.643 88.5393L17.1406 88.4265C17.6301 88.3012 18.0956 88.1407 18.5528 87.9694C19.1477 87.7465 19.7648 87.4903 20.3559 87.2979C21.577 86.9004 22.8485 86.7175 24.3301 87.4059L24.5405 87.5105C26.5571 88.5737 27.0543 90.7593 27.0693 92.6122C27.4796 91.739 27.9582 90.8024 28.4876 89.9124C29.3573 88.4502 30.4012 87.0478 31.5484 86.2925C32.1305 85.9093 32.773 85.6699 33.4518 85.7093C34.1382 85.7492 34.7893 86.0697 35.3896 86.6671L35.6218 86.9129Z" fill="#63BCE5" stroke="#FBF8EF"/>
<path d="M27.5738 105.558C27.7586 103.981 29.321 101.55 29.321 101.55C29.321 101.55 26.4328 101.645 24.9838 100.995C23.5349 100.344 21.9004 98.2196 21.9004 98.2196C21.9004 98.2196 21.0538 101.194 19.9886 102.824C19.1023 104.18 17.2134 105.908 17.2134 105.908C17.2134 105.908 19.6075 106.432 20.6257 107.491C21.743 108.652 22.069 111.357 22.069 111.357C22.069 111.357 23.4002 109.645 24.6342 109.238C26.0288 108.778 28.3746 109.629 28.3746 109.629C28.3746 109.629 27.389 107.136 27.5738 105.558Z" fill="#FBF8EF"/>
<path d="M23.0545 107.519C22.0009 107.228 20.5603 105.399 20.8509 104.345C21.1416 103.292 22.8398 102.328 23.8933 102.619C24.9469 102.909 25.9106 104.607 25.62 105.661C25.3293 106.714 24.108 107.81 23.0545 107.519Z" fill="#63BCE5"/>
<path d="M11.7514 91.9952C13.464 90.3781 15.4436 91.8124 17.7425 91.2999C19.8653 90.8267 21.0144 88.7751 23.0374 89.5737C25.89 90.6997 23.6482 97.4028 23.6482 97.4028C23.6482 97.4028 24.7051 91.6789 22.2241 90.8911C20.5544 90.3609 19.6725 91.9161 17.9591 92.281C16.4248 92.6078 15.2273 91.8078 13.969 92.7447C11.4573 94.6146 19.0002 98.988 19.0002 98.988C19.0002 98.988 8.89157 94.6956 11.7514 91.9952Z" fill="#FBF8EF"/>
<path d="M33.4623 89.3974C36.1896 90.9604 32.974 92.9171 34.1088 95.8485C34.9529 98.0291 38.2059 98.5847 37.4694 100.804C36.6383 103.308 30.7801 101.755 30.7801 101.755C30.7801 101.755 35.3088 102.144 35.813 100.143C36.2562 98.3833 33.2541 97.8757 32.6295 96.1721C31.9277 94.258 33.9338 91.5526 32.8086 91.0916C30.3404 90.0804 26.7796 99.2093 26.7796 99.2093C26.7796 99.2093 30.2305 87.5453 33.4623 89.3974Z" fill="#FBF8EF"/>
<path d="M35.1815 113.5C33.8576 114.978 34.2174 117.163 32.3036 117.687C29.412 118.478 28.6887 110.915 28.6887 110.915C28.6887 110.915 30.0927 116.69 32.3457 115.859C33.6993 115.359 33.4789 113.891 34.4392 112.814C35.6855 111.417 37.5524 111.57 38.1709 109.803C39.3325 106.483 30.175 105.658 30.175 105.658C30.175 105.658 41.2076 105.456 40.1491 109.493C39.5169 111.904 36.8447 111.644 35.1815 113.5Z" fill="#FBF8EF"/>
<path d="M18.1928 118.227C16.7483 117.656 15.5147 118.263 14.3379 117.25C11.7144 114.99 19.4418 110.001 19.4418 110.001C19.4418 110.001 13.6122 114.945 15.9929 116.638C16.8621 117.256 17.6437 116.928 18.6401 117.308C21.147 118.265 21.4111 121.925 24.0641 121.525C27.6196 120.989 24.8992 112.356 24.8992 112.356C24.8992 112.356 29.3967 122.687 25.1012 123.597C21.7582 124.306 21.3711 119.482 18.1928 118.227Z" fill="#FBF8EF"/>
<path d="M9.81568 104.19C9.68503 102.315 7.50779 101.183 8.87584 99.8939C10.9975 97.8943 17.2709 103.175 17.2709 103.175C17.2709 103.175 11.3444 99.3539 10.1332 101.154C9.41777 102.218 10.7224 102.999 10.8164 104.277C11.0061 106.856 7.53421 109.154 9.27275 111.067C11.3097 113.309 16.7675 107.892 16.7675 107.892C16.7675 107.892 10.9288 115.191 8.21164 112.533C5.84008 110.213 10.0463 107.5 9.81568 104.19Z" fill="#FBF8EF"/>
</g>
<defs>
<clipPath id="clip0_2793_407">
<rect width="128" height="128" fill="white" transform="matrix(-1 0 0 1 128 0)"/>
</clipPath>
</defs>
</svg>
