<svg width="128" height="128" viewBox="0 0 128 128" fill="none" xmlns="http://www.w3.org/2000/svg">
<g clip-path="url(#clip0_2814_24)">
<path d="M128 0H0V128H128V0Z" fill="#FBF8EF"/>
<path d="M6 64C6 31.9675 31.9675 6 64 6C96.0325 6 122 31.9675 122 64C122 96.0325 96.0325 122 64 122C31.9675 122 6 96.0325 6 64Z" fill="#FBF8EF" stroke="#65D157" stroke-width="4"/>
<path d="M14 64C14 36.3858 36.3858 14 64 14C91.6142 14 114 36.3858 114 64C114 91.6142 91.6142 114 64 114C36.3858 114 14 91.6142 14 64Z" fill="#FBF8EF" stroke="#65D157" stroke-width="4"/>
<path d="M124 96V124H96L124 96Z" fill="#65D157"/>
<path d="M96 4H124V32L96 4Z" fill="#65D157"/>
<path d="M32 4H4V32L32 4Z" fill="#65D157"/>
<path d="M32 124H4V96L32 124Z" fill="#65D157"/>
<path d="M64 22C72.8365 22 80 29.1635 80 38C80 42.2803 78.4094 48.7084 75.7646 54.1992L75.5049 54.7275C74.1926 57.3536 72.6374 59.7371 70.9004 61.5283L70.5508 61.8779C68.6723 63.7027 66.5919 64.8271 64.3828 64.8271C62.3119 64.8271 60.3118 63.8389 58.4629 62.2119L58.0947 61.8779C56.2666 60.1673 54.5952 57.8412 53.1611 55.249L52.8779 54.7275C49.8869 49.1253 48 42.4182 48 38C48 29.1635 55.1635 22 64 22Z" fill="#FBF8EF" stroke="#65D157"/>
<path d="M64 30C70.627 30 76 35.6867 76 42.7021C76 45.9905 74.8827 50.8761 73.0127 55.1387L72.6289 55.9814C71.6448 58.0661 70.4784 59.9588 69.1758 61.3809L68.9131 61.6592C67.5042 63.1078 65.9436 64 64.2871 64C62.7338 64 61.2334 63.2158 59.8467 61.9238L59.5713 61.6582C58.2917 60.3908 57.1146 58.6977 56.0889 56.8047L55.6582 55.9814C53.415 51.534 52 46.2097 52 42.7021C52 35.6867 57.373 30 64 30Z" fill="#65D157" stroke="#65D157"/>
<path d="M36.6172 48.1729C41.0354 48.1729 47.8809 49.964 53.6221 52.8594L54.1572 53.1338C56.8144 54.5231 59.2043 56.1507 60.9639 57.9453L61.3076 58.3057C62.9816 60.1223 64 62.1019 64 64.1729C64 66.2439 62.9815 68.2234 61.3076 70.04L60.9639 70.4014C59.2044 72.1958 56.8142 73.8227 54.1572 75.2119L53.6221 75.4863C47.8809 78.3817 41.0354 80.1729 36.6172 80.1729C27.7806 80.1729 20.6172 73.0094 20.6172 64.1729C20.6172 55.3363 27.7806 48.1729 36.6172 48.1729Z" fill="#FBF8EF" stroke="#65D157"/>
<path d="M42.54 52C46.0027 52.0001 51.3681 53.3431 55.8672 55.5146L56.6992 55.9316C58.6158 56.9261 60.3341 58.0729 61.6211 59.3291L61.8896 59.5996C63.2016 60.9623 64 62.4468 64 64C64 65.5532 63.2016 67.0377 61.8896 68.4004L61.6211 68.6709C60.3341 69.9271 58.6158 71.0739 56.6992 72.0684L55.8672 72.4854C51.3681 74.6569 46.0027 75.9999 42.54 76C35.6144 76 30 70.6272 30 64C30 57.3728 35.6144 52 42.54 52Z" fill="#65D157" stroke="#65D157"/>
<path d="M90.6172 48.1729C99.4537 48.1729 106.617 55.3363 106.617 64.1729C106.617 73.0094 99.4537 80.1729 90.6172 80.1729C86.3371 80.1728 79.9586 78.4922 74.5186 75.7549L73.9951 75.4863C71.2203 74.0387 68.721 72.3154 66.916 70.4014V70.4004C65.1112 68.4861 64 66.3818 64 64.1729C64 61.9639 65.1111 59.8594 66.916 57.9453L67.2627 57.5879C69.0347 55.8159 71.3938 54.2165 73.9951 52.8594L74.5186 52.5908C79.9586 49.8535 86.3371 48.1729 90.6172 48.1729Z" fill="#FBF8EF" stroke="#65D157"/>
<path d="M85.2354 52C92.2855 52.0001 98 57.373 98 64C98 70.627 92.2855 75.9999 85.2354 76C81.9308 76 77.0579 74.8197 72.8135 72.8828L71.9736 72.4854C69.8983 71.4674 68.0163 70.2676 66.6025 68.9385L66.3262 68.6709C64.8861 67.2351 64 65.6566 64 64C64 62.3434 64.8861 60.7649 66.3262 59.3291L66.6025 59.0615C68.0163 57.7324 69.8983 56.5326 71.9736 55.5146L72.8135 55.1172C77.0579 53.1803 81.9308 52 85.2354 52Z" fill="#65D157" stroke="#65D157"/>
<path d="M64 64C66.209 64 68.2895 65.1459 70.168 67.0029L70.5176 67.3594C72.2545 69.1821 73.8097 71.6058 75.1221 74.2725L75.3818 74.8086C78.0268 80.3831 79.6172 86.8926 79.6172 91.1729C79.6172 100.009 72.4537 107.173 63.6172 107.173C54.7807 107.173 47.6172 100.009 47.6172 91.1729C47.6172 86.7544 49.5039 79.9611 52.4951 74.2725L52.7783 73.7432C54.2124 71.1104 55.8837 68.7441 57.7119 67.0029L58.0801 66.6631C59.9289 65.0071 61.929 64 64 64Z" fill="#FBF8EF" stroke="#65D157"/>
<path d="M64.2871 64C65.9437 64 67.5043 64.9024 68.9131 66.3652L69.1758 66.6455C70.4785 68.081 71.6447 69.99 72.6289 72.0898L73.0127 72.9395C74.8827 77.2314 76 82.1374 76 85.3994C76 92.3588 70.6272 98 64 98C57.3728 98 52 92.3588 52 85.3994C52 81.9199 53.4147 76.5697 55.6582 72.0898L56.0889 71.2607C57.1146 69.3532 58.2917 67.6449 59.5713 66.3652C61.034 64.9025 62.6303 64 64.2871 64Z" fill="#65D157" stroke="#65D157"/>
<path d="M57.2739 61.8203L57.7808 61.835C60.2927 61.9445 62.4689 62.6053 63.9995 64L64.2954 64.2871C65.7228 65.7622 66.3826 67.8293 66.48 70.21L66.4917 70.6904C66.5132 72.9503 66.0574 75.467 65.2905 78.0137L65.1216 78.5596C63.3272 84.2051 60.0682 89.9187 57.1606 93.2393L56.8804 93.5527C51.0214 99.9818 41.1232 100.538 34.5854 94.876L34.2769 94.6016C27.7458 88.6496 27.2768 78.5291 33.229 71.998L33.5161 71.6914C36.583 68.5161 42.4561 65.1853 48.397 63.3184L48.9722 63.1416C51.8475 62.2846 54.7185 61.7834 57.2739 61.8203Z" fill="#FBF8EF" stroke="#65D157"/>
<path d="M33.8564 33.9688C39.842 27.726 49.7485 27.3634 56.1777 33.2227L56.4844 33.5098C59.6571 36.5767 62.9453 42.4513 64.7695 48.3936L64.9414 48.9688C65.7219 51.6532 66.1931 54.3332 66.21 56.7568L66.207 57.2725C66.1544 59.8286 65.5677 62.0691 64.2686 63.6846L63.999 64C62.6042 65.5302 60.6086 66.2795 58.2861 66.4521L57.8174 66.4785C55.4522 66.5751 52.7781 66.1094 50.0703 65.2871L49.5283 65.1182C43.9254 63.3222 38.2544 60.062 34.9365 57.1543L34.623 56.874C28.092 50.9218 27.623 40.8016 33.5752 34.2705L33.8564 33.9688Z" fill="#FBF8EF" stroke="#65D157"/>
<path d="M71.5044 33.5234C77.4898 27.2807 87.3964 26.9177 93.8257 32.7764L94.1274 33.0586C100.271 38.9491 100.721 48.6374 95.1489 55.0713L94.8745 55.3799C91.9915 58.5434 86.1895 62.0608 80.231 64.1709L79.6548 64.3711C76.768 65.3474 73.865 65.9804 71.2593 66.0713L70.7427 66.082C68.1781 66.0997 65.931 65.562 64.3149 64.2686L64.0005 63.999C62.4699 62.6042 61.7265 60.5647 61.562 58.1748L61.5366 57.6924C61.4426 55.0948 61.9911 52.1214 62.9302 49.1299L63.1108 48.5684C65.0228 42.7705 68.34 36.9887 71.2231 33.8252L71.5044 33.5234Z" fill="#FBF8EF" stroke="#65D157"/>
<path d="M70.7988 61.5557C73.2766 61.5578 76.0654 62.115 78.8701 63.0156L79.4316 63.2002C85.2294 65.1539 91.0114 68.5114 94.1748 71.3945L94.4766 71.6768C100.62 77.5672 101.069 87.2557 95.4971 93.6895L95.2227 93.998C89.3634 100.427 79.4662 100.982 72.9287 95.3203L72.6201 95.0469C69.4564 92.1638 65.9382 86.3214 63.8281 80.3213L63.6289 79.7402C62.6525 76.8333 62.0196 73.9105 61.9287 71.2891L61.917 70.7695C61.8982 68.0178 62.5123 65.6327 64 64L64.2881 63.7041C65.7677 62.2789 67.8721 61.6355 70.3076 61.5625L70.7988 61.5557Z" fill="#FBF8EF" stroke="#65D157"/>
<path d="M64 48C72.8365 48 80 55.1635 80 64C80 72.8365 72.8365 80 64 80C55.1635 80 48 72.8365 48 64C48 55.1635 55.1635 48 64 48Z" fill="#65D157" stroke="#65D157"/>
</g>
<defs>
<clipPath id="clip0_2814_24">
<rect width="128" height="128" fill="white"/>
</clipPath>
</defs>
</svg>
