<svg width="128" height="128" viewBox="0 0 128 128" fill="none" xmlns="http://www.w3.org/2000/svg">
<g clip-path="url(#clip0_2741_1131)">
<rect width="128" height="128" fill="#FBF8EF"/>
<path d="M81.1963 16.6725C81.1963 16.6725 82.0161 16.9291 82.3145 17.3412C82.8503 18.081 81.9451 19.6507 81.9451 19.6507C81.9451 19.6507 80.224 21.6815 79.8786 23.2731C79.6822 24.178 79.999 28.5 79.999 28.5C79.999 28.5 78.4993 25.4993 75.7856 25.8853C74.7107 26.0383 73.031 26.261 73.031 26.261C73.031 26.261 71.3462 26.5577 70.7205 25.8918C70.2925 25.4363 70.2129 24.3739 70.2129 24.3739C70.2129 24.3739 67.3091 24.782 66.458 23.5448C65.5759 22.2626 67.1825 19.6259 67.1825 19.6259C67.1825 19.6259 64.8527 18.7682 64.424 17.4699C64.0033 16.1954 65.2989 14.1463 65.2989 14.1463C65.2989 14.1463 64.177 12.8745 64.3724 11.9727C64.5248 11.2695 65.5324 10.5412 65.5324 10.5412C65.5324 10.5412 64.2339 8.45471 64.9474 7.45848C65.824 6.23446 68.7615 8.01947 68.7615 8.01947C68.7615 8.01947 69.8605 6.13112 71.0083 6.12469C72.6083 6.11572 72.8751 9.77174 72.8751 9.77174C72.8751 9.77174 75.1223 8.05753 76.5082 8.60503C78.0856 9.22815 78.1521 12.6248 78.1521 12.6248C78.1521 12.6248 80.5713 12.1023 81.4299 13.0673C82.3676 14.1214 81.1963 16.6725 81.1963 16.6725Z" fill="#65D157"/>
<path d="M78.5 25.5C78.5 25.5 76.97 22.3363 76.7446 20.4568C76.5731 19.0256 76.7398 18.41 77.2267 17.0532C77.7116 15.7018 78.8952 13.7772 78.8952 13.7772C78.8952 13.7772 77.479 15.2869 76.8251 16.4249C76.2517 17.4229 75.6855 19.1429 75.6855 19.1429C75.6855 19.1429 74.261 17.5074 74.0369 16.2142C73.8211 14.9691 74.2564 14.2996 74.5406 13.0179C74.8137 11.7865 75.3016 9.87915 75.3016 9.87915C75.3016 9.87915 74.3604 11.158 73.9389 12.0751C73.4326 13.1765 73.078 15.0574 73.078 15.0574C73.078 15.0574 71.2212 13.2218 70.7146 11.7008C70.518 11.1106 70.3855 10.493 70.3831 10.1428C70.3775 9.31291 70.6943 7.51202 70.6943 7.51202C70.6943 7.51202 69.8778 8.38496 69.6811 9.04289C69.3285 10.2221 69.6982 10.8014 69.6982 10.8014C69.6982 10.8014 68.6199 9.84607 67.8663 9.31697C67.067 8.75583 65.7201 8.0333 65.7201 8.0333C65.7201 8.0333 66.9927 9.09261 67.752 9.83178C68.2841 10.3497 69.0697 11.2026 69.0697 11.2026C69.0697 11.2026 67.7016 11.1652 66.9967 11.4202C66.4492 11.6183 65.8971 12.122 65.8971 12.122C65.8971 12.122 66.9095 12.0196 67.655 12.1051C68.4005 12.1907 68.9807 12.1864 69.715 12.5601C71.0789 13.2543 71.978 15.7595 71.978 15.7595C71.978 15.7595 70.1132 15.3168 68.9319 15.4918C68.0414 15.6237 66.7462 16.2241 66.7462 16.2241C66.7462 16.2241 68.4525 16.2832 69.5336 16.4346C70.8591 16.6203 71.6742 16.9155 72.7666 17.6887C73.9566 18.5311 74.7294 20.4168 74.7294 20.4168C74.7294 20.4168 72.3267 20.1976 70.8974 20.6504C69.7158 21.0248 68.1264 22.1985 68.1264 22.1985C68.1264 22.1985 70.1015 21.6329 71.3989 21.4361C72.8811 21.2112 73.305 21.2164 74.7019 21.7605C76.6693 22.5268 78.5 25.5 78.5 25.5Z" fill="#FBF8EF"/>
<path d="M44.408 14.7597C44.408 14.7597 43.6016 15.0558 43.3234 15.4819C42.8241 16.2467 43.8044 17.7707 43.8044 17.7707C43.8044 17.7707 45.6219 19.7157 46.0441 21.2887C46.2841 22.183 46.1771 26.5153 46.1771 26.5153C46.1771 26.5153 47.5296 23.4454 50.2588 23.6995C51.3398 23.8001 53.0284 23.9412 53.0284 23.9412C53.0284 23.9412 54.7256 24.1558 55.3183 23.4604C55.7237 22.9847 55.7518 21.9198 55.7518 21.9198C55.7518 21.9198 58.6719 22.1866 59.462 20.9096C60.281 19.5861 58.5484 17.0304 58.5484 17.0304C58.5484 17.0304 60.8339 16.0608 61.1992 14.7432C61.5577 13.4499 60.1643 11.466 60.1643 11.466C60.1643 11.466 61.2232 10.1413 60.9843 9.25006C60.798 8.55504 59.7563 7.87641 59.7563 7.87641C59.7563 7.87641 60.9521 5.72945 60.1912 4.76897C59.2563 3.58888 56.4087 5.51416 56.4087 5.51416C56.4087 5.51416 55.2195 3.6813 54.0727 3.73051C52.4742 3.7991 52.3849 7.46376 52.3849 7.46376C52.3849 7.46376 50.0573 5.86048 48.6995 6.47451C47.1542 7.17335 47.2524 10.5692 47.2524 10.5692C47.2524 10.5692 44.8107 10.1646 43.9999 11.1701C43.1144 12.2684 44.408 14.7597 44.408 14.7597Z" fill="#65D157"/>
<path d="M47.5293 23.4463C47.5293 23.4463 48.9042 20.2121 49.0381 18.3239C49.1402 16.8861 48.9438 16.2793 48.3917 14.9477C47.8419 13.6214 46.5664 11.7565 46.5664 11.7565C46.5664 11.7565 48.0541 13.1957 48.7624 14.3007C49.3835 15.2697 50.0324 16.9602 50.0324 16.9602C50.0324 16.9602 51.3759 15.2576 51.5371 13.9551C51.6923 12.701 51.225 12.0534 50.879 10.7869C50.5466 9.57025 49.9668 7.68877 49.9668 7.68877C49.9668 7.68877 50.9689 8.92053 51.4344 9.81607C51.9934 10.8917 52.4387 12.7532 52.4387 12.7532C52.4387 12.7532 54.2044 10.8297 54.6367 9.28591C54.8045 8.68693 54.9069 8.06365 54.8923 7.71374C54.8577 6.88454 54.454 5.10113 54.454 5.10113C54.454 5.10113 55.3118 5.93346 55.5402 6.58108C55.9495 7.74186 55.6083 8.33839 55.6083 8.33839C55.6083 8.33839 56.6391 7.33189 57.3662 6.76688C58.1373 6.16766 59.4476 5.3807 59.4476 5.3807C59.4476 5.3807 58.2278 6.50044 57.5052 7.27554C56.9989 7.81867 56.2555 8.7086 56.2555 8.7086C56.2555 8.7086 57.6202 8.60494 58.3366 8.8255C58.8931 8.99682 59.469 9.47317 59.469 9.47317C59.469 9.47317 58.4528 9.41993 57.7123 9.54152C56.9719 9.6631 56.3921 9.687 55.6768 10.0958C54.3481 10.8553 53.5715 13.4011 53.5715 13.4011C53.5715 13.4011 55.4127 12.8686 56.6011 12.9861C57.4969 13.0747 58.8197 13.6116 58.8197 13.6116C58.8197 13.6116 57.1183 13.7533 56.0457 13.957C54.7309 14.2066 53.931 14.541 52.8774 15.3663C51.7296 16.2654 51.0491 18.1863 51.0491 18.1863C51.0491 18.1863 53.4384 17.8509 54.8879 18.2339C56.0863 18.5506 57.7307 19.6459 57.7307 19.6459C57.7307 19.6459 55.7305 19.1767 54.4251 19.043C52.9338 18.8902 52.5106 18.916 51.1417 19.5271C49.2137 20.3879 47.5293 23.4463 47.5293 23.4463Z" fill="#FBF8EF"/>
<path d="M109.831 41.9423C109.831 41.9423 109.564 41.1259 109.148 40.8328C108.401 40.3066 106.843 41.2322 106.843 41.2322C106.843 41.2322 104.835 42.9794 103.248 43.3454C102.346 43.5535 97.501 42.001 97.501 42.001C97.501 42.001 101.501 45.001 100.689 47.4719C100.35 48.5033 100.349 50.2312 100.349 50.2312C100.349 50.2312 100.074 51.9196 100.748 52.5367C101.209 52.9588 102.272 53.0246 102.272 53.0246C102.272 53.0246 101.902 55.9334 103.15 56.7684C104.444 57.6338 107.059 55.9931 107.059 55.9931C107.059 55.9931 107.947 58.3117 109.251 58.7235C110.531 59.1277 112.563 57.8056 112.563 57.8056C112.563 57.8056 113.849 58.9109 114.748 58.7038C115.449 58.5423 116.165 57.5254 116.165 57.5254C116.165 57.5254 118.268 58.7967 119.255 58.0704C120.467 57.178 118.644 54.2639 118.644 54.2639C118.644 54.2639 120.518 53.1404 120.51 51.9927C120.498 50.3927 116.839 50.1733 116.839 50.1733C116.839 50.1733 118.524 47.9041 117.958 46.5254C117.315 44.9562 113.918 44.9337 113.918 44.9337C113.918 44.9337 114.409 42.508 113.433 41.662C112.366 40.738 109.831 41.9423 109.831 41.9423Z" fill="#65D157"/>
<path d="M101.509 44.5098C101.509 44.5098 104.268 46.1805 106.242 46.3176C108.878 46.5006 112.643 44.1236 112.643 44.1236C112.643 44.1236 111.213 45.5163 110.128 46.1673C109.176 46.7381 107.528 47.315 107.528 47.315C107.528 47.315 109.157 48.5318 110.381 48.8517C112.735 49.4665 116.466 47.5179 116.466 47.5179C116.466 47.5179 115.25 48.4485 114.374 48.8714C113.321 49.3794 111.514 49.7552 111.514 49.7552C111.514 49.7552 114.278 52.5644 116.5 52.5C117.438 52.4728 118.831 51.9173 118.831 51.9173C118.831 51.9173 118.005 52.7203 117.374 52.9218C116.243 53.283 115.678 52.937 115.678 52.937C115.678 52.937 116.619 53.9594 117.142 54.6765C117.698 55.437 118.419 56.7225 118.419 56.7225C118.419 56.7225 117.374 55.5146 116.648 54.7959C116.139 54.2922 115.13 53.322 115.13 53.322C115.13 53.322 115.363 54.5564 115.13 55.2406C114.949 55.7721 114.473 56.6256 114.473 56.6256C114.473 56.6256 114.871 54.5129 114.374 53.322C113.652 51.5952 110.5 50.5 110.5 50.5C110.5 50.5 111 52.2648 111 53.5C111 54.3681 110.503 55.8811 110.503 55.8811C110.503 55.8811 110.523 51.8559 108.982 50.103C108.147 49.1522 106.317 48.2599 106.317 48.2599C106.317 48.2599 106.411 50.1032 106 51.4893C105.66 52.6354 104.718 54.6581 104.718 54.6581C104.718 54.6581 105.97 50.6041 105.022 48.3106C104.25 46.4427 101.509 44.5098 101.509 44.5098Z" fill="#FBF8EF"/>
<path d="M17.0324 41.3876C17.0324 41.3876 17.2598 40.5592 17.661 40.2463C18.3813 39.6846 19.9822 40.5335 19.9822 40.5335C19.9822 40.5335 22.0728 42.1814 23.6757 42.4701C24.587 42.6342 29.3506 40.8486 29.3506 40.8486C29.3506 40.8486 25.5007 44.039 26.4317 46.4676C26.8203 47.4814 26.9049 49.2072 26.9049 49.2072C26.9049 49.2072 27.2612 50.8804 26.618 51.5294C26.178 51.9733 25.1191 52.0906 25.1191 52.0906C25.1191 52.0906 25.6301 54.978 24.4239 55.8725C23.1738 56.7996 20.4817 55.2876 20.4817 55.2876C20.4817 55.2876 19.7073 57.6465 18.425 58.121C17.1663 58.5867 15.0725 57.3647 15.0725 57.3647C15.0725 57.3647 13.8414 58.531 12.9332 58.3678C12.225 58.2405 11.4613 57.2594 11.4613 57.2594C11.4613 57.2594 9.42231 58.6312 8.40137 57.9535C7.14699 57.121 8.82654 54.1219 8.82654 54.1219C8.82654 54.1219 6.90035 53.0906 6.85315 51.9438C6.78736 50.3451 10.4316 49.9486 10.4316 49.9486C10.4316 49.9486 8.63865 47.7638 9.13658 46.3592C9.70329 44.7607 13.0954 44.5736 13.0954 44.5736C13.0954 44.5736 12.4873 42.1745 13.4212 41.2822C14.4413 40.3076 17.0324 41.3876 17.0324 41.3876Z" fill="#65D157"/>
<path d="M25.4688 43.5498C25.4688 43.5498 22.7938 45.3523 20.8289 45.5849C18.2047 45.8955 14.3289 43.7038 14.3289 43.7038C14.3289 43.7038 15.8247 45.0255 16.9404 45.6231C17.9187 46.1471 19.5928 46.6435 19.5928 46.6435C19.5928 46.6435 18.0249 47.9377 16.8173 48.3166C14.4961 49.0449 10.6748 47.2794 10.6748 47.2794C10.6748 47.2794 11.9345 48.1499 12.8305 48.5299C13.9067 48.9862 15.7298 49.274 15.7298 49.274C15.7298 49.274 13.1048 52.2139 10.8824 52.2572C9.9441 52.2755 8.52544 51.7882 8.52544 51.7882C8.52544 51.7882 9.39028 52.5502 10.0301 52.7209C11.1769 53.0269 11.7246 52.6539 11.7246 52.6539C11.7246 52.6539 10.8347 53.7207 10.3464 54.4623C9.82843 55.2488 9.17066 56.5677 9.17066 56.5677C9.17066 56.5677 10.1552 55.3107 10.8458 54.5576C11.3298 54.0299 12.2905 53.0119 12.2905 53.0119C12.2905 53.0119 12.1174 54.2562 12.3834 54.9283C12.5901 55.4503 13.1066 56.2798 13.1066 56.2798C13.1066 56.2798 12.6067 54.1888 13.0462 52.9752C13.6836 51.2155 16.7784 49.9688 16.7784 49.9688C16.7784 49.9688 16.3646 51.7558 16.4244 52.9895C16.4665 53.8566 17.0361 55.3437 17.0361 55.3437C17.0361 55.3437 16.8217 51.3241 18.275 49.4987C19.0633 48.5086 20.8482 47.5285 20.8482 47.5285C20.8482 47.5285 20.8436 49.3742 21.3211 50.7388C21.7159 51.8671 22.7551 53.8418 22.7551 53.8418C22.7551 53.8418 21.3084 49.8532 22.1442 47.5164C22.8248 45.6133 25.4688 43.5498 25.4688 43.5498Z" fill="#FBF8EF"/>
<path d="M89.2978 16.4008C89.2978 16.4008 87.7422 16.4673 87.027 17.0496C85.7431 18.0947 86.5951 21.2667 86.5951 21.2667C86.5951 21.2667 88.6604 25.6274 88.5217 28.5762C88.4429 30.2526 87.8408 33.8198 87.8408 33.8198C87.8408 33.8198 92.2803 34.5944 94.4693 35.0632C96.3936 35.4753 99.118 37.008 99.118 37.008C99.118 37.008 101.93 38.3147 103.337 37.4409C104.299 36.8431 104.935 35.0199 104.935 35.0199C104.935 35.0199 109.83 37.0911 111.898 35.3221C114.042 33.4886 112.46 28.1204 112.46 28.1204C112.46 28.1204 116.941 27.7068 118.299 25.6332C119.631 23.5978 118.319 19.404 118.319 19.404C118.319 19.404 120.878 17.7008 120.957 16.0302C121.019 14.7274 119.595 12.9811 119.595 12.9811C119.595 12.9811 122.843 9.93375 122.059 7.85572C121.096 5.30254 115.118 7.05622 115.118 7.05622C115.118 7.05622 114.075 3.23569 112.068 2.68819C109.27 1.92498 107.095 8.20312 107.095 8.20312C107.095 8.20312 103.96 4.15115 101.277 4.46247C98.2235 4.8168 96.5201 10.7343 96.5201 10.7343C96.5201 10.7343 92.5275 8.68901 90.5731 9.97794C88.4383 11.3858 89.2978 16.4008 89.2978 16.4008Z" fill="#65D157"/>
<path d="M90.0078 32.1533C90.0078 32.1533 94.1911 28.1284 95.3907 25.2171C96.3042 23.0001 96.3016 21.9401 96.0994 19.5513C95.8981 17.1719 94.8004 13.5653 94.8004 13.5653C94.8004 13.5653 96.4636 16.61 97.037 18.7223C97.5397 20.5746 97.7121 23.5804 97.7121 23.5804C97.7121 23.5804 100.776 21.5901 101.715 19.6174C102.619 17.7182 102.902 17.1791 103 15C103.094 12.9066 102.43 8.90927 102.43 8.90927C102.43 8.90927 103.414 11.3742 103.702 13.0297C104.049 15.0181 103.802 18.1881 103.802 18.1881C103.802 18.1881 107.996 15.7781 109.5 13.5653C110.084 12.7068 110.342 11.56 110.5 11C110.875 9.67294 111.051 7.1541 111.051 7.1541C111.051 7.1541 111.759 9.88826 111.5 11C111 13.1473 111.238 12.8642 111.238 12.8642C111.238 12.8642 113.611 10.8453 115.408 10.0546C116.925 9.38732 119.504 8.94695 119.504 8.94695C119.504 8.94695 116.861 9.93964 115.369 10.9298C113.955 11.8677 112.095 13.7848 112.095 13.7848C112.095 13.7848 114.361 14.3298 115.408 15.05C116.221 15.6094 116.907 16.6604 116.907 16.6604C116.907 16.6604 115.264 15.6925 114 15.5C112.736 15.3075 112.372 15.226 111 15.5C108.451 16.009 104.5 20.5 104.5 20.5C104.5 20.5 108.135 20.1974 110 21C111.406 21.605 113.701 22.8567 113.701 22.8567C113.701 22.8567 110.869 22.197 109.024 21.9616C106.762 21.673 105.292 21.7855 103.154 22.5413C100.825 23.3647 98.7226 26.044 98.7226 26.044C98.7226 26.044 102.771 26.7552 104.921 28.1125C106.7 29.2347 108.796 31.8177 108.796 31.8177C108.796 31.8177 105.797 30.0383 103.75 29.1494C101.412 28.1339 100.712 27.9548 98.175 28.2088C94.6015 28.5666 90.0078 32.1533 90.0078 32.1533Z" fill="#FBF8EF"/>
<path d="M36.3041 14.8818C36.3041 14.8818 37.861 14.8729 38.6037 15.4198C39.9367 16.4015 39.2394 19.6111 39.2394 19.6111C39.2394 19.6111 37.3879 24.0667 37.6693 27.0053C37.8293 28.676 38.6037 32.2098 38.6037 32.2098C38.6037 32.2098 34.2069 33.1987 32.0432 33.773C30.1411 34.2779 27.4942 35.9408 27.4942 35.9408C27.4942 35.9408 24.7489 37.3823 23.3012 36.5776C22.311 36.0273 21.5876 34.237 21.5876 34.237C21.5876 34.237 16.7991 36.543 14.6472 34.8763C12.4169 33.1489 13.7368 27.7103 13.7368 27.7103C13.7368 27.7103 9.24098 27.5144 7.7848 25.5091C6.3554 23.5406 7.46226 19.2882 7.46226 19.2882C7.46226 19.2882 4.82384 17.711 4.66386 16.0462C4.53911 14.7479 5.87716 12.9347 5.87716 12.9347C5.87716 12.9347 2.48441 10.0483 3.16682 7.93472C4.00528 5.33786 10.0617 6.79971 10.0617 6.79971C10.0617 6.79971 10.9178 2.93315 12.896 2.28901C15.6536 1.39108 18.1308 7.5564 18.1308 7.5564C18.1308 7.5564 21.0652 3.35727 23.7602 3.53819C26.8274 3.7441 28.8156 9.57205 28.8156 9.57205C28.8156 9.57205 32.7044 7.33568 34.719 8.52836C36.9195 9.83112 36.3041 14.8818 36.3041 14.8818Z" fill="#65D157"/>
<path d="M36.3574 30.6504C36.3574 30.6504 31.984 26.833 30.6446 23.9832C29.6248 21.8131 29.576 20.7542 29.6622 18.3584C29.748 15.9721 30.6695 12.3165 30.6695 12.3165C30.6695 12.3165 29.1558 15.4383 28.6855 17.5759C28.2732 19.4503 28.2466 22.4609 28.2466 22.4609C28.2466 22.4609 25.0897 20.6215 24.0561 18.6967C23.061 16.8435 22.7526 16.3187 22.5491 14.1469C22.3536 12.0606 22.8234 8.03574 22.8234 8.03574C22.8234 8.03574 21.9602 10.5455 21.7522 12.213C21.5023 14.2159 21.9021 17.3702 21.9021 17.3702C21.9021 17.3702 17.5969 15.1662 15.9872 13.029C15.3627 12.1998 15.0494 11.0668 14.8641 10.5152C14.4248 9.20785 14.1273 6.70048 14.1273 6.70048C14.1273 6.70048 13.5528 9.46573 13.8652 10.5636C14.4687 12.6842 14.2172 12.413 14.2172 12.413C14.2172 12.413 11.7496 10.5114 9.91605 9.80871C8.36887 9.21576 5.77152 8.9009 5.77152 8.9009C5.77152 8.9009 8.45922 9.76435 9.9977 10.681C11.455 11.5493 13.4061 13.374 13.4061 13.374C13.4061 13.374 11.1687 14.0282 10.1582 14.7983C9.37324 15.3964 8.73922 16.4795 8.73922 16.4795C8.73922 16.4795 10.3334 15.4331 11.5863 15.1795C12.8392 14.9259 13.1987 14.8269 14.5827 15.0341C17.1536 15.419 21.3175 19.7132 21.3175 19.7132C21.3175 19.7132 17.6726 19.5871 15.8481 20.4792C14.4728 21.1516 12.2415 22.5131 12.2415 22.5131C12.2415 22.5131 15.0385 21.7169 16.8697 21.3923C19.1147 20.9944 20.5892 21.0355 22.7609 21.6869C25.1267 22.3964 27.3568 24.9707 27.3568 24.9707C27.3568 24.9707 23.3479 25.8772 21.2655 27.3371C19.5438 28.5442 17.5755 31.2258 17.5755 31.2258C17.5755 31.2258 20.4843 29.3032 22.4856 28.3161C24.772 27.1884 25.462 26.9757 28.0086 27.1064C31.5953 27.2905 36.3574 30.6504 36.3574 30.6504Z" fill="#FBF8EF"/>
<path d="M100.001 44.0003C98 43 96 40.5 92 40C88.6854 39.5857 86.0061 40.4893 82.8288 42.387C78.6045 44.9099 75 50 75 50L77.4999 44.5002C77.4999 44.5002 82.2286 37.4182 81.3279 32.3988C80.0001 25 75.0002 24.4997 75.0002 24.4997C75.0002 24.4997 80.757 24 82.8288 32.5002C83.5276 35.3673 82.0005 39.5003 82.0005 39.5003C82.0005 39.5003 86.9521 36.1436 88 33C88.5 31.5 89 29.5 89 29.5L90 32.5002L94.5 33.5C94.5 33.5 93.8974 35.1325 92 34.5C89 33.5 85.8813 38.8682 85.8813 38.8682C85.8813 38.8682 89.7216 38.1203 92 38.5C95 39 95.6521 40.5767 99.5 42.5001C100.5 43 103 44 103 44C103 44 101.048 44.5241 100.001 44.0003Z" fill="#65D157"/>
<path d="M26.9508 42.9668C28.9007 41.8707 30.7772 39.2767 34.7483 38.5834C38.0389 38.0089 40.7588 38.7817 44.0244 40.5231C48.366 42.8383 52.213 47.7477 52.213 47.7477L49.4494 42.3756C49.4494 42.3756 44.383 35.5311 45.0394 30.4739C46.007 23.0194 50.9768 22.2774 50.9768 22.2774C50.9768 22.2774 45.2026 22.0573 43.5452 30.648C42.9862 33.5455 44.7118 37.5997 44.7118 37.5997C44.7118 37.5997 41.1389 34.8287 39.5 32.5C38.8447 31.5689 38.4078 30.563 38 29.5C37.4362 28.0302 37.5 26 37.5 26L36.5 28L37.5 31.5L30 33.5C30 33.5 34 33 36 33C36.8732 33 38.3662 33.8993 39 34.5C40.3049 35.7368 40.8049 37.1564 40.8049 37.1564C40.8049 37.1564 36.9329 36.5955 34.6756 37.0852C31.7033 37.73 31.1284 39.3364 27.3782 41.4441C26.4037 41.9919 23.9551 43.1119 23.9551 43.1119C23.9551 43.1119 25.9298 43.5408 26.9508 42.9668Z" fill="#65D157"/>
<path d="M64.0775 79.5068C64.0775 79.5068 63.1216 88.9768 62.8367 92.3935C62.2762 99.1173 63 124 63 124L66.0004 124.001C66.0004 124.001 66.3273 99.5246 65.2757 92.3943C64.7946 89.1316 64.0775 79.5068 64.0775 79.5068Z" fill="#65D157"/>
<path d="M62.0403 55.6009C66.6226 54.3909 69.5606 55.9045 72.3258 62.0422C75.091 68.18 69.6711 68.7103 66.5607 72.7216C62.7378 76.7677 56.7483 72.2658 55.5 67.5381C53.6636 60.5828 57.4579 56.8108 62.0403 55.6009Z" fill="#F8A300"/>
<path d="M33.2268 40.9801C31.8929 41.3401 30.9476 41.9867 30.2844 42.8632C29.5874 43.7847 29.2333 44.9192 29.0191 46.1278C28.8059 47.3311 28.7216 48.6728 28.6028 50.0078C28.4826 51.3582 28.3264 52.727 27.9729 54.0539L27.8532 54.4665C27.5547 55.4251 27.1176 56.3646 26.6383 57.3043C26.0995 58.3605 25.4904 59.4481 25.0167 60.4981C24.0586 62.622 23.5375 64.8437 25.0604 67.1132L25.1888 67.2979C26.5509 69.1705 28.9207 70.1343 31.5981 70.5285C34.3755 70.9373 37.583 70.7492 40.6093 70.2428C43.6377 69.7361 46.5164 68.906 48.6432 68.0101C49.7037 67.5634 50.5981 67.0914 51.2336 66.6229C51.5508 66.3889 51.8221 66.1424 52.0159 65.8852C52.1834 65.6629 52.3168 65.4009 52.3406 65.1114L52.3442 64.985C52.3257 64.3809 51.9516 63.9781 51.4774 63.7354C51.0239 63.5035 50.4263 63.3843 49.7827 63.3221C48.4876 63.1969 46.7832 63.2857 45.1233 63.3747C43.4378 63.4652 41.7937 63.5568 40.5438 63.4584C39.916 63.409 39.4344 63.314 39.1122 63.1735C38.8759 63.0704 38.7749 62.9668 38.7319 62.8753L38.7052 62.788C38.695 62.7201 38.7098 62.7036 38.7123 62.6998C38.7223 62.6849 38.7609 62.6397 38.8805 62.5881C39.1334 62.479 39.5714 62.4132 40.1995 62.4048C41.4371 62.3882 43.1498 62.5929 44.9448 62.8132C46.7163 63.0305 48.5632 63.2613 50.004 63.2743C50.7211 63.2808 51.3806 63.2354 51.8953 63.087C52.3646 62.9517 52.8466 62.6882 53.0187 62.1723L53.0492 62.0663C53.2008 61.4221 52.7587 60.9623 52.3196 60.6804C51.8617 60.3864 51.2087 60.1446 50.4705 59.9329C48.9839 59.5067 46.9612 59.1518 44.9867 58.7899C42.9906 58.4241 41.0426 58.0507 39.6382 57.5886C38.9309 57.3559 38.4098 57.1151 38.0947 56.8723C37.8629 56.6935 37.7992 56.5644 37.792 56.4682L37.799 56.3827C37.8155 56.313 37.8439 56.2772 37.8873 56.2468C37.9424 56.2083 38.0466 56.1643 38.2307 56.1424C38.6074 56.0976 39.166 56.1614 39.8902 56.3307C41.3265 56.6666 43.1995 57.3621 45.1181 58.0737C47.0136 58.7768 48.9553 59.4958 50.4694 59.8431C51.2203 60.0153 51.9221 60.1098 52.481 60.0378C52.7645 60.0012 53.0459 59.9182 53.2812 59.7499C53.4969 59.5954 53.6512 59.3846 53.7348 59.1296L53.7669 59.0181C53.8963 58.4684 53.5351 57.9903 53.1939 57.6582C52.8189 57.2931 52.2775 56.9195 51.6577 56.5462C50.4142 55.7972 48.7291 54.9779 47.1098 54.1692C45.4719 53.3511 43.9032 52.5452 42.8344 51.8048C42.2956 51.4315 41.9279 51.1039 41.7357 50.832C41.5973 50.6361 41.588 50.5325 41.6056 50.4711L41.628 50.4221C41.6716 50.3515 41.7522 50.2722 42.0473 50.303C42.3607 50.3356 42.7984 50.4892 43.3511 50.7701C44.4469 51.3269 45.8154 52.2864 47.2283 53.3247C48.6243 54.3505 50.0631 55.4533 51.2525 56.2499C51.8476 56.6484 52.4026 56.9861 52.8757 57.2031C53.1119 57.3115 53.3448 57.3972 53.5633 57.4427C53.7491 57.4814 53.9624 57.4984 54.1706 57.4433L54.2593 57.4152C54.4337 57.3502 54.5729 57.2253 54.6542 57.0569C54.7285 56.903 54.7404 56.7438 54.7328 56.6146C54.718 56.3624 54.6204 56.0815 54.4949 55.8064C54.2373 55.2417 53.7702 54.5077 53.1575 53.6814C51.9258 52.02 50.0409 49.9003 47.853 47.8641C45.6663 45.8289 43.1578 43.8587 40.6755 42.5125C38.2106 41.1756 35.6822 40.4056 33.4985 40.9119L33.2268 40.9801Z" fill="#F8A300" stroke="#FBF8EF"/>
<path d="M31.9688 82.8801C31.7409 84.1876 31.9199 85.2746 32.4149 86.2096C32.9351 87.1919 33.7795 87.9607 34.7433 88.6365C35.7027 89.3093 36.8355 89.9258 37.9457 90.5687C39.0692 91.2194 40.1925 91.9086 41.1999 92.7511L41.5088 93.0212C42.219 93.667 42.8571 94.4257 43.4788 95.2219C44.1769 96.1159 44.8752 97.0858 45.5954 97.9223C47.0532 99.6153 48.7783 100.974 51.3759 100.569L51.5877 100.531C53.7671 100.109 55.6047 98.4797 57.0893 96.365C58.6292 94.1716 59.8441 91.3802 60.7086 88.6165C61.5736 85.8512 62.0976 83.0838 62.2404 80.9243C62.3116 79.8478 62.2893 78.8985 62.1569 78.1679C62.0908 77.8032 61.9937 77.4702 61.8515 77.1971C61.7104 76.926 61.5028 76.6724 61.198 76.5413C60.668 76.3137 60.1577 76.4584 59.7365 76.7499C59.3309 77.0308 58.9567 77.4768 58.6109 77.9851C57.9158 79.0068 57.2215 80.453 56.5499 81.8602C55.8673 83.2905 55.2062 84.6847 54.5594 85.6774C54.2351 86.175 53.9377 86.534 53.6717 86.7445C53.4752 86.9 53.3363 86.945 53.2347 86.9446L53.1443 86.932C53.1115 86.9223 53.0965 86.9119 53.0913 86.9082C53.0872 86.9051 53.0847 86.9035 53.0824 86.8998C53.0764 86.8898 53.0538 86.8418 53.0574 86.719C53.0649 86.4597 53.1829 86.0559 53.4296 85.5077C53.9152 84.4283 54.7855 83.0265 55.7032 81.557C56.6085 80.1074 57.5568 78.596 58.1518 77.349C58.4478 76.7287 58.6756 76.1356 58.7555 75.6257C58.8283 75.1614 58.7964 74.6271 58.4113 74.2619L58.3287 74.1912C57.8199 73.7904 57.231 73.9932 56.8067 74.2614C56.3634 74.5417 55.8877 75.0136 55.4048 75.5692C54.4324 76.6883 53.3048 78.3011 52.192 79.8683C51.0664 81.4536 49.9551 82.9932 48.9868 84.0242C48.4992 84.5434 48.0819 84.896 47.747 85.0696C47.4188 85.2397 47.2932 85.1844 47.2244 85.1302C47.1746 85.091 47.1577 85.0563 47.1498 85.0117C47.1394 84.9528 47.1421 84.8479 47.197 84.681C47.3093 84.3395 47.589 83.8827 48.0287 83.3229C48.9005 82.2132 50.2607 80.8698 51.6552 79.4918C53.0322 78.1311 54.4437 76.7358 55.3589 75.5606C55.8125 74.978 56.1807 74.4049 56.3455 73.8869C56.4292 73.6239 56.4712 73.3418 56.4194 73.0647C56.3718 72.8105 56.25 72.5864 56.0592 72.4077L55.9726 72.3342C55.538 71.9918 54.9668 72.1168 54.54 72.2787C54.069 72.4574 53.5242 72.7772 52.9491 73.1643C51.7948 73.9414 50.4002 75.0736 49.0434 76.1518C47.6705 77.2427 46.3377 78.2765 45.2642 78.9038C44.7225 79.2203 44.2915 79.4057 43.9815 79.4619C43.7589 79.5021 43.6715 79.4693 43.6311 79.4334L43.6032 79.3983C43.5705 79.3484 43.5257 79.2506 43.6837 78.9868C43.8475 78.7135 44.1711 78.3772 44.6503 77.9885C45.6005 77.2177 47.0109 76.3608 48.4876 75.5062C49.9465 74.6618 51.4716 73.8182 52.5885 73.0981C53.1455 72.739 53.6304 72.3928 53.9641 72.0752C54.1297 71.9176 54.282 71.7454 54.3831 71.5615C54.4836 71.3787 54.5668 71.1201 54.4739 70.8416C54.3541 70.4824 54.0066 70.3598 53.8084 70.313C53.5744 70.2577 53.2879 70.2458 52.9799 70.2576C52.356 70.2816 51.5189 70.4107 50.5508 70.6268C48.6078 71.0604 46.0608 71.8601 43.4826 72.9478C40.9064 74.0346 38.2761 75.4185 36.1786 77.0303C34.0945 78.632 32.4642 80.5139 32.0199 82.6149L31.9688 82.8801Z" fill="#F8A300" stroke="#FBF8EF"/>
<path d="M95.524 82.8789C95.7519 84.1867 95.5727 85.2742 95.0775 86.2093C94.5574 87.1914 93.7131 87.9596 92.7495 88.6353C91.79 89.3081 90.6573 89.9245 89.5471 90.5675C88.4236 91.2182 87.3003 91.9074 86.2929 92.7499L85.9839 93.02C85.2737 93.6658 84.6357 94.4244 84.0139 95.2206C83.3158 96.1147 82.6173 97.0854 81.897 97.922C80.4393 99.6149 78.7143 100.973 76.1168 100.567L75.9041 100.53C73.7145 100.1 71.9052 98.384 70.4608 96.1658C68.961 93.8624 67.7935 90.9271 66.9611 88.0289C66.1278 85.1281 65.6213 82.2347 65.4573 79.9987C65.3755 78.8836 65.3777 77.9113 65.474 77.1763C65.5219 76.8108 65.596 76.48 65.7084 76.2122C65.8153 75.9576 65.9933 75.6729 66.3026 75.5401C66.8419 75.3085 67.3349 75.5783 67.6797 75.8907C68.0338 76.2116 68.3764 76.6978 68.7057 77.2515C69.3689 78.3666 70.0731 79.9238 70.7728 81.4419C71.4816 82.9799 72.1879 84.4816 72.8711 85.5521C73.2142 86.0897 73.5297 86.4831 73.8113 86.7165C74.0239 86.8927 74.1681 86.9405 74.2658 86.9418L74.3484 86.9308C74.3805 86.9213 74.3956 86.9118 74.4011 86.9079C74.4053 86.9048 74.408 86.9024 74.4103 86.8986C74.4164 86.8884 74.4389 86.8403 74.4354 86.7177C74.4278 86.4584 74.3094 86.0553 74.0629 85.5074C73.5772 84.4279 72.7074 83.0254 71.7895 81.5558C70.8843 80.1064 69.9357 78.5956 69.3407 77.3487C69.0446 76.7283 68.8172 76.1344 68.7372 75.6244C68.6645 75.1601 68.6961 74.6258 69.0814 74.2606L69.1641 74.19C69.6729 73.7894 70.2615 73.9929 70.6858 74.2611C71.129 74.5414 71.6051 75.0124 72.0879 75.568C73.0603 76.687 74.188 78.2999 75.3008 79.8671C76.4264 81.4524 77.5376 82.9919 78.5059 84.023C78.9936 84.5422 79.4108 84.8948 79.7458 85.0684C80.0742 85.2385 80.1996 85.1832 80.2684 85.129C80.3181 85.0897 80.3351 85.0552 80.343 85.0105C80.3533 84.9516 80.3506 84.8465 80.2958 84.6798C80.1834 84.3384 79.9033 83.8822 79.4637 83.3226C78.592 82.2129 77.2317 80.8695 75.8373 79.4915C74.4602 78.1307 73.0491 76.7347 72.1339 75.5593C71.6802 74.9766 71.3121 74.4037 71.1472 73.8857C71.0635 73.6226 71.0214 73.3407 71.0734 73.0635C71.121 72.8095 71.2427 72.586 71.4332 72.4074L71.5202 72.333C71.9547 71.9909 72.5261 72.1156 72.9527 72.2775C73.4237 72.4562 73.9685 72.776 74.5436 73.1631C75.6979 73.9402 77.0925 75.0724 78.4494 76.1505C79.8224 77.2415 81.1547 78.2762 82.2283 78.9035C82.7699 79.2199 83.2009 79.4054 83.511 79.4616C83.8078 79.5153 83.8634 79.4373 83.8892 79.398C83.9193 79.3523 83.9687 79.244 83.7974 78.9489C83.6253 78.6526 83.291 78.2879 82.8037 77.8667C81.8365 77.0307 80.4054 76.0895 78.918 75.1581C77.448 74.2376 75.9186 73.3239 74.8143 72.5694C74.2639 72.1932 73.7888 71.8368 73.4704 71.5218C73.3138 71.3669 73.1672 71.1943 73.0752 71.0108C72.9945 70.8498 72.9245 70.611 73.0142 70.3633L73.0633 70.2571C73.1548 70.0923 73.2965 69.9985 73.4112 69.9463C73.5272 69.8935 73.6527 69.8659 73.7694 69.8495C74.003 69.8166 74.2884 69.8201 74.601 69.8475C75.2326 69.9029 76.0737 70.0628 77.0455 70.308C78.9945 70.7997 81.5325 71.6534 84.0965 72.7888C86.6585 73.9233 89.2679 75.3486 91.3478 76.9887C93.4149 78.6188 95.0291 80.5166 95.4725 82.6146L95.524 82.8789Z" fill="#F8A300" stroke="#FBF8EF"/>
<path d="M31.0673 89.0765C36.3132 92.1388 39.4155 98.2161 41.6573 104.038C43.6324 109.168 45.5 124 45.5 124L42 124C42 124 41.1434 109.602 39.5 105C37 98 34.3106 93.3705 30.5 91C22.3738 85.9447 15 101 15 101L13.0004 100.001C13.0004 100.001 21.572 83.5336 31.0673 89.0765Z" fill="#65D157"/>
<path d="M97.8273 89.0765C92.5814 92.1388 89.479 98.2161 87.2373 104.038C85.2622 109.168 83.3945 124 83.3945 124L86.8945 124C86.8945 124 87.7511 109.602 89.3945 105C91.8945 98 94.5839 93.3705 98.3945 91C106.521 85.9447 113.895 101 113.895 101L115.894 100.001C115.894 100.001 107.323 83.5336 97.8273 89.0765Z" fill="#65D157"/>
<path d="M7 99.7056C10.1369 96.2496 11.5949 99.4408 15.1573 99.7056C18.7196 99.9705 21.4998 97.5002 23.5001 101C25.5004 104.5 20.7227 106.699 20.0176 110.724C19.6947 112.568 21.3989 114.581 20.3681 116.14C19.0228 118.175 16.7074 118.973 14.2827 118.862C11.858 118.751 8.75716 117.258 7.90505 114.971C7.32792 113.421 8.58679 112.459 8.69105 110.807C8.97082 106.376 3.86311 103.162 7 99.7056Z" fill="#F8A300" stroke="#FBF8EF" stroke-width="2"/>
<path d="M121.895 99.7056C118.758 96.2496 117.3 99.4408 113.737 99.7056C110.175 99.9705 107.395 97.5002 105.394 101C103.394 104.5 108.172 106.699 108.877 110.724C109.2 112.568 107.496 114.581 108.526 116.14C109.872 118.175 112.187 118.973 114.612 118.862C117.037 118.751 120.137 117.258 120.989 114.971C121.567 113.421 120.308 112.459 120.203 110.807C119.924 106.376 125.031 103.162 121.895 99.7056Z" fill="#F8A300" stroke="#FBF8EF" stroke-width="2"/>
<path d="M50.1978 30.0872C50.8659 28.9312 51.7062 28.2087 52.6914 27.807C53.7263 27.3851 54.873 27.3368 56.0527 27.4375C57.2272 27.5377 58.4987 27.7934 59.7706 28.014C61.0576 28.2372 62.3697 28.4301 63.6912 28.4304L64.1041 28.4221C65.0696 28.3822 66.0523 28.2087 67.0463 27.9956C68.1622 27.7564 69.3269 27.4586 70.4226 27.2781C72.6402 26.9128 74.8474 26.9781 76.5889 28.9669L76.728 29.1322C78.1363 30.8642 78.5009 33.303 78.2779 35.8879C78.0465 38.5689 77.1761 41.4999 76.0543 44.1831C74.9318 46.8678 73.5454 49.334 72.258 51.0867C71.6162 51.9605 70.9851 52.6766 70.4104 53.153C70.1236 53.3907 69.8333 53.5836 69.5476 53.7017C69.2637 53.8191 68.9401 53.8798 68.6215 53.7844C68.0677 53.6184 67.7678 53.1802 67.6321 52.6847C67.5015 52.2077 67.5027 51.6238 67.5658 51.0111C67.6927 49.7796 68.0959 48.2223 68.4907 46.7103C68.892 45.1736 69.2863 43.6789 69.4315 42.501C69.5043 41.9101 69.5081 41.4429 69.4396 41.1103C69.3722 40.7834 69.2563 40.6718 69.1534 40.627C69.1214 40.6131 69.1024 40.6105 69.0957 40.6101C69.0903 40.6098 69.087 40.6099 69.0826 40.6114C69.0708 40.6154 69.0217 40.6381 68.9449 40.7355C68.7829 40.9409 68.6135 41.3289 68.4499 41.9111C68.1277 43.0579 67.8941 44.7022 67.6536 46.4287C67.4163 48.1319 67.1726 49.9105 66.8267 51.2567C66.6547 51.9262 66.4476 52.5304 66.1804 52.975C65.937 53.38 65.5679 53.7702 65.0363 53.8033L64.9282 53.8053C64.2784 53.7863 63.9555 53.2503 63.8014 52.7695C63.6405 52.2674 63.5774 51.597 63.5635 50.8566C63.5356 49.3655 63.7066 47.3932 63.8597 45.4654C64.0146 43.5155 64.1515 41.6101 64.0699 40.1891C64.0288 39.4733 63.9341 38.9313 63.7874 38.5805C63.6437 38.2369 63.5105 38.1975 63.4207 38.1948C63.3562 38.1929 63.3199 38.2087 63.2845 38.2385C63.2379 38.2777 63.1725 38.3612 63.107 38.5257C62.973 38.8622 62.8939 39.3955 62.8718 40.1113C62.8281 41.5305 63.0103 43.4456 63.1967 45.409C63.3808 47.3482 63.5688 49.3368 63.5162 50.8343C63.4901 51.5767 63.4043 52.2557 63.1974 52.7613C63.0923 53.0181 62.9434 53.2626 62.725 53.4426C62.5245 53.6077 62.2862 53.7014 62.0241 53.7161L61.9106 53.7168C61.356 53.7007 60.9967 53.2375 60.7719 52.8371C60.524 52.3954 60.3098 51.7969 60.116 51.1268C59.727 49.7821 59.3816 48.0082 59.0306 46.3001C58.6754 44.5717 58.3148 42.9127 57.8912 41.7352C57.6774 41.141 57.4646 40.7192 57.2611 40.4753C57.1151 40.3003 57.0255 40.2698 56.9701 40.2714L56.9249 40.2801C56.8513 40.3024 56.7556 40.3577 56.703 40.64C56.6474 40.9388 56.6692 41.3829 56.7748 41.9668C56.9844 43.1248 57.4873 44.6379 58.0528 46.2136C58.6111 47.7693 59.2309 49.3867 59.639 50.6937C59.8432 51.3477 60.0022 51.9492 60.0751 52.4447C60.1115 52.6924 60.1288 52.9313 60.1131 53.1465C60.0978 53.3554 60.0482 53.5907 59.9077 53.7887C59.8026 53.9368 59.6493 54.0393 59.4668 54.0747C59.3002 54.1069 59.1455 54.0765 59.0258 54.0361C58.7928 53.9573 58.557 53.7932 58.3373 53.6073C57.8849 53.2246 57.3323 52.6044 56.7337 51.8274C55.5299 50.265 54.0746 47.9806 52.7722 45.4348C51.4703 42.8901 50.3085 40.0615 49.7094 37.4126C49.1145 34.7824 49.0521 32.2334 50.0668 30.3234L50.1978 30.0872Z" fill="#F8A300" stroke="#FBF8EF"/>
<path d="M92.8376 42.0316C94.1733 42.3155 95.1414 42.9028 95.8431 43.7329C96.5806 44.6053 96.9895 45.7057 97.2653 46.8863C97.54 48.0617 97.6955 49.3805 97.884 50.6901C98.0746 52.0152 98.3019 53.3564 98.7211 54.6452L98.8604 55.0447C99.2057 55.9736 99.6866 56.8766 100.209 57.7775C100.797 58.7897 101.457 59.8291 101.98 60.8392C103.038 62.8827 103.672 65.0486 102.289 67.3704L102.172 67.5589C100.928 69.4799 98.6411 70.5578 96.0218 71.0896C93.3046 71.6412 90.1315 71.6266 87.1204 71.2889C84.1071 70.951 81.2238 70.2863 79.0786 69.5164C78.0088 69.1325 77.1009 68.715 76.4488 68.2866C76.1233 68.0727 75.8434 67.8435 75.6381 67.5998C75.4604 67.3888 75.3137 67.1366 75.2746 66.8506L75.2643 66.726C75.2501 66.1264 75.5996 65.7077 76.0556 65.4423C76.4912 65.1889 77.0745 65.0389 77.7057 64.9431C78.9765 64.7504 80.6621 64.7468 82.3031 64.7459C83.97 64.7451 85.5958 64.7478 86.8225 64.5841C87.4385 64.5018 87.9069 64.382 88.2162 64.2267C88.4434 64.1126 88.5368 64.0068 88.5735 63.9158L88.5943 63.8301C88.6005 63.7652 88.5856 63.751 88.5837 63.7485C88.5741 63.7358 88.5346 63.6943 88.4141 63.6498C88.1602 63.5562 87.7262 63.514 87.1067 63.5393C85.8862 63.589 84.2088 63.8826 82.4507 64.1957C80.7159 64.5046 78.9071 64.8317 77.4869 64.9215C76.7801 64.9663 76.1267 64.9553 75.6104 64.8362C75.1398 64.7277 74.6479 64.4934 74.4495 63.9911L74.414 63.8875C74.2289 63.2564 74.6425 62.7769 75.0609 62.4751C75.4975 62.1602 76.1295 61.8864 76.8462 61.6382C78.2895 61.1384 80.2646 60.6802 82.1918 60.218C84.1405 59.7506 86.0417 59.2792 87.4012 58.7488C88.0855 58.4818 88.585 58.2176 88.8819 57.9623C89.1727 57.7119 89.1732 57.5647 89.1455 57.4697C89.126 57.4033 89.0969 57.37 89.0539 57.3433C88.9986 57.309 88.8944 57.2714 88.7124 57.2597C88.3398 57.2358 87.7935 57.3285 87.0888 57.5341C85.6912 57.9418 83.8821 58.7267 82.0285 59.5308C80.1971 60.3253 78.3207 61.1393 76.8458 61.5626C76.1146 61.7725 75.4276 61.9028 74.8716 61.8617C74.5893 61.8408 74.3057 61.7734 74.0634 61.619C73.8414 61.4775 73.6766 61.2776 73.5801 61.0295L73.5428 60.9205C73.3847 60.3818 73.7181 59.8889 74.0368 59.5431C74.3875 59.1626 74.902 58.7655 75.4931 58.3643C76.6794 57.5593 78.2973 56.661 79.8504 55.7773C81.4217 54.8832 82.9247 54.0049 83.9384 53.2182C84.4497 52.8215 84.7939 52.4792 84.9682 52.2019C85.0934 52.0026 85.0967 51.9019 85.0767 51.8443L85.0526 51.7986C84.996 51.7172 84.9022 51.6466 84.6306 51.6757C84.3378 51.7071 83.9338 51.8527 83.4243 52.1212C82.4137 52.6537 81.1664 53.571 79.877 54.5701C78.605 55.5557 77.2916 56.621 76.1971 57.3947C75.6492 57.7821 75.1338 58.1126 74.688 58.3293C74.4652 58.4377 74.2441 58.5258 74.0338 58.5749C73.8541 58.6169 73.6498 58.6381 73.4477 58.5948L73.3611 58.5719C73.1905 58.5186 73.046 58.4079 72.9535 58.2495C72.8682 58.1035 72.8452 57.9479 72.8434 57.8197C72.8399 57.5714 72.9175 57.2943 73.0215 57.0262C73.2358 56.4746 73.6438 55.7548 74.1861 54.9443C75.2768 53.314 76.9752 51.2225 78.9763 49.1975C80.9765 47.1735 83.2975 45.1972 85.6383 43.8123C87.9648 42.436 90.3905 41.5968 92.566 41.9786L92.8376 42.0316Z" fill="#F8A300" stroke="#FBF8EF"/>
<path d="M13.8791 85.8833C13.8791 85.8833 13.9048 86.9477 14.2938 87.4441C14.992 88.3351 17.1715 87.7929 17.1715 87.7929C17.1715 87.7929 20.1937 86.2921 22.1933 86.5685C23.4814 86.7466 24.0627 87.3628 25.2899 87.7929C26.145 88.0926 26.6604 88.1586 27.4998 88.4998C28.9583 89.0928 29.747 89.5472 30.9998 90.5008C32.1311 91.3619 35.5 93.5 35.5 93.5C35.5 93.5 34.1398 91.5134 32.9998 90.5008C31.9469 89.5656 30.5683 88.6894 30 88.5C28.6602 88.0534 28.1669 87.1309 27.5012 85.8859L27.4998 85.8833C26.8749 84.7147 26.7039 82.5847 26.7039 82.5847L28.0925 79.4312C28.0925 79.4312 29.0216 77.5253 28.442 76.5523C28.0456 75.8867 26.8071 75.4289 26.8071 75.4289C26.8071 75.4289 28.2854 72.1089 27.1022 70.6721C25.8759 69.1831 22.1857 70.1964 22.1857 70.1964C22.1857 70.1964 21.9598 67.1276 20.5594 66.1733C19.1848 65.2366 16.3009 66.0801 16.3009 66.0801C16.3009 66.0801 15.1689 64.309 14.0278 64.2338C13.1379 64.175 11.9259 65.1267 11.9259 65.1267C11.9259 65.1267 9.88374 62.8668 8.45308 63.3764C6.6953 64.0026 7.81833 68.1122 7.81833 68.1122C7.81833 68.1122 5.19307 68.7765 4.79327 70.1417C4.23594 72.0449 8.50054 73.6119 8.50054 73.6119C8.50054 73.6119 5.69049 75.7035 5.86927 77.5417C6.07274 79.6339 10.0967 80.8736 10.0967 80.8736C10.0967 80.8736 8.64773 83.5773 9.50413 84.9299C10.4396 86.4073 13.8791 85.8833 13.8791 85.8833Z" fill="#65D157"/>
<path d="M24.6719 85.8066C24.6719 85.8066 21.9937 82.8384 19.6999 81.971C16.6364 80.8124 11.3192 82.2893 11.3192 82.2893C11.3192 82.2893 13.5136 81.1469 15.0343 80.7619C16.3678 80.4243 18.5298 80.328 18.5298 80.328C18.5298 80.328 17.0311 78.3023 15.6919 77.4854C13.1179 75.9151 7.99362 76.8956 7.99362 76.8956C7.99362 76.8956 9.76915 76.2253 10.9605 76.0363C12.3914 75.8094 14.6703 76.0085 14.6703 76.0085C14.6703 76.0085 12.3924 71.6873 9.73233 70.9704C8.60919 70.6677 6.75709 70.8295 6.75709 70.8295C6.75709 70.8295 8.02522 70.1718 8.84583 70.1578C10.3167 70.1328 10.8639 70.7452 10.8639 70.7452C10.8639 70.7452 10.1127 69.1959 9.74713 68.1579C9.35944 67.0569 8.96281 65.2738 8.96281 65.2738C8.96281 65.2738 9.77095 67.0802 10.3764 68.1926C10.8007 68.9721 11.6516 70.4839 11.6516 70.4839C11.6516 70.4839 11.8156 68.9355 12.3367 68.2067C12.7414 67.6407 13.6107 66.7975 13.6107 66.7975C13.6107 66.7975 12.384 69.1629 12.5497 70.7541C12.7899 73.0613 16.1394 75.4866 16.1394 75.4866C16.1394 75.4866 16.1761 73.2134 16.6172 71.7474C16.9271 70.7171 18.057 69.0988 18.057 69.0988C18.057 69.0988 16.5968 73.8693 17.7988 76.4996C18.4508 77.9263 20.3045 79.639 20.3045 79.639C20.3045 79.639 20.8511 77.4177 21.8336 75.9192C22.6459 74.6802 24.4865 72.6159 24.4865 72.6159C24.4865 72.6159 21.5534 76.9806 21.8596 80.0412C22.1091 82.5339 24.6719 85.8066 24.6719 85.8066Z" fill="#FBF8EF"/>
<path d="M115.015 85.8833C115.015 85.8833 114.99 86.9477 114.601 87.4441C113.902 88.3351 111.723 87.7929 111.723 87.7929C111.723 87.7929 108.701 86.2921 106.701 86.5685C105.413 86.7466 104.832 87.3628 103.605 87.7929C102.75 88.0926 102.234 88.1586 101.395 88.4998C99.9362 89.0928 99.1476 89.5472 97.8947 90.5008C96.7634 91.3619 93.3945 93.5 93.3945 93.5C93.3945 93.5 94.7548 91.5134 95.8947 90.5008C96.9476 89.5656 98.3262 88.6894 98.8945 88.5C100.234 88.0534 100.728 87.1309 101.393 85.8859L101.395 85.8833C102.02 84.7147 102.191 82.5847 102.191 82.5847L100.802 79.4312C100.802 79.4312 99.8729 77.5253 100.453 76.5523C100.849 75.8867 102.087 75.4289 102.087 75.4289C102.087 75.4289 100.609 72.1089 101.792 70.6721C103.019 69.1831 106.709 70.1964 106.709 70.1964C106.709 70.1964 106.935 67.1276 108.335 66.1733C109.71 65.2366 112.594 66.0801 112.594 66.0801C112.594 66.0801 113.726 64.309 114.867 64.2338C115.757 64.175 116.969 65.1267 116.969 65.1267C116.969 65.1267 119.011 62.8668 120.441 63.3764C122.199 64.0026 121.076 68.1122 121.076 68.1122C121.076 68.1122 123.701 68.7765 124.101 70.1417C124.659 72.0449 120.394 73.6119 120.394 73.6119C120.394 73.6119 123.204 75.7035 123.025 77.5417C122.822 79.6339 118.798 80.8736 118.798 80.8736C118.798 80.8736 120.247 83.5773 119.39 84.9299C118.455 86.4073 115.015 85.8833 115.015 85.8833Z" fill="#65D157"/>
<path d="M104.223 85.8066C104.223 85.8066 106.901 82.8384 109.195 81.971C112.258 80.8124 117.575 82.2893 117.575 82.2893C117.575 82.2893 115.381 81.1469 113.86 80.7619C112.527 80.4243 110.365 80.328 110.365 80.328C110.365 80.328 111.863 78.3023 113.203 77.4854C115.777 75.9151 120.901 76.8956 120.901 76.8956C120.901 76.8956 119.125 76.2253 117.934 76.0363C116.503 75.8094 114.224 76.0085 114.224 76.0085C114.224 76.0085 116.502 71.6873 119.162 70.9704C120.285 70.6677 122.137 70.8295 122.137 70.8295C122.137 70.8295 120.869 70.1718 120.049 70.1578C118.578 70.1328 118.031 70.7452 118.031 70.7452C118.031 70.7452 118.782 69.1959 119.147 68.1579C119.535 67.0569 119.932 65.2738 119.932 65.2738C119.932 65.2738 119.124 67.0802 118.518 68.1926C118.094 68.9721 117.243 70.4839 117.243 70.4839C117.243 70.4839 117.079 68.9355 116.558 68.2067C116.153 67.6407 115.284 66.7975 115.284 66.7975C115.284 66.7975 116.511 69.1629 116.345 70.7541C116.105 73.0613 112.755 75.4866 112.755 75.4866C112.755 75.4866 112.718 73.2134 112.277 71.7474C111.967 70.7171 110.838 69.0988 110.838 69.0988C110.838 69.0988 112.298 73.8693 111.096 76.4996C110.444 77.9263 108.59 79.639 108.59 79.639C108.59 79.639 108.043 77.4177 107.061 75.9192C106.249 74.6802 104.408 72.6159 104.408 72.6159C104.408 72.6159 107.341 76.9806 107.035 80.0412C106.785 82.5339 104.223 85.8066 104.223 85.8066Z" fill="#FBF8EF"/>
<path d="M45.2337 110.802C45.2337 110.802 44.6785 110.974 44.4754 111.252C44.111 111.75 44.719 112.815 44.719 112.815C44.719 112.815 45.9554 114.179 46.1067 115.271C46.2042 115.974 46.047 116.38 45.9229 117.079C45.6353 118.697 44.811 119.728 44.4833 121.035C44.2028 122.153 45.5 124.001 45.5 124.001C45.5 124.001 45.229 120.653 46.292 119.309C47.1221 118.259 47.5462 117.259 48.868 117.049C49.5933 116.934 50.7301 117.31 50.7301 117.31C50.7301 117.31 51.8689 117.516 52.294 117.067C52.5848 116.76 52.6416 116.042 52.6416 116.042C52.6416 116.042 54.6045 116.326 55.1836 115.491C55.7838 114.627 54.7044 112.839 54.7044 112.839C54.7044 112.839 56.2827 112.265 56.5762 111.388C56.8643 110.527 55.9936 109.138 55.9936 109.138C55.9936 109.138 56.756 108.28 56.6263 107.67C56.5252 107.194 55.8456 106.698 55.8456 106.698C55.8456 106.698 56.7297 105.291 56.2499 104.615C55.6603 103.784 53.6684 104.984 53.6684 104.984C53.6684 104.984 52.9303 103.703 52.1539 103.696C51.0717 103.685 50.8811 106.158 50.8811 106.158C50.8811 106.158 49.3659 104.992 48.4269 105.358C47.3583 105.776 47.3039 108.073 47.3039 108.073C47.3039 108.073 45.669 107.713 45.0856 108.363C44.4484 109.073 45.2337 110.802 45.2337 110.802Z" fill="#65D157"/>
<path d="M46.874 116.46C46.874 116.46 48.0358 114.613 48.1512 113.28C48.3054 111.499 46.7412 108.925 46.7412 108.925C46.7412 108.925 47.6667 109.909 48.0944 110.65C48.4695 111.3 48.8406 112.422 48.8406 112.422C48.8406 112.422 49.6823 111.334 49.9128 110.51C50.3558 108.925 49.0809 106.379 49.0809 106.379C49.0809 106.379 49.6963 107.212 49.9722 107.81C50.3036 108.528 50.5369 109.754 50.5369 109.754C50.5369 109.754 52.4687 107.917 52.4507 106.413C52.4431 105.779 52.0835 104.83 52.0835 104.83C52.0835 104.83 52.617 105.398 52.7461 105.827C52.9773 106.596 52.7368 106.974 52.7368 106.974C52.7368 106.974 53.4391 106.35 53.9301 106.004C54.4508 105.637 55.3285 105.165 55.3285 105.165C55.3285 105.165 54.4996 105.857 54.0051 106.34C53.6587 106.678 52.9909 107.349 52.9909 107.349C52.9909 107.349 53.8284 107.206 54.2884 107.371C54.6457 107.5 55.2175 107.832 55.2175 107.832C55.2175 107.832 53.7933 107.538 52.9821 107.861C51.806 108.329 51.0289 110.448 51.0289 110.448C51.0289 110.448 52.2282 110.13 53.0636 110.145C53.6507 110.155 54.6682 110.508 54.6682 110.508C54.6682 110.508 51.9462 110.449 50.7429 111.47C50.0903 112.024 49.4657 113.252 49.4657 113.252C49.4657 113.252 50.7134 113.209 51.6461 113.503C52.4173 113.746 53.7744 114.406 53.7744 114.406C53.7744 114.406 51.0471 113.513 49.485 114.128C48.2129 114.629 46.874 116.46 46.874 116.46Z" fill="#FBF8EF"/>
<path d="M83.6599 110.802C83.6599 110.802 84.2151 110.974 84.4181 111.252C84.7826 111.75 84.1746 112.815 84.1746 112.815C84.1746 112.815 82.9382 114.179 82.7868 115.271C82.6893 115.974 82.8466 116.38 82.9707 117.079C83.2582 118.697 84.0825 119.728 84.4103 121.035C84.6907 122.153 83.3936 124.001 83.3936 124.001C83.3936 124.001 83.6646 120.653 82.6016 119.309C81.7715 118.259 81.3473 117.259 80.0256 117.049C79.3003 116.934 78.1634 117.31 78.1634 117.31C78.1634 117.31 77.0246 117.516 76.5995 117.067C76.3088 116.76 76.252 116.042 76.252 116.042C76.252 116.042 74.2891 116.326 73.7099 115.491C73.1097 114.627 74.1892 112.839 74.1892 112.839C74.1892 112.839 72.6109 112.265 72.3174 111.388C72.0292 110.527 72.8999 109.138 72.8999 109.138C72.8999 109.138 72.1376 108.28 72.2673 107.67C72.3684 107.194 73.0479 106.698 73.0479 106.698C73.0479 106.698 72.1639 105.291 72.6437 104.615C73.2332 103.784 75.2251 104.984 75.2251 104.984C75.2251 104.984 75.9633 103.703 76.7396 103.696C77.8218 103.685 78.0124 106.158 78.0124 106.158C78.0124 106.158 79.5276 104.992 80.4666 105.358C81.5353 105.776 81.5896 108.073 81.5896 108.073C81.5896 108.073 83.2245 107.713 83.8079 108.363C84.4451 109.073 83.6599 110.802 83.6599 110.802Z" fill="#65D157"/>
<path d="M82.0195 116.46C82.0195 116.46 80.8578 114.613 80.7423 113.28C80.5881 111.499 82.1523 108.925 82.1523 108.925C82.1523 108.925 81.2269 109.909 80.7992 110.65C80.4241 111.3 80.0529 112.422 80.0529 112.422C80.0529 112.422 79.2113 111.334 78.9808 110.51C78.5378 108.925 79.8126 106.379 79.8126 106.379C79.8126 106.379 79.1973 107.212 78.9214 107.81C78.59 108.528 78.3566 109.754 78.3566 109.754C78.3566 109.754 76.4249 107.917 76.4428 106.413C76.4504 105.779 76.81 104.83 76.81 104.83C76.81 104.83 76.2765 105.398 76.1475 105.827C75.9162 106.596 76.1568 106.974 76.1568 106.974C76.1568 106.974 75.4545 106.35 74.9635 106.004C74.4427 105.637 73.565 105.165 73.565 105.165C73.565 105.165 74.3939 105.857 74.8884 106.34C75.2349 106.678 75.9027 107.349 75.9027 107.349C75.9027 107.349 75.0652 107.206 74.6051 107.371C74.2478 107.5 73.676 107.832 73.676 107.832C73.676 107.832 75.1003 107.538 75.9114 107.861C77.0876 108.329 77.8646 110.448 77.8646 110.448C77.8646 110.448 76.6653 110.13 75.8299 110.145C75.2429 110.155 74.2254 110.508 74.2254 110.508C74.2254 110.508 76.9474 110.449 78.1506 111.47C78.8033 112.024 79.4279 113.252 79.4279 113.252C79.4279 113.252 78.1802 113.209 77.2475 113.503C76.4763 113.746 75.1191 114.406 75.1191 114.406C75.1191 114.406 77.8465 113.513 79.4085 114.128C80.6807 114.629 82.0195 116.46 82.0195 116.46Z" fill="#FBF8EF"/>
<path d="M37.9069 106.853C37.9069 106.853 38.4409 106.815 38.708 106.986C39.1873 107.293 39.0199 108.41 39.0199 108.41C39.0199 108.41 38.4128 109.995 38.6465 110.982C38.7971 111.619 39.1333 111.88 39.4072 112.474C39.598 112.888 40.784 114.487 41.501 115.5C42.1146 116.367 42.751 117.313 42.751 117.313L42.001 122.5C42.001 122.5 41.8245 120.343 41.5005 119.002C41.2107 117.801 41.106 117.078 40.5005 116.002C39.9195 114.969 39.2123 113.946 38.5567 113.671C37.9419 113.414 36.8675 113.43 36.8675 113.43L35.3552 114.276C35.3552 114.276 34.4455 114.832 33.9308 114.588C33.5788 114.421 33.2905 113.823 33.2905 113.823C33.2905 113.823 31.6991 114.722 30.9235 114.198C30.1196 113.655 30.4508 111.76 30.4508 111.76C30.4508 111.76 28.9039 111.793 28.3594 111.138C27.825 110.494 28.1096 109.01 28.1096 109.01C28.1096 109.01 27.1691 108.528 27.077 107.961C27.0051 107.518 27.4237 106.866 27.4237 106.866C27.4237 106.866 26.195 105.951 26.3819 105.211C26.6115 104.301 28.7222 104.667 28.7222 104.667C28.7222 104.667 28.9295 103.321 29.5938 103.056C30.5199 102.686 31.5077 104.746 31.5077 104.746C31.5077 104.746 32.4206 103.24 33.3493 103.242C34.4063 103.244 35.2188 105.199 35.2188 105.199C35.2188 105.199 36.5031 104.345 37.221 104.709C38.0051 105.107 37.9069 106.853 37.9069 106.853Z" fill="#65D157"/>
<path d="M38.3828 112.259C38.3828 112.259 36.7693 111.06 36.2256 109.953C35.4996 108.475 35.9852 105.743 35.9852 105.743C35.9852 105.743 35.518 106.896 35.3978 107.675C35.2924 108.359 35.3474 109.446 35.3474 109.446C35.3474 109.446 34.2619 108.792 33.7891 108.161C32.8803 106.947 33.1266 104.335 33.1266 104.335C33.1266 104.335 32.8758 105.256 32.838 105.861C32.7927 106.589 33.0011 107.72 33.0011 107.72C33.0011 107.72 30.7294 106.786 30.2436 105.488C30.0385 104.941 30.0312 104.006 30.0312 104.006C30.0312 104.006 29.7624 104.672 29.7946 105.083C29.8522 105.821 30.1849 106.065 30.1849 106.065C30.1849 106.065 29.3735 105.763 28.8365 105.63C28.2669 105.488 27.3554 105.375 27.3554 105.375C27.3554 105.375 28.2982 105.693 28.8839 105.943C29.2943 106.118 30.0916 106.472 30.0916 106.472C30.0916 106.472 29.3244 106.628 28.9845 106.924C28.7204 107.153 28.3398 107.629 28.3398 107.629C28.3398 107.629 29.4654 106.902 30.2697 106.909C31.4361 106.919 32.8099 108.48 32.8099 108.48C32.8099 108.48 31.6738 108.607 30.961 108.898C30.4601 109.102 29.7039 109.745 29.7039 109.745C29.7039 109.745 32.0222 108.786 33.3962 109.262C34.1414 109.521 35.0872 110.367 35.0872 110.367C35.0872 110.367 34.0013 110.746 33.2981 111.31C32.7167 111.775 31.7711 112.795 31.7711 112.795C31.7711 112.795 33.816 111.119 35.3627 111.126C36.6223 111.132 38.3828 112.259 38.3828 112.259Z" fill="#FBF8EF"/>
<path d="M90.9876 106.853C90.9876 106.853 90.4536 106.815 90.1865 106.986C89.7072 107.293 89.8747 108.41 89.8747 108.41C89.8747 108.41 90.4817 109.995 90.248 110.982C90.0974 111.619 89.7612 111.88 89.4874 112.474C89.2966 112.888 88.1105 114.487 87.3936 115.5C86.78 116.367 86.1436 117.313 86.1436 117.313L86.8935 122.5C86.8935 122.5 87.0701 120.343 87.394 119.002C87.6839 117.801 87.7886 117.078 88.394 116.002C88.975 114.969 89.6822 113.946 90.3378 113.671C90.9526 113.414 92.027 113.43 92.027 113.43L93.5393 114.276C93.5393 114.276 94.449 114.832 94.9637 114.588C95.3158 114.421 95.604 113.823 95.604 113.823C95.604 113.823 97.1954 114.722 97.971 114.198C98.7749 113.655 98.4437 111.76 98.4437 111.76C98.4437 111.76 99.9906 111.793 100.535 111.138C101.07 110.494 100.785 109.01 100.785 109.01C100.785 109.01 101.725 108.528 101.818 107.961C101.889 107.518 101.471 106.866 101.471 106.866C101.471 106.866 102.7 105.951 102.513 105.211C102.283 104.301 100.172 104.667 100.172 104.667C100.172 104.667 99.9651 103.321 99.3007 103.056C98.3747 102.686 97.3868 104.746 97.3868 104.746C97.3868 104.746 96.4739 103.24 95.5452 103.242C94.4882 103.244 93.6757 105.199 93.6757 105.199C93.6757 105.199 92.3915 104.345 91.6736 104.709C90.8894 105.107 90.9876 106.853 90.9876 106.853Z" fill="#65D157"/>
<path d="M90.5117 112.259C90.5117 112.259 92.1253 111.06 92.6689 109.953C93.395 108.475 92.9093 105.743 92.9093 105.743C92.9093 105.743 93.3765 106.896 93.4967 107.675C93.6021 108.359 93.5471 109.446 93.5471 109.446C93.5471 109.446 94.6326 108.792 95.1054 108.161C96.0142 106.947 95.7679 104.335 95.7679 104.335C95.7679 104.335 96.0187 105.256 96.0565 105.861C96.1018 106.589 95.8934 107.72 95.8934 107.72C95.8934 107.72 98.1652 106.786 98.6509 105.488C98.856 104.941 98.8634 104.006 98.8634 104.006C98.8634 104.006 99.1321 104.672 99.1 105.083C99.0423 105.821 98.7096 106.065 98.7096 106.065C98.7096 106.065 99.521 105.763 100.058 105.63C100.628 105.488 101.539 105.375 101.539 105.375C101.539 105.375 100.596 105.693 100.011 105.943C99.6002 106.118 98.8029 106.472 98.8029 106.472C98.8029 106.472 99.5701 106.628 99.9101 106.924C100.174 107.153 100.555 107.629 100.555 107.629C100.555 107.629 99.4292 106.902 98.6248 106.909C97.4584 106.919 96.0846 108.48 96.0846 108.48C96.0846 108.48 97.2207 108.607 97.9335 108.898C98.4345 109.102 99.1907 109.745 99.1907 109.745C99.1907 109.745 96.8724 108.786 95.4984 109.262C94.7531 109.521 93.8074 110.367 93.8074 110.367C93.8074 110.367 94.8932 110.746 95.5964 111.31C96.1779 111.775 97.1234 112.795 97.1234 112.795C97.1234 112.795 95.0785 111.119 93.5319 111.126C92.2722 111.132 90.5117 112.259 90.5117 112.259Z" fill="#FBF8EF"/>
<path d="M73.9611 94.5697L73.3564 93.9639C73.3564 93.9639 74.7094 94.9842 76.5 93.9639C78.8739 92.6112 81.4643 89.9281 83.6706 88.3166C85.7075 86.8289 88.1739 85.2401 90 83.5C91.1978 82.3586 91.2942 81.1152 91.2942 81.1152L92 81.5C92 81.5 92.6171 84.3797 91.3884 85.5636C89.5428 87.3419 87.0427 88.9521 85 90.5C82.9151 92.0799 80.3597 94.6937 78.0731 95.9642C76.3679 96.9118 73.9611 94.5697 73.9611 94.5697Z" fill="#FBF8EF" stroke="#F8A300"/>
<path d="M37.6159 81.7007L38.1074 81C38.1074 81 37.3378 82.5097 38.6538 84.0957C40.3985 86.1983 43.491 88.2829 45.4615 90.1756C47.2806 91.9229 49.274 94.0756 51.3049 95.5714C52.6371 96.5526 53.8784 96.4314 53.8784 96.4314L53.6221 97.1933C53.6221 97.1933 50.8935 98.3016 49.5141 97.2974C47.4421 95.789 45.4218 93.6068 43.5424 91.8642C41.6242 90.0857 38.606 88.0235 36.9573 85.9925C35.7278 84.478 37.6159 81.7007 37.6159 81.7007Z" fill="#FBF8EF" stroke="#F8A300"/>
<path d="M97.7288 67.7793L96.9688 68.2275C96.9688 68.2275 98.3347 67.1386 97.7755 65.089C97.0342 62.3717 95.0202 59.0968 93.9775 56.4804C93.0149 54.0649 92.8295 49.8818 91.5608 47.612C90.7287 46.1232 89.2706 46.3311 89.2706 46.3311L90.2176 45.5503C90.2176 45.5503 93.1108 45.2249 93.9775 46.7554C95.2793 49.0545 95.4774 53.2768 96.4986 55.7135C97.5409 58.2006 99.4947 61.4227 100.176 64.0318C100.685 65.9774 97.7288 67.7793 97.7288 67.7793Z" fill="#FBF8EF" stroke="#F8A300"/>
<path d="M76.1314 33.9836L76.3047 34.8271C76.3047 34.8271 75.7316 33.2215 73.6623 33.089C70.919 32.9134 67.2581 33.7364 64.5125 33.871C61.9777 33.9953 58.057 32.8425 55.56 33.2955C53.9221 33.5925 53.6525 35.0045 53.6525 35.0045L53.2314 33.8831C53.2314 33.8831 53.8466 31.1089 55.5339 30.7932C58.0685 30.3189 62.0295 31.4723 64.6023 31.3007C67.2284 31.1255 70.8216 30.3415 73.4462 30.5378C75.4034 30.6842 76.1314 33.9836 76.1314 33.9836Z" fill="#FBF8EF" stroke="#F8A300"/>
<path d="M36.5455 44.3858L37.3906 44.5215C37.3906 44.5215 35.6964 44.4893 34.8453 46.3663C33.717 48.8546 33.6574 53.603 32.8166 56.2027C32.0404 58.6026 30.796 60.9278 30.3386 63.4084C30.0385 65.0355 30.87 66.5075 30.87 66.5075L30.0663 66.4499C30.0663 66.4499 27.7032 64.2319 28.0033 62.5523C28.4542 60.0293 29.7133 57.667 30.4589 55.2149C31.2199 52.7122 31.2919 48.0404 32.3977 45.6697C33.2223 43.9018 36.5455 44.3858 36.5455 44.3858Z" fill="#FBF8EF" stroke="#F8A300"/>
<path d="M14.3891 101.274L14.6452 101.898C14.6452 101.898 12.725 101.915 12.5 103.5C12.2018 105.601 13.5159 106.876 13.4364 109C13.3629 110.961 12.6075 112.025 12.7683 113.979C12.8739 115.261 13.4364 116.717 13.4364 116.717L12.6546 116.877C12.6546 116.877 11.1168 115.151 11.0013 113.83C10.8278 111.846 11.5863 110.752 11.6287 108.758C11.672 106.723 10.2947 105.477 10.6864 103.495C11.2679 100.552 14.3891 101.274 14.3891 101.274Z" fill="#FBF8EF" stroke="#F8A300"/>
<path d="M114.505 101.274L114.249 101.898C114.249 101.898 116.17 101.915 116.395 103.5C116.693 105.601 115.379 106.876 115.458 109C115.532 110.961 116.287 112.025 116.126 113.979C116.021 115.261 115.458 116.717 115.458 116.717L116.24 116.877C116.24 116.877 117.778 115.151 117.893 113.83C118.067 111.846 117.308 110.752 117.266 108.758C117.223 106.723 118.6 105.477 118.208 103.495C117.627 100.552 114.505 101.274 114.505 101.274Z" fill="#FBF8EF" stroke="#F8A300"/>
<path d="M15.6382 101.506L15.3017 102.07C15.3017 102.07 17.202 102.347 17.2149 103.898C17.232 105.955 15.7612 107 15.5586 109.049C15.3716 110.941 15.9792 112.064 15.5609 113.917C15.2866 115.132 14.5364 116.454 14.5364 116.454L15.2897 116.714C15.2897 116.714 17.0418 115.266 17.3313 114.014C17.766 112.134 17.1595 110.981 17.3816 109.062C17.6082 107.104 19.1379 106.095 19.0124 104.14C18.8261 101.237 15.6382 101.506 15.6382 101.506Z" fill="#FBF8EF" stroke="#F8A300"/>
<path d="M113.256 101.506L113.593 102.07C113.593 102.07 111.693 102.347 111.68 103.898C111.663 105.955 113.133 107 113.336 109.049C113.523 110.941 112.915 112.064 113.334 113.917C113.608 115.132 114.358 116.454 114.358 116.454L113.605 116.714C113.605 116.714 111.853 115.266 111.563 114.014C111.128 112.134 111.735 110.981 111.513 109.062C111.286 107.104 109.757 106.095 109.882 104.14C110.068 101.237 113.256 101.506 113.256 101.506Z" fill="#FBF8EF" stroke="#F8A300"/>
</g>
<defs>
<clipPath id="clip0_2741_1131">
<rect width="128" height="128" fill="white"/>
</clipPath>
</defs>
</svg>
