<svg width="128" height="128" viewBox="0 0 128 128" fill="none" xmlns="http://www.w3.org/2000/svg">
<g clip-path="url(#clip0_2802_278)">
<mask id="mask0_2802_278" style="mask-type:luminance" maskUnits="userSpaceOnUse" x="0" y="0" width="128" height="128">
<path d="M128 0H0V128H128V0Z" fill="white"/>
</mask>
<g mask="url(#mask0_2802_278)">
<path d="M128 0H0V128H128V0Z" fill="#FBF8EF"/>
<path d="M6 64C6 31.9675 31.9675 6 64 6C96.0325 6 122 31.9675 122 64C122 96.0325 96.0325 122 64 122C31.9675 122 6 96.0325 6 64Z" fill="#FBF8EF" stroke="#F8A300" stroke-width="4"/>
<path d="M14 64C14 36.3858 36.3858 14 64 14C91.6142 14 114 36.3858 114 64C114 91.6142 91.6142 114 64 114C36.3858 114 14 91.6142 14 64Z" fill="#FBF8EF" stroke="#F8A300" stroke-width="4"/>
<path d="M107.625 68V60C107.625 57.5147 105.61 55.5 103.125 55.5H79.125C76.6397 55.5 74.625 57.5147 74.625 60V68C74.625 70.4853 76.6397 72.5 79.125 72.5H103.125C105.61 72.5 107.625 70.4853 107.625 68Z" fill="#FBF8EF" stroke="#F8A300"/>
<path d="M53.625 68V60C53.625 57.5147 51.6103 55.5 49.125 55.5H25.125C22.6397 55.5 20.625 57.5147 20.625 60V68C20.625 70.4853 22.6397 72.5 25.125 72.5H49.125C51.6103 72.5 53.625 70.4853 53.625 68Z" fill="#FBF8EF" stroke="#F8A300"/>
<path d="M68.125 20.5H60.125C57.6397 20.5 55.625 22.5147 55.625 25V49C55.625 51.4853 57.6397 53.5 60.125 53.5H68.125C70.6103 53.5 72.625 51.4853 72.625 49V25C72.625 22.5147 70.6103 20.5 68.125 20.5Z" fill="#FBF8EF" stroke="#F8A300"/>
<path d="M68.125 74.5H60.125C57.6398 74.5 55.625 76.5148 55.625 79V103C55.625 105.485 57.6398 107.5 60.125 107.5H68.125C70.6102 107.5 72.625 105.485 72.625 103V79C72.625 76.5148 70.6102 74.5 68.125 74.5Z" fill="#FBF8EF" stroke="#F8A300"/>
<path d="M97.7138 36.0693L92.057 30.4124C90.2996 28.6551 87.4504 28.6551 85.693 30.4124L68.7225 47.383C66.9651 49.1404 66.9651 51.9896 68.7225 53.747L74.3793 59.4038C76.1367 61.1612 78.9859 61.1612 80.7433 59.4038L97.7138 42.4333C99.4712 40.6759 99.4712 37.8267 97.7138 36.0693Z" fill="#FBF8EF" stroke="#F8A300"/>
<path d="M59.5263 74.2529L53.8695 68.596C52.1121 66.8387 49.2629 66.8387 47.5055 68.596L30.535 85.5666C28.7776 87.324 28.7776 90.1732 30.535 91.9306L36.1918 97.5874C37.9492 99.3448 40.7984 99.3448 42.5558 97.5874L59.5263 80.6169C61.2837 78.8595 61.2837 76.0103 59.5263 74.2529Z" fill="#FBF8EF" stroke="#F8A300"/>
<path d="M36.1943 30.4121L30.5374 36.069C28.7801 37.8264 28.7801 40.6756 30.5374 42.433L47.508 59.4035C49.2654 61.1609 52.1146 61.1609 53.872 59.4035L59.5288 53.7467C61.2862 51.9893 61.2862 49.1401 59.5288 47.3827L42.5583 30.4121C40.8009 28.6548 37.9517 28.6548 36.1943 30.4121Z" fill="#FBF8EF" stroke="#F8A300"/>
<path d="M74.3818 68.5957L68.7249 74.2526C66.9676 76.0099 66.9676 78.8592 68.7249 80.6166L85.6955 97.5871C87.4529 99.3445 90.3021 99.3445 92.0595 97.5871L97.7163 91.9303C99.4737 90.1729 99.4737 87.3237 97.7163 85.5663L80.7458 68.5957C78.9884 66.8384 76.1392 66.8384 74.3818 68.5957Z" fill="#FBF8EF" stroke="#F8A300"/>
<path d="M107.125 68V60C107.125 57.7909 105.334 56 103.125 56H79.125C76.9159 56 75.125 57.7909 75.125 60V68C75.125 70.2091 76.9159 72 79.125 72H103.125C105.334 72 107.125 70.2091 107.125 68Z" fill="#F8A300"/>
<path d="M53.125 68V60C53.125 57.7909 51.3341 56 49.125 56H25.125C22.9159 56 21.125 57.7909 21.125 60V68C21.125 70.2091 22.9159 72 25.125 72H49.125C51.3341 72 53.125 70.2091 53.125 68Z" fill="#F8A300"/>
<path d="M68.125 21H60.125C57.9159 21 56.125 22.7909 56.125 25V49C56.125 51.2091 57.9159 53 60.125 53H68.125C70.3341 53 72.125 51.2091 72.125 49V25C72.125 22.7909 70.3341 21 68.125 21Z" fill="#F8A300"/>
<path d="M68.125 75H60.125C57.9159 75 56.125 76.7909 56.125 79V103C56.125 105.209 57.9159 107 60.125 107H68.125C70.3341 107 72.125 105.209 72.125 103V79C72.125 76.7909 70.3341 75 68.125 75Z" fill="#F8A300"/>
<path d="M97.3603 36.4228L91.7034 30.7659C90.1413 29.2038 87.6087 29.2038 86.0466 30.7659L69.076 47.7365C67.5139 49.2986 67.5139 51.8312 69.076 53.3933L74.7329 59.0502C76.295 60.6123 78.8276 60.6123 80.3897 59.0502L97.3603 42.0796C98.9224 40.5175 98.9224 37.9849 97.3603 36.4228Z" fill="#F8A300"/>
<path d="M59.1728 74.6064L53.5159 68.9495C51.9538 67.3874 49.4212 67.3874 47.8591 68.9495L30.8885 85.9201C29.3264 87.4822 29.3264 90.0148 30.8885 91.5769L36.5454 97.2338C38.1075 98.7959 40.6401 98.7959 42.2022 97.2338L59.1728 80.2632C60.7349 78.7011 60.7349 76.1685 59.1728 74.6064Z" fill="#F8A300"/>
<path d="M36.5478 30.7657L30.8909 36.4225C29.3288 37.9846 29.3288 40.5173 30.8909 42.0794L47.8615 59.05C49.4236 60.6121 51.9562 60.6121 53.5183 59.05L59.1752 53.3931C60.7373 51.831 60.7373 49.2984 59.1752 47.7363L42.2046 30.7657C40.6425 29.2036 38.1099 29.2036 36.5478 30.7657Z" fill="#F8A300"/>
<path d="M74.7353 68.9493L69.0784 74.6061C67.5163 76.1682 67.5163 78.7009 69.0784 80.263L86.049 97.2336C87.6111 98.7957 90.1437 98.7957 91.7058 97.2336L97.3627 91.5767C98.9248 90.0146 98.9248 87.4819 97.3627 85.9199L80.3921 68.9493C78.83 67.3872 76.2974 67.3872 74.7353 68.9493Z" fill="#F8A300"/>
<path d="M64 48C72.8366 48 80 55.1634 80 64C80 72.8366 72.8366 80 64 80C55.1634 80 48 72.8366 48 64C48 55.1634 55.1634 48 64 48Z" fill="#FBF8EF" stroke="#FBF8EF"/>
<path d="M124 106V124H106L124 106Z" fill="#F8A300"/>
<path d="M106 4H124V22L106 4Z" fill="#F8A300"/>
<path d="M22 4H4V22L22 4Z" fill="#F8A300"/>
<path d="M22 124H4V106L22 124Z" fill="#F8A300"/>
</g>
</g>
<defs>
<clipPath id="clip0_2802_278">
<rect width="128" height="128" fill="white"/>
</clipPath>
</defs>
</svg>
