<svg width="128" height="128" viewBox="0 0 128 128" fill="none" xmlns="http://www.w3.org/2000/svg">
<g clip-path="url(#clip0_2799_96)">
<rect width="128" height="128" transform="matrix(-1 0 0 1 128 0)" fill="#FBF8EF"/>
<path d="M11.1325 12.2233C11.1325 12.2233 31.489 20.2704 38.1186 31.3591C44.1995 41.53 44.4144 49.5567 42.9505 61.3161C41.5448 72.6086 37.654 78.4965 31.709 88.1998C25.4695 98.3838 20.5004 102 20.5004 102C20.5004 102 25.0709 90.4312 25.0709 82.6767C25.0709 56.5002 11.1325 41.5 11.1325 41.5C11.1325 41.5 23.0004 58.5 21.9282 82.3222C21.143 99.7663 4.49981 123.5 4.49981 123.5C4.49981 123.5 30.2133 105.138 49.234 104.028C57.5333 103.543 62.1399 105.381 70.4302 106C82.9332 106.932 91.3326 101.8 102.5 107.5C105.635 109.1 107.123 110.471 110 112.5C113.191 114.751 118 118.5 118 118.5C118 118.5 114.36 113.332 111.5 110.5C108.336 107.366 106.498 105.46 102.5 103.5C94.2575 99.4585 81.5004 102.975 81.5004 102.975C81.5004 102.975 91.4024 99.923 97.2282 96.8351C120.5 84.5 123.5 77 123.5 77C123.5 77 107.421 89.0145 95.7735 94.1635C86.4929 98.2663 81.4731 100.995 71.0004 102C62.6788 102.799 57.3224 100.211 48.9998 101C35.8529 102.245 23.0004 109.5 23.0004 109.5C23.0004 109.5 35.4015 102.522 43.0004 97.5002C50.2344 92.7193 54.0831 89.7053 61.0004 84.5002C72.4043 75.9192 76.4134 65.4815 90.4676 62.9992C94.9067 62.2151 97.4921 62.4696 102 62.4995C105.91 62.5256 116.5 64.4999 116.5 64.4999C116.5 64.4999 106.332 60.6704 102.5 60.0004C97.5121 59.1283 94.5287 59.1673 89.5344 60.0004C76.6695 62.1464 65.5004 76.5002 65.5004 76.5002C65.5004 76.5002 68.6405 66.2912 70.0011 56.5002C71.4718 45.9173 76.928 36.6137 86.9995 29C93.7694 23.8823 100.184 25.5564 107 20.5001C112.886 16.1333 119.5 6.50047 119.5 6.50047C119.5 6.50047 111.587 14.6543 105.5 18.5001C98.3773 22.9993 92.3806 21.8026 85.5752 26.768C74.9995 34.4842 71.0004 43.5 71.0004 43.5C71.0004 43.5 72.0333 35.6054 69.9999 29.9281C68.0845 24.5802 65.1362 22.3942 61.0003 18.5001C57.6451 15.3411 42.9505 8 42.9505 8C42.9505 8 56.1494 16.9219 59.0003 20.5001C62.2265 24.5494 65.0955 26.2574 67.0008 31.0714C69.6202 37.6898 67.8119 42.2265 67.0005 49.298C65.6147 61.3745 65.9588 69.0332 59.0004 79.0002C53.8484 86.3799 47.2493 89.4145 40.5004 94.5002C32.4986 100.53 19.0004 108.5 19.0004 108.5C19.0004 108.5 29.1761 97.8946 34.1357 89.9792C40.5015 79.8194 44.5266 73.5762 46.0482 61.6838C47.6569 49.1109 47.8933 40.1989 40.88 29.6405C33.4315 18.427 11.1325 12.2233 11.1325 12.2233Z" fill="#65D157"/>
<path d="M41.7328 120.401C46.472 128.208 71.0037 120.994 71.0037 120.994C71.0037 120.994 61.2764 113.735 52.5043 111.494C44.6556 109.489 28 110 28 110L26 111C26 111 34.5045 108.494 41.7328 120.401Z" fill="#65D157"/>
<path d="M66.2585 90.3226C69.9995 81.5 93.5001 83.5009 93.5001 83.5009C93.5001 83.5009 87.0133 93.4184 78.4998 97.0001C71.6578 99.8787 55.9011 101.48 55.9011 101.48L54.4111 100.951C54.4111 100.951 61.4493 101.665 66.2585 90.3226Z" fill="#65D157"/>
<path d="M55.3846 55.6067C49.8933 52.9685 52.7283 34.5066 52.7283 34.5066C52.7283 34.5066 62.6817 43.0151 63.7966 48.5243C65.1863 55.3916 64.8878 67.5005 64.8878 67.5005L64.1443 68.8959C64.1443 68.8959 66.4891 60.9417 55.3846 55.6067Z" fill="#65D157"/>
<path d="M85.0065 49.4615C83.931 43.6596 99.9881 35.3247 99.9881 35.3247C99.9881 35.3247 99.0234 47.9709 95.3526 51.9915C90.7768 57.0032 81.1374 63.6905 81.1374 63.6905L79.6213 63.9066C79.6213 63.9066 87.1814 61.194 85.0065 49.4615Z" fill="#65D157"/>
<path d="M85.4469 76.3816C90.4826 79.4574 104 67.4335 104 67.4335C104 67.4335 91.8428 63.8203 86.7768 65.8141C80.4618 68.2994 70.7742 74.9165 70.7742 74.9165L70.0311 76.2556C70.0311 76.2556 75.2637 70.1619 85.4469 76.3816Z" fill="#65D157"/>
<path d="M28.4031 66.1785C22.9731 63.4163 25.5 41.5 25.5 41.5C25.5 41.5 35.9842 53.7558 36.9737 59.289C38.2071 66.1861 37.6337 78.285 37.6337 78.285L36.8587 79.6632C36.8587 79.6632 39.3835 71.7643 28.4031 66.1785Z" fill="#65D157"/>
<path d="M12.8562 69.5397C8.53212 69.1009 5.00002 53 5.00002 53C5.00002 53 12.8562 59.5 16.7833 62.7482C20.635 65.9342 22.1161 75.216 22.1161 75.216L21.9556 76.3326C21.9556 76.3326 21.6004 70.4271 12.8562 69.5397Z" fill="#65D157"/>
<path d="M9.91559 94.331C6.12644 92.2019 9.31786 76.03 9.31786 76.03C9.31786 76.03 13.9248 85.1265 16.228 89.6727C18.487 94.1318 16.1384 103.233 16.1384 103.233L15.5453 104.192C15.5453 104.192 17.5779 98.6364 9.91559 94.331Z" fill="#65D157"/>
<path d="M46.524 84.4822C51.4096 85.2363 58.5 70 58.5 70C58.5 70 48.9846 70.1596 46.524 74C43.0001 79.5 34.7065 88.0813 34.7065 88.0813L34.5638 89.3563C34.5638 89.3563 36.6445 82.9571 46.524 84.4822Z" fill="#65D157"/>
<path d="M49.0356 29.8C51.8115 28.6897 50.8162 18.5751 50.8162 18.5751C50.8162 18.5751 46.5 20.5 45.5 24.5C44 30.5 44.5 36.5 44.5 36.5L45.0001 38.0001C45.0001 38.0001 43.4223 32.0452 49.0356 29.8Z" fill="#65D157"/>
<path d="M107.751 74.9263C107.397 75.7569 107.601 76.3526 108.682 77.0431C109.763 77.7337 110.512 77.054 110.854 76.2506C111.197 75.4472 110.78 74.4994 109.923 74.1338C108.663 73.5958 108.105 74.0957 107.751 74.9263Z" fill="#F8A300"/>
<path d="M110.665 68.2029C111.8 68.3611 112.606 68.8463 112.999 69.9214C113.376 70.9555 112.284 72.2901 111.504 73.0724C111.127 73.451 110.484 73.4058 110.258 72.9219C109.818 71.9803 110.709 70.3016 110.187 70.214C109.665 70.1264 110.046 72.1297 109.204 72.829C108.804 73.1601 108.224 72.9168 108.062 72.4242C107.714 71.3666 107.333 69.6311 108.233 68.8532C108.987 68.2008 109.708 68.0697 110.665 68.2029Z" fill="#63BCE5"/>
<path d="M102.952 72.3679C103.419 71.3214 104.109 70.6811 105.251 70.6027C106.349 70.5274 107.328 71.9472 107.863 72.913C108.122 73.3803 107.9 73.9852 107.373 74.0685C106.346 74.2303 104.981 72.9081 104.752 73.3851C104.523 73.8621 106.553 74.0518 106.991 75.0556C107.198 75.531 106.803 76.0208 106.285 76.0398C105.172 76.0806 103.399 75.9649 102.902 74.8847C102.484 73.9788 102.559 73.2497 102.952 72.3679Z" fill="#63BCE5"/>
<path d="M116.514 74.1763C116.837 75.2759 116.727 76.2108 115.908 77.0105C115.121 77.7796 113.455 77.333 112.421 76.9445C111.921 76.7566 111.698 76.1522 112.046 75.7467C112.723 74.9579 114.619 75.0797 114.485 74.5681C114.35 74.0565 112.681 75.228 111.697 74.7475C111.231 74.5199 111.214 73.891 111.596 73.5406C112.417 72.7884 113.842 71.7272 114.921 72.2272C115.826 72.6465 116.242 73.2498 116.514 74.1763Z" fill="#63BCE5"/>
<path d="M112.936 82.0451C111.987 82.6869 111.063 82.866 110.052 82.3293C109.08 81.8131 108.999 80.0904 109.055 78.9876C109.082 78.454 109.589 78.0576 110.082 78.2658C111.039 78.6708 111.5 80.5148 111.946 80.2308C112.392 79.9468 110.769 78.7129 110.927 77.6294C111.002 77.1162 111.596 76.9089 112.046 77.1666C113.013 77.7198 114.457 78.7548 114.309 79.9348C114.185 80.9245 113.736 81.5043 112.936 82.0451Z" fill="#63BCE5"/>
<path d="M103.981 80.8015C103.175 79.987 102.828 79.1117 103.169 78.0192C103.497 76.9685 105.175 76.5705 106.269 76.4216C106.798 76.3496 107.282 76.7755 107.168 77.2976C106.947 78.3132 105.22 79.1067 105.581 79.4929C105.943 79.8792 106.855 78.0555 107.95 78.0112C108.468 77.9902 108.781 78.5357 108.611 79.0256C108.246 80.0774 107.496 81.688 106.309 81.7604C105.313 81.8211 104.66 81.4878 103.981 80.8015Z" fill="#63BCE5"/>
<path d="M112.738 50.9618C111.854 51.4889 111.643 52.1746 112.175 53.5359C112.707 54.8973 113.852 54.7737 114.707 54.2639C115.562 53.7541 115.814 52.6016 115.27 51.6898C114.47 50.3484 113.622 50.4348 112.738 50.9618Z" fill="#F8A300"/>
<path d="M119.933 46.7259C120.872 47.6333 121.289 48.6215 120.929 49.8747C120.582 51.08 118.681 51.5761 117.438 51.7736C116.837 51.8692 116.275 51.3963 116.392 50.7987C116.618 49.636 118.565 48.6882 118.143 48.2574C117.721 47.8265 116.728 49.9272 115.483 50.0056C114.893 50.0427 114.522 49.4294 114.703 48.8669C115.093 47.6594 115.906 45.8055 117.257 45.6928C118.389 45.5983 119.141 45.9614 119.933 46.7259Z" fill="#63BCE5"/>
<path d="M110.035 45.3863C111.167 44.736 112.232 44.6094 113.336 45.3034C114.398 45.9709 114.347 47.9354 114.192 49.184C114.116 49.7882 113.506 50.1964 112.964 49.9188C111.91 49.3789 111.54 47.245 111.009 47.5306C110.478 47.8161 112.221 49.3535 111.95 50.5716C111.822 51.1486 111.13 51.3347 110.64 51.0044C109.588 50.2953 108.033 48.9989 108.299 47.6703C108.523 46.556 109.081 45.9343 110.035 45.3863Z" fill="#63BCE5"/>
<path d="M121.312 56.1521C120.871 57.3813 120.142 58.1681 118.852 58.3552C117.611 58.5351 116.376 57.006 115.685 55.9546C115.351 55.4459 115.551 54.7395 116.143 54.5997C117.296 54.3275 118.961 55.7126 119.18 55.1509C119.399 54.5893 117.076 54.5481 116.492 53.4452C116.216 52.9229 116.622 52.3324 117.21 52.2663C118.47 52.1244 120.495 52.1036 121.153 53.2881C121.705 54.2816 121.683 55.1163 121.312 56.1521Z" fill="#63BCE5"/>
<path d="M112.736 60.998C111.431 60.9519 110.46 60.4966 109.889 59.3241C109.34 58.1965 110.422 56.5556 111.213 55.5774C111.596 55.1041 112.33 55.0799 112.643 55.6018C113.253 56.6172 112.44 58.6245 113.041 58.6626C113.643 58.7006 112.976 56.4748 113.849 55.5834C114.263 55.1612 114.949 55.3688 115.19 55.9082C115.709 57.066 116.344 58.9884 115.416 59.9756C114.637 60.8036 113.836 61.0368 112.736 60.998Z" fill="#63BCE5"/>
<path d="M105.324 53.8437C105.128 52.5527 105.396 51.514 106.443 50.7366C107.45 49.9889 109.262 50.7485 110.369 51.3456C110.905 51.6345 111.065 52.3511 110.61 52.7556C109.724 53.5424 107.601 53.1141 107.675 53.7125C107.749 54.3108 109.813 53.2439 110.851 53.9373C111.342 54.2658 111.265 54.9784 110.779 55.3154C109.737 56.0389 107.965 57.0186 106.823 56.2887C105.866 55.6765 105.489 54.9315 105.324 53.8437Z" fill="#63BCE5"/>
<path d="M114.248 25.9237C113.346 26.4181 113.109 27.0956 113.591 28.4755C114.073 29.8553 115.222 29.7737 116.095 29.2955C116.968 28.8173 117.262 27.6749 116.752 26.7438C116.002 25.374 115.151 25.4293 114.248 25.9237Z" fill="#F8A300"/>
<path d="M121.593 21.9526C122.498 22.8937 122.879 23.8965 122.473 25.1357C122.083 26.3275 120.165 26.7538 118.916 26.9057C118.311 26.9792 117.767 26.4862 117.905 25.8932C118.174 24.7396 120.154 23.8636 119.749 23.4176C119.343 22.9716 118.274 25.0346 117.026 25.0674C116.436 25.0829 116.087 24.4564 116.289 23.9009C116.722 22.7085 117.603 20.8856 118.957 20.8224C120.092 20.7694 120.83 21.1597 121.593 21.9526Z" fill="#63BCE5"/>
<path d="M111.75 20.252C112.906 19.6435 113.975 19.5559 115.053 20.2899C116.089 20.9958 115.966 22.957 115.766 24.1991C115.669 24.8002 115.044 25.1858 114.513 24.8886C113.479 24.3105 113.187 22.1645 112.646 22.4304C112.105 22.6964 113.79 24.2964 113.475 25.5039C113.326 26.0758 112.628 26.2365 112.15 25.8885C111.125 25.1414 109.618 23.789 109.933 22.471C110.197 21.3656 110.777 20.7647 111.75 20.252Z" fill="#63BCE5"/>
<path d="M122.627 31.424C122.141 32.6363 121.384 33.3959 120.088 33.5357C118.841 33.6701 117.663 32.0969 117.011 31.0209C116.695 30.5003 116.921 29.8017 117.518 29.6836C118.68 29.4538 120.293 30.8988 120.533 30.3456C120.772 29.7924 118.452 29.6662 117.909 28.5427C117.652 28.0106 118.08 27.4354 118.669 27.3908C119.934 27.2952 121.958 27.3483 122.573 28.5561C123.088 29.5691 123.036 30.4026 122.627 31.424Z" fill="#63BCE5"/>
<path d="M113.879 35.9523C112.577 35.8586 111.623 35.3681 111.095 34.1755C110.588 33.0285 111.729 31.4283 112.555 30.4797C112.955 30.0207 113.689 30.0233 113.983 30.5564C114.556 31.5934 113.67 33.5696 114.27 33.6297C114.87 33.6897 114.284 31.4409 115.189 30.582C115.618 30.1752 116.296 30.4079 116.518 30.9557C116.994 32.1317 117.558 34.076 116.595 35.0286C115.786 35.8276 114.976 36.0313 113.879 35.9523Z" fill="#63BCE5"/>
<path d="M106.734 28.532C106.585 27.2346 106.891 26.2064 107.966 25.4678C108.999 24.7575 110.783 25.5828 111.868 26.22C112.393 26.5283 112.526 27.2503 112.056 27.6379C111.143 28.3918 109.037 27.8862 109.089 28.4868C109.14 29.0874 111.242 28.0967 112.254 28.8276C112.733 29.1738 112.629 29.8832 112.132 30.2022C111.064 30.8871 109.257 31.8014 108.143 31.0302C107.209 30.3833 106.859 29.6251 106.734 28.532Z" fill="#63BCE5"/>
<path d="M91.6831 10.2212C90.6759 10.0103 90.0559 10.3715 89.5253 11.7334C88.9946 13.0953 89.9211 13.7803 90.8953 13.9842C91.8694 14.1882 92.8355 13.5111 93.0531 12.472C93.3732 10.9433 92.6903 10.432 91.6831 10.2212Z" fill="#F8A300"/>
<path d="M99.8457 11.9777C99.922 13.2813 99.5597 14.291 98.4457 14.9689C97.3744 15.6209 95.6395 14.698 94.5915 14.0016C94.0845 13.6647 93.9916 12.9364 94.4819 12.5755C95.4358 11.8733 97.5104 12.4949 97.4919 11.8923C97.4735 11.2898 95.3199 12.1625 94.3506 11.3766C93.8916 11.0044 94.0341 10.3019 94.5485 10.0109C95.6527 9.38623 97.507 8.57352 98.5768 9.40529C99.4741 10.1029 99.7814 10.8794 99.8457 11.9777Z" fill="#63BCE5"/>
<path d="M93.4714 4.28732C94.7449 4.57583 95.6143 5.20419 95.9564 6.46252C96.2854 7.67273 94.9172 9.08327 93.9573 9.89676C93.4928 10.2904 92.7675 10.1774 92.5568 9.60623C92.147 8.49494 93.32 6.6744 92.736 6.52487C92.152 6.37534 92.3926 8.68653 91.3686 9.39958C90.8836 9.73729 90.2482 9.40537 90.1114 8.83043C89.8178 7.59624 89.5518 5.58914 90.6478 4.79226C91.5671 4.12391 92.3983 4.04423 93.4714 4.28732Z" fill="#63BCE5"/>
<path d="M94.4753 19.8461C93.3185 20.452 92.2492 20.537 91.1731 19.8005C90.1381 19.0922 90.2657 17.1313 90.4694 15.8896C90.5679 15.2888 91.1935 14.9046 91.7241 15.2031C92.7565 15.7837 93.0433 17.9303 93.585 17.6656C94.1266 17.4009 92.4453 15.797 92.7629 14.5902C92.9133 14.0187 93.6123 13.8596 94.0891 14.2088C95.1127 14.9583 96.6162 16.3142 96.2981 17.6315C96.0313 18.7362 95.45 19.3357 94.4753 19.8461Z" fill="#63BCE5"/>
<path d="M84.8845 17.6028C83.9556 16.685 83.5494 15.6922 83.9238 14.4431C84.2838 13.2417 86.1907 12.767 87.4355 12.5834C88.0378 12.4946 88.594 12.9737 88.4711 13.57C88.2319 14.73 86.2741 15.656 86.691 16.0915C87.1079 16.5271 88.1246 14.4376 89.3708 14.3732C89.961 14.3427 90.3251 14.9602 90.1374 15.5206C89.7347 16.7236 88.9002 18.5683 87.5486 18.6658C86.415 18.7476 85.6672 18.3761 84.8845 17.6028Z" fill="#63BCE5"/>
<path d="M84.2767 7.31872C85.0071 6.23627 85.9078 5.65367 87.2046 5.79084C88.4518 5.92277 89.2706 7.70914 89.681 8.89858C89.8795 9.47411 89.5114 10.1093 88.9027 10.0986C87.7184 10.0779 86.4467 8.3248 86.0957 8.81496C85.7447 9.30512 87.986 9.91837 88.2795 11.1312C88.4185 11.7056 87.8789 12.1775 87.2934 12.0966C86.0367 11.923 84.0697 11.4437 83.7241 10.1333C83.4343 9.03437 83.6613 8.23076 84.2767 7.31872Z" fill="#63BCE5"/>
<path d="M71.2571 12.0063C70.9146 11.036 70.2841 10.6935 68.8446 10.9467C67.405 11.2 67.3004 12.3474 67.6316 13.2859C67.9629 14.2245 69.043 14.6989 70.0442 14.3456C71.517 13.8257 71.5996 12.9767 71.2571 12.0063Z" fill="#F8A300"/>
<path d="M73.992 19.8942C72.9173 20.636 71.8662 20.8503 70.7086 20.25C69.5953 19.6726 69.4838 17.7107 69.5351 16.4535C69.56 15.8452 70.1343 15.3879 70.6972 15.6196C71.7925 16.0705 72.3379 18.1665 72.8434 17.838C73.3489 17.5094 71.4852 16.1215 71.6539 14.8852C71.7338 14.2996 72.4083 14.0568 72.924 14.3455C74.031 14.9651 75.6881 16.1284 75.5323 17.4745C75.4017 18.6035 74.8975 19.2692 73.992 19.8942Z" fill="#63BCE5"/>
<path d="M77.2564 10.4551C77.6708 11.6934 77.5849 12.7627 76.6868 13.7081C75.8231 14.6174 73.9073 14.18 72.7138 13.7817C72.1363 13.589 71.8563 12.9104 72.2353 12.4338C72.9725 11.5067 75.1374 11.5646 74.9621 10.9878C74.7868 10.4109 72.9362 11.8161 71.7952 11.3109C71.2548 11.0716 71.2088 10.3562 71.6293 9.94094C72.5318 9.04942 74.1094 7.78033 75.3594 8.30361C76.4077 8.7425 76.9073 9.41166 77.2564 10.4551Z" fill="#63BCE5"/>
<path d="M64.4783 19.3882C63.3601 18.7138 62.7324 17.8439 62.8035 16.5418C62.8718 15.2896 64.6142 14.3809 65.7812 13.9106C66.3459 13.683 66.9989 14.0183 67.0192 14.6268C67.0588 15.8106 65.3727 17.1698 65.8801 17.4955C66.3875 17.8211 66.8859 15.5515 68.0822 15.1967C68.6488 15.0286 69.1475 15.5435 69.0966 16.1323C68.9871 17.3962 68.6085 19.3851 67.3174 19.7969C66.2346 20.1422 65.4205 19.9564 64.4783 19.3882Z" fill="#63BCE5"/>
<path d="M61.419 10.0256C61.7214 8.75531 62.3592 7.89284 63.6212 7.56455C64.8349 7.24881 66.2304 8.63238 67.0334 9.6011C67.4219 10.0698 67.301 10.7939 66.7275 10.9983C65.6118 11.396 63.8042 10.2031 63.6483 10.7855C63.4924 11.3678 65.8061 11.1525 66.5079 12.1842C66.8403 12.6729 66.5014 13.3046 65.925 13.4351C64.6877 13.7152 62.6778 13.9592 61.893 12.8546C61.2347 11.9281 61.1641 11.096 61.419 10.0256Z" fill="#63BCE5"/>
<path d="M69.8936 4.16912C71.1979 4.23167 72.1634 4.69921 72.7191 5.87884C73.2536 7.01336 72.1517 8.64042 71.348 9.60849C70.9591 10.0769 70.2251 10.0919 69.9183 9.56603C69.3214 8.54299 70.1598 6.54613 69.5587 6.50048C68.9575 6.45483 69.5966 8.68892 68.7122 9.56924C68.2933 9.98617 67.6099 9.76986 67.3752 9.22747C66.8714 8.06318 66.2602 6.13297 67.2009 5.15757C67.9899 4.33949 68.7946 4.11642 69.8936 4.16912Z" fill="#63BCE5"/>
<path d="M33.693 10.9177C32.8096 11.4455 32.5987 12.1313 33.1318 13.4923C33.665 14.8532 34.8104 14.7287 35.6648 14.2182C36.5193 13.7078 36.7705 12.5551 36.226 11.6437C35.425 10.3029 34.5764 10.39 33.693 10.9177Z" fill="#F8A300"/>
<path d="M40.8845 6.67644C41.8244 7.58304 42.2424 8.57093 41.8831 9.82443C41.5375 11.03 39.6364 11.5276 38.3939 11.7261C37.7927 11.8221 37.2308 11.3497 37.3466 10.752C37.5718 9.58916 39.5184 8.63977 39.0963 8.20928C38.6742 7.77879 37.6826 9.88029 36.4373 9.95962C35.8475 9.9972 35.4761 9.38414 35.6569 8.82151C36.0452 7.61375 36.8576 5.7592 38.2079 5.64546C39.3404 5.55007 40.0927 5.91257 40.8845 6.67644Z" fill="#63BCE5"/>
<path d="M30.9857 5.34388C32.1175 4.69262 33.1826 4.5652 34.2871 5.25836C35.3494 5.92502 35.2998 7.8895 35.1456 9.13825C35.071 9.74248 34.4612 10.1512 33.9191 9.87406C32.8644 9.33493 32.4926 7.20134 31.9619 7.48733C31.4312 7.77333 33.1749 9.30927 32.9054 10.5277C32.7778 11.1047 32.0857 11.2914 31.5954 10.9615C30.5429 10.2532 28.9867 8.95803 29.2522 7.6292C29.475 6.51469 30.032 5.89261 30.9857 5.34388Z" fill="#63BCE5"/>
<path d="M42.2711 16.1018C41.8313 17.3314 41.1029 18.1188 39.8125 18.3069C38.5715 18.4878 37.3359 16.9597 36.6439 15.9088C36.3091 15.4003 36.5085 14.6939 37.101 14.5535C38.2535 14.2804 39.9196 15.6642 40.1383 15.1024C40.3571 14.5406 38.0337 14.5012 37.4492 13.3988C37.1723 12.8767 37.5783 12.2859 38.1656 12.2193C39.4261 12.0764 41.4506 12.054 42.1098 13.238C42.6626 14.231 42.6416 15.0658 42.2711 16.1018Z" fill="#63BCE5"/>
<path d="M33.6989 20.9539C32.3938 20.9088 31.4222 20.4543 30.8506 19.2823C30.3009 18.155 31.3809 16.5133 32.1716 15.5345C32.5542 15.0609 33.2879 15.0361 33.6017 15.5578C34.2123 16.5727 33.4008 18.5807 34.0025 18.6182C34.6042 18.6558 33.9352 16.4305 34.8076 15.5384C35.2208 15.1158 35.9071 15.323 36.1491 15.8621C36.6685 17.0196 37.3056 18.9414 36.3781 19.9293C35.6001 20.7579 34.7985 20.9918 33.6989 20.9539Z" fill="#63BCE5"/>
<path d="M26.281 13.8056C26.0842 12.5147 26.3514 11.4758 27.3977 10.6975C28.404 9.94905 30.217 10.7072 31.325 11.3034C31.8611 11.5919 32.021 12.3084 31.5663 12.7132C30.6816 13.5008 28.5583 13.0742 28.6325 13.6724C28.7068 14.2707 30.7702 13.2022 31.8081 13.8948C32.2997 14.2229 32.2229 14.9356 31.7377 15.273C30.6962 15.9973 28.9251 16.9784 27.7828 16.2494C26.8248 15.6379 26.4469 14.8933 26.281 13.8056Z" fill="#63BCE5"/>
<path d="M16.1918 30.5021C15.174 30.6538 14.7178 31.2077 14.6927 32.6691C14.6675 34.1305 15.7741 34.4514 16.7585 34.3047C17.743 34.158 18.4141 33.1878 18.2576 32.1377C18.0274 30.5929 17.2096 30.3504 16.1918 30.5021Z" fill="#F8A300"/>
<path d="M24.4567 29.3183C24.9805 30.5144 24.991 31.5871 24.1815 32.6094C23.4029 33.5925 21.4556 33.3289 20.2311 33.0394C19.6386 32.8993 19.2989 32.2486 19.6335 31.7399C20.2845 30.7504 22.4459 30.6136 22.2195 30.0548C21.9931 29.4961 20.2761 31.0618 19.0944 30.661C18.5347 30.4712 18.4246 29.7629 18.8061 29.3115C19.6249 28.3426 21.0822 26.9369 22.3741 27.3459C23.4576 27.6888 24.0152 28.3104 24.4567 29.3183Z" fill="#63BCE5"/>
<path d="M15.8103 24.3178C17.1049 24.1465 18.1383 24.4342 18.8957 25.4957C19.6242 26.5166 18.8303 28.3142 18.2123 29.4102C17.9133 29.9405 17.1938 30.0863 16.798 29.6237C16.0281 28.7236 16.4966 26.6091 15.897 26.6715C15.2973 26.7339 16.3249 28.8181 15.6119 29.8421C15.2742 30.3271 14.5632 30.2363 14.2354 29.7445C13.5318 28.6889 12.5859 26.8987 13.3374 25.7711C13.9676 24.8253 14.7196 24.4622 15.8103 24.3178Z" fill="#63BCE5"/>
<path d="M22.1506 38.5611C21.2758 39.5306 20.3024 39.9814 19.0376 39.6641C17.8212 39.3588 17.2605 37.4754 17.0207 36.2403C16.9047 35.6426 17.3581 35.0652 17.9593 35.161C19.129 35.3473 20.1428 37.2611 20.559 36.8249C20.9751 36.3888 18.8418 35.4678 18.7209 34.2258C18.6637 33.6376 19.2641 33.2459 19.8324 33.4079C21.0524 33.7557 22.933 34.5057 23.0917 35.8515C23.2248 36.9802 22.8876 37.7442 22.1506 38.5611Z" fill="#63BCE5"/>
<path d="M12.3766 39.7843C11.187 39.2458 10.4615 38.4556 10.3792 37.1542C10.3001 35.9026 11.9238 34.7957 13.0276 34.1916C13.5616 33.8993 14.2495 34.1557 14.3411 34.7576C14.5193 35.9286 13.0044 37.4763 13.5465 37.7401C14.0886 38.004 14.3172 35.6915 15.4636 35.1988C16.0066 34.9654 16.5623 35.4182 16.5808 36.0089C16.6204 37.2769 16.4778 39.2965 15.244 39.8569C14.2092 40.327 13.379 40.238 12.3766 39.7843Z" fill="#63BCE5"/>
<path d="M8.239 30.3507C8.54847 29.082 9.19108 28.2231 10.4549 27.9019C11.6704 27.5929 13.0581 28.9842 13.8557 29.9573C14.2416 30.4282 14.1167 31.1516 13.5421 31.3528C12.4242 31.7443 10.6233 30.5414 10.4641 31.1229C10.305 31.7044 12.6198 31.5019 13.3159 32.5375C13.6456 33.028 13.3032 33.6578 12.7261 33.7851C11.4872 34.0583 9.47601 34.2912 8.69731 33.1822C8.04421 32.252 7.97825 31.4196 8.239 30.3507Z" fill="#63BCE5"/>
<path d="M115.585 99.2003C114.56 99.1106 113.988 99.5429 113.622 100.958C113.257 102.373 114.259 102.944 115.25 103.03C116.242 103.117 117.12 102.33 117.213 101.273C117.349 99.7166 116.611 99.2901 115.585 99.2003Z" fill="#F8A300"/>
<path d="M123.899 99.9742C124.129 101.26 123.889 102.305 122.864 103.11C121.878 103.885 120.045 103.175 118.922 102.608C118.379 102.333 118.2 101.621 118.644 101.205C119.508 100.394 121.641 100.765 121.551 100.169C121.462 99.5728 119.427 100.695 118.371 100.03C117.871 99.7149 117.929 99.0004 118.405 98.6504C119.428 97.899 121.172 96.8718 122.333 97.5707C123.307 98.1568 123.704 98.8913 123.899 99.9742Z" fill="#63BCE5"/>
<path d="M116.656 93.0963C117.955 93.2315 118.893 93.7522 119.382 94.961C119.853 96.1235 118.662 97.6866 117.805 98.6083C117.391 99.0543 116.657 99.0284 116.38 98.4862C115.841 97.4315 116.79 95.4845 116.192 95.4054C115.594 95.3263 116.108 97.5925 115.176 98.4221C114.734 98.8151 114.064 98.561 113.86 98.0063C113.422 96.8157 112.919 94.8544 113.913 93.933C114.746 93.1602 115.562 92.9824 116.656 93.0963Z" fill="#63BCE5"/>
<path d="M119.501 108.425C118.425 109.164 117.373 109.376 116.217 108.772C115.105 108.192 114.999 106.23 115.054 104.973C115.08 104.364 115.656 103.909 116.218 104.142C117.312 104.596 117.852 106.693 118.358 106.366C118.865 106.039 117.005 104.646 117.177 103.41C117.258 102.825 117.934 102.584 118.448 102.874C119.554 103.496 121.208 104.664 121.048 106.01C120.915 107.139 120.409 107.803 119.501 108.425Z" fill="#63BCE5"/>
<path d="M109.711 107.337C108.68 106.536 108.159 105.598 108.382 104.314C108.597 103.078 110.434 102.38 111.648 102.05C112.236 101.89 112.845 102.3 112.794 102.907C112.694 104.087 110.86 105.239 111.326 105.622C111.791 106.005 112.553 103.809 113.782 103.597C114.365 103.497 114.8 104.067 114.68 104.646C114.423 105.888 113.813 107.819 112.483 108.076C111.367 108.292 110.58 108.012 109.711 107.337Z" fill="#63BCE5"/>
<path d="M107.887 97.1985C108.484 96.037 109.309 95.3515 110.613 95.3337C111.867 95.3166 112.892 96.993 113.441 98.1253C113.706 98.6732 113.416 99.3476 112.81 99.4093C111.632 99.5293 110.161 97.9397 109.871 98.4681C109.58 98.9965 111.879 99.3392 112.314 100.509C112.52 101.062 112.041 101.595 111.45 101.584C110.181 101.561 108.171 101.319 107.673 100.059C107.254 99.0021 107.384 98.1772 107.887 97.1985Z" fill="#63BCE5"/>
<path d="M87.2296 113.387C86.2129 113.546 85.7608 114.103 85.7463 115.564C85.7318 117.026 86.8407 117.339 87.824 117.185C88.8073 117.031 89.4714 116.056 89.3073 115.007C89.0658 113.464 88.2462 113.227 87.2296 113.387Z" fill="#F8A300"/>
<path d="M95.4857 112.141C96.0183 113.334 96.0366 114.406 95.2346 115.434C94.4632 116.423 92.514 116.174 91.2874 115.893C90.6939 115.758 90.3495 115.109 90.6804 114.598C91.3241 113.604 93.4845 113.451 93.254 112.894C93.0236 112.337 91.318 113.915 90.1334 113.523C89.5723 113.338 89.4571 112.63 89.8353 112.176C90.6471 111.201 92.094 109.785 93.3888 110.184C94.4749 110.519 95.037 111.137 95.4857 112.141Z" fill="#63BCE5"/>
<path d="M86.8029 107.205C88.0961 107.024 89.1316 107.304 89.8968 108.36C90.6326 109.376 89.852 111.179 89.242 112.28C88.9468 112.812 88.2284 112.963 87.8293 112.503C87.0528 111.609 87.5059 109.491 86.9067 109.558C86.3075 109.625 87.3503 111.701 86.6447 112.731C86.3106 113.218 85.5989 113.132 85.2676 112.643C84.5563 111.592 83.5974 109.809 84.3406 108.676C84.9639 107.726 85.7132 107.357 86.8029 107.205Z" fill="#63BCE5"/>
<path d="M93.2469 121.402C92.3792 122.378 91.4091 122.836 90.142 122.528C88.9234 122.231 88.349 120.352 88.1002 119.119C87.9798 118.522 88.429 117.941 89.0309 118.033C90.2019 118.21 91.2296 120.117 91.6426 119.678C92.0556 119.238 89.9156 118.333 89.7857 117.092C89.7242 116.504 90.3217 116.108 90.8912 116.266C92.1137 116.605 93.9997 117.341 94.1682 118.686C94.3096 119.813 93.9779 120.58 93.2469 121.402Z" fill="#63BCE5"/>
<path d="M83.4824 122.697C82.2889 122.167 81.5577 121.382 81.4659 120.081C81.3777 118.83 82.9933 117.711 84.0926 117.099C84.6245 116.803 85.3143 117.054 85.4102 117.656C85.597 118.825 84.0934 120.384 84.6374 120.644C85.1814 120.904 85.3931 118.59 86.5359 118.089C87.0772 117.851 87.6362 118.3 87.6589 118.891C87.7079 120.158 87.58 122.179 86.3503 122.748C85.319 123.226 84.488 123.143 83.4824 122.697Z" fill="#63BCE5"/>
<path d="M79.2756 113.293C79.5758 112.022 80.2122 111.159 81.4736 110.828C82.6868 110.51 84.0846 111.891 84.8893 112.859C85.2786 113.327 85.159 114.051 84.5859 114.256C83.4709 114.656 81.6612 113.466 81.5063 114.049C81.3514 114.632 83.6647 114.412 84.3683 115.443C84.7015 115.931 84.3638 116.563 83.7876 116.695C82.5508 116.977 80.5413 117.224 79.7545 116.121C79.0947 115.196 79.0226 114.364 79.2756 113.293Z" fill="#63BCE5"/>
<path d="M105.527 22.9938C101.845 22.213 94.0005 25.5 94.0005 25.5C94.0005 25.5 101.788 23.6772 105.473 24.006C107.466 24.1837 110.5 24.9996 110.5 24.9996C110.5 24.9996 107.576 23.4281 105.527 22.9938Z" fill="#65D157"/>
<path d="M93.5005 59.5L95.9581 60.0042C95.9581 60.0042 100.691 60.226 103.585 59.4949C106.016 58.8807 109.5 57 109.5 57C109.5 57 105.83 58.108 103.414 58.5043C100.508 58.9811 93.5005 59.5 93.5005 59.5Z" fill="#65D157"/>
<path d="M18.4997 54.5L20.9995 59.5C20.9995 59.5 20.2713 53.0698 19.4997 49.0002C18.7145 44.8591 17.0006 38.5007 17.0006 38.5007C17.0006 38.5007 17.6212 44.8988 17.9999 49.0002C18.1983 51.1477 18.4997 54.5 18.4997 54.5Z" fill="#65D157"/>
<path d="M82.1219 29.5218L86 27C86 27 87.0069 25.5263 87.5 24.5C88.4641 22.4934 89 19.0003 89 19.0003C89 19.0003 87.3366 22.4509 86 24.5C84.6463 26.5754 82.1219 29.5218 82.1219 29.5218Z" fill="#65D157"/>
<path d="M69 30L71.0001 34.4992C71.0001 34.4992 69.9682 28.1153 69.5 24C69.2782 22.0501 69.0002 18.9995 69.0002 18.9995C69.0002 18.9995 68.5327 22.0377 68.5003 23.9999C68.4614 26.3509 69 30 69 30Z" fill="#65D157"/>
<path d="M42.0386 33.2753L44.0004 35.5006C44.0004 35.5006 43.3075 26.6673 40.5 22C39.4935 20.3268 37.5 18 37.5 18C37.5 18 38.8259 20.3889 39.5 22C41.2422 26.1637 42.0386 33.2753 42.0386 33.2753Z" fill="#65D157"/>
<path d="M103 90.5L106.5 89.0005C106.5 89.0005 107.176 87.8113 107.5 87.0005C108.5 84.5005 108.5 81.0007 108.5 81.0007C108.5 81.0007 107.389 84.8759 106.001 87.001C105.016 88.5079 103 90.5 103 90.5Z" fill="#65D157"/>
<path d="M97.6354 102.005L99.0001 103C99.0001 103 102.046 103.68 104 103.499C106.03 103.312 110 102 110 102C110 102 105.943 102.457 104 102.499C101.508 102.554 97.6354 102.005 97.6354 102.005Z" fill="#65D157"/>
<path d="M74.9998 105.499L70.9998 105.999C70.9998 105.999 76.8145 106.321 79.9998 107.999C81.2457 108.656 83.9999 111 83.9999 111C83.9999 111 81.7323 107.898 80.5 107C78.7009 105.688 74.9998 105.499 74.9998 105.499Z" fill="#65D157"/>
</g>
<defs>
<clipPath id="clip0_2799_96">
<rect width="128" height="128" fill="white" transform="matrix(-1 0 0 1 128 0)"/>
</clipPath>
</defs>
</svg>
