<svg width="128" height="128" viewBox="0 0 128 128" fill="none" xmlns="http://www.w3.org/2000/svg">
<g clip-path="url(#clip0_2630_9603)">
<mask id="mask0_2630_9603" style="mask-type:luminance" maskUnits="userSpaceOnUse" x="0" y="0" width="128" height="128">
<path d="M128 0L0 0L0 128H128V0Z" fill="white"/>
</mask>
<g mask="url(#mask0_2630_9603)">
<path d="M128 0L0 0L0 128H128V0Z" fill="#FBF8EF"/>
<path d="M64 2.19063e-06L0 64L64 128L128 64L64 2.19063e-06Z" fill="#63BCE5"/>
<path d="M102.927 56.8828C103.63 56.8448 104.177 56.9074 104.66 57.1104L104.93 57.2363C105.545 57.5508 106.071 58.0203 106.452 58.6006L106.567 58.7939C106.82 59.2585 106.955 59.8232 107.027 60.5723L107.055 60.9053C107.11 61.7089 107.109 62.7088 107.109 63.9883C107.109 65.2675 107.11 66.267 107.055 67.0703L107.027 67.4033C106.955 68.1522 106.82 68.717 106.567 69.1816L106.452 69.375C106.071 69.9555 105.545 70.4248 104.93 70.7393L104.661 70.8643C104.178 71.0673 103.632 71.1304 102.929 71.0928L102.617 71.0703C101.975 71.0139 101.207 70.8879 100.258 70.7158L99.2451 70.5293C94.5763 69.664 90.9285 68.9884 88.2275 68.3535L87.1279 68.083C85.9118 67.7698 84.9294 67.4622 84.1719 67.1406L83.8613 67.002C83.1678 66.676 82.6977 66.3336 82.4414 65.957L82.3447 65.7939C81.7726 64.6608 81.7722 63.3229 82.3438 62.1895V62.1885L82.4404 62.0254C82.6966 61.6488 83.1668 61.3066 83.8604 60.9805L84.1709 60.8418C84.9282 60.52 85.91 60.211 87.126 59.8975L88.2266 59.6279C90.9273 58.9921 94.5747 58.3141 99.2432 57.4473L100.256 57.2607C101.206 57.0882 101.974 56.962 102.616 56.9053L102.927 56.8828Z" fill="#F8A300" stroke="#FBF8EF"/>
<path d="M23.7773 57.042C24.2796 56.8794 24.8588 56.8502 25.6074 56.917L25.9385 56.9521C26.737 57.0454 27.718 57.2276 28.9736 57.4619L32.6973 58.1602C36.1753 58.8187 38.9249 59.369 40.9932 59.9043L41.9707 60.1719C42.8919 60.4383 43.6449 60.7042 44.2354 60.9824L44.5176 61.123C45.1429 61.4524 45.5488 61.8005 45.7441 62.1855L45.8457 62.4014C46.2875 63.418 46.2876 64.5733 45.8457 65.5898L45.7441 65.8057C45.5486 66.1907 45.1424 66.5387 44.5166 66.8682L44.2354 67.0078C43.6449 67.2861 42.8921 67.5529 41.9707 67.8193L40.9932 68.0859C38.9247 68.6213 36.1748 69.1719 32.6963 69.8301L28.9736 70.5273C27.7181 70.7616 26.737 70.9449 25.9385 71.0381L25.6074 71.0723C24.8591 71.139 24.2796 71.1107 23.7773 70.9482L23.5664 70.8701C22.9218 70.6007 22.361 70.1675 21.9375 69.6162L21.7646 69.373C21.478 68.9359 21.3163 68.4106 21.2256 67.7139L21.1914 67.4043C21.1096 66.5497 21.1094 65.4546 21.1094 63.9951C21.1094 62.5355 21.1096 61.4407 21.1914 60.5859V60.585L21.2256 60.2764C21.3033 59.6787 21.4333 59.2074 21.6494 58.8096L21.7646 58.6162C22.2025 57.9486 22.8299 57.427 23.5664 57.1191L23.7773 57.042Z" fill="#F8A300" stroke="#FBF8EF"/>
<path d="M64.1011 21.001C65.5658 21.001 66.6645 21.0008 67.522 21.083L67.8325 21.1182C68.5319 21.2094 69.0587 21.3712 69.4966 21.6592L69.7397 21.833C70.2896 22.2569 70.7212 22.8181 70.9897 23.4619L71.0679 23.6729C71.207 24.1048 71.247 24.5935 71.2124 25.1973L71.189 25.5088C71.1301 26.1522 71.0006 26.9202 70.8247 27.8711L70.6343 28.8857C69.7554 33.5323 69.0686 37.1624 68.4263 39.8506L68.1528 40.9453C67.8365 42.1554 67.526 43.133 67.2026 43.8867L67.063 44.1963C66.7357 44.8864 66.393 45.3547 66.0161 45.6094L65.853 45.7051C64.7868 46.2408 63.5412 46.2706 62.4556 45.7959L62.2407 45.6943C61.8553 45.4978 61.5075 45.0897 61.1792 44.4609L61.0396 44.1777C60.7626 43.5846 60.4979 42.8284 60.2339 41.9033L59.9702 40.9209C59.4402 38.8431 58.8972 36.0809 58.2485 32.5869L57.561 28.8467C57.3315 27.5928 57.1522 26.6129 57.062 25.8154L57.0288 25.4844C56.9556 24.6304 57.0061 23.9971 57.2378 23.4473L57.3638 23.1777C57.6792 22.5619 58.1494 22.0364 58.731 21.6553L58.9243 21.54C59.3879 21.2885 59.9513 21.1545 60.6978 21.083L61.0288 21.0557C61.8297 21.0008 62.826 21.001 64.1011 21.001Z" fill="#F8A300" stroke="#FBF8EF"/>
<path d="M62.46 82.2002C63.5457 81.7256 64.7912 81.7552 65.8574 82.291L66.0205 82.3877C66.3971 82.6426 66.7402 83.1099 67.0674 83.7998L67.207 84.1094C67.5302 84.8632 67.8401 85.8407 68.1562 87.0508L68.4287 88.1455C69.0706 90.8338 69.7565 94.4644 70.6348 99.1113L70.8252 100.125C71.001 101.076 71.1307 101.844 71.1895 102.487L71.2129 102.799C71.2474 103.402 71.2075 103.891 71.0684 104.322L70.9902 104.534C70.7216 105.178 70.2895 105.739 69.7393 106.163L69.4971 106.336C69.0592 106.624 68.5322 106.786 67.833 106.877L67.5225 106.912C66.6651 106.994 65.5668 106.994 64.1025 106.994C62.8277 106.994 61.8311 106.994 61.0303 106.939L60.6982 106.912C59.9518 106.841 59.3885 106.707 58.9248 106.455L58.7314 106.34C58.1499 105.959 57.6787 105.434 57.3633 104.817L57.2383 104.548C57.0064 103.998 56.9559 103.365 57.0293 102.511L57.0625 102.18C57.1529 101.382 57.3327 100.402 57.5625 99.1475L58.25 95.4082C58.8993 91.9142 59.4423 89.1519 59.9727 87.0742L60.2373 86.0918C60.5016 85.1665 60.7669 84.4105 61.0439 83.8174L61.1836 83.5342C61.5119 82.9058 61.8597 82.4982 62.2451 82.3018L62.46 82.2002Z" fill="#F8A300" stroke="#FBF8EF"/>
<path d="M88.2139 30.3574C88.8715 30.1454 89.5749 30.1068 90.2549 30.248L90.4727 30.3027C90.9791 30.4526 91.4734 30.7557 92.0527 31.2334L92.3066 31.4492C92.9125 31.9775 93.6178 32.6832 94.5205 33.5859L95.249 34.3164C95.93 35.0028 96.4698 35.564 96.8809 36.0625L97.0752 36.3066C97.5053 36.8657 97.7632 37.3527 97.8691 37.8662L97.918 38.1602C97.9941 38.7486 97.9385 39.3467 97.7549 39.9111L97.6523 40.1904C97.4536 40.6755 97.1108 41.1072 96.585 41.5771L96.3486 41.7812C95.8527 42.1952 95.2187 42.6474 94.4229 43.1963L93.5713 43.7793C89.6563 46.4564 86.5979 48.5483 84.2383 50.002L83.2695 50.5859C82.1882 51.2211 81.2758 51.6949 80.5127 52.001L80.1943 52.1211C79.4739 52.3791 78.9002 52.4686 78.4531 52.3828L78.2686 52.335C77.138 51.9606 76.2369 51.1037 75.8037 50.0029L75.7236 49.7793C75.5702 49.3088 75.6473 48.6767 75.9453 47.8545L76.0674 47.5371C76.3767 46.7754 76.8545 45.8649 77.4941 44.7861L78.082 43.8193C79.5453 41.4659 81.6491 38.4161 84.3418 34.5127L84.9268 33.667C85.3852 33.0081 85.7762 32.4609 86.1338 32.0117L86.3447 31.7529C86.8971 31.0964 87.3813 30.6842 87.9346 30.459H87.9355L88.2139 30.3574Z" fill="#F8A300" stroke="#FBF8EF"/>
<path d="M48.2236 75.7803C48.8991 75.5693 49.4329 75.5268 49.8438 75.6602L50.0674 75.7412C51.1722 76.1744 52.0324 77.078 52.4062 78.2129L52.4541 78.3965C52.5395 78.8424 52.4504 79.4145 52.1943 80.1318V80.1328C51.9013 80.953 51.389 81.9636 50.668 83.1934L50.667 83.1924C49.5854 85.0374 48.0336 87.3767 46.043 90.3086L43.9082 93.4424C43.1867 94.4991 42.6224 95.3244 42.124 95.957L41.9141 96.2168C41.4322 96.795 41.0019 97.1856 40.5312 97.4268L40.3271 97.5215C39.6808 97.7876 38.9777 97.8789 38.2881 97.7891L37.9932 97.7393C37.4808 97.6331 36.9944 97.3757 36.4365 96.9463L36.1924 96.751C35.6946 96.3403 35.1338 95.8012 34.4482 95.1211L33.7197 94.3936C32.8179 93.4918 32.1127 92.7878 31.585 92.1826L31.3701 91.9287C30.8926 91.3501 30.5885 90.8572 30.4385 90.3516L30.3838 90.1338C30.2213 89.3537 30.2952 88.5426 30.5967 87.8047L30.6904 87.6006C30.9295 87.1307 31.3176 86.701 31.8916 86.2188L32.1494 86.0078C32.778 85.5084 33.599 84.944 34.6494 84.2207L37.7734 82.0723C40.6974 80.0698 43.0304 78.508 44.8711 77.4189L45.751 76.9141C46.5904 76.449 47.3108 76.1031 47.9248 75.8809H47.9258L48.2236 75.7803Z" fill="#F8A300" stroke="#FBF8EF"/>
<path d="M38.2686 30.2041C38.9582 30.1143 39.6613 30.2057 40.3076 30.4717L40.5117 30.5664C40.9823 30.8076 41.4126 31.1979 41.8945 31.7764L42.1045 32.0361C42.6031 32.6689 43.1671 33.4947 43.8887 34.5518L46.0244 37.6855C48.0155 40.6183 49.5685 42.9582 50.6504 44.8037L51.1514 45.6855C51.6134 46.5271 51.957 47.249 52.1768 47.8643L52.2764 48.1631C52.455 48.7432 52.5088 49.2182 52.4355 49.6006L52.3887 49.7842C52.0147 50.9189 51.1546 51.8228 50.0498 52.2559L49.8262 52.3359C49.4151 52.4696 48.8815 52.4278 48.2061 52.2168L47.9072 52.1162C47.2929 51.8938 46.5722 51.5475 45.7324 51.082L44.8525 50.5771C43.0116 49.4875 40.6784 47.9251 37.7539 45.9219L34.6289 43.7734C33.5788 43.0501 32.7585 42.4847 32.1299 41.9854L31.8721 41.7754C31.298 41.293 30.9101 40.8625 30.6709 40.3926L30.5771 40.1885C30.2759 39.4507 30.2017 38.6393 30.3643 37.8594L30.4189 37.6416C30.569 37.1359 30.8732 36.6428 31.3506 36.0645L31.5654 35.8105C32.093 35.2054 32.7977 34.5012 33.6992 33.5996L34.4287 32.8721C35.1143 32.1919 35.6751 31.6528 36.1729 31.2422L36.417 31.0469C36.9751 30.6173 37.462 30.36 37.9746 30.2539L38.2686 30.2041Z" fill="#F8A300" stroke="#FBF8EF"/>
<path d="M78.4438 75.6143C78.891 75.5284 79.4652 75.617 80.186 75.875L80.5034 75.9961C81.2668 76.3021 82.1801 76.7757 83.2622 77.4111L84.231 77.9951C86.5917 79.449 89.6519 81.541 93.5688 84.2188L94.4204 84.8018C95.2167 85.3508 95.851 85.8038 96.3472 86.2178L96.5835 86.4209C97.1094 86.8908 97.4531 87.3222 97.6519 87.8076L97.7544 88.0869C97.9381 88.6512 97.9936 89.2494 97.9175 89.8379L97.8687 90.1318C97.7476 90.7187 97.4281 91.2711 96.8804 91.9355H96.8794C96.4682 92.434 95.9288 92.996 95.2476 93.6826L94.519 94.4131C93.6164 95.3159 92.9111 96.0216 92.3052 96.5498L92.0513 96.7646C91.4718 97.2428 90.9777 97.5465 90.4712 97.6963L90.2534 97.751C89.5737 97.8922 88.8708 97.8536 88.2134 97.6416L87.9351 97.54C87.4506 97.3433 87.0188 97.0033 86.5483 96.4814L86.3442 96.2461C85.7914 95.5895 85.1701 94.6888 84.3413 93.4883H84.3403C81.6454 89.5836 79.5402 86.5329 78.0757 84.1787L77.4878 83.2119C76.7563 81.9787 76.2354 80.9652 75.937 80.1426L75.938 80.1416C75.6396 79.3194 75.5621 78.6883 75.7153 78.2178V78.2168L75.7954 77.9941C76.2284 76.8933 77.1289 76.0359 78.2593 75.6611L78.4438 75.6143Z" fill="#F8A300" stroke="#FBF8EF"/>
<path d="M64 49C72.2843 49 79 55.7157 79 64C79 72.2843 72.2843 79 64 79C55.7157 79 49 72.2843 49 64C49 55.7157 55.7157 49 64 49Z" fill="#F8A300" stroke="#FBF8EF"/>
</g>
<circle cx="6.72457" cy="44.9082" r="3" transform="rotate(-45 6.72457 44.9082)" fill="#F8A300"/>
<circle cx="83.0918" cy="6.72409" r="3" transform="rotate(45 83.0918 6.72409)" fill="#F8A300"/>
<circle cx="6.72461" cy="83.0922" r="3" transform="rotate(45 6.72461 83.0922)" fill="#F8A300"/>
<circle cx="83.0918" cy="121.275" r="3" transform="rotate(-45 83.0918 121.275)" fill="#F8A300"/>
<circle cx="19.4521" cy="32.1807" r="3" transform="rotate(-45 19.4521 32.1807)" fill="#F8A300"/>
<circle cx="95.8188" cy="19.4516" r="3" transform="rotate(45 95.8188 19.4516)" fill="#F8A300"/>
<circle cx="19.4512" cy="95.8188" r="3" transform="rotate(45 19.4512 95.8188)" fill="#F8A300"/>
<circle cx="95.8198" cy="108.548" r="3" transform="rotate(-45 95.8198 108.548)" fill="#F8A300"/>
<circle cx="32.1801" cy="19.4521" r="3" transform="rotate(-45 32.1801 19.4521)" fill="#F8A300"/>
<circle cx="108.546" cy="32.1782" r="3" transform="rotate(45 108.546 32.1782)" fill="#F8A300"/>
<circle cx="32.1782" cy="108.545" r="3" transform="rotate(45 32.1782 108.545)" fill="#F8A300"/>
<circle cx="108.548" cy="95.8203" r="3" transform="rotate(-45 108.548 95.8203)" fill="#F8A300"/>
<circle cx="44.9082" cy="6.72461" r="3" transform="rotate(-45 44.9082 6.72461)" fill="#F8A300"/>
<circle cx="121.272" cy="44.9048" r="3" transform="rotate(45 121.272 44.9048)" fill="#F8A300"/>
<circle cx="44.9053" cy="121.273" r="3" transform="rotate(45 44.9053 121.273)" fill="#F8A300"/>
<circle cx="121.276" cy="83.0918" r="3" transform="rotate(-45 121.276 83.0918)" fill="#F8A300"/>
<path d="M124 92V124H92L124 92Z" fill="#63BCE5"/>
<path d="M124 36V4H92L124 36Z" fill="#63BCE5"/>
<path d="M4 92V124H36L4 92Z" fill="#63BCE5"/>
<path d="M36 4L4 4L4 36L36 4Z" fill="#63BCE5"/>
</g>
<defs>
<clipPath id="clip0_2630_9603">
<rect width="128" height="128" fill="white"/>
</clipPath>
</defs>
</svg>
