<svg width="128" height="128" viewBox="0 0 128 128" fill="none" xmlns="http://www.w3.org/2000/svg">
<g clip-path="url(#clip0_2741_1492)">
<rect width="128" height="128" fill="#FBF8EF"/>
<path d="M38.5001 6.4998C28.5075 5.17385 23 3.26325 13.5001 9.99995C-2.70008 21.488 13.3573 37.2803 11.0001 56.9999C10.0272 65.1384 6.68754 69.3057 6.50008 77.5C6.29075 86.6499 11.6728 89.9444 13.0001 99C14.0539 106.19 5.07872 111.733 9.50007 117.5C21.0001 132.5 48.0284 116.959 70.5001 116.5C90.4127 116.093 109 134 121 117C128.757 106.011 119.131 98.546 118 87C116.721 73.9435 112.025 66.1503 115.5 53.4999C117.721 45.4146 121.413 42.8142 122.5 34.5C123.797 24.5783 115.985 11.469 103.5 6.4998C92.541 2.138 85.2937 9.80565 73.5001 9.99995C59.7654 10.2262 52.1172 8.3067 38.5001 6.4998Z" fill="#63BCE5"/>
<path d="M19.506 20.2962L19.5199 20.2303L19.5488 20.1406C19.6336 19.9413 19.8407 19.8153 20.0632 19.8397L23.0462 20.1663C23.178 20.1808 23.2986 20.2473 23.3816 20.3507C23.4645 20.454 23.5034 20.5859 23.489 20.7176L20.7526 45.6755C21.0895 44.8899 21.4812 44.0084 21.9215 43.0764C23.484 39.7691 25.672 35.7694 28.1365 33.1567L28.7276 32.5387C31.6725 29.4987 34.4611 27.2519 37.5858 25.6074C40.9198 23.8529 44.6099 22.7981 49.2381 22.1755L49.6672 22.1232C51.8697 21.8847 54.9229 21.9582 58.2696 22.1997C61.8495 22.4581 65.8009 22.9123 69.4751 23.4021C73.1503 23.8921 76.5534 24.4185 79.037 24.8224C80.2789 25.0243 81.2915 25.1962 81.9937 25.3171C82.3446 25.3775 82.6185 25.425 82.8043 25.4578C82.8971 25.4741 82.9682 25.4869 83.016 25.4954C83.0397 25.4996 83.0577 25.5025 83.0699 25.5047C83.076 25.5058 83.0811 25.5072 83.0842 25.5077C83.0855 25.508 83.0866 25.5073 83.0873 25.5074L83.0883 25.5076C83.0885 25.5076 83.089 25.5082 83.0005 26.0001L83.0892 25.5078C83.2969 25.5454 83.4591 25.71 83.4938 25.9183L83.9931 28.9175C84.0197 29.0775 83.9672 29.2407 83.8521 29.3549C83.7656 29.4406 83.6522 29.4915 83.5333 29.4993L83.4138 29.4932L83.3957 29.4893L83.1309 29.4436C82.9451 29.4116 82.671 29.3649 82.3196 29.3057C81.6167 29.1873 80.6034 29.0194 79.3619 28.8208C76.8783 28.4234 73.4826 27.9043 69.8347 27.4158C66.186 26.9272 62.2893 26.47 58.8013 26.1967C55.5209 25.9397 52.6342 25.8477 50.6589 26.0354L50.276 26.0765C45.9265 26.606 42.8425 27.5865 40.0998 29.2094C37.6907 30.635 35.522 32.5695 32.9784 35.182L31.8625 36.3442C28.411 39.9856 26.0033 42.8851 24.3026 46.1295C22.7115 49.1648 21.7258 52.5287 21.1139 57.1235L20.9968 58.0589C20.5393 61.9281 21.1515 65.4301 21.8914 69.0023C22.5821 72.337 23.3886 75.7479 23.4724 79.4965L23.4793 80.2504C23.4481 87.4999 21.3096 96.4952 19.1954 103.647C18.1364 107.229 17.0802 110.362 16.2879 112.599C15.9012 113.691 15.5769 114.569 15.3465 115.184C15.5596 115.112 15.8035 115.028 16.0761 114.937C17.177 114.568 18.742 114.052 20.5982 113.461C24.3095 112.28 29.1909 110.799 33.8613 109.607L34.671 109.406C38.7884 108.415 43.9 107.602 48.0686 107.027C50.2943 106.72 52.2563 106.48 53.6619 106.318C54.3647 106.236 54.9292 106.174 55.3176 106.132C55.5117 106.111 55.6619 106.095 55.7638 106.084C55.8147 106.079 55.854 106.075 55.8802 106.072C55.8827 106.072 55.885 106.072 55.8873 106.071C55.8914 106.07 55.8971 106.069 55.9042 106.067C55.9351 106.058 55.9943 106.037 56.0796 105.997C56.25 105.918 56.5285 105.76 56.9061 105.456C57.6633 104.846 58.8125 103.652 60.2836 101.34L60.5204 100.944C61.6255 98.9719 61.5893 97.0738 61.4421 95.0118C61.2862 92.8283 60.997 90.4333 62.0349 87.8155L62.178 87.4724C63.7187 83.9206 67.3176 80.2668 70.5076 77.5058C72.1653 76.0711 73.7338 74.8597 74.8878 74.007C75.4647 73.5806 75.9385 73.2433 76.2688 73.0123C76.4338 72.897 76.5635 72.8079 76.6518 72.7477C76.696 72.7175 76.7302 72.6938 76.7533 72.6782C76.7646 72.6705 76.7739 72.6648 76.7799 72.6609C76.7826 72.659 76.7844 72.6571 76.7859 72.6561L76.7882 72.6546L76.7891 72.6548L76.8812 72.6063C76.9776 72.5678 77.0846 72.5596 77.1871 72.5849C77.2893 72.6103 77.3804 72.6667 77.4477 72.7456L77.5064 72.8318L77.5071 72.8329L77.5077 72.835C77.5087 72.837 77.5108 72.8404 77.5127 72.8441C77.5167 72.8514 77.5227 72.8619 77.53 72.8757C77.5451 72.9039 77.5673 72.9461 77.5956 73.0002C77.6523 73.1086 77.734 73.2679 77.8366 73.4721C78.042 73.8809 78.3306 74.4716 78.6626 75.2038C79.3263 76.6675 80.1678 78.7005 80.8789 80.9736C81.5893 83.2446 82.1745 85.7714 82.3137 88.2186C82.4439 90.5089 82.1858 92.7665 81.2411 94.6832L81.0425 95.0625C80.0326 96.882 78.6793 97.8436 77.1386 98.3513C75.6293 98.8486 73.9457 98.9063 72.296 98.9604C69.0505 99.067 65.8296 99.1679 63.2479 102.034L63.0001 102.321C61.7645 103.803 61.0005 104.925 60.5478 105.668C60.4391 105.847 60.3482 106.004 60.2732 106.139C60.2781 106.139 60.283 106.139 60.2879 106.14C60.7665 106.187 61.462 106.256 62.3293 106.346C64.0638 106.525 66.4871 106.783 69.2412 107.099C74.7467 107.732 81.5862 108.601 86.8946 109.54L88.1491 109.767C94.5242 110.951 102.337 112.805 108.698 114.401C112.091 115.253 115.075 116.032 117.21 116.598C118.277 116.881 119.132 117.111 119.721 117.27C120.015 117.349 120.243 117.412 120.397 117.454C120.474 117.475 120.533 117.491 120.572 117.502C120.592 117.507 120.607 117.51 120.617 117.513C120.622 117.514 120.626 117.516 120.628 117.517L120.632 117.517L120.5 118L120.633 117.518C120.804 117.565 120.938 117.7 120.983 117.872C121.029 118.044 120.979 118.227 120.853 118.353L118.853 120.353C118.741 120.466 118.584 120.517 118.429 120.495L118.36 120.48C118.357 120.479 118.354 120.478 118.35 120.477C118.341 120.474 118.327 120.47 118.309 120.465C118.272 120.455 118.218 120.44 118.147 120.42C118.004 120.38 117.792 120.32 117.519 120.244C116.972 120.092 116.176 119.872 115.181 119.601C113.193 119.06 110.41 118.316 107.236 117.508C101.281 115.993 93.9609 114.255 87.9172 113.196L86.7264 112.993C75.7591 111.189 69.7429 110.603 58.7761 110.112L56.5144 110.014C49.1058 109.706 44.5767 110.973 37.9713 112.687L34.9993 113.445C30.0171 114.686 23.8221 116.936 18.8601 118.882C16.382 119.854 14.2165 120.748 12.6707 121.4C11.898 121.725 11.2805 121.99 10.8562 122.173C10.6443 122.265 10.4803 122.336 10.3697 122.384C10.3144 122.408 10.2714 122.427 10.2433 122.439C10.2297 122.445 10.2195 122.45 10.2125 122.453C10.209 122.454 10.2056 122.455 10.2038 122.456L10.2025 122.458L10.2015 122.457C10.1697 122.472 10.1368 122.483 10.103 122.49L10 122.5L7.00007 122.5C6.82486 122.5 6.66245 122.408 6.57196 122.258C6.48157 122.108 6.47586 121.921 6.55778 121.766L6.55893 121.765C6.55928 121.765 6.55995 121.763 6.56069 121.762C6.56218 121.759 6.56442 121.755 6.56733 121.749C6.5734 121.738 6.58219 121.72 6.59429 121.697C6.61853 121.651 6.65451 121.581 6.70172 121.49C6.79633 121.307 6.93567 121.036 7.11284 120.685C7.46717 119.982 7.97423 118.959 8.58217 117.678C9.79842 115.114 11.4196 111.519 13.0384 107.395C16.2827 99.1282 19.491 88.8003 19.4598 80.3912L19.4465 79.5491C19.3372 75.3982 18.5478 72.1344 17.6911 68.8356C16.7771 65.3162 15.7825 61.7451 15.5018 57.0737L15.4654 56.3884C15.1293 49.2473 16.1097 40.3704 17.1859 33.2175C17.7421 29.5209 18.3258 26.2751 18.77 23.9535C18.9921 22.7928 19.1791 21.8624 19.3111 21.2222C19.377 20.9024 19.4291 20.655 19.4648 20.4871C19.4826 20.4035 19.4967 20.3393 19.506 20.2962Z" fill="#65D157" stroke="#FBF8EF" stroke-linejoin="round"/>
<path d="M118.04 26.7934C120.082 27.296 123.04 28.7934 123.04 28.7934C123.04 28.7934 118.644 28.8743 116.04 29.7934C114.393 30.3747 112.04 31.7935 112.04 31.7935C113.975 32.9145 115.316 33.3869 118.54 33.7935L114.04 35.7935C114.04 35.7935 112.953 38.3046 112.04 39.7929C110.876 41.6905 109.729 42.4107 108.54 44.2929C105.373 49.3054 104.055 52.8639 104.04 58.793C104.023 65.4002 108.435 68.2788 109.54 74.7929C110.847 82.4957 110.12 87.9799 110.04 95.7924C109.983 101.26 113.04 110.293 110.04 109.793C108.931 109.608 107.236 103.798 106.458 100.902C107.186 103.991 108.319 110.438 105.04 110.293C102.467 110.179 101.947 106.218 101.914 103.316C101.706 104.962 101.207 106.85 100.04 107.793C97.7088 109.678 97.6818 103.571 97.8607 99.8863C97.5801 101.938 96.8638 104.574 95.0399 105.293C92.4947 106.296 92.7756 101.602 93.3217 98.0341C92.8109 99.6247 91.955 101.15 90.54 101.293C87.1582 101.634 91.2009 93.0049 91.52 92.334C91.2692 92.8537 88.6734 98.0908 86.5398 96.7928C84.5379 95.575 86.5398 90.7928 86.5398 90.7928C86.5398 90.7928 83.1714 94.7432 81.5398 93.2928C80.2263 92.1253 81.5398 88.7928 81.5398 88.7928C81.5398 88.7928 80.5611 91.2134 79.5398 90.7928C78.6191 90.4137 79.0398 88.2928 79.0398 88.2928C79.0398 88.2928 77.407 89.2819 76.5398 88.7928C75.5052 88.2094 76.0398 85.7928 76.0398 85.7928C76.0398 85.7928 75.0421 86.0942 74.5398 85.7928C73.7026 85.2905 74.5398 83.2928 74.5398 83.2928C74.5398 83.2928 71.5844 83.6534 70.0398 82.7928C68.0505 81.6846 67.0397 77.793 67.0397 77.793L64.5 78L62.5397 77.2927C62.5397 77.2927 53.8772 81.1193 50.5397 85.7928C48.0426 89.2896 42.5397 106.293 42.5397 106.293C42.5397 106.293 41.7696 105.136 41.5398 104.293C41.2313 103.163 41.5397 101.293 41.5397 101.293C41.5397 101.293 40.519 103.385 40.0398 104.793C39.521 106.318 39.0398 108.793 39.0398 108.793C39.0398 108.793 38.6424 106.059 38.5398 104.293C38.4264 102.344 38.5397 99.2928 38.5397 99.2928C37.954 100.66 37.8192 101.527 37.0398 102.793C36.3846 103.858 35.0397 105.293 35.0397 105.293C35.0397 105.293 36.026 102.903 36.0398 101.293C36.05 100.106 35.5398 98.2934 35.5398 98.2934C35.5398 98.2934 34.5455 100.085 34.0398 101.293C33.2529 103.174 32.5398 106.293 32.5398 106.293L32.5398 99.2928C32.5398 99.2928 31.8034 102.105 31.0398 103.793C29.9905 106.113 27.5398 109.293 27.5398 109.293C27.5398 109.293 28.834 105.354 29.5398 102.793C30.4461 99.5057 31.5398 94.2928 31.5398 94.2928C31.5398 94.2928 29.247 97.4658 27.5398 99.2928C25.0816 101.924 20.5398 105.293 20.5398 105.293C20.5398 105.293 24.6662 100.398 26.5398 96.7928C27.7102 94.5404 29.0398 90.7928 29.0398 90.7928L22.0398 92.2934C22.0398 92.2934 28.8224 86.8868 32.5398 82.7928C37.9278 76.8588 44.0397 65.7929 44.0397 65.7929C44.0397 65.7929 41.5912 67.1877 40.5398 66.2928C39.6353 65.523 40.0398 63.2928 40.0398 63.2928C40.0398 63.2928 37.8682 64.1213 37.0398 63.2928C36.2113 62.4644 37.0398 60.2928 37.0398 60.2928C37.0398 60.2928 34.5063 61.2593 33.5398 60.2928C32.5733 59.3263 33.5398 56.7928 33.5398 56.7928C33.5398 56.7928 30.7301 57.0355 30.0398 55.7928C29.5656 54.9394 30.0398 53.2928 30.0398 53.2928C30.0398 53.2928 27.6751 53.3518 27.0398 52.2928C26.5374 51.4556 27.0398 49.7928 27.0398 49.7928C27.0398 49.7928 24.0474 50.1206 23.5397 48.7928C23.0719 47.5694 25.0397 45.7928 25.0397 45.7928C25.0397 45.7928 22.6255 45.4644 22.0397 44.2928C21.6031 43.4196 22.0397 41.7928 22.0397 41.7928C22.0397 41.7928 19.4189 41.0373 19.5397 39.7928C19.6078 39.0921 20.5397 38.2928 20.5397 38.2928C20.5397 38.2928 17.5309 37.3178 17.5398 35.7928C17.5448 34.9196 18.5397 33.7928 18.5397 33.7928C18.5397 33.7928 16.0491 33.0431 16.0397 31.7928C16.0323 30.8166 17.5398 29.7929 17.5398 29.7929C17.5398 29.7929 14.1014 30.2131 14.0397 28.7929C13.9917 27.6894 16.0397 26.7929 16.0397 26.7929C16.0397 26.7929 9.95799 25.7967 11.0397 23.7929C11.6619 22.6403 14.0397 22.2929 14.0397 22.2929C14.0397 22.2929 9.57019 21.019 9.53969 18.7929C9.52175 17.4832 11.0397 15.7929 11.0397 15.7929C11.0397 15.7929 5.86812 14.355 7.0397 12.7929C7.97696 11.5432 11.0397 12.7929 11.0397 12.7929C11.0397 12.7929 6.86116 10.9948 7.03969 8.7929C7.26946 5.95914 14.0397 10.7929 14.0397 10.7929C14.0397 10.7929 11.5133 8.68722 11.0397 6.7929C10.0634 2.88766 16.7874 9.33539 20.5397 10.7929C34.3163 16.1442 44.5 15 57.5 21.7929C60.9612 23.6015 59.9928 26.3501 63.0397 28.7929C65.902 31.0877 71.5397 32.7929 71.5397 32.7929C71.5397 32.7929 75.0713 30.6702 77.5397 29.7929C80.174 28.8566 84.5397 28.2929 84.5397 28.2929L80.0397 25.2929L86.5397 25.7929L79.0397 20.7929L89.5397 23.7929L86.5397 20.7929L91.5397 21.7929C91.5397 21.7929 100.132 18.8274 105.04 20.7929C108.24 22.0746 111.95 26.285 111.95 26.285C111.95 26.285 115.723 26.223 118.04 26.7934Z" fill="#F8A300"/>
<path d="M26.7581 111.001C26.7594 110.999 27.5535 107.711 27.759 107.06C28.0675 106.082 28.424 104.928 28.731 103.876L29.0184 102.868C29.4683 101.236 30.5233 96.638 30.5233 96.638C30.5233 96.638 28.7311 98.9148 27.8655 99.8412L27.3726 100.352C26.1737 101.557 24.6582 102.848 23.3931 103.875C22.6677 104.464 19.0078 106.991 19.0002 107C19.0002 107 21.77 103.132 22.3989 102.3C23.5037 100.839 24.7735 99.0507 25.6877 97.4452L26.0566 96.7699C26.6291 95.6681 27.2462 94.1881 27.7237 92.9726C27.9168 92.4812 28.086 92.0358 28.2188 91.68L20.5002 93C20.5034 92.9974 20.5018 92.9987 20.5002 93C20.5002 93 22.4545 91.4903 22.8002 91.206C23.4918 90.637 24.4533 89.8358 25.5298 88.9072C27.4176 87.2789 29.648 85.269 31.4069 83.4367L32.1301 82.6639C34.7928 79.7314 37.6484 75.513 39.847 72.0092C40.9441 70.2609 41.874 68.6972 42.529 67.5707C42.6364 67.3861 42.7346 67.2122 42.8268 67.0522C42.8166 67.0555 42.8064 67.0592 42.7961 67.0625C42.4003 67.1885 41.9432 67.2939 41.4974 67.2998C41.0533 67.3056 40.5653 67.2122 40.176 66.8809L40.0591 66.7703C39.8017 66.5028 39.6499 66.165 39.559 65.8416C39.4541 65.4687 39.4178 65.0718 39.4114 64.721C39.408 64.5352 39.4132 64.3569 39.4224 64.1959C39.2602 64.2357 39.0794 64.2741 38.8895 64.3045C38.5418 64.3602 38.1421 64.3925 37.7584 64.346C37.3775 64.2998 36.9624 64.1694 36.6468 63.8541C36.3312 63.5385 36.2005 63.1231 36.1542 62.7421C36.1076 62.3583 36.1395 61.9581 36.1953 61.6101C36.2158 61.4818 36.2425 61.3583 36.2683 61.2413C36.091 61.2838 35.8957 61.3231 35.6916 61.3558C35.2898 61.4201 34.8317 61.4569 34.3945 61.4038C33.9601 61.3511 33.4969 61.2035 33.1467 60.8534C32.7966 60.5033 32.6491 60.0402 32.5963 59.6059C32.5433 59.1687 32.5793 58.7101 32.6437 58.3083C32.6904 58.0167 32.7572 57.7446 32.8186 57.5152C32.5664 57.5118 32.2655 57.5004 31.9498 57.4625C31.5308 57.4122 31.0639 57.3186 30.6443 57.1418C30.2272 56.9659 29.8103 56.6873 29.5631 56.2424L29.5066 56.1329C29.2457 55.5722 29.2689 54.867 29.3254 54.3729C29.3416 54.2312 29.3634 54.0976 29.3845 53.9767C29.1715 53.9609 28.9183 53.9359 28.652 53.8891C28.2929 53.8261 27.8916 53.7246 27.5274 53.5566C27.1665 53.3902 26.8007 53.1404 26.5709 52.7574L26.5093 52.643C26.3744 52.3725 26.3133 52.0745 26.2896 51.799C26.2621 51.4802 26.2815 51.1575 26.3153 50.8767C26.33 50.7551 26.3493 50.639 26.3681 50.5319C26.0893 50.5364 25.7465 50.5319 25.3892 50.4949C24.9583 50.4503 24.4785 50.3595 24.059 50.1736C23.6397 49.9877 23.2252 49.6806 23.033 49.1781L22.9789 49.0065C22.8764 48.6044 22.9424 48.1999 23.0651 47.8499C23.2061 47.4478 23.439 47.0661 23.6706 46.7471C23.7874 46.5863 23.908 46.4369 24.0223 46.3029C23.8765 46.2635 23.7199 46.2173 23.5594 46.1631C23.1992 46.0414 22.8023 45.8755 22.4484 45.6514C22.0978 45.4293 21.7555 45.128 21.5531 44.7234L21.5025 44.6139C21.2676 44.0552 21.2871 43.3627 21.3392 42.87C21.3604 42.6696 21.3912 42.4855 21.4192 42.3317C21.1621 42.2365 20.8152 42.0934 20.4682 41.9067C20.1262 41.7226 19.756 41.481 19.4741 41.1781C19.1912 40.8739 18.9531 40.4582 19.0023 39.9518L19.034 39.761C19.1329 39.3359 19.4084 38.9518 19.6221 38.6937C19.3624 38.5803 19.055 38.4332 18.7461 38.2546C18.3486 38.0247 17.9252 37.7296 17.5964 37.3716C17.2686 37.0144 16.9965 36.5508 16.9998 35.9966L17.015 35.776C17.0824 35.2598 17.3573 34.7531 17.5802 34.4038C17.6186 34.3437 17.6592 34.2871 17.6967 34.2324C17.4907 34.1459 17.2521 34.0386 17.0125 33.9066C16.6784 33.7225 16.317 33.4832 16.0329 33.1855C15.7496 32.8885 15.504 32.4909 15.5004 32.0038L15.5054 31.8668C15.5324 31.5497 15.6573 31.2594 15.8028 31.0176C15.9029 30.8511 16.0224 30.6963 16.1442 30.5536C16.0094 30.5495 15.8707 30.5428 15.7314 30.5311C15.2766 30.4931 14.7688 30.4057 14.3553 30.2055C13.9304 29.9997 13.5269 29.6282 13.5006 29.0218L13.5031 28.8605C13.5299 28.4908 13.7002 28.1701 13.8972 27.9157C14.1074 27.6444 14.3772 27.4133 14.6333 27.2247C14.1226 27.1012 13.5142 26.934 12.9252 26.7216C12.2192 26.467 11.4842 26.1284 10.9914 25.6861C10.7415 25.4619 10.5209 25.183 10.4232 24.8424C10.3337 24.53 10.3593 24.2081 10.4951 23.8956L10.56 23.7625C10.7718 23.37 11.1151 23.0757 11.4652 22.8561C11.7487 22.6784 12.0589 22.5378 12.3545 22.4252C12.0904 22.3099 11.8091 22.1769 11.5267 22.0266C10.9437 21.7163 10.3319 21.3197 9.85831 20.8359C9.38551 20.3528 9.00984 19.7397 8.9997 19.0073L9.00275 18.854C9.04447 18.0859 9.46468 17.2953 9.8232 16.7381C9.93663 16.5618 10.0513 16.4009 10.1554 16.2595C10.1208 16.2479 10.085 16.2366 10.0486 16.2242C9.57209 16.0616 8.94099 15.8255 8.3425 15.5359C7.75773 15.2529 7.14774 14.8925 6.75987 14.463C6.56289 14.2448 6.39076 13.974 6.34113 13.6543C6.29524 13.3584 6.36185 13.071 6.52439 12.8102L6.60003 12.6999C6.9439 12.2415 7.45926 12.0466 7.95119 11.9778C8.05441 11.9634 8.15932 11.9554 8.26485 11.9505C7.85942 11.6319 7.46541 11.2651 7.15328 10.858C6.74509 10.3256 6.44355 9.67974 6.50185 8.9599L6.52299 8.78905C6.5885 8.39895 6.76956 8.0716 7.08838 7.85758C7.42959 7.62856 7.84525 7.58712 8.23157 7.61878C9.0004 7.6818 9.94176 8.05907 10.8088 8.48936C10.9655 8.56711 11.1201 8.65073 11.2747 8.73288C10.9373 8.22257 10.6522 7.67223 10.5145 7.12169L10.472 6.93529C10.3817 6.50331 10.3652 6.08989 10.5277 5.76625C10.6334 5.55605 10.8049 5.40395 11.0209 5.32489C11.2216 5.25144 11.4305 5.25098 11.6152 5.27711C11.978 5.3285 12.3943 5.50286 12.8169 5.72092C13.2501 5.94447 13.7361 6.23909 14.2479 6.5687C15.2436 7.20991 16.4681 8.07113 17.5697 8.79254C18.569 9.44702 19.5245 10.0264 20.3401 10.3911L20.6813 10.5345C33.5671 15.5396 44.9949 14.8003 55 20.1861C57.5961 21.5836 58.986 22.1487 60.7344 24.2706C61.9101 25.6974 61.9623 27.1746 63.3132 28.6105C65.5223 30.9586 71.4378 32.457 71.4378 32.457C71.4378 32.457 74.9033 30.3678 77.3331 29.5288C79.0683 28.9295 80.473 28.6662 81.8983 28.4074C82.3549 28.3245 82.7783 28.255 83.1426 28.1969L78.1303 24.8548L84.6301 25.3546L78.5 20.5L87.7836 22.99L84.9782 20.1861C84.9782 20.1861 89 21.5 91.4688 21.4843C92.0054 21.4809 92.3374 21.2114 92.7839 21.0862C93.6772 20.8358 94.9213 20.5227 96.3217 20.2713C99.0063 19.7895 102.373 19.5146 104.94 20.4427L105.186 20.5361C106.875 21.2125 108.658 22.6387 109.992 23.8577C110.666 24.4732 111.239 25.0472 111.642 25.4678C111.844 25.6783 112.003 25.8512 112.113 25.9714C112.12 25.9782 112.126 25.9851 112.132 25.9916C112.237 25.9912 112.375 25.9902 112.541 25.9915C112.935 25.9946 113.485 26.0053 114.109 26.0335C115.193 26.0825 116.525 26.1868 117.651 26.4115L118.12 26.5156C119.185 26.7778 120.239 27.0792 121.467 27.7316C122.533 28.2976 124.006 29.503 124 29.5C124 29.5 121.227 29.5868 120.524 29.6535C119.107 29.7879 117.408 30.0341 116.167 30.4722L115.864 30.5849C115.141 30.8692 114.311 31.2866 113.619 31.6587C113.4 31.7768 113.197 31.8912 113.018 31.992C114.518 32.7769 115.842 33.1613 118.563 33.5045L120.343 33.7288L114.381 36.3799C114.352 36.4451 114.315 36.5263 114.272 36.6212C114.155 36.8822 113.989 37.2462 113.794 37.6569C113.407 38.4736 112.898 39.4937 112.426 40.2618L112.199 40.6184C111.668 41.421 111.142 42.0152 110.633 42.5878C110.051 43.2412 109.492 43.8648 108.922 44.7672L108.355 45.6834C107.082 47.7831 106.165 49.6338 105.544 51.5596C104.881 53.6198 104.55 55.7866 104.505 58.4596L104.5 59.0016C104.492 62.1787 105.542 64.4601 106.772 66.8024C107.923 68.9942 109.247 71.2622 109.877 74.299L109.994 74.9168C111.228 82.1932 110.663 87.5449 110.522 94.5754L110.5 96.0048C110.486 97.3308 110.662 98.8885 110.893 100.492C111.12 102.071 111.409 103.738 111.599 105.172C111.79 106.606 111.901 107.927 111.752 108.87C111.678 109.339 111.528 109.795 111.218 110.115C110.878 110.465 110.42 110.577 109.917 110.493L109.8 110.465C109.535 110.383 109.328 110.184 109.178 110.006C108.991 109.785 108.811 109.497 108.64 109.175C108.33 108.589 108.015 107.829 107.712 107.004C107.712 107.011 107.712 107.019 107.712 107.027C107.694 108.042 107.548 109.029 107.147 109.768C106.942 110.145 106.663 110.471 106.29 110.695C105.913 110.92 105.473 111.022 104.978 111L104.685 110.973C103.259 110.767 102.455 109.549 102.011 108.215C101.839 107.699 101.712 107.139 101.618 106.567C101.313 107.269 100.894 107.921 100.315 108.389L100.188 108.486C99.8901 108.702 99.5737 108.844 99.2436 108.853C98.8421 108.864 98.5172 108.678 98.2785 108.412C98.0509 108.159 97.8884 107.82 97.7659 107.459C97.6414 107.093 97.5471 106.667 97.4755 106.213C97.3643 105.506 97.3044 104.695 97.2762 103.859C96.8134 104.773 96.1484 105.585 95.1839 105.966L95.0426 106.016C94.7155 106.127 94.3956 106.167 94.0905 106.116C93.7338 106.057 93.4402 105.879 93.2115 105.628C92.7783 105.152 92.5777 104.414 92.4852 103.645C92.3885 102.84 92.4001 101.889 92.4698 100.912C91.9829 101.483 91.352 101.917 90.5504 101.998L90.3556 102.01C89.9089 102.018 89.5133 101.891 89.2112 101.6C88.8821 101.283 88.738 100.841 88.6854 100.398C88.5812 99.5202 88.8055 98.3687 89.1215 97.2623C89.1806 97.0554 89.245 96.8479 89.311 96.6407C89.0219 96.9226 88.7143 97.1718 88.3936 97.3573C87.7478 97.7307 86.9808 97.878 86.2399 97.4272L86.1184 97.3476C85.5297 96.9312 85.261 96.2807 85.1614 95.6232C85.0557 94.9246 85.1278 94.1501 85.2574 93.452C85.2994 93.2255 85.3512 93.0044 85.4033 92.7917C85.2481 92.9254 85.0855 93.0598 84.917 93.1896C84.3761 93.6065 83.7459 94.0067 83.1156 94.1991C82.4762 94.3942 81.754 94.3949 81.1677 93.8737L81.0098 93.716C80.6687 93.332 80.5112 92.8431 80.4498 92.3685C80.406 92.0291 80.4126 91.6762 80.4415 91.3337C80.1366 91.5235 79.7378 91.6388 79.3094 91.4623L79.1644 91.3913C78.8462 91.2069 78.6646 90.9033 78.5626 90.6179C78.4465 90.2928 78.4106 89.9304 78.4052 89.6165C78.4036 89.523 78.4054 89.431 78.4085 89.3422C78.3554 89.3632 78.3003 89.3835 78.2444 89.4037C77.9634 89.5049 77.6333 89.5969 77.2998 89.626C76.9699 89.6547 76.5917 89.6261 76.2544 89.4359L76.1089 89.341C75.7899 89.1048 75.6094 88.7616 75.5078 88.4326C75.3913 88.0556 75.3601 87.6416 75.3624 87.2777C75.364 87.0416 75.3832 86.8159 75.4039 86.6182C75.2493 86.6328 75.0767 86.6404 74.9033 86.6254C74.6982 86.6078 74.4583 86.5579 74.2433 86.429L74.1094 86.3352C73.8218 86.1024 73.6981 85.7705 73.6528 85.473C73.6015 85.1356 73.6373 84.7755 73.6942 84.4701C73.7213 84.3247 73.7558 84.1845 73.7905 84.0548C73.5151 84.0685 73.1815 84.0796 72.8195 84.0728C71.8775 84.0552 70.6446 83.931 69.757 83.4366L69.545 83.3087C68.5085 82.625 67.772 81.339 67.2988 80.2899C67.039 79.7141 66.8441 79.176 66.7144 78.7821C66.6745 78.6611 66.6427 78.5527 66.6149 78.4613C66.6149 78.4613 65.3466 78.8797 64.5 78.7821C63.6624 78.6855 62.5802 78.0126 62.5802 78.0126C62.5192 78.0404 62.4361 78.0784 62.3332 78.1265C62.0934 78.2386 61.7456 78.4041 61.3178 78.6178C60.4618 79.0454 59.2863 79.6645 58.0082 80.427C55.4339 81.9627 52.5118 84.0436 50.9073 86.2904L50.6774 86.6377C50.121 87.5353 49.4191 89.0398 48.6582 90.8701C47.7956 92.9452 46.8768 95.3905 46.034 97.7311C45.1918 100.07 44.4266 102.301 43.8725 103.948C43.5955 104.771 43.3714 105.448 43.2163 105.919C43.1389 106.154 43.0788 106.338 43.038 106.463C43.0176 106.525 43.0017 106.573 42.9912 106.605C42.986 106.621 42.9823 106.634 42.9796 106.642C42.9783 106.646 42.9776 106.649 42.9769 106.651L42.9756 106.653L42.6575 107.638L42.0836 106.777L42.0805 106.772C42.0787 106.77 42.0766 106.766 42.0736 106.761C42.0673 106.751 42.0578 106.737 42.0464 106.719C42.0236 106.684 41.9908 106.633 41.9515 106.57C41.8727 106.444 41.7652 106.266 41.65 106.061C41.4254 105.66 41.1493 105.116 41.0174 104.633L40.9599 104.381C40.9378 104.267 40.9222 104.15 40.9084 104.031C40.7454 104.424 40.5913 104.816 40.4735 105.162L40.2875 105.753C40.1042 106.377 39.931 107.079 39.7927 107.683C39.701 108.084 39.0527 111.747 39 112C39.014 111.93 38.9737 112.126 39 112C39.0036 111.982 38.9931 112.035 39 112C39.0015 112.01 38.9992 111.995 39 112C39.0056 112.039 38.997 111.979 39 112C39.0195 112.143 38.9888 111.921 39 112C38.9609 111.714 38.3487 107.929 38.2923 107.474C38.1799 106.568 38.0531 105.429 38.0008 104.53L37.9674 103.741C37.9538 103.268 37.9509 102.768 37.9513 102.285C37.8092 102.593 37.641 102.914 37.4261 103.263L37.2876 103.479C36.9486 103.989 36.5038 104.54 36.1354 104.974C35.9226 105.224 34.1388 106.846 34 107C34.0391 106.958 33.9307 107.077 34 107C34.0105 106.989 33.9804 107.021 34 107C34.0028 106.997 33.9948 107.006 34 107C34.0067 106.983 33.987 107.033 34 107C34.0259 106.934 33.955 107.121 34 107C34.0903 106.757 34.8965 104.344 35.0173 103.955C35.2632 103.165 35.4939 102.224 35.5002 101.496L35.4965 101.287C35.4791 100.865 35.4033 100.371 35.3152 99.9153C35.0209 100.485 34.6879 101.153 34.4618 101.694L34.3199 102.048C33.991 102.905 33.6789 103.952 33.4377 104.837C33.3007 105.339 32.5013 107.994 32.5 108C32.5013 107.994 32.5013 107.994 32.5 108C32.3049 105.98 32.0004 102.828 32.0004 102.828C31.828 103.313 31.6438 103.791 31.456 104.206L31.2365 104.666C30.6905 105.755 29.9227 106.95 29.2692 107.903C28.8934 108.451 26.7568 111.002 26.7581 111.001C26.7594 110.999 26.7594 110.999 26.7581 111.001ZM28.9577 106.57C29.4564 105.807 29.9592 104.981 30.3392 104.224L30.5443 103.794C30.9122 102.981 31.1824 102.081 31.5579 100.971C31.948 99.8181 32.38 97.2309 32.38 97.2309L33.0012 102.794C33.1248 102.412 33.2529 102.035 33.3874 101.685L33.5384 101.307C33.7997 100.683 34.183 99.9179 34.4959 99.3167C34.6532 99.0145 34.7951 98.7505 34.8972 98.5619C34.9482 98.4676 34.8686 98.614 34.8972 98.5619C34.9115 98.5358 34.8896 98.5756 34.8972 98.5619C34.9009 98.5552 34.8952 98.5654 34.8972 98.5619L35.6527 97.1965L35.9812 98.3649C35.9823 98.3688 35.9792 98.3576 35.9812 98.3649C35.9852 98.3793 35.974 98.3382 35.9812 98.3649C35.9957 98.4189 35.9567 98.2681 35.9812 98.3649C36.0301 98.5583 36.1781 99.1439 36.243 99.4527C36.3545 99.9843 36.4722 100.659 36.496 101.255L36.5002 101.504C36.4956 102.038 36.3947 102.636 36.2607 103.204C36.2792 103.178 36.2982 103.153 36.3162 103.128L36.5745 102.739C36.9418 102.142 37.1571 101.64 37.3545 101.113C37.5495 100.592 38.2013 98.697 38.5 98C38.4998 98.0057 38.5004 97.9889 38.5 98C38.4992 98.0225 38.5014 97.957 38.5 98C38.4971 98.0865 38.5044 97.8427 38.5 98C38.4912 98.3147 38.8786 99.9868 38.9576 101.276C39.0157 102.225 38.9449 102.912 38.9677 103.71L38.9991 104.471C39.0282 104.971 39.0835 105.554 39.145 106.13C39.2044 105.906 39.2657 105.683 39.3292 105.467L39.5266 104.84C39.7742 104.112 40.1577 103.219 40.474 102.517C40.6331 102.164 41.8958 100.22 42 100C42.0521 99.8899 41.9707 100.061 42 100C42.0146 99.9697 41.9922 100.016 42 100C42.0038 99.9922 41.998 100.004 42 100C41.9995 100.003 42.0009 99.994 42 100C41.998 100.013 42.0037 99.975 42 100C41.9926 100.05 42.0115 99.9078 42 100C41.9768 100.185 41.5837 101.983 41.65 103C41.7194 104.063 42.2073 104.977 42.3713 105.293C42.5172 104.851 42.7037 104.287 42.9249 103.629C43.4805 101.979 44.2477 99.7404 45.0932 97.3923C45.9382 95.0452 46.8629 92.5831 47.7343 90.4868C48.4906 88.6674 49.2223 87.0843 49.8369 86.0958L50.0928 85.7095C51.8256 83.283 54.9041 81.1143 57.4953 79.5685C58.7999 78.7902 59.9985 78.1595 60.871 77.7236C61.3072 77.5057 61.6625 77.336 61.9093 77.2206C62.0328 77.1629 62.1294 77.1189 62.1953 77.089C62.2282 77.074 62.2537 77.0628 62.271 77.0551C62.2796 77.0512 62.286 77.0478 62.2905 77.0457C62.2927 77.0447 62.2958 77.0437 62.2958 77.0437L62.297 77.0429L62.2981 77.0421L62.4211 76.9881L62.5554 77.0026C62.5554 77.0026 63.8013 77.5471 64.6652 77.6569C65.5948 77.7751 67.0551 77.5031 67.0551 77.5031L67.3975 77.5415L67.4838 77.8748L67.4846 77.876C67.4846 77.876 67.4856 77.8794 67.4864 77.8822C67.4881 77.8886 67.4902 77.8991 67.4938 77.9124C67.5011 77.9388 67.5122 77.9784 67.5271 78.0296C67.5572 78.1332 67.6027 78.2845 67.6635 78.4693C67.7855 78.8397 67.9687 79.3434 68.2102 79.8789C68.6771 80.9138 69.3167 81.9564 70.0878 82.4685L70.2433 82.5632C70.9002 82.9292 71.9168 83.0556 72.8386 83.0728C73.2866 83.0812 73.6895 83.0638 73.9803 83.0442C74.1254 83.0343 74.2424 83.0237 74.3219 83.0159C74.3614 83.0121 74.392 83.0087 74.4119 83.0065C74.4218 83.0054 74.4295 83.0051 74.4341 83.0046L74.4393 83.0035L75.2939 82.8999L74.9611 83.693L74.9606 83.6958C74.9595 83.6985 74.9576 83.7028 74.9552 83.7088C74.9503 83.7211 74.9426 83.7404 74.933 83.7653C74.9139 83.8153 74.8867 83.8887 74.8565 83.9787C74.7956 84.1604 74.724 84.4022 74.6774 84.6528C74.6296 84.9095 74.6139 85.1437 74.641 85.3221C74.6611 85.4543 74.6977 85.5169 74.7289 85.5485L74.7575 85.5716C74.7935 85.5931 74.8666 85.6181 74.9893 85.6286C75.108 85.6389 75.2433 85.6333 75.3785 85.617C75.512 85.6009 75.6341 85.5763 75.7232 85.5556C75.7671 85.5454 75.8021 85.5358 75.8252 85.5295C75.8363 85.5265 75.845 85.5246 75.8502 85.5231C75.8525 85.5225 75.8555 85.5211 75.8555 85.5211L76.6725 85.2746L76.4883 86.1077L76.4876 86.1115C76.4869 86.1148 76.4852 86.1202 76.4837 86.1277C76.4806 86.1428 76.4759 86.1662 76.4702 86.1967C76.4587 86.2579 76.4435 86.348 76.4276 86.4579C76.3957 86.6793 76.3636 86.976 76.3617 87.2846C76.3597 87.5977 76.3894 87.8979 76.4636 88.1379C76.5195 88.3186 76.5907 88.4346 76.6676 88.5065L76.7454 88.5644C76.8415 88.6186 76.9929 88.6496 77.2128 88.6305C77.4292 88.6116 77.6708 88.5476 77.9063 88.4628C78.1389 88.3789 78.3498 88.2798 78.5038 88.2012C78.5803 88.1621 78.6417 88.1289 78.6829 88.1057C78.7035 88.0941 78.7195 88.0852 78.7294 88.0794C78.7341 88.0766 78.7374 88.0745 78.7394 88.0733L78.7417 88.0717L79.711 87.4847C79.711 87.4847 78.7414 89.8166 79.6908 90.5381C80.5659 91.2031 82 87.5 82 87.5C82 87.5 80.0096 91.8981 81.8327 93.1261C83.7888 94.4438 87 90 87 90C87 90 86.36 92.9914 86.2406 93.6347C86.12 94.2842 86.0684 94.934 86.1502 95.4744C86.2216 95.9448 86.3848 96.2803 86.6435 96.4902L86.7595 96.5728C87.0853 96.771 87.4441 96.7507 87.893 96.491C88.3576 96.2222 88.8426 95.7324 89.3021 95.1442C90.2109 93.9812 91.8735 91.7618 92 91.5C91.8376 91.8416 90.697 95.3871 90.0829 97.5374C89.771 98.6295 89.5996 99.6145 89.6786 100.28C89.7176 100.608 89.8094 100.789 89.9048 100.881C89.9745 100.948 90.0959 101.016 90.3388 101.01L90.4504 101.003C90.9739 100.95 91.429 100.642 91.8323 100.112C92.2327 99.5849 92.4569 98.9153 92.7957 98.1209C93.3804 96.7502 94 94.5 94 94.5C94 94.5 93.5874 96.9956 93.5 98.5C93.3826 100.52 93.3089 102.114 93.4786 103.526C93.5658 104.251 93.7384 104.721 93.9513 104.954C94.0455 105.058 94.1431 105.111 94.2559 105.13C94.3465 105.145 94.4704 105.142 94.6363 105.096L94.817 105.035C95.5509 104.746 96.1124 104.049 96.5314 103.096C96.9446 102.156 97.0355 101.241 97.3238 100.043C97.6086 98.8594 98 97 98 97C98 97 98.0231 98.8122 98 100.043C97.9582 102.266 98.1973 104.367 98.4635 106.058C98.5297 106.479 98.6128 106.843 98.7128 107.137C98.8148 107.438 98.9237 107.633 99.0234 107.744C99.1121 107.843 99.1707 107.854 99.2159 107.853C99.2681 107.852 99.3667 107.829 99.5176 107.733L99.6858 107.611C100.173 107.217 100.549 106.602 100.829 105.851C101.104 105.113 101.186 104.419 101.375 103.492C101.689 101.946 102 99.5 102 99.5C102 99.497 102.001 99.489 102 99.5C101.996 99.5414 102.001 99.489 102 99.5C101.999 99.5053 102.002 99.4795 102 99.5C102 99.503 102.001 99.4947 102 99.5C101.999 99.511 102.198 101.967 102.375 103.542C102.567 105.248 102.531 106.614 102.959 107.9C103.369 109.129 103.977 109.862 104.845 109.984L105.022 110.001C105.348 110.015 105.589 109.948 105.776 109.836C105.965 109.723 106.129 109.545 106.268 109.29C106.554 108.765 106.695 107.973 106.713 107.009C106.747 105.095 106.753 104.895 106.713 103.542C106.672 102.157 106.5 100 106.5 100C106.5 100 107.065 101.988 107.47 103.248C107.868 104.488 108.066 105.04 108.556 106.403C108.883 107.314 109.213 108.122 109.524 108.706C109.679 108.999 109.82 109.217 109.942 109.361C110.034 109.47 110.086 109.501 110.096 109.508C110.333 109.544 110.434 109.486 110.5 109.417C110.597 109.317 110.702 109.106 110.764 108.714C110.887 107.933 110.801 106.748 110.609 105.303C110.417 103.858 110.139 102.272 109.903 100.635C109.671 99.0232 109.486 97.4019 109.5 95.9947L109.522 94.5466C109.664 87.4412 110.223 82.2501 109.007 75.0839L108.898 74.5012C108.305 71.6371 107.059 69.5007 105.886 67.2677C104.638 64.8905 103.491 62.4285 103.5 58.9985L103.505 58.4425C103.551 55.6927 103.893 53.4257 104.593 51.2536C105.245 49.2293 106.203 47.3047 107.5 45.1647L108.077 44.2334C108.696 43.2536 109.306 42.5747 109.886 41.923C110.393 41.3539 110.878 40.8035 111.365 40.0668L111.575 39.7387C112.016 39.0186 112.506 38.0383 112.891 37.2276C113.082 36.8245 113.245 36.4674 113.36 36.2112C113.418 36.0832 113.464 35.9805 113.495 35.91C113.51 35.8748 113.522 35.8474 113.53 35.8291C113.534 35.8202 113.537 35.8134 113.539 35.8089C113.54 35.8066 113.541 35.8033 113.541 35.8033L113.542 35.8025L113.619 35.623L113.797 35.5442L116.725 34.2432C114.593 33.8683 113.365 33.3692 111.749 32.4334L111.018 32.0095L111.742 31.5725L111.744 31.5709C111.744 31.5709 111.748 31.5693 111.75 31.5679C111.755 31.5651 111.762 31.5613 111.771 31.5559C111.789 31.545 111.816 31.5281 111.85 31.5078C111.919 31.467 112.02 31.4089 112.144 31.3369C112.394 31.193 112.744 30.995 113.146 30.7786C113.845 30.4027 114.719 29.9612 115.504 29.6529L115.834 29.5293C117.197 29.0483 120.985 28.6137 120.985 28.6137C120.985 28.6137 118.832 27.7206 117.881 27.4865L117.449 27.3901C116.406 27.1825 115.137 27.0803 114.064 27.0317C113.455 27.0042 112.918 26.9946 112.532 26.9915C112.34 26.99 112.186 26.9901 112.08 26.9906C112.027 26.9909 111.986 26.9911 111.959 26.9914C111.946 26.9916 111.936 26.9919 111.929 26.992C111.925 26.992 111.921 26.9925 111.921 26.9925L111.919 26.9921L111.688 26.9958L111.536 26.8232L111.535 26.8221L111.533 26.8208C111.532 26.819 111.529 26.8161 111.526 26.8125C111.519 26.805 111.51 26.7932 111.496 26.7783C111.469 26.7483 111.429 26.7038 111.376 26.6463C111.271 26.5312 111.116 26.3646 110.92 26.1603C110.528 25.7515 109.972 25.1929 109.318 24.5957C107.998 23.3891 106.325 22.0692 104.814 21.464L104.595 21.3805C102.299 20.552 99.164 20.7768 96.4982 21.2553C95.1372 21.4996 93.9258 21.8044 93.0546 22.0486C92.6193 22.1706 92.1493 22.4252 91.5352 22.5168C90.1515 22.7232 88.0222 21.8145 88.0222 21.8145L91.2177 25.0109L81.9434 22.3619L88.3697 26.645L81.8688 26.1459L85.8889 28.8253L84.5645 28.9964L84.5616 28.9959C84.5616 28.9959 84.5564 28.9966 84.5524 28.9972C84.5444 28.9982 84.5325 29.0005 84.5167 29.0026C84.4849 29.0068 84.4375 29.0132 84.3762 29.0217C84.2534 29.0387 84.0736 29.0634 83.8504 29.0968C83.4038 29.1637 82.7809 29.2629 82.0768 29.3907C80.6611 29.6478 79.3443 29.8947 77.6679 30.471C75.152 31.3361 71.587 33.5427 71.587 33.5427C71.587 33.5427 65.3128 32.1763 62.6871 29.39C61.2026 27.8147 61.1428 26.1705 59.8104 24.6525C58.15 22.7608 56.833 22.1665 54.5 21C43.5 15.5 33.2644 16.4944 20.3194 11.4662L19.9392 11.3078C19.0366 10.9049 18.022 10.284 17.0216 9.62888C15.8377 8.85355 12.3586 5.6862 11.6152 6.28611C10.3716 7.28963 15 11.5 15 11.5C15 11.5 8.11339 6.87922 7.5 9C6.80658 11.3975 12.3578 13.0021 12.3586 13C12.3685 13.0038 12.3578 13.0021 12.3586 13C12.3578 13.0021 12.3487 12.9962 12.3586 13C12.3578 13.0021 12.3519 12.997 12.3586 13C12.3594 12.9979 12.3578 13.0021 12.3586 13C12.3685 13.0038 12.3578 13.0021 12.3586 13C12.3578 13.0021 12.3487 12.9962 12.3586 13C12.3487 12.9962 12.3487 12.9962 12.3586 13C12.3487 12.9962 6.66348 12.0089 7.38081 13.6543C7.6803 14.3413 9.11863 14.8348 10.3716 15.2775C10.5861 15.3532 10.791 15.4156 10.9257 15.4566C10.993 15.4771 11.0462 15.4935 11.0819 15.5039C11.0994 15.509 11.1127 15.5126 11.1215 15.5151C11.1259 15.5163 11.1299 15.5174 11.1319 15.518L11.1338 15.5183L11.9105 15.734C11.9105 15.734 9.99873 17.518 9.99972 18.9936C10.0013 21.3786 15 22.5 15 22.5C15 22.5 12.2641 23.5358 11.9971 23.7032C11.7267 23.8727 11.5396 24.0537 11.4404 24.2372L11.3949 24.3401C11.3629 24.4341 11.3671 24.5058 11.3845 24.5665C11.4124 24.6638 11.4907 24.7911 11.6587 24.9419C12.0019 25.25 12.585 25.5358 13.264 25.7807C13.9297 26.0208 17.747 26.7795 17.7494 26.7799C17.747 26.7795 17.747 26.7795 17.7494 26.7799C17.7519 26.7803 17.747 26.7795 17.7494 26.7799C17.7519 26.7803 17.7369 26.7856 17.7494 26.7799C17.7519 26.7803 17.7519 26.7803 17.7494 26.7799C17.747 26.7795 15.5021 27.829 15.2727 27.9931C15.0405 28.1593 14.8321 28.3422 14.6881 28.528C14.5792 28.6686 14.5251 28.7876 14.5069 28.8861L14.5001 28.9782C14.5046 29.0819 14.554 29.1902 14.791 29.3051C15.0394 29.4254 15.4022 29.5003 15.8143 29.5348C16.2172 29.5684 18.5 29.5 18.5 29.5C18.5 29.5 16.1486 30.8015 16.5 32C16.7497 32.8517 18.0702 33.3118 18.2904 33.3965C18.3997 33.4385 18.4906 33.4708 18.5529 33.4918C18.5837 33.5022 18.6076 33.5096 18.6233 33.5145C18.6307 33.5169 18.6367 33.5185 18.6402 33.5196L18.6439 33.5213L18.6447 33.5224L19.391 33.7464L18.8749 34.3305L18.8736 34.3323C18.8736 34.3323 18.87 34.336 18.8674 34.3391C18.8615 34.3459 18.8527 34.3568 18.8408 34.371C18.8166 34.3998 18.7811 34.4434 18.7382 34.4982C18.652 34.6084 18.5372 34.7629 18.4234 34.9413C18.2099 35.2759 18.0471 35.6204 18.0085 35.8912L18.0001 36.0028C17.9989 36.2108 18.1 36.4412 18.3337 36.6957C18.5665 36.9492 18.8935 37.1844 19.2469 37.3888C19.5967 37.5911 19.9505 37.7516 20.2191 37.8613C20.3525 37.9159 20.4636 37.9566 20.5402 37.9842C20.5784 37.998 20.6084 38.0084 20.6279 38.0151C20.6375 38.0184 20.6448 38.0214 20.6493 38.0229C20.6514 38.0236 20.6541 38.0238 20.6541 38.0238L21.5023 38.2991L20.826 38.8799C20.826 38.8799 20.8226 38.8826 20.8201 38.8848C20.815 38.8893 20.8062 38.8963 20.7954 38.9061C20.7736 38.9259 20.7414 38.956 20.7019 38.9943C20.6221 39.0718 20.5156 39.1817 20.4084 39.3092C20.2025 39.5544 20.056 39.7936 20.0106 39.9743L19.9981 40.0485C19.9869 40.1642 20.0311 40.3097 20.2054 40.4971C20.3808 40.6857 20.644 40.8657 20.942 41.0261C21.2349 41.1837 21.536 41.308 21.7665 41.3934C21.8808 41.4357 21.9762 41.4679 22.0419 41.4891C22.0744 41.4996 22.0995 41.5074 22.1161 41.5125C22.1244 41.515 22.131 41.5178 22.1348 41.5189L22.1386 41.5196L22.6101 41.6559L22.4832 42.1301C22.4826 42.1322 22.4812 42.1375 22.48 42.1424C22.4774 42.1524 22.4735 42.1678 22.4687 42.188C22.4587 42.2295 22.4448 42.2914 22.4289 42.3684C22.3972 42.5232 22.3586 42.7376 22.3335 42.9754C22.2867 43.4181 22.2954 43.8538 22.3978 44.1554L22.4473 44.2765C22.5378 44.4575 22.7168 44.6368 22.9833 44.8057C23.2467 44.9725 23.5631 45.109 23.8795 45.2158C24.1937 45.3219 24.4938 45.395 24.7159 45.4414C24.8264 45.4644 24.9164 45.4806 24.9779 45.491C25.0086 45.4961 25.0321 45.4993 25.0474 45.5016C25.0549 45.5028 25.0605 45.5031 25.0639 45.5036L25.0678 45.5043L26.1342 45.6496L25.335 46.3708L25.3324 46.3743C25.3296 46.3769 25.3243 46.381 25.3183 46.3866C25.3059 46.3981 25.287 46.416 25.2631 46.4391C25.2145 46.4859 25.1444 46.5548 25.0615 46.6417C24.8943 46.8169 24.6785 47.0598 24.4789 47.3348C24.277 47.6128 24.1049 47.9053 24.0085 48.1803C23.9357 48.388 23.9156 48.558 23.9348 48.6949L23.9673 48.8219C24.0291 48.9831 24.1793 49.1336 24.4634 49.2595C24.7476 49.3855 25.1112 49.4607 25.4917 49.5001C25.8674 49.539 26.2333 49.5404 26.5074 49.5309C26.6436 49.5262 26.7555 49.5185 26.8323 49.5126C26.8703 49.5096 26.8996 49.5073 26.919 49.5055C26.9287 49.5046 26.9367 49.504 26.9412 49.5036L26.9452 49.5033L26.9463 49.5025L27.6977 49.4208L27.4788 50.1443L27.4784 50.1462C27.4778 50.1482 27.4769 50.1518 27.4756 50.1566C27.4727 50.1666 27.4677 50.1828 27.462 50.2037C27.4506 50.2457 27.435 50.3082 27.4169 50.3861C27.3806 50.5427 27.3368 50.7581 27.3081 50.9956C27.2792 51.235 27.2672 51.4851 27.2868 51.7133C27.3018 51.8877 27.3341 52.0309 27.3796 52.1421L27.4288 52.2424C27.5167 52.3888 27.6853 52.5288 27.9464 52.6492C28.2042 52.768 28.5138 52.8496 28.8251 52.9042C29.1337 52.9583 29.4271 52.9833 29.6446 52.9937C29.7526 52.9988 29.8405 53.0001 29.9005 53.0005C29.9301 53.0007 29.9531 53.001 29.9679 53.0008C29.9753 53.0008 29.9817 53 29.9849 53L29.9878 53.0005L30.6689 52.9834L30.4804 53.6379L30.48 53.6399C30.4794 53.6419 30.4784 53.6455 30.4771 53.6503C30.4744 53.6603 30.4699 53.6768 30.4645 53.6976C30.4538 53.7393 30.4388 53.8011 30.4217 53.8784C30.3873 54.0342 30.3462 54.2494 30.319 54.487C30.2681 54.9327 30.279 55.3582 30.3857 55.6436L30.4375 55.7572C30.5355 55.9336 30.7286 56.0916 31.0323 56.2197C31.3336 56.3468 31.6992 56.4254 32.0688 56.4697C32.4348 56.5136 32.7846 56.5222 33.0444 56.5191C33.1736 56.5175 33.2789 56.5122 33.3511 56.5083C33.3871 56.5064 33.4153 56.5047 33.4334 56.5034C33.4421 56.5028 33.4485 56.5023 33.4525 56.5019L33.4565 56.5017L34.2512 56.4328L33.9678 57.1783L33.9661 57.1819C33.9647 57.1855 33.9619 57.1914 33.9589 57.1995C33.953 57.2158 33.9447 57.2415 33.9334 57.2743C33.9108 57.3398 33.8782 57.436 33.8428 57.5546C33.7714 57.7934 33.6871 58.1182 33.6312 58.467C33.5748 58.8193 33.5514 59.1761 33.5889 59.4856C33.6269 59.7978 33.7209 60.0132 33.8539 60.1462C33.987 60.2793 34.203 60.3735 34.5154 60.4114C34.8249 60.4489 35.1813 60.4256 35.5335 60.3692C35.8824 60.3133 36.2068 60.2282 36.4456 60.1569C36.5642 60.1214 36.6605 60.0895 36.726 60.0669C36.7587 60.0556 36.7839 60.0466 36.8002 60.0407C36.8084 60.0377 36.8147 60.0354 36.8183 60.0341L36.8215 60.0327L37.8656 59.6349L37.4675 60.6781L37.466 60.6809C37.4649 60.6838 37.4637 60.6891 37.4613 60.6959C37.4563 60.7095 37.4485 60.7307 37.439 60.7583C37.4199 60.8137 37.3931 60.8951 37.3631 60.9957C37.3025 61.1984 37.2301 61.4737 37.1828 61.7688C37.135 62.0672 37.1157 62.3657 37.1468 62.6219C37.1783 62.8807 37.2546 63.0482 37.3531 63.1467C37.4517 63.2453 37.6193 63.3219 37.8783 63.3534C38.1346 63.3845 38.4331 63.3648 38.7316 63.317C39.0267 63.2697 39.3019 63.1985 39.5046 63.1379C39.6054 63.1078 39.6866 63.08 39.742 63.061C39.7695 63.0514 39.7908 63.0445 39.8044 63.0396C39.8112 63.0371 39.8163 63.0354 39.8193 63.0343L39.8215 63.0327L40.6502 62.7169L40.491 63.5922C40.4905 63.5952 40.4905 63.6002 40.4894 63.6068C40.4871 63.6206 40.483 63.6423 40.4788 63.6704C40.4704 63.7271 40.4595 63.811 40.4484 63.914C40.4261 64.1212 40.4058 64.4022 40.4113 64.7023C40.4168 65.0049 40.4478 65.3095 40.5214 65.5709C40.5773 65.7699 40.6514 65.9202 40.7362 66.0269L40.8246 66.1194C40.961 66.2353 41.1734 66.3038 41.4836 66.2998C41.7924 66.2957 42.1454 66.2198 42.493 66.1091C42.8367 65.9996 43.1538 65.863 43.3867 65.7524C43.5024 65.6975 43.5959 65.65 43.6595 65.6165C43.6913 65.5997 43.7154 65.5856 43.7312 65.5769C43.739 65.5726 43.7452 65.5701 43.7487 65.5681L43.7521 65.5658L45.2968 64.6853C45.2968 64.6853 43.7232 67.5064 43.3935 68.0733C42.7342 69.2071 41.7987 70.7806 40.6944 72.5405C38.4901 76.0532 35.5956 80.3351 32.8703 83.3365L32.1322 84.1264C30.3369 85.9968 28.0751 88.0315 26.1823 89.664C25.3307 90.3986 24.5504 91.053 23.9177 91.5779L29.7707 90.3234L29.4713 91.1673L29.4698 91.17C29.4698 91.17 29.4686 91.1749 29.4673 91.1785C29.4647 91.1858 29.4605 91.1968 29.4554 91.211C29.4453 91.2394 29.4305 91.2813 29.4111 91.335C29.3721 91.4428 29.3151 91.5995 29.2433 91.7938C29.0995 92.1827 28.8956 92.7254 28.6547 93.3384C28.1749 94.5599 27.5414 96.0802 26.9435 97.2309L26.7581 97.5793C25.8829 99.1834 24.6335 100.979 23.5185 102.475C24.5856 101.587 25.7284 100.587 26.6605 99.6499L27.135 99.1585C27.9715 98.2633 28.9595 97.0292 29.7442 96.01C30.1352 95.5022 32.0002 92.7585 32.0002 92.7585C32.0002 92.7585 31.6808 95.7404 31.3281 97.6271C30.9215 99.803 30.439 101.478 29.9826 103.133L29.6917 104.154C29.4613 104.944 29.2015 105.787 28.9577 106.57Z" fill="#FBF8EF"/>
<path d="M53.5841 51.4194C53.5841 51.4194 51.8545 53.7652 50.5573 53.2755C50.0866 53.0978 49.7488 52.8203 49.5331 52.494C49.3166 52.1665 49.1594 51.7802 49.0458 51.4194C48.9317 51.057 48.8586 50.7097 48.8138 50.454C48.8067 50.4138 48.8022 50.3754 48.7965 50.3399C48.7494 50.3562 48.6983 50.376 48.6423 50.3943C48.3695 50.4834 47.995 50.592 47.5922 50.6642C47.1919 50.736 46.7494 50.7746 46.3467 50.7172C45.9942 50.6669 45.6485 50.5385 45.398 50.2699L45.2967 50.1457C45.1199 49.8981 45.0406 49.5941 45.0117 49.2987C44.9826 49.0015 45.0024 48.6928 45.0394 48.4188C45.0698 48.1939 45.1143 47.9875 45.154 47.8218C45.1356 47.825 45.117 47.8303 45.0976 47.8335C44.8203 47.8788 44.4403 47.9272 44.0345 47.9379C43.6307 47.9486 43.1887 47.9221 42.7924 47.8113C42.4462 47.7145 42.1144 47.5463 41.8823 47.2629L41.7889 47.1348C41.6285 46.8827 41.5565 46.5796 41.53 46.2851C41.5033 45.9884 41.521 45.6821 41.5551 45.4103C41.5884 45.1452 41.6382 44.9065 41.68 44.7315C41.5805 44.7244 41.4601 44.7168 41.3235 44.7031C40.9195 44.6627 40.3692 44.5881 39.7883 44.4532C39.2088 44.3187 38.5887 44.1218 38.0501 43.8312C37.5803 43.5777 37.1569 43.2442 36.8833 42.8048L36.7749 42.6098C36.4432 41.9272 36.4523 40.9898 36.5275 40.2636C36.5646 39.9052 36.6193 39.5844 36.6662 39.3488C36.5491 39.3754 36.414 39.4038 36.2692 39.4239C36.0469 39.4548 35.7947 39.4714 35.5514 39.4468C35.34 39.4254 35.1191 39.3715 34.9291 39.2545L34.8505 39.2004C34.503 38.9398 34.4371 38.5499 34.4921 38.1825C34.5464 37.8211 34.7205 37.4372 34.9126 37.0992C35.0861 36.7937 35.2857 36.5108 35.4506 36.2907C35.1456 36.3038 34.7483 36.3074 34.34 36.2702C33.9093 36.2309 33.4482 36.1465 33.0683 35.9702C32.7341 35.815 32.4378 35.5756 32.3034 35.2154L32.2556 35.0536C32.1712 34.663 32.2936 34.2878 32.4867 33.9661C32.6802 33.6438 32.9597 33.3497 33.2357 33.1051C33.3874 32.9708 33.5409 32.8486 33.6841 32.7422C33.3485 32.7268 32.9409 32.6948 32.5256 32.6248C32.0213 32.5398 31.4882 32.3986 31.0569 32.1598C30.6783 31.9501 30.355 31.6508 30.2208 31.2303L30.1747 31.0419C30.1211 30.725 30.1781 30.3939 30.2777 30.0895C30.378 29.7832 30.5278 29.4867 30.6791 29.2305C30.831 28.9735 30.9877 28.7512 31.1066 28.5935C31.1222 28.5728 31.1384 28.5536 31.1527 28.5351C31.1279 28.5138 31.1001 28.4913 31.0717 28.4663C30.9077 28.3224 30.6852 28.1178 30.4512 27.8742C30.0488 27.4553 29.5867 26.8953 29.348 26.3181L29.2605 26.0704C29.012 25.2186 29.2688 24.1515 29.5567 23.3398C29.7036 22.9258 29.8643 22.5617 29.9884 22.3015C30.0406 22.1919 30.0872 22.1008 30.1229 22.0313C30.1058 22.0101 30.0859 21.9877 30.066 21.9622C29.9678 21.8364 29.8378 21.6587 29.7102 21.4525C29.5831 21.2468 29.455 21.0065 29.3656 20.7571C29.2881 20.5409 29.2346 20.3051 29.2438 20.0713L29.2517 19.9712C29.3011 19.5585 29.5691 19.1373 29.7922 18.8436C29.8913 18.7132 29.989 18.5999 30.0674 18.5125C29.9762 18.4232 29.8611 18.3048 29.7477 18.1663C29.622 18.0129 29.4923 17.8299 29.3969 17.6337C29.3261 17.4877 29.2688 17.3241 29.2524 17.1535L29.2514 16.9815C29.2673 16.7757 29.3124 16.6054 29.4497 16.4157C29.7082 16.0583 30.5 16.0001 30.5 16.0001C30.5 16.0001 29.7111 16.5861 29.7507 17.1064C29.7756 17.4321 30.023 17.7141 30.1342 17.8499C30.2445 17.9845 30.3572 18.1 30.4428 18.1823C30.4854 18.2233 30.5211 18.256 30.5455 18.2778C30.5575 18.2885 30.5673 18.2963 30.5735 18.3016C30.5765 18.3043 30.5807 18.3075 30.5807 18.3075L30.5817 18.3091L30.7944 18.4861L30.5962 18.68L30.5945 18.681C30.5945 18.681 30.5916 18.6843 30.589 18.6869C30.5836 18.6923 30.5751 18.7009 30.5644 18.7119C30.5429 18.7339 30.5111 18.7669 30.4731 18.8084C30.3969 18.8916 30.2943 19.0086 30.1902 19.1456C29.9731 19.4313 29.7808 19.7606 29.7485 20.0304L29.7433 20.1566C29.7479 20.2874 29.7805 20.4331 29.8362 20.5886C29.91 20.7942 30.0193 21.0015 30.1352 21.189C30.2507 21.3759 30.37 21.5388 30.4605 21.6545C30.5054 21.7121 30.5434 21.758 30.5695 21.7889C30.5823 21.8041 30.592 21.8159 30.5986 21.8236C30.6017 21.8272 30.6044 21.8298 30.606 21.8316L30.6076 21.834L30.7261 21.9669L30.6396 22.1218L30.6393 22.1232C30.6393 22.1232 30.638 22.1261 30.6368 22.1283C30.6345 22.1325 30.6307 22.1393 30.6261 22.1478C30.6168 22.1652 30.6026 22.1913 30.5851 22.225C30.5497 22.2931 30.4994 22.3927 30.4401 22.517C30.3213 22.7662 30.1671 23.1137 30.0275 23.5072C29.7425 24.3107 29.5398 25.2438 29.7403 25.9308L29.8122 26.134C30.0119 26.6134 30.4155 27.1155 30.8117 27.528C31.0336 27.759 31.2457 27.9536 31.4019 28.0908C31.4799 28.1593 31.544 28.2134 31.5882 28.2499C31.61 28.268 31.6272 28.2816 31.6386 28.2907C31.6442 28.2953 31.6483 28.2991 31.6511 28.3013L31.654 28.304L31.6554 28.3043L31.8608 28.4663L31.6893 28.6639L31.6865 28.6668C31.6845 28.6692 31.6818 28.6734 31.6776 28.6783C31.6692 28.6883 31.6563 28.7033 31.6402 28.7231C31.6079 28.7627 31.5615 28.8211 31.5062 28.8944C31.3952 29.0417 31.2494 29.2484 31.1095 29.4851C30.9693 29.7225 30.8378 29.9847 30.7526 30.2451C30.6666 30.5076 30.6324 30.7517 30.6674 30.9589L30.6958 31.074C30.7784 31.3358 30.9853 31.5487 31.2989 31.7224C31.6588 31.9216 32.1281 32.0509 32.6081 32.1317C33.0849 32.2121 33.5563 32.2419 33.9096 32.2516C34.0857 32.2565 34.2318 32.2559 34.3332 32.2545C34.3837 32.2538 36.109 32 36.109 32C36.109 32 34.3897 32.8598 34.2889 32.9271C34.0868 33.062 33.8221 33.2538 33.5668 33.48C33.3099 33.7076 33.0718 33.9622 32.9152 34.2231C32.7582 34.4846 32.6966 34.7275 32.7442 34.9477L32.7701 35.0354C32.8436 35.2355 33.014 35.393 33.2787 35.5159C33.5831 35.6572 33.9786 35.7361 34.3852 35.7731C34.7884 35.8099 35.1854 35.8047 35.4831 35.7902C35.6314 35.783 35.7541 35.7731 35.8393 35.7654C35.8818 35.7616 35.9153 35.7584 35.9375 35.756C35.9485 35.7548 35.9568 35.7536 35.9622 35.7529C35.9647 35.7527 35.9679 35.7528 35.9679 35.7528L35.9701 35.7526L36.6213 35.6726L36.188 36.1661C36.188 36.1661 36.185 36.1695 36.1833 36.1715C36.1799 36.1753 36.1742 36.1807 36.1675 36.1885C36.154 36.2043 36.1342 36.2279 36.109 36.2583C36.0583 36.3194 35.9867 36.4084 35.9035 36.5171C35.7365 36.7353 35.5265 37.0311 35.3474 37.3463C35.166 37.6656 35.0271 37.9854 34.9865 38.256C34.9468 38.5204 35.0038 38.6907 35.15 38.8005L35.2384 38.8553C35.3351 38.9037 35.4571 38.9347 35.6009 38.9493C35.791 38.9686 36.0006 38.957 36.2 38.9293C36.3983 38.9018 36.5795 38.8598 36.7116 38.8249C36.7773 38.8076 36.8302 38.7916 36.8663 38.7805C36.8842 38.775 36.8982 38.7712 36.9072 38.7683C36.9117 38.7669 36.9153 38.7649 36.9173 38.7642L36.9195 38.764L37.3599 38.6135L37.2422 39.0642L37.2405 39.0687C37.2395 39.0726 37.2378 39.0789 37.2358 39.0868C37.2319 39.1027 37.226 39.1269 37.2187 39.158C37.2041 39.2201 37.1843 39.311 37.1615 39.424C37.116 39.6505 37.0607 39.965 37.0244 40.3158C36.9503 41.032 36.9594 41.8443 37.2248 42.3908L37.3078 42.5406C37.5197 42.8805 37.8622 43.1611 38.2879 43.3908C38.7729 43.6525 39.3457 43.8372 39.9013 43.9662C40.4554 44.0949 40.9831 44.1666 41.373 44.2056C41.5674 44.2251 41.7267 44.2363 41.8371 44.2428C41.8923 44.2461 41.9355 44.2484 41.9643 44.2496C41.9787 44.2502 41.9902 44.2503 41.9974 44.2506C42.0005 44.2507 42.0044 44.2507 42.0044 44.2507L42.0066 44.2505L42.3369 44.2596L42.2384 44.5752L42.2378 44.5779C42.237 44.5805 42.2359 44.5851 42.2343 44.5906C42.2309 44.6018 42.2257 44.6194 42.2195 44.6417C42.2069 44.6865 42.189 44.7521 42.1694 44.8336C42.13 44.9974 42.0831 45.2237 42.0518 45.4731C42.0204 45.7233 42.0061 45.9909 42.0285 46.2401C42.0511 46.4914 42.1092 46.7069 42.2108 46.8665L42.2683 46.9456C42.4136 47.123 42.6382 47.2483 42.927 47.329C43.2563 47.4211 43.6433 47.4473 44.0218 47.4373C44.3981 47.4274 44.754 47.3821 45.0171 47.3391C45.1483 47.3177 45.2555 47.2974 45.3294 47.2821C45.3664 47.2745 45.395 47.2683 45.414 47.264C45.4234 47.2619 45.4304 47.2598 45.435 47.2587C45.4372 47.2582 45.4402 47.2577 45.4402 47.2577L45.4415 47.258L45.8792 47.1522L45.7371 47.5791L45.7362 47.5831C45.7353 47.5858 45.7338 47.5897 45.7321 47.595C45.7285 47.6064 45.7232 47.6241 45.7165 47.6467C45.7029 47.6922 45.6841 47.7594 45.6629 47.8421C45.6202 48.0077 45.569 48.2354 45.5352 48.4857C45.5012 48.7372 45.4854 49.0049 45.5094 49.2507C45.5337 49.4985 45.5967 49.706 45.7035 49.8556L45.762 49.9272C45.9094 50.0857 46.1307 50.1813 46.4175 50.2223C46.7454 50.269 47.1283 50.2389 47.5035 50.1716C47.8764 50.1048 48.2282 50.0043 48.4874 49.9196C48.6165 49.8775 48.7218 49.8398 48.7945 49.8126C48.8309 49.7991 48.8593 49.7875 48.8781 49.7801C48.8874 49.7765 48.8946 49.7732 48.8991 49.7713C48.9012 49.7705 48.9037 49.7695 48.9037 49.7695L48.9051 49.7698L49.2153 49.6423L49.2487 49.9756L49.2496 49.9808C49.2501 49.9851 49.2512 49.9923 49.2522 50.0012C49.2543 50.0189 49.2573 50.0456 49.2618 50.0796C49.2709 50.1481 49.2855 50.2471 49.3066 50.3674C49.3489 50.6089 49.4175 50.9333 49.5231 51.2686C49.6292 51.6056 49.7691 51.9442 49.9502 52.2183C50.1322 52.4935 50.3447 52.6329 50.6667 52.7884C51.8001 53.3355 53.5841 51.4194 53.5841 51.4194Z" fill="#FBF8EF"/>
<path d="M81.9999 74.9999C81.9999 74.9999 81.4278 76.5188 81.3676 76.8397C81.3069 77.1637 81.2801 77.4863 81.3211 77.7523C81.3619 78.0164 81.4624 78.1903 81.6241 78.2832L81.6838 78.3119C81.826 78.3715 82.0034 78.3746 82.2154 78.3217C82.4573 78.2612 82.7167 78.1342 82.9613 77.9833C83.2039 77.8335 83.4216 77.6669 83.5791 77.5369C83.6575 77.4723 83.7203 77.4169 83.7632 77.3783C83.7846 77.3591 83.8011 77.3437 83.812 77.3336C83.8171 77.3289 83.8208 77.3251 83.8233 77.3227L83.8263 77.3195L84.0797 77.0775L84.2267 77.3945L84.2277 77.3979C84.2288 77.4003 84.2313 77.4038 84.2337 77.4088C84.2385 77.4188 84.2454 77.4341 84.2551 77.4538C84.2744 77.4931 84.3039 77.5508 84.3411 77.6216C84.4156 77.7632 84.5231 77.9572 84.655 78.1669C84.9251 78.596 85.2761 79.0557 85.6365 79.2913L85.7457 79.356C86.0095 79.4982 86.337 79.5788 86.6995 79.6121C87.1116 79.6499 87.5515 79.6253 87.9589 79.5733C88.3652 79.5214 88.733 79.4437 88.9995 79.3785C89.1323 79.346 89.2394 79.3165 89.3129 79.2956C89.3497 79.2851 89.3785 79.2773 89.3974 79.2716C89.4066 79.2688 89.4133 79.2658 89.4178 79.2644C89.4201 79.2636 89.4233 79.2629 89.4233 79.2629L89.4245 79.2623L89.6861 79.1794L89.7445 79.448L89.7453 79.4523C89.746 79.4556 89.747 79.4615 89.7486 79.4685C89.7519 79.4826 89.7571 79.504 89.7639 79.531C89.7774 79.5857 89.7984 79.6647 89.8265 79.7612C89.8828 79.9554 89.9683 80.2179 90.0849 80.4917C90.202 80.7665 90.3473 81.0458 90.5212 81.2787C90.6965 81.5133 90.889 81.6851 91.0947 81.769L91.1795 81.799C91.385 81.8594 91.6291 81.8547 91.8988 81.7968C92.2049 81.7311 92.5227 81.6011 92.8154 81.4526C93.1069 81.3047 93.3655 81.1418 93.5516 81.0156C93.6444 80.9527 93.7192 80.8994 93.7698 80.862C93.795 80.8434 93.8145 80.8286 93.8273 80.8188C93.8336 80.814 93.8387 80.8101 93.8418 80.8078L93.8445 80.8055L93.8457 80.8049L94.127 80.5822L94.2381 80.9243L94.2391 80.9277C94.24 80.9304 94.2417 80.9347 94.2436 80.9402C94.2475 80.9517 94.2532 80.969 94.2612 80.9912C94.2774 81.0364 94.3019 81.1028 94.3341 81.1826C94.3988 81.3428 94.4941 81.5579 94.6166 81.7798C94.7397 82.0028 94.8871 82.2259 95.0533 82.406C95.221 82.5876 95.3947 82.7116 95.5688 82.7612L95.688 82.785C95.9786 82.8223 96.3531 82.732 96.7023 82.5999C96.8935 82.5275 97.0628 82.4486 97.1842 82.3874C97.2446 82.3569 97.2925 82.3308 97.3253 82.3128C97.3413 82.3039 97.3538 82.2967 97.3619 82.292L97.3728 82.2861L97.6721 82.1094L97.7442 82.4493L97.7449 82.4505C97.7449 82.4505 97.7461 82.4529 97.7466 82.455C97.7476 82.4597 97.7492 82.4672 97.7514 82.4768C97.7558 82.4963 97.7625 82.5258 97.7718 82.5632C97.7902 82.638 97.8179 82.746 97.8559 82.876C97.9321 83.137 98.0472 83.4847 98.2038 83.8355C98.3612 84.1882 98.5565 84.5328 98.7866 84.7958C99.0171 85.0592 99.2652 85.2206 99.5306 85.2528L99.6133 85.2588C99.8111 85.2638 100.03 85.2051 100.261 85.0972C100.524 84.9747 100.783 84.7962 101.016 84.6077C101.248 84.4198 101.447 84.2271 101.588 84.0807C101.659 84.008 101.714 83.9472 101.752 83.9049L101.806 83.8443L101.808 83.8409L101.809 83.8402L102.163 83.4172L102.247 83.963L102.248 83.9682C102.248 83.9721 102.249 83.9783 102.25 83.9863C102.253 84.0025 102.258 84.0265 102.264 84.0575C102.276 84.12 102.293 84.2102 102.319 84.3189C102.369 84.537 102.448 84.8265 102.559 85.1174C102.671 85.4106 102.812 85.6925 102.982 85.9036C103.153 86.1148 103.334 86.2329 103.526 86.2528L103.597 86.2552C103.764 86.2521 103.94 86.1788 104.125 86.038C104.335 85.8775 104.533 85.6459 104.707 85.3992C104.88 85.1543 105.5 84 105.5 84C105.5 84 106.072 87.0279 107.085 87.2496C108.116 87.4754 109.229 85.6011 109.229 85.6011C109.229 85.6011 108.806 86.3993 108.617 86.664C108.429 86.9272 108.197 87.2002 107.931 87.406C107.7 87.5855 107.464 87.7347 107.121 87.748C106.629 87.7671 106.237 87.4713 106.01 87.1523C105.784 86.8351 105.628 86.431 105.519 86.0481C105.447 85.7938 105.395 85.5407 105.356 85.317C105.284 85.436 105.205 85.5621 105.116 85.6874C104.928 85.9548 104.695 86.2319 104.428 86.4357C104.194 86.6137 103.916 86.7493 103.608 86.7554L103.475 86.7497C103.101 86.711 102.811 86.4864 102.594 86.2178C102.377 85.9492 102.213 85.6136 102.092 85.2967C101.985 85.0165 101.908 84.7405 101.854 84.5203C101.713 84.6611 101.536 84.831 101.331 84.9966C101.08 85.2 100.785 85.4046 100.473 85.5504C100.202 85.6772 99.9023 85.7666 99.5997 85.7586L99.4702 85.7491C99.0368 85.6965 98.6853 85.4394 98.4099 85.1247C98.134 84.8094 97.9156 84.4151 97.7478 84.0393C97.5792 83.6615 97.4563 83.2907 97.376 83.0158C97.3605 82.9628 97.3476 82.913 97.3352 82.8674C97.2111 82.9279 97.0547 83.0009 96.8794 83.0673C96.5232 83.202 96.0433 83.3373 95.6129 83.2791L95.4314 83.242C95.1361 83.1578 94.8873 82.9641 94.6857 82.7457C94.4827 82.5258 94.3134 82.2651 94.179 82.0216C94.0505 81.7889 93.9514 81.5648 93.8819 81.3947C93.8658 81.4058 93.85 81.4185 93.8328 81.4301C93.635 81.5642 93.357 81.7386 93.0414 81.8988C92.7272 82.0582 92.3667 82.2077 92.0034 82.2856C91.687 82.3535 91.3515 82.3708 91.0384 82.2787L90.9057 82.2315C90.5843 82.1005 90.3255 81.8525 90.1206 81.5782C89.9145 81.3022 89.7505 80.9833 89.6244 80.6871C89.4979 80.3899 89.4058 80.1079 89.3457 79.9007C89.3364 79.8689 89.3292 79.8383 89.3214 79.8101C89.2623 79.826 89.1944 79.8457 89.1182 79.8643C88.839 79.9326 88.4517 80.0142 88.0217 80.0691C87.5926 80.1239 87.114 80.1528 86.6536 80.1106C86.2526 80.0738 85.8518 79.9817 85.5074 79.7958L85.3634 79.7108C84.9063 79.4121 84.507 78.8709 84.2316 78.4332C84.105 78.2319 84.0006 78.0445 83.9233 77.8998C83.9146 77.907 83.9064 77.9151 83.8973 77.9226C83.7286 78.0618 83.4913 78.2428 83.2231 78.4084C82.9568 78.5727 82.6484 78.7292 82.3362 78.8072C82.0635 78.8753 81.7663 78.8884 81.492 78.7737L81.3754 78.7169C81.0329 78.5204 80.8813 78.1763 80.8276 77.828C80.7742 77.4816 80.8112 77.096 80.8764 76.7481C80.9125 76.556 80.9583 76.37 81.0056 76.2018C81.0018 76.2045 80.9986 76.2081 80.9948 76.2108C80.5979 76.4938 80.0614 76.8552 79.5105 77.1597C78.967 77.46 78.3803 77.7216 77.8903 77.7815C77.6436 77.8116 77.3908 77.7946 77.1776 77.6747C76.9818 77.5646 76.8492 77.3855 76.7804 77.1527L76.7545 77.0505C76.6587 76.583 76.8077 76.0251 76.9546 75.6191C77.0305 75.4093 77.3106 74.8819 77.3106 74.8819C77.3106 74.8819 76.7023 76.6644 77.4228 77.2389C78.0668 77.7523 81.9999 74.9999 81.9999 74.9999Z" fill="#FBF8EF"/>
<path d="M101.5 28.9998C101.5 28.9998 102.443 27.3781 103.474 27.158C104.491 26.9409 105.947 26.9616 106 27.9999C106.042 28.8272 105.5 29.4998 104.5 29.4998C103.312 29.4997 101.5 28.9998 101.5 28.9998Z" fill="#FBF8EF" stroke="#FBF8EF"/>
<path d="M101.186 63.1662C101.186 63.1662 100.582 63.7672 100.331 63.9653C100.081 64.1628 99.7884 64.3634 99.4787 64.5123C99.1708 64.6604 98.8295 64.765 98.4885 64.7499L98.3184 64.7331C97.9275 64.67 97.5844 64.4549 97.2958 64.1865C96.9654 63.8791 96.686 63.4835 96.4623 63.1019C96.2377 62.7185 96.0632 62.3385 95.945 62.0559C95.9285 62.0163 95.9156 61.9775 95.9012 61.9418C95.8936 61.9488 95.8857 61.9557 95.8778 61.9629C95.6909 62.1319 95.4268 62.3548 95.1205 62.5689C94.8152 62.7823 94.4605 62.9926 94.0925 63.1289C93.7721 63.2475 93.4257 63.3166 93.0867 63.2704L92.9417 63.2429C92.5754 63.1551 92.2587 62.9277 91.9963 62.6616C91.7327 62.3943 91.5089 62.0728 91.329 61.7687C91.1485 61.4635 91.0078 61.1683 90.9125 60.9505C90.9028 60.9282 90.8951 60.9057 90.8863 60.8851C90.8474 60.9114 90.8055 60.9411 90.7594 60.9711C90.5198 61.1271 90.1856 61.328 89.8106 61.5059C89.4373 61.6829 89.0129 61.8417 88.5947 61.9056C88.2299 61.9613 87.8496 61.948 87.5112 61.7903L87.3688 61.7134C87.0483 61.5157 86.827 61.1984 86.6727 60.8623C86.5178 60.5245 86.4206 60.1475 86.3592 59.8013C86.2976 59.4537 86.2704 59.1285 86.2584 58.8909C86.2579 58.8805 86.2584 58.8699 86.258 58.8598C86.1351 58.9055 85.9834 58.9625 85.8078 59.0215C85.3309 59.1819 84.6799 59.3754 83.9885 59.5048C83.3002 59.6335 82.5553 59.7025 81.8974 59.6014C81.279 59.5065 80.7067 59.2558 80.3515 58.7341L80.2835 58.626C80.0857 58.2868 79.9937 57.8794 79.9597 57.476C79.9256 57.0706 79.949 56.6523 79.9933 56.2785C80.0376 55.9037 80.1038 55.5674 80.159 55.3254C80.1602 55.32 80.1621 55.3147 80.1634 55.3094L73.8625 56.36L79.957 49.2502L73 49L81.9896 44.2501L76 44L80.3985 41.7725L77.1779 43.7501L83.5 44L75 48.5L81.0432 48.7503L75.1377 55.6405L80.853 54.6881C80.853 54.6881 79.7532 57.4676 80.8164 58.5216C81.6814 59.3791 83.2324 59.1376 83.8964 59.0133C84.5574 58.8897 85.1854 58.7039 85.649 58.548C85.8801 58.4703 86.0694 58.4001 86.2007 58.3498C86.2663 58.3247 86.3175 58.3046 86.3518 58.2908C86.369 58.2839 86.3825 58.2786 86.3911 58.2751C86.395 58.2735 86.3979 58.2718 86.3999 58.271L86.402 58.2704L86.4032 58.2697L86.7579 58.1208L86.7498 58.5053L86.7495 58.5112C86.7495 58.5151 86.7498 58.5215 86.7497 58.5292C86.7496 58.5453 86.7495 58.5692 86.7498 58.6001C86.7504 58.6627 86.7522 58.7538 86.7578 58.8653C86.7691 59.0888 86.7948 59.3922 86.8517 59.7134C86.9089 60.0358 86.996 60.3682 87.1268 60.6535C87.2586 60.9406 87.4259 61.1611 87.631 61.2876L87.7215 61.3365C87.9405 61.4387 88.2106 61.4587 88.5191 61.4116C88.8705 61.358 89.2458 61.2207 89.5962 61.0546C89.9447 60.8893 90.2588 60.7005 90.4863 60.5524C90.5998 60.4785 90.6917 60.4148 90.7542 60.3703C90.7853 60.3481 90.8091 60.3301 90.825 60.3183C90.833 60.3124 90.8389 60.308 90.8428 60.3051L90.8486 60.3013L91.1207 60.0941L91.2354 60.4167L91.2375 60.4211C91.2388 60.4247 91.2401 60.4307 91.2429 60.4382C91.2484 60.4532 91.2575 60.4755 91.2688 60.5046C91.2916 60.5627 91.3253 60.6472 91.37 60.7494C91.4597 60.9546 91.5915 61.2308 91.7589 61.5139C91.9269 61.7979 92.1275 62.0822 92.3526 62.3105C92.5792 62.5403 92.8167 62.6986 93.0581 62.7564L93.1541 62.7746C93.3836 62.8059 93.6426 62.7615 93.9189 62.6592C94.2327 62.543 94.549 62.3589 94.8345 62.1594C95.1188 61.9606 95.3662 61.7516 95.5427 61.5919C95.6307 61.5124 95.7005 61.4453 95.7481 61.3987C95.7718 61.3754 95.7903 61.3574 95.8023 61.3452C95.8082 61.3391 95.8124 61.3339 95.8152 61.331L95.8187 61.3287L96.1056 61.0278L96.2372 61.4218C96.2372 61.4218 96.238 61.4257 96.2389 61.4281C96.2406 61.4331 96.2435 61.4407 96.2471 61.4508C96.2542 61.471 96.2648 61.5017 96.2791 61.5404C96.3077 61.6179 96.3506 61.7295 96.4067 61.8636C96.5192 62.1329 97.2225 63.9518 98.3985 64.239C99.5317 64.5158 101.186 63.1662 101.186 63.1662Z" fill="#FBF8EF"/>
<path d="M102 29C102 29 104.014 29.1627 105 28.5C105.458 28.192 105.5 27.5 105.5 27.5C105.5 27.5 105.888 28.5201 105.5 29C104.64 30.0625 102 29 102 29Z" fill="#F8A300"/>
<path d="M38.4999 22.4998C38.4999 22.4998 52.2837 23.146 55.9999 29.4996C57.247 31.6316 56.7396 33.3756 57.9999 35.4998C60.0539 38.9618 65.9999 41.9998 65.9999 41.9998" stroke="#FBF8EF" stroke-width="0.5"/>
</g>
<defs>
<clipPath id="clip0_2741_1492">
<rect width="128" height="128" fill="white"/>
</clipPath>
</defs>
</svg>
