<svg width="128" height="128" viewBox="0 0 128 128" fill="none" xmlns="http://www.w3.org/2000/svg">
<g clip-path="url(#clip0_2802_147)">
<mask id="mask0_2802_147" style="mask-type:luminance" maskUnits="userSpaceOnUse" x="0" y="0" width="128" height="128">
<path d="M128 0H0V128H128V0Z" fill="white"/>
</mask>
<g mask="url(#mask0_2802_147)">
<path d="M128 0H0V128H128V0Z" fill="#FBF8EF"/>
<path d="M64 4.00001C30.8629 4.00001 4 30.8629 4 64C4 97.1371 30.8629 124 64 124C97.1371 124 124 97.1371 124 64C124 30.8629 97.1371 4.00001 64 4.00001Z" fill="#F8A300"/>
<path d="M74.6836 46.3683C75.8658 45.2411 77.4615 44.4436 79.3348 43.8937L80.0518 43.6983C83.6994 42.7813 88.2554 42.7272 92.775 43.0817L93.6766 43.1575C98.1838 43.5639 102.582 44.3476 105.923 45.0482L107.201 45.3223C108.417 45.5902 109.444 45.8349 110.22 46.0272L110.22 46.0281L111.021 46.2295L111.72 46.4096L111.307 47.0008L110.83 47.6759C110.365 48.3269 109.745 49.1811 108.996 50.1759L108.204 51.2154C106.122 53.9207 103.291 57.3776 100.133 60.6184L99.4972 61.2625C96.2953 64.4718 92.8 67.3948 89.4332 69.0713L88.7616 69.3894C86.9811 70.1903 85.2505 70.6227 83.6194 70.5358C82.0787 70.4536 80.6516 69.9093 79.3843 68.822L79.1335 68.5971C76.4077 66.0589 74.5507 63.4478 73.4791 60.5499C72.4075 57.6516 72.1189 54.4598 72.5379 50.7589L72.5821 50.425C72.8374 48.7748 73.567 47.433 74.6836 46.3683Z" fill="#63BCE5" stroke="#FBF8EF"/>
<path d="M39.5716 58.5736C41.2348 57.8663 42.8514 57.4917 44.3806 57.5732C46.0241 57.6609 47.5383 58.2742 48.8674 59.5116L49.3676 59.9888C51.8216 62.3776 53.5162 64.8423 54.5208 67.5592C55.5254 70.2762 55.8421 73.2511 55.5324 76.662L55.4626 77.3489C55.2582 79.1533 54.5075 80.605 53.3163 81.7408C52.208 82.7975 50.7365 83.5646 49.0134 84.1095L48.6652 84.2154C45.1429 85.2493 40.6499 85.3905 36.1299 85.0926L35.2259 85.027C31.0099 84.6967 26.833 84.0118 23.4676 83.3451L22.0766 83.0608C20.7405 82.7805 19.574 82.5136 18.6377 82.2895L17.781 82.0815L17.7801 82.0819C17.472 82.0055 17.2035 81.9374 16.9785 81.8795L16.2799 81.6995L16.6933 81.1083L17.1705 80.4331L17.6864 79.7166C18.2517 78.9372 18.9639 77.9755 19.7964 76.8937L20.6682 75.7738C22.7903 73.0778 25.5166 69.84 28.5037 66.8462L29.1476 66.2083C32.3866 63.0417 35.8906 60.2258 39.2384 58.7197L39.5716 58.5736Z" fill="#63BCE5" stroke="#FBF8EF"/>
<path d="M47.1247 17.2232L47.7772 17.6899L48.4687 18.1943C49.2217 18.7475 50.1511 19.4445 51.1968 20.2591L52.2797 21.1123C54.8848 23.1882 58.0143 25.854 60.9102 28.7724L61.5282 29.4019C64.5917 32.5664 67.3181 35.9881 68.7831 39.2521L69.0588 39.9019C70.3062 43.0291 70.3175 45.9724 68.2751 48.3815L68.0563 48.629C65.6216 51.272 63.111 53.0698 60.3198 54.1018C57.7031 55.0693 54.8359 55.3652 51.5474 55.0495L50.8839 54.9784C47.3501 54.5591 45.3083 51.9856 44.2318 48.3297L44.041 47.6308C43.1425 44.0775 43.0708 39.6446 43.3934 35.2491L43.4636 34.3715C43.8362 29.988 44.5722 25.7116 45.233 22.4642L45.4925 21.223C45.7456 20.0406 45.9768 19.0425 46.1587 18.2883L46.3507 17.5093L46.5276 16.7994L47.1247 17.2232Z" fill="#63BCE5" stroke="#FBF8EF"/>
<path d="M73.4465 74.0555C74.6275 73.5463 75.8689 73.1395 77.4804 72.9555L77.8187 72.9241C79.4877 72.8036 80.808 73.2415 81.8446 74.1062L82.0494 74.2856C82.9855 75.1488 83.6805 76.3826 84.1773 77.8863L84.2803 78.2127C85.2845 81.5161 85.3854 85.9976 85.0462 90.6048L84.972 91.5276C84.6027 95.8373 83.8783 100.189 83.1799 103.72L82.8831 105.181C82.5904 106.587 82.313 107.819 82.08 108.81L81.8632 109.719C81.7806 110.06 81.7066 110.356 81.6449 110.601L81.4673 111.31L80.8706 110.887L80.1329 110.359C79.4458 109.863 78.5456 109.203 77.4991 108.411L76.4064 107.576C73.5653 105.383 69.9504 102.428 66.6063 99.2115L65.9411 98.5641C62.5264 95.2045 59.4818 91.6058 57.9513 88.3172L57.8078 87.9996C57.0692 86.3133 56.7466 84.7214 56.9874 83.2969L57.0388 83.0333C57.3301 81.7205 58.1236 80.5514 59.5542 79.5836L59.8404 79.3945C61.2597 78.4824 62.5358 78.0175 63.8616 77.638L65.1159 77.2991L65.9152 77.0869C66.7292 76.8668 67.5905 76.6153 68.5179 76.2724C69.7547 75.8151 70.7968 75.3106 71.7704 74.8387L72.9434 74.2801L73.4465 74.0555Z" fill="#63BCE5" stroke="#FBF8EF"/>
<path d="M85.8656 18.3724L86.0018 19.1716C86.1299 19.9448 86.2889 20.9669 86.4557 22.1763L86.6242 23.4456C87.0468 26.7648 87.4633 31.1259 87.4911 35.5672L87.4908 36.4564C87.4651 40.9064 87.026 45.365 85.7939 48.8752L85.5363 49.5639C84.1522 53.0562 81.9114 55.4368 78.4072 55.7221L78.064 55.7428C74.5415 55.8891 71.5225 55.4578 68.8313 54.3755L68.2972 54.1502C65.6485 52.9804 63.3102 51.1524 61.1125 48.5845L60.6741 48.0605C59.5384 46.671 59.0471 45.1406 59.0982 43.5195C59.1489 41.9122 59.7314 40.2456 60.688 38.5577L61.0651 37.9217C63.0371 34.7409 66.2733 31.5205 69.7727 28.6071L70.476 28.0284C74.004 25.1591 77.7215 22.6251 80.6197 20.7733L81.7321 20.0704C82.7967 19.405 83.7087 18.8564 84.4031 18.4467L85.123 18.0254L85.7423 17.6673L85.8656 18.3724Z" fill="#63BCE5" stroke="#FBF8EF"/>
<path d="M42.6015 78.2091C44.0412 74.7895 46.3512 72.514 49.9372 72.365L50.6351 72.3433C54.0912 72.2744 57.0558 72.788 59.7041 73.9576L60.2288 74.1998C62.8371 75.4577 65.1463 77.3804 67.3262 80.0476L67.5312 80.3092C68.5209 81.628 68.9504 83.0676 68.9027 84.5873C68.8553 86.0942 68.3402 87.6538 67.4877 89.2336L67.3123 89.5504C65.5132 92.7246 62.3834 95.9609 58.9236 98.9137L58.2277 99.5011C54.9626 102.22 51.4734 104.666 48.5811 106.558L47.3812 107.334C45.8359 108.321 44.5236 109.115 43.5981 109.661L43.5972 109.661C43.322 109.824 43.0813 109.965 42.8782 110.082L42.2589 110.441L42.1347 109.736L41.9994 108.936L41.8618 108.082C41.7153 107.15 41.5451 105.99 41.3761 104.662L41.2081 103.282C40.8217 99.9403 40.4855 95.8029 40.5095 91.6517L40.5208 90.7615C40.6035 86.3146 41.1255 81.9234 42.465 78.5439L42.6015 78.2091Z" fill="#63BCE5" stroke="#FBF8EF"/>
<path d="M18.0151 42.8381C20.571 42.363 28.5722 40.9972 36.5935 40.8884L37.5029 40.8812C42.0456 40.8752 46.5195 41.3002 49.9433 42.541L50.2814 42.6669C51.9529 43.3125 53.3551 44.1616 54.3691 45.2744C55.3916 46.3967 56.0005 47.7677 56.1067 49.411L56.1215 49.7439C56.2011 53.1875 55.6978 56.1491 54.5353 58.8014L54.2947 59.3276C53.0443 61.9387 51.1268 64.2574 48.4573 66.4534L47.9132 66.891C45.0927 69.1107 41.8581 68.885 38.54 67.2247L38.2186 67.0594C35.0027 65.3637 31.7486 62.3685 28.7926 59.0447L28.2058 58.3756C25.487 55.2383 23.0507 51.8777 21.1706 49.0887L20.3999 47.9306C19.6643 46.8123 19.038 45.8202 18.5427 45.0169L18.0918 44.2788C17.931 44.0134 17.7919 43.7806 17.676 43.585L17.3109 42.9693L18.0151 42.8381Z" fill="#63BCE5" stroke="#FBF8EF"/>
<path d="M80.3617 61.0093C83.2086 58.9463 86.459 59.2964 89.7822 61.0484L90.4259 61.4039C93.6451 63.2682 96.8792 66.3686 99.7937 69.7316L100.372 70.4068C103.241 73.798 105.761 77.381 107.6 80.1766L108.297 81.2503C108.958 82.2774 109.502 83.1572 109.907 83.8275L110.324 84.5231L110.689 85.1388L109.986 85.2697L109.165 85.4181C108.371 85.5585 107.322 85.735 106.081 85.9222L104.778 86.1115C101.372 86.5906 96.9001 87.0845 92.3539 87.2004L91.4446 87.2191C86.8911 87.2831 82.3378 86.9422 78.7707 85.8091L78.0709 85.5722C76.246 84.9127 74.7194 84.0252 73.6352 82.8373C72.5418 81.6392 71.9193 80.1575 71.8779 78.3634L71.8703 77.6811C71.8691 74.3012 72.4552 71.3916 73.7061 68.7801L73.9652 68.2616C75.3049 65.6888 77.3171 63.3971 80.0876 61.2168L80.3617 61.0093Z" fill="#63BCE5" stroke="#FBF8EF"/>
<path d="M78.1045 53.1338C79.3674 52.5844 80.8555 52.4205 82.4824 52.5332L83.1006 52.5889C86.222 52.9295 89.7982 54.215 93.2207 55.8076L93.9033 56.1299C97.3027 57.7604 100.508 59.6558 102.911 61.1777L103.828 61.7646C104.699 62.3289 105.43 62.8204 105.979 63.1973L106.546 63.5889L107.133 63.999L106.547 64.4092L105.979 64.8008C105.43 65.1778 104.699 65.669 103.828 66.2334L102.911 66.8213C100.508 68.343 97.3027 70.2377 93.9033 71.8682L93.2207 72.1904C89.7981 73.7829 86.2221 75.0685 83.1006 75.4092L82.4824 75.4648C80.8555 75.5775 79.3674 75.4136 78.1045 74.8643C76.9098 74.3445 75.9407 73.4896 75.2578 72.252L75.125 71.999C73.7279 69.2046 73.0293 66.6017 73.0293 63.999C73.0293 61.3961 73.7279 58.7933 75.125 55.999L75.2578 55.7461C75.9407 54.5086 76.9099 53.6535 78.1045 53.1338Z" fill="#63BCE5" stroke="#FBF8EF"/>
<path d="M46.3687 52.5049C47.7609 52.4681 49.0389 52.653 50.144 53.1338C51.4182 53.6882 52.4352 54.6244 53.1226 55.999L53.3765 56.5205C54.6045 59.1185 55.2183 61.5589 55.2183 63.999C55.2183 66.4392 54.6045 68.8795 53.3765 71.4775L53.1226 71.999C52.4352 73.3737 51.4182 74.3098 50.144 74.8643C49.0389 75.3451 47.7609 75.5308 46.3687 75.4941L45.7651 75.4648C42.707 75.2529 39.1536 74.0537 35.7134 72.5049L35.0269 72.1904C31.8324 70.7044 28.7717 68.9508 26.3394 67.4482L25.3364 66.8213C24.6957 66.4155 24.1123 66.0359 23.5972 65.6953L22.2681 64.8018C22.0499 64.6521 21.8605 64.5201 21.7017 64.4092L21.1147 64L21.7007 63.5898L22.2681 63.1973L23.5972 62.3027C24.1122 61.9622 24.6959 61.5833 25.3364 61.1777L26.3394 60.5508C28.7718 59.048 31.8323 57.2939 35.0269 55.8076L35.7134 55.4932C39.1536 53.9446 42.707 52.7451 45.7651 52.5332L46.3687 52.5049Z" fill="#63BCE5" stroke="#FBF8EF"/>
<path d="M64.4092 21.7139L64.8018 22.2803L65.6953 23.6094C66.0358 24.1244 66.4147 24.7081 66.8203 25.3486H66.8213C68.4444 27.912 70.4919 31.3884 72.1904 35.0391L72.5049 35.7256C74.0535 39.1658 75.2529 42.7192 75.4648 45.7773L75.4941 46.3809C75.5308 47.7731 75.3451 49.0511 74.8643 50.1562C74.3445 51.3507 73.4894 52.3192 72.252 53.002L71.999 53.1348C69.2047 54.5319 66.6018 55.2305 63.999 55.2305C61.5589 55.2305 59.1185 54.6167 56.5205 53.3887L55.999 53.1348C54.6244 52.4474 53.6882 51.4304 53.1338 50.1562C52.5843 48.8932 52.4204 47.4045 52.5332 45.7773L52.5889 45.1592C52.9296 42.0378 54.215 38.4615 55.8076 35.0391L56.1299 34.3574C57.5431 31.4109 59.1553 28.6105 60.5508 26.3516L61.1777 25.3486C61.9892 24.0671 62.6949 23.0133 63.1973 22.2803L63.5889 21.7139L63.999 21.126L64.4092 21.7139Z" fill="#63BCE5" stroke="#FBF8EF"/>
<path d="M68.6162 74.6846C69.6946 74.6263 70.7938 74.6675 72.1201 74.999L72.3984 75.0742C73.7605 75.4766 74.6852 76.2297 75.2568 77.2441L75.3662 77.4502C75.8213 78.3594 76.0157 79.4609 76.0039 80.6973L75.9844 81.2773C75.8137 84.223 74.5901 87.8397 72.9893 91.4199L72.6641 92.1357C71.1256 95.4699 69.2968 98.7314 67.7266 101.346L67.0713 102.425C66.6469 103.116 66.2502 103.747 65.8936 104.306L64.957 105.748C64.7936 105.996 64.6498 106.211 64.5303 106.389L64.1152 107.007L63.7002 106.388L63.2744 105.748C62.8796 105.149 62.3656 104.357 61.7754 103.415L61.1611 102.425C59.5706 99.8343 57.594 96.4067 55.9053 92.8486L55.5713 92.1357C53.924 88.5633 52.6099 84.9071 52.3027 81.875L52.2549 81.2773C52.1643 79.7065 52.3724 78.3263 52.9824 77.2441L53.1016 77.0449C53.721 76.0656 54.6992 75.3544 56.1201 74.999L56.6748 74.874C57.9402 74.6215 59.0081 74.632 60.085 74.7148L61.167 74.8145L61.8535 74.8809C62.5537 74.9453 63.298 74.999 64.1201 74.999C65.2158 74.999 66.1732 74.9047 67.0723 74.8154V74.8145C67.4408 74.7778 67.8027 74.742 68.1553 74.7148L68.6162 74.6846Z" fill="#63BCE5" stroke="#FBF8EF"/>
<path d="M94.4097 34.291L94.2856 34.9697C94.1634 35.6251 93.9949 36.4887 93.7778 37.5039L93.5444 38.5674C92.9214 41.3427 91.9953 44.9494 90.7446 48.5059L90.4897 49.2158C89.1957 52.762 87.5762 56.2004 85.6099 58.6484L85.2124 59.124C84.1416 60.3542 82.9735 61.2913 81.6919 61.7959C80.4796 62.2732 79.1896 62.3533 77.8315 61.9609L77.5591 61.876C74.7805 60.9497 72.5548 59.7091 70.771 58.041L70.4204 57.7012C68.6952 55.9758 67.4037 53.8166 66.4351 51.1113L66.2456 50.5625C65.7595 49.1043 65.8167 47.7228 66.3257 46.4297C66.8302 45.1481 67.7673 43.9799 68.9976 42.9092L69.4741 42.5117C71.9221 40.5457 75.3592 38.9258 78.9048 37.6318L79.6157 37.377C83.1723 36.1262 86.7789 35.2004 89.5542 34.5771L90.6177 34.3438C91.6328 34.1267 92.4965 33.9572 93.1519 33.835L93.8306 33.7119L94.5347 33.5869L94.4097 34.291Z" fill="#63BCE5" stroke="#FBF8EF"/>
<path d="M46.5547 66.2002C47.8478 65.6912 49.2293 65.6341 50.6875 66.1201L51.2354 66.3096C53.9409 67.2784 56.1006 68.5694 57.8262 70.2949L58.166 70.6455C59.8339 72.4292 61.0749 74.655 62.001 77.4336L62.0859 77.7061C62.4783 79.064 62.3981 80.3541 61.9209 81.5664C61.4794 82.6878 60.7067 83.7222 59.6963 84.6807L59.249 85.0869C56.9366 87.0997 53.5756 88.764 50.0479 90.1016L49.3408 90.3643C46.0309 91.5722 42.6264 92.4969 39.8438 93.1543L38.6914 93.4199C37.9513 93.5862 37.2702 93.7301 36.665 93.8535L35.0938 94.1611C34.8338 94.2096 34.6062 94.2513 34.415 94.2852L33.7109 94.4102L33.8359 93.7051L33.959 93.0273L34.2666 91.4551C34.39 90.8499 34.535 90.1687 34.7012 89.4287L34.9668 88.2764C35.6244 85.4939 36.5482 82.0897 37.7559 78.7803L38.0195 78.0723C39.3572 74.5446 41.0216 71.1842 43.0342 68.8721L43.4404 68.4248C44.3989 67.4143 45.4332 66.6417 46.5547 66.2002Z" fill="#63BCE5" stroke="#FBF8EF"/>
<path d="M34.4175 33.7129C36.5335 34.0883 43.1248 35.3603 49.3726 37.6436L50.0786 37.9062C53.6008 39.2437 56.9539 40.9074 59.2603 42.918L59.7065 43.3242C60.7143 44.2818 61.4844 45.3153 61.9243 46.4355C62.3998 47.6464 62.4792 48.934 62.0874 50.29L62.0034 50.5625C61.0156 53.5263 59.669 55.8607 57.8286 57.7012C56.1031 59.4267 53.9432 60.7177 51.2378 61.6865L50.6899 61.876C49.2318 62.362 47.8502 62.3049 46.5571 61.7959C45.4357 61.3544 44.4014 60.5816 43.4429 59.5713L43.0366 59.124C41.0242 56.8116 39.3587 53.4516 38.021 49.9238L37.7583 49.2158C36.5506 45.9062 35.6267 42.5022 34.9692 39.7197L34.7036 38.5674C34.5374 37.8273 34.3925 37.1462 34.269 36.541L33.9614 34.9697C33.913 34.7103 33.8722 34.4834 33.8384 34.293L33.7134 33.5879L34.4175 33.7129Z" fill="#63BCE5" stroke="#FBF8EF"/>
<path d="M77.8232 66.0352C79.1813 65.6428 80.4713 65.723 81.6836 66.2002C82.9652 66.7047 84.1333 67.6417 85.2041 68.8721L85.6016 69.3486C87.5677 71.7967 89.1874 75.2341 90.4814 78.7803L90.7363 79.4902C91.987 83.0468 92.913 86.6533 93.5361 89.4287L93.7695 90.4932C93.9866 91.5084 94.1561 92.3722 94.2783 93.0273H94.2773C94.326 93.2873 94.3676 93.5144 94.4014 93.7051L94.5264 94.4102L93.8223 94.2852L93.1436 94.1611C92.4882 94.0388 91.6246 93.8705 90.6094 93.6533L89.5459 93.4199C86.7705 92.7967 83.1641 91.87 79.6074 90.6191L78.8965 90.3643C75.3507 89.0703 71.9137 87.4506 69.4658 85.4844L68.9893 85.0869C67.7589 84.0161 66.8219 82.848 66.3174 81.5664C65.8084 80.2733 65.7513 78.8918 66.2373 77.4336L66.4268 76.8848C67.3955 74.1797 68.6867 72.0202 70.4121 70.2949L70.7627 69.9551C72.5465 68.287 74.7722 67.0462 77.5508 66.1201L77.8232 66.0352Z" fill="#63BCE5" stroke="#FBF8EF"/>
<path d="M64 44C75.0457 44 84 52.9543 84 64C84 75.0457 75.0457 84 64 84C52.9543 84 44 75.0457 44 64C44 52.9543 52.9543 44 64 44Z" fill="#FBF8EF" stroke="#FBF8EF"/>
<path d="M64 50C71.732 50 78 56.268 78 64C78 71.732 71.732 78 64 78C56.268 78 50 71.732 50 64C50 56.268 56.268 50 64 50Z" fill="#F8A300" stroke="#FBF8EF"/>
<path d="M124 106V124H106L124 106Z" fill="#F8A300"/>
<path d="M106 4H124V22L106 4Z" fill="#F8A300"/>
<path d="M22 4H4V22L22 4Z" fill="#F8A300"/>
<path d="M22 124H4V106L22 124Z" fill="#F8A300"/>
</g>
</g>
<defs>
<clipPath id="clip0_2802_147">
<rect width="128" height="128" fill="white"/>
</clipPath>
</defs>
</svg>
