<svg width="128" height="128" viewBox="0 0 128 128" fill="none" xmlns="http://www.w3.org/2000/svg">
<g clip-path="url(#clip0_2741_1191)">
<rect width="128" height="128" fill="#FBF8EF"/>
<path d="M92.0561 45.138C92.5646 43.4499 93.7344 42.382 95.1946 41.7479C96.7305 41.081 98.5978 40.8857 100.403 40.9051L100.968 40.9152C102.286 40.949 103.609 41.0662 104.777 41.4668C106.051 41.9037 107.149 42.6804 107.869 44.031L108.009 44.3076C108.661 45.701 108.423 46.8892 108.001 48.0079C107.802 48.537 107.53 49.1252 107.314 49.6541C107.116 50.1395 106.939 50.634 106.82 51.1616L106.773 51.3895C106.652 52.0354 106.541 52.9383 106.404 53.9296C106.269 54.9065 106.109 55.9566 105.89 56.8497C105.781 57.2964 105.654 57.7173 105.502 58.0765C105.353 58.4279 105.163 58.7618 104.909 58.9967C104.637 59.249 104.275 59.395 103.859 59.304C103.529 59.2319 103.229 59.0233 102.95 58.7389L102.832 58.613C102.189 57.8932 101.725 56.7803 101.379 55.5856C101.135 54.7424 100.942 53.8268 100.789 52.9208C100.678 53.792 100.541 54.6724 100.362 55.4895C100.132 56.5364 99.8314 57.5232 99.4247 58.2574L99.2431 58.5559C98.9974 58.9252 98.7104 59.2225 98.3579 59.3493C97.9631 59.4911 97.5958 59.3843 97.3084 59.1708C97.0416 58.9726 96.8236 58.6726 96.6413 58.3538C96.4547 58.0274 96.2826 57.6392 96.1222 57.2245C95.802 56.3959 95.5103 55.4079 95.2421 54.4917C94.9695 53.5612 94.724 52.7148 94.4899 52.1225L94.4014 51.91C94.1879 51.4199 93.9253 50.9734 93.645 50.5399C93.3395 50.0676 92.9693 49.5482 92.6791 49.0724C92.0654 48.0663 91.6134 46.9607 91.9626 45.4834L92.0561 45.138Z" fill="#63BCE5" stroke="#FBF8EF"/>
<path d="M117.693 52.1893C119.454 52.2715 120.774 53.1462 121.745 54.408C122.766 55.7353 123.41 57.4989 123.831 59.2548L123.958 59.8048C124.246 61.0914 124.455 62.4029 124.351 63.634C124.237 64.9761 123.751 66.2301 122.616 67.2572L122.382 67.4596C121.189 68.4317 119.979 68.49 118.791 68.3533C118.23 68.2886 117.593 68.168 117.027 68.0876C116.508 68.0138 115.986 67.9623 115.445 67.9757L115.212 67.9853C114.556 68.0248 113.654 68.1374 112.659 68.2458C111.679 68.3526 110.621 68.4535 109.702 68.4587C109.242 68.4613 108.803 68.4409 108.417 68.3808C108.04 68.322 107.67 68.219 107.38 68.03C107.069 67.8269 106.84 67.5121 106.827 67.086C106.816 66.7488 106.945 66.4062 107.153 66.0667L107.247 65.9215C107.788 65.1227 108.755 64.4016 109.829 63.7756C110.588 63.3337 111.429 62.9235 112.27 62.5541C111.398 62.6589 110.511 62.74 109.675 62.7652C108.604 62.7977 107.573 62.746 106.762 62.5303L106.428 62.4268C106.01 62.2785 105.652 62.0724 105.443 61.7614C105.21 61.413 105.224 61.0308 105.361 60.7C105.488 60.393 105.726 60.1086 105.991 59.8541C106.262 59.5936 106.597 59.3322 106.96 59.0757C107.686 58.5634 108.573 58.04 109.396 57.5567C110.232 57.0658 110.994 56.6216 111.511 56.2504L111.696 56.1128C112.119 55.7863 112.488 55.4229 112.84 55.0455C113.224 54.6343 113.638 54.1488 114.029 53.7515C114.855 52.9113 115.817 52.2038 117.335 52.1827L117.693 52.1893Z" fill="#63BCE5" stroke="#FBF8EF"/>
<path d="M82.2661 50.9383C80.505 51.0205 79.1845 51.8952 78.214 53.157C77.1932 54.4843 76.5491 56.2479 76.1284 58.0039L76.0007 58.5538C75.7126 59.8404 75.5042 61.1519 75.6083 62.383C75.7217 63.7252 76.2078 64.9791 77.3425 66.0063L77.5769 66.2086C78.7695 67.1807 79.9799 67.239 81.1676 67.1023C81.7294 67.0377 82.3661 66.9171 82.9316 66.8366C83.4505 66.7628 83.9734 66.7113 84.5139 66.7247L84.7466 66.7344C85.4025 66.7738 86.3052 66.8865 87.3 66.9948C88.2804 67.1016 89.3378 67.2025 90.2572 67.2077C90.7172 67.2103 91.1563 67.1899 91.5417 67.1298C91.9188 67.071 92.2889 66.9681 92.5785 66.779C92.8896 66.576 93.1191 66.2611 93.1323 65.835C93.1426 65.4978 93.0135 65.1552 92.8055 64.8157L92.7122 64.6706C92.1705 63.8718 91.2041 63.1507 90.1295 62.5246C89.3711 62.0828 88.5301 61.6726 87.6887 61.3032C88.5606 61.408 89.4479 61.489 90.284 61.5143C91.3553 61.5467 92.3857 61.4951 93.1968 61.2793L93.5305 61.1758C93.9485 61.0275 94.3068 60.8214 94.5155 60.5104C94.7493 60.1621 94.7351 59.7798 94.598 59.4491C94.4706 59.142 94.2328 58.8576 93.9679 58.6032C93.6968 58.3426 93.3622 58.0812 92.999 57.8248C92.2733 57.3124 91.3861 56.789 90.5628 56.3057C89.7266 55.8149 88.9654 55.3706 88.4479 54.9994L88.2633 54.8618C87.84 54.5354 87.4708 54.172 87.1187 53.7946C86.7349 53.3833 86.3213 52.8978 85.9305 52.5005C85.1041 51.6603 84.1418 50.9528 82.6239 50.9317L82.2661 50.9383Z" fill="#63BCE5" stroke="#FBF8EF"/>
<path d="M78.4846 76.0403C77.7216 77.6297 77.8652 79.2071 78.5157 80.66C79.2001 82.1882 80.4471 83.5917 81.7934 84.795L82.217 85.1683C83.213 86.0322 84.2688 86.8377 85.4019 87.3301C86.6373 87.8668 87.9718 88.0337 89.4142 87.5219L89.7035 87.4115C91.125 86.8227 91.7505 85.7848 92.1935 84.6744C92.403 84.1491 92.5989 83.5314 92.7963 82.9955C92.9775 82.5036 93.1801 82.0189 93.4483 81.5494L93.5671 81.3491C93.913 80.7904 94.4403 80.0491 95.0076 79.2247C95.5666 78.4123 96.1571 77.5293 96.5977 76.7223C96.8181 76.3187 97.0085 75.9224 97.1384 75.5546C97.2655 75.1947 97.3504 74.8201 97.3214 74.4755C97.2902 74.1053 97.1218 73.7538 96.753 73.5402C96.461 73.3712 96.0981 73.3222 95.7006 73.3444L95.5286 73.3577C94.5684 73.4557 93.4752 73.9644 92.4143 74.6135C91.6656 75.0715 90.9056 75.6174 90.1813 76.1829C90.6871 75.465 91.1793 74.7223 91.5982 73.9982C92.1348 73.0705 92.5781 72.1389 92.7729 71.3225L92.8402 70.9796C92.9079 70.5413 92.8964 70.1282 92.7216 69.7969C92.5258 69.4258 92.1825 69.257 91.8263 69.2208C91.4956 69.1873 91.1324 69.2618 90.7828 69.3743C90.4248 69.4894 90.036 69.6599 89.6379 69.8581C88.8427 70.2539 87.961 70.7867 87.1451 71.2823C86.3163 71.7856 85.5642 72.245 84.9919 72.5245L84.7832 72.6217C84.295 72.8395 83.8 72.9921 83.3008 73.1231C82.7567 73.2659 82.1331 73.3998 81.5979 73.5554C80.4663 73.8843 79.387 74.3959 78.6485 75.7222L78.4846 76.0403Z" fill="#63BCE5" stroke="#FBF8EF"/>
<path d="M108.307 88.5637C109.902 89.3146 111.479 89.1591 112.927 88.4977C114.45 87.8018 115.844 86.5442 117.037 85.1889L117.407 84.7625C118.263 83.76 119.061 82.6982 119.545 81.5614C120.072 80.322 120.229 78.9862 119.706 77.5477L119.594 77.2593C118.994 75.8423 117.951 75.2246 116.838 74.79C116.311 74.5844 115.692 74.3933 115.154 74.1999C114.661 74.0224 114.175 73.8235 113.703 73.5588L113.502 73.4415C112.941 73.0999 112.196 72.5781 111.367 72.0171C110.55 71.4642 109.663 70.8805 108.853 70.4459C108.447 70.2286 108.05 70.0412 107.681 69.9141C107.32 69.7897 106.945 69.7076 106.6 69.7393C106.23 69.7733 105.88 69.9443 105.669 70.3147C105.503 70.6079 105.456 70.9712 105.482 71.3685L105.496 71.5405C105.601 72.4998 106.118 73.5892 106.775 74.6451C107.239 75.3903 107.791 76.1462 108.362 76.8662C107.64 76.3658 106.894 75.8793 106.166 75.4659C105.235 74.9363 104.3 74.5 103.482 74.3114L103.138 74.2467C102.7 74.1824 102.287 74.197 101.957 74.3742C101.587 74.5729 101.421 74.9174 101.387 75.2738C101.356 75.6048 101.434 75.9674 101.549 76.3162C101.667 76.6733 101.84 77.0608 102.041 77.4574C102.443 78.2496 102.982 79.1272 103.484 79.9394C103.994 80.7643 104.459 81.5129 104.743 82.0831L104.841 82.291C105.063 82.7776 105.219 83.2714 105.354 83.7697C105.501 84.3127 105.639 84.9352 105.799 85.4692C106.137 86.5983 106.656 87.6737 107.988 88.4022L108.307 88.5637Z" fill="#63BCE5" stroke="#FBF8EF"/>
<path d="M101.192 58.3495L101.193 58.3505C101.193 58.3515 101.195 58.3535 101.196 58.3557C101.199 58.3601 101.203 58.3667 101.209 58.3754C101.221 58.3935 101.239 58.4213 101.262 58.4563C101.309 58.5263 101.378 58.6282 101.465 58.7544C101.639 59.0074 101.887 59.3576 102.18 59.744C102.773 60.5259 103.525 61.4236 104.216 61.9862L104.419 62.1452C104.917 62.518 105.56 62.9022 106.119 63.212C106.435 63.387 106.718 63.5347 106.921 63.6384C107.022 63.6902 107.104 63.7307 107.16 63.7583C107.188 63.7721 107.209 63.7831 107.224 63.7901C107.231 63.7935 107.236 63.7956 107.24 63.7973C107.241 63.7981 107.243 63.7992 107.244 63.7996L107.244 63.7997L107.792 64.0648L107.427 64.5508L107.426 64.5507L107.426 64.5517C107.425 64.5526 107.424 64.5544 107.423 64.5563C107.419 64.5607 107.414 64.5677 107.407 64.5766C107.394 64.5945 107.374 64.6219 107.348 64.657C107.297 64.7271 107.223 64.8298 107.131 64.9593C106.948 65.2188 106.698 65.5839 106.429 66.0061C105.952 66.7541 105.436 67.6525 105.121 68.45L105 68.7847C104.762 69.5055 104.754 70.5162 104.821 71.3952C104.854 71.8251 104.903 72.2068 104.943 72.4803C104.964 72.6167 104.982 72.7259 104.995 72.8002C105.002 72.837 105.007 72.8651 105.011 72.8838C105.012 72.893 105.014 72.9003 105.015 72.9047C105.015 72.9069 105.015 72.9088 105.015 72.9097L105.015 72.9107L105.183 73.7586L104.364 73.4806L104.362 73.4805C104.361 73.48 104.358 73.4789 104.356 73.4779C104.35 73.476 104.341 73.4727 104.33 73.4689C104.306 73.4611 104.271 73.4497 104.226 73.4348C104.136 73.405 104.004 73.3616 103.84 73.3096C103.513 73.2055 103.058 73.0658 102.55 72.9208C101.649 72.664 100.61 72.4017 99.8066 72.2914L99.4775 72.2542C98.5626 72.1741 97.2087 72.3205 96.0469 72.4984C95.4737 72.5862 94.9602 72.6792 94.5903 72.7504C94.4056 72.786 94.257 72.8165 94.1548 72.8376C94.1037 72.8481 94.0636 72.8565 94.0371 72.8621C94.0243 72.8648 94.0147 72.8671 94.0081 72.8685C94.0049 72.8692 94.0018 72.8694 94.0002 72.8698L93.9982 72.8706L92.9263 73.1037L93.4533 72.1412L93.4543 72.1413C93.4548 72.1404 93.4555 72.1386 93.4567 72.1366C93.459 72.1323 93.4623 72.125 93.4672 72.1159C93.4769 72.0977 93.4916 72.0702 93.5103 72.0342C93.5479 71.9617 93.6022 71.8545 93.6667 71.7209C93.7959 71.4534 93.9657 71.0799 94.1288 70.656C94.4443 69.8364 94.7005 68.9118 94.6586 68.2023L94.6467 68.0631C94.5439 67.2188 94.1028 66.0268 93.6618 65.0069C93.4451 64.5057 93.2343 64.061 93.0783 63.7412C93.0004 63.5814 92.9367 63.4529 92.8921 63.3651C92.8699 63.3212 92.8524 63.2874 92.8407 63.2647C92.8349 63.2535 92.8301 63.2447 92.8272 63.2391C92.8258 63.2365 92.8254 63.2343 92.8247 63.233L92.8239 63.232L92.4992 62.612L93.1901 62.506L93.1911 62.5061C93.1919 62.5059 93.1933 62.5057 93.195 62.5054C93.1988 62.5048 93.205 62.5033 93.213 62.502C93.2291 62.4993 93.2536 62.495 93.2855 62.4894C93.3498 62.4783 93.4443 62.4613 93.5623 62.438C93.7985 62.3913 94.1281 62.3199 94.4985 62.222C95.2515 62.0231 96.1277 61.7265 96.7495 61.3278L97.0442 61.1309C97.7441 60.6461 98.5246 59.9929 99.1669 59.4243C99.531 59.1018 99.8458 58.811 100.069 58.6009C100.181 58.4959 100.27 58.4104 100.33 58.3522C100.361 58.323 100.384 58.3005 100.399 58.2854C100.407 58.278 100.414 58.273 100.417 58.2693C100.419 58.2674 100.421 58.2656 100.422 58.2647L100.423 58.2638L100.86 57.8368L101.192 58.3495Z" fill="#F8A300" stroke="#FBF8EF"/>
<circle cx="96.4835" cy="64.8244" r="1.16615" fill="#FBF8EF"/>
<circle cx="100.369" cy="61.715" r="1.16615" fill="#FBF8EF"/>
<circle cx="104.255" cy="64.8244" r="1.16615" fill="#FBF8EF"/>
<circle cx="102.7" cy="70.2648" r="1.16615" fill="#FBF8EF"/>
<circle cx="100.368" cy="66.3776" r="1.94305" fill="#FBF8EF"/>
<circle cx="97.2599" cy="69.4865" r="1.16615" fill="#FBF8EF"/>
<path d="M119.177 6.4499C120.251 6.07757 121.253 6.28769 122.125 6.80366C123.034 7.34211 123.814 8.21712 124.454 9.1215L124.845 9.69248C125.226 10.2744 125.568 10.8893 125.764 11.5286C126.015 12.3502 126.025 13.2192 125.593 14.1054L125.501 14.2828C125.011 15.1658 124.283 15.4929 123.558 15.6905C123.227 15.7809 122.819 15.8623 122.498 15.9406C122.238 16.0042 121.984 16.0765 121.736 16.1735L121.489 16.28C121.134 16.4476 120.658 16.7102 120.117 16.9986C119.588 17.2801 119.007 17.5793 118.479 17.7938C118.215 17.9012 117.953 17.993 117.708 18.0493C117.471 18.1037 117.208 18.1359 116.962 18.0867C116.691 18.0325 116.429 17.873 116.295 17.5656C116.207 17.363 116.193 17.139 116.219 16.9158L116.257 16.6935C116.392 16.0765 116.797 15.4235 117.266 14.8225C117.38 14.6762 117.5 14.5293 117.625 14.3841C117.476 14.4547 117.33 14.5245 117.184 14.5882C116.583 14.8499 115.969 15.0633 115.432 15.1281L115.207 15.1473C114.921 15.1587 114.622 15.1229 114.382 14.9594C114.106 14.7706 114.008 14.4821 114.011 14.2146C114.014 13.9731 114.096 13.7301 114.192 13.5177C114.292 13.2972 114.428 13.065 114.578 12.8341C114.876 12.3734 115.264 11.8714 115.618 11.4145C115.981 10.9456 116.303 10.5323 116.505 10.2157L116.64 9.9873C116.766 9.75616 116.869 9.51659 116.965 9.27012C117.082 8.96721 117.214 8.57984 117.345 8.26777C117.631 7.58465 118.042 6.91455 118.96 6.53198L119.177 6.4499Z" fill="#63BCE5" stroke="#FBF8EF"/>
<path d="M125.067 21.6516C125.69 22.6031 125.73 23.626 125.442 24.5971C125.141 25.6105 124.482 26.5796 123.761 27.4206L123.302 27.939C122.831 28.4503 122.318 28.9319 121.745 29.2769C121.009 29.7204 120.169 29.9421 119.204 29.7384L119.01 29.6922C118.034 29.4324 117.54 28.806 117.171 28.1512C117.003 27.8518 116.825 27.4756 116.671 27.1837C116.546 26.9465 116.414 26.7182 116.259 26.5013L116.096 26.288C115.847 25.9843 115.476 25.5868 115.065 25.1316C114.663 24.6874 114.231 24.1963 113.895 23.7371C113.726 23.5072 113.573 23.2748 113.459 23.051C113.349 22.8346 113.253 22.587 113.241 22.3366C113.228 22.0604 113.319 21.7677 113.584 21.5628C113.759 21.4278 113.973 21.3604 114.196 21.3313L114.421 21.3139C115.052 21.2945 115.784 21.5282 116.481 21.8366C116.651 21.9117 116.823 21.9923 116.994 22.078C116.889 21.9514 116.786 21.8262 116.689 21.7C116.288 21.1812 115.932 20.6373 115.738 20.1322L115.665 19.9187C115.584 19.6447 115.546 19.3455 115.646 19.0734C115.762 18.7593 116.018 18.5938 116.278 18.5319C116.513 18.4761 116.769 18.4966 116.999 18.538C117.237 18.581 117.495 18.6562 117.755 18.7452C118.275 18.9228 118.856 19.1762 119.385 19.4083C119.929 19.6465 120.408 19.8584 120.764 19.9772L121.019 20.0521C121.274 20.1187 121.531 20.1602 121.793 20.1929C122.116 20.2331 122.524 20.2666 122.858 20.3173C123.59 20.4283 124.34 20.664 124.935 21.4618L125.067 21.6516Z" fill="#63BCE5" stroke="#FBF8EF"/>
<path d="M113.052 3.76224C112.343 2.87368 111.383 2.51634 110.371 2.4871C109.314 2.4566 108.188 2.78016 107.164 3.20299L106.528 3.4769C105.895 3.76533 105.278 4.10257 104.771 4.53883C104.12 5.0995 103.647 5.82857 103.54 6.80875L103.523 7.00795C103.465 8.01596 103.906 8.6812 104.413 9.23529C104.645 9.48864 104.947 9.77552 105.176 10.0129C105.362 10.2058 105.538 10.4024 105.696 10.6168L105.848 10.8385C106.059 11.1699 106.321 11.646 106.625 12.1791C106.921 12.6994 107.253 13.2628 107.584 13.7258C107.75 13.9575 107.923 14.1754 108.1 14.3538C108.271 14.5262 108.477 14.6941 108.711 14.7838C108.969 14.8827 109.276 14.8876 109.553 14.6993C109.736 14.5752 109.867 14.3929 109.964 14.1903L110.051 13.9821C110.266 13.3884 110.273 12.6201 110.197 11.8616C110.179 11.6769 110.156 11.4887 110.128 11.2993C110.215 11.4382 110.302 11.5755 110.392 11.7073C110.76 12.2493 111.165 12.7577 111.584 13.0994L111.764 13.2357C112 13.3977 112.272 13.5274 112.562 13.517C112.896 13.5051 113.133 13.3135 113.273 13.0857C113.4 12.8798 113.46 12.6305 113.492 12.3997C113.526 12.1599 113.535 11.891 113.532 11.616C113.525 11.0669 113.466 10.4357 113.41 9.86027C113.354 9.26984 113.302 8.74837 113.3 8.37288L113.308 8.10783C113.325 7.84481 113.366 7.58727 113.416 7.32782C113.479 7.00899 113.574 6.61112 113.631 6.27753C113.754 5.54729 113.764 4.76115 113.191 3.94718L113.052 3.76224Z" fill="#63BCE5" stroke="#FBF8EF"/>
<path d="M99.1684 10.7743C98.0495 10.9776 97.2799 11.6526 96.7739 12.5301C96.2459 13.4459 95.9965 14.5909 95.883 15.6931L95.8226 16.3825C95.7763 17.0766 95.7802 17.7803 95.924 18.4331C96.1089 19.2721 96.5264 20.0342 97.3383 20.5938L97.5057 20.7031C98.3657 21.232 99.1605 21.1595 99.8888 20.9758C100.222 20.8918 100.618 20.7622 100.935 20.673C101.193 20.6005 101.45 20.539 101.714 20.5017L101.981 20.4733C102.372 20.4449 102.916 20.4401 103.529 20.4253C104.128 20.4109 104.781 20.3861 105.346 20.314C105.629 20.278 105.903 20.2289 106.144 20.1577C106.377 20.0889 106.622 19.9876 106.812 19.8241C107.021 19.6437 107.171 19.3762 107.137 19.0425C107.115 18.8227 107.016 18.621 106.884 18.4394L106.742 18.2643C106.321 17.793 105.648 17.423 104.944 17.1297C104.773 17.0582 104.596 16.9892 104.416 16.924C104.58 16.9128 104.742 16.9016 104.901 16.8853C105.552 16.8184 106.192 16.7026 106.692 16.4954L106.898 16.4016C107.152 16.2714 107.395 16.0932 107.523 15.8332C107.671 15.5329 107.615 15.2334 107.481 15.002C107.36 14.7931 107.169 14.6217 106.981 14.4839C106.786 14.3407 106.554 14.2051 106.31 14.0775C105.823 13.8229 105.239 13.5757 104.707 13.3515C104.16 13.1215 103.676 12.9196 103.345 12.743L103.115 12.6101C102.892 12.4709 102.684 12.3128 102.48 12.145C102.229 11.9388 101.924 11.6661 101.657 11.4583C101.072 11.0037 100.385 10.6218 99.3972 10.7396L99.1684 10.7743Z" fill="#63BCE5" stroke="#FBF8EF"/>
<path d="M103.475 30.1353C103.687 31.2525 104.367 32.017 105.249 32.5164C106.168 33.0375 107.315 33.2783 108.418 33.3835L109.108 33.4386C109.803 33.4797 110.506 33.4705 111.158 33.3217C111.995 33.1305 112.754 32.7073 113.308 31.8912L113.416 31.723C113.938 30.8589 113.86 30.0648 113.671 29.3378C113.584 29.0054 113.452 28.6107 113.36 28.2937C113.285 28.036 113.222 27.7801 113.183 27.5168L113.152 27.2498C113.121 26.8583 113.112 26.315 113.093 25.7017C113.074 25.103 113.044 24.4498 112.968 23.8856C112.929 23.6033 112.878 23.3297 112.805 23.0893C112.735 22.8569 112.632 22.6123 112.467 22.4236C112.285 22.2154 112.016 22.0678 111.683 22.1044C111.463 22.1285 111.262 22.2285 111.081 22.3621L110.907 22.5056C110.439 22.9296 110.074 23.6057 109.786 24.3114C109.716 24.4833 109.649 24.6604 109.585 24.841C109.572 24.6773 109.56 24.5153 109.542 24.3569C109.471 23.7057 109.35 23.0667 109.139 22.5686L109.044 22.3639C108.912 22.1108 108.731 21.8687 108.47 21.7424C108.169 21.5965 107.87 21.6549 107.64 21.7908C107.432 21.9137 107.262 22.1058 107.125 22.2948C106.984 22.4911 106.85 22.7244 106.724 22.9691C106.473 23.4575 106.23 24.0432 106.01 24.5777C105.784 25.1261 105.586 25.6113 105.412 25.9439L105.281 26.1744C105.143 26.3992 104.987 26.6078 104.821 26.8133C104.616 27.066 104.346 27.373 104.14 27.6416C103.69 28.2295 103.313 28.9196 103.438 29.9068L103.475 30.1353Z" fill="#63BCE5" stroke="#FBF8EF"/>
<path d="M116.178 15.9062L116.177 15.9102C116.176 15.913 116.173 15.9179 116.171 15.9238C116.167 15.9357 116.16 15.9535 116.152 15.9766C116.134 16.0236 116.109 16.0929 116.078 16.1797C116.017 16.3535 115.934 16.5968 115.849 16.8749C115.676 17.4425 115.508 18.1137 115.478 18.6291L115.474 18.9388C115.479 19.2667 115.514 19.6388 115.554 19.9677C115.58 20.1826 115.607 20.3716 115.628 20.5068C115.639 20.5743 115.647 20.6285 115.653 20.6651C115.656 20.6832 115.659 20.697 115.661 20.7061C115.662 20.7108 115.662 20.7143 115.663 20.7165L115.663 20.7187L115.769 21.3183L115.161 21.307C115.161 21.3069 115.159 21.3068 115.158 21.3068C115.155 21.3068 115.149 21.3068 115.143 21.3067C115.13 21.3065 115.11 21.3066 115.085 21.3065C115.033 21.3063 114.957 21.3066 114.862 21.3077C114.671 21.3101 114.405 21.3168 114.105 21.3346C113.57 21.3664 112.961 21.4312 112.477 21.5552L112.278 21.6128C111.878 21.7403 111.403 22.0733 110.997 22.4164C110.802 22.5818 110.635 22.7393 110.518 22.8544C110.46 22.9115 110.414 22.9578 110.383 22.9896C110.367 23.0055 110.355 23.0178 110.348 23.0257C110.344 23.0293 110.342 23.032 110.34 23.0338L110.338 23.0361L109.749 23.669L109.494 22.843L109.494 22.8422L109.488 22.8229C109.484 22.8089 109.477 22.7876 109.469 22.7605C109.451 22.706 109.425 22.626 109.393 22.5278C109.328 22.3312 109.236 22.0601 109.127 21.7609C108.932 21.2262 108.695 20.6335 108.472 20.2138L108.377 20.0453C108.103 19.589 107.564 18.9897 107.063 18.4816C106.818 18.2332 106.591 18.0159 106.425 17.8606C106.343 17.7831 106.275 17.7214 106.229 17.6792C106.206 17.6582 106.189 17.6415 106.177 17.6308C106.171 17.6254 106.166 17.6214 106.163 17.6187C106.162 17.6176 106.161 17.6165 106.16 17.6159L106.16 17.6151L105.342 16.8836L106.43 16.7465L106.433 16.7458C106.436 16.7455 106.44 16.7455 106.446 16.7448C106.458 16.7432 106.476 16.7401 106.499 16.7366C106.547 16.7295 106.617 16.719 106.703 16.7036C106.877 16.6726 107.115 16.6241 107.375 16.5551C107.854 16.428 108.33 16.2496 108.633 16.0289L108.753 15.9318C109.108 15.6017 109.524 14.9827 109.869 14.4027C110.036 14.1207 110.179 13.8614 110.28 13.6727C110.33 13.5785 110.37 13.5023 110.397 13.4499C110.411 13.4237 110.42 13.4031 110.427 13.3897C110.431 13.383 110.434 13.3778 110.435 13.3746C110.436 13.3732 110.436 13.372 110.437 13.3714L110.438 13.3709L110.748 12.7449L111.24 13.2417L111.241 13.2434C111.243 13.2449 111.246 13.247 111.249 13.2503C111.256 13.2568 111.266 13.2673 111.28 13.2806C111.307 13.3073 111.348 13.3466 111.4 13.395C111.505 13.4924 111.654 13.6265 111.83 13.7706C112.192 14.067 112.631 14.3762 113.02 14.5284L113.426 14.672C113.858 14.8105 114.353 14.9336 114.787 15.0305C115.073 15.0943 115.327 15.1451 115.508 15.18C115.599 15.1974 115.672 15.2108 115.722 15.2198C115.746 15.2243 115.766 15.228 115.778 15.2302C115.784 15.2313 115.789 15.2316 115.792 15.2322L115.796 15.2331L116.398 15.3369L116.178 15.9062Z" fill="#F8A300" stroke="#FBF8EF"/>
<circle cx="111.133" cy="15.8251" r="0.708348" transform="rotate(54.0922 111.133 15.8251)" fill="#FBF8EF"/>
<circle cx="114.047" cy="16.6298" r="0.708348" transform="rotate(54.0922 114.047 16.6298)" fill="#FBF8EF"/>
<circle cx="113.901" cy="19.6483" r="0.708348" transform="rotate(54.0922 113.901 19.6483)" fill="#FBF8EF"/>
<circle cx="110.671" cy="20.8212" r="0.708348" transform="rotate(54.0922 110.671 20.8212)" fill="#FBF8EF"/>
<circle cx="111.753" cy="18.2894" r="1.17997" transform="rotate(54.0922 111.753 18.2894)" fill="#FBF8EF"/>
<circle cx="109.116" cy="17.8681" r="0.708348" transform="rotate(54.0922 109.116 17.8681)" fill="#FBF8EF"/>
<path d="M47.8316 103.184C48.9334 103.465 49.6536 104.193 50.0967 105.104C50.5591 106.054 50.7274 107.214 50.7632 108.321L50.7749 109.013C50.7723 109.709 50.7189 110.411 50.5296 111.052C50.2862 111.876 49.8162 112.607 48.967 113.108L48.7923 113.205C47.8972 113.672 47.1095 113.544 46.3959 113.31C46.0696 113.202 45.684 113.045 45.3733 112.934C45.1208 112.843 44.8694 112.764 44.609 112.708L44.3445 112.661C43.9558 112.605 43.414 112.562 42.8031 112.505C42.2068 112.448 41.5568 112.377 40.9985 112.266C40.7191 112.21 40.4493 112.142 40.214 112.054C39.9864 111.969 39.7489 111.851 39.5708 111.674C39.3745 111.479 39.244 111.202 39.3014 110.872C39.3393 110.654 39.4517 110.46 39.5964 110.288L39.7505 110.123C40.2031 109.683 40.9008 109.361 41.6232 109.118C41.7991 109.058 41.9801 109.002 42.1643 108.95C42.0017 108.927 41.8409 108.904 41.6839 108.877C41.0385 108.764 40.4083 108.604 39.9244 108.362L39.726 108.254C39.4817 108.106 39.2514 107.911 39.1417 107.643C39.015 107.333 39.0921 107.038 39.2422 106.817C39.3779 106.617 39.5803 106.459 39.7775 106.335C39.9823 106.206 40.2236 106.087 40.4757 105.977C40.9788 105.757 41.5786 105.552 42.1259 105.365C42.6874 105.174 43.184 105.007 43.5269 104.854L43.7652 104.738C43.9982 104.615 44.2161 104.471 44.4317 104.318C44.6967 104.13 45.0201 103.88 45.301 103.691C45.9161 103.279 46.6284 102.946 47.6058 103.133L47.8316 103.184Z" fill="#63BCE5" stroke="#FBF8EF"/>
<path d="M44.3699 119.116C44.3652 120.253 43.8351 121.128 43.0594 121.78C42.25 122.46 41.1661 122.905 40.1008 123.21L39.4325 123.39C38.7572 123.556 38.0636 123.676 37.3957 123.648C36.5373 123.613 35.714 123.335 35.0211 122.633L34.8843 122.487C34.2133 121.733 34.1459 120.938 34.1995 120.188C34.224 119.846 34.2825 119.433 34.3148 119.105C34.3411 118.838 34.3569 118.575 34.3476 118.309L34.3288 118.041C34.2884 117.65 34.1982 117.114 34.1055 116.508C34.0151 115.916 33.9254 115.268 33.8977 114.699C33.8838 114.415 33.8843 114.136 33.9123 113.887C33.9394 113.645 33.9963 113.386 34.1241 113.17C34.2651 112.933 34.5023 112.739 34.8368 112.714C35.0572 112.698 35.2729 112.759 35.4749 112.858L35.6721 112.967C36.2096 113.299 36.6916 113.897 37.1033 114.539C37.2036 114.695 37.3024 114.857 37.398 115.023C37.3805 114.859 37.3632 114.698 37.3515 114.539C37.3036 113.885 37.3058 113.235 37.4225 112.707L37.479 112.488C37.5628 112.215 37.6958 111.945 37.9294 111.773C38.1991 111.574 38.5039 111.577 38.7551 111.669C38.982 111.752 39.1841 111.91 39.3526 112.071C39.5277 112.238 39.7018 112.443 39.87 112.661C40.2057 113.096 40.551 113.627 40.8649 114.113C41.1869 114.611 41.4701 115.052 41.7019 115.347L41.8729 115.55C42.049 115.746 42.2409 115.922 42.4418 116.094C42.6887 116.305 43.0105 116.558 43.2617 116.785C43.8115 117.281 44.3075 117.891 44.3642 118.884L44.3699 119.116Z" fill="#63BCE5" stroke="#FBF8EF"/>
<path d="M44.2013 97.5652C44.0988 96.4327 43.4952 95.6059 42.6664 95.0235C41.8015 94.4158 40.6833 94.0651 39.5957 93.8536L38.9144 93.732C38.2272 93.6238 37.526 93.5649 36.8629 93.6498C36.0108 93.759 35.2144 94.1068 34.5845 94.8655L34.4607 95.0224C33.8572 95.8318 33.8584 96.6298 33.9763 97.3717C34.0302 97.7109 34.124 98.1166 34.1845 98.441C34.2336 98.7047 34.2719 98.9655 34.2856 99.2314L34.29 99.5001C34.2833 99.8927 34.2395 100.434 34.1994 101.047C34.1603 101.644 34.1267 102.297 34.148 102.866C34.1587 103.151 34.1831 103.428 34.2325 103.675C34.2802 103.913 34.3592 104.166 34.5051 104.37C34.666 104.595 34.9191 104.768 35.2545 104.764C35.4755 104.761 35.6851 104.681 35.8778 104.565L36.0649 104.439C36.5719 104.063 37.0005 103.425 37.3555 102.751C37.442 102.586 37.5265 102.417 37.6075 102.243C37.6041 102.407 37.6008 102.57 37.6028 102.729C37.6112 103.384 37.6695 104.032 37.8312 104.548L37.9062 104.761C38.0132 105.026 38.169 105.284 38.4165 105.435C38.7023 105.609 39.0057 105.58 39.2482 105.467C39.4671 105.365 39.6548 105.19 39.8089 105.015C39.9689 104.834 40.1247 104.614 40.2736 104.383C40.5706 103.921 40.8689 103.362 41.1398 102.851C41.4178 102.327 41.662 101.864 41.8675 101.549L42.0204 101.333C42.179 101.122 42.355 100.93 42.5404 100.741C42.7681 100.51 43.0671 100.23 43.2978 99.9828C43.8029 99.4412 44.2446 98.7908 44.2155 97.7962L44.2013 97.5652Z" fill="#63BCE5" stroke="#FBF8EF"/>
<path d="M28.7523 95.7667C27.7067 95.3197 26.6925 95.4589 25.7867 95.9124C24.8414 96.3855 24.0024 97.2036 23.3003 98.0607L22.87 98.6028C22.4489 99.1565 22.0644 99.7458 21.8246 100.37C21.5166 101.172 21.445 102.038 21.8141 102.952L21.8936 103.136C22.3198 104.051 23.023 104.428 23.732 104.676C24.0562 104.79 24.4578 104.9 24.7721 105C25.0275 105.082 25.2753 105.172 25.5159 105.286L25.7545 105.41C26.097 105.602 26.5531 105.897 27.0731 106.223C27.5808 106.541 28.1397 106.88 28.6507 107.132C28.9064 107.257 29.162 107.367 29.4023 107.441C29.6346 107.512 29.8951 107.562 30.1438 107.53C30.418 107.495 30.6903 107.355 30.8458 107.057C30.9481 106.862 30.9771 106.639 30.9668 106.415L30.9447 106.19C30.8535 105.565 30.4955 104.885 30.0701 104.253C29.9665 104.099 29.8572 103.944 29.7428 103.79C29.8857 103.871 30.0271 103.951 30.1684 104.025C30.749 104.328 31.3469 104.584 31.878 104.687L32.1011 104.722C32.3849 104.753 32.6862 104.738 32.9366 104.592C33.2257 104.423 33.3439 104.142 33.3594 103.875C33.3733 103.634 33.3085 103.386 33.2276 103.167C33.1436 102.94 33.0245 102.699 32.8914 102.458C32.6258 101.978 32.2748 101.45 31.9537 100.969C31.6242 100.476 31.3319 100.041 31.1527 99.711L31.0345 99.4736C30.9244 99.2342 30.8385 98.988 30.7605 98.7354C30.6646 98.425 30.5604 98.0293 30.4521 97.7088C30.2149 97.0073 29.8518 96.3099 28.9624 95.8638L28.7523 95.7667Z" fill="#63BCE5" stroke="#FBF8EF"/>
<path d="M21.676 114.296C21.237 115.345 21.3838 116.358 21.8441 117.26C22.3244 118.202 23.1488 119.035 24.0112 119.73L24.5565 120.156C25.1133 120.573 25.7056 120.953 26.3314 121.188C27.1356 121.49 28.0022 121.555 28.9138 121.179L29.0966 121.098C30.0086 120.665 30.3807 119.959 30.6234 119.248C30.7344 118.923 30.8413 118.521 30.9396 118.206C31.0194 117.95 31.1075 117.701 31.2198 117.46L31.3416 117.22C31.5311 116.877 31.8231 116.418 32.1449 115.896C32.4591 115.386 32.7941 114.824 33.0414 114.311C33.1651 114.055 33.2731 113.798 33.3447 113.557C33.4139 113.325 33.4625 113.064 33.4289 112.815C33.3918 112.541 33.249 112.27 32.9506 112.117C32.754 112.016 32.5313 111.989 32.3069 112.001L32.0827 112.025C31.4584 112.12 30.7813 112.484 30.1521 112.914C29.9988 113.018 29.8448 113.129 29.6919 113.244C29.7718 113.101 29.8506 112.959 29.9233 112.817C30.2223 112.234 30.4737 111.634 30.5722 111.103L30.6054 110.879C30.6347 110.595 30.6178 110.294 30.4696 110.045C30.2986 109.757 30.0168 109.641 29.7496 109.627C29.5084 109.615 29.2607 109.682 29.0427 109.764C28.8163 109.85 28.5761 109.971 28.3363 110.106C27.8577 110.375 27.3324 110.73 26.8542 111.055C26.3634 111.388 25.9307 111.684 25.6021 111.865L25.3657 111.985C25.127 112.097 24.8815 112.185 24.6295 112.265C24.3198 112.363 23.9249 112.47 23.6053 112.581C22.9056 112.824 22.211 113.192 21.7715 114.085L21.676 114.296Z" fill="#63BCE5" stroke="#FBF8EF"/>
<path d="M40.1175 109.422L40.1144 109.424C40.112 109.426 40.1075 109.429 40.1024 109.433C40.0921 109.44 40.077 109.451 40.0571 109.466C40.0166 109.496 39.9573 109.539 39.8838 109.595C39.7367 109.706 39.5334 109.863 39.3095 110.049C38.8526 110.427 38.342 110.894 38.0334 111.308L37.859 111.564C37.6827 111.841 37.5065 112.17 37.3585 112.467C37.2619 112.661 37.1807 112.833 37.1239 112.958C37.0954 113.02 37.0724 113.07 37.0574 113.104C37.05 113.12 37.0449 113.134 37.0412 113.142C37.0393 113.146 37.0378 113.15 37.0369 113.152L37.0359 113.154L36.7945 113.713L36.2933 113.368C36.2928 113.368 36.2916 113.367 36.2904 113.366C36.2879 113.364 36.2835 113.362 36.2781 113.358C36.2673 113.351 36.2508 113.34 36.2295 113.326C36.1864 113.297 36.1227 113.255 36.0428 113.204C35.8826 113.101 35.6569 112.96 35.397 112.809C34.9329 112.541 34.3884 112.259 33.9165 112.096L33.7186 112.035C33.3148 111.921 32.7345 111.936 32.2071 111.999C31.9529 112.03 31.7273 112.069 31.5658 112.101C31.4857 112.116 31.4218 112.13 31.3786 112.139C31.357 112.144 31.3399 112.147 31.3293 112.15C31.3244 112.151 31.3208 112.152 31.3184 112.152L31.3155 112.153L30.4756 112.357L30.718 111.527L30.718 111.526L30.7237 111.507C30.7278 111.493 30.7341 111.472 30.7419 111.444C30.7574 111.389 30.7799 111.308 30.807 111.208C30.8612 111.009 30.9336 110.731 31.0076 110.422C31.1399 109.868 31.2688 109.243 31.3133 108.77L31.3269 108.577C31.3504 108.045 31.2309 107.248 31.0925 106.548C31.0249 106.206 30.9551 105.899 30.9026 105.678C30.8764 105.568 30.854 105.479 30.8387 105.419C30.8311 105.389 30.8259 105.365 30.8219 105.35C30.8199 105.342 30.8178 105.336 30.8168 105.332C30.8163 105.33 30.8162 105.329 30.816 105.328L30.816 105.327L30.537 104.266L31.5203 104.751L31.5232 104.752C31.5256 104.753 31.5295 104.756 31.5347 104.759C31.5453 104.764 31.5622 104.771 31.5836 104.781C31.6271 104.801 31.6911 104.831 31.7718 104.866C31.9339 104.936 32.1597 105.027 32.4147 105.113C32.8845 105.27 33.3796 105.384 33.7543 105.367L33.9074 105.351C34.386 105.272 35.0742 104.984 35.6813 104.69C35.9765 104.547 36.2387 104.41 36.4268 104.308C36.5207 104.257 36.5963 104.215 36.6476 104.187C36.6732 104.172 36.6926 104.16 36.7056 104.153C36.7121 104.149 36.7175 104.146 36.7206 104.145C36.722 104.144 36.723 104.143 36.7236 104.143L36.7246 104.143L37.329 103.792L37.4657 104.477L37.4656 104.479C37.466 104.481 37.4672 104.485 37.4682 104.489C37.4701 104.498 37.4731 104.513 37.4772 104.532C37.4854 104.569 37.498 104.624 37.5147 104.693C37.5485 104.832 37.5991 105.027 37.6666 105.244C37.8055 105.691 38.0015 106.191 38.2415 106.532L38.5014 106.875C38.7853 107.229 39.1306 107.604 39.4396 107.924C39.6431 108.135 39.8268 108.317 39.9591 108.447C40.0252 108.511 40.0789 108.563 40.1153 108.598C40.1335 108.615 40.1474 108.628 40.1567 108.637C40.1612 108.642 40.1649 108.644 40.1671 108.647L40.1699 108.65L40.6154 109.068L40.1175 109.422Z" fill="#F8A300" stroke="#FBF8EF"/>
<circle cx="35.9527" cy="106.575" r="0.708348" transform="rotate(87.5316 35.9527 106.575)" fill="#FBF8EF"/>
<circle cx="37.941" cy="108.851" r="0.708348" transform="rotate(87.5316 37.941 108.851)" fill="#FBF8EF"/>
<circle cx="36.1558" cy="111.29" r="0.708348" transform="rotate(87.5316 36.1558 111.29)" fill="#FBF8EF"/>
<circle cx="32.814" cy="110.489" r="0.708348" transform="rotate(87.5316 32.814 110.489)" fill="#FBF8EF"/>
<circle cx="35.1122" cy="108.972" r="1.17997" transform="rotate(87.5316 35.1122 108.972)" fill="#FBF8EF"/>
<circle cx="33.1441" cy="107.168" r="0.708348" transform="rotate(87.5316 33.1441 107.168)" fill="#FBF8EF"/>
<path d="M62.4659 96.2294C62.6797 95.369 63.2449 94.804 63.945 94.4577C64.6705 94.0989 65.5496 93.9667 66.377 93.9345L66.8929 93.9235C67.4148 93.9219 67.9495 93.9582 68.4415 94.1C69.0788 94.2837 69.6515 94.646 70.0461 95.3041L70.123 95.4396C70.4968 96.1444 70.3964 96.7696 70.2211 97.3152C70.1433 97.5573 70.0238 97.8564 69.9467 98.0763C69.8602 98.3227 69.7905 98.5623 69.7559 98.8147C69.717 99.0987 69.6887 99.4946 69.6485 99.9512C69.6096 100.393 69.5599 100.88 69.4787 101.301C69.438 101.512 69.3867 101.72 69.3194 101.904C69.255 102.08 69.1612 102.276 69.0125 102.428C68.8459 102.599 68.6004 102.718 68.3055 102.669C68.1147 102.637 67.9496 102.541 67.8099 102.425L67.6784 102.303C67.3515 101.972 67.1145 101.479 66.9334 100.977C66.8541 101.401 66.7449 101.817 66.5807 102.15L66.4972 102.305C66.3836 102.496 66.2223 102.697 65.986 102.795C65.7085 102.91 65.4446 102.841 65.2525 102.712C65.0819 102.598 64.9525 102.432 64.8558 102.28C64.7543 102.122 64.6614 101.937 64.5772 101.748C64.4094 101.371 64.2527 100.923 64.1125 100.519C63.9673 100.102 63.8432 99.7411 63.7313 99.4946L63.6479 99.327C63.5593 99.1619 63.4563 99.0056 63.3436 98.8489C63.2095 98.6625 63.0134 98.4127 62.8724 98.2056C62.5547 97.7386 62.2852 97.1777 62.4276 96.4055L62.4659 96.2294Z" fill="#63BCE5" stroke="#FBF8EF"/>
<path d="M74.4083 98.6168C75.2948 98.6147 75.9805 99.0253 76.4868 99.62C77.0114 100.236 77.3537 101.057 77.5863 101.852L77.7227 102.349C77.8513 102.855 77.9462 103.382 77.9285 103.894C77.9055 104.557 77.6935 105.201 77.1512 105.744L77.0386 105.851C76.446 106.385 75.8152 106.44 75.2433 106.403C74.9896 106.386 74.6704 106.343 74.4383 106.322C74.2432 106.304 74.0541 106.294 73.8651 106.302L73.6757 106.317C73.3907 106.348 72.9998 106.417 72.5472 106.489C72.1092 106.559 71.6244 106.63 71.1962 106.653C70.9818 106.665 70.7678 106.666 70.5732 106.646C70.3869 106.626 70.1734 106.583 69.9898 106.476C69.7841 106.355 69.6085 106.146 69.5845 105.848C69.569 105.656 69.6217 105.472 69.7003 105.308L69.7865 105.151C70.0283 104.753 70.4484 104.404 70.8916 104.106C70.3916 104.136 69.8921 104.124 69.4968 104.006C69.2842 103.942 69.0502 103.835 68.8972 103.629C68.7177 103.388 68.7213 103.115 68.7991 102.898C68.8683 102.705 68.9981 102.539 69.1212 102.408C69.2504 102.271 69.4065 102.136 69.5696 102.008C69.8947 101.754 70.2913 101.492 70.6484 101.258C71.0182 101.016 71.3376 100.808 71.5494 100.639C71.7468 100.482 71.9155 100.302 72.0813 100.106C72.2294 99.9303 72.424 99.6793 72.5905 99.4922C72.9661 99.0704 73.4446 98.6724 74.2281 98.6225L74.4083 98.6168Z" fill="#63BCE5" stroke="#FBF8EF"/>
<path d="M58.4357 98.8481C57.5534 98.934 56.9119 99.4106 56.4671 100.053C56.0062 100.718 55.7471 101.568 55.5944 102.382L55.5081 102.891C55.4303 103.407 55.3882 103.941 55.4566 104.449C55.5453 105.106 55.82 105.725 56.4135 106.212L56.5363 106.308C57.1789 106.78 57.8121 106.772 58.3775 106.679C58.6283 106.637 58.9416 106.563 59.1705 106.518C59.4269 106.469 59.6741 106.435 59.9288 106.438C60.2155 106.441 60.6112 106.47 61.0688 106.497C61.5116 106.523 62.001 106.545 62.4294 106.526C62.6439 106.517 62.857 106.496 63.0486 106.457C63.232 106.419 63.4402 106.355 63.6122 106.23C63.8051 106.09 63.959 105.864 63.9533 105.565C63.9496 105.372 63.879 105.195 63.7845 105.04L63.6831 104.892C63.403 104.52 62.9503 104.214 62.4797 103.961C62.9107 103.944 63.3382 103.897 63.6923 103.783L63.8577 103.723C64.063 103.639 64.2851 103.509 64.417 103.289C64.5717 103.032 64.541 102.76 64.442 102.552C64.354 102.366 64.2084 102.214 64.073 102.096C63.9308 101.972 63.762 101.854 63.5871 101.743C63.2383 101.522 62.8178 101.301 62.4392 101.104C62.0472 100.899 61.7087 100.723 61.4812 100.577L61.3275 100.47C61.1772 100.358 61.0375 100.233 60.899 100.099C60.7342 99.939 60.5158 99.7085 60.3315 99.5389C59.9158 99.1564 59.4003 98.8079 58.6156 98.8359L58.4357 98.8481Z" fill="#63BCE5" stroke="#FBF8EF"/>
<path d="M57.0722 110.378C56.7293 111.195 56.8446 111.986 57.1988 112.682C57.5659 113.404 58.1916 114.035 58.8357 114.556L59.2426 114.873C59.6601 115.186 60.1104 115.477 60.5896 115.657C61.2103 115.891 61.8859 115.943 62.5957 115.651L62.7384 115.588C63.4593 115.247 63.7526 114.686 63.9383 114.144C64.0206 113.903 64.1036 113.592 64.1732 113.369C64.2317 113.182 64.2955 113.004 64.3755 112.833L64.4617 112.663C64.6003 112.412 64.8142 112.078 65.055 111.688C65.288 111.311 65.5395 110.89 65.7261 110.504C65.8195 110.311 65.9026 110.114 65.9585 109.926C66.012 109.747 66.0543 109.533 66.026 109.322C65.9942 109.086 65.8688 108.844 65.6029 108.707C65.4309 108.618 65.2413 108.596 65.0599 108.606L64.8816 108.625C64.4214 108.695 63.937 108.948 63.4915 109.243C63.712 108.793 63.8932 108.328 63.936 107.917C63.9589 107.696 63.9496 107.439 63.819 107.219C63.6655 106.96 63.4122 106.859 63.1814 106.847C62.9764 106.836 62.7732 106.892 62.6053 106.956C62.4291 107.022 62.2445 107.115 62.0639 107.216C61.7038 107.418 61.3102 107.684 60.9567 107.923C60.5906 108.171 60.2756 108.386 60.0386 108.517C59.8177 108.639 59.5868 108.725 59.3417 108.803C59.1228 108.872 58.8163 108.955 58.5795 109.037C58.0456 109.221 57.4943 109.51 57.1468 110.214L57.0722 110.378Z" fill="#63BCE5" stroke="#FBF8EF"/>
<path d="M70.8999 115.696C71.7199 116.033 72.5099 115.911 73.2033 115.552C73.9218 115.179 74.5486 114.549 75.0642 113.901L75.3783 113.492C75.6884 113.072 75.9755 112.619 76.1524 112.139C76.3814 111.516 76.4282 110.84 76.1312 110.133L76.0674 109.991C75.7205 109.272 75.1571 108.983 74.6135 108.802C74.3724 108.721 74.0605 108.641 73.8376 108.573C73.5877 108.496 73.3534 108.411 73.1295 108.289C72.8775 108.153 72.5416 107.941 72.1497 107.704C71.7705 107.473 71.3482 107.225 70.9607 107.041C70.7667 106.949 70.5688 106.868 70.3809 106.813C70.201 106.761 69.987 106.721 69.7765 106.75C69.5406 106.784 69.2991 106.911 69.1643 107.178C69.0772 107.351 69.0567 107.541 69.0676 107.722L69.0881 107.9C69.1618 108.36 69.4186 108.842 69.7165 109.285C69.3278 109.099 68.9278 108.94 68.5617 108.875L68.3874 108.851C68.1664 108.83 67.9092 108.841 67.69 108.973C67.4327 109.129 67.333 109.383 67.3228 109.614C67.3139 109.819 67.3714 110.021 67.436 110.189C67.5039 110.365 67.5975 110.548 67.7002 110.728C67.9051 111.087 68.1738 111.478 68.4159 111.83C68.6668 112.194 68.8839 112.508 69.0164 112.744L69.1022 112.91C69.1828 113.079 69.248 113.255 69.3075 113.438C69.3784 113.657 69.4637 113.963 69.5473 114.199C69.7358 114.731 70.0285 115.28 70.7352 115.623L70.8999 115.696Z" fill="#63BCE5" stroke="#FBF8EF"/>
<path d="M67.3549 101.868L67.3558 101.87C67.357 101.871 67.3588 101.874 67.3614 101.878C67.3668 101.885 67.3758 101.896 67.3867 101.911C67.4084 101.94 67.4402 101.983 67.4811 102.037C67.5633 102.144 67.6799 102.292 67.8169 102.456C68.0983 102.791 68.4391 103.156 68.734 103.372L68.9165 103.496C69.1156 103.621 69.3553 103.748 69.5748 103.856C69.7171 103.926 69.8442 103.984 69.9355 104.025C69.9812 104.046 70.0176 104.062 70.0424 104.073C70.0547 104.078 70.0642 104.082 70.0704 104.085C70.0734 104.086 70.0757 104.087 70.0771 104.088L70.079 104.088L70.6398 104.325L70.2985 104.829C70.2983 104.829 70.2971 104.83 70.2965 104.831C70.2953 104.833 70.2938 104.836 70.2913 104.839C70.2861 104.847 70.278 104.859 70.2677 104.875C70.2469 104.906 70.2163 104.954 70.179 105.013C70.1044 105.13 70.0021 105.296 69.8935 105.487C69.6978 105.83 69.4976 106.226 69.3836 106.563L69.3398 106.704C69.2647 106.978 69.2767 107.385 69.3255 107.773C69.3487 107.957 69.3783 108.121 69.4018 108.238C69.4134 108.296 69.4234 108.342 69.4305 108.373C69.434 108.389 69.4373 108.401 69.4391 108.409C69.4399 108.412 69.4404 108.415 69.4408 108.417L69.4407 108.418L69.6501 109.256L68.8187 109.019C68.8181 109.019 68.817 109.018 68.8158 109.018C68.8133 109.017 68.8093 109.016 68.8042 109.015C68.7939 109.012 68.7785 109.008 68.7587 109.002C68.7183 108.991 68.6588 108.975 68.5853 108.956C68.438 108.917 68.2333 108.864 68.0049 108.811C67.6529 108.729 67.2681 108.652 66.9514 108.613L66.661 108.587C66.2847 108.573 65.7089 108.663 65.1912 108.769C64.9402 108.82 64.7154 108.873 64.5533 108.913C64.4723 108.932 64.4065 108.948 64.3621 108.96C64.3401 108.966 64.3231 108.97 64.3119 108.973C64.3063 108.974 64.3017 108.976 64.299 108.976L64.2971 108.977L64.2961 108.977L63.2371 109.263L63.7157 108.277L63.7167 108.276C63.7174 108.274 63.7182 108.272 63.7199 108.268C63.7234 108.261 63.7286 108.248 63.7357 108.232C63.75 108.201 63.7711 108.154 63.796 108.096C63.8459 107.978 63.911 107.814 63.9719 107.629C64.086 107.282 64.1603 106.935 64.148 106.686L64.1367 106.585C64.0791 106.251 63.8717 105.757 63.6508 105.309C63.5445 105.093 63.4419 104.902 63.3661 104.764C63.3284 104.696 63.2971 104.641 63.2758 104.604C63.2651 104.585 63.2572 104.57 63.2518 104.561C63.2491 104.556 63.2466 104.553 63.2453 104.551L63.2444 104.548L62.8893 103.946L63.5741 103.805L63.5751 103.805C63.5764 103.804 63.5788 103.804 63.582 103.803C63.5884 103.802 63.5983 103.799 63.6115 103.796C63.6383 103.79 63.6785 103.781 63.7287 103.769C63.8295 103.744 63.9698 103.705 64.1273 103.655C64.4543 103.551 64.8076 103.408 65.042 103.241L65.2897 103.051C65.5449 102.843 65.8186 102.589 66.0535 102.359C66.2074 102.209 66.3405 102.073 66.4347 101.975C66.4819 101.927 66.5188 101.887 66.5441 101.86C66.5568 101.847 66.5671 101.836 66.5735 101.83C66.5766 101.826 66.5791 101.824 66.5806 101.822L66.5816 101.82L66.9972 101.372L67.3549 101.868Z" fill="#F8A300" stroke="#FBF8EF"/>
<circle cx="65.1607" cy="105.041" r="0.524912" transform="rotate(-2.84719 65.1607 105.041)" fill="#FBF8EF"/>
<circle cx="66.8374" cy="103.558" r="0.524912" transform="rotate(-2.84719 66.8374 103.558)" fill="#FBF8EF"/>
<circle cx="68.6519" cy="104.868" r="0.524912" transform="rotate(-2.84719 68.6519 104.868)" fill="#FBF8EF"/>
<circle cx="68.0757" cy="107.346" r="0.524912" transform="rotate(-2.84719 68.0757 107.346)" fill="#FBF8EF"/>
<circle cx="66.9412" cy="105.652" r="0.874401" transform="rotate(-2.84719 66.9412 105.652)" fill="#FBF8EF"/>
<circle cx="65.6148" cy="107.118" r="0.524912" transform="rotate(-2.84719 65.6148 107.118)" fill="#FBF8EF"/>
<path d="M8.22346 19.2602C7.31554 17.8488 7.26651 16.3414 7.70911 14.894C8.17445 13.3727 9.18402 11.9043 10.3089 10.6147L10.6635 10.2144C11.4986 9.2853 12.3976 8.40193 13.4079 7.80443C14.5104 7.15243 15.7518 6.83674 17.1744 7.14985L17.4617 7.22142C18.8759 7.61072 19.5897 8.51853 20.1378 9.51281C20.3962 9.98172 20.6536 10.5418 20.9009 11.0201C21.1611 11.5235 21.4462 12.0138 21.8161 12.4726C22.2061 12.9564 22.7872 13.5901 23.4174 14.2987C24.0379 14.9965 24.6971 15.7576 25.2066 16.4653C25.4614 16.8193 25.6868 17.171 25.8528 17.503C26.0151 17.8276 26.1412 18.1729 26.1546 18.5055C26.169 18.864 26.05 19.2233 25.7202 19.4736C25.4599 19.6711 25.1187 19.7608 24.7396 19.7868L24.5752 19.7941C23.6555 19.8148 22.5643 19.4631 21.4906 18.9773C20.7808 18.6561 20.0546 18.2608 19.3513 17.8456C19.8721 18.4234 20.3817 19.0205 20.8288 19.6104C21.4422 20.4195 21.9689 21.2458 22.2491 21.994L22.354 22.3094C22.4697 22.7155 22.5087 23.1121 22.3803 23.4518C22.236 23.8335 21.9243 24.0371 21.5872 24.1144C21.2752 24.1858 20.9209 24.1576 20.578 24.0927C20.2264 24.0261 19.8393 23.9115 19.4415 23.7718C18.6469 23.4928 17.7559 23.095 16.9316 22.7253C16.0932 22.3493 15.3334 22.0067 14.7643 21.8116L14.3513 21.6854C13.9379 21.5739 13.5243 21.5038 13.1095 21.4485C12.584 21.3786 11.9802 21.3248 11.4594 21.2415C10.3543 21.0646 9.27215 20.7087 8.41691 19.5413L8.22346 19.2602Z" fill="#63BCE5" stroke="#FBF8EF"/>
<path d="M29.0663 5.0953C30.2142 3.87107 31.6644 3.45651 33.1759 3.53342C34.7648 3.61436 36.4348 4.23606 37.9595 5.0131L38.434 5.25963C39.5385 5.84336 40.6142 6.50026 41.4396 7.33467C42.3405 8.24526 42.9489 9.3724 42.9915 10.8285L42.9921 11.1245C42.9588 12.591 42.2521 13.5043 41.4212 14.278C41.0293 14.6428 40.5488 15.0288 40.145 15.3851C39.8263 15.6663 39.518 15.9593 39.234 16.2866L38.959 16.6264C38.5848 17.1224 38.1116 17.8403 37.5777 18.6241C37.052 19.3958 36.4743 20.2204 35.9119 20.8869C35.6306 21.2203 35.3444 21.5245 35.0628 21.7664C34.7875 22.0028 34.4832 22.2091 34.1639 22.3031C33.8198 22.4044 33.4423 22.3764 33.1192 22.1175C32.8643 21.9131 32.6943 21.6041 32.5767 21.2426L32.5296 21.085C32.2856 20.198 32.3611 19.054 32.5708 17.8944C32.7095 17.1277 32.9161 16.3271 33.1476 15.5439C32.714 16.1897 32.2589 16.8294 31.7957 17.4066C31.0695 18.3116 30.2944 19.113 29.5492 19.543C29.1835 19.7541 28.8083 19.8885 28.4475 19.8467C28.0422 19.7996 27.7688 19.5469 27.6118 19.2387C27.4666 18.9535 27.4077 18.603 27.3872 18.2546C27.3661 17.8974 27.3831 17.494 27.4217 17.0742C27.4989 16.2356 27.6677 15.2746 27.8256 14.385C27.9862 13.4803 28.1335 12.66 28.1842 12.0605L28.2061 11.6292C28.2136 11.2011 28.1808 10.7829 28.1334 10.3671C28.0734 9.84034 27.9785 9.24166 27.9326 8.71621C27.8351 7.6013 27.9168 6.46509 28.8408 5.35137L29.0663 5.0953Z" fill="#63BCE5" stroke="#FBF8EF"/>
<path d="M6.38494 29.8462C5.35634 31.1723 5.17484 32.6696 5.48835 34.1502C5.81801 35.7066 6.69445 37.2581 7.70146 38.6418L8.01951 39.0717C8.76957 40.0707 9.58736 41.0297 10.5411 41.7138C11.582 42.4603 12.7907 42.884 14.2354 42.6973L14.5279 42.6513C15.9709 42.388 16.7618 41.5465 17.3952 40.6043C17.694 40.16 17.9996 39.6248 18.288 39.17C18.5157 38.8111 18.7565 38.4605 19.0352 38.1287L19.3276 37.8037C19.7586 37.3561 20.3932 36.776 21.0833 36.1256C21.7628 35.4851 22.4864 34.785 23.0562 34.1248C23.3412 33.7946 23.5967 33.4641 23.7913 33.148C23.9814 32.839 24.1374 32.5061 24.1801 32.176C24.226 31.8202 24.139 31.4518 23.8325 31.1735C23.5906 30.9538 23.2587 30.8345 22.8833 30.7752L22.7203 30.7534C21.8059 30.6519 20.688 30.9062 19.5757 31.2956C18.8404 31.5531 18.0822 31.8829 17.3451 32.2347C17.9148 31.7049 18.4749 31.155 18.9722 30.6068C19.7518 29.7473 20.4214 28.856 20.729 28.0524C20.8799 27.6581 20.9537 27.2664 20.8557 26.9167C20.7455 26.5238 20.453 26.2935 20.124 26.1869C19.8195 26.0883 19.4641 26.0853 19.1168 26.1197C18.7607 26.1551 18.365 26.2352 17.9565 26.3394C17.1404 26.5474 16.2179 26.8652 15.3642 27.1609C14.496 27.4617 13.709 27.7361 13.125 27.8803L12.7025 27.9698C12.2809 28.0444 11.8627 28.0779 11.4446 28.0964C10.915 28.1199 10.3088 28.1203 9.78265 28.1575C8.66629 28.2364 7.55703 28.4957 6.60238 29.5833L6.38494 29.8462Z" fill="#63BCE5" stroke="#FBF8EF"/>
<path d="M22.1369 48.0272C22.8163 49.5617 24.0484 50.4317 25.5006 50.858C27.0271 51.306 28.8087 51.2704 30.5045 51.0401L31.0338 50.9641C32.269 50.7776 33.5012 50.5126 34.5559 49.9974C35.7068 49.4352 36.6531 48.572 37.174 47.2116L37.2722 46.9324C37.7248 45.5371 37.3592 44.4417 36.8302 43.4371C36.5807 42.9634 36.2545 42.4404 35.991 41.9708C35.7137 41.4767 35.461 40.9689 35.2812 40.4076C35.0916 39.8158 34.882 38.982 34.6367 38.0659C34.3952 37.164 34.122 36.1949 33.8111 35.3801C33.6556 34.9725 33.4858 34.5909 33.2998 34.2697C33.118 33.9557 32.8989 33.6604 32.6285 33.4663C32.3371 33.2571 31.9715 33.1589 31.5811 33.2967C31.273 33.4055 31.0105 33.6411 30.7803 33.9435L30.6837 34.0767C30.1607 34.8335 29.8543 35.9382 29.6695 37.1021C29.5474 37.8716 29.4782 38.6956 29.4382 39.5113C29.242 38.7585 29.0236 38.0045 28.7769 37.3067C28.4384 36.3495 28.038 35.4551 27.5672 34.8096L27.3614 34.5485C27.0859 34.2286 26.7761 33.9779 26.4217 33.8983C26.0235 33.8089 25.6821 33.9573 25.4322 34.1963C25.201 34.4176 25.0297 34.729 24.8953 35.0511C24.7575 35.3814 24.6404 35.7677 24.5383 36.1768C24.3343 36.9939 24.1765 37.9568 24.0319 38.8486C23.8849 39.7556 23.7532 40.5786 23.6031 41.1611L23.4815 41.5755C23.3472 41.9821 23.1783 42.3661 22.9963 42.7429C22.7657 43.2203 22.4786 43.7541 22.2618 44.235C21.8018 45.2552 21.5038 46.3547 22.0085 47.711L22.1369 48.0272Z" fill="#63BCE5" stroke="#FBF8EF"/>
<path d="M49.5264 34.2567C51.0557 33.5657 51.9164 32.3271 52.3317 30.8717C52.7682 29.3419 52.7191 27.5606 52.4761 25.8666L52.396 25.3379C52.2002 24.1041 51.9259 22.8739 51.4028 21.8232C50.8319 20.6766 49.9616 19.7368 48.5973 19.2262L48.3173 19.1301C46.9187 18.688 45.8261 19.0619 44.8255 19.5985C44.3537 19.8515 43.8332 20.1817 43.3656 20.4487C42.9966 20.6595 42.6197 20.8567 42.2182 21.0197L41.8078 21.1703C41.2175 21.3643 40.3853 21.5803 39.4711 21.8324C38.5709 22.0808 37.6039 22.3612 36.7915 22.6782C36.3852 22.8368 36.0048 23.0095 35.685 23.1979C35.3724 23.3821 35.0788 23.6034 34.8867 23.8753C34.6798 24.1683 34.5843 24.5346 34.7251 24.9239C34.8362 25.2312 35.0737 25.4919 35.3778 25.7199L35.5118 25.8154C36.2725 26.3328 37.3795 26.6308 38.5448 26.8067C39.3152 26.923 40.1396 26.9861 40.9556 27.0199C40.2044 27.2217 39.452 27.4458 38.7561 27.6978C37.6651 28.0929 36.6564 28.5676 36.0087 29.134C35.6909 29.412 35.4425 29.7237 35.3656 30.0786C35.2792 30.4775 35.4301 30.8178 35.671 31.0659C35.8941 31.2954 36.2068 31.4644 36.5299 31.5963C36.8612 31.7316 37.2484 31.8458 37.6582 31.9448C38.4768 32.1426 39.4409 32.2932 40.3338 32.431C41.2419 32.5712 42.0658 32.6966 42.6495 32.8423L43.0647 32.9609C43.4723 33.092 43.8576 33.2581 44.2358 33.4372C44.7149 33.6641 45.2509 33.9473 45.7334 34.1604C46.757 34.6127 47.8588 34.9023 49.2112 34.3875L49.5264 34.2567Z" fill="#63BCE5" stroke="#FBF8EF"/>
<path d="M23.3817 20.761L23.3831 20.761C23.3842 20.7611 23.3861 20.7621 23.3886 20.7624C23.3935 20.763 23.4009 20.764 23.4107 20.7652C23.4309 20.7678 23.4616 20.7713 23.5011 20.776C23.58 20.7854 23.6956 20.7991 23.84 20.814C24.1291 20.8439 24.5329 20.88 24.9907 20.9066C25.918 20.9603 27.0248 20.9702 27.8513 20.8192L28.0897 20.7698C28.662 20.641 29.3328 20.4145 29.8993 20.2023C30.2191 20.0825 30.4989 19.9698 30.6982 19.8873C30.7977 19.8461 30.8772 19.8127 30.9313 19.7896C30.9584 19.778 30.9791 19.7689 30.9929 19.7629C30.9997 19.7599 31.0047 19.7575 31.0081 19.756C31.0098 19.7553 31.0115 19.755 31.0123 19.7547L31.013 19.754L31.5699 19.5098L31.7027 20.1029L31.702 20.1036L31.7027 20.1042C31.703 20.1054 31.7035 20.1073 31.7041 20.1098C31.7052 20.1147 31.7065 20.1225 31.7088 20.1326C31.7135 20.1531 31.721 20.184 31.7305 20.2238C31.7495 20.3038 31.7783 20.4206 31.8154 20.566C31.8897 20.857 31.9986 21.2615 32.1371 21.7144C32.3828 22.517 32.7109 23.4394 33.0908 24.1532L33.2567 24.4453C33.6271 25.0545 34.3463 25.6789 35.0199 26.1709C35.3488 26.411 35.6528 26.6099 35.8745 26.7483C35.9851 26.8174 36.0755 26.8714 36.1369 26.9076C36.1675 26.9256 36.1909 26.9397 36.2064 26.9486C36.214 26.9529 36.22 26.9556 36.2237 26.9577C36.2255 26.9587 36.227 26.96 36.2278 26.9604L36.2285 26.9611L36.9815 27.3835L36.2393 27.8264L36.2373 27.8271C36.2361 27.8278 36.2346 27.8292 36.2324 27.8305C36.2274 27.8335 36.2196 27.8376 36.2096 27.8436C36.1895 27.8556 36.1594 27.8737 36.121 27.897C36.044 27.9438 35.9326 28.0124 35.7949 28.098C35.519 28.2695 35.139 28.5105 34.7223 28.7874C33.9835 29.2785 33.1572 29.8646 32.5853 30.3742L32.3572 30.588C31.7396 31.1953 31.0144 32.2585 30.4285 33.2046C30.1397 33.6709 29.8908 34.0974 29.7149 34.4073C29.6271 34.5619 29.5579 34.6874 29.5103 34.7738C29.4866 34.8169 29.4682 34.8505 29.456 34.873C29.45 34.8841 29.4458 34.8929 29.4428 34.8985C29.4414 34.9012 29.44 34.9034 29.4393 34.9047L29.4379 34.9061L28.9194 35.8727L28.5301 34.8477L28.5294 34.847C28.5291 34.8461 28.5288 34.8447 28.5281 34.8428C28.5264 34.8386 28.5234 34.8311 28.5199 34.8221C28.5128 34.804 28.5022 34.7766 28.4878 34.7411C28.4588 34.6698 28.4149 34.5657 28.3585 34.4375C28.2454 34.1803 28.0813 33.8282 27.8766 33.4507C27.4804 32.7202 26.9748 31.9719 26.4434 31.5698L26.3367 31.4941C25.6689 31.0515 24.5423 30.6384 23.5366 30.3291C23.0428 30.1772 22.5935 30.0543 22.2675 29.9701C22.1049 29.9281 21.9731 29.8965 21.8826 29.8746C21.8375 29.8637 21.8026 29.8548 21.7792 29.8493C21.7674 29.8465 21.758 29.8443 21.7522 29.843C21.7498 29.8424 21.748 29.8418 21.7467 29.8416L21.7447 29.8409L21.0631 29.6861L21.4302 29.091L21.4309 29.0903C21.4312 29.0897 21.4316 29.0887 21.4323 29.0875C21.4341 29.0845 21.4374 29.0796 21.4413 29.0731C21.4493 29.0599 21.4612 29.0395 21.4768 29.0131C21.5081 28.9602 21.554 28.8815 21.6096 28.7824C21.721 28.584 21.8719 28.3038 22.0288 27.9776C22.3481 27.3134 22.6714 26.5027 22.7657 25.8138L22.8051 25.4818C22.8861 24.6814 22.895 23.7191 22.8802 22.9071C22.8719 22.4469 22.8562 22.041 22.8423 21.751C22.8354 21.6063 22.8291 21.4905 22.8244 21.4112C22.8221 21.3716 22.8199 21.3411 22.8186 21.3207C22.8179 21.3104 22.8176 21.3023 22.8173 21.2972L22.8173 21.2903L22.7757 20.6811L23.3817 20.761Z" fill="#F8A300" stroke="#FBF8EF"/>
<circle cx="25.1473" cy="28.1571" r="1.10476" transform="rotate(-49.5212 25.1473 28.1571)" fill="#FBF8EF"/>
<circle cx="25.2968" cy="23.4491" r="1.10476" transform="rotate(-49.5212 25.2968 23.4491)" fill="#FBF8EF"/>
<circle cx="29.9247" cy="22.5604" r="1.10476" transform="rotate(-49.5212 29.9247 22.5604)" fill="#FBF8EF"/>
<circle cx="32.8876" cy="27.0253" r="1.10476" transform="rotate(-49.5212 32.8876 27.0253)" fill="#FBF8EF"/>
<circle cx="28.6523" cy="26.3154" r="1.83977" transform="rotate(-49.5212 28.6523 26.3154)" fill="#FBF8EF"/>
<circle cx="28.9833" cy="30.4647" r="1.10476" transform="rotate(-49.5212 28.9833 30.4647)" fill="#FBF8EF"/>
<path d="M70.0361 99.8114C70.0376 99.8074 70.0398 99.8017 70.0424 99.7953C70.0475 99.7825 70.0544 99.7649 70.0638 99.7429C70.083 99.6983 70.1118 99.635 70.1499 99.5552C70.2262 99.3956 70.3421 99.1691 70.5061 98.891C70.8343 98.3345 71.3548 97.5701 72.1301 96.7183C73.5859 95.1192 75.9346 93.2195 79.5853 91.8047L80.333 91.5286C82.973 90.5995 85.9288 90.6674 88.8434 91.2611C91.761 91.8555 94.6735 92.9836 97.2518 94.2161C99.8319 95.4495 102.091 96.7939 103.705 97.8292C103.962 97.9942 104.201 98.1553 104.425 98.3031C104.105 97.7442 103.738 97.0928 103.354 96.3843C102.159 94.1799 100.766 91.3967 100.025 89.1566L99.8723 88.6711C99.1423 86.2315 98.9175 83.6393 98.8772 81.6271C98.8556 80.5508 98.887 79.6335 98.9234 78.9841C98.9417 78.6594 98.9606 78.4014 98.9757 78.2236C98.9833 78.1351 98.9899 78.0663 98.9945 78.0192C98.9968 77.9957 98.9991 77.977 99.0004 77.9645C99.0011 77.9583 99.0018 77.9535 99.0022 77.9502C99.0023 77.9485 99.0016 77.9471 99.0017 77.9462L99.0022 77.9449L99.9867 77.8889L99.9881 77.8925L100.002 77.9552C100.012 77.9994 100.028 78.0654 100.048 78.1511C100.089 78.3229 100.15 78.5749 100.23 78.8927C100.389 79.5285 100.624 80.4291 100.926 81.485C101.454 83.3354 102.186 85.6549 103.07 87.8644L103.459 88.8031C104.514 91.2665 105.646 93.1075 106.861 94.8815C107.918 96.4243 109.066 97.9543 110.262 99.78L110.779 100.582C113.359 104.67 116.526 110.218 119.044 114.738C120.304 116.999 121.403 119.005 122.187 120.446C122.579 121.166 122.893 121.746 123.108 122.145C123.215 122.344 123.299 122.499 123.355 122.603C123.383 122.656 123.404 122.696 123.418 122.723C123.426 122.737 123.432 122.747 123.435 122.753C123.437 122.757 123.439 122.759 123.44 122.761L123.441 122.764L122.601 123.302L122.601 123.3C122.599 123.299 122.597 123.296 122.595 123.293C122.59 123.287 122.584 123.278 122.575 123.266C122.557 123.243 122.529 123.208 122.494 123.162C122.423 123.069 122.319 122.932 122.184 122.756C121.914 122.405 121.522 121.895 121.035 121.268C120.059 120.011 118.702 118.279 117.173 116.376C114.11 112.563 110.375 108.082 107.646 105.354L106.976 104.696C99.9903 97.9557 91.0129 93.0697 80.5667 94.4942L80.224 94.5535C79.4086 94.7218 78.4813 95.0995 77.5185 95.6041C76.4248 96.1774 75.3171 96.8972 74.3226 97.606C73.3293 98.314 72.4556 99.0066 71.8301 99.5222C71.5176 99.7797 71.2671 99.9928 71.0956 100.141C71.0099 100.215 70.944 100.274 70.8996 100.313C70.8776 100.332 70.8606 100.347 70.8495 100.357C70.8441 100.361 70.8398 100.365 70.8371 100.368C70.8358 100.369 70.8348 100.37 70.8342 100.371L70.8333 100.371L70.0327 99.8189L70.0361 99.8114Z" fill="#65D157" stroke="#FBF8EF"/>
<path d="M94.1858 4.46447L94.1836 4.46488C94.1821 4.46548 94.1796 4.46678 94.1767 4.46798C94.1701 4.47062 94.1601 4.47444 94.1469 4.47986C94.1198 4.49096 94.0788 4.50794 94.025 4.5306C93.9168 4.57615 93.7553 4.64488 93.5485 4.73676C93.1348 4.92049 92.5366 5.19672 91.8021 5.56394C90.3322 6.2989 88.32 7.39807 86.1541 8.85228C81.946 11.6777 77.209 15.8102 74.6951 21.176L74.4586 21.6998C73.2177 24.5542 73.6947 27.6191 75.0125 30.7229C76.3323 33.8312 78.4595 36.8963 80.4112 39.7155L80.8435 40.3291C83.0756 43.4484 86.3082 47.2517 89.0612 50.3561C90.5271 52.0091 91.8537 53.459 92.8128 54.4961C93.2924 55.0146 93.6797 55.4301 93.9475 55.7155C94.0814 55.8581 94.1853 55.9687 94.2556 56.0432C94.2905 56.0801 94.3176 56.1078 94.3355 56.1267C94.3445 56.1362 94.3512 56.1439 94.3557 56.1487C94.358 56.151 94.3601 56.1531 94.3612 56.1543L94.3619 56.1555L94.3628 56.1558L93.6604 56.8663L93.6594 56.866L93.6417 56.8499C93.629 56.8383 93.6102 56.8203 93.5845 56.7972C93.5329 56.7505 93.4546 56.6811 93.3525 56.5914C93.1482 56.4121 92.8461 56.1517 92.4563 55.8313C91.6761 55.1902 90.5466 54.3083 89.154 53.349C86.5385 51.5472 83.0126 49.4853 79.1385 48.2217L78.3585 47.9796C72.7329 46.3252 66.248 47.9423 60.8767 50.6794C58.1993 52.0438 55.8218 53.6752 53.9961 55.2854C52.2717 56.8063 51.0807 58.2725 50.5624 59.446L50.4676 59.677C50.2243 60.3217 50.0889 61.7357 50.1948 63.6676C50.2993 65.5731 50.6338 67.912 51.2748 70.3622C52.561 75.2778 55.0596 80.5589 59.3237 83.7292L59.6174 83.9392C62.7026 86.0578 67.1328 86.5 70.9236 86.3707C72.8652 86.3045 74.6095 86.089 75.8682 85.8905C76.4968 85.7914 77.0033 85.6962 77.3517 85.6263C77.5259 85.5914 77.6612 85.5634 77.7516 85.5436C77.7966 85.5337 77.831 85.5258 77.8535 85.5207C77.8646 85.5182 77.8732 85.5158 77.8785 85.5146C77.8811 85.514 77.8829 85.5134 77.884 85.5131L77.8859 85.5136C77.8861 85.5143 77.8862 85.516 77.8871 85.5201L78.2235 86.4475L78.2223 86.4482L78.2201 86.4486C78.2183 86.4495 78.216 86.4511 78.2129 86.4526C78.2063 86.4559 78.1968 86.4609 78.1845 86.4669C78.16 86.4788 78.1242 86.4958 78.0777 86.5179C77.9844 86.5621 77.8471 86.6256 77.6708 86.7041C77.3176 86.8615 76.8041 87.0796 76.1616 87.3244C74.8775 87.8136 73.0694 88.4122 70.9735 88.8481C66.9267 89.6896 61.7312 89.9414 57.1672 87.5439L56.7279 87.3029C54.2116 85.8722 52.2153 83.489 50.6372 80.7663C49.0571 78.0402 47.8765 74.9396 47.0033 72.0285C46.1296 69.1151 45.5602 66.3766 45.2093 64.3676C45.0607 63.517 44.9517 62.7962 44.8747 62.2471C44.6718 62.504 44.4297 62.8099 44.1569 63.1624C43.2544 64.3287 41.9996 65.9917 40.5936 67.9745C37.9548 71.6958 34.7919 76.5314 32.4158 81.3274L31.9517 82.286C31.4668 83.3105 31.2628 84.8107 31.2567 86.5418C31.2507 88.2589 31.4386 90.1451 31.6949 91.9038C31.9509 93.6603 32.2733 95.279 32.5319 96.4592C32.6612 97.0491 32.7741 97.5293 32.8548 97.8608C32.8951 98.0265 32.9279 98.155 32.9499 98.242C32.9609 98.2853 32.9692 98.3184 32.9748 98.3404C32.9777 98.3514 32.9795 98.36 32.9809 98.3654C32.9816 98.3681 32.983 98.3699 32.9834 98.3712L32.9828 98.3731L32.0889 98.7848L32.0882 98.7836C32.0877 98.783 32.0867 98.7821 32.0859 98.781C32.0842 98.7785 32.0817 98.7752 32.0786 98.7708C32.0722 98.7615 32.0629 98.7472 32.0508 98.7294C32.0265 98.6938 31.9905 98.642 31.9454 98.5747C31.8548 98.4399 31.7253 98.244 31.5674 97.9989C31.2517 97.5088 30.8221 96.8191 30.367 96.0221C29.5203 94.5391 28.5613 92.6431 28.0987 90.951L28.0131 90.6152C27.7539 89.5208 27.6274 88.1086 27.5642 86.9907C27.5535 86.8008 27.5461 86.6185 27.5386 86.4466C27.4846 86.5177 27.4294 86.5926 27.3711 86.6691C26.7259 87.515 25.82 88.682 24.7772 89.9673C22.8282 92.3696 20.3799 95.211 18.2545 97.1317L17.8338 97.5029C16.9893 98.2309 15.7558 98.8662 14.421 99.4092C13.0775 99.9557 11.592 100.424 10.2138 100.806C8.83407 101.187 7.55366 101.483 6.61899 101.684C6.15147 101.784 5.7699 101.862 5.50458 101.914C5.37212 101.939 5.26851 101.959 5.19781 101.972C5.16252 101.978 5.13499 101.983 5.11655 101.986C5.10734 101.988 5.09991 101.99 5.0951 101.991C5.09285 101.991 5.09083 101.992 5.08961 101.992L5.08773 101.991L5.08746 101.992L4.76051 101.061L4.76172 101.06C4.76257 101.059 4.76454 101.059 4.76628 101.058L4.84343 101.015C4.89819 100.985 4.97959 100.941 5.08375 100.883C5.29208 100.768 5.59367 100.601 5.96478 100.392C6.70742 99.9733 7.72882 99.3886 8.84507 98.7242C11.0885 97.389 13.6776 95.7519 15.1679 94.4932L15.6433 94.0827C18.0309 91.9751 20.6273 89.0322 22.681 86.5404C23.7737 85.2147 24.7078 84.0225 25.3686 83.1622C25.6989 82.7322 25.9611 82.3856 26.1402 82.1464C26.2297 82.0268 26.2985 81.934 26.3449 81.8714C26.368 81.8402 26.3858 81.816 26.3975 81.8001C26.3995 81.7974 26.4011 81.7947 26.4028 81.7924L36.8525 66.2895C35.9192 66.9629 34.7691 67.7474 33.484 68.52C30.2398 70.4702 26.0367 72.4205 22.3172 72.259L21.9591 72.2368C16.7563 71.8136 12.394 68.1244 9.37216 64.6412C7.85211 62.889 6.64984 61.1647 5.82807 59.8788C5.4171 59.2358 5.10064 58.7012 4.88614 58.3264C4.77891 58.1389 4.69658 57.991 4.64132 57.8897C4.61369 57.839 4.59333 57.7994 4.57905 57.7726L4.5575 57.734L4.55709 57.7319L4.55641 57.7307L5.33884 57.132L5.34046 57.1335C5.3417 57.1347 5.34384 57.136 5.34624 57.1382C5.35149 57.143 5.35983 57.1506 5.37044 57.1603C5.39165 57.1797 5.42301 57.209 5.46469 57.2468C5.54836 57.3228 5.67212 57.4346 5.83199 57.5771C6.15183 57.8621 6.61599 58.2697 7.1903 58.7593C8.33944 59.7388 9.92872 61.0442 11.6907 62.348C13.4544 63.653 15.3812 64.9498 17.2073 65.9178C19.0505 66.8949 20.7239 67.5003 21.9995 67.5004L22.4518 67.4945C27.0703 67.3863 30.2294 65.6199 33.2625 63.2386C34.8471 61.9944 36.36 60.6139 38.0608 59.187C39.7478 57.7719 41.5838 56.3434 43.7458 55.0688L44.9171 54.362C47.5632 52.7276 49.6364 51.1951 51.7912 49.7288C54.2499 48.0557 56.7838 46.4927 60.3094 45.0382L60.7617 44.8567C62.5184 44.1728 64.3853 43.6732 66.0303 43.3142C65.6893 43.2979 65.337 43.2837 64.9766 43.2647C61.8121 43.0976 57.9687 42.8223 55.0015 42.3841L54.4199 42.2946C50.6032 41.6768 46.0503 39.826 42.4794 38.1489C40.688 37.3076 39.132 36.5044 38.0239 35.9116C37.4696 35.6151 37.0266 35.3703 36.7221 35.2001C36.5702 35.1152 36.4528 35.0483 36.373 35.0028C36.333 34.9801 36.3019 34.9624 36.2812 34.9505C36.2711 34.9447 36.2627 34.9407 36.2575 34.9377C36.2549 34.9362 36.2528 34.9347 36.2514 34.9339L36.2498 34.9325L36.6513 34.0231L36.6532 34.0236C36.6544 34.024 36.6561 34.0253 36.6586 34.0261C36.6637 34.0277 36.6718 34.0295 36.682 34.0328C36.703 34.0394 36.7349 34.0496 36.7762 34.0624C36.8587 34.0882 36.9808 34.1267 37.139 34.1753C37.4558 34.2727 37.9175 34.4125 38.4942 34.5832C39.6478 34.9246 41.2625 35.388 43.1067 35.8754C46.8024 36.8522 51.3934 37.919 55.039 38.3035L55.7227 38.3692C59.1959 38.6717 63.4844 38.5962 67.0008 38.4361C68.8725 38.3509 70.519 38.2424 71.6974 38.1547C72.1341 38.1222 72.5067 38.0908 72.8022 38.0665C72.6358 37.7699 72.425 37.3868 72.1886 36.9317C71.602 35.8021 70.8495 34.2281 70.1864 32.4555C69.5241 30.6852 68.9454 28.7012 68.7177 26.7542C68.4906 24.8114 68.6077 22.8647 69.3786 21.1988L69.7053 20.5179C73.1621 13.5768 79.0963 9.35053 84.1971 6.85215C86.8327 5.56127 89.2564 4.7261 91.0222 4.2136C91.9056 3.95723 92.6254 3.78143 93.1259 3.66924C93.3762 3.61314 93.5719 3.57243 93.7058 3.54613C93.7724 3.53305 93.8238 3.52391 93.8591 3.51744C93.8765 3.51423 93.8904 3.51136 93.8998 3.50969C93.9045 3.50886 93.9089 3.50837 93.9115 3.50792C93.9126 3.50772 93.9139 3.5079 93.9146 3.50778L93.9148 3.50684C93.9151 3.50678 93.9161 3.50719 94.0006 4L93.9158 3.5071L94.1858 4.46447Z" fill="#65D157" stroke="#FBF8EF"/>
<path d="M119.37 43.3779C118.919 44.7524 118.039 46.1796 116.99 47.541C115.867 48.9995 114.526 50.4142 113.242 51.6486C111.958 52.8839 110.723 53.945 109.811 54.6975C109.355 55.074 108.978 55.3739 108.715 55.5798C108.584 55.6828 108.48 55.7627 108.41 55.8167C108.375 55.8436 108.348 55.8645 108.329 55.8785C108.32 55.8855 108.313 55.8902 108.308 55.8939C108.305 55.8957 108.303 55.8973 108.302 55.8982L108.301 55.8998L107.606 55.1926L107.606 55.1916L107.607 55.191C107.608 55.1901 107.609 55.1884 107.61 55.1867C107.613 55.1829 107.618 55.1774 107.624 55.1697C107.636 55.1542 107.654 55.1309 107.678 55.1002C107.725 55.0388 107.795 54.9474 107.884 54.8294C108.064 54.5935 108.322 54.2501 108.636 53.822C109.266 52.9653 110.121 51.7699 111.02 50.4158C112.718 47.8602 114.54 44.7927 115.347 42.3724L115.494 41.8974C115.793 40.8539 115.893 39.4778 115.862 37.9714C115.831 36.4725 115.671 34.8781 115.471 33.4136C115.271 31.9506 115.032 30.6245 114.842 29.664C114.747 29.1839 114.665 28.7949 114.606 28.5272C114.577 28.3936 114.554 28.2901 114.538 28.2203C114.53 28.1855 114.524 28.1588 114.52 28.1412C114.518 28.1324 114.516 28.1254 114.515 28.1211C114.515 28.119 114.514 28.1175 114.514 28.1165L114.514 28.1156L114.513 28.1153L115.442 27.7672L115 28.0007C115.442 27.7674 115.443 27.7674 115.443 27.7675L115.443 27.7685L115.447 27.7759C115.449 27.781 115.454 27.7886 115.459 27.7984C115.469 27.8184 115.485 27.8484 115.504 27.8867C115.544 27.9638 115.602 28.0773 115.675 28.2224C115.82 28.513 116.026 28.9328 116.269 29.4509C116.753 30.4866 117.386 31.9198 117.975 33.5063C118.564 35.0908 119.114 36.8405 119.429 38.5066C119.741 40.1611 119.833 41.7894 119.455 43.1033L119.37 43.3779Z" fill="#65D157" stroke="#FBF8EF"/>
<path d="M68.0493 17.1493C65.623 12.1822 56.0598 8.31318 56.0598 8.31318C56.0598 8.31318 55.4282 16.9404 58.2509 21.1884C61.0645 25.4226 67.4411 23.0391 69.2404 27.6896C69.4633 28.2654 69.6963 29.2036 69.6963 29.2036L69.77 26.7036C69.77 26.7036 69.1408 26.1091 68.7997 25.6748C66.7355 23.0462 69.5686 20.2594 68.0493 17.1493Z" fill="#65D157"/>
<path d="M66.1271 27.2121C60.9061 21.9211 53.861 30.2942 53.861 30.2942C53.861 30.2942 60.1198 34.7378 63.804 33.0945C65.5694 32.3071 66.5845 29.2398 68.5146 29.3448C70.0124 29.4262 70.4031 31.4504 70.4031 31.4504L70.5117 29.4534C70.5117 29.4534 67.8828 28.9913 66.1271 27.2121Z" fill="#65D157"/>
<path d="M53.9998 66.5002C50.2593 65.6934 49.6849 61.0835 49.6849 61.0835L49.6851 60.0815L50.0001 59.5001C50.0001 59.5001 49 63 54 62.5007C56.1183 62.2891 58.1439 60.1375 60.1573 60.8286C63.058 61.8243 65.3552 66.7152 65.3552 66.7152C65.3552 66.7152 56.6042 67.062 53.9998 66.5002Z" fill="#65D157"/>
<path d="M114.502 42.5035C115.398 45.0863 114 46.5004 114 46.5004C114 46.5004 115 44.5 112.5 43.5008C110.523 42.7108 107.502 42.0034 106.257 39.5762C104.857 36.8474 106.257 33.7106 106.257 33.7106C106.257 33.7106 113.231 38.8394 114.502 42.5035Z" fill="#65D157"/>
<path d="M47.3279 86.8682C47.5501 90.3136 49.6786 95.3909 49.6786 95.3909C49.6786 95.3909 56 90 54 87.5C49.7472 82.184 50 78.5 50 78.5L49.5001 75.5002C49.5001 75.5002 48.5005 75.0003 49 76C50.7472 79.4966 47.0764 82.9675 47.3279 86.8682Z" fill="#65D157"/>
<path d="M84.4197 109.452C84.4197 109.452 82.7249 106.849 80.9996 106.501C79.4713 106.192 78.5977 107.298 77.0006 107.5C76.0314 107.623 74.5028 107.634 74.5028 107.634C74.5028 107.634 76.072 108.389 77.0006 109C78.274 109.839 78.8321 111.116 80 111.5C81.9245 112.133 84.4197 109.452 84.4197 109.452Z" fill="#65D157"/>
<path d="M64.4995 116.167C63.8207 118.333 67.0984 121.096 67.0984 121.096C67.0984 121.096 69.9538 118.212 69.5 116.167C69.2318 114.959 68.017 114.695 67.4997 113.5C67.2629 112.953 67.046 112.043 67.046 112.043C67.046 112.043 66.7635 112.953 66.4997 113.5C65.9345 114.673 64.7928 115.231 64.4995 116.167Z" fill="#65D157"/>
<path d="M42.9997 41.9204C39.7265 43.3285 37.672 49.3277 37.672 49.3277C37.672 49.3277 43.5893 50.0772 46.6574 48.3304C49.6002 46.6549 49.1557 42.032 52.5 41.5C53.2713 41.3773 56 42 56 42L51.9996 40.9998C51.9996 40.9998 50.8132 41.6419 49.9996 41.9199C47.4129 42.804 45.5108 40.8402 42.9997 41.9204Z" fill="#65D157"/>
<path d="M25.8187 59.6172C22.8268 57.0458 15.8518 61.2638 15.8518 61.2638C15.8518 61.2638 20.0014 66.6385 23.6331 66.3944C29.5 66 37 61.5 37 61.5L37 60.9998C37 60.9998 31.5 64.5 25.8187 59.6172Z" fill="#65D157"/>
<path d="M55.1982 77.4047C58.8993 81.5109 68.4325 82.4277 68.4325 82.4277C68.4325 82.4277 66 69.0005 56.5 70.5C51.4447 71.298 50 67 50 67L50.0007 69.0005C50.0007 69.0005 50.9527 69.5585 51.5007 70.0005C54.0164 72.0295 53.0343 75.004 55.1982 77.4047Z" fill="#65D157"/>
<path d="M17.0086 76.1756C11.0787 74.7788 4.75666 85.8323 4.75666 85.8323C4.75666 85.8323 14.7766 90.5566 19.1048 86.9703C24.5 82.5 32.0004 75 32.0004 75L33.0004 73C33.0004 73 29 79 17.0086 76.1756Z" fill="#65D157"/>
<path d="M9.79148 105.786C5.25084 109.836 11.045 121.315 11.045 121.315C11.045 121.315 22.0587 113.843 19.545 108.815C15.045 99.8153 21.0453 93.3153 21.0453 93.3153L19.0455 94.8153C19.0455 94.8153 17.0459 99.3154 9.79148 105.786Z" fill="#65D157"/>
<path d="M56.2275 121.235C56.2275 121.235 55.0092 117.034 52.8649 115.681C50.7508 114.347 48.4416 115.536 46 115C44.6118 114.695 43.0007 113.999 43.0007 113.999C43.0007 113.999 44.9883 115.021 46 116C47.5592 117.509 47.0151 119.537 48.7653 120.819C51.1195 122.544 56.2275 121.235 56.2275 121.235Z" fill="#65D157"/>
<path d="M43.228 79.5221C43.8059 84.2239 40.0354 91.2248 40.0354 91.2248C40.0354 91.2248 32.7851 85.1438 34.8641 81.2992C38 75.5 36.9992 71.5 36.9992 71.5L39.5 68L38.5 70C36.6431 73.7137 42.7215 75.401 43.228 79.5221Z" fill="#65D157"/>
<path d="M3.98684 51.6544C3.98684 51.6544 9.48132 52.6249 11.9995 51.6546C15.245 50.404 14.7694 46.2869 17.5 44.5C18.2308 44.0217 19.0339 43.953 19.0339 43.953L19.4993 42.5001C19.4993 42.5001 18.9154 43.1091 18.5003 43.4534C15.3907 46.0324 11.5194 42.5556 8.26396 44.9478C5.76073 46.7872 3.98684 51.6544 3.98684 51.6544Z" fill="#65D157"/>
<path d="M16.0003 50.4997C15.2265 53.5633 19.2728 57.596 19.2728 57.596C20.3975 54.9063 22.3189 53.6193 22.1528 50.7087C22.0128 48.2543 19.8002 47.4399 19.5 45C19.3808 44.031 19.5 42.5 19.5 42.5L18.5 44C18.5 44 19.4206 45.0866 18.5987 46.4657C17.7767 47.8447 16.3934 48.9432 16.0003 50.4997Z" fill="#65D157"/>
<path d="M84.5422 22.489C89.0368 22.6051 94.9986 17.6712 94.9986 17.6712C94.9986 17.6712 88.9919 13.7085 84.8986 14.3814C81.343 14.9659 74.9992 18.9995 74.9992 18.9995L73.9992 21.4995C73.9992 21.4995 75.1658 19.2603 75.9992 18.9995C79.1971 17.9985 80.9395 22.3959 84.5422 22.489Z" fill="#65D157"/>
<path d="M91.0026 40.6917C91.1265 36.4232 86.5159 30.7199 86.5159 30.7199C86.5159 30.7199 83.1711 35.9868 83.0078 38.9844C82.7828 43.1162 86.715 44.4336 87.4729 48.0018C87.6797 48.9757 86.9651 49.9998 86.9651 49.9998L88.9605 51.0071C88.9605 51.0071 88.1093 50.1926 87.967 49.5028C87.8883 49.1207 87.9544 48.8935 87.9709 48.5037C88.1093 45.2342 90.9076 43.9628 91.0026 40.6917Z" fill="#65D157"/>
<path d="M74.3558 65.5003C71.225 64.4681 67.1203 66.5218 67.1203 66.5218C67.1203 66.5218 70.7466 71.8215 74.3554 72.646C77.4902 73.3623 84.5 69.5 84.5 69.5C84.5 69.5 81.1771 69.9497 78.9995 69.0005C76.9177 68.0931 76.1053 66.077 74.3558 65.5003Z" fill="#65D157"/>
<path d="M122.408 103.431C122.745 98.4152 118.375 91.207 118.375 91.207C118.375 91.207 113.364 97.375 113.447 102.012C113.514 105.786 116.193 107.314 117 111.001C117.254 112.161 117.5 114.001 117.5 114.001L120 117.501C120 117.501 118 113.563 118 112.001C118 108.501 122 109.501 122.408 103.431Z" fill="#65D157"/>
<path d="M108 111.5C100.318 108.848 87 116.501 87 116.501C87 116.501 99.7254 121.902 106.501 121.5C110.813 121.244 110.746 120.163 113.5 119.431C117.001 118.5 117.575 118.672 120.001 120C120.618 120.338 121.501 121 121.501 121L120.501 119C120.501 119 119.532 118.995 117.001 118C113.669 116.691 110.625 112.407 108 111.5Z" fill="#65D157"/>
<path d="M103 103C100.254 100.254 93.0097 104.717 93.0097 104.717C93.0097 104.717 96.7701 109.825 100.327 110.25C102.553 110.515 104.244 108.313 106.476 108.112C110 107.794 113 110.5 113 110.5L111.5 108.5C111.5 108.5 107.5 107.5 103 103Z" fill="#65D157"/>
</g>
<defs>
<clipPath id="clip0_2741_1191">
<rect width="128" height="128" fill="white"/>
</clipPath>
</defs>
</svg>
