<svg width="128" height="128" viewBox="0 0 128 128" fill="none" xmlns="http://www.w3.org/2000/svg">
<g clip-path="url(#clip0_2793_114)">
<rect width="128" height="128" fill="#FBF8EF"/>
<path d="M80.2401 94.2387C79.9318 92.6557 78.8664 90.8418 80.1037 90.195C81.3198 89.5593 82.0108 91.8241 83.3904 92.4518C84.4604 92.9387 85.1748 92.6934 86.2131 93.2781C88.6933 94.6747 88.5143 97.3454 90.1477 99.8479C92.086 102.818 94.1882 103.901 95.4472 107.204C96.863 110.919 101 119.501 103.5 120C106 120.499 91.974 120.5 87.4998 114.999C83.7006 110.329 84.4544 105.284 82.5039 99.5454C81.7818 97.421 80.6638 96.4145 80.2401 94.2387Z" fill="#65D157"/>
<path d="M96.3225 116.459C96.3225 116.459 92.2716 112.976 90.23 110.266C88.5271 108.006 87.7469 106.552 86.5004 103.987C85.2515 101.417 85.0295 99.7711 83.8646 97.1622C83.1053 95.4618 81.7755 92.8755 81.7755 92.8755C81.7755 92.8755 83.3934 95.2891 84.3052 96.9099C85.7133 99.4131 86.3329 101.132 87.4294 103.568C88.5674 106.095 89.5085 107.37 91.0556 109.67C92.9283 112.454 96.3225 116.459 96.3225 116.459Z" fill="#FBF8EF"/>
<path d="M122.18 22.5824C122.938 22.3748 123.78 21.7911 124.14 22.3685C124.493 22.936 123.418 23.3544 123.163 24.0475C122.966 24.585 123.111 24.923 122.865 25.4488C122.277 26.7046 120.973 26.7151 119.818 27.6C118.446 28.65 117.996 29.7108 116.438 30.443C114.685 31.2664 110.667 33.5894 110.516 34.822C110.365 36.0546 109.852 29.2415 112.361 26.8672C114.491 24.8511 116.969 25.033 119.685 23.8759C120.691 23.4476 121.139 22.8677 122.18 22.5824Z" fill="#65D157"/>
<path d="M111.975 31.2064C111.975 31.2064 113.519 29.1114 114.761 28.0207C115.796 27.1109 116.474 26.6789 117.674 25.9797C118.877 25.2792 119.669 25.1112 120.893 24.45C121.692 24.0191 122.899 23.2787 122.899 23.2787C122.899 23.2787 121.786 24.1528 121.032 24.6548C119.868 25.4303 119.055 25.794 117.912 26.4157C116.726 27.0608 116.141 27.5644 115.08 28.4C113.796 29.4114 111.975 31.2064 111.975 31.2064Z" fill="#FBF8EF"/>
<path d="M4.00002 84C4.00002 84 22.8115 68.5919 35.9057 73C46.5854 76.5952 58.1184 97.7629 58.1184 97.7629C58.1184 97.7629 54.0424 90.5425 53.9038 85.469C53.7245 78.8997 56.0215 76.7257 58.5002 70.5007C65.5502 52.7958 75.7148 22.6747 58.5002 14.5C44.0781 7.6513 18.0415 35.8981 18.0415 35.8981L16.9578 33.1009C16.9578 33.1009 44.9269 3.42988 60.5 11.5C81.5 22.3824 62.5 68.0007 62.5 68.0007C62.5 68.0007 67.5 63.5 71.5002 61.7216C87.8696 54.4441 101.726 44.8692 107.738 33.5952C110.734 27.9763 109.304 23.5082 112.5 18.0007C114.935 13.8056 120.5 8.50065 120.5 8.50065C120.5 8.50065 116.376 14.6662 114.5 19.0007C111.873 25.0733 113.034 29.3971 110.262 35.4052C103.457 50.1558 78.0472 61.7216 78.0472 61.7216C78.0472 61.7216 90.569 63.7256 97.0002 60.0007C98.4538 59.1588 100.5 57.5007 100.5 57.5007L102.5 59.5007C102.5 59.5007 100.568 61.5993 98.9549 62.3353C97.4596 63.0177 94.0003 64.0007 94.0003 64.0007L108.5 69.0007L108 71.0007L98.9549 68.5004C98.9549 68.5004 102.994 71.8471 105 74.5007C107.265 77.4969 109.5 83.0007 109.5 83.0007L107.5 84.0007C107.5 84.0007 105.5 78.8655 103.5 76.0007C99.524 70.3051 92.5002 67.0007 92.5002 67.0007C92.5002 67.0007 95.1914 72.3217 95.2965 76.0007C95.4124 80.0541 92.5002 86.0007 92.5002 86.0007L89.5002 85.0007C89.5002 85.0007 92.5096 80.0208 92.5003 76.5007C92.4889 72.2183 91.6601 69.6805 88.0002 66.5007C83.7256 62.7868 74.0002 65.0007 74.0002 65.0007C74.0002 65.0007 75.379 65.7582 76.5002 68.0007C78.5002 72.0007 76.1577 80.4845 76.1577 80.4845L73.2498 78.8655C73.2498 78.8655 76.1971 68.921 71.5002 67.5818C65.2369 65.796 56.4003 79.5099 57.0964 85.5316C59.0002 102.001 74.8687 113.35 84.5025 117.026C96.9991 121.794 120 119.5 120 119.5C120 119.5 96.6855 124.516 83.921 119.998C73.6825 116.374 68.5 112.5 60.5 105C50.8618 95.9645 45.9006 80.9282 33.5 76.5007C25.0946 73.4996 4.00002 84 4.00002 84Z" fill="#65D157"/>
<path d="M83.6961 97.1221C83.6961 97.1221 84.5482 99.9318 85.9988 100.601C87.5259 101.306 90.3709 99.9421 90.3709 99.9421C90.3709 99.9421 91.3046 102.474 92.6903 102.913C93.8452 103.278 95.8253 102.35 95.8253 102.35C95.8253 102.35 94.4825 100.004 94.2925 98.2814C93.9238 94.9389 98.1339 93.3068 97.4634 90.0373C96.8531 87.0608 95.0687 85.5388 92.3241 84.6222C89.8477 83.7952 87.8508 83.8454 85.5323 85.3651C82.4953 87.3557 84.7485 91.8994 81.8607 94.1349C80.6644 95.061 78.4231 95.7789 78.4231 95.7789C78.4231 95.7789 79.4422 96.9033 80.3086 97.239C81.5217 97.7091 83.6961 97.1221 83.6961 97.1221Z" fill="#F8A300" stroke="#FBF8EF"/>
<path d="M109.959 100.593C109.959 100.593 112.934 102.379 114.72 101.807C116.6 101.204 117.968 97.7296 117.968 97.7296C117.968 97.7296 120.793 99.2073 122.339 98.4833C123.626 97.88 124.596 95.4803 124.596 95.4803C124.596 95.4803 121.567 94.4946 120.029 93.1331C117.046 90.4917 119.379 85.6895 116.194 83.3537C113.294 81.2273 110.54 81.3179 107.441 82.7087C104.644 83.9636 102.96 85.6054 102.171 88.7955C101.136 92.9741 106.704 95.1628 105.993 99.4373C105.699 101.208 104.337 103.632 104.337 103.632C104.337 103.632 106.113 103.804 107.128 103.406C108.55 102.848 109.959 100.593 109.959 100.593Z" fill="#F8A300" stroke="#FBF8EF"/>
<path d="M116.393 51.451C116.393 51.451 116.938 48.5327 115.939 47.3654C114.887 46.1366 111.674 46.3216 111.674 46.3216C111.674 46.3216 112.015 43.6286 110.967 42.6999C110.093 41.926 107.866 42.0348 107.866 42.0348C107.866 42.0348 107.983 44.7094 107.349 46.3733C106.117 49.6013 101.544 49.5175 100.62 52.7921C99.7784 55.7731 100.68 57.8542 102.734 59.7388C104.588 61.4393 106.418 62.1479 109.227 61.6204C112.907 60.9293 112.996 55.8789 116.656 54.9052C118.171 54.5018 120.536 54.6859 120.536 54.6859C120.536 54.6859 120.14 53.2616 119.513 52.6238C118.636 51.7308 116.393 51.451 116.393 51.451Z" fill="#F8A300" stroke="#FBF8EF"/>
<path d="M119.627 76.1024C119.627 76.1024 122.006 74.6774 122.369 73.1444C122.75 71.5307 121.059 69.1057 121.059 69.1057C121.059 69.1057 123.176 67.6628 123.341 66.2422C123.479 65.0583 122.321 63.3658 122.321 63.3658C122.321 63.3658 120.439 65.1594 118.925 65.7153C115.987 66.7938 113.831 63.1212 111.009 64.4724C108.44 65.7025 107.368 67.7398 106.998 70.564C106.663 73.1122 107.036 75.0113 108.78 76.899C111.065 79.3716 114.77 76.2298 117.249 78.5066C118.276 79.4498 119.289 81.4377 119.289 81.4377C119.289 81.4377 120.13 80.2188 120.288 79.3171C120.511 78.0548 119.627 76.1024 119.627 76.1024Z" fill="#F8A300" stroke="#FBF8EF"/>
<path d="M65.8272 90.6382C65.8272 90.6382 66.7445 93.2604 68.175 93.9251C69.6809 94.6249 72.401 93.4556 72.401 93.4556C72.401 93.4556 73.3887 95.8242 74.7488 96.2729C75.8823 96.6469 77.7763 95.8529 77.7763 95.8529C77.7763 95.8529 76.3971 93.6442 76.1575 92.0469C75.6928 88.9481 79.7304 87.575 78.9749 84.534C78.287 81.7655 76.5051 80.3029 73.8098 79.3689C71.3779 78.5261 69.4397 78.5088 67.2359 79.8384C64.3493 81.58 66.683 85.8483 63.949 87.8209C62.8165 88.638 60.6621 89.2295 60.6621 89.2295C60.6621 89.2295 61.6879 90.3005 62.5403 90.6382C63.7337 91.1111 65.8272 90.6382 65.8272 90.6382Z" fill="#F8A300" stroke="#FBF8EF"/>
<path d="M31.632 112.568C30.0163 113.562 24.8113 114.932 25.2135 116.715C25.6088 118.467 29.0204 116.878 30.6408 117.753C31.8976 118.431 34.1347 118.825 35.4519 119.391C38.5981 120.742 40.7791 118.358 44.2263 117.943C48.3171 117.45 50.8966 118.679 54.7478 117.225C59.0786 115.589 66.1748 110.541 68.7283 112.439C71.2818 114.337 61.8047 103.805 54.8768 104.006C47.8242 104.212 44.5132 107.71 38.007 110.475C35.5984 111.499 33.8528 111.201 31.632 112.568Z" fill="#65D157"/>
<path d="M61.5038 109.299C61.5038 109.299 56.7194 108.227 53.6177 108.675C51.0602 109.044 48.3137 110.769 45.8291 111.478C42.0637 112.553 38.8592 114.006 36.3059 114.617C34.384 115.078 31.2691 115.107 31.2691 115.107C31.2691 115.107 34.4383 115.379 36.4293 115.067C39.0369 114.659 43.8192 113.242 46.1124 112.367C48.4922 111.458 51.3115 110.082 53.8103 109.587C56.8351 108.988 61.5038 109.299 61.5038 109.299Z" fill="#FBF8EF"/>
<path d="M40.3974 46.2857C38.8723 45.157 35.6614 40.8374 34.1569 41.8749C32.6781 42.8947 35.4247 45.4682 35.2165 47.298C35.055 48.7172 35.5238 50.9397 35.4894 52.3729C35.4073 55.7962 38.4323 56.9317 40.1023 59.9759C42.0841 63.5884 41.9052 66.4399 44.6896 69.4719C47.8207 72.8815 55.1498 77.5856 54.3401 80.6623C53.5303 83.7391 59.7726 71.02 57.0039 64.6662C54.1854 58.198 49.7049 56.4292 44.7146 51.4219C42.8672 49.5682 42.4937 47.8371 40.3974 46.2857Z" fill="#65D157"/>
<path d="M54.5608 72.7885C54.5608 72.7885 53.7731 67.9491 52.202 65.2375C50.9066 63.0018 48.2825 61.0959 46.6982 59.0546C44.2974 55.961 41.7555 53.5285 40.2364 51.387C39.093 49.7751 37.9049 46.8954 37.9049 46.8954C37.9049 46.8954 38.8337 49.9376 39.8648 51.6691C41.2152 53.9369 44.312 57.8468 45.979 59.6486C47.7089 61.5185 50.0366 63.6219 51.4272 65.7562C53.1106 68.3398 54.5608 72.7885 54.5608 72.7885Z" fill="#FBF8EF"/>
<path d="M19 16.0001C19 16.0001 24.041 18.4151 27.5 18.5C32.5035 18.6228 34.6647 15.2921 39.5 14C43.904 12.8232 51.0001 11.9998 51.0001 11.9998" stroke="#65D157" stroke-width="3"/>
<path d="M28.0002 49.5003C28.0002 49.5003 28.9199 38.2976 32.0002 32.0001C34.0947 27.7179 35.9514 25.6645 38.9999 21.9997C42.3552 17.9661 48.4999 12.4997 48.4999 12.4997" stroke="#65D157" stroke-width="3"/>
<path d="M49.6273 39.3959C49.6273 39.3959 45.5002 22.5003 55.5002 20.0001C65.7786 17.4304 68.5001 25.0004 68.5001 25.0004" stroke="#65D157" stroke-width="3"/>
<path d="M7.39935 38.5704C7.39935 38.5704 6.82903 41.6803 7.89334 42.98C9.0137 44.3482 12.4257 44.2971 12.4257 44.2971C12.4257 44.2971 12.0711 47.1742 13.1875 48.2199C14.118 49.0915 16.4821 49.0768 16.4821 49.0768C16.4821 49.0768 16.3504 46.1983 17.0199 44.4401C18.3188 41.0292 23.1764 41.3291 24.1489 37.854C25.0342 34.6904 24.0705 32.4135 21.8835 30.2947C19.9103 28.3829 17.9644 27.5377 14.982 27.9754C11.0756 28.5488 10.9955 33.9699 7.11132 34.8479C5.50234 35.2116 2.9909 34.9053 2.9909 34.9053C2.9909 34.9053 3.41511 36.4534 4.08257 37.1674C5.01703 38.167 7.39935 38.5704 7.39935 38.5704Z" fill="#F8A300" stroke="#FBF8EF"/>
<path d="M12.7459 7.50826C12.7459 7.50826 9.79513 7.71544 8.71122 8.99862C7.57023 10.3494 8.00886 13.4715 8.00886 13.4715C8.00886 13.4715 5.29877 13.8221 4.45652 15.0935C3.75458 16.1531 4.03926 18.3212 4.03926 18.3212C4.03926 18.3212 6.69482 17.5236 8.40287 17.7253C11.7165 18.1166 11.9951 22.6493 15.3308 22.7256C18.3676 22.7952 20.3696 21.3747 22.0847 18.8677C23.6322 16.6058 24.1934 14.6196 23.4453 11.983C22.4655 8.52942 17.4265 9.73013 16.1666 6.36863C15.6447 4.97615 15.641 2.5972 15.641 2.5972C15.641 2.5972 14.2533 3.35078 13.6674 4.13174C12.8471 5.22508 12.7459 7.50826 12.7459 7.50826Z" fill="#F8A300" stroke="#FBF8EF"/>
<path d="M21.9333 59.6406C21.9333 59.6406 23.373 62.2246 24.9949 62.6616C26.7021 63.1216 29.3431 61.3996 29.3431 61.3996C29.3431 61.3996 30.8106 63.7048 32.3192 63.928C33.5765 64.114 35.419 62.9362 35.419 62.9362C35.419 62.9362 33.5699 60.8701 33.0278 59.2378C31.976 56.0713 35.9622 53.8957 34.6159 50.8427C33.3902 48.0634 31.2545 46.8533 28.2566 46.364C25.5517 45.9226 23.5151 46.2573 21.4451 48.0534C18.7336 50.4061 21.9591 54.4594 19.4498 57.0267C18.4104 58.0901 16.2578 59.103 16.2578 59.103C16.2578 59.103 17.529 60.0398 18.4848 60.239C19.8229 60.5178 21.9333 59.6406 21.9333 59.6406Z" fill="#F8A300" stroke="#FBF8EF"/>
<path d="M47.7032 51.7585C47.7032 51.7585 49.8413 53.8026 51.5199 53.7415C53.2869 53.6772 55.3021 51.2526 55.3021 51.2526C55.3021 51.2526 57.3845 53.0221 58.8918 52.7901C60.148 52.5968 61.5609 50.9277 61.5609 50.9277C61.5609 50.9277 59.1844 49.4993 58.1848 48.0997C56.2454 45.3845 59.412 42.1295 57.2247 39.6098C55.2335 37.316 52.8357 36.79 49.827 37.2072C47.1123 37.5836 45.2651 38.5044 43.8173 40.8315C41.921 43.8795 46.1989 46.8005 44.559 49.9939C43.8797 51.3167 42.1218 52.9197 42.1218 52.9197C42.1218 52.9197 43.6129 53.4396 44.5849 53.3479C45.9457 53.2194 47.7032 51.7585 47.7032 51.7585Z" fill="#F8A300" stroke="#FBF8EF"/>
<path d="M7.26545 60.8936C6.73543 60.0268 5.69411 59.2263 6.30845 58.5032C6.91225 57.7925 7.82284 58.9651 8.79935 58.9685C9.55669 58.9712 9.9391 58.6307 10.6983 58.7007C12.5118 58.868 12.9798 60.5196 14.5162 61.5798C16.3394 62.8379 18.2245 62.6591 19.3359 64.5616C22.9077 70.6753 30.0858 72.2809 30.0858 72.2809C30.0858 72.2809 21.8207 73.176 16.5798 72.0036C12.9035 71.1813 12.2211 66.3836 9.79206 63.4666C8.89283 62.3867 7.99396 62.0851 7.26545 60.8936Z" fill="#65D157"/>
<path d="M23.8682 70.6198C23.8682 70.6198 20.6001 69.7936 18.6768 68.7812C16.685 67.7326 15.3254 66.4547 13.9992 65.3598C12.6731 64.2649 12.1705 63.6241 10.9967 62.3163C10.2317 61.4639 8.18331 60.2687 8.18331 60.2687C8.18331 60.2687 10.2817 61.2484 11.2795 61.9763C12.7423 63.0435 13.2674 63.6667 14.5836 64.6969C16.3466 66.0769 19.2126 68.0792 19.2126 68.0792L23.8682 70.6198Z" fill="#FBF8EF"/>
<path d="M12 88.9994C12 88.9994 14.5793 83.3269 15.5 81.5C17.4192 77.6917 22 75.4997 22 75.4997" stroke="#65D157" stroke-width="3"/>
<path d="M19.0002 105.5C19.0002 105.5 17.4252 91.582 22.5004 85.9995C32.5001 75 41 79 41 79" stroke="#65D157" stroke-width="3"/>
<path d="M35.0001 91.9991C35.0001 91.9991 34 86.0469 38.4999 83.9999C43.9996 81.4982 48.4999 86.9993 48.4999 86.9993" stroke="#65D157" stroke-width="3"/>
<path d="M94.07 8.10977C95.1035 6.18342 95.3788 3.39753 97.5413 3.71818C99.6666 4.03332 98.5068 6.99241 99.7019 8.77795C100.629 10.1627 101.762 10.4836 102.56 11.9463C104.467 15.4401 101.872 18.1239 101.66 22.0984C101.4 26.9508 103.686 31.2757 100.226 34.6872C98.1459 36.7378 98.7914 42.0542 97.309 44.9351C92.7584 53.7787 85.4983 54.9504 85.5367 54.6991C85.5751 54.4478 94.1998 50.964 85.2017 36.3203C82.2497 31.5161 89.4919 23.2273 92.1756 15.5672C93.1691 12.7314 92.6494 10.7575 94.07 8.10977Z" fill="#65D157"/>
<path d="M91.8804 50.5001C91.8804 50.5001 92.9716 48.3056 93.4721 44.6328C93.8711 41.7043 93.2022 36.4596 93.9512 33.5993C95.1909 28.8652 97.0408 25.7168 97.3671 22.5833C98.0384 16.1381 97.2426 8.89588 97.2426 8.89588C97.2426 8.89588 99.1597 16.5016 98.1965 22.7078C97.7114 25.8332 96.7906 29.0856 95.5144 33.6235C94.6863 36.568 95.0556 41.793 94.3834 44.7747C93.5696 48.3841 91.8804 50.5001 91.8804 50.5001Z" fill="#FBF8EF"/>
<path d="M81.4039 7.55647C82.457 6.77424 83.4136 5.35548 84.3227 6.03608C85.2163 6.70501 83.7974 8.00747 83.8214 9.24015C83.8401 10.1962 84.2709 10.6342 84.2067 11.6013C84.0532 13.9115 82.0309 14.7183 80.7686 16.7957C79.2707 19.2609 79.2142 21.1838 77.2329 23.2677L77.2126 23.2891C74.9748 25.6428 70.028 30.8458 70.3644 32.9062C70.7018 34.9728 67.4218 24.731 69.5692 20.186C71.6612 15.758 74.7804 14.5281 78.3056 11.0814C79.6107 9.80536 79.9564 8.63164 81.4039 7.55647Z" fill="#65D157"/>
<path d="M70.7507 27.1593C70.7507 27.1593 71.8834 22.9637 73.1543 20.5142C74.2144 18.4708 75.0067 17.3879 76.4508 15.5724C77.8975 13.7535 79.0274 13.0124 80.5322 11.2413C81.5131 10.087 82.9435 8.2029 82.9435 8.2029C82.9435 8.2029 81.741 10.2377 80.8721 11.4759C79.5302 13.3883 78.4866 14.4467 77.0848 16.1067C75.63 17.8295 75.0257 18.9675 73.8815 20.9105C72.4965 23.2625 70.7507 27.1593 70.7507 27.1593Z" fill="#FBF8EF"/>
<path d="M33.8579 104.057C33.8579 104.057 35.8034 105.892 37.2092 105.729C38.6891 105.558 40.2051 103.099 40.2051 103.099C40.2051 103.099 42.0838 104.673 43.3332 104.357C44.3745 104.093 45.4396 102.399 45.4396 102.399C45.4396 102.399 43.3388 101.171 42.3968 99.8859C40.5692 97.3927 42.992 94.0636 40.9704 91.7738C39.1301 89.6893 37.0772 89.3316 34.5799 89.9195C32.3267 90.45 30.842 91.4506 29.7955 93.7801C28.4248 96.8313 32.2321 99.3778 31.0875 102.553C30.6133 103.868 29.2535 105.52 29.2535 105.52C29.2535 105.52 30.5442 105.928 31.3541 105.78C32.488 105.572 33.8579 104.057 33.8579 104.057Z" fill="#F8A300" stroke="#FBF8EF"/>
<path d="M6.57678 96.0739C6.57678 96.0739 7.50063 98.0965 8.6897 98.5212C9.9414 98.9683 12.0235 97.8363 12.0235 97.8363C12.0235 97.8363 12.9849 99.6516 14.1019 99.9093C15.0329 100.124 16.4841 99.352 16.4841 99.352C16.4841 99.352 15.2224 97.6929 14.9141 96.4374C14.3159 94.0016 17.4332 92.6104 16.6074 90.2421C15.8557 88.0861 14.3279 87.0513 12.1109 86.5049C10.1106 86.0119 8.5645 86.1406 6.90572 87.3624C4.73297 88.9627 6.90677 92.1932 4.87265 93.9664C4.03003 94.701 2.35636 95.3308 2.35636 95.3308C2.35636 95.3308 3.25272 96.109 3.95695 96.3155C4.94287 96.6047 6.57678 96.0739 6.57678 96.0739Z" fill="#F8A300" stroke="#FBF8EF"/>
<path d="M12.2802 113.905C12.2802 113.905 13.2595 116.461 14.6874 117.074C16.1905 117.719 18.8351 116.489 18.8351 116.489C18.8351 116.489 19.8764 118.792 21.2287 119.195C22.3557 119.53 24.1975 118.693 24.1975 118.693C24.1975 118.693 22.7754 116.558 22.4931 114.993C21.9456 111.955 25.8815 110.485 25.0493 107.513C24.2916 104.807 22.4946 103.418 19.8134 102.577C17.3943 101.818 15.4853 101.857 13.3539 103.23C10.5621 105.029 12.9838 109.164 10.349 111.186C9.25755 112.023 7.15334 112.668 7.15334 112.668C7.15334 112.668 8.19454 113.693 9.04368 114.001C10.2325 114.432 12.2802 113.905 12.2802 113.905Z" fill="#F8A300" stroke="#FBF8EF"/>
<circle cx="16" cy="106" r="1" fill="#FBF8EF"/>
<circle cx="20" cy="106" r="1" fill="#FBF8EF"/>
<circle cx="17" cy="109" r="1" fill="#FBF8EF"/>
<circle cx="20" cy="110" r="1" fill="#FBF8EF"/>
<circle cx="34" cy="95" r="1" fill="#FBF8EF"/>
<circle cx="38" cy="96" r="1" fill="#FBF8EF"/>
<circle cx="35" cy="98" r="1" fill="#FBF8EF"/>
<circle cx="9.64346" cy="89.5947" r="1" transform="rotate(12.3212 9.64346 89.5947)" fill="#FBF8EF"/>
<circle cx="13.3378" cy="91.4247" r="1" transform="rotate(12.3212 13.3378 91.4247)" fill="#FBF8EF"/>
<circle cx="9.98037" cy="92.7392" r="1" transform="rotate(12.3212 9.98037 92.7392)" fill="#FBF8EF"/>
<circle cx="70" cy="84" r="1" fill="#FBF8EF"/>
<circle cx="74" cy="84" r="1" fill="#FBF8EF"/>
<circle cx="74" cy="87" r="1" fill="#FBF8EF"/>
<circle cx="88" cy="89" r="1" fill="#FBF8EF"/>
<circle cx="92" cy="89" r="1" fill="#FBF8EF"/>
<circle cx="92" cy="93" r="1" fill="#FBF8EF"/>
<circle cx="88" cy="92" r="1" fill="#FBF8EF"/>
<circle cx="109" cy="87" r="1" fill="#FBF8EF"/>
<circle cx="114" cy="87" r="1" fill="#FBF8EF"/>
<circle cx="113" cy="90" r="1" fill="#FBF8EF"/>
<circle cx="109" cy="92" r="1" fill="#FBF8EF"/>
<circle cx="112" cy="69" r="1" fill="#FBF8EF"/>
<circle cx="112" cy="73" r="1" fill="#FBF8EF"/>
<circle cx="115" cy="71" r="1" fill="#FBF8EF"/>
<circle cx="107" cy="54" r="1" fill="#FBF8EF"/>
<circle cx="107" cy="57" r="1" fill="#FBF8EF"/>
<circle cx="104" cy="55" r="1" fill="#FBF8EF"/>
<circle cx="49" cy="42" r="1" fill="#FBF8EF"/>
<circle cx="52" cy="42" r="1" fill="#FBF8EF"/>
<circle cx="52" cy="46" r="1" fill="#FBF8EF"/>
<circle cx="26" cy="51" r="1" fill="#FBF8EF"/>
<circle cx="30" cy="53" r="1" fill="#FBF8EF"/>
<circle cx="27" cy="54" r="1" fill="#FBF8EF"/>
<circle cx="16" cy="33" r="1" fill="#FBF8EF"/>
<circle cx="19" cy="33" r="1" fill="#FBF8EF"/>
<circle cx="19" cy="37" r="1" fill="#FBF8EF"/>
<circle cx="17" cy="13" r="1" fill="#FBF8EF"/>
<circle cx="17" cy="16" r="1" fill="#FBF8EF"/>
<circle cx="14" cy="16" r="1" fill="#FBF8EF"/>
</g>
<defs>
<clipPath id="clip0_2793_114">
<rect width="128" height="128" fill="white"/>
</clipPath>
</defs>
</svg>
