<svg width="128" height="128" viewBox="0 0 128 128" fill="none" xmlns="http://www.w3.org/2000/svg">
<g clip-path="url(#clip0_2804_474)">
<rect width="128" height="128" transform="matrix(0 1 1 0 0 0)" fill="#FBF8EF"/>
<path d="M94.2387 80.2406C92.6557 79.9323 90.8418 78.8669 90.195 80.1042C89.5593 81.3203 91.8241 82.0113 92.4518 83.3909C92.9387 84.4609 92.6934 85.1753 93.2781 86.2136C94.6747 88.6938 97.3454 88.5148 99.8479 90.1482C102.818 92.0865 103.901 94.1887 107.204 95.4477C110.919 96.8635 119.501 101 120 103.5C120.499 106 120.5 91.9745 114.999 87.5003C110.329 83.7011 105.284 84.4549 99.5454 82.5044C97.421 81.7823 96.4145 80.6643 94.2387 80.2406Z" fill="#65D157"/>
<path d="M116.459 96.322C116.459 96.322 112.976 92.2711 110.266 90.2295C108.006 88.5266 106.552 87.7464 103.987 86.4999C101.417 85.2511 99.7711 85.029 97.1622 83.8641C95.4618 83.1048 92.8755 81.775 92.8755 81.775C92.8755 81.775 95.2891 83.393 96.9099 84.3047C99.4131 85.7128 101.132 86.3324 103.568 87.429C106.095 88.5669 107.37 89.508 109.67 91.0551C112.454 92.9279 116.459 96.322 116.459 96.322Z" fill="#FBF8EF"/>
<path d="M22.5819 122.18C22.3744 122.938 21.7906 123.78 22.368 124.139C22.9355 124.492 23.3539 123.417 24.047 123.163C24.5845 122.966 24.9226 123.111 25.4483 122.865C26.7041 122.277 26.7146 120.973 27.5995 119.817C28.6495 118.445 29.7103 117.996 30.4425 116.437C31.2659 114.685 33.5889 110.667 34.8215 110.516C36.0541 110.365 29.241 109.852 26.8667 112.36C24.8506 114.491 25.0325 116.968 23.8754 119.685C23.4471 120.69 22.8673 121.138 22.5819 122.18Z" fill="#65D157"/>
<path d="M31.2064 111.974C31.2064 111.974 29.1114 113.518 28.0207 114.76C27.1109 115.796 26.6789 116.473 25.9797 117.674C25.2792 118.876 25.1112 119.668 24.45 120.892C24.0191 121.691 23.2787 122.898 23.2787 122.898C23.2787 122.898 24.1528 121.785 24.6548 121.031C25.4303 119.867 25.794 119.054 26.4157 117.911C27.0608 116.725 27.5644 116.14 28.4 115.079C29.4114 113.795 31.2064 111.974 31.2064 111.974Z" fill="#FBF8EF"/>
<path d="M84 3.99953C84 3.99953 68.5919 22.811 73 35.9052C76.5952 46.5849 97.7629 58.1179 97.7629 58.1179C97.7629 58.1179 90.5425 54.0419 85.469 53.9033C78.8997 53.724 76.7257 56.021 70.5007 58.4997C52.7958 65.5497 22.6747 75.7143 14.5 58.4997C7.6513 44.0776 35.8981 18.041 35.8981 18.041L33.1009 16.9573C33.1009 16.9573 3.42988 44.9264 11.5 60.4995C22.3824 81.4995 68.0007 62.4995 68.0007 62.4995C68.0007 62.4995 63.5 67.4995 61.7216 71.4998C54.4441 87.8691 44.8692 101.726 33.5952 107.737C27.9763 110.733 23.5082 109.304 18.0007 112.5C13.8056 114.934 8.50065 120.5 8.50065 120.5C8.50065 120.5 14.6662 116.375 19.0007 114.5C25.0733 111.872 29.3971 113.033 35.4052 110.262C50.1558 103.456 61.7216 78.0467 61.7216 78.0467C61.7216 78.0467 63.7256 90.5685 60.0007 96.9998C59.1588 98.4533 57.5007 100.5 57.5007 100.5L59.5007 102.5C59.5007 102.5 61.5993 100.567 62.3353 98.9544C63.0177 97.4591 64.0007 93.9998 64.0007 93.9998L69.0007 108.5L71.0007 108L68.5004 98.9544C68.5004 98.9544 71.8471 102.994 74.5007 105C77.4969 107.265 83.0007 109.5 83.0007 109.5L84.0007 107.5C84.0007 107.5 78.8655 105.5 76.0007 103.5C70.3051 99.5235 67.0007 92.4998 67.0007 92.4998C67.0007 92.4998 72.3217 95.1909 76.0007 95.2961C80.0541 95.4119 86.0007 92.4998 86.0007 92.4998L85.0007 89.4998C85.0007 89.4998 80.0208 92.5091 76.5007 92.4998C72.2183 92.4884 69.6805 91.6597 66.5007 87.9998C62.7868 83.7251 65.0007 73.9998 65.0007 73.9998C65.0007 73.9998 65.7582 75.3785 68.0007 76.4998C72.0007 78.4998 80.4845 76.1573 80.4845 76.1573L78.8655 73.2494C78.8655 73.2494 68.921 76.1966 67.5818 71.4998C65.796 65.2364 79.5099 56.3998 85.5316 57.0959C102.001 58.9998 113.35 74.8682 117.026 84.5021C121.794 96.9986 119.5 120 119.5 120C119.5 120 124.516 96.685 119.998 83.9206C116.374 73.6821 112.5 68.4995 105 60.4995C95.9645 50.8613 80.9282 45.9002 76.5007 33.4995C73.4996 25.0941 84 3.99953 84 3.99953Z" fill="#65D157"/>
<path d="M97.1221 83.6957C97.1221 83.6957 99.9318 84.5477 100.601 85.9983C101.306 87.5254 99.9421 90.3704 99.9421 90.3704C99.9421 90.3704 102.474 91.3041 102.913 92.6898C103.278 93.8447 102.35 95.8249 102.35 95.8249C102.35 95.8249 100.004 94.482 98.2814 94.292C94.9389 93.9233 93.3068 98.1334 90.0373 97.4629C87.0608 96.8526 85.5388 95.0682 84.6222 92.3236C83.7952 89.8472 83.8454 87.8503 85.3651 85.5318C87.3557 82.4949 91.8994 84.748 94.1349 81.8602C95.061 80.6639 95.7789 78.4226 95.7789 78.4226C95.7789 78.4226 96.9033 79.4417 97.239 80.3082C97.7091 81.5212 97.1221 83.6957 97.1221 83.6957Z" fill="#63BCE5" stroke="#FBF8EF"/>
<path d="M100.593 109.959C100.593 109.959 102.379 112.934 101.807 114.72C101.204 116.6 97.7296 117.968 97.7296 117.968C97.7296 117.968 99.2073 120.793 98.4833 122.339C97.88 123.626 95.4803 124.596 95.4803 124.596C95.4803 124.596 94.4946 121.567 93.1331 120.029C90.4917 117.046 85.6895 119.379 83.3537 116.194C81.2273 113.294 81.3179 110.54 82.7087 107.441C83.9636 104.644 85.6054 102.96 88.7955 102.171C92.9741 101.136 95.1628 106.704 99.4373 105.993C101.208 105.699 103.632 104.337 103.632 104.337C103.632 104.337 103.804 106.113 103.406 107.128C102.848 108.55 100.593 109.959 100.593 109.959Z" fill="#63BCE5" stroke="#FBF8EF"/>
<path d="M51.451 116.393C51.451 116.393 48.5327 116.937 47.3654 115.938C46.1366 114.887 46.3216 111.674 46.3216 111.674C46.3216 111.674 43.6286 112.015 42.6999 110.966C41.926 110.092 42.0348 107.866 42.0348 107.866C42.0348 107.866 44.7094 107.983 46.3733 107.348C49.6013 106.117 49.5175 101.543 52.7921 100.619C55.7731 99.7779 57.8542 100.68 59.7388 102.734C61.4393 104.587 62.1479 106.418 61.6204 109.227C60.9293 112.907 55.8789 112.995 54.9052 116.655C54.5018 118.171 54.6859 120.535 54.6859 120.535C54.6859 120.535 53.2616 120.139 52.6238 119.513C51.7308 118.635 51.451 116.393 51.451 116.393Z" fill="#63BCE5" stroke="#FBF8EF"/>
<path d="M76.1024 119.627C76.1024 119.627 74.6774 122.006 73.1444 122.369C71.5307 122.75 69.1057 121.059 69.1057 121.059C69.1057 121.059 67.6628 123.176 66.2422 123.341C65.0583 123.479 63.3658 122.321 63.3658 122.321C63.3658 122.321 65.1594 120.439 65.7153 118.925C66.7938 115.987 63.1212 113.831 64.4724 111.009C65.7025 108.44 67.7398 107.368 70.564 106.998C73.1122 106.663 75.0113 107.036 76.899 108.78C79.3716 111.065 76.2298 114.77 78.5066 117.249C79.4498 118.276 81.4377 119.289 81.4377 119.289C81.4377 119.289 80.2188 120.13 79.3171 120.288C78.0548 120.511 76.1024 119.627 76.1024 119.627Z" fill="#63BCE5" stroke="#FBF8EF"/>
<path d="M90.6382 65.8272C90.6382 65.8272 93.2604 66.7445 93.9251 68.175C94.6249 69.6809 93.4556 72.401 93.4556 72.401C93.4556 72.401 95.8242 73.3887 96.2729 74.7488C96.6469 75.8823 95.8529 77.7763 95.8529 77.7763C95.8529 77.7763 93.6442 76.3971 92.0469 76.1575C88.9481 75.6928 87.575 79.7304 84.534 78.9749C81.7655 78.287 80.3029 76.5051 79.3689 73.8098C78.5261 71.3779 78.5088 69.4397 79.8384 67.2359C81.58 64.3493 85.8483 66.683 87.8209 63.949C88.638 62.8165 89.2295 60.6621 89.2295 60.6621C89.2295 60.6621 90.3005 61.6879 90.6382 62.5403C91.1111 63.7337 90.6382 65.8272 90.6382 65.8272Z" fill="#63BCE5" stroke="#FBF8EF"/>
<path d="M112.567 31.633C113.561 30.0173 114.931 24.8123 116.714 25.2145C118.467 25.6098 116.877 29.0213 117.752 30.6418C118.43 31.8986 118.824 34.1357 119.39 35.4529C120.741 38.5991 118.357 40.78 117.942 44.2273C117.449 48.3181 118.678 50.8976 117.224 54.7487C115.589 59.0795 110.54 66.1758 112.438 68.7293C114.336 71.2827 103.804 61.8057 104.005 54.8778C104.211 47.8252 107.709 44.5142 110.474 38.008C111.498 35.5994 111.2 33.8537 112.567 31.633Z" fill="#65D157"/>
<path d="M109.299 61.5038C109.299 61.5038 108.227 56.7194 108.674 53.6177C109.043 51.0602 110.768 48.3137 111.478 45.8291C112.553 42.0637 114.005 38.8592 114.617 36.3059C115.077 34.384 115.107 31.2691 115.107 31.2691C115.107 31.2691 115.379 34.4383 115.067 36.4293C114.659 39.0369 113.242 43.8192 112.366 46.1124C111.458 48.4922 110.082 51.3115 109.586 53.8103C108.987 56.8351 109.299 61.5038 109.299 61.5038Z" fill="#FBF8EF"/>
<path d="M46.2857 40.3979C45.157 38.8728 40.8374 35.6619 41.8749 34.1574C42.8947 32.6786 45.4682 35.4252 47.298 35.217C48.7172 35.0555 50.9397 35.5243 52.3729 35.4899C55.7962 35.4078 56.9317 38.4328 59.9759 40.1028C63.5884 42.0846 66.4399 41.9057 69.4719 44.6901C72.8815 47.8212 77.5856 55.1503 80.6623 54.3406C83.7391 53.5308 71.02 59.7731 64.6662 57.0044C58.198 54.1859 56.4292 49.7054 51.4219 44.7151C49.5682 42.8677 47.8371 42.4941 46.2857 40.3979Z" fill="#65D157"/>
<path d="M72.788 54.5613C72.788 54.5613 67.9486 53.7736 65.237 52.2025C63.0013 50.9071 61.0954 48.2829 59.0541 46.6987C55.9605 44.2979 53.528 41.756 51.3865 40.2369C49.7746 39.0935 46.895 37.9054 46.895 37.9054C46.895 37.9054 49.9372 38.8342 51.6686 39.8653C53.9364 41.2157 57.8463 44.3125 59.6482 45.9794C61.518 47.7094 63.6214 50.0371 65.7557 51.4277C68.3393 53.1111 72.788 54.5613 72.788 54.5613Z" fill="#FBF8EF"/>
<path d="M16.0001 18.9995C16.0001 18.9995 18.4151 24.0405 18.5 27.4995C18.6228 32.503 15.2921 34.6642 14 39.4995C12.8232 43.9035 11.9998 50.9997 11.9998 50.9997" stroke="#65D157" stroke-width="3"/>
<path d="M49.5003 27.9997C49.5003 27.9997 38.2976 28.9194 32.0001 31.9997C27.7179 34.0942 25.6645 35.9509 21.9997 38.9995C17.9661 42.3547 12.4997 48.4995 12.4997 48.4995" stroke="#65D157" stroke-width="3"/>
<path d="M39.3959 49.6273C39.3959 49.6273 22.5003 45.5002 20.0001 55.5002C17.4304 65.7786 25.0004 68.5001 25.0004 68.5001" stroke="#65D157" stroke-width="3"/>
<path d="M38.5704 7.39887C38.5704 7.39887 41.6803 6.82854 42.98 7.89285C44.3482 9.01321 44.2971 12.4252 44.2971 12.4252C44.2971 12.4252 47.1742 12.0706 48.2199 13.187C49.0915 14.1175 49.0768 16.4816 49.0768 16.4816C49.0768 16.4816 46.1983 16.3499 44.4401 17.0194C41.0292 18.3183 41.3291 23.1759 37.854 24.1484C34.6904 25.0337 32.4135 24.07 30.2947 21.883C28.3829 19.9098 27.5377 17.9639 27.9754 14.9815C28.5488 11.0751 33.9699 10.995 34.8479 7.11083C35.2116 5.50185 34.9053 2.99041 34.9053 2.99041C34.9053 2.99041 36.4534 3.41462 37.1674 4.08209C38.167 5.01654 38.5704 7.39887 38.5704 7.39887Z" fill="#63BCE5" stroke="#FBF8EF"/>
<path d="M7.50826 12.7459C7.50826 12.7459 7.71544 9.79513 8.99862 8.71122C10.3494 7.57023 13.4715 8.00886 13.4715 8.00886C13.4715 8.00886 13.8221 5.29877 15.0935 4.45652C16.1531 3.75458 18.3212 4.03926 18.3212 4.03926C18.3212 4.03926 17.5236 6.69482 17.7253 8.40287C18.1166 11.7165 22.6493 11.9951 22.7256 15.3308C22.7952 18.3676 21.3747 20.3696 18.8677 22.0847C16.6058 23.6322 14.6196 24.1934 11.983 23.4453C8.52942 22.4655 9.73013 17.4265 6.36863 16.1666C4.97615 15.6447 2.5972 15.641 2.5972 15.641C2.5972 15.641 3.35078 14.2533 4.13174 13.6674C5.22508 12.8471 7.50826 12.7459 7.50826 12.7459Z" fill="#63BCE5" stroke="#FBF8EF"/>
<path d="M59.6406 21.9333C59.6406 21.9333 62.2246 23.373 62.6616 24.9949C63.1216 26.7021 61.3996 29.3431 61.3996 29.3431C61.3996 29.3431 63.7048 30.8106 63.928 32.3192C64.114 33.5765 62.9362 35.419 62.9362 35.419C62.9362 35.419 60.8701 33.5699 59.2378 33.0278C56.0713 31.976 53.8957 35.9622 50.8427 34.6159C48.0634 33.3902 46.8533 31.2545 46.364 28.2566C45.9226 25.5517 46.2573 23.5151 48.0534 21.4451C50.4061 18.7336 54.4594 21.9591 57.0267 19.4498C58.0901 18.4104 59.103 16.2578 59.103 16.2578C59.103 16.2578 60.0398 17.529 60.239 18.4848C60.5178 19.8229 59.6406 21.9333 59.6406 21.9333Z" fill="#63BCE5" stroke="#FBF8EF"/>
<path d="M51.7585 47.7032C51.7585 47.7032 53.8026 49.8413 53.7415 51.5199C53.6772 53.2869 51.2526 55.3021 51.2526 55.3021C51.2526 55.3021 53.0221 57.3845 52.7901 58.8918C52.5968 60.148 50.9277 61.5609 50.9277 61.5609C50.9277 61.5609 49.4993 59.1844 48.0997 58.1848C45.3845 56.2454 42.1295 59.412 39.6098 57.2247C37.316 55.2335 36.79 52.8357 37.2072 49.827C37.5836 47.1123 38.5044 45.2651 40.8315 43.8173C43.8795 41.921 46.8005 46.1989 49.9939 44.559C51.3167 43.8797 52.9197 42.1218 52.9197 42.1218C52.9197 42.1218 53.4396 43.6129 53.3479 44.5849C53.2194 45.9457 51.7585 47.7032 51.7585 47.7032Z" fill="#63BCE5" stroke="#FBF8EF"/>
<path d="M60.8936 7.26545C60.0268 6.73543 59.2263 5.69411 58.5032 6.30845C57.7925 6.91225 58.9651 7.82284 58.9685 8.79935C58.9712 9.55669 58.6307 9.9391 58.7007 10.6983C58.868 12.5118 60.5196 12.9798 61.5798 14.5162C62.8379 16.3394 62.6591 18.2245 64.5616 19.3359C70.6753 22.9077 72.2809 30.0858 72.2809 30.0858C72.2809 30.0858 73.176 21.8207 72.0036 16.5798C71.1813 12.9035 66.3836 12.2211 63.4666 9.79206C62.3867 8.89283 62.0851 7.99396 60.8936 7.26545Z" fill="#65D157"/>
<path d="M70.6193 23.8682C70.6193 23.8682 69.7931 20.6001 68.7807 18.6768C67.7321 16.685 66.4542 15.3254 65.3593 13.9992C64.2644 12.6731 63.6236 12.1705 62.3158 10.9967C61.4634 10.2317 60.2682 8.18331 60.2682 8.18331C60.2682 8.18331 61.2479 10.2817 61.9758 11.2795C63.043 12.7423 63.6662 13.2674 64.6964 14.5836C66.0764 16.3466 68.0787 19.2126 68.0787 19.2126L70.6193 23.8682Z" fill="#FBF8EF"/>
<path d="M88.9998 12C88.9998 12 83.3274 14.5793 81.5005 15.5C77.6922 17.4192 75.5001 22 75.5001 22" stroke="#65D157" stroke-width="3"/>
<path d="M105.5 19.0002C105.5 19.0002 91.5825 17.4252 85.9999 22.5004C75.0005 32.5001 79.0005 41 79.0005 41" stroke="#65D157" stroke-width="3"/>
<path d="M91.9996 35.0006C91.9996 35.0006 86.0474 34.0005 84.0004 38.5004C81.4987 44.0001 86.9998 48.5004 86.9998 48.5004" stroke="#65D157" stroke-width="3"/>
<path d="M8.11026 94.07C6.18391 95.1035 3.39802 95.3788 3.71867 97.5413C4.03381 99.6666 6.9929 98.5068 8.77844 99.7019C10.1632 100.629 10.4841 101.762 11.9468 102.56C15.4406 104.467 18.1244 101.872 22.0989 101.66C26.9513 101.4 31.2762 103.686 34.6877 100.226C36.7383 98.1459 42.0547 98.7914 44.9356 97.309C53.7792 92.7584 54.9509 85.4983 54.6996 85.5367C54.4482 85.5751 50.9645 94.1998 36.3207 85.2017C31.5166 82.2497 23.2278 89.4919 15.5677 92.1756C12.7319 93.1691 10.758 92.6494 8.11026 94.07Z" fill="#65D157"/>
<path d="M50.5006 91.8804C50.5006 91.8804 48.3061 92.9716 44.6333 93.4721C41.7048 93.8711 36.4601 93.2022 33.5998 93.9512C28.8657 95.1909 25.7173 97.0408 22.5838 97.3671C16.1386 98.0384 8.89637 97.2426 8.89637 97.2426C8.89637 97.2426 16.5021 99.1597 22.7083 98.1965C25.8337 97.7114 29.0861 96.7906 33.624 95.5144C36.5685 94.6863 41.7935 95.0556 44.7752 94.3834C48.3845 93.5696 50.5006 91.8804 50.5006 91.8804Z" fill="#FBF8EF"/>
<path d="M7.55598 81.4044C6.77375 82.4575 5.35499 83.414 6.0356 84.3232C6.70452 85.2168 8.00698 83.7978 9.23966 83.8219C10.1957 83.8406 10.6337 84.2714 11.6009 84.2072C13.9111 84.0537 14.7178 82.0314 16.7952 80.7691C19.2604 79.2711 21.1833 79.2147 23.2672 77.2334L23.2886 77.2131C25.6423 74.9753 30.8453 70.0285 32.9057 70.3649C34.9723 70.7022 24.7306 67.4223 20.1856 69.5696C15.7576 71.6617 14.5276 74.7809 11.0809 78.3061C9.80487 79.6112 8.63115 79.9569 7.55598 81.4044Z" fill="#65D157"/>
<path d="M27.1598 70.7511C27.1598 70.7511 22.9642 71.8839 20.5146 73.1548C18.4713 74.2149 17.3884 75.0072 15.5729 76.4513C13.754 77.898 13.0129 79.0279 11.2418 80.5327C10.0874 81.5136 8.20339 82.944 8.20339 82.944C8.20339 82.944 10.2382 81.7415 11.4764 80.8726C13.3888 79.5306 14.4472 78.4871 16.1072 77.0853C17.83 75.6305 18.968 75.0262 20.911 73.882C23.263 72.497 27.1598 70.7511 27.1598 70.7511Z" fill="#FBF8EF"/>
<path d="M104.057 33.8579C104.057 33.8579 105.892 35.8034 105.729 37.2092C105.558 38.6891 103.099 40.2051 103.099 40.2051C103.099 40.2051 104.673 42.0838 104.357 43.3332C104.093 44.3745 102.399 45.4396 102.399 45.4396C102.399 45.4396 101.171 43.3388 99.8859 42.3968C97.3927 40.5692 94.0636 42.992 91.7738 40.9704C89.6893 39.1301 89.3316 37.0772 89.9195 34.5799C90.45 32.3267 91.4506 30.842 93.7801 29.7955C96.8313 28.4248 99.3778 32.2321 102.553 31.0875C103.868 30.6133 105.52 29.2535 105.52 29.2535C105.52 29.2535 105.928 30.5442 105.78 31.3541C105.572 32.488 104.057 33.8579 104.057 33.8579Z" fill="#63BCE5" stroke="#FBF8EF"/>
<path d="M96.0739 6.5763C96.0739 6.5763 98.0965 7.50014 98.5212 8.68921C98.9683 9.94091 97.8363 12.0231 97.8363 12.0231C97.8363 12.0231 99.6516 12.9844 99.9093 14.1015C100.124 15.0324 99.352 16.4836 99.352 16.4836C99.352 16.4836 97.6929 15.222 96.4374 14.9136C94.0016 14.3154 92.6104 17.4327 90.2421 16.6069C88.0861 15.8552 87.0513 14.3274 86.5049 12.1104C86.0119 10.1101 86.1406 8.56402 87.3624 6.90523C88.9627 4.73249 92.1932 6.90628 93.9664 4.87216C94.701 4.02954 95.3308 2.35587 95.3308 2.35587C95.3308 2.35587 96.109 3.25223 96.3155 3.95646C96.6047 4.94238 96.0739 6.5763 96.0739 6.5763Z" fill="#63BCE5" stroke="#FBF8EF"/>
<path d="M113.905 12.2797C113.905 12.2797 116.461 13.259 117.074 14.6869C117.719 16.1901 116.489 18.8346 116.489 18.8346C116.489 18.8346 118.792 19.8759 119.195 21.2282C119.53 22.3552 118.693 24.197 118.693 24.197C118.693 24.197 116.558 22.7749 114.993 22.4926C111.955 21.9451 110.485 25.881 107.513 25.0488C104.807 24.2912 103.418 22.4941 102.577 19.813C101.818 17.3938 101.857 15.4848 103.23 13.3534C105.029 10.5616 109.164 12.9834 111.186 10.3485C112.023 9.25706 112.668 7.15285 112.668 7.15285C112.668 7.15285 113.693 8.19405 114.001 9.04319C114.432 10.232 113.905 12.2797 113.905 12.2797Z" fill="#63BCE5" stroke="#FBF8EF"/>
<circle cx="1" cy="1" r="1" transform="matrix(0 1 1 0 105 15)" fill="#FBF8EF"/>
<circle cx="1" cy="1" r="1" transform="matrix(0 1 1 0 105 19)" fill="#FBF8EF"/>
<circle cx="1" cy="1" r="1" transform="matrix(0 1 1 0 108 16)" fill="#FBF8EF"/>
<circle cx="1" cy="1" r="1" transform="matrix(0 1 1 0 109 19)" fill="#FBF8EF"/>
<circle cx="1" cy="1" r="1" transform="matrix(0 1 1 0 94 33)" fill="#FBF8EF"/>
<circle cx="1" cy="1" r="1" transform="matrix(0 1 1 0 95 37)" fill="#FBF8EF"/>
<circle cx="1" cy="1" r="1" transform="matrix(0 1 1 0 97 34)" fill="#FBF8EF"/>
<circle cx="1" cy="1" r="1" transform="matrix(0.213392 0.976967 0.976967 -0.213392 88.4043 8.87988)" fill="#FBF8EF"/>
<circle cx="1" cy="1" r="1" transform="matrix(0.213392 0.976967 0.976967 -0.213392 90.2349 12.5742)" fill="#FBF8EF"/>
<circle cx="1" cy="1" r="1" transform="matrix(0.213392 0.976967 0.976967 -0.213392 91.5488 9.2168)" fill="#FBF8EF"/>
<circle cx="1" cy="1" r="1" transform="matrix(0 1 1 0 83 69)" fill="#FBF8EF"/>
<circle cx="1" cy="1" r="1" transform="matrix(0 1 1 0 83 73)" fill="#FBF8EF"/>
<circle cx="1" cy="1" r="1" transform="matrix(0 1 1 0 86 73)" fill="#FBF8EF"/>
<circle cx="1" cy="1" r="1" transform="matrix(0 1 1 0 88 87)" fill="#FBF8EF"/>
<circle cx="1" cy="1" r="1" transform="matrix(0 1 1 0 88 91)" fill="#FBF8EF"/>
<circle cx="1" cy="1" r="1" transform="matrix(0 1 1 0 92 91)" fill="#FBF8EF"/>
<circle cx="1" cy="1" r="1" transform="matrix(0 1 1 0 91 87)" fill="#FBF8EF"/>
<circle cx="1" cy="1" r="1" transform="matrix(0 1 1 0 86 108)" fill="#FBF8EF"/>
<circle cx="1" cy="1" r="1" transform="matrix(0 1 1 0 86 113)" fill="#FBF8EF"/>
<circle cx="1" cy="1" r="1" transform="matrix(0 1 1 0 89 112)" fill="#FBF8EF"/>
<circle cx="1" cy="1" r="1" transform="matrix(0 1 1 0 91 108)" fill="#FBF8EF"/>
<circle cx="1" cy="1" r="1" transform="matrix(0 1 1 0 68 111)" fill="#FBF8EF"/>
<circle cx="1" cy="1" r="1" transform="matrix(0 1 1 0 72 111)" fill="#FBF8EF"/>
<circle cx="1" cy="1" r="1" transform="matrix(0 1 1 0 70 114)" fill="#FBF8EF"/>
<circle cx="1" cy="1" r="1" transform="matrix(0 1 1 0 53 106)" fill="#FBF8EF"/>
<circle cx="1" cy="1" r="1" transform="matrix(0 1 1 0 56 106)" fill="#FBF8EF"/>
<circle cx="1" cy="1" r="1" transform="matrix(0 1 1 0 54 103)" fill="#FBF8EF"/>
<circle cx="1" cy="1" r="1" transform="matrix(0 1 1 0 41 48)" fill="#FBF8EF"/>
<circle cx="1" cy="1" r="1" transform="matrix(0 1 1 0 41 51)" fill="#FBF8EF"/>
<circle cx="1" cy="1" r="1" transform="matrix(0 1 1 0 45 51)" fill="#FBF8EF"/>
<circle cx="1" cy="1" r="1" transform="matrix(0 1 1 0 50 25)" fill="#FBF8EF"/>
<circle cx="1" cy="1" r="1" transform="matrix(0 1 1 0 52 29)" fill="#FBF8EF"/>
<circle cx="1" cy="1" r="1" transform="matrix(0 1 1 0 53 26)" fill="#FBF8EF"/>
<circle cx="1" cy="1" r="1" transform="matrix(0 1 1 0 32 15)" fill="#FBF8EF"/>
<circle cx="1" cy="1" r="1" transform="matrix(0 1 1 0 32 18)" fill="#FBF8EF"/>
<circle cx="1" cy="1" r="1" transform="matrix(0 1 1 0 36 18)" fill="#FBF8EF"/>
<circle cx="1" cy="1" r="1" transform="matrix(0 1 1 0 12 16)" fill="#FBF8EF"/>
<circle cx="1" cy="1" r="1" transform="matrix(0 1 1 0 15 16)" fill="#FBF8EF"/>
<circle cx="1" cy="1" r="1" transform="matrix(0 1 1 0 15 13)" fill="#FBF8EF"/>
</g>
<defs>
<clipPath id="clip0_2804_474">
<rect width="128" height="128" fill="white" transform="matrix(0 1 1 0 0 0)"/>
</clipPath>
</defs>
</svg>
