<svg width="128" height="128" viewBox="0 0 128 128" fill="none" xmlns="http://www.w3.org/2000/svg">
<g clip-path="url(#clip0_2793_116)">
<rect width="128" height="128" fill="#FBF8EF"/>
<path d="M117.5 62.5001C117.5 62.5001 114.828 65.2588 113.5 66.0003C112.071 66.798 109.668 67.6942 109.668 67.6942L119.991 71.1694L119 74.0004C119 74.0004 109.797 70.2937 105.889 69.5497C96.3779 67.739 88.8123 67.6847 81.4997 74.0003C74.4326 80.1039 68.5498 95.0003 83.9997 107.5C90.678 112.904 103 115 103 115C103 115 102.298 109.21 102.5 105.5C102.736 101.141 111.5 92.0004 111.5 92.0004C111.5 92.0004 104.986 101.147 105 105.5C105.014 109.769 104.574 113.172 107.5 116.28C110 118.936 122.218 119.341 122.218 119.341L121.607 122.279L105.694 118.969L105.628 118.956L105.563 118.936L82.7238 111.984C82.7238 111.984 65.2313 112.818 54.5891 109.975C42.8319 106.835 26.8189 95.8375 26.8189 95.8375L28.1799 93.1633L34.9998 97.7728L39.9998 101C39.9998 101 38.6969 99.2068 37.9998 97.9732C37.0584 96.3073 35.9998 93.5003 35.9998 93.5003L37.9998 93.1633C37.9998 93.1633 38.9425 96.2352 39.9998 97.9732C41.226 99.9887 43.9998 102.5 43.9998 102.5C43.9998 102.5 43.8802 99.4491 43.9998 97.5C44.1043 95.7984 44.4998 93.1633 44.4998 93.1633L45.9998 94.5C45.9998 94.5 45.4998 96.9379 45.4998 98.5C45.4998 100.453 45.7774 101.928 46.9998 103.5C47.8643 104.612 49.9998 105.5 49.9998 105.5C49.9998 105.5 58.0383 108.129 63.9998 108.75C69.6466 109.338 79.5373 108.75 79.5373 108.75C79.5373 108.75 73.6368 102.33 70.2774 97.8786C65.9776 92.1813 65.403 88.5597 60.4002 82.5C52.5188 72.9534 46 73.9997 34.9998 62.5001C24.4655 51.4874 22 32.735 22 32.735L25.4998 31.2658C25.4998 31.2658 25.5105 42.2149 28.9997 48.0003C31.5382 52.2094 34.9998 57 34.9998 57C34.9998 57 34.5281 50.2997 35.5 45.5C36.5856 40.1385 40.5901 31.2658 40.5901 31.2658L42.4996 32.735C42.4996 32.735 38.8081 39.8387 38 45C37.0606 51 36.1013 54.5872 38.4997 59.5003C42.4996 67.6942 60.4002 77.1602 60.4002 77.1602C60.4002 77.1602 61.8607 68.7708 63.9997 63.8148C67.6755 55.2978 75.4996 48.0003 75.4996 48.0003C75.4996 48.0003 75.5822 41.8668 74.9996 38.0004C74.0519 31.711 70 22.5 70 22.5L71.5 21.5C71.5 21.5 76.1933 30.6423 77.4996 37.0004C78.1723 40.2743 78.4996 45.5004 78.4996 45.5004C78.4996 45.5004 84.0947 40.3768 87.9998 37.5C92.0993 34.48 99 30.5004 99 30.5004L99.9996 32.735C99.9996 32.735 87.6061 41.4406 80.4997 48.0003C74 54 70.8215 56.8308 67.5 64.5C65.2603 69.6714 63.4286 73.0997 63.9997 79.0003C64.6253 85.4643 71.4997 93.5003 71.4997 93.5003C71.4997 93.5003 70.6096 79.3108 80.4997 72.0003C88.8497 65.8283 95.9997 66.5736 105.481 66.5736C109.847 66.5736 116 60.9998 116 60.9998L117.5 62.5001Z" fill="#65D157"/>
<path d="M37 94.5002C32.7 95.6558 30.0001 85.5004 30.0001 85.5004C30.0001 85.5004 29.3412 82.7611 30.5001 82.5C31.4525 82.2854 32.5 84.0001 32.5 84.0001C32.5 84.0001 33.0336 82.138 34.0001 82C35.0936 81.8439 36 84.0001 36 84.0001C36 84.0001 36.3636 81.4294 37.5 81.5001C38.4745 81.5606 38.9999 83.5005 38.9999 83.5005C38.9999 83.5005 41.2165 93.3671 37 94.5002Z" fill="#63BCE5" stroke="#FBF8EF"/>
<path d="M41.0554 35.7485C34.4449 32.6862 41.714 17.1046 41.714 17.1046C41.714 17.1046 43.7619 12.9745 45.4906 13.863C46.9115 14.5932 46.4267 17.8451 46.4267 17.8451C46.4267 17.8451 49.0508 16.0676 50.409 16.9088C51.9455 17.8604 50.8202 21.5184 50.8202 21.5184C50.8202 21.5184 53.9747 18.673 55.327 19.9544C56.4867 21.0532 55.1103 24.0396 55.1103 24.0396C55.1103 24.0396 47.5376 38.7514 41.0554 35.7485Z" fill="#63BCE5" stroke="#FBF8EF"/>
<path d="M71.2434 23.9278C66.4138 27.0972 58.9647 15.6793 58.9647 15.6793C58.9647 15.6793 57.0409 12.5712 58.3629 11.7791C59.4494 11.128 61.4362 12.8158 61.4362 12.8158C61.4362 12.8158 61.3378 10.3047 62.4728 9.74226C63.7569 9.10599 65.749 11.3951 65.749 11.3951C65.749 11.3951 65.1536 8.07978 66.5826 7.70556C67.808 7.38465 69.2427 9.56173 69.2427 9.56173C69.2427 9.56173 75.9791 20.82 71.2434 23.9278Z" fill="#63BCE5" stroke="#FBF8EF"/>
<path d="M45.0666 94.4983C41.1557 93.9089 42.5715 84.683 42.5715 84.683C42.5715 84.683 43.0099 82.2191 44.046 82.4189C44.8975 82.5832 45.14 84.3514 45.14 84.3514C45.14 84.3514 46.2368 83.0258 47.0725 83.2573C48.018 83.5193 47.9886 85.5967 47.9886 85.5967C47.9886 85.5967 49.1992 83.6339 50.0989 84.0957C50.8705 84.4917 50.6079 86.2574 50.6079 86.2574C50.6079 86.2574 48.9014 95.0763 45.0666 94.4983Z" fill="#63BCE5" stroke="#FBF8EF"/>
<path d="M107.304 34.1076L95.8545 20.0793L93.7825 11.2666C93.7825 11.2666 93.8284 5.06314 96.563 3.08718C99.8021 0.746625 104.702 1.70245 106.71 4.41256C108.827 7.26982 106.656 13.5181 106.656 13.5181C106.656 13.5181 112.917 12.1312 115.451 14.4806C118.411 17.2252 115.997 24.8024 115.997 24.8024C115.997 24.8024 123.395 25.659 125.683 29.1086C127.536 31.902 126.588 35.6064 124.345 38.0975C122.298 40.37 117.064 39.5908 117.064 39.5908L107.304 34.1076Z" fill="#63BCE5" stroke="#FBF8EF"/>
<path d="M104.827 34.8974C104.827 34.8974 92.549 45.9603 87.3119 40.9631C81.7809 35.6855 95.1295 23.0156 95.1295 23.0156C95.1295 23.0156 91.5316 11.3471 94.9594 8.36233C97.5381 6.1169 100.839 7.32042 102.539 9.61586C104.332 12.0359 102.61 18.69 102.61 18.69C102.61 18.69 107.913 17.5154 110.059 19.5053C112.566 21.8299 110.522 28.2478 110.522 28.2478C110.522 28.2478 117.949 28.9031 119.887 31.8249C121.457 34.1909 121.881 36.9525 118.941 38.8372C114.898 41.43 104.827 34.8974 104.827 34.8974Z" fill="#63BCE5" stroke="#FBF8EF"/>
<path d="M22.2625 85.1423L16.0902 92.6715L11.6669 94.7028C11.6669 94.7028 8.39281 95.3399 7.06001 94.1094C5.4813 92.6519 5.46271 89.9678 6.6769 88.6208C7.957 87.2007 11.4812 87.6788 11.4812 87.6788C11.4812 87.6788 10.0829 84.5267 11.0509 82.941C12.1817 81.0886 16.4322 81.5532 16.4322 81.5532C16.4322 81.5532 16.0951 77.5633 17.6691 75.9896C18.9436 74.7153 20.9969 74.8203 22.5488 75.7369C23.9645 76.573 24.1118 79.4147 24.1118 79.4147L22.2625 85.1423Z" fill="#63BCE5" stroke="#FBF8EF"/>
<path d="M22.9429 86.3631C22.9429 86.3631 30.0816 91.6545 28.0064 94.947C25.8147 98.4244 17.715 92.7403 17.715 92.7403C17.715 92.7403 11.9493 95.8801 10.011 94.3918C8.55278 93.2722 9.54053 91.1982 10.5689 90.0573C11.6532 88.8544 14.6381 89.2594 14.6381 89.2594C14.6381 89.2594 13.4538 86.5896 14.2737 85.2465C15.2315 83.6776 18.8316 84.0711 18.8316 84.0711C18.8316 84.0711 18.546 80.6917 19.8792 79.3588C20.9587 78.2795 22.2081 77.157 23.5146 78.5052C25.3121 80.3599 22.9429 86.3631 22.9429 86.3631Z" fill="#63BCE5" stroke="#FBF8EF"/>
<path d="M27.7122 19.7688L14.3688 21.0965L8.08153 18.7698C8.08153 18.7698 4.27129 16.2034 4.17049 13.707C4.05108 10.7501 6.64582 8.1167 9.14009 7.9862C11.7698 7.84862 14.7382 11.7451 14.7382 11.7451C14.7382 11.7451 16.4441 7.31266 18.931 6.70993C21.836 6.00584 25.5252 10.5962 25.5252 10.5962C25.5252 10.5962 29.0807 6.38047 32.1462 6.37931C34.6286 6.37837 36.527 8.47941 37.1468 10.8832C37.7123 13.0761 35.0896 15.9883 35.0896 15.9883L27.7122 19.7688Z" fill="#63BCE5" stroke="#FBF8EF"/>
<path d="M27.1867 21.6204C27.1867 21.6204 28.9916 33.7253 23.7644 34.9133C18.2439 36.168 15.8851 22.745 15.8851 22.745C15.8851 22.745 7.21077 20.1917 6.77088 16.8547C6.43997 14.3443 9.42142 13.285 11.534 13.1744C13.7614 13.0579 16.2755 16.3582 16.2755 16.3582C16.2755 16.3582 17.7205 12.6039 19.8268 12.0934C22.2873 11.4971 25.4121 15.385 25.4121 15.385C25.4121 15.385 28.4235 11.8144 31.0199 11.8134C33.1225 11.8126 35.4325 11.9351 35.3931 14.5206C35.339 18.0775 27.1867 21.6204 27.1867 21.6204Z" fill="#63BCE5" stroke="#FBF8EF"/>
<path d="M95.5503 102.225C91.9243 101.376 91.1773 89.9831 91.1773 89.9831C91.1773 89.9831 98.2418 93.7462 99.635 96.887C101.372 100.802 102.793 108.068 102.793 108.068L102.534 108.999C102.534 108.999 102.882 103.942 95.5503 102.225Z" fill="#65D157"/>
<path d="M121.392 80.9379C121.392 80.9379 118.881 90.9621 115.774 91.675C111.105 92.7464 109.231 94.9132 108.684 95.7034C108.566 95.8953 108.5 96.0004 108.5 96.0004C108.5 96.0004 108.555 95.8905 108.684 95.7034C109.532 94.3306 113.068 88.5203 114.373 85.0627C115.411 82.3111 121.392 80.9379 121.392 80.9379Z" fill="#65D157"/>
<path d="M111.219 106.886C114.223 106.261 115.894 95.274 115.894 95.274C115.894 95.274 109.177 99.8446 107.964 102.403C106.452 105.593 105.131 111.549 105.131 111.549L105.325 112.322C105.325 112.322 105.142 108.148 111.219 106.886Z" fill="#65D157"/>
<path d="M85.0697 80.1809C87.5261 82.0206 96.8694 76.0031 96.8694 76.0031C96.8694 76.0031 88.9979 73.991 86.277 74.7746C82.8854 75.7515 77.5 78.5 77.5 78.5L77.0941 79.359C77.0941 79.359 80.1025 76.4607 85.0697 80.1809Z" fill="#65D157"/>
<path d="M50.7877 62.697C52.7984 60.3786 47.4649 50.6287 47.4649 50.6287C47.4649 50.6287 44.8947 58.336 45.4816 61.106C46.2133 64.5588 48.5694 70.1271 48.5694 70.1271L49.3971 70.5934C49.3971 70.5934 46.7215 67.3853 50.7877 62.697Z" fill="#65D157"/>
<path d="M81.7696 30.1205C84.4696 28.9834 84.0156 18.3841 84.0156 18.3841C84.0156 18.3841 78.5631 23.8998 77.8971 26.5195C77.0669 29.785 76.7354 35.5473 76.7354 35.5473L77.2475 36.2958C77.2475 36.2958 76.3097 32.4198 81.7696 30.1205Z" fill="#65D157"/>
<path d="M18.4254 48.3643C15.631 49.7964 7.24463 42.1171 7.24463 42.1171C7.24463 42.1171 15.5304 41.4443 18.1395 42.7036C21.3919 44.2733 26.3498 47.9735 26.3498 47.9735L26.6111 48.9098C26.6111 48.9098 24.0764 45.4682 18.4254 48.3643Z" fill="#65D157"/>
<path d="M54.5 120.5C47.877 126.444 26.9998 121.5 26.9998 121.5C26.9998 121.5 45.3132 113.192 50.4795 112.158C56.9194 110.868 68.2694 111.17 68.2694 111.17L69.576 111.87C69.576 111.87 63.0943 112.787 54.5 120.5Z" fill="#65D157"/>
<path d="M84.7374 120.235C82.0759 123.838 69.9851 123.468 69.9851 123.468C69.9851 123.468 76.4382 116.324 80.5094 115.615C85.5841 114.732 94.4769 115.195 94.4769 115.195L95.4875 115.77C95.4875 115.77 89.3784 113.954 84.7374 120.235Z" fill="#65D157"/>
<path d="M64.1696 101.916C63.3231 98.2326 51.7631 97.4265 51.7631 97.4265C51.7631 97.4265 55.5527 104.612 58.7344 106.039C62.7006 107.819 70.0693 109.292 70.0693 109.292L71.0154 109.033C71.0154 109.033 65.8814 109.365 64.1696 101.916Z" fill="#65D157"/>
<path d="M89.9584 58.9761C89.27 52.9632 102.809 46.7521 102.809 46.7521C102.809 46.7521 102.329 54.2211 98.7639 58.8381C95.8988 62.5487 87.7368 68.3307 87.7368 68.3307L86.7533 68.5035C86.7533 68.5035 90.8435 66.706 89.9584 58.9761Z" fill="#65D157"/>
<path d="M59.4182 55.6861C54.7943 51.7812 60.3913 37.977 60.3913 37.977C60.3913 37.977 65.1629 43.7431 65.7334 49.5483C66.192 54.2138 64.2149 64.019 64.2149 64.019L63.6175 64.8192C63.6175 64.8192 65.3625 60.7062 59.4182 55.6861Z" fill="#65D157"/>
<path d="M26.8903 67.9797C19.7563 71.9728 4.95697 58.3397 4.95697 58.3397C4.95697 58.3397 14.5147 55.0435 22.1271 57.0786C28.245 58.7142 39.7061 65.8705 39.7061 65.8705L40.4343 67.006C40.4343 67.006 36.0616 62.8462 26.8903 67.9797Z" fill="#65D157"/>
<path d="M21.3152 109.284C21.3152 109.284 26.3911 106.601 29.8153 105.284C36.3154 102.784 46.8156 105.784 46.8156 105.784" stroke="#65D157" stroke-width="2"/>
<path d="M24.1926 107.579C27.9797 112.877 15.4522 121.781 15.4522 121.781C15.4522 121.781 12.0374 124.088 11.0857 122.634C10.3035 121.439 12.1155 119.125 12.1155 119.125C12.1155 119.125 9.29122 119.349 8.6067 118.096C7.83229 116.678 10.3215 114.331 10.3215 114.331C10.3215 114.331 6.61356 115.15 6.12784 113.558C5.71132 112.192 8.09934 110.478 8.09934 110.478C8.09934 110.478 20.4791 102.384 24.1926 107.579Z" fill="#63BCE5" stroke="#FBF8EF"/>
</g>
<defs>
<clipPath id="clip0_2793_116">
<rect width="128" height="128" fill="white"/>
</clipPath>
</defs>
</svg>
