<svg width="128" height="128" viewBox="0 0 128 128" fill="none" xmlns="http://www.w3.org/2000/svg">
<g clip-path="url(#clip0_2807_44)">
<rect width="128" height="128" transform="matrix(-1 0 0 1 128 0)" fill="#FBF8EF"/>
<path d="M10.5003 62.5001C10.5003 62.5001 13.1725 65.2588 14.5003 66.0003C15.9287 66.798 18.3319 67.6942 18.3319 67.6942L8.00883 71.1694L9.0002 74.0004C9.0002 74.0004 18.2029 70.2937 22.1111 69.5497C31.6221 67.739 39.1877 67.6847 46.5003 74.0003C53.5674 80.1039 59.4502 95.0003 44.0003 107.5C37.322 112.904 25.0003 115 25.0003 115C25.0003 115 25.7017 109.21 25.5003 105.5C25.2637 101.141 16.5002 92.0004 16.5002 92.0004C16.5002 92.0004 23.0145 101.147 23.0003 105.5C22.9864 109.769 23.4257 113.172 20.5003 116.28C18.0003 118.936 5.78232 119.341 5.78232 119.341L6.39261 122.279L22.3058 118.969L22.3723 118.956L22.4369 118.936L45.2762 111.984C45.2762 111.984 62.7687 112.818 73.4109 109.975C85.1681 106.835 101.181 95.8375 101.181 95.8375L99.8201 93.1633L93.0002 97.7728L88.0002 101C88.0002 101 89.3031 99.2068 90.0002 97.9732C90.9416 96.3073 92.0002 93.5003 92.0002 93.5003L90.0002 93.1633C90.0002 93.1633 89.0575 96.2352 88.0002 97.9732C86.774 99.9887 84.0002 102.5 84.0002 102.5C84.0002 102.5 84.1198 99.4491 84.0002 97.5C83.8957 95.7984 83.5002 93.1633 83.5002 93.1633L82.0002 94.5C82.0002 94.5 82.5002 96.9379 82.5002 98.5C82.5002 100.453 82.2226 101.928 81.0002 103.5C80.1357 104.612 78.0002 105.5 78.0002 105.5C78.0002 105.5 69.9617 108.129 64.0002 108.75C58.3534 109.338 48.4627 108.75 48.4627 108.75C48.4627 108.75 54.3632 102.33 57.7226 97.8786C62.0224 92.1813 62.597 88.5597 67.5998 82.5C75.4812 72.9534 82 73.9997 93.0002 62.5001C103.534 51.4874 106 32.735 106 32.735L102.5 31.2658C102.5 31.2658 102.49 42.2149 99.0003 48.0003C96.4618 52.2094 93.0002 57 93.0002 57C93.0002 57 93.4719 50.2997 92.5 45.5C91.4144 40.1385 87.4099 31.2658 87.4099 31.2658L85.5004 32.735C85.5004 32.735 89.1919 39.8387 90 45C90.9394 51 91.8987 54.5872 89.5003 59.5003C85.5004 67.6942 67.5998 77.1602 67.5998 77.1602C67.5998 77.1602 66.1393 68.7708 64.0003 63.8148C60.3245 55.2978 52.5004 48.0003 52.5004 48.0003C52.5004 48.0003 52.4178 41.8668 53.0004 38.0004C53.9481 31.711 58 22.5 58 22.5L56.5 21.5C56.5 21.5 51.8067 30.6423 50.5004 37.0004C49.8277 40.2743 49.5004 45.5004 49.5004 45.5004C49.5004 45.5004 43.9053 40.3768 40.0002 37.5C35.9007 34.48 29 30.5004 29 30.5004L28.0004 32.735C28.0004 32.735 40.3939 41.4406 47.5003 48.0003C54 54 57.1785 56.8308 60.5 64.5C62.7397 69.6714 64.5714 73.0997 64.0003 79.0003C63.3747 85.4643 56.5003 93.5003 56.5003 93.5003C56.5003 93.5003 57.3904 79.3108 47.5003 72.0003C39.1503 65.8283 32.0003 66.5736 22.5186 66.5736C18.1529 66.5736 12.0001 60.9998 12.0001 60.9998L10.5003 62.5001Z" fill="#65D157"/>
<path d="M91 94.5002C95.3 95.6558 97.9999 85.5004 97.9999 85.5004C97.9999 85.5004 98.6588 82.7611 97.4999 82.5C96.5475 82.2854 95.5 84.0001 95.5 84.0001C95.5 84.0001 94.9664 82.138 93.9999 82C92.9064 81.8439 92 84.0001 92 84.0001C92 84.0001 91.6364 81.4294 90.5 81.5001C89.5255 81.5606 89.0001 83.5005 89.0001 83.5005C89.0001 83.5005 86.7835 93.3671 91 94.5002Z" fill="#F8A300" stroke="#FBF8EF"/>
<path d="M86.9446 35.7485C93.5551 32.6862 86.286 17.1046 86.286 17.1046C86.286 17.1046 84.2381 12.9745 82.5094 13.863C81.0885 14.5932 81.5733 17.8451 81.5733 17.8451C81.5733 17.8451 78.9492 16.0676 77.591 16.9088C76.0545 17.8604 77.1798 21.5184 77.1798 21.5184C77.1798 21.5184 74.0253 18.673 72.673 19.9544C71.5133 21.0532 72.8897 24.0396 72.8897 24.0396C72.8897 24.0396 80.4624 38.7514 86.9446 35.7485Z" fill="#F8A300" stroke="#FBF8EF"/>
<path d="M56.7566 23.9278C61.5862 27.0972 69.0353 15.6793 69.0353 15.6793C69.0353 15.6793 70.9591 12.5712 69.6371 11.7791C68.5506 11.128 66.5638 12.8158 66.5638 12.8158C66.5638 12.8158 66.6622 10.3047 65.5272 9.74226C64.2431 9.10599 62.251 11.3951 62.251 11.3951C62.251 11.3951 62.8464 8.07978 61.4174 7.70556C60.192 7.38465 58.7573 9.56173 58.7573 9.56173C58.7573 9.56173 52.0209 20.82 56.7566 23.9278Z" fill="#F8A300" stroke="#FBF8EF"/>
<path d="M82.9334 94.4983C86.8443 93.9089 85.4285 84.683 85.4285 84.683C85.4285 84.683 84.9901 82.2191 83.954 82.4189C83.1025 82.5832 82.86 84.3514 82.86 84.3514C82.86 84.3514 81.7632 83.0258 80.9275 83.2573C79.982 83.5193 80.0114 85.5967 80.0114 85.5967C80.0114 85.5967 78.8008 83.6339 77.9011 84.0957C77.1295 84.4917 77.3921 86.2574 77.3921 86.2574C77.3921 86.2574 79.0986 95.0763 82.9334 94.4983Z" fill="#F8A300" stroke="#FBF8EF"/>
<path d="M20.6957 34.1076L32.1455 20.0793L34.2175 11.2666C34.2175 11.2666 34.1716 5.06314 31.437 3.08718C28.1979 0.746625 23.298 1.70245 21.2901 4.41256C19.1732 7.26982 21.3444 13.5181 21.3444 13.5181C21.3444 13.5181 15.0825 12.1312 12.5487 14.4806C9.58876 17.2252 12.003 24.8024 12.003 24.8024C12.003 24.8024 4.60525 25.659 2.31679 29.1086C0.463643 31.902 1.41208 35.6064 3.65524 38.0975C5.70163 40.37 10.9362 39.5908 10.9362 39.5908L20.6957 34.1076Z" fill="#F8A300" stroke="#FBF8EF"/>
<path d="M23.1727 34.8974C23.1727 34.8974 35.451 45.9603 40.6881 40.9631C46.2191 35.6855 32.8705 23.0156 32.8705 23.0156C32.8705 23.0156 36.4684 11.3471 33.0406 8.36233C30.4619 6.1169 27.1613 7.32042 25.4607 9.61586C23.6677 12.0359 25.3904 18.69 25.3904 18.69C25.3904 18.69 20.0867 17.5154 17.9406 19.5053C15.4335 21.8299 17.4783 28.2478 17.4783 28.2478C17.4783 28.2478 10.0513 28.9031 8.113 31.8249C6.5434 34.1909 6.11911 36.9525 9.05861 38.8372C13.1024 41.43 23.1727 34.8974 23.1727 34.8974Z" fill="#F8A300" stroke="#FBF8EF"/>
<path d="M105.737 85.1423L111.91 92.6715L116.333 94.7028C116.333 94.7028 119.607 95.3399 120.94 94.1094C122.519 92.6519 122.537 89.9678 121.323 88.6208C120.043 87.2007 116.519 87.6788 116.519 87.6788C116.519 87.6788 117.917 84.5267 116.949 82.941C115.818 81.0886 111.568 81.5532 111.568 81.5532C111.568 81.5532 111.905 77.5633 110.331 75.9896C109.056 74.7153 107.003 74.8203 105.451 75.7369C104.035 76.573 103.888 79.4147 103.888 79.4147L105.737 85.1423Z" fill="#F8A300" stroke="#FBF8EF"/>
<path d="M105.057 86.3641C105.057 86.3641 97.9184 91.6554 99.9936 94.948C102.185 98.4254 110.285 92.7413 110.285 92.7413C110.285 92.7413 116.051 95.8811 117.989 94.3928C119.447 93.2732 118.459 91.1991 117.431 90.0582C116.347 88.8554 113.362 89.2604 113.362 89.2604C113.362 89.2604 114.546 86.5906 113.726 85.2475C112.769 83.6786 109.168 84.0721 109.168 84.0721C109.168 84.0721 109.454 80.6927 108.121 79.3598C107.041 78.2805 105.792 77.158 104.485 78.5062C102.688 80.3609 105.057 86.3641 105.057 86.3641Z" fill="#F8A300" stroke="#FBF8EF"/>
<path d="M100.288 19.7688L113.631 21.0965L119.918 18.7698C119.918 18.7698 123.729 16.2034 123.83 13.707C123.949 10.7501 121.354 8.1167 118.86 7.9862C116.23 7.84862 113.262 11.7451 113.262 11.7451C113.262 11.7451 111.556 7.31266 109.069 6.70993C106.164 6.00584 102.475 10.5962 102.475 10.5962C102.475 10.5962 98.9193 6.38047 95.8538 6.37931C93.3714 6.37837 91.473 8.47941 90.8532 10.8832C90.2877 13.0761 92.9104 15.9883 92.9104 15.9883L100.288 19.7688Z" fill="#F8A300" stroke="#FBF8EF"/>
<path d="M100.813 21.6204C100.813 21.6204 99.0084 33.7253 104.236 34.9133C109.756 36.168 112.115 22.745 112.115 22.745C112.115 22.745 120.789 20.1917 121.229 16.8547C121.56 14.3443 118.579 13.285 116.466 13.1744C114.239 13.0579 111.724 16.3582 111.724 16.3582C111.724 16.3582 110.28 12.6039 108.173 12.0934C105.713 11.4971 102.588 15.385 102.588 15.385C102.588 15.385 99.5765 11.8144 96.9801 11.8134C94.8775 11.8126 92.5675 11.9351 92.6069 14.5206C92.661 18.0775 100.813 21.6204 100.813 21.6204Z" fill="#F8A300" stroke="#FBF8EF"/>
<path d="M32.4497 102.225C36.0757 101.376 36.8227 89.9831 36.8227 89.9831C36.8227 89.9831 29.7582 93.7462 28.365 96.887C26.6283 100.802 25.2067 108.068 25.2067 108.068L25.4661 108.999C25.4661 108.999 25.1175 103.942 32.4497 102.225Z" fill="#65D157"/>
<path d="M6.60761 80.9379C6.60761 80.9379 9.11854 90.9621 12.2255 91.675C16.8947 92.7464 18.7691 94.9132 19.3157 95.7034C19.4341 95.8953 19.5 96.0004 19.5 96.0004C19.5 96.0004 19.445 95.8905 19.3157 95.7034C18.4682 94.3306 14.9323 88.5203 13.6273 85.0627C12.5887 82.3111 6.60761 80.9379 6.60761 80.9379Z" fill="#65D157"/>
<path d="M16.7815 106.886C13.7767 106.261 12.1064 95.274 12.1064 95.274C12.1064 95.274 18.8234 99.8446 20.0362 102.403C21.5479 105.593 22.8694 111.549 22.8694 111.549L22.6749 112.322C22.6749 112.322 22.8575 108.148 16.7815 106.886Z" fill="#65D157"/>
<path d="M42.9303 80.1809C40.4739 82.0206 31.1306 76.0031 31.1306 76.0031C31.1306 76.0031 39.0021 73.991 41.723 74.7746C45.1146 75.7515 50.5 78.5 50.5 78.5L50.9059 79.359C50.9059 79.359 47.8975 76.4607 42.9303 80.1809Z" fill="#65D157"/>
<path d="M77.2123 62.697C75.2016 60.3786 80.5351 50.6287 80.5351 50.6287C80.5351 50.6287 83.1053 58.336 82.5184 61.106C81.7867 64.5588 79.4306 70.1271 79.4306 70.1271L78.6029 70.5934C78.6029 70.5934 81.2785 67.3853 77.2123 62.697Z" fill="#65D157"/>
<path d="M46.2304 30.1205C43.5304 28.9834 43.9844 18.3841 43.9844 18.3841C43.9844 18.3841 49.4369 23.8998 50.1029 26.5195C50.9331 29.785 51.2646 35.5473 51.2646 35.5473L50.7525 36.2958C50.7525 36.2958 51.6903 32.4198 46.2304 30.1205Z" fill="#65D157"/>
<path d="M109.575 48.3643C112.369 49.7964 120.755 42.1171 120.755 42.1171C120.755 42.1171 112.47 41.4443 109.86 42.7036C106.608 44.2733 101.65 47.9735 101.65 47.9735L101.389 48.9098C101.389 48.9098 103.924 45.4682 109.575 48.3643Z" fill="#65D157"/>
<path d="M73.5 120.5C80.123 126.444 101 121.5 101 121.5C101 121.5 82.6868 113.192 77.5205 112.158C71.0806 110.868 59.7306 111.17 59.7306 111.17L58.424 111.87C58.424 111.87 64.9057 112.787 73.5 120.5Z" fill="#65D157"/>
<path d="M43.2626 120.235C45.9241 123.838 58.0149 123.468 58.0149 123.468C58.0149 123.468 51.5618 116.324 47.4906 115.615C42.4159 114.732 33.5231 115.195 33.5231 115.195L32.5125 115.77C32.5125 115.77 38.6216 113.954 43.2626 120.235Z" fill="#65D157"/>
<path d="M63.8304 101.916C64.6769 98.2326 76.2369 97.4265 76.2369 97.4265C76.2369 97.4265 72.4473 104.612 69.2656 106.039C65.2994 107.819 57.9307 109.292 57.9307 109.292L56.9846 109.033C56.9846 109.033 62.1186 109.365 63.8304 101.916Z" fill="#65D157"/>
<path d="M38.0416 58.9761C38.73 52.9632 25.191 46.7521 25.191 46.7521C25.191 46.7521 25.6711 54.2211 29.2361 58.8381C32.1012 62.5487 40.2632 68.3307 40.2632 68.3307L41.2467 68.5035C41.2467 68.5035 37.1565 66.706 38.0416 58.9761Z" fill="#65D157"/>
<path d="M68.5818 55.6861C73.2057 51.7812 67.6087 37.977 67.6087 37.977C67.6087 37.977 62.8371 43.7431 62.2666 49.5483C61.808 54.2138 63.7851 64.019 63.7851 64.019L64.3825 64.8192C64.3825 64.8192 62.6375 60.7062 68.5818 55.6861Z" fill="#65D157"/>
<path d="M101.11 67.9797C108.244 71.9728 123.043 58.3397 123.043 58.3397C123.043 58.3397 113.485 55.0435 105.873 57.0786C99.755 58.7142 88.2939 65.8705 88.2939 65.8705L87.5657 67.006C87.5657 67.006 91.9384 62.8462 101.11 67.9797Z" fill="#65D157"/>
<path d="M106.685 109.284C106.685 109.284 101.609 106.601 98.1847 105.284C91.6846 102.784 81.1844 105.784 81.1844 105.784" stroke="#65D157" stroke-width="2"/>
<path d="M103.807 107.579C100.02 112.877 112.548 121.781 112.548 121.781C112.548 121.781 115.963 124.088 116.914 122.634C117.696 121.439 115.884 119.125 115.884 119.125C115.884 119.125 118.709 119.349 119.393 118.096C120.168 116.678 117.679 114.331 117.679 114.331C117.679 114.331 121.386 115.15 121.872 113.558C122.289 112.192 119.901 110.478 119.901 110.478C119.901 110.478 107.521 102.384 103.807 107.579Z" fill="#F8A300" stroke="#FBF8EF"/>
</g>
<defs>
<clipPath id="clip0_2807_44">
<rect width="128" height="128" fill="white" transform="matrix(-1 0 0 1 128 0)"/>
</clipPath>
</defs>
</svg>
