<svg width="128" height="128" viewBox="0 0 128 128" fill="none" xmlns="http://www.w3.org/2000/svg">
<g clip-path="url(#clip0_2793_118)">
<rect width="128" height="128" fill="#FBF8EF"/>
<path d="M105.529 24.6109C105.529 24.6109 114.135 27.4208 118.709 25.0531C125.594 21.4888 123.913 5.89418 123.913 5.89418C123.913 5.89418 110.116 5.46508 106.387 11.6253C103.755 15.973 105.529 24.6109 105.529 24.6109Z" fill="#65D157" stroke="#FBF8EF"/>
<path d="M19.5114 27.6332C19.5114 27.6332 11.9628 30.0976 7.95137 28.021C1.91269 24.8949 3.38713 11.2178 3.38713 11.2178C3.38713 11.2178 15.4876 10.8414 18.7582 16.2442C21.0665 20.0574 19.5114 27.6332 19.5114 27.6332Z" fill="#65D157" stroke="#FBF8EF"/>
<path d="M105.19 6.76915C105.19 6.76915 97.4062 3.74765 93.0749 5.69743C86.5547 8.6326 87.3166 23.0781 87.3166 23.0781C87.3166 23.0781 100 24.1689 103.745 18.6841C106.388 14.813 105.19 6.76915 105.19 6.76915Z" fill="#65D157" stroke="#FBF8EF"/>
<path d="M19.6859 9.09987C19.6859 9.09987 27.8505 5.93075 32.3933 7.97578C39.232 11.0543 38.4329 26.2056 38.4329 26.2056C38.4329 26.2056 25.1296 27.3496 21.2021 21.5969C18.4301 17.5367 19.6859 9.09987 19.6859 9.09987Z" fill="#65D157" stroke="#FBF8EF"/>
<path d="M83.7067 83.5192C83.7067 83.5192 88.3263 76.5634 87.3501 71.9149C85.8805 64.9171 71.6073 62.5654 71.6073 62.5654C71.6073 62.5654 67.8236 74.7206 72.3784 79.5536C75.5931 82.9647 83.7067 83.5192 83.7067 83.5192Z" fill="#65D157" stroke="#FBF8EF"/>
<path d="M42.0763 84.9957C42.0763 84.9957 37.5268 78.1453 38.4882 73.5672C39.9355 66.6755 53.9923 64.3594 53.9923 64.3594C53.9923 64.3594 57.7187 76.3304 53.2329 81.0902C50.0669 84.4496 42.0763 84.9957 42.0763 84.9957Z" fill="#65D157" stroke="#FBF8EF"/>
<path d="M59.6239 56.5201C59.6239 56.5201 67.3282 58.1564 69.7393 61.9325C73.3691 67.6169 65.306 78.6241 65.306 78.6241C65.306 78.6241 54.7324 72.9333 54.6102 66.6703C54.524 62.25 59.6239 56.5201 59.6239 56.5201Z" fill="#65D157" stroke="#FBF8EF"/>
<path d="M69.5167 44.4456C69.5167 44.4456 65.4125 51.7175 66.7226 56.2831C68.6947 63.1562 83.1006 64.4689 83.1006 64.4689C83.1006 64.4689 85.9949 52.0718 81.1022 47.581C77.6491 44.4115 69.5167 44.4456 69.5167 44.4456Z" fill="#65D157" stroke="#FBF8EF"/>
<path d="M54.95 47.4058C54.95 47.4058 58.8529 54.3212 57.6071 58.663C55.7317 65.1991 42.032 66.4475 42.032 66.4475C42.032 66.4475 39.2797 54.6581 43.9324 50.3875C47.2163 47.3734 54.95 47.4058 54.95 47.4058Z" fill="#65D157" stroke="#FBF8EF"/>
<path d="M86.2501 28.6358C86.2501 28.6358 78.1331 23.4023 72.7723 24.6043C64.7023 26.4137 62.2064 42.9578 62.2064 42.9578C62.2064 42.9578 76.3235 47.143 81.8416 41.7994C85.7361 38.028 86.2501 28.6358 86.2501 28.6358Z" fill="#65D157" stroke="#FBF8EF"/>
<path d="M37.4994 31.2389C37.4994 31.2389 45.5962 25.7349 51.0584 26.8206C59.2813 28.4551 62.219 45.1594 62.219 45.1594C62.219 45.1594 48.0159 49.7492 42.292 44.4702C38.2521 40.7444 37.4994 31.2389 37.4994 31.2389Z" fill="#65D157" stroke="#FBF8EF"/>
<path d="M86.8025 7.52529C86.8025 7.52529 78.8992 4.83025 74.6528 6.95853C68.2604 10.1624 69.6226 24.5638 69.6226 24.5638C69.6226 24.5638 82.3406 25.1259 85.8538 19.4901C88.3333 15.5124 86.8025 7.52529 86.8025 7.52529Z" fill="#65D157" stroke="#FBF8EF"/>
<path d="M38.405 10.206C38.405 10.206 45.9208 7.6431 49.959 9.66704C56.038 12.7139 54.7426 26.4092 54.7426 26.4092C54.7426 26.4092 42.6481 26.9437 39.3071 21.5842C36.9492 17.8016 38.405 10.206 38.405 10.206Z" fill="#65D157" stroke="#FBF8EF"/>
<path d="M59.861 3.53116C59.861 3.53116 67.4064 6.0054 69.4145 10.0515C72.4374 16.1425 63.1636 26.3029 63.1636 26.3029C63.1636 26.3029 53.1809 19.4538 53.7364 13.1627C54.1286 8.72262 59.861 3.53116 59.861 3.53116Z" fill="#65D157" stroke="#FBF8EF"/>
<path d="M65.5432 123.703C65.5432 123.703 57.7303 122.284 55.1876 118.551C51.3599 112.93 59.1569 101.597 59.1569 101.597C59.1569 101.597 69.9826 107.016 70.2927 113.324C70.5116 117.776 65.5432 123.703 65.5432 123.703Z" fill="#65D157" stroke="#FBF8EF"/>
<path d="M105.222 24.6506C105.222 24.6506 97.3732 21.6038 93.0058 23.5699C86.4312 26.5296 87.1994 41.0957 87.1994 41.0957C87.1994 41.0957 99.989 42.1956 103.765 36.665C106.43 32.7616 105.222 24.6506 105.222 24.6506Z" fill="#65D157" stroke="#FBF8EF"/>
<path d="M20.1309 28.6329C20.1309 28.6329 27.9992 25.5788 32.3773 27.5496C38.9678 30.5165 38.1977 45.1179 38.1977 45.1179C38.1977 45.1179 25.3772 46.2205 21.5921 40.6765C18.9207 36.7636 20.1309 28.6329 20.1309 28.6329Z" fill="#65D157" stroke="#FBF8EF"/>
<path d="M84.1461 57.3658C84.1461 57.3658 92.2569 60.9827 96.9598 59.1382C104.04 56.3615 103.986 40.9768 103.986 40.9768C103.986 40.9768 90.5699 39.1544 86.3052 44.7847C83.2952 48.7584 84.1461 57.3658 84.1461 57.3658Z" fill="#65D157" stroke="#FBF8EF"/>
<path d="M40.4611 61.2315C40.4611 61.2315 32.8765 64.6138 28.4787 62.889C21.8583 60.2924 21.9082 45.9058 21.9082 45.9058C21.9082 45.9058 34.454 44.2016 38.4421 49.4666C41.2568 53.1826 40.4611 61.2315 40.4611 61.2315Z" fill="#65D157" stroke="#FBF8EF"/>
<path d="M91.2669 80.7996C91.2669 80.7996 100.027 81.1402 103.66 77.7252C109.131 72.5843 103.44 58.5039 103.44 58.5039C103.44 58.5039 90.4762 61.7534 88.6322 68.4774C87.3308 73.2231 91.2669 80.7996 91.2669 80.7996Z" fill="#65D157" stroke="#FBF8EF"/>
<path d="M35.0232 81.838C35.0232 81.838 27.0884 82.1466 23.7969 79.0533C18.8418 74.3965 23.9964 61.6423 23.9964 61.6423C23.9964 61.6423 35.7395 64.5857 37.4097 70.6764C38.5886 74.9751 35.0232 81.838 35.0232 81.838Z" fill="#65D157" stroke="#FBF8EF"/>
<path d="M96.6407 81.9191C96.6407 81.9191 88.2977 82.2641 85.1082 85.7838C80.3067 91.0824 86.7841 104.017 86.7841 104.017C86.7841 104.017 98.8449 99.9422 100.083 93.4174C100.956 88.8123 96.6407 81.9191 96.6407 81.9191Z" fill="#65D157" stroke="#FBF8EF"/>
<path d="M29.1555 83.0429C29.1555 83.0429 37.0895 83.371 40.1226 86.7182C44.6887 91.7569 38.5289 104.057 38.5289 104.057C38.5289 104.057 27.0594 100.182 25.8824 93.9775C25.0517 89.5982 29.1555 83.0429 29.1555 83.0429Z" fill="#65D157" stroke="#FBF8EF"/>
<path d="M64.4424 81.2902C64.4424 81.2902 60.7878 90.2623 62.9664 95.3241C66.2461 102.944 83.0181 102.338 83.0181 102.338C83.0181 102.338 84.5271 87.6452 78.2364 83.196C73.7966 80.0558 64.4424 81.2902 64.4424 81.2902Z" fill="#65D157" stroke="#FBF8EF"/>
<path d="M60.237 82.8585C60.237 82.8585 63.8229 91.662 61.6852 96.6288C58.467 104.106 42.01 103.511 42.01 103.511C42.01 103.511 40.5294 89.0941 46.702 84.7284C51.0584 81.6473 60.237 82.8585 60.237 82.8585Z" fill="#65D157" stroke="#FBF8EF"/>
<path d="M124.269 29.3349C124.269 29.3349 116.85 25.2051 112.215 26.5648C105.237 28.6116 103.989 43.2692 103.989 43.2692C103.989 43.2692 116.613 46.1378 121.151 41.1353C124.353 37.6047 124.269 29.3349 124.269 29.3349Z" fill="#65D157" stroke="#FBF8EF"/>
<path d="M2.974 32.2324C2.974 32.2324 9.91237 28.3705 14.2467 29.642C20.7716 31.5561 21.9389 45.2629 21.9389 45.2629C21.9389 45.2629 10.1334 47.9454 5.89041 43.2674C2.89578 39.9658 2.974 32.2324 2.974 32.2324Z" fill="#65D157" stroke="#FBF8EF"/>
<path d="M122.209 62.0564C122.209 62.0564 125.114 54.228 123.1 49.9263C120.068 43.4505 105.635 44.4274 105.635 44.4274C105.635 44.4274 104.734 57.1259 110.274 60.7884C114.184 63.3733 122.209 62.0564 122.209 62.0564Z" fill="#65D157" stroke="#FBF8EF"/>
<path d="M4.72298 65.5641C4.72298 65.5641 1.68563 57.3798 3.79125 52.8825C6.96102 46.1123 22.0498 47.1336 22.0498 47.1336C22.0498 47.1336 22.9926 60.4094 17.2007 64.2385C13.113 66.9409 4.72298 65.5641 4.72298 65.5641Z" fill="#65D157" stroke="#FBF8EF"/>
<path d="M107.108 65.0847C107.108 65.0847 115.183 62.9563 119.267 65.38C125.417 69.0286 123.038 83.2973 123.038 83.2973C123.038 83.2973 110.312 82.9572 107.207 77.0867C105.015 72.9434 107.108 65.0847 107.108 65.0847Z" fill="#65D157" stroke="#FBF8EF"/>
<path d="M20.7476 66.7507C20.7476 66.7507 12.2221 64.5032 7.90883 67.0624C1.4157 70.9149 3.92745 85.981 3.92745 85.981C3.92745 85.981 17.3646 85.6219 20.6433 79.4233C22.9573 75.0485 20.7476 66.7507 20.7476 66.7507Z" fill="#65D157" stroke="#FBF8EF"/>
<path d="M99.895 97.8266C99.895 97.8266 99.5687 88.5613 103.194 84.7316C108.653 78.9664 123.521 85.039 123.521 85.039C123.521 85.039 120.034 98.7368 112.916 100.661C107.892 102.019 99.895 97.8266 99.895 97.8266Z" fill="#65D157" stroke="#FBF8EF"/>
<path d="M24.521 98.2819C24.521 98.2819 24.8005 90.3461 21.695 87.0659C17.0201 82.128 4.28492 87.3293 4.28492 87.3293C4.28492 87.3293 7.27144 99.0615 13.3682 100.709C17.6712 101.872 24.521 98.2819 24.521 98.2819Z" fill="#65D157" stroke="#FBF8EF"/>
<path d="M118.006 99.0365C118.006 99.0365 124.661 105.173 124.829 110.319C125.082 118.066 110.656 124.215 110.656 124.215C110.656 124.215 103.545 112.389 107.097 106.127C109.605 101.708 118.006 99.0365 118.006 99.0365Z" fill="#65D157" stroke="#FBF8EF"/>
<path d="M8.81986 99.3243C8.81986 99.3243 2.98226 104.707 2.83486 109.222C2.61296 116.018 15.2677 121.412 15.2677 121.412C15.2677 121.412 21.5067 111.038 18.3898 105.545C16.19 101.668 8.81986 99.3243 8.81986 99.3243Z" fill="#65D157" stroke="#FBF8EF"/>
<path d="M89.7526 119.165C89.7526 119.165 86.7532 111.372 88.7153 107.047C91.6691 100.535 106.112 101.338 106.112 101.338C106.112 101.338 107.167 114.025 101.672 117.754C97.793 120.385 89.7526 119.165 89.7526 119.165Z" fill="#65D157" stroke="#FBF8EF"/>
<path d="M36.4007 120.351C36.4007 120.351 39.4873 112.331 37.4681 107.88C34.4284 101.178 19.5649 102.005 19.5649 102.005C19.5649 102.005 18.4795 115.061 24.1349 118.898C28.1263 121.606 36.4007 120.351 36.4007 120.351Z" fill="#65D157" stroke="#FBF8EF"/>
<path d="M70.1408 106.007C70.1408 106.007 77.7884 102.655 82.1992 104.417C88.8392 107.07 88.697 121.535 88.697 121.535C88.697 121.535 76.0717 123.169 72.0955 117.849C69.2892 114.095 70.1408 106.007 70.1408 106.007Z" fill="#65D157" stroke="#FBF8EF"/>
<path d="M53.9718 106.841C53.9718 106.841 47.3403 103.935 43.5155 105.463C37.7578 107.763 37.8811 120.306 37.8811 120.306C37.8811 120.306 48.8289 121.723 52.2767 117.11C54.7101 113.855 53.9718 106.841 53.9718 106.841Z" fill="#65D157" stroke="#FBF8EF"/>
<path d="M14.8195 10.0465C11.9537 8.77122 8.50479 7.38013 6.78761 10.005C4.89908 12.8918 9.05261 15.1672 11.7582 17.3073C14.1716 19.2163 16.7948 18.2419 19.0186 20.3687C20.3426 21.6348 21.6446 24.2559 21.6446 24.2559C21.6446 24.2559 19.776 24.7648 18.8975 25.5651C17.4309 26.901 18.3196 28.8028 16.6077 29.8054C14.7696 30.8818 11.9814 29.0258 11.9814 29.0258C11.9814 29.0258 10.2991 23.6091 8.97803 25.0414C7.99938 26.1025 9.61979 28.8245 9.61979 28.8245C9.61979 28.8245 6.6937 26.7854 5.84509 27.8602C4.91645 29.0363 8.47918 30.1417 8.47918 30.1417C8.47918 30.1417 5.23345 31.6898 6.10114 33.153C6.94428 34.5748 11.4992 30.9132 11.4992 30.9132C11.4992 30.9132 16.8344 34.807 19.4263 32.9385C20.8336 31.924 21.9971 29.1719 21.9971 29.1719L24.2622 29.7506C24.2622 29.7506 24.5802 33.2115 24.422 35.4212C24.1393 39.3671 21.9144 45.236 21.9144 45.236C21.9144 45.236 19.7662 43.305 18.0514 43.0426C11.8592 42.095 15.0698 53.1381 11.7605 53.499C9.78836 53.7141 7.32722 51.9645 7.32722 51.9645C7.32722 51.9645 6.59188 46.3178 5.1753 47.7955C4.20454 48.8082 5.06228 51.3858 5.06228 51.3858C5.06228 51.3858 1.92928 50.4854 1.84934 51.369C1.77551 52.185 4.58007 53.2733 4.58007 53.2733C4.58007 53.2733 1.93652 54.6259 1.82456 56.1885C1.67002 58.3455 6.84501 53.8519 6.84501 53.8519C6.84501 53.8519 12.7699 58.5753 15.8083 56.5441C18.0992 55.0126 16.5948 50.3168 18.5802 50.4158C20.0219 50.4876 21.4074 51.9426 21.4074 51.9426C21.4074 51.9426 24.3956 65.8437 31.2357 70.1367C39.5499 75.3548 54.0394 64.3007 56.2879 68.0925C57.4178 69.9979 56.4477 73.7627 56.4477 73.7627C56.4477 73.7627 59.8309 68.8859 58.3765 66.2129C54.8192 59.6744 41.5231 73.0617 33.9912 67.2211C29.1383 63.4579 27.447 53.4857 27.447 53.4857C27.447 53.4857 30.0724 49.337 32.8534 49.6392C36.7098 50.0583 34.5849 60.0975 37.6312 57.6958C39.0848 56.5499 38.4992 54.2984 38.4992 54.2984L43.2385 51.4882C43.2385 51.4882 44.8333 53.6229 45.688 52.9183C46.4306 52.3062 45.5117 50.4605 45.5117 50.4605C45.5117 50.4605 49.1016 50.5731 49.1101 48.9668C49.119 47.2862 45.2389 48.3801 45.2389 48.3801C45.2389 48.3801 47.0643 45.2271 45.7293 44.886C44.2193 44.5002 42.3072 48.8375 42.3072 48.8375L38.2262 52.2181C38.2262 52.2181 39.7268 44.0837 36.4768 43.3266C34.4612 42.8571 31.0788 45.5664 31.0788 45.5664C31.0788 45.5664 34.6463 38.9251 34.8235 34.0571C34.982 29.7031 32.0547 21.2858 32.0547 21.2858L32.9227 17.8884C32.9227 17.8884 36.3819 19.393 38.0227 18.3872C40.9234 16.609 39.679 8.75711 39.679 8.75711C39.679 8.75711 46.0977 7.46215 44.4185 5.94652C43.0964 4.75322 39.8801 6.39593 39.8801 6.39593C39.8801 6.39593 41.2119 1.84355 39.4311 1.85777C37.7505 1.87118 37.9927 5.91372 37.9927 5.91372C37.9927 5.91372 35.403 2.40834 33.4709 3.15006C31.1411 4.04444 37.4141 8.17866 37.4141 8.17866L35.9591 15.4474C35.9591 15.4474 31.07 13.0444 29.2522 14.9404C28.094 16.1485 27.9104 18.6185 27.9104 18.6185C27.9104 18.6185 26.1653 17.6231 24.706 16.9957C23.0285 16.2744 21.7299 16.4784 20.1759 15.8383C17.3273 14.6649 17.6342 11.2991 14.8195 10.0465Z" fill="#F8A300" stroke="#FBF8EF"/>
<path d="M50.3652 60.4125C47.2863 61.0114 43.613 61.5922 42.5294 58.6486C41.3376 55.4113 45.8961 54.1272 49.0133 52.6496C51.7938 51.3315 54.1311 52.8703 56.7759 51.2975C58.3505 50.3611 60.208 48.0995 60.208 48.0995C60.208 48.0995 58.5015 47.1839 57.8252 46.2067C56.6962 44.5755 57.9894 42.9219 56.5465 41.5604C54.9972 40.0985 51.8633 41.2808 51.8633 41.2808C51.8633 41.2808 49.0072 46.1811 48.0416 44.4886C47.3264 43.2348 49.5169 40.9463 49.5169 40.9463C49.5169 40.9463 46.2075 42.276 45.622 41.0381C44.9813 39.6834 48.7013 39.4067 48.7013 39.4067C48.7013 39.4067 45.8863 37.1689 47.0605 35.9381C48.2015 34.742 51.8174 39.3333 51.8174 39.3333C51.8174 39.3333 57.891 36.7376 59.9969 39.1405C61.1403 40.4453 61.6558 43.3884 61.6558 43.3884L63.9931 43.3333C63.9931 43.3333 65.0805 40.0323 65.4226 37.8435C66.0336 33.935 65.184 27.7164 65.184 27.7164C65.184 27.7164 62.657 29.1153 60.927 28.9858C54.6802 28.5182 60.2895 18.4786 57.1459 17.3835C55.2725 16.7308 52.4812 17.8828 52.4812 17.8828C52.4812 17.8828 50.4961 23.22 49.4477 21.4618C48.7293 20.257 50.1442 17.9379 50.1442 17.9379C50.1442 17.9379 46.8889 18.1115 47.0095 17.2325C47.1209 16.4208 50.0983 15.9904 50.0983 15.9904C50.0983 15.9904 47.8262 14.0784 48.0681 12.5307C48.402 10.3941 52.4353 15.9353 52.4353 15.9353C52.4353 15.9353 59.2698 12.6636 61.7743 15.3255C63.6626 17.3325 61.1418 21.5703 63.0986 21.9199C64.5196 22.1737 66.1965 21.0672 66.1965 21.0672C66.1965 21.0672 72.2312 8.19268 79.8609 5.54605C89.1348 2.32907 100.771 16.3556 103.814 13.1659C105.343 11.563 105.243 7.67653 105.243 7.67653C105.243 7.67653 107.444 13.1886 105.427 15.4667C100.491 21.0389 90.5425 5.0068 81.8909 9.00616C76.3168 11.5829 72.4284 20.9204 72.4284 20.9204C72.4284 20.9204 74.0548 25.5527 76.8325 25.883C80.6846 26.341 80.8692 16.081 83.2981 19.1056C84.4572 20.5489 83.3807 22.6112 83.3807 22.6112L87.3676 26.4142C87.3676 26.4142 89.4011 24.6924 90.0758 25.571C90.6618 26.3342 89.3518 27.9264 89.3518 27.9264C89.3518 27.9264 92.8753 28.6231 92.5227 30.1903C92.1539 31.8299 88.6187 29.8923 88.6187 29.8923C88.6187 29.8923 89.6891 33.3748 88.3116 33.4073C86.7535 33.444 85.8646 28.788 85.8646 28.788L82.6474 24.5771C82.6474 24.5771 82.2822 32.8406 78.9452 32.8483C76.8757 32.853 74.1884 29.4531 74.1884 29.4531C74.1884 29.4531 76.1727 36.726 75.2519 41.5094C74.4282 45.7878 69.6848 53.3323 69.6848 53.3323L69.7674 56.8379C69.7674 56.8379 73.4762 56.1488 74.8491 57.4976C77.2762 59.8819 74.2997 67.2535 74.2997 67.2535C74.2997 67.2535 80.2634 69.9573 78.2866 71.057C76.7303 71.9228 73.9653 69.5996 73.9653 69.5996C73.9653 69.5996 74.2404 74.3348 72.5082 73.9209C70.8736 73.5303 72.0178 69.6455 72.0178 69.6455C72.0178 69.6455 68.7068 72.4795 66.9907 71.3227C64.9214 69.9278 71.9627 67.3084 71.9627 67.3084L72.1778 59.8986C72.1778 59.8986 66.8738 61.1419 65.5285 58.8859C64.6713 57.4486 65.0472 55.0004 65.0472 55.0004C65.0472 55.0004 63.1231 55.5784 61.5602 55.8619C59.7636 56.1879 58.5439 55.6974 56.8859 55.9721C53.8464 56.4756 53.3894 59.8243 50.3652 60.4125Z" fill="#63BCE5" stroke="#FBF8EF"/>
<path d="M67.4716 103.538C68.9115 106.325 70.501 109.687 67.9805 111.554C65.2085 113.607 62.6953 109.593 60.4013 107.017C58.355 104.719 59.1751 102.043 56.9225 99.9471C55.5814 98.699 52.8889 97.5519 52.8889 97.5519C52.8889 97.5519 52.4897 99.4469 51.742 100.371C50.4937 101.912 48.5433 101.136 47.6421 102.903C46.6745 104.801 48.6897 107.476 48.6897 107.476C48.6897 107.476 54.1951 108.84 52.8421 110.243C51.8398 111.281 49.0281 109.822 49.0281 109.822C49.0281 109.822 51.2341 112.625 50.2105 113.534C49.0905 114.53 47.7796 111.038 47.7796 111.038C47.7796 111.038 46.423 114.368 44.9118 113.587C43.4433 112.828 46.8335 108.068 46.8335 108.068C46.8335 108.068 42.6358 102.968 44.3502 100.272C45.2811 98.8079 47.9608 97.4861 47.9608 97.4861L47.2512 95.2585C47.2512 95.2585 43.7777 95.1425 41.5809 95.4291C37.6582 95.941 31.9288 98.5037 31.9288 98.5037C31.9288 98.5037 33.9815 100.536 34.3433 102.233C35.6498 108.359 24.4385 105.797 24.2708 109.121C24.1709 111.103 26.0608 113.458 26.0608 113.458C26.0608 113.458 31.7407 113.863 30.348 115.363C29.3935 116.392 26.7703 115.685 26.7703 115.685C26.7703 115.685 27.8516 118.761 26.9742 118.892C26.1638 119.013 24.9141 116.277 24.9141 116.277C24.9141 116.277 23.7177 118.994 22.1643 119.197C20.02 119.477 24.2046 114.049 24.2046 114.049C24.2046 114.049 19.1443 108.409 20.9953 105.258C22.3908 102.882 27.1662 104.11 26.9518 102.134C26.7962 100.699 25.263 99.4004 25.263 99.4004C25.263 99.4004 11.2115 97.2264 6.52769 90.6478C0.834457 82.6515 11.0263 67.5431 7.11013 65.5191C5.14219 64.502 1.44025 65.6896 1.44025 65.6896C1.44025 65.6896 6.11177 62.0283 8.86496 63.3245C15.5994 66.4952 3.00875 80.5481 9.27797 87.7273C13.3172 92.3528 23.371 93.4608 23.371 93.4608C23.371 93.4608 27.3598 90.5983 26.8962 87.8397C26.2534 84.0141 16.3549 86.7199 18.5751 83.5389C19.6346 82.0211 21.9163 82.4746 21.9163 82.4746L24.4458 77.5798C24.4458 77.5798 22.222 76.112 22.8756 75.2177C23.4434 74.4407 25.3395 75.2506 25.3395 75.2506C25.3395 75.2506 25.0181 71.6733 26.6212 71.5713C28.2984 71.4646 27.4322 75.4018 27.4322 75.4018C27.4322 75.4018 30.4736 73.396 30.8919 74.7089C31.3649 76.1938 27.1463 78.3552 27.1463 78.3552L24.009 82.626C24.009 82.626 32.0422 80.6545 32.9872 83.8549C33.5732 85.8397 31.0654 89.3742 31.0654 89.3742C31.0654 89.3742 37.4878 85.4261 42.3372 84.9658C46.6747 84.5541 55.248 86.9865 55.248 86.9865L58.5892 85.9222C58.5892 85.9222 56.8858 82.5565 57.7944 80.8599C59.4007 77.8606 67.3117 78.6458 67.3117 78.6458C67.3117 78.6458 68.2308 72.1627 69.8416 73.7508C71.1099 75.0012 69.6572 78.3076 69.6572 78.3076C69.6572 78.3076 74.1243 76.7131 74.2138 78.4917C74.2982 80.1702 70.2484 80.1637 70.2484 80.1637C70.2484 80.1637 73.8986 82.545 73.2706 84.517C72.5134 86.8949 68.021 80.8733 68.021 80.8733L60.8493 82.7489C60.8493 82.7489 63.5329 87.4898 61.7458 89.4149C60.6072 90.6414 58.1521 90.9685 58.1521 90.9685C58.1521 90.9685 59.2474 92.6527 59.9587 94.073C60.7763 95.7056 60.6483 97.014 61.3778 98.5281C62.7151 101.304 66.0573 100.801 67.4716 103.538Z" fill="#63BCE5" stroke="#FBF8EF"/>
<path d="M107.769 39.3448C110.502 37.8044 113.804 36.0936 115.761 38.5445C117.914 41.2399 113.994 43.8976 111.503 46.2839C109.281 48.4124 106.577 47.6902 104.564 50.0177C103.366 51.4033 102.318 54.1357 102.318 54.1357C102.318 54.1357 104.226 54.4657 105.176 55.1793C106.762 56.3707 106.057 58.348 107.856 59.1843C109.788 60.0822 112.388 57.971 112.388 57.971C112.388 57.971 113.551 52.4195 115.002 53.7206C116.076 54.6844 114.72 57.5474 114.72 57.5474C114.72 57.5474 117.441 55.2409 118.387 56.2306C119.423 57.3137 115.98 58.7509 115.98 58.7509C115.98 58.7509 119.358 59.9853 118.632 61.524C117.927 63.0191 113.047 59.8044 113.047 59.8044C113.047 59.8044 108.103 64.1849 105.346 62.5697C103.85 61.6928 102.431 59.0629 102.431 59.0629L100.231 59.8531C100.231 59.8531 100.241 63.3286 100.608 65.5135C101.262 69.415 104.032 75.0473 104.032 75.0473C104.032 75.0473 105.988 72.922 107.67 72.4987C113.745 70.9701 111.592 82.2672 114.921 82.3138C116.905 82.3415 119.189 80.3672 119.189 80.3672C119.189 80.3672 119.388 74.6763 120.938 76.0135C122 76.9299 121.39 79.577 121.39 79.577C121.39 79.577 124.423 78.3845 124.587 79.2566C124.737 80.062 122.048 81.4105 122.048 81.4105C122.048 81.4105 124.808 82.5072 125.067 84.0522C125.424 86.1849 119.848 82.2006 119.848 82.2006C119.848 82.2006 114.396 87.4628 111.179 85.7278C108.754 84.4196 109.808 79.6027 107.84 79.8889C106.412 80.0966 105.17 81.676 105.17 81.676C105.17 81.676 103.509 95.7973 97.1053 100.718C89.3215 106.698 73.8522 97.0627 71.9721 101.05C71.0273 103.054 72.3489 106.71 72.3489 106.71C72.3489 106.71 68.5199 102.175 69.7151 99.3762C72.6386 92.5308 87.1404 104.602 94.0866 98.0753C98.5621 93.8704 99.3034 83.7829 99.3034 83.7829C99.3034 83.7829 96.2977 79.901 93.5578 80.4647C89.7582 81.2463 92.8224 91.0398 89.5627 88.9368C88.0073 87.9333 88.3775 85.6366 88.3775 85.6366L83.3939 83.2868C83.3939 83.2868 82.008 85.5626 81.0905 84.942C80.2934 84.4029 81.0337 82.4785 81.0337 82.4785C81.0337 82.4785 77.4705 82.93 77.3102 81.3316C77.1425 79.6594 81.1086 80.3817 81.1086 80.3817C81.1086 80.3817 78.9934 77.4153 80.2903 76.9496C81.757 76.4228 84.0705 80.56 84.0705 80.56L88.2373 83.2868C88.2373 83.2868 86.1901 75.5836 89.354 74.5228C91.3161 73.8649 94.9395 76.2424 94.9395 76.2424C94.9395 76.2424 90.7603 69.9679 90.1238 65.1385C89.5546 60.8189 91.6733 52.1627 91.6733 52.1627L90.4881 48.8625C90.4881 48.8625 87.1866 50.6873 85.458 49.841C82.4023 48.3449 82.8991 40.4106 82.8991 40.4106C82.8991 40.4106 76.3868 39.728 77.9152 38.0605C79.1186 36.7476 82.4757 38.079 82.4757 38.079C82.4757 38.079 80.7196 33.6728 82.4939 33.5187C84.1682 33.3732 84.3091 37.4206 84.3091 37.4206C84.3091 37.4206 86.556 33.6861 88.5495 34.2419C90.9534 34.9121 85.0992 39.6207 85.0992 39.6207L87.2346 46.7194C87.2346 46.7194 91.8748 43.865 93.8636 45.5809C95.1307 46.674 95.547 49.1156 95.547 49.1156C95.547 49.1156 97.1902 47.9598 98.5836 47.1972C100.185 46.3207 101.498 46.401 102.984 45.6169C105.709 44.1795 105.085 40.8578 107.769 39.3448Z" fill="#F8A300" stroke="#FBF8EF"/>
</g>
<defs>
<clipPath id="clip0_2793_118">
<rect width="128" height="128" fill="white"/>
</clipPath>
</defs>
</svg>
