<svg width="128" height="128" viewBox="0 0 128 128" fill="none" xmlns="http://www.w3.org/2000/svg">
<g clip-path="url(#clip0_2811_121)">
<path d="M128 0L0 0L0 128H128V0Z" fill="#FBF8EF"/>
<path d="M101.35 24.8789C102.015 24.8881 102.541 24.9181 102.898 24.9453C102.945 24.9489 102.989 24.9536 103.029 24.957C103.032 25.0016 103.037 25.0501 103.039 25.1016C103.057 25.4672 103.072 26.0047 103.064 26.6855C103.049 28.0485 102.938 29.9839 102.555 32.2617C101.812 36.6768 100.053 42.3645 96.0068 47.6768L95.6084 48.1895C92.9312 51.5635 88.9562 55.4157 85.6357 58.4355C83.9785 59.9428 82.4896 61.2381 81.415 62.1562C80.8781 62.6151 80.4444 62.9798 80.1455 63.2295C79.9961 63.3543 79.8801 63.4508 79.8018 63.5156C79.7627 63.5479 79.7328 63.5725 79.7129 63.5889C79.703 63.597 79.6954 63.6033 79.6904 63.6074C79.6879 63.6095 79.6858 63.6113 79.6846 63.6123L79.6836 63.6133H79.6826L79.2207 63.9922L79.6758 64.3809L79.6768 64.3818C79.678 64.3829 79.6802 64.3846 79.6826 64.3867C79.6876 64.391 79.6951 64.3977 79.7051 64.4062C79.725 64.4233 79.7549 64.4488 79.7939 64.4824C79.8722 64.5497 79.9876 64.6497 80.1367 64.7793C80.4353 65.0387 80.8686 65.4173 81.4053 65.8936C82.4786 66.8461 83.9666 68.1882 85.623 69.748C88.7341 72.6777 92.4234 76.3575 95.0869 79.6533L95.6055 80.3066C99.8316 85.7402 101.682 91.5334 102.475 95.9736C102.871 98.193 103.002 100.071 103.034 101.392C103.05 102.051 103.043 102.571 103.03 102.925C103.029 102.966 103.026 103.005 103.024 103.042C102.987 103.045 102.948 103.05 102.906 103.053C102.553 103.078 102.033 103.105 101.374 103.112C100.055 103.126 98.1776 103.057 95.96 102.723C91.6622 102.075 86.0969 100.435 80.8174 96.4941L80.3066 96.1055C76.8553 93.4211 72.8799 89.3233 69.7549 85.8799C68.1953 84.1613 66.8528 82.6112 65.9004 81.4912C65.4242 80.9313 65.0454 80.4791 64.7861 80.167C64.6566 80.0111 64.5566 79.8904 64.4893 79.8086C64.4558 79.7679 64.4301 79.7366 64.4131 79.7158L64.3887 79.6865L64.3877 79.6846L63.9775 79.1807L63.5957 79.7061L63.5947 79.708C63.5938 79.7093 63.5918 79.7112 63.5898 79.7139C63.5859 79.7192 63.5801 79.7276 63.5723 79.7383C63.5564 79.7599 63.5324 79.7924 63.501 79.835C63.4379 79.9203 63.3438 80.0465 63.2217 80.209C62.9773 80.5342 62.6193 81.0047 62.166 81.585C61.259 82.7461 59.971 84.3448 58.4492 86.0947C55.5875 89.3855 51.9274 93.1775 48.4268 95.6123L47.7285 96.0801C43.7251 98.6672 37.9127 100.651 33.0635 101.991C30.646 102.659 28.481 103.164 26.9209 103.501C26.1522 103.667 25.5308 103.793 25.0986 103.878C25.0989 103.876 25.0994 103.875 25.0996 103.873C25.17 103.422 25.2765 102.767 25.4209 101.954C25.7097 100.328 26.1497 98.0723 26.7539 95.5527C27.9281 90.6561 29.71 84.8171 32.1826 80.6611L32.4248 80.2646C34.7197 76.5772 38.6745 72.6165 42.085 69.5596C43.7849 68.0359 45.3397 66.7447 46.4697 65.835C47.0347 65.3802 47.4938 65.0207 47.8105 64.7754C47.9688 64.6528 48.0917 64.5584 48.1748 64.4951C48.2161 64.4637 48.2475 64.4397 48.2686 64.4238C48.2788 64.4161 48.2868 64.4102 48.292 64.4062C48.2944 64.4044 48.2966 64.4023 48.2979 64.4014L48.2998 64.4004L48.833 64L48.2998 63.6006V63.5996L48.2988 63.5986C48.2976 63.5977 48.2955 63.5966 48.293 63.5947C48.2877 63.5908 48.2791 63.5851 48.2686 63.5771C48.2475 63.5612 48.2163 63.5365 48.1748 63.5049C48.0917 63.4416 47.9687 63.3472 47.8105 63.2246C47.494 62.9792 47.0361 62.6198 46.4717 62.165C45.3421 61.2549 43.7866 59.9636 42.0869 58.4395C38.8905 55.5731 35.2149 51.9127 32.874 48.4297L32.4238 47.7354C29.9183 43.7177 28.0589 37.9065 26.8232 33.0615C26.2073 30.6462 25.7488 28.4843 25.4453 26.9268C25.2958 26.1592 25.1835 25.5388 25.1084 25.1074C25.5406 25.1813 26.1629 25.2916 26.9326 25.4395C28.4924 25.7391 30.6565 26.1919 33.0732 26.8047C37.7706 27.9958 43.37 29.778 47.3525 32.1875L47.7324 32.4229C51.4601 34.7793 55.4204 38.8566 58.4668 42.376C59.9853 44.1303 61.2688 45.7356 62.1719 46.9023C62.6233 47.4856 62.9795 47.9591 63.2227 48.2861C63.3441 48.4495 63.4373 48.5763 63.5 48.6621C63.5312 48.7049 63.5545 48.738 63.5703 48.7598C63.5782 48.7707 63.585 48.7788 63.5889 48.7842C63.5907 48.7867 63.5919 48.7888 63.5928 48.79L63.5938 48.792L63.9834 49.333L64.3936 48.8086L64.3955 48.8066C64.3965 48.8054 64.3975 48.8032 64.3994 48.8008C64.4036 48.7955 64.4106 48.787 64.4189 48.7764C64.4357 48.7551 64.4603 48.7232 64.4932 48.6816C64.5593 48.598 64.6576 48.4741 64.7852 48.3145C65.0403 47.9951 65.413 47.5316 65.8828 46.958C66.8225 45.8108 68.1499 44.2222 69.6992 42.457C72.6095 39.1412 76.2854 35.2233 79.6436 32.4336L80.3115 31.8916C85.6592 27.6411 91.4436 25.916 95.8994 25.2549C98.1265 24.9245 100.018 24.8605 101.35 24.8789Z" fill="#65D157" stroke="#FBF8EF"/>
<path d="M97.9413 30.0583L64.707 64.7063L30.059 97.9406L63.2929 63.2923L97.9413 30.0583Z" fill="#FBF8EF"/>
<path d="M62.9469 62.9317L98 30C85.0213 43.531 78.0469 51.5221 65.0682 65.0531L65.053 65.0683L29.9999 98.0001L62.9317 62.9469L62.9469 62.9317ZM47.037 80.963L64.3528 64.3529L80.9629 47.037L63.6464 63.6464L47.037 80.963Z" fill="#FBF8EF"/>
<path d="M30.0591 30.058L64.707 63.2923L97.9413 97.9403L63.293 64.7063L30.0591 30.058Z" fill="#FBF8EF"/>
<path d="M62.9319 65.0527L30 30L65.0532 62.9314L65.0684 62.9466L98.0001 98.0001L62.9471 65.0679L62.9319 65.0527ZM80.9631 80.9626L64.353 63.6468L47.0372 47.0367L63.6466 64.3532L80.9631 80.9626Z" fill="#FBF8EF"/>
<path d="M116.2 49.1109C120.413 51.523 123.314 55.8649 123.491 63.2728L123.5 63.9999C123.5 71.8527 120.549 76.3993 116.2 78.8891C111.802 81.4065 105.885 81.8745 99.8781 81.336C93.8855 80.7987 87.8813 79.2674 83.3672 77.8665C81.1122 77.1666 79.2331 76.5007 77.9188 76.0099C77.2617 75.7645 76.746 75.5624 76.3952 75.4226C76.2198 75.3527 76.0852 75.2983 75.9952 75.2615C75.9505 75.2431 75.9166 75.2295 75.8941 75.2202C75.8828 75.2155 75.8742 75.212 75.8687 75.2097C75.8659 75.2086 75.8639 75.2077 75.8626 75.2071L75.8614 75.2056C75.8611 75.2056 75.8585 75.2122 75.6673 75.6665L75.8606 75.2063L74.7308 74.7303L75.2064 75.8606L75.207 75.8627C75.2075 75.864 75.2082 75.8659 75.2092 75.8684C75.2115 75.8739 75.2156 75.8824 75.2202 75.8936C75.2296 75.9161 75.2437 75.95 75.2621 75.995C75.299 76.0849 75.3533 76.2201 75.4233 76.3955C75.5631 76.7463 75.7648 77.2618 76.01 77.9186C76.5008 79.2329 77.1663 81.1121 77.8662 83.3671C79.2671 87.8812 80.7985 93.8855 81.3357 99.8781C81.8742 105.885 81.4063 111.802 78.8888 116.199C76.399 120.549 71.8529 123.5 64.0004 123.5C56.1478 123.5 51.6011 120.549 49.1112 116.2C46.5937 111.802 46.1259 105.885 46.6644 99.8781C47.2015 93.8856 48.7329 87.8814 50.1338 83.3673C50.8336 81.1122 51.4997 79.2332 51.9904 77.9188C52.2357 77.2619 52.4365 76.7459 52.5764 76.3951C52.6462 76.2199 52.7012 76.0859 52.7381 75.9959L52.7906 75.8687C52.7917 75.866 52.7927 75.864 52.7932 75.8627L52.7933 75.8613C52.791 75.8601 52.7585 75.8465 52.3324 75.6673L52.7941 75.8607L53.2686 74.7308L52.1391 75.2057L52.3082 75.6097C52.1386 75.2064 52.1386 75.2063 52.1384 75.2064L52.1376 75.207C52.1363 75.2075 52.1339 75.2088 52.1311 75.2099C52.1257 75.2122 52.1171 75.215 52.1061 75.2195C52.0836 75.2289 52.0496 75.2431 52.0047 75.2615C51.9147 75.2984 51.7803 75.3534 51.6048 75.4233C51.254 75.5632 50.7381 75.764 50.0811 76.0093C48.7668 76.5001 46.8876 77.167 44.6324 77.8669C40.1185 79.2677 34.1145 80.7985 28.1222 81.3357C22.1157 81.8742 16.1988 81.4062 11.8009 78.8888C7.58719 76.4767 4.68602 72.1347 4.50889 64.7262L4.49976 63.9997C4.49979 56.1471 7.45063 51.6004 11.8001 49.1105C16.1979 46.593 22.115 46.1252 28.1215 46.6637C34.1141 47.2008 40.1183 48.7322 44.6324 50.1331C46.8875 50.833 48.7665 51.499 50.0809 51.9897C50.738 52.2351 51.2544 52.4366 51.6052 52.5764C51.7804 52.6463 51.9145 52.7013 52.0044 52.7382C52.0491 52.7565 52.083 52.7701 52.1055 52.7794C52.1168 52.7841 52.1255 52.7876 52.131 52.7899L52.139 52.7934L53.2695 53.2687L52.7939 52.1384L52.7927 52.1369L52.7801 52.1054C52.7708 52.0828 52.7567 52.049 52.7382 52.004C52.7013 51.914 52.6463 51.7796 52.5764 51.6041C52.4365 51.2533 52.2348 50.7378 51.9896 50.0811C51.4988 48.7668 50.8333 46.8875 50.1335 44.6325C48.7326 40.1185 47.2012 34.114 46.664 28.1215C46.1255 22.1151 46.5929 16.1985 49.1101 11.8009C51.522 7.58727 55.864 4.68669 63.272 4.50945L63.9985 4.50033C71.8509 4.50028 76.3977 7.45112 78.8877 11.8007C81.4052 16.1985 81.8727 22.1155 81.3345 28.1221C80.7976 34.1145 79.2671 40.1191 77.8664 44.6331C77.1668 46.888 76.5005 48.7673 76.0098 50.0815C75.7646 50.7383 75.5631 51.2538 75.4233 51.6045C75.3533 51.7799 75.299 51.9145 75.2621 52.0045C75.2437 52.0494 75.2295 52.0837 75.2202 52.1062C75.2157 52.1169 75.2121 52.1248 75.2098 52.1303C75.2086 52.133 75.2076 52.1364 75.2071 52.1377L75.2063 52.1383L74.731 53.2688L75.8613 52.7932L75.8634 52.7927C75.8647 52.7922 75.8666 52.7915 75.8691 52.7905C75.8746 52.7882 75.8831 52.7841 75.8943 52.7794C75.9169 52.7701 75.9508 52.7559 75.9956 52.7375C76.0856 52.7007 76.2196 52.6461 76.3948 52.5763C76.7457 52.4364 77.2621 52.235 77.9192 51.9896C79.2336 51.4989 81.1128 50.8333 83.3678 50.1335C87.8819 48.7326 93.8863 47.2012 99.8788 46.664C105.885 46.1256 111.802 46.5935 116.2 49.1109Z" fill="#F8A300" stroke="#FBF8EF"/>
<path d="M64 48C72.8365 48 80 55.1635 80 64C80 72.8365 72.8365 80 64 80C55.1635 80 48 72.8365 48 64C48 55.1635 55.1635 48 64 48Z" fill="#FBF8EF" stroke="#F8A300"/>
<path d="M112 64.0001L64 64.9998L16 64.0001L64 63L112 64.0001Z" fill="#FBF8EF"/>
<path d="M64.0107 62.5L112.011 64L64.0107 65.5H63.9893L16 64H15.9893L63.9893 62.5H64.0107ZM40.0107 64L64 64.499L87.9893 64L64 63.5L40.0107 64Z" fill="#FBF8EF"/>
<path d="M64.0001 16L64.9998 64L64.0001 112L63 64L64.0001 16Z" fill="#FBF8EF"/>
<path d="M62.5 63.9893L64 15.9893L65.5 63.9893V64.0107L64 112.011L62.5 64.0107V63.9893ZM64 87.9893L64.499 64L64 40.0107L63.5 64L64 87.9893Z" fill="#FBF8EF"/>
<path d="M69.0001 49.5004C69.0001 49.5004 82 13.3691 64 12.9997C45.9999 12.6303 59 49.5004 59 49.5004C59 49.5004 42.9999 11.0004 64 11C85 10.9996 69.0001 49.5004 69.0001 49.5004Z" fill="#FBF8EF"/>
<path d="M69.0001 77.9996C69.0001 77.9996 82 114.131 64 114.5C45.9999 114.87 59 77.9996 59 77.9996C59 77.9996 42.9999 116.5 64 116.5C85 116.5 69.0001 77.9996 69.0001 77.9996Z" fill="#FBF8EF"/>
<path d="M78.0001 58.8321C78.0001 58.8321 114.131 45.8323 114.501 63.8323C114.87 81.8324 78.0001 68.8323 78.0001 68.8323C78.0001 68.8323 116.5 84.8324 116.5 63.8323C116.501 42.8323 78.0001 58.8321 78.0001 58.8321Z" fill="#FBF8EF"/>
<path d="M49.5004 58.8321C49.5004 58.8321 13.3691 45.8323 12.9997 63.8323C12.6303 81.8324 49.5004 68.8323 49.5004 68.8323C49.5004 68.8323 11.0004 84.8324 11 63.8323C10.9996 42.8323 49.5004 58.8321 49.5004 58.8321Z" fill="#FBF8EF"/>
<rect x="4" y="96" width="12" height="12" fill="#63BCE5"/>
<rect width="12" height="12" transform="matrix(-1 0 0 1 124 96)" fill="#63BCE5"/>
<rect x="124" y="32" width="12" height="12" transform="rotate(180 124 32)" fill="#63BCE5"/>
<rect width="12" height="12" transform="matrix(1 0 0 -1 4 32)" fill="#63BCE5"/>
<rect x="4" y="86" width="6" height="6" fill="#63BCE5"/>
<rect width="6" height="6" transform="matrix(-1 0 0 1 124 86)" fill="#63BCE5"/>
<rect x="124" y="42" width="6" height="6" transform="rotate(180 124 42)" fill="#63BCE5"/>
<rect width="6" height="6" transform="matrix(1 0 0 -1 4 42)" fill="#63BCE5"/>
<rect x="36" y="118" width="6" height="6" fill="#63BCE5"/>
<rect width="6" height="6" transform="matrix(-1 0 0 1 92 118)" fill="#63BCE5"/>
<rect x="92" y="10" width="6" height="6" transform="rotate(180 92 10)" fill="#63BCE5"/>
<rect width="6" height="6" transform="matrix(1 0 0 -1 36 10)" fill="#63BCE5"/>
<rect x="20" y="112" width="12" height="12" fill="#63BCE5"/>
<rect width="12" height="12" transform="matrix(-1 0 0 1 108 112)" fill="#63BCE5"/>
<rect x="108" y="16" width="12" height="12" transform="rotate(180 108 16)" fill="#63BCE5"/>
<rect width="12" height="12" transform="matrix(1 0 0 -1 20 16)" fill="#63BCE5"/>
<path d="M4 112H10V118H16V124H4V112Z" fill="#63BCE5"/>
<path d="M124 112H118V118H112V124H124V112Z" fill="#63BCE5"/>
<path d="M124 16H118V10H112V4H124V16Z" fill="#63BCE5"/>
<path d="M4 16H10V10H16V4H4V16Z" fill="#63BCE5"/>
</g>
<defs>
<clipPath id="clip0_2811_121">
<rect width="128" height="128" fill="white"/>
</clipPath>
</defs>
</svg>
