<svg width="128" height="128" viewBox="0 0 128 128" fill="none" xmlns="http://www.w3.org/2000/svg">
<g clip-path="url(#clip0_2793_57)">
<mask id="mask0_2793_57" style="mask-type:luminance" maskUnits="userSpaceOnUse" x="0" y="0" width="128" height="128">
<path d="M128 0H0V128H128V0Z" fill="white"/>
</mask>
<g mask="url(#mask0_2793_57)">
<path d="M128 0H0V128H128V0Z" fill="#FBF8EF"/>
<path d="M123.732 4.20272C123.732 4.20272 56.9288 -0.373461 79.7517 33.9591C100.727 65.5139 123.732 4.20272 123.732 4.20272Z" fill="#65D157"/>
<path fill-rule="evenodd" clip-rule="evenodd" d="M79.6661 33.6244C79.6661 33.6244 89.6947 23.6349 97.1246 18.0829C105.005 12.1941 119.4 6.16602 119.4 6.16602C119.4 6.16602 103.966 11.2331 95.5002 17C87.8387 22.2192 77.5002 32 77.5002 32L79.6661 33.6244Z" fill="#FBF8EF"/>
<path d="M122.648 30.7023C122.648 30.7023 77.9607 24.5672 91.7025 48.3145C104.332 70.1405 122.648 30.7023 122.648 30.7023Z" fill="#65D157"/>
<path fill-rule="evenodd" clip-rule="evenodd" d="M93.245 48.344C93.245 48.344 101.3 43.22 106.5 40C111.35 36.9974 118.971 32.3975 118.971 32.3975C118.971 32.3975 110.913 36.2549 105.894 39C100.558 41.9182 92.5005 46.946 92.5005 46.946L93.245 48.344Z" fill="#FBF8EF"/>
<path d="M3.99927 4.20272C3.99927 4.20272 70.8022 -0.373461 47.9793 33.9591C27.0036 65.5139 3.99927 4.20272 3.99927 4.20272Z" fill="#65D157"/>
<path fill-rule="evenodd" clip-rule="evenodd" d="M48.0649 33.6244C48.0649 33.6244 38.0363 23.6349 30.6063 18.0829C22.7255 12.1941 8.3313 6.16602 8.3313 6.16602C8.3313 6.16602 23.7652 11.2331 32.2307 17C39.8923 22.2192 50.2307 32 50.2307 32L48.0649 33.6244Z" fill="#FBF8EF"/>
<path d="M5.08252 30.7023C5.08252 30.7023 49.7702 24.5672 36.0285 48.3145C23.3987 70.1405 5.08252 30.7023 5.08252 30.7023Z" fill="#65D157"/>
<path fill-rule="evenodd" clip-rule="evenodd" d="M34.4859 48.344C34.4859 48.344 26.4311 43.22 21.2305 40C16.381 36.9974 8.75977 32.3975 8.75977 32.3975C8.75977 32.3975 16.8177 36.2549 21.837 39C27.1729 41.9182 35.2305 46.946 35.2305 46.946L34.4859 48.344Z" fill="#FBF8EF"/>
<path d="M3.99927 123.696C3.99927 123.696 70.8022 128.272 47.9793 93.9393C27.0036 62.3845 3.99927 123.696 3.99927 123.696Z" fill="#65D157"/>
<path fill-rule="evenodd" clip-rule="evenodd" d="M48.0649 94.274C48.0649 94.274 38.0363 104.264 30.6063 109.816C22.7255 115.704 8.3313 121.732 8.3313 121.732C8.3313 121.732 23.7652 116.665 32.2307 110.898C39.8923 105.679 50.2307 95.8984 50.2307 95.8984L48.0649 94.274Z" fill="#FBF8EF"/>
<path d="M5.08252 97.1962C5.08252 97.1962 49.7702 103.331 36.0285 79.5839C23.3987 57.7579 5.08252 97.1962 5.08252 97.1962Z" fill="#65D157"/>
<path fill-rule="evenodd" clip-rule="evenodd" d="M34.4859 79.5545C34.4859 79.5545 26.4311 84.6784 21.2305 87.8984C16.381 90.901 8.75977 95.501 8.75977 95.501C8.75977 95.501 16.8177 91.6436 21.837 88.8984C27.1729 85.9802 35.2305 80.9524 35.2305 80.9524L34.4859 79.5545Z" fill="#FBF8EF"/>
<path d="M123.732 123.696C123.732 123.696 56.9293 128.272 79.7521 93.9393C100.728 62.3845 123.732 123.696 123.732 123.696Z" fill="#65D157"/>
<path fill-rule="evenodd" clip-rule="evenodd" d="M79.6666 94.274C79.6666 94.274 89.6952 104.264 97.1251 109.816C105.006 115.704 119.4 121.732 119.4 121.732C119.4 121.732 103.966 116.665 95.5007 110.898C87.8392 105.679 77.5007 95.8984 77.5007 95.8984L79.6666 94.274Z" fill="#FBF8EF"/>
<path d="M122.649 97.1962C122.649 97.1962 77.9612 103.331 91.703 79.5839C104.333 57.7579 122.649 97.1962 122.649 97.1962Z" fill="#65D157"/>
<path fill-rule="evenodd" clip-rule="evenodd" d="M93.2455 79.5545C93.2455 79.5545 101.3 84.6784 106.501 87.8984C111.35 90.901 118.972 95.501 118.972 95.501C118.972 95.501 110.914 91.6436 105.894 88.8984C100.559 85.9802 92.501 80.9524 92.501 80.9524L93.2455 79.5545Z" fill="#FBF8EF"/>
<path d="M73.7879 15.5C72.2953 10.7508 69.2661 7 64.2879 7C59.3096 7 56.0617 10.6875 54.7879 15.5C50.2881 32.5 64.2879 63 64.2879 63C64.2879 63 79.2878 33 73.7879 15.5Z" fill="#63BCE5" stroke="#FBF8EF"/>
<path d="M55.2121 110.5C56.7047 115.249 59.7339 119 64.7121 119C69.6904 119 72.9383 115.312 74.2121 110.5C78.7119 93.5 64.7121 63 64.7121 63C64.7121 63 49.7122 93 55.2121 110.5Z" fill="#63BCE5" stroke="#FBF8EF"/>
<path d="M17 53.7121C12.2508 55.2047 8.5 58.2339 8.5 63.2121C8.5 68.1904 12.1875 71.4383 17 72.7121C34 77.2119 64.5 63.2121 64.5 63.2121C64.5 63.2121 34.5 48.2122 17 53.7121Z" fill="#63BCE5" stroke="#FBF8EF"/>
<path d="M112 72.2879C116.749 70.7953 120.5 67.7661 120.5 62.7879C120.5 57.8096 116.812 54.5617 112 53.2879C95 48.7881 64.5 62.7879 64.5 62.7879C64.5 62.7879 94.5 77.7878 112 72.2879Z" fill="#63BCE5" stroke="#FBF8EF"/>
<path d="M24.3451 90.0205C22.0423 94.4341 21.532 99.2283 25.0522 102.748C28.5723 106.269 33.4764 105.958 37.7801 103.456C52.9827 94.6166 64.6501 63.1505 64.6501 63.1505C64.6501 63.1505 32.8304 73.7571 24.3451 90.0205Z" fill="#63BCE5" stroke="#FBF8EF"/>
<path d="M104.655 35.9795C106.958 31.5659 107.468 26.7717 103.948 23.2516C100.428 19.7314 95.5236 20.0422 91.2199 22.5444C76.0173 31.3834 64.3499 62.8495 64.3499 62.8495C64.3499 62.8495 96.1696 52.2429 104.655 35.9795Z" fill="#63BCE5" stroke="#FBF8EF"/>
<path d="M91.5205 103.155C95.9341 105.458 100.728 105.968 104.248 102.448C107.769 98.9277 107.458 94.0236 104.956 89.7199C96.1166 74.5173 64.6505 62.8499 64.6505 62.8499C64.6505 62.8499 75.2571 94.6696 91.5205 103.155Z" fill="#63BCE5" stroke="#FBF8EF"/>
<path d="M37.4795 22.8451C33.0659 20.5423 28.2717 20.032 24.7516 23.5522C21.2314 27.0723 21.5422 31.9764 24.0444 36.2801C32.8834 51.4827 64.3495 63.1501 64.3495 63.1501C64.3495 63.1501 53.7429 31.3304 37.4795 22.8451Z" fill="#63BCE5" stroke="#FBF8EF"/>
<path d="M54.8991 15.5707C51.7027 11.7542 47.4687 9.44818 42.8694 11.3533C38.2701 13.2583 36.6806 17.9081 37.3453 22.8417C39.6937 40.2697 64.2997 63.0905 64.2997 63.0905C64.2997 63.0905 66.6773 29.6339 54.8991 15.5707Z" fill="#63BCE5" stroke="#FBF8EF"/>
<path d="M74.0924 110.448C77.2888 114.264 81.5228 116.57 86.1221 114.665C90.7213 112.76 92.3109 108.11 91.6461 103.177C89.2977 85.7489 64.6918 62.928 64.6918 62.928C64.6918 62.928 62.3142 96.3846 74.0924 110.448Z" fill="#63BCE5" stroke="#FBF8EF"/>
<path d="M17.0571 72.6063C13.2406 75.8027 10.9345 80.0367 12.8396 84.636C14.7447 89.2353 19.3944 90.8248 24.3281 90.16C41.756 87.8117 64.5768 63.2057 64.5768 63.2057C64.5768 63.2057 31.1202 60.8281 17.0571 72.6063Z" fill="#63BCE5" stroke="#FBF8EF"/>
<path d="M111.934 53.4132C115.751 50.2168 118.057 45.9828 116.152 41.3836C114.247 36.7843 109.597 35.1947 104.663 35.8595C87.2355 38.2079 64.4146 62.8138 64.4146 62.8138C64.4146 62.8138 97.8712 65.1914 111.934 53.4132Z" fill="#63BCE5" stroke="#FBF8EF"/>
<path d="M37.7377 103.339C37.2992 108.298 38.6624 112.923 43.2617 114.828C47.861 116.733 52.2728 114.569 55.2914 110.61C65.9542 96.6264 64.692 63.0906 64.692 63.0906C64.692 63.0906 39.3534 85.0668 37.7377 103.339Z" fill="#63BCE5" stroke="#FBF8EF"/>
<path d="M91.2538 22.6792C91.6923 17.7203 90.329 13.0958 85.7297 11.1907C81.1305 9.2856 76.7186 11.4495 73.7001 15.4082C63.0372 29.3921 64.2995 62.9279 64.2995 62.9279C64.2995 62.9279 89.6381 40.9518 91.2538 22.6792Z" fill="#63BCE5" stroke="#FBF8EF"/>
<path d="M104.826 89.767C109.785 90.2055 114.409 88.8422 116.314 84.2429C118.22 79.6436 116.056 75.2318 112.097 72.2133C98.113 61.5504 64.5772 62.8127 64.5772 62.8127C64.5772 62.8127 86.5534 88.1513 104.826 89.767Z" fill="#63BCE5" stroke="#FBF8EF"/>
<path d="M24.1655 36.2516C19.2066 35.8131 14.5821 37.1763 12.677 41.7756C10.7719 46.3749 12.9358 50.7868 16.8945 53.8053C30.8785 64.4682 64.4143 63.2059 64.4143 63.2059C64.4143 63.2059 42.4381 37.8673 24.1655 36.2516Z" fill="#63BCE5" stroke="#FBF8EF"/>
<path d="M59.6948 63.8557L59.6074 63.8157L25.6175 48.3345L60.7196 61.0105L60.8127 61.0438L64.2238 59.5752L64.2639 59.4857L79.355 25.6542L67.0676 60.6017L67.0352 60.6944L68.5034 64.1046L68.5929 64.1448L102.424 79.2362L67.4768 66.9484L67.3842 66.916L63.9739 68.3842L63.9347 68.4734L48.841 102.306L61.1302 67.3577L61.1626 67.265L59.6948 63.8557Z" fill="#FBF8EF" stroke="#63BCE5" stroke-width="0.5"/>
<path d="M60.9678 66.8093L60.8771 66.841L25.6376 79.2165L59.7364 64.0473L59.8266 64.0069L61.2699 60.5849L61.2368 60.4926L48.6897 25.6374L64.0321 59.3557L64.0729 59.445L67.4939 60.8879L67.5863 60.8548L102.441 48.3086L68.7232 63.6501L68.6339 63.6909L67.191 67.112L67.2244 67.2034L79.7704 102.061L64.4288 68.3412L64.388 68.2519L60.9678 66.8093Z" fill="#FBF8EF" stroke="#63BCE5" stroke-width="0.5"/>
</g>
<circle cx="64" cy="64" r="8" fill="#FBF8EF"/>
</g>
<defs>
<clipPath id="clip0_2793_57">
<rect width="128" height="128" fill="white"/>
</clipPath>
</defs>
</svg>
