<svg width="128" height="128" viewBox="0 0 128 128" fill="none" xmlns="http://www.w3.org/2000/svg">
<g clip-path="url(#clip0_2811_273)">
<path d="M128 0H0V128H128V0Z" fill="#FBF8EF"/>
<path d="M6 64C6 31.9675 31.9675 6 64 6C96.0325 6 122 31.9675 122 64C122 96.0325 96.0325 122 64 122C31.9675 122 6 96.0325 6 64Z" fill="#FBF8EF" stroke="#63BCE5" stroke-width="4"/>
<path d="M14 64C14 36.3858 36.3858 14 64 14C91.6142 14 114 36.3858 114 64C114 91.6142 91.6142 114 64 114C36.3858 114 14 91.6142 14 64Z" fill="#FBF8EF" stroke="#63BCE5" stroke-width="4"/>
<path d="M64 49C72.2843 49 79 55.7157 79 64C79 72.2843 72.2843 79 64 79C55.7157 79 49 72.2843 49 64C49 55.7157 55.7157 49 64 49Z" fill="#FBF8EF" stroke="#FBF8EF"/>
<path d="M83.5315 13.6712C84.1508 13.4269 84.6488 13.2548 84.9895 13.1444C85.0339 13.1301 85.076 13.1179 85.115 13.1056C85.1343 13.1459 85.1571 13.1889 85.1789 13.2356C85.3342 13.5671 85.5528 14.0584 85.804 14.6913C86.3068 15.9581 86.9392 17.7907 87.4499 20.0433C88.4399 24.4095 88.9718 30.3394 87.2465 36.7901L87.0726 37.4157C85.8772 41.5537 83.6629 46.6268 81.7379 50.6814C80.7772 52.7051 79.8918 54.4688 79.2464 55.7262C78.9238 56.3546 78.6612 56.8566 78.4795 57.2012C78.3887 57.3733 78.318 57.5067 78.2702 57.5964C78.2463 57.6411 78.228 57.6752 78.2158 57.6979C78.2097 57.7092 78.2051 57.7179 78.202 57.7236C78.2005 57.7264 78.1992 57.7289 78.1985 57.7303L78.1979 57.7316L78.197 57.732L77.9136 58.2579L78.4822 58.4447L78.4835 58.4452C78.485 58.4457 78.4877 58.4465 78.4907 58.4475C78.497 58.4495 78.5065 58.4529 78.5189 58.457C78.5438 58.4652 78.5812 58.4775 78.6301 58.4937C78.728 58.5263 78.8727 58.575 79.0599 58.6382C79.4346 58.7647 79.9793 58.9505 80.6566 59.1873C82.0113 59.6609 83.8974 60.3374 86.0221 61.1513C90.0127 62.68 94.823 64.6832 98.5386 66.7206L99.2664 67.1281C105.239 70.5498 109.151 75.2063 111.571 79.0129C112.78 80.9155 113.614 82.6033 114.146 83.8125C114.411 84.4167 114.602 84.9007 114.724 85.2323C114.739 85.271 114.751 85.3085 114.763 85.343C114.73 85.3598 114.696 85.3791 114.658 85.3978C114.341 85.5556 113.871 85.778 113.263 86.0347C112.048 86.5484 110.285 87.1974 108.107 87.7303C103.885 88.763 98.1138 89.3594 91.7333 87.7188L91.1132 87.5532C86.9011 86.3805 81.6673 84.0994 77.4688 82.1006C75.3734 81.1031 73.5428 80.1788 72.2364 79.5045C71.5833 79.1673 71.0611 78.8928 70.7027 78.7026C70.5237 78.6075 70.3853 78.5339 70.292 78.4838C70.2456 78.4588 70.21 78.4397 70.1863 78.4269L70.1526 78.409L70.151 78.4076L69.5802 78.0972L69.4265 78.7282L69.4263 78.7304C69.4259 78.732 69.4248 78.7345 69.424 78.7377C69.4224 78.7441 69.4202 78.7541 69.417 78.767C69.4105 78.793 69.4007 78.8322 69.3878 78.8835C69.3618 78.9863 69.3227 79.1388 69.2714 79.3355C69.1689 79.7292 69.0163 80.3004 68.8174 81.0093C68.4193 82.4279 67.8349 84.396 67.0916 86.5927C65.6939 90.7237 63.7481 95.6216 61.4342 99.2034L60.966 99.9012C58.2449 103.815 53.6213 107.857 49.6442 110.939C47.6616 112.475 45.8503 113.763 44.5352 114.668C43.8872 115.114 43.3602 115.466 42.9925 115.709C42.9922 115.707 42.992 115.705 42.9916 115.704C42.8854 115.26 42.7352 114.613 42.5601 113.807C42.2098 112.193 41.7602 109.939 41.3623 107.379C40.5891 102.403 40.0201 96.3245 40.7293 91.5409L40.8027 91.0822C41.5254 86.7995 43.6798 81.6337 45.674 77.5106C46.6679 75.4555 47.6159 73.6706 48.3158 72.3999C48.6657 71.7646 48.954 71.2577 49.1538 70.9105C49.2537 70.737 49.3316 70.603 49.3844 70.5129C49.4107 70.4681 49.4306 70.434 49.444 70.4113C49.4505 70.4003 49.4557 70.3918 49.459 70.3862C49.4606 70.3835 49.4618 70.3808 49.4626 70.3794L49.464 70.3778L49.8053 69.8049L49.1603 69.6379L49.16 69.637L49.1587 69.6365C49.1572 69.6361 49.1548 69.6359 49.1518 69.6351C49.1454 69.6334 49.1353 69.6314 49.1225 69.6281C49.097 69.6213 49.0587 69.6103 49.0083 69.5968C48.9075 69.5698 48.7578 69.5292 48.5649 69.4759C48.1789 69.3691 47.6188 69.2105 46.924 69.0041C45.5334 68.5911 43.6041 67.9873 41.4529 67.2227C37.4074 65.7849 32.6171 63.7946 29.1289 61.4614L28.4488 60.9901C24.6052 58.2249 20.6783 53.5551 17.6954 49.5423C16.2083 47.5419 14.9632 45.716 14.091 44.3904C13.6611 43.7371 13.3217 43.2058 13.0884 42.8353C13.5162 42.7395 14.1339 42.6052 14.902 42.4497C16.4587 42.1345 18.6327 41.7316 21.1011 41.3807C25.8989 40.6987 31.7556 40.2211 36.3549 40.9377L36.7957 41.0112C41.139 41.7755 46.351 44.0434 50.5056 46.1423C52.5766 47.1885 54.3735 48.1862 55.652 48.9226C56.2911 49.2907 56.8005 49.5935 57.1496 49.8037C57.324 49.9087 57.4584 49.9906 57.5489 50.0462C57.5941 50.0739 57.6282 50.0957 57.6511 50.1098C57.6625 50.1169 57.6719 50.1219 57.6775 50.1254C57.6802 50.127 57.682 50.1285 57.6834 50.1293L57.685 50.1307L58.2509 50.4833L58.4312 49.8424L58.4323 49.8398C58.4327 49.8383 58.4328 49.8359 58.4336 49.8329C58.4355 49.8264 58.4387 49.8159 58.4424 49.8029C58.4498 49.7769 58.4605 49.738 58.4751 49.6871C58.5045 49.5846 58.5485 49.4326 58.6058 49.2365C58.7206 48.8442 58.8893 48.2739 59.1061 47.5649C59.5398 46.1467 60.1645 44.1731 60.9274 41.9518C62.3605 37.7792 64.2732 32.7588 66.3204 28.9028L66.7325 28.1478C70.0655 22.1849 74.7614 18.3924 78.6324 16.0887C80.5671 14.9373 82.2925 14.1599 83.5315 13.6712Z" fill="#65D157" stroke="#FBF8EF"/>
<path d="M62.4563 63.4564L82.3777 19.6802C75.5096 37.1262 72.0923 47.1672 65.2243 64.6133L65.216 64.6331L45.2946 108.409L62.448 63.4763L62.4563 63.4564ZM54.5856 86.1787L64.2966 64.2372L73.0867 41.9108L63.3748 63.852L54.5856 86.1787Z" fill="#FBF8EF"/>
<path d="M63.2478 65.425L19.4716 45.504L64.4046 62.657L64.4244 62.6653L108.201 82.587L63.2676 65.4332L63.2478 65.425ZM85.9701 73.2956L64.0285 63.5847L41.7022 54.7946L63.6433 64.5064L85.9701 73.2956Z" fill="#FBF8EF"/>
<path d="M113.465 41.7683C114.079 42.0267 114.555 42.2518 114.876 42.411C114.918 42.4317 114.957 42.4525 114.993 42.4709C114.979 42.5132 114.965 42.5599 114.948 42.6086C114.827 42.9541 114.64 43.4583 114.377 44.0864C113.851 45.3438 113.022 47.0963 111.813 49.064C109.468 52.878 105.703 57.49 99.9596 60.8964L99.3979 61.2221C95.6505 63.3453 90.5205 65.4247 86.3096 66.9782C84.208 67.7536 82.3419 68.3957 81.0013 68.8436C80.3314 69.0674 79.7926 69.2428 79.4219 69.3621C79.2366 69.4218 79.0928 69.4677 78.9959 69.4984C78.9476 69.5137 78.9107 69.5252 78.886 69.533C78.8738 69.5368 78.8644 69.5398 78.8582 69.5417C78.8552 69.5427 78.8525 69.5436 78.851 69.5441L78.8497 69.5446L78.8488 69.5442L78.2785 69.7222L78.5545 70.2532L78.555 70.2544C78.5558 70.2559 78.5571 70.2583 78.5586 70.2612C78.5616 70.267 78.5661 70.2761 78.5721 70.2877C78.5842 70.311 78.6023 70.3459 78.6259 70.3916C78.6732 70.4834 78.7426 70.6194 78.8323 70.7954C79.0117 71.1479 79.2714 71.6614 79.5901 72.3042C80.2277 73.5899 81.1034 75.3923 82.0537 77.4596C83.8383 81.3424 85.8775 86.1376 87.11 90.192L87.3455 90.9921C89.2244 97.6144 88.766 103.678 87.8349 108.092C87.3696 110.298 86.7862 112.088 86.3209 113.324C86.0884 113.942 85.8861 114.421 85.7421 114.744C85.7253 114.781 85.7078 114.817 85.6927 114.85C85.6572 114.839 85.619 114.829 85.5791 114.816C85.2422 114.707 84.7503 114.537 84.1365 114.296C82.9083 113.814 81.1943 113.046 79.2641 111.904C75.5233 109.691 70.9798 106.083 67.5644 100.449L67.2368 99.897C65.0448 96.1139 62.8971 90.8239 61.2923 86.4596C60.4914 84.2815 59.8286 82.3409 59.3659 80.9454C59.1346 80.2477 58.9531 79.6865 58.8299 79.2999C58.7683 79.1068 58.7208 78.9574 58.6891 78.8563C58.6734 78.806 58.6613 78.7674 58.6533 78.7417L58.6417 78.7054L58.6415 78.7032L58.4504 78.0822L57.8993 78.426L57.8977 78.4274C57.8963 78.4283 57.8938 78.4293 57.891 78.431C57.8853 78.4345 57.8768 78.4401 57.8655 78.4471C57.8427 78.4612 57.8083 78.4823 57.7632 78.5099C57.6727 78.5654 57.5381 78.647 57.3639 78.7518C57.0154 78.9616 56.507 79.2634 55.8691 79.6312C54.5928 80.3672 52.799 81.366 50.7319 82.4171C46.8446 84.3938 42.0292 86.5357 37.8707 87.4792L37.048 87.6509C32.3664 88.547 26.2342 88.2054 21.2365 87.6282C18.745 87.3404 16.5489 86.9956 14.9762 86.7231C14.2013 86.5888 13.5779 86.4726 13.1456 86.3888C13.1464 86.3874 13.1475 86.3861 13.1483 86.3847C13.3828 85.9929 13.7274 85.4256 14.1661 84.7264C15.0438 83.3277 16.298 81.4016 17.8034 79.2928C20.729 75.1943 24.5714 70.4505 28.4226 67.5257L28.7958 67.2491C32.3065 64.692 37.4584 62.5044 41.7667 60.9503C43.9141 60.1756 45.8397 59.5621 47.2285 59.1428C47.9228 58.9332 48.4833 58.7722 48.8689 58.6637C49.0616 58.6095 49.211 58.568 49.3117 58.5406C49.3618 58.5269 49.3999 58.5165 49.4254 58.5096C49.4377 58.5063 49.4474 58.5038 49.4537 58.5021C49.4567 58.5014 49.4594 58.5002 49.461 58.4998L49.4631 58.4996L50.1076 58.3285L49.7632 57.7583L49.7636 57.7574L49.763 57.7561C49.7622 57.7548 49.7607 57.753 49.7591 57.7503C49.7557 57.7447 49.7498 57.7362 49.743 57.7248C49.7295 57.7021 49.7098 57.6675 49.6832 57.6227C49.63 57.5328 49.5514 57.3992 49.4507 57.2262C49.2494 56.88 48.9598 56.375 48.6072 55.7417C47.9016 54.4743 46.9442 52.6937 45.9405 50.6432C44.053 46.787 42.0192 42.015 41.1561 37.9081L40.9993 37.0956C40.1841 32.4314 40.6408 26.3471 41.3131 21.3924C41.6483 18.9225 42.0344 16.7465 42.3375 15.1888C42.4868 14.4213 42.6155 13.804 42.7077 13.376C43.0806 13.6066 43.6161 13.9424 44.2741 14.3682C45.6076 15.2311 47.4437 16.4628 49.454 17.9375C53.3614 20.804 57.8831 24.5568 60.6707 28.2844L60.9345 28.6451C63.5058 32.228 65.6471 37.4933 67.1506 41.8985C67.9 44.0944 68.4874 46.0639 68.8868 47.4843C69.0864 48.1943 69.239 48.7669 69.3416 49.1613C69.3929 49.3582 69.4318 49.5108 69.4577 49.6138C69.4706 49.6652 69.4798 49.7046 69.4862 49.7307C69.4894 49.7438 69.4927 49.7539 69.4943 49.7603C69.495 49.7633 69.4953 49.7657 69.4957 49.7672L69.4958 49.7694L69.6541 50.4171L70.231 50.0848L70.2335 50.0838C70.2349 50.083 70.2367 50.0814 70.2394 50.0798C70.2452 50.0764 70.2549 50.0712 70.2666 50.0645C70.2901 50.0511 70.3249 50.0308 70.371 50.0045C70.4636 49.9518 70.6013 49.8738 70.7794 49.7737C71.1357 49.5734 71.6551 49.2836 72.3058 48.9282C73.6072 48.2173 75.4337 47.2428 77.5321 46.1878C81.4738 44.2061 86.3511 41.9535 90.5106 40.6275L91.3331 40.3757C97.8849 38.4421 103.894 39.0131 108.272 40.0721C110.461 40.6013 112.238 41.2516 113.465 41.7683Z" fill="#65D157" stroke="#FBF8EF"/>
<path d="M63.5914 62.6339L108.439 45.259C91.332 52.9322 81.869 57.7229 64.7618 65.3962L64.7421 65.4046L19.8941 82.7796L63.5716 62.6423L63.5914 62.6339ZM42.0787 73.3789L64.3614 64.4787L86.2547 54.6595L63.9716 63.5589L42.0787 73.3789Z" fill="#FBF8EF"/>
<path d="M62.7816 64.5943L45.4064 19.7467L65.5438 63.4238L65.5522 63.4436L82.927 108.292L62.7899 64.6141L62.7816 64.5943ZM73.5266 86.1069L64.6264 63.8242L54.8072 41.9309L63.7065 64.214L73.5266 86.1069Z" fill="#FBF8EF"/>
<path d="M124 106V124H106L124 106Z" fill="#65D157"/>
<path d="M106 4H124V22L106 4Z" fill="#65D157"/>
<path d="M22 4H4V22L22 4Z" fill="#65D157"/>
<path d="M22 124H4V106L22 124Z" fill="#65D157"/>
<path d="M78.1045 53.1338C79.3674 52.5844 80.8555 52.4205 82.4824 52.5332L83.1006 52.5889C86.222 52.9295 89.7982 54.215 93.2207 55.8076L93.9033 56.1299C97.3027 57.7604 100.508 59.6558 102.911 61.1777L103.828 61.7646C104.699 62.3289 105.43 62.8204 105.979 63.1973L106.546 63.5889L107.133 63.999L106.547 64.4092L105.979 64.8008C105.43 65.1778 104.699 65.669 103.828 66.2334L102.911 66.8213C100.508 68.343 97.3027 70.2377 93.9033 71.8682L93.2207 72.1904C89.7981 73.7829 86.2221 75.0685 83.1006 75.4092L82.4824 75.4648C80.8555 75.5775 79.3674 75.4136 78.1045 74.8643C76.9098 74.3445 75.9407 73.4896 75.2578 72.252L75.125 71.999C73.7279 69.2046 73.0293 66.6017 73.0293 63.999C73.0293 61.3961 73.7279 58.7933 75.125 55.999L75.2578 55.7461C75.9407 54.5086 76.9099 53.6535 78.1045 53.1338Z" fill="#F8A300" stroke="#FBF8EF"/>
<path d="M46.3687 52.5049C47.7609 52.4681 49.0389 52.653 50.144 53.1338C51.4182 53.6882 52.4352 54.6244 53.1226 55.999L53.3765 56.5205C54.6045 59.1185 55.2183 61.5589 55.2183 63.999C55.2183 66.4392 54.6045 68.8795 53.3765 71.4775L53.1226 71.999C52.4352 73.3737 51.4182 74.3098 50.144 74.8643C49.0389 75.3451 47.7609 75.5308 46.3687 75.4941L45.7651 75.4648C42.707 75.2529 39.1536 74.0537 35.7134 72.5049L35.0269 72.1904C31.8324 70.7044 28.7717 68.9508 26.3394 67.4482L25.3364 66.8213C24.6957 66.4155 24.1123 66.0359 23.5972 65.6953L22.2681 64.8018C22.0499 64.6521 21.8605 64.5201 21.7017 64.4092L21.1147 64L21.7007 63.5898L22.2681 63.1973L23.5972 62.3027C24.1122 61.9622 24.6959 61.5833 25.3364 61.1777L26.3394 60.5508C28.7718 59.048 31.8323 57.2939 35.0269 55.8076L35.7134 55.4932C39.1536 53.9446 42.707 52.7451 45.7651 52.5332L46.3687 52.5049Z" fill="#F8A300" stroke="#FBF8EF"/>
<path d="M64.4092 21.7139L64.8018 22.2803L65.6953 23.6094C66.0358 24.1244 66.4147 24.7081 66.8203 25.3486H66.8213C68.4444 27.912 70.4919 31.3884 72.1904 35.0391L72.5049 35.7256C74.0535 39.1658 75.2529 42.7192 75.4648 45.7773L75.4941 46.3809C75.5308 47.7731 75.3451 49.0511 74.8643 50.1562C74.3445 51.3507 73.4894 52.3192 72.252 53.002L71.999 53.1348C69.2047 54.5319 66.6018 55.2305 63.999 55.2305C61.5589 55.2305 59.1185 54.6167 56.5205 53.3887L55.999 53.1348C54.6244 52.4474 53.6882 51.4304 53.1338 50.1562C52.5843 48.8932 52.4204 47.4045 52.5332 45.7773L52.5889 45.1592C52.9296 42.0378 54.215 38.4615 55.8076 35.0391L56.1299 34.3574C57.5431 31.4109 59.1553 28.6105 60.5508 26.3516L61.1777 25.3486C61.9892 24.0671 62.6949 23.0133 63.1973 22.2803L63.5889 21.7139L63.999 21.126L64.4092 21.7139Z" fill="#F8A300" stroke="#FBF8EF"/>
<path d="M68.6162 74.6846C69.6946 74.6263 70.7938 74.6675 72.1201 74.999L72.3984 75.0742C73.7605 75.4766 74.6852 76.2297 75.2568 77.2441L75.3662 77.4502C75.8213 78.3594 76.0157 79.4609 76.0039 80.6973L75.9844 81.2773C75.8137 84.223 74.5901 87.8397 72.9893 91.4199L72.6641 92.1357C71.1256 95.4699 69.2968 98.7314 67.7266 101.346L67.0713 102.425C66.6469 103.116 66.2502 103.747 65.8936 104.306L64.957 105.748C64.7936 105.996 64.6498 106.211 64.5303 106.389L64.1152 107.007L63.7002 106.388L63.2744 105.748C62.8796 105.149 62.3656 104.357 61.7754 103.415L61.1611 102.425C59.5706 99.8343 57.594 96.4067 55.9053 92.8486L55.5713 92.1357C53.924 88.5633 52.6099 84.9071 52.3027 81.875L52.2549 81.2773C52.1643 79.7065 52.3724 78.3263 52.9824 77.2441L53.1016 77.0449C53.721 76.0656 54.6992 75.3544 56.1201 74.999L56.6748 74.874C57.9402 74.6215 59.0081 74.632 60.085 74.7148L61.167 74.8145L61.8535 74.8809C62.5537 74.9453 63.298 74.999 64.1201 74.999C65.2158 74.999 66.1732 74.9047 67.0723 74.8154V74.8145C67.4408 74.7778 67.8027 74.742 68.1553 74.7148L68.6162 74.6846Z" fill="#F8A300" stroke="#FBF8EF"/>
<path d="M94.4097 34.291L94.2856 34.9697C94.1634 35.6251 93.9949 36.4887 93.7778 37.5039L93.5444 38.5674C92.9214 41.3427 91.9953 44.9494 90.7446 48.5059L90.4897 49.2158C89.1957 52.762 87.5762 56.2004 85.6099 58.6484L85.2124 59.124C84.1416 60.3542 82.9735 61.2913 81.6919 61.7959C80.4796 62.2732 79.1896 62.3533 77.8315 61.9609L77.5591 61.876C74.7805 60.9497 72.5548 59.7091 70.771 58.041L70.4204 57.7012C68.6952 55.9758 67.4037 53.8166 66.4351 51.1113L66.2456 50.5625C65.7595 49.1043 65.8167 47.7228 66.3257 46.4297C66.8302 45.1481 67.7673 43.9799 68.9976 42.9092L69.4741 42.5117C71.9221 40.5457 75.3592 38.9258 78.9048 37.6318L79.6157 37.377C83.1724 36.1262 86.7789 35.2004 89.5542 34.5771L90.6177 34.3438C91.6328 34.1267 92.4965 33.9572 93.1519 33.835L93.8306 33.7119L94.5347 33.5869L94.4097 34.291Z" fill="#F8A300" stroke="#FBF8EF"/>
<path d="M46.5547 66.2002C47.8478 65.6912 49.2293 65.6341 50.6875 66.1201L51.2354 66.3096C53.9409 67.2784 56.1006 68.5694 57.8262 70.2949C59.6665 72.1352 61.0131 74.4697 62.001 77.4336L62.0859 77.7061C62.4783 79.064 62.3981 80.3541 61.9209 81.5664C61.4794 82.6878 60.7067 83.7222 59.6963 84.6807L59.249 85.0869C56.9366 87.0997 53.5756 88.764 50.0479 90.1016L49.3408 90.3643C46.0309 91.5722 42.6264 92.4969 39.8438 93.1543L38.6914 93.4199C37.9513 93.5862 37.2702 93.7301 36.665 93.8535L35.0938 94.1611C34.8338 94.2096 34.6062 94.2513 34.415 94.2852L33.7109 94.4102L33.8359 93.7051C33.8698 93.5141 33.9106 93.2868 33.959 93.0273L34.2666 91.4551C34.39 90.8499 34.535 90.1687 34.7012 89.4287L34.9668 88.2764C35.6244 85.4939 36.5482 82.0897 37.7559 78.7803L38.0195 78.0723C39.3572 74.5446 41.0216 71.1842 43.0342 68.8721L43.4404 68.4248C44.3989 67.4143 45.4332 66.6417 46.5547 66.2002Z" fill="#F8A300" stroke="#FBF8EF"/>
<path d="M34.4175 33.7129C36.5335 34.0883 43.1248 35.3603 49.3726 37.6436L50.0786 37.9062C53.6008 39.2437 56.9539 40.9074 59.2603 42.918L59.7065 43.3242C60.7143 44.2818 61.4844 45.3153 61.9243 46.4355C62.3998 47.6464 62.4792 48.934 62.0874 50.29L62.0034 50.5625C61.0156 53.5263 59.669 55.8607 57.8286 57.7012C56.1031 59.4267 53.9432 60.7177 51.2378 61.6865L50.6899 61.876C49.2318 62.362 47.8502 62.3049 46.5571 61.7959C45.4357 61.3544 44.4014 60.5816 43.4429 59.5713L43.0366 59.124C41.0242 56.8117 39.3587 53.4516 38.021 49.9238L37.7583 49.2158C36.5506 45.9062 35.6267 42.5022 34.9692 39.7197L34.7036 38.5674C34.5374 37.8273 34.3925 37.1462 34.269 36.541L33.9614 34.9697C33.913 34.7103 33.8722 34.4834 33.8384 34.293L33.7134 33.5879L34.4175 33.7129Z" fill="#F8A300" stroke="#FBF8EF"/>
<path d="M77.8232 66.0352C79.1813 65.6428 80.4713 65.723 81.6836 66.2002C82.9652 66.7047 84.1333 67.6417 85.2041 68.8721L85.6016 69.3486C87.5677 71.7967 89.1874 75.2341 90.4814 78.7803L90.7363 79.4902C91.987 83.0468 92.913 86.6533 93.5361 89.4287L93.7695 90.4932C93.9866 91.5084 94.1561 92.3722 94.2783 93.0273H94.2773C94.326 93.2873 94.3676 93.5144 94.4014 93.7051L94.5264 94.4102L93.8223 94.2852L93.1436 94.1611C92.4882 94.0388 91.6246 93.8705 90.6094 93.6533L89.5459 93.4199C86.7705 92.7967 83.1641 91.87 79.6074 90.6191L78.8965 90.3643C75.3507 89.0703 71.9137 87.4506 69.4658 85.4844L68.9893 85.0869C67.7589 84.0161 66.8219 82.848 66.3174 81.5664C65.8084 80.2733 65.7513 78.8918 66.2373 77.4336L66.4268 76.8848C67.3955 74.1797 68.6867 72.0202 70.4121 70.2949L70.7627 69.9551C72.5465 68.287 74.7722 67.0462 77.5508 66.1201L77.8232 66.0352Z" fill="#F8A300" stroke="#FBF8EF"/>
<path d="M64 44C75.0457 44 84 52.9543 84 64C84 75.0457 75.0457 84 64 84C52.9543 84 44 75.0457 44 64C44 52.9543 52.9543 44 64 44Z" fill="#FBF8EF" stroke="#FBF8EF"/>
<path d="M64 50C71.732 50 78 56.268 78 64C78 71.732 71.732 78 64 78C56.268 78 50 71.732 50 64C50 56.268 56.268 50 64 50Z" fill="#F8A300" stroke="#FBF8EF"/>
</g>
<defs>
<clipPath id="clip0_2811_273">
<rect width="128" height="128" fill="white"/>
</clipPath>
</defs>
</svg>
