<svg width="128" height="128" viewBox="0 0 128 128" fill="none" xmlns="http://www.w3.org/2000/svg">
<g clip-path="url(#clip0_2741_1207)">
<rect width="128" height="128" fill="#FBF8EF"/>
<path d="M115.128 82.6679C115.128 82.6679 115.127 83.8143 110.628 83.668C106.128 83.5218 105.173 81.6698 105.173 81.6698C105.173 81.6698 103.924 81.6705 102.628 80.668C101.332 79.6656 101.128 77.6681 101.128 77.6681C101.128 77.6681 99.9618 76.668 99.6285 75.6674C99.2952 74.6668 99.6285 73.1678 99.6285 73.1678C99.6285 73.1678 98.9402 71.668 99.1282 70.1677C99.3162 68.6674 100.128 67.6678 100.128 67.6678C100.128 67.6678 100.059 66.1685 100.628 65.1682C101.196 64.168 102.628 63.1678 102.628 63.1678C102.628 63.1678 103.848 61.0965 105.173 60.6678C106.085 60.3729 107.628 60.6678 107.628 60.6678C107.628 60.6678 108.628 58.9456 112.628 59.6682C116.628 60.3908 117.628 62.1682 117.628 62.1682C117.628 62.1682 120.628 61.6677 122.628 66.1679C124.628 70.668 122.628 74.1683 122.628 74.1683C122.628 74.1683 123.628 75.9149 121.628 79.1679C119.628 82.4209 115.128 82.6679 115.128 82.6679Z" fill="#65D157"/>
<path d="M104.628 70.168L101.628 68.1685L104.128 71.168L101.128 72.668L104.628 72.168L101.628 77.0601L105.628 73.168L105.628 80.668L106.628 73.168L114.128 81.168L107.628 72.668L120.628 73.668L108.128 71.168L115.628 64.168L107.128 69.6684L107.628 62.1681L105.628 69.6684L103.628 64.6683L104.628 70.168Z" fill="#FBF8EF"/>
<path d="M95.7913 85.9388C95.7913 85.9388 95.7911 86.5998 92.7857 86.5154C89.7803 86.4311 89.1426 85.3634 89.1426 85.3634C89.1426 85.3634 88.308 85.3638 87.4424 84.7859C86.5768 84.208 86.4406 83.0564 86.4406 83.0564C86.4406 83.0564 85.6617 82.4798 85.4391 81.9029C85.2165 81.326 85.4391 80.4619 85.4391 80.4619C85.4391 80.4619 84.9794 79.5972 85.105 78.7323C85.2306 77.8673 85.7729 77.291 85.7729 77.291C85.7729 77.291 85.7269 76.4266 86.1066 75.85C86.4863 75.2733 87.4424 74.6967 87.4424 74.6967C87.4424 74.6967 88.2571 73.5025 89.1426 73.2554C89.7518 73.0854 90.782 73.2554 90.782 73.2554C90.782 73.2554 91.45 72.2625 94.1216 72.6791C96.7932 73.0957 97.4612 74.1204 97.4612 74.1204C97.4612 74.1204 99.4648 73.8319 100.801 76.4263C102.137 79.0207 100.801 81.0386 100.801 81.0386C100.801 81.0386 101.469 82.0456 100.133 83.921C98.7968 85.7964 95.7913 85.9388 95.7913 85.9388Z" fill="#65D157"/>
<path d="M88.7784 78.7327L86.775 77.58L88.4444 79.3093L86.4407 80.174L88.7784 79.8858L86.775 82.7062L89.4463 80.4623L89.4464 84.7862L90.1142 80.4623L95.1236 85.0744L90.7821 80.174L99.465 80.7506L91.1161 79.3093L96.1254 75.2736L90.4482 78.4448L90.7821 74.1207L89.4464 78.4448L88.1105 75.5621L88.7784 78.7327Z" fill="#FBF8EF"/>
<path d="M116.846 32.9546C116.846 32.9546 116.846 34.0808 112.426 33.9371C108.006 33.7934 107.068 31.9742 107.068 31.9742C107.068 31.9742 105.84 31.9748 104.567 30.9901C103.294 30.0054 103.094 28.0431 103.094 28.0431C103.094 28.0431 101.948 27.0608 101.621 26.0778C101.293 25.0948 101.621 23.6223 101.621 23.6223C101.621 23.6223 100.945 22.1491 101.129 20.6753C101.314 19.2015 102.112 18.2195 102.112 18.2195C102.112 18.2195 102.044 16.7467 102.603 15.7641C103.161 14.7815 104.567 13.799 104.567 13.799C104.567 13.799 105.765 11.7643 107.068 11.3432C107.964 11.0535 109.479 11.3432 109.479 11.3432C109.479 11.3432 110.461 9.65145 114.391 10.3613C118.32 11.0711 119.302 12.8171 119.302 12.8171C119.302 12.8171 122.249 12.3255 124.214 16.7461C126.178 21.1668 124.214 24.6051 124.214 24.6051C124.214 24.6051 125.196 26.3209 123.231 29.5164C121.267 32.7119 116.846 32.9546 116.846 32.9546Z" fill="#65D157"/>
<path d="M106.532 20.6754L103.586 18.7113L106.041 21.6577L103.094 23.1312L106.532 22.6401L103.586 27.4457L107.515 23.6224L107.515 30.9899L108.497 23.6224L115.865 31.4811L109.479 23.1312L122.25 24.1136L109.971 21.6577L117.338 14.7814L108.988 20.1847L109.479 12.8169L107.515 20.1847L105.55 15.2729L106.532 20.6754Z" fill="#FBF8EF"/>
<path d="M37.9416 108.156C37.9416 108.156 35.469 108.437 34.6802 98.6965C33.8913 88.9558 37.6513 86.442 37.6513 86.442C37.6513 86.442 37.3432 83.7471 39.1871 80.706C41.0311 77.665 45.2893 76.7347 45.2893 76.7347C45.2893 76.7347 47.16 73.9743 49.2363 73.0099C51.3127 72.0455 54.6275 72.3965 54.6275 72.3965C54.6275 72.3965 57.6932 70.544 60.9751 70.5813C64.2571 70.6186 66.6124 72.1245 66.6124 72.1245C66.6124 72.1245 69.8292 71.608 72.126 72.5887C74.4229 73.5693 76.9313 76.4111 76.9313 76.4111C76.9313 76.4111 81.6981 78.5336 82.948 81.2878C83.8078 83.1824 83.5503 86.5814 83.5503 86.5814C83.5503 86.5814 87.5102 88.316 86.9333 97.1203C86.3565 105.925 82.7684 108.518 82.7684 108.518C82.7684 108.518 84.5841 114.865 75.3691 120.283C66.1541 125.701 58.1141 122.246 58.1141 122.246C58.1141 122.246 54.5924 124.832 47.0856 121.316C39.5788 117.801 37.9416 108.156 37.9416 108.156Z" fill="#65D157"/>
<path d="M62.2434 82.4469L65.5946 75.4839L60.3285 81.9682L55.794 75.4841L57.9348 82.4469L46.7203 77.6663L56.0201 84.4783L39.9204 87.1778L56.3417 87.4937L40.9281 105.633L57.9348 89.5277L58.6991 117.811L61.499 89.5277L77.9614 104.696L63.644 87.4937L80.3113 86.9509L63.644 84.4783L73.9373 78.9377L62.2434 82.4469Z" fill="#FBF8EF"/>
<path d="M99.2797 8.59119C99.2797 8.59119 100.082 8.32242 101.035 11.5062C101.988 14.69 100.916 15.7928 100.916 15.7928C100.916 15.7928 101.21 16.6672 100.812 17.8094C100.414 18.9517 99.0641 19.563 99.0641 19.563C99.0641 19.563 98.6376 20.6138 98.0154 21.0818C97.3932 21.5498 96.2658 21.6681 96.2658 21.6681C96.2658 21.6681 95.3776 22.5016 94.2833 22.722C93.1891 22.9423 92.2989 22.6085 92.2989 22.6085C92.2989 22.6085 91.2657 23.0083 90.4322 22.845C89.5987 22.6818 88.5629 21.9145 88.5629 21.9145C88.5629 21.9145 86.827 21.5466 86.216 20.7192C85.7956 20.15 85.6402 19.0012 85.6402 19.0012C85.6402 19.0012 84.2002 18.7051 83.7677 15.7359C83.3352 12.7667 84.3448 11.6498 84.3448 11.6498C84.3448 11.6498 83.2908 9.66758 85.9715 7.21203C88.6521 4.75648 91.5712 5.3354 91.5712 5.3354C91.5712 5.3354 92.5592 4.22567 95.3052 4.86258C98.0513 5.49948 99.2797 8.59119 99.2797 8.59119Z" fill="#65D157" stroke="#FBF8EF"/>
<path d="M93.0197 18.8655L92.3989 21.419L93.6906 18.8889L95.6585 20.724L94.4527 18.56L98.5217 19.3548L94.9455 17.7485L100.109 15.709L94.6247 16.7684L98.465 9.64234L94.0402 16.1858L91.6907 6.852L92.6768 16.4765L86.2142 12.5801L92.196 17.2863L86.691 18.6487L92.4098 18.2892L89.3792 20.8619L93.0197 18.8655Z" fill="#FBF8EF"/>
<path d="M76.8183 2.49317C76.8183 2.49317 77.3906 1.77423 80.1398 4.11153C82.889 6.44882 82.5636 8.08685 82.5636 8.08685C82.5636 8.08685 83.3477 8.71005 83.6602 9.9855C83.9728 11.261 83.1039 12.6156 83.1039 12.6156C83.1039 12.6156 83.3362 13.8248 83.0459 14.6187C82.7556 15.4126 81.7984 16.1865 81.7984 16.1865C81.7984 16.1865 81.4817 17.4706 80.615 18.3178C79.7484 19.1649 78.7402 19.3867 78.7402 19.3867C78.7402 19.3867 78.0352 20.3614 77.1795 20.7051C76.3237 21.0487 74.9268 20.9617 74.9268 20.9617C74.9268 20.9617 73.1281 21.6521 72.0826 21.2593C71.3635 20.9892 70.5432 20.0345 70.5432 20.0345C70.5432 20.0345 69.0564 20.6155 66.9083 18.1661C64.7601 15.7168 65.0199 14.1029 65.0199 14.1029C65.0199 14.1029 62.8887 12.9198 63.88 9.09914C64.8714 5.27849 67.8726 4.08131 67.8726 4.08131C67.8726 4.08131 68.117 2.48669 70.9948 1.44457C73.8727 0.402448 76.8183 2.49317 76.8183 2.49317Z" fill="#65D157" stroke="#FBF8EF"/>
<path d="M77.1856 15.5513L78.1286 18.2443L77.8106 15.1763L80.6874 15.6854L78.3105 14.4264L82.4868 12.7465L78.2801 13.396L81.7788 8.48767L77.4088 12.6927L76.6972 3.93223L76.5321 12.5073L68.8775 5.39243L75.4618 13.5775L67.2726 13.8461L75.5022 14.5993L71.2922 19.0928L76.2895 15.3866L75.0486 19.5208L77.1856 15.5513Z" fill="#FBF8EF"/>
<path d="M63.1573 15.1616C63.1573 15.1616 64.5081 15.2439 64.0136 20.5352C63.5192 25.8265 61.2688 26.8189 61.2688 26.8189C61.2688 26.8189 61.1801 28.2912 59.9062 29.7464C58.6324 31.2016 56.2641 31.299 56.2641 31.299C56.2641 31.299 55.0024 32.6013 53.7995 32.9224C52.5967 33.2435 50.8544 32.7435 50.8544 32.7435C50.8544 32.7435 49.038 33.4471 47.2838 33.1182C45.5295 32.7892 44.4097 31.761 44.4097 31.761C44.4097 31.761 42.6383 31.7348 41.5004 30.9933C40.3626 30.2519 39.2866 28.4938 39.2866 28.4938C39.2866 28.4938 36.9334 26.9083 36.5232 25.3155C36.241 24.2198 36.6989 22.4236 36.6989 22.4236C36.6989 22.4236 34.7413 21.1218 35.8791 16.4607C37.0168 11.7995 39.1826 10.7484 39.1826 10.7484C39.1826 10.7484 38.8076 7.17815 44.2531 5.14365C49.6985 3.10916 53.6795 5.71633 53.6795 5.71633C53.6795 5.71633 55.8091 4.66299 59.4987 7.25246C63.1883 9.84193 63.1573 15.1616 63.1573 15.1616Z" fill="#65D157"/>
<path d="M47.6795 26.6363L45.109 30.0272L48.8219 27.297L50.3746 30.9391L50.036 26.7794L55.5854 30.6637L51.2858 25.6728L60.1227 26.2095L51.3574 24.4945L61.3202 16.2303L50.8399 23.2805L52.9487 8.03484L49.1083 22.584L41.3974 13.2461L47.2699 23.6549L38.4684 22.5289L47.1625 25.4221L41.128 27.4207L47.6795 26.6363Z" fill="#FBF8EF"/>
<path d="M21.8632 95.2763C21.8632 95.2763 21.7953 96.2921 17.3204 95.7392C12.8455 95.1862 12.0034 93.4554 12.0034 93.4554C12.0034 93.4554 10.7582 93.3384 9.52608 92.3282C8.29393 91.3181 8.20853 89.5289 8.20853 89.5289C8.20853 89.5289 7.10566 88.5331 6.83261 87.6151C6.55955 86.6971 6.98012 85.4002 6.98012 85.4002C6.98012 85.4002 6.38284 84.0066 6.65871 82.6949C6.93458 81.3831 7.80265 80.5737 7.80265 80.5737C7.80265 80.5737 7.82253 79.2388 8.44803 78.4059C9.07352 77.5731 10.5588 76.8216 10.5588 76.8216C10.5588 76.8216 11.8965 75.101 13.2428 74.8459C14.169 74.6704 15.6884 75.0768 15.6884 75.0768C15.6884 75.0768 16.7867 73.6449 20.7296 74.6615C24.6726 75.6781 25.5642 77.3472 25.5642 77.3472C25.5642 77.3472 28.5827 77.1859 30.3101 81.3616C32.0374 85.5373 29.8379 88.4506 29.8379 88.4506C29.8379 88.4506 30.7314 90.0924 28.5465 92.7866C26.3616 95.4808 21.8632 95.2763 21.8632 95.2763Z" fill="#65D157"/>
<path d="M12.1384 83.2127L9.26771 81.1589L11.5812 84.0518L8.50342 85.0987L12.0204 84.9849L8.74298 89.0375L12.9578 85.9651L12.5153 92.6107L13.9542 86.0592L20.9552 93.8535L14.9801 85.7102L27.8746 87.8194L15.5669 84.4281L23.4531 78.9312L14.6589 83.0053L15.5997 76.4065L13.1644 82.8642L11.4667 78.2455L12.1384 83.2127Z" fill="#FBF8EF"/>
<path d="M98.1979 119.53C98.1979 119.53 97.0299 120.583 93.0457 115.865C89.0615 111.147 90.071 108.473 90.071 108.473C90.071 108.473 88.9226 107.201 88.7533 104.96C88.584 102.719 90.4315 100.676 90.4315 100.676C90.4315 100.676 90.3791 98.5699 91.0922 97.3112C91.8054 96.0526 93.6385 95.0152 93.6385 95.0152C93.6385 95.0152 94.534 92.9365 96.235 91.7499C97.936 90.5633 99.7002 90.4722 99.7002 90.4722C99.7002 90.4722 101.164 89.0249 102.705 88.6852C104.247 88.3455 106.58 88.885 106.58 88.885C106.58 88.885 109.811 88.2249 111.465 89.1817C112.603 89.8398 113.72 91.6819 113.72 91.6819C113.72 91.6819 116.393 91.1188 119.331 95.8572C122.269 100.595 121.377 103.247 121.377 103.247C121.377 103.247 124.642 105.843 121.895 112.014C119.148 118.185 113.745 119.363 113.745 119.363C113.745 119.363 112.885 121.986 107.734 122.936C102.583 123.887 98.1979 119.53 98.1979 119.53Z" fill="#65D157"/>
<path d="M101.286 97.3533L100.568 92.4613L99.8083 97.7626L95.5247 96.0844L99.2489 99.1904L91.5104 100.629L99.1488 101.128L91.5089 108.017L100.067 102.146L98.8072 117.135L101.495 102.706L112.418 116.867L103.483 101.837L117.502 103.047L104.091 99.4412L112.191 93.061L102.714 97.9133L105.97 91.2831L101.286 97.3533Z" fill="#FBF8EF"/>
<path d="M104.311 42.5644C104.311 42.5644 106.631 42.912 104.972 51.9765C103.314 61.0411 99.2756 62.413 99.2756 62.413C99.2756 62.413 98.8985 64.9428 96.4768 67.2626C94.0551 69.5825 89.9497 69.3905 89.9497 69.3905C89.9497 69.3905 87.5722 71.4481 85.4456 71.8198C83.3191 72.1915 80.3856 71.0629 80.3856 71.0629C80.3856 71.0629 77.1412 72.0019 74.161 71.167C71.1809 70.3321 69.4031 68.3856 69.4031 68.3856C69.4031 68.3856 66.3472 68.0709 64.4945 66.6172C62.6419 65.1635 61.0507 61.963 61.0507 61.963C61.0507 61.963 57.227 58.8665 56.7608 56.0529C56.44 54.1173 57.5041 51.0843 57.5041 51.0843C57.5041 51.0843 54.3207 48.538 56.9948 40.6597C59.6689 32.7814 63.5698 31.2952 63.5698 31.2952C63.5698 31.2952 63.4651 25.0713 73.1805 22.3852C82.896 19.6992 89.3758 24.808 89.3758 24.808C89.3758 24.808 93.2145 23.3124 99.1939 28.3464C105.173 33.3804 104.311 42.5644 104.311 42.5644Z" fill="#65D157"/>
<path d="M75.8296 60.0349L70.8738 65.5013L77.499 61.1902L79.8305 67.8771L79.8783 60.6406L88.8731 68.1939L82.2054 58.9191L97.3879 61.1902L82.5083 56.8948L100.974 44.1351L81.7989 54.7191L87.7601 28.7057L78.499 53.5L67.0149 35.9504L75.5755 54.8228L60.5439 51.5394L75.1213 57.8591L64.3938 60.3935L75.8296 60.0349Z" fill="#FBF8EF"/>
<path d="M7.06233 110.172C7.06233 110.172 5.83361 109.631 7.9863 105.051C10.139 100.47 12.5475 100.358 12.5475 100.358C12.5475 100.358 13.1011 99.0668 14.7504 98.2011C16.3997 97.3353 18.6313 98.0676 18.6313 98.0676C18.6313 98.0676 20.2204 97.3349 21.4408 97.4629C22.6612 97.591 24.1201 98.6431 24.1201 98.6431C24.1201 98.6431 26.0329 98.64 27.5576 99.5426C29.0823 100.445 29.7937 101.756 29.7937 101.756C29.7937 101.756 31.4313 102.393 32.2512 103.453C33.0712 104.512 33.5083 106.463 33.5083 106.463C33.5083 106.463 35.1875 108.702 35.0589 110.274C34.9704 111.355 33.9702 112.81 33.9702 112.81C33.9702 112.81 35.3725 114.657 32.8237 118.448C30.275 122.24 27.9262 122.434 27.9262 122.434C27.9262 122.434 27.1321 125.77 21.4214 125.712C15.7106 125.654 12.8461 121.935 12.8461 121.935C12.8461 121.935 10.5303 122.143 7.93069 118.541C5.33112 114.939 7.06233 110.172 7.06233 110.172Z" fill="#65D157"/>
<path d="M25.117 105.225L28.5906 103.069L24.267 104.236L23.9899 100.428L22.9733 104.28L19.0601 98.8714L21.4579 104.841L13.4188 101.301L21.0143 105.875L9.11265 109.847L21.1067 107.144L14.2685 120.104L22.4927 108.369L26.669 119.423L24.5436 108.044L32.3611 112.101L25.2089 106.494L31.4555 106.788L25.117 105.225Z" fill="#FBF8EF"/>
<path d="M28.8595 73.8011C28.8595 73.8011 28.1813 75.8733 20.1342 72.9487C12.087 70.024 11.456 66.1119 11.456 66.1119C11.456 66.1119 9.19684 65.3743 7.44691 62.7962C5.69697 60.218 6.50915 56.4866 6.50915 56.4866C6.50915 56.4866 4.99261 53.9896 4.98171 51.9838C4.97082 49.9779 6.4595 47.4654 6.4595 47.4654C6.4595 47.4654 6.10207 44.3476 7.3289 41.7468C8.55573 39.146 10.6145 37.819 10.6145 37.819C10.6145 37.819 11.3764 35.0682 12.9954 33.5962C14.6144 32.1242 17.7931 31.1626 17.7931 31.1626C17.7931 31.1626 21.2226 28.1396 23.8725 28.1485C25.6954 28.1547 28.3092 29.5996 28.3092 29.5996C28.3092 29.5996 31.1353 27.0779 37.9384 30.7488C44.7415 34.4198 45.4984 38.2239 45.4984 38.2239C45.4984 38.2239 51.2166 39.0927 52.1715 48.4096C53.1264 57.7266 47.4416 62.8712 47.4416 62.8712C47.4416 62.8712 48.2168 66.6197 42.6782 71.3174C37.1396 76.015 28.8595 73.8011 28.8595 73.8011Z" fill="#65D157"/>
<path d="M17.2694 45.0008L13.0296 39.6134L15.7744 46.5128L9.46475 47.4506L16.087 48.6161L7.77292 55.6858L17.3034 51.0149L12.8695 64.572L19.111 51.6061L27.9384 70.501L21.2142 51.2935L44.1219 60.7868L23.0048 48.8777L40.7003 40.6585L22.0837 45.5759L27.4217 32.3139L19.3725 44.6892L18.7134 34.4685L17.2694 45.0008Z" fill="#FBF8EF"/>
<path d="M68.5044 39.5799C61.191 22.231 33.3123 32.5917 31.0002 15.5804C30.2598 10.1325 33.5007 2.00011 33.5007 2.00011L29.5 2.00011C29.5 2.00011 26.8178 11.3553 27.5047 17.0797C29.5886 34.448 59.4031 25.0075 65.0041 41.5794C67.0051 47.5001 66.1727 49.1622 63.5048 52.5799C60.6921 56.1832 52.5041 56.5794 52.5041 56.5794L51.5041 60.0794C51.5041 60.0794 63.0909 60.0935 67.0051 55.0799C70.7475 50.2864 71 45.5 68.5044 39.5799Z" fill="#65D157" stroke="#FBF8EF"/>
<path d="M69.5013 63.5795C68.8219 59.2444 66.8972 56.8582 63.5011 54.0795C61.1428 52.15 59.4068 51.5626 56.5274 50.5883L56.5013 50.5795C53.3081 49.499 48.0005 49.0796 48.0005 49.0796L48.5013 54.0791C48.5013 54.0791 53.1593 54.2706 56.0013 55.0795C57.6059 55.5361 58.5378 55.7786 60.0013 56.5795C63.2739 58.3701 65.328 60.0383 66.5013 63.5795C67.1186 65.4422 67.4506 66.6692 67.0013 68.5795C66.5178 70.6354 63.4039 72.1985 64.0013 73.0795C64.5 73.8148 67.7489 71.9812 69.0013 70.0795C70.4016 67.9532 69.8955 66.0947 69.5013 63.5795Z" fill="#65D157" stroke="#FBF8EF"/>
<path d="M10.9811 37.7137L10.9815 37.7146C10.9814 37.7151 10.9807 37.7162 10.9804 37.7172C10.9798 37.7195 10.9786 37.7231 10.9773 37.7279C10.9746 37.7381 10.971 37.7539 10.9656 37.7747C10.9546 37.8163 10.9378 37.8789 10.9177 37.96C10.8774 38.1221 10.8217 38.3585 10.7592 38.6524C10.634 39.2412 10.4838 40.0574 10.384 40.967C10.1808 42.8184 10.2009 44.9349 10.9434 46.3493L11.0682 46.5718C11.7271 47.6809 12.9389 48.7846 14.0622 49.6497C14.6526 50.1045 15.2024 50.4822 15.6047 50.745C15.8052 50.8761 15.9686 50.9783 16.0812 51.0477C16.1374 51.0823 16.1814 51.1089 16.2105 51.1264C16.2251 51.1351 16.2364 51.1416 16.2435 51.1458C16.247 51.1479 16.2499 51.149 16.2515 51.15L16.2532 51.1514L16.7671 51.4528L16.3817 51.9067L14.8445 53.7196L14.5416 54.0774L14.1644 53.797L14.1641 53.7961C14.1634 53.7956 14.1615 53.7955 14.1603 53.7945C14.1577 53.7926 14.154 53.7889 14.1492 53.7853C14.1396 53.778 14.1251 53.7674 14.1071 53.7537C14.0708 53.7261 14.0178 53.6856 13.9506 53.6333C13.8159 53.5285 13.6232 53.3753 13.3883 53.1819C12.9186 52.7954 12.2786 52.2448 11.5972 51.5887C10.3343 50.3725 8.87544 48.7433 8.13587 47.0926L7.99769 46.7629C7.27714 44.9023 7.42277 42.4124 7.71661 40.4594C7.86558 39.4694 8.05706 38.5904 8.21113 37.9593C8.28823 37.6435 8.35682 37.3889 8.40571 37.2125C8.43011 37.1245 8.4493 37.0557 8.46302 37.0087C8.46981 36.9854 8.47562 36.9673 8.47934 36.9548C8.4812 36.9486 8.48267 36.9428 8.48369 36.9394C8.48411 36.938 8.48416 36.9368 8.48442 36.9359L8.48496 36.9347C8.485 36.9345 8.48538 36.9342 8.96371 37.0798L8.48587 36.9343L8.63348 36.4461L9.11857 36.6045L10.6545 37.105L11.1094 37.2533L10.9811 37.7137Z" fill="#65D157" stroke="#FBF8EF"/>
<path d="M12.8856 28.707C13.1725 25.7589 14.4468 20.9409 14.4468 20.9409C14.4468 20.9409 13 25.5 11.7215 28.9172C11.1043 30.5669 9 32.5 9 32.5L12.8856 34C12.8856 34 12.6911 30.7053 12.8856 28.707Z" fill="#65D157" stroke="#FBF8EF"/>
<path d="M13.8674 32.7291C14.7882 33.1483 15.5387 33.894 15.9576 34.7663C16.3788 35.6438 16.4749 36.6771 16.031 37.6303L15.9346 37.8189C15.4161 38.7635 14.5656 39.253 13.6329 39.4078C12.8301 39.5411 11.9638 39.4295 11.1578 39.1666L10.8163 39.0448C10.4212 38.8918 10.0006 38.6071 9.70161 38.3843C9.54926 38.2708 9.41887 38.165 9.32496 38.0875C9.24286 38.0913 9.13896 38.0971 9.01794 38.1003C8.70829 38.1086 8.28334 38.1108 7.82616 38.0875C7.37122 38.0642 6.87087 38.015 6.41513 37.9154C6.02886 37.8309 5.62338 37.7003 5.30658 37.4814L5.17691 37.3822C3.93627 36.333 3.96975 34.6773 4.53768 33.3085L4.62454 33.1098C4.83236 32.6558 5.08251 32.2697 5.41502 31.9461C5.796 31.5754 6.25895 31.3119 6.82732 31.1079L7.0248 31.0481C7.48749 30.9327 7.96887 30.9794 8.40754 31.0911C8.91238 31.2196 9.40461 31.4457 9.82746 31.6801C10.2528 31.9158 10.6238 32.1688 10.8874 32.3617C10.9836 32.4321 11.0653 32.4961 11.1317 32.5478C11.1485 32.5451 11.1662 32.5422 11.1844 32.5395C11.3575 32.5131 11.5984 32.4819 11.8705 32.4626C12.392 32.4256 13.1149 32.4245 13.6806 32.6492L13.8674 32.7291Z" fill="#65D157" stroke="#FBF8EF"/>
<path d="M36.4426 53.5805C37.8079 52.6217 41.0314 52.0795 41.0314 52.0795L41.4411 53.5814C41.4411 53.5814 42.1455 54.5002 41.4409 55.4998C40.4039 56.9713 40.5004 57.9998 41.0004 59.4998C41.7923 61.8757 44.5025 64.999 42 71C40.3556 74.9432 36.4436 73.579 33.4411 75.0801C31.9387 75.8312 32.6915 77.0779 31.4426 77.0779C30.4426 77.0779 30.8773 75.8907 29.9421 74.5801C27.4436 71.0788 22.8471 72.5785 22.9421 67.0785C23.0628 60.0793 29.8081 62.9771 32.9426 59.0805C34.5384 57.0968 34.3591 55.0436 36.4426 53.5805Z" fill="#F8A300" stroke="#FBF8EF"/>
<path d="M14.5607 66.0802C13.7672 64.9008 15.0603 64.4961 15.0603 63.0746C15.0603 59.578 12.4427 56.0115 14 53.0801C16.762 47.8811 25.8096 51.2348 32 50.0801C35.5387 49.42 40 50.5801 40 50.5801L40.5003 51.5796C40.5003 51.5796 34.8718 56.3051 32.56 59.578C29.6878 63.6443 31.8677 69.7864 27.0599 71.0784C23.1711 72.1235 21.4981 67.9041 17.5576 67.0751C16.2068 66.791 15.3308 67.225 14.5607 66.0802Z" fill="#F8A300" stroke="#FBF8EF"/>
<path d="M32.5343 37.0852C30.9866 34.5555 28.4751 33.5334 25.5603 34.0799C23.1019 34.5409 22.8053 36.9784 20.5622 38.0852C18.5659 39.0703 16.1844 38.0852 15.5608 39.5805C15.1436 40.5809 16.1117 42.2834 16.5609 44.0805C17.5605 48.0801 15.0614 49.5796 20.0603 53.0796C24.2832 56.0362 29.0948 49.4816 34.5609 50.0801C36.774 50.3224 40.5 51.0801 40.5 51.0801L40.5 48.0801C40.5 48.0801 36.3453 46.1282 35 44.5C33.0687 42.1624 34.0611 39.5808 32.5343 37.0852Z" fill="#F8A300" stroke="#FBF8EF"/>
<path d="M40.3309 55.0808C40.5261 54.1045 40.4318 53.493 40.8309 52.5808C41.7236 50.5398 43.1374 48.7088 45.334 49.0792C46.8369 49.3327 47.1289 50.6421 48.3309 51.5793C50.2116 53.0457 51.5 51.5801 53.3341 55.0808C54.968 58.1992 50.9809 60.1208 50.3309 63.5808C49.8967 65.8916 51.1538 67.637 49.8309 69.5808C47.7367 72.6577 43.2363 72.6716 40.3309 70.3453C37.7387 68.2699 37.1904 65.1995 38.3309 62.0808C38.8144 60.7584 39.2962 60.0358 40.3309 59.0808C40 58.0801 40.8309 57.5808 40.8309 57.5808C40.8309 57.5808 40.1639 55.9157 40.3309 55.0808Z" fill="#F8A300"/>
<path d="M45.4173 48.5866C46.3323 48.7411 46.8771 49.2292 47.3238 49.7466C47.7842 50.2799 48.0888 50.7573 48.6381 51.1855C49.4863 51.8469 50.0752 51.7912 51.0034 52.0915C51.4522 52.2367 51.9116 52.4603 52.3824 52.8961C52.8457 53.3249 53.3016 53.9423 53.7766 54.8489C54.2406 55.7345 54.3137 56.5613 54.133 57.3498C53.9574 58.116 53.548 58.8198 53.1041 59.4815C52.6387 60.1754 52.1671 60.7828 51.73 61.494C51.3073 62.1819 50.9691 62.8913 50.8222 63.673C50.6223 64.7367 50.8109 65.6423 50.9113 66.6696C51.0101 67.6803 51.0034 68.7465 50.2438 69.8625C47.9364 73.2525 43.0766 73.1844 40.0184 70.7359C37.2269 68.5009 36.6623 65.1887 37.8615 61.9093C38.3379 60.6064 38.8291 59.8332 39.7797 58.9163C39.6956 58.3974 39.8416 57.9772 40.0401 57.6789C40.1055 57.5806 40.1766 57.498 40.2425 57.4287C40.1824 57.2566 40.1074 57.0297 40.0371 56.7787C39.9607 56.5061 39.8869 56.1972 39.8437 55.8946C39.8016 55.5997 39.7824 55.2736 39.8405 54.983C39.9339 54.5159 39.953 54.1699 40.0087 53.7427C40.0631 53.3255 40.1481 52.8942 40.3728 52.3805C40.8319 51.331 41.4431 50.289 42.2585 49.5542C43.0898 48.805 44.142 48.3715 45.4173 48.5866ZM46.5667 50.4001C46.1913 49.9653 45.8384 49.6716 45.2509 49.5724C44.3298 49.4171 43.5762 49.7136 42.9284 50.2974C42.2646 50.8957 41.7221 51.7898 41.2885 52.7812C41.1141 53.1797 41.0467 53.5109 40.9996 53.8716C40.9597 54.1776 40.8945 54.1445 40.8199 54.5751C41.2403 55.3091 41.6234 56.3752 42.1616 56.7787C42.7355 57.2089 43.44 57.4761 44.3332 57.7046C45.8059 58.0814 48.3306 57.5807 48.3306 57.5807C48.3306 57.5807 45.8533 58.8213 44.223 58.5682C43.1486 58.4014 42.3818 58.0015 41.6667 57.4654C41.4906 57.3335 41.3243 57.1904 41.1652 57.0375C41.1777 57.074 41.1893 57.1093 41.2006 57.1414C41.2291 57.2217 41.2409 57.2572 41.2701 57.33C41.5012 57.905 41.8838 58.4421 42.1616 58.8043C42.7259 59.5398 43.0349 60.1501 43.8496 60.8287C44.8417 61.6552 46.8308 62.5814 46.8308 62.5814C46.8308 62.5814 44.6734 62.2244 43.5386 61.4834C42.5219 60.8196 41.9638 59.9843 41.3899 59.2363C41.1527 58.9271 40.9487 58.6392 40.7876 58.4083C40.7532 58.5134 40.7751 58.6495 40.7727 58.8043C40.7428 60.6994 41.2268 61.8601 42 63.5C42.7732 65.1399 44.5 67 44.5 67C44.5 67 42.0493 65.2096 41.3819 63.794C40.7145 62.3784 40.3605 61.4171 40.0407 60.0786C39.4778 60.706 39.145 61.3111 38.8006 62.253C37.719 65.2111 38.2508 68.0396 40.6435 69.9554C43.396 72.159 47.5363 72.0631 49.4172 69.2997C49.9805 68.472 50.0066 67.6929 49.9162 66.7673C49.8273 65.8585 49.6053 64.7359 49.8395 63.489C50.0176 62.5409 50.4216 61.7127 50.8781 60.9699C51.3203 60.2504 51.865 59.5332 52.2733 58.9245C52.7033 58.2835 53.0255 57.7055 53.1583 57.1261C53.2858 56.5694 53.2437 55.9868 52.891 55.3135C52.4491 54.47 52.0563 53.9572 51.7033 53.6304C51.358 53.3107 51.0332 53.1526 50.6956 53.0434C50.0512 52.8349 49.0557 52.7786 48.0236 51.974C47.3711 51.4653 46.9284 50.8191 46.5667 50.4001Z" fill="#FBF8EF"/>
<path d="M39.9999 53.0754C39.1877 51.5189 40.0004 48.5798 40.0004 48.5798C40.0004 48.5798 37.0008 48.5795 37.5008 46.0795C36.0008 46.5795 35.0011 44.576 35.0011 44.576C35.0011 44.576 32.5252 44.5618 31.5011 43.576C29.8071 41.9454 30.7076 39.5395 32.0011 37.576C34.2568 34.1517 39.4978 35.5805 43.0033 37.0744C45.3628 38.0799 46 36.08 47.0023 37.0761C47.7971 37.8661 46.6219 38.0138 47.0004 39.5798C47.8461 43.0788 51.0004 44.576 48.9999 49.5744C47.5986 53.0757 41.7445 56.4189 39.9999 53.0754Z" fill="#F8A300"/>
<path d="M46.8095 36.3611C47.0108 36.4339 47.1904 36.5578 47.3545 36.721L47.4423 36.814C47.6385 37.0326 47.7696 37.2726 47.7838 37.5547C47.7984 37.8435 47.6778 38.0956 47.6139 38.2395C47.5385 38.4093 47.4774 38.5487 47.4449 38.7282C47.4137 38.9014 47.4071 39.1336 47.4864 39.4619C47.683 40.2752 48.0154 40.9816 48.3909 41.6774C48.7566 42.3551 49.192 43.0699 49.5238 43.8095C49.8644 44.5691 50.1199 45.3999 50.15 46.3806C50.1801 47.3598 49.9844 48.4591 49.4639 49.7596C48.706 51.6533 46.7844 53.4487 44.8376 54.3457C43.8598 54.7962 42.8234 55.0451 41.8827 54.9274C40.9155 54.8064 40.0735 54.2979 39.5562 53.3067C39.0756 52.3856 39.0959 51.1284 39.1986 50.1898C39.2483 49.7354 39.3214 49.3265 39.3846 49.0206C39.0939 48.9738 38.7216 48.8877 38.3561 48.7215C37.9543 48.5388 37.5311 48.2476 37.2516 47.7816C37.0604 47.4629 36.9547 47.0885 36.9476 46.6579C36.2588 46.6322 35.7033 46.2371 35.3348 45.8679C35.0843 45.6168 34.8911 45.3521 34.7618 45.1534C34.7416 45.1224 34.7245 45.0918 34.7072 45.0638C34.6637 45.0615 34.6158 45.0603 34.5644 45.0569C34.3044 45.0393 33.9457 45.0049 33.5516 44.9381C32.7955 44.8097 31.784 44.5423 31.1539 43.9358C30.1619 42.9807 29.9422 41.7917 30.1377 40.6183C30.3294 39.4675 30.921 38.3065 31.5837 37.3005C32.8504 35.3778 34.9424 34.8601 37.0616 34.981C39.1774 35.1018 41.4268 35.8587 43.199 36.614C43.7227 36.8371 44.1253 36.8842 44.445 36.8603C44.7692 36.836 45.0408 36.7364 45.3137 36.6188C45.5515 36.5162 45.8936 36.3449 46.2203 36.3013C46.4058 36.2765 46.6048 36.2871 46.8095 36.3611ZM46.4693 37.3014C46.4382 37.2902 46.4045 37.2853 46.3527 37.2922C46.2044 37.312 46.051 37.3899 45.7094 37.5372C45.4027 37.6694 45.0099 37.8206 44.5197 37.8573C44.0251 37.8944 43.4628 37.8132 42.8068 37.5337C41.0736 36.7951 38.9492 36.0908 37.0044 35.9798C35.0631 35.8691 33.4076 36.35 32.4187 37.8512C31.7881 38.8087 31.2817 39.832 31.1234 40.7826C30.9688 41.7105 31.1454 42.5401 31.847 43.2156C32.2411 43.5949 32.981 43.8276 33.7189 43.9528C33.9219 43.9872 34.1156 44.01 34.2884 44.0279C34.2197 43.8029 34.1428 43.5381 34.0761 43.2492C33.8863 42.427 33.8839 41.468 34.2884 40.4484C34.7635 39.2507 36.5 38 36.5 38C36.5 38 35.1667 39.5815 34.9239 40.7826C34.7505 41.6407 34.6649 42.4115 34.9239 43.2492C35.3097 44.4971 36.7274 45.6913 37.1201 45.6512C37.3617 44.9568 38.1495 43.6294 38.5 43C39.4506 41.2931 40.4681 40.8069 41.3971 40.4297C41.9919 40.1881 43.0034 40.0799 43.0034 40.0799C43.0034 40.0799 41.3971 40.6891 41 41C40.2493 41.5878 40.0622 41.9607 39.1986 43.5C38.8351 44.1478 38.2569 45.4061 37.9849 46.2081C37.8894 46.7151 37.9756 47.0442 38.1093 47.2672C38.2516 47.5043 38.4842 47.6815 38.7697 47.8113C39.0552 47.9411 39.3644 48.0098 39.6104 48.045C39.8564 48.0801 40.2991 48.1066 40.2991 48.1066C40.4531 48.12 42.1794 48.1814 43 48.1066C44.027 48.0129 45.0001 47.579 45.0001 47.579C45.0001 47.579 43.846 48.4158 43 48.7215C42.0294 49.0722 40.5251 49.1237 40.3865 49.1132C40.3827 49.1305 40.379 49.1483 40.3751 49.1665C40.3141 49.4548 40.2411 49.8541 40.1926 50.2981C40.0919 51.218 40.1114 52.2086 40.4428 52.8438C40.7978 53.5241 41.3421 53.8516 42.0067 53.9347C42.6981 54.0212 43.5408 53.8418 44.4197 53.4369C46.1863 52.6227 47.8926 50.9958 48.5359 49.3884C49.0155 48.1899 49.175 47.2277 49.1499 46.4112C49.1249 45.5961 48.915 44.896 48.6114 44.2192C48.299 43.5226 47.9114 42.8952 47.5104 42.1521C47.1191 41.427 46.7405 40.6325 46.5143 39.6964C46.4045 39.2423 46.4032 38.869 46.461 38.5495C46.5176 38.2365 46.6282 37.9952 46.6999 37.8337C46.7382 37.7475 46.7606 37.6957 46.7741 37.6525C46.7839 37.621 46.7846 37.6078 46.7846 37.6053C46.7859 37.6287 46.8015 37.582 46.6492 37.4306C46.563 37.345 46.5036 37.3138 46.4693 37.3014Z" fill="#FBF8EF"/>
<path d="M70 109.501C68.5331 100.7 78.9993 88.5003 78.9993 88.5003L81.5 91.0003C81.5 91.0003 72.3086 101.89 74 109.501C75 114 80.1579 117.299 84 118.5C92 121 97.2129 120.206 104 115.5C109.834 111.455 111 107.5 113.001 101.5C118.499 85.0098 107.922 72.4891 113.999 57.0003C115.34 53.585 115.886 51.4988 118 48.5001C120.467 45 124 43.001 124 43.001L124 46.5007C124 46.5007 121.81 47.7246 120 50.5003C118.277 53.1426 118.027 55.0176 117 58.0003C111.584 73.7328 120.775 85.7862 116 102.5C114 109.5 111.811 113.974 105 118.5C97.2944 123.621 92 125 82.4993 122C77.0612 120.283 71 115.5 70 109.501Z" fill="#65D157" stroke="#FBF8EF"/>
<path d="M86.8241 116.677C82.7852 114.962 80.9398 112.514 79.0723 108.543C77.7754 105.786 77.6287 103.959 77.3852 100.929L77.383 100.902C77.1131 97.5414 77.9995 92.2916 77.9995 92.2916L82.7263 93.9953C82.7263 93.9953 81.7772 98.5596 81.8692 101.513C81.9212 103.181 81.9294 104.143 82.3495 105.758C83.2889 109.368 84.4064 111.767 87.555 113.768C89.2113 114.82 90.3204 115.441 92.2825 115.471C94.3944 115.503 96.669 112.863 97.3778 113.657C97.9695 114.32 95.3997 117.024 93.2501 117.776C90.8467 118.616 89.1675 117.672 86.8241 116.677Z" fill="#65D157" stroke="#FBF8EF"/>
<path d="M114.83 68.7334C115.338 66.8359 117.638 66.1162 117.077 64.2334C116.504 62.3063 114.257 62.8382 112.576 61.7338C110.028 60.0584 109.586 57.2285 106.577 56.7334C102.776 56.1082 100.885 59.0984 98.076 61.7338C93.4906 66.0364 92.5366 70.0332 89 75.2323C85.5798 80.2603 80.4996 86.4998 80.4996 86.4998L82.5759 90.2323C82.5759 90.2323 89.9422 82.5611 96.0759 80.2323C100.518 78.546 108.076 78.2323 108.076 78.2323C108.076 78.2323 113.359 77.7156 114.83 75.2323C116.123 73.0486 114.174 71.185 114.83 68.7334Z" fill="#F8A300" stroke="#FBF8EF"/>
<path d="M89.0004 46.5807C85.1534 46.2035 83.1885 49.9003 82.0002 53.5787C80.4053 58.5156 85.857 60.9304 86.4999 66.0785C87.492 74.0226 82.0002 86.0785 82.0002 86.0785L83.9999 86.0785C83.9999 86.0785 87.2702 76.5855 90.4999 71.0785C93.3248 66.2618 98.6289 65.1526 99.0003 59.581C99.1584 57.2099 99.3976 55.5004 97.9997 53.5787C97.0116 52.2203 95.8421 52.0883 94.4997 51.0786C92.2824 49.4108 91.7616 46.8514 89.0004 46.5807Z" fill="#F8A300" stroke="#FBF8EF"/>
<path d="M90.3766 54.9388C85.3575 50.3321 73.1522 48.4993 73.1956 54.8769C73.2143 57.623 75.9031 57.2705 77.2283 59.1402C78.8164 61.3806 77.5001 63.7006 80.1303 64.4899C81.6265 64.9389 84.2301 64.9122 84.2301 64.9122C84.2301 64.9122 84.5012 69.5298 84.3048 72.4782C83.931 78.0878 81.2716 86.5512 81.2716 86.5512L83 89C83 89 86.603 78.8823 89.185 74.8091C91.5551 71.0701 95.8978 70.5594 96.5344 66.1785C97.2509 61.2479 93.5093 57.8139 90.4186 54.9773L90.3766 54.9388Z" fill="#F8A300" stroke="#FBF8EF"/>
<path d="M109 86.7392C98.8203 82.5875 81.0009 92.7361 81.0009 92.7361L80.0009 91.7356C80.0009 91.7356 91.1389 87.3892 97.5 83.2349C100.769 81.0997 101.601 77.453 105.5 77.2368C106.879 77.1604 107.619 77.713 109 77.7372C111.183 77.7754 112.338 76.4318 114.5 76.7356C116.923 77.0762 118.534 77.7784 120 79.7381C121.109 81.2207 120.683 82.5739 121.5 84.2352C122.003 85.2583 122.602 85.671 123.001 86.7392C123.349 87.6721 124.053 88.4108 123.501 89.2392C122.851 90.214 121.666 89.1187 120.501 89.2392C118.899 89.4049 118.111 90.2031 116.501 90.2392C113.269 90.3117 113.124 88.4212 109 86.7392Z" fill="#F8A300" stroke="#FBF8EF"/>
<path d="M105.5 65.0775C101.65 63.6662 98.6523 63.2132 95.0001 65.0775C89.606 67.8311 91.6265 74.3292 89.5 79.9998C86.5 88 80.7175 90.6666 80.7175 90.6666L82.5 91.5774C82.5 91.5774 95.8592 86.6057 101.5 78.5777C103.158 76.2189 105.713 74.3396 107.5 72.0774C108.698 70.5606 110.885 70.5069 111 68.5774C111.152 66.0361 107.89 65.9538 105.5 65.0775Z" fill="#F8A300" stroke="#FBF8EF"/>
<path d="M99.4742 87.6963C99.6926 88.133 99.7254 88.553 99.665 88.9147C99.6058 89.2688 99.4596 89.5559 99.3351 89.7492C99.2722 89.847 99.2123 89.9248 99.1665 89.9797C99.1436 90.0072 99.1238 90.0296 99.1088 90.0459C99.1013 90.0541 99.0947 90.061 99.0896 90.0662C99.0871 90.0688 99.0847 90.0712 99.0829 90.0731C99.082 90.074 99.0816 90.0753 99.0809 90.076L99.0791 90.0767C99.0763 90.0743 99.0469 90.0456 98.7255 89.7238L99.0785 90.078L98.8419 90.3147L98.5323 90.185C98.5318 90.1848 98.5302 90.1848 98.5289 90.1843C98.5262 90.1832 98.5218 90.1812 98.5162 90.1788C98.5047 90.1741 98.4873 90.1666 98.4645 90.1574C98.4185 90.1391 98.3507 90.1124 98.2654 90.0804C98.0944 90.016 97.8547 89.9306 97.5812 89.845C97.0899 89.6912 96.5292 89.5506 96.0662 89.518L95.8744 89.5117C95.0955 89.5117 94.6166 89.6738 93.9434 89.9222L93.1874 90.1962C91.5293 90.7704 90.5475 91.8193 89.4802 92.9528C88.4861 94.0087 87.4182 95.1359 85.6896 95.7796L85.3358 95.9022C84.9453 96.026 84.5905 96.1592 84.2356 96.2887C83.8859 96.4162 83.5339 96.5403 83.1766 96.6334C82.5361 96.8002 81.8752 96.8666 81.1062 96.7032L80.7692 96.6182C80.057 96.4123 79.4764 96.1439 78.9667 95.7562C78.5221 95.418 78.1493 95.0032 77.7928 94.4966L77.6418 94.2741C76.7328 92.9014 76.8203 91.6676 76.8426 90.3172L76.8455 89.7302C76.8148 87.4018 77.4409 85.9474 78.0371 84.0293L78.2885 83.1746C78.6514 81.86 79.1335 80.8687 79.5341 79.9333C79.8855 79.113 80.1884 78.3095 80.3509 77.2895L80.4113 76.8383C80.452 76.4718 80.5142 76.1368 80.5707 75.8353C80.6283 75.5279 80.6782 75.2629 80.7056 75.0051C80.7515 74.5729 80.7309 74.1803 80.5502 73.7463L80.4629 73.5571C80.3277 73.2921 80.0799 73.0331 79.7459 72.79C79.4154 72.5495 79.0267 72.3439 78.6472 72.1756C78.2695 72.0083 77.9118 71.8828 77.6478 71.7992C77.5162 71.7575 77.4086 71.7268 77.3351 71.7065C77.2985 71.6964 77.2701 71.689 77.2515 71.6842C77.2424 71.6818 77.2357 71.6797 77.2314 71.6786C77.2293 71.678 77.2275 71.6775 77.2267 71.6773L77.2258 71.6777L77.2263 71.6764L75.9091 71.3545L77.1208 70.7447L77.1299 70.741C77.135 70.7385 77.1426 70.7346 77.1518 70.7302C77.1703 70.7212 77.1967 70.7082 77.2303 70.6924C77.2975 70.6609 77.3937 70.6168 77.513 70.5657C77.7513 70.4636 78.0852 70.331 78.4651 70.2111C79.1943 69.9811 80.2109 69.7583 81.0465 69.999L81.2293 70.0563C83.07 70.68 83.5834 72.3402 84.2189 73.8491L84.333 74.1421C84.8498 75.5951 84.5854 76.8415 84.2438 78.0158C83.8749 79.2835 83.4392 80.4267 83.545 81.8461L83.5721 82.1319C83.649 82.7819 83.8098 83.3098 83.9654 83.8909C84.143 84.5542 84.3051 85.2612 84.2572 86.1849L84.239 86.4288C84.1235 87.6178 83.6224 88.9499 83.1465 90.0002C83.4023 89.8225 83.6801 89.6358 83.9812 89.4497C85.668 88.4066 88.0627 87.297 90.8495 87.0862L90.9444 87.0735C91.1783 87.0319 91.4988 86.9013 91.9521 86.6925C92.4361 86.4696 93.0306 86.1804 93.6771 85.9615C94.9934 85.5159 96.6042 85.3347 98.2895 86.4568L98.5002 86.6049C98.9694 86.9525 99.2854 87.3187 99.4742 87.6963Z" fill="#65D157" stroke="#FBF8EF"/>
<path d="M11.2274 4.33067C11.2274 4.33067 11.0289 3.11086 15.8418 2.48633C20.6547 1.8618 21.9917 3.66669 21.9917 3.66669C21.9917 3.66669 23.3211 3.44936 24.8738 4.29121C26.4264 5.13307 26.9898 7.22304 26.9898 7.22304C26.9898 7.22304 28.4039 8.08489 28.932 9.09176C29.4601 10.0986 29.3654 11.7513 29.3654 11.7513C29.3654 11.7513 30.3577 13.2277 30.4178 14.8566C30.4779 16.4854 29.7873 17.6899 29.7873 17.6899C29.7873 17.6899 30.1205 19.2731 29.689 20.436C29.2576 21.5988 27.908 22.9111 27.908 22.9111C27.908 22.9111 26.9693 25.3264 25.6331 26.0124C24.7138 26.4843 23.0216 26.438 23.0216 26.438C23.0216 26.438 22.256 28.4437 17.8749 28.3684C13.4938 28.2931 12.1215 26.5754 12.1215 26.5754C12.1215 26.5754 9.01668 27.628 6.10836 23.1867C3.20004 18.7454 4.72124 14.6745 4.72124 14.6745C4.72124 14.6745 3.3543 12.9895 4.91837 9.18158C6.48243 5.37371 11.2274 4.33067 11.2274 4.33067Z" fill="#65D157" stroke="#FBF8EF"/>
<path d="M24.5627 15.7689L28.0969 17.2645L24.7543 14.8076L27.8621 12.403L24.4595 13.6317L26.5624 7.95432L23.406 12.7305L21.6814 4.80903L21.9179 12.9622L12.551 5.75077L20.9406 13.6676L6.9355 14.8576L21.0388 15.701L13.9025 24.0985L22.0928 16.5845L22.7611 24.8392L23.5885 16.5123L26.5834 21.4856L24.5627 15.7689Z" fill="#FBF8EF"/>
<path d="M35 52C35 52 33.4574 52.3175 33 52.5C32.0882 52.8638 30.3757 53.8105 29.0317 54.1691C28.165 54.4004 27.4644 54.5198 26.7856 54.6396C26.0104 54.7765 25.3063 55.0006 24.3736 55.2887C22.2092 55.9573 18.9784 57.8725 18.9784 57.8725L21.2945 56.1361C22.1994 55.6043 22.8902 55.1589 23.9989 54.735C24.9894 54.3562 25.8174 54.1683 26.6152 54.0274C27.3129 53.9042 27.9325 53.8005 28.7603 53.5805C30.0646 53.2337 31.1098 52.7706 32.0172 52.4085C32.469 52.2282 35 52 35 52Z" fill="#FBF8EF"/>
<path d="M39.0396 51.5781C39.0396 51.5781 36.4385 52.3682 34.9321 53.2244C32.8649 54.3994 31.939 55.4919 29.7865 56.4995C27.5418 57.5503 25.9308 57.3355 23.6967 58.408C21.301 59.5581 18.6609 62.8209 18.6609 62.8209C18.6609 62.8209 21.0192 59.0572 23.3826 57.7798C25.5631 56.6013 27.2277 56.9221 29.4724 55.8714C31.6249 54.8638 32.4532 53.5782 34.618 52.5962C36.2041 51.8769 39.0396 51.5781 39.0396 51.5781Z" fill="#FBF8EF"/>
<path d="M87.9322 85.6303C87.9322 85.6303 89.4108 84.0212 90.2014 82.8817C92.0144 80.2687 92.3863 77.0174 93.5067 75.3728C94.708 73.6092 97.1434 71.4858 97.1434 71.4858C97.1434 71.4858 95.2573 73.9388 94.1636 75.7992C93.1546 77.5156 93.0569 80.9697 90.8583 83.3081C89.8803 84.3483 87.9322 85.6303 87.9322 85.6303Z" fill="#FBF8EF"/>
<path d="M35.0282 54.3104C35.0282 54.3104 33.9601 55.6301 32.7094 56.8233C30.9876 58.4661 29.4781 58.8577 27.8749 60.6098C26.1558 62.4885 24.3678 66.1638 24.3678 66.1638C24.3678 66.1638 25.6625 62.0895 27.2931 60.0968C28.7975 58.2584 30.3563 57.9057 32.1276 56.3104C33.2255 55.3216 35.0282 54.3104 35.0282 54.3104Z" fill="#FBF8EF"/>
<path d="M101.767 72.2631C101.767 72.2631 100.538 73.4344 99.461 74.7878C97.9785 76.6511 97.7587 78.2304 96.1492 79.9767C94.4233 81.8493 90.8555 83.886 90.8555 83.886C90.8555 83.886 94.8942 82.3382 96.7481 80.5511C98.4586 78.9023 98.6323 77.2741 100.06 75.3622C100.945 74.1773 101.767 72.2631 101.767 72.2631Z" fill="#FBF8EF"/>
<path d="M115.885 85.004C115.885 85.004 114.19 84.92 112.484 84.6497C110.137 84.2776 108.911 83.4393 106.548 83.2014C104.015 82.9464 100.012 83.5217 100.012 83.5217C100.012 83.5217 104.033 82.4151 106.603 82.5542C108.975 82.6824 110.199 83.5734 112.539 84.0024C113.99 84.2683 115.885 85.004 115.885 85.004Z" fill="#FBF8EF"/>
<path d="M86.8623 61.9958C86.8623 61.9958 86.6482 63.6801 86.6556 65.4089C86.6659 67.789 87.4437 69.1507 87.2901 71.5206C87.1253 74.0618 85.6917 77.8949 85.6917 77.8949C85.6917 77.8949 87.766 74.1425 88.0767 71.5865C88.3634 69.2282 87.5221 67.8578 87.4422 65.4748C87.3927 63.9978 86.8623 61.9958 86.8623 61.9958Z" fill="#FBF8EF"/>
<path d="M82.4998 55.4993C82.4998 55.4993 84.9761 58.2403 84.9983 59.965C85.0289 62.3394 84.5 65.9994 84.5 65.9994L83.5 64.9993C83.5 64.9993 84.4859 62.3739 84.4995 59.9993C84.508 58.5275 82.4998 55.4993 82.4998 55.4993Z" fill="#FBF8EF"/>
<path d="M7.48483 36.6212C7.48483 36.6212 6.79053 35.8489 7.01493 34.8787C7.23497 33.9274 9 33 9 33C9 33 7.72004 34.0487 7.5 35C7.2756 35.9702 7.48483 36.6212 7.48483 36.6212Z" fill="#FBF8EF"/>
<path d="M9.99989 36.5002C9.99989 36.5002 10.0904 35.7662 10.2145 35.3108C10.4171 34.5672 10.9998 33.5002 10.9998 33.5002C10.9998 33.5002 11.0056 34.6469 10.7423 35.3108C10.5405 35.8198 9.99989 36.5002 9.99989 36.5002Z" fill="#FBF8EF"/>
<path d="M12.0001 38.0005C12.0001 38.0005 12.7492 36.8295 12.9999 36.0002C13.2749 35.0902 13 34 13 34C13 34 13.76 35.2115 13.4849 36.1215C13.2342 36.9508 12.0001 38.0005 12.0001 38.0005Z" fill="#FBF8EF"/>
<path d="M37.6773 49.5208L37.6763 49.5189C37.6763 49.5189 34.7428 48.2431 32.7588 48.0773C29.1136 47.7728 27.0676 51.7772 23.5296 50.7856C21.679 50.2669 19.2197 48.1289 19.2197 48.1289C19.2197 48.1289 21.7789 49.8068 23.5979 50.1697C27.1893 50.8864 29.2139 46.885 32.8271 47.4615C34.8306 47.7812 37.6773 49.5208 37.6773 49.5208Z" fill="#FBF8EF"/>
<path d="M37.3391 48.5039L37.3382 48.502C37.3382 48.502 34.5196 46.9978 32.5567 46.6652C28.9501 46.0542 27.6998 45.9615 24.2559 44.6847C22.4545 44.0169 21.5498 42.4941 21.5498 42.4941C21.5498 42.4941 22.5914 43.5734 24.374 44.0855C27.8934 45.0968 29.1222 45.1907 32.6747 46.0661C34.6445 46.5515 37.3391 48.5039 37.3391 48.5039Z" fill="#FBF8EF"/>
<path d="M38.3438 56.6105L38.3416 56.6113C38.3416 56.6113 36.6443 59.3702 36.2818 61.328C35.6158 64.9252 34.1489 65.5395 32.7183 68.9391C31.97 70.7172 31.6251 72.4192 31.6251 72.4192C31.6251 72.4192 31.4604 70.5568 32.0305 68.7896C33.156 65.3005 34.6245 64.7079 35.5941 61.1786C36.1317 59.2216 38.3438 56.6105 38.3438 56.6105Z" fill="#FBF8EF"/>
<path d="M122.983 43.1477C122.983 43.1477 123.81 43.0753 123.989 46.3294C124.168 49.5834 122.893 50.3891 122.893 50.3891C122.893 50.3891 122.973 51.2901 122.332 52.288C121.691 53.2859 120.263 53.5594 120.263 53.5594C120.263 53.5594 119.616 54.4635 118.915 54.7671C118.215 55.0707 117.113 54.9252 117.113 54.9252C117.113 54.9252 116.075 55.5163 114.981 55.4756C113.887 55.4349 113.115 54.9126 113.115 54.9126C113.115 54.9126 112.038 55.0571 111.281 54.7103C110.524 54.3636 109.712 53.3947 109.712 53.3947C109.712 53.3947 108.141 52.6461 107.748 51.7171C107.478 51.0781 107.593 49.9472 107.593 49.9472C107.593 49.9472 106.288 49.3348 106.556 46.4047C106.824 43.4746 108.043 42.641 108.043 42.641C108.043 42.641 107.492 40.5095 110.611 38.7826C113.729 37.0558 116.38 38.2767 116.38 38.2767C116.38 38.2767 117.576 37.4451 120.048 38.6817C122.521 39.9183 122.983 43.1477 122.983 43.1477Z" fill="#65D157" stroke="#FBF8EF"/>
<path d="M114.661 51.5087L113.483 53.8011L115.295 51.6848L116.751 53.8854L116.097 51.5458L119.794 53.2361L116.753 50.8851L122.143 50.1238L116.671 49.8771L121.966 43.9628L116.248 49.1876L116.147 39.7498L114.881 49.1523L109.612 43.9561L114.237 49.8142L108.676 49.8515L114.211 50.8194L110.732 52.5778L114.661 51.5087Z" fill="#FBF8EF"/>
</g>
<defs>
<clipPath id="clip0_2741_1207">
<rect width="128" height="128" fill="white"/>
</clipPath>
</defs>
</svg>
