<svg width="128" height="128" viewBox="0 0 128 128" fill="none" xmlns="http://www.w3.org/2000/svg">
<g clip-path="url(#clip0_2811_360)">
<path d="M128 0H0V128H128V0Z" fill="#FBF8EF"/>
<path d="M6 64C6 31.9675 31.9675 6 64 6C96.0325 6 122 31.9675 122 64C122 96.0325 96.0325 122 64 122C31.9675 122 6 96.0325 6 64Z" fill="#FBF8EF" stroke="#65D157" stroke-width="4"/>
<path d="M14 64C14 36.3858 36.3858 14 64 14C91.6142 14 114 36.3858 114 64C114 91.6142 91.6142 114 64 114C36.3858 114 14 91.6142 14 64Z" fill="#FBF8EF" stroke="#65D157" stroke-width="4"/>
<path d="M64 49C72.2843 49 79 55.7157 79 64C79 72.2843 72.2843 79 64 79C55.7157 79 49 72.2843 49 64C49 55.7157 55.7157 49 64 49Z" fill="#FBF8EF" stroke="#FBF8EF"/>
<path d="M124 106V124H106L124 106Z" fill="#65D157"/>
<path d="M123.5 4.5V20.793L107.207 4.5H123.5Z" fill="#65D157" stroke="#65D157"/>
<path d="M20.793 4.5L4.5 20.793V4.5H20.793Z" fill="#65D157" stroke="#65D157"/>
<path d="M20.793 123.5H4.5V107.207L20.793 123.5Z" fill="#65D157" stroke="#65D157"/>
<path d="M62.2539 54.6572C65.0196 54.6572 68.0793 55.7621 70.4121 57.6123C72.6744 59.4066 74.3098 61.9516 74.2568 64.9336L74.2461 65.2236C73.9598 70.51 69.7366 74.8222 64.1699 74.8223C58.6276 74.8223 54.0928 70.5349 54.0928 65.1963C54.0928 62.6077 54.7007 59.9927 56.0244 58.0088C57.3609 56.006 59.4247 54.6574 62.2539 54.6572Z" fill="#F8A300" stroke="#FBF8EF"/>
<path d="M59.5593 52.7411C58.6211 52.3512 57.8056 51.4815 57.0989 50.4727C55.6841 48.4532 54.488 45.5376 53.573 43.6572L53.1919 42.9003C52.8068 42.1592 52.4116 41.4623 52.0276 40.779C51.5185 39.873 51.0268 38.9874 50.6203 38.0818C49.7995 36.2529 49.3235 34.3284 49.6943 31.8663L49.7592 31.4672C50.1015 29.4792 50.7565 27.6131 51.9627 26.2115C53.2675 24.6953 55.1718 23.7746 57.855 23.7746C59.5983 23.7747 60.6789 24.5197 61.6474 25.1695C62.5486 25.7741 63.3542 26.2983 64.6105 26.3303H64.8688C66.16 26.2953 66.9163 25.7464 67.7821 25.1184C68.6017 24.524 69.5151 23.8633 70.971 23.7829L71.27 23.7753C74.2559 23.7753 76.3349 24.6949 77.7334 26.2612C79.0284 27.7117 79.6877 29.6595 80.0101 31.771L80.0709 32.195C80.3731 34.5069 79.8275 36.3578 78.9985 38.1357C78.5878 39.0163 78.1017 39.8913 77.6181 40.7852C77.2531 41.4601 76.8861 42.1521 76.5402 42.8865L76.2018 43.6365C75.4169 45.4621 74.2313 48.3634 72.7719 50.414C72.0455 51.4347 71.2029 52.3163 70.246 52.7177C69.757 52.9227 69.2348 53.0039 68.6923 52.9096C68.1521 52.8157 67.6254 52.5539 67.1158 52.1273L66.959 51.9871C66.6097 51.6554 66.3734 51.2827 66.2395 50.8753C66.088 50.4143 66.0768 49.9383 66.1435 49.4715C66.274 48.5586 66.7206 47.5915 67.1365 46.701C67.5688 45.7754 67.9743 44.919 68.1336 44.1253C68.2872 43.36 68.1976 42.7252 67.7048 42.1774L67.3637 41.8155C67.0351 41.4852 66.7384 41.2468 66.4246 41.0794C66.0162 40.8616 65.5451 40.7452 64.8819 40.7452C64.2169 40.7452 63.7428 40.86 63.3337 41.0766C63.0204 41.2426 62.7244 41.4798 62.3994 41.8107L62.0631 42.1732C61.5665 42.7368 61.4779 43.3824 61.6316 44.1502C61.7909 44.9462 62.1962 45.8008 62.628 46.7224C63.0434 47.609 63.4907 48.5703 63.621 49.4791C63.6877 49.9442 63.6755 50.4189 63.5236 50.8788C63.3703 51.3429 63.0841 51.7622 62.648 52.1273L62.4574 52.2792C62.0109 52.6156 61.5547 52.8284 61.0895 52.9152C60.5543 53.0149 60.04 52.9409 59.5593 52.7411Z" fill="#F8A300" stroke="#FBF8EF"/>
<path d="M74.0052 58.6442C74.0332 57.6287 74.5532 56.5557 75.2419 55.5347C76.6208 53.4905 78.9147 51.3296 80.3427 49.8018L80.9114 49.1828C83.6702 46.1339 85.2497 43.7643 89.8908 41.9792L90.2788 41.8377C92.2255 41.1734 94.2269 41.1228 96.0017 41.828C97.7844 42.5364 99.2833 43.9864 100.253 46.2215L100.44 46.6791C101.064 48.3068 100.756 49.5825 100.496 50.7195C100.254 51.7774 100.053 52.7173 100.473 53.9018L100.566 54.1429C101.061 55.336 101.844 55.8455 102.741 56.429C103.589 56.9813 104.533 57.5975 105.13 58.9281L105.244 59.2046C106.311 61.9868 106.246 64.3496 105.312 66.2644C104.441 68.0495 102.85 69.3747 100.888 70.2814L100.491 70.4573C98.3137 71.3794 96.4157 71.5354 94.5012 71.4407C93.5519 71.3937 92.5917 71.2847 91.6042 71.1785C90.8599 71.0984 90.0947 71.0197 89.2879 70.9665L88.4662 70.9222C86.4806 70.8432 83.3471 70.7753 80.9098 70.1471C79.6967 69.8344 78.5718 69.3634 77.8543 68.6137C77.4878 68.2306 77.225 67.772 77.1187 67.2318C77.0129 66.6938 77.0687 66.1083 77.2846 65.4797L77.3593 65.2831C77.5439 64.8382 77.8073 64.4841 78.1396 64.2131C78.5158 63.9066 78.9563 63.7257 79.416 63.6208C80.3151 63.4156 81.3779 63.4863 82.3583 63.5557C83.3773 63.6278 84.3222 63.6998 85.1202 63.5642C85.8899 63.4335 86.4504 63.1226 86.7854 62.4662L87.0011 62.0181C87.1919 61.593 87.3082 61.2307 87.3521 60.8777C87.4092 60.4184 87.3491 59.9368 87.1116 59.3177C86.8735 58.6968 86.5965 58.2952 86.2477 57.9909C85.9805 57.7577 85.653 57.5663 85.2278 57.3814L84.7688 57.1973C84.0648 56.9354 83.4302 57.0839 82.7684 57.5024C82.0823 57.9362 81.4295 58.6206 80.7236 59.3539C80.0447 60.0592 79.3073 60.8211 78.5055 61.2683C78.0951 61.4971 77.6475 61.6558 77.1638 61.6787C76.6755 61.7017 76.1815 61.5846 75.6845 61.3083L75.4744 61.1847C75.0004 60.8883 74.6383 60.5385 74.3907 60.1353C74.1059 59.6713 73.9908 59.1646 74.0052 58.6442Z" fill="#F8A300" stroke="#FBF8EF"/>
<path d="M54.5269 58.196C54.4376 57.184 53.8537 56.1444 53.1046 55.1668C51.6047 53.2096 49.1846 51.1912 47.6669 49.7524L47.0542 49.1585C46.4535 48.5647 45.8878 47.973 45.3284 47.3956C44.5865 46.6299 43.8558 45.8881 43.092 45.2246C41.5558 43.89 39.8637 42.8531 37.5889 42.5036L37.1892 42.4462C35.1906 42.1811 33.2144 42.2439 31.5153 42.9697C29.7918 43.7062 28.409 45.1011 27.5771 47.3811L27.4177 47.8492C26.8929 49.5116 27.2779 50.7664 27.606 51.8856C27.9112 52.927 28.1686 53.853 27.8208 55.0607L27.743 55.307C27.3208 56.5277 26.5697 57.0836 25.7101 57.7203C24.8966 58.3228 23.9915 58.9949 23.4765 60.3591L23.3792 60.6419C22.4809 63.487 22.7155 65.7802 23.7787 67.6032C24.7658 69.2954 26.4274 70.5146 28.38 71.4029L28.7741 71.5766C31.1461 72.5839 33.0654 72.6272 34.9553 72.361C35.8862 72.2299 36.8187 72.0219 37.772 71.8253C38.6121 71.6519 39.4817 71.4838 40.4248 71.3703L40.8337 71.3249C42.811 71.1261 45.9346 70.8691 48.3295 70.0949C49.5216 69.7095 50.6159 69.1714 51.2868 68.3797C51.6296 67.9752 51.8642 67.5016 51.9377 66.9559C52.0108 66.4125 51.9197 65.8315 51.6663 65.217L51.5798 65.0253C51.3687 64.5924 51.0844 64.2548 50.7363 64.0044C50.3423 63.7211 49.8917 63.5672 49.4265 63.4902C48.5167 63.3398 47.46 63.4745 46.4856 63.603C45.4728 63.7365 44.534 63.8654 43.7292 63.7783C42.9531 63.6943 42.3748 63.4178 42.0008 62.7829L41.7584 62.3486C41.5423 61.9358 41.4044 61.5811 41.3392 61.2314C41.2545 60.7764 41.2853 60.2921 41.485 59.6597C41.6852 59.0256 41.9375 58.608 42.2672 58.2832C42.5199 58.0344 42.8352 57.8235 43.2485 57.6133L43.6955 57.4018C44.3824 57.0979 45.0248 57.2078 45.7107 57.5855C46.4217 57.9771 47.1147 58.6208 47.8635 59.3101C48.5838 59.9732 49.3659 60.6891 50.1932 61.087C50.6167 61.2907 51.073 61.422 51.5573 61.4156C52.0461 61.4092 52.5321 61.2625 53.0115 60.9566L53.2137 60.8206C53.669 60.4961 54.0093 60.1251 54.2321 59.7076C54.4884 59.2273 54.5726 58.7145 54.5269 58.196Z" fill="#F8A300" stroke="#FBF8EF"/>
<path d="M54.7956 71.3751C53.8094 71.1309 52.6366 71.3453 51.4686 71.7363C49.1304 72.519 46.4353 74.1523 44.5816 75.1204L43.8242 75.5025C43.0718 75.8705 42.3353 76.1987 41.615 76.5227C40.6601 76.9522 39.7293 77.3755 38.8587 77.8649C37.1018 78.8526 35.572 80.1189 34.4497 82.3006L34.2619 82.6753C33.3419 84.55 32.7583 86.44 32.9002 88.264C33.0445 90.1167 33.931 91.834 35.8143 93.3522L36.204 93.6533C37.6058 94.6896 38.9176 94.7331 40.0827 94.7863C41.1668 94.8359 42.1262 94.8934 43.1554 95.6146L43.3631 95.7681C44.3805 96.564 44.6623 97.4549 44.9851 98.4746C45.2907 99.4398 45.6324 100.514 46.7553 101.444L46.9912 101.628C49.3931 103.404 51.6789 103.919 53.7659 103.504C55.7062 103.119 57.4024 101.943 58.8144 100.385L59.0937 100.068C60.6381 98.2605 61.2974 96.4644 61.7016 94.5776C61.9018 93.6432 62.0413 92.6781 62.1925 91.6918C62.3065 90.9479 62.4286 90.1858 62.5897 89.3937L62.7646 88.5903C63.2189 86.6557 63.9905 83.618 64.0361 81.1015C64.0588 79.8489 63.9054 78.6391 63.3746 77.7474C63.1033 77.2919 62.7317 76.9161 62.2394 76.6694C61.7492 76.4237 61.1701 76.3211 60.5067 76.3612L60.2973 76.3807C59.8192 76.4398 59.4076 76.599 59.0578 76.8469C58.6618 77.1275 58.3699 77.5036 58.146 77.9186C57.7081 78.7302 57.4924 79.7733 57.2973 80.7366C57.0946 81.7379 56.9116 82.6676 56.5678 83.4005C56.2362 84.1073 55.7868 84.5644 55.0649 84.7119L54.5754 84.8C54.1148 84.8703 53.7346 84.8856 53.3827 84.8336C52.9248 84.766 52.4768 84.5795 51.9436 84.1852C51.4089 83.7899 51.0959 83.4156 50.8958 82.9983C50.7425 82.6785 50.6455 82.3118 50.5809 81.8526L50.526 81.3611C50.4618 80.6127 50.7744 80.0409 51.3544 79.5149C51.9557 78.9696 52.7897 78.5233 53.6849 78.039C54.5459 77.5731 55.4771 77.0661 56.1222 76.4128C56.4523 76.0785 56.7248 75.6896 56.876 75.2295C57.0287 74.7651 57.0478 74.2578 56.9142 73.705L56.8513 73.4696C56.6923 72.9336 56.4519 72.4912 56.1295 72.1449C55.7585 71.7465 55.3008 71.5003 54.7956 71.3751Z" fill="#F8A300" stroke="#FBF8EF"/>
<path d="M75.3831 71.3751C76.3693 71.1309 77.5421 71.3453 78.7101 71.7363C81.0483 72.519 83.7434 74.1523 85.5972 75.1204L86.3492 75.5056C90.0651 77.3833 93.1057 78.5424 95.6942 82.243L95.9512 82.6232C97.1945 84.5255 97.7852 86.4384 97.5483 88.2886C97.2945 90.2702 96.1043 92.0786 93.9747 93.6533C92.5729 94.6896 91.2611 94.7331 90.096 94.7863C89.012 94.8359 88.0525 94.8934 87.0233 95.6146L86.8157 95.7681C85.7982 96.564 85.5164 97.4549 85.1936 98.4746C84.888 99.4398 84.5463 100.514 83.4234 101.444L83.1875 101.628C80.7784 103.409 78.3542 103.917 76.2073 103.505C74.203 103.121 72.4878 101.944 71.2865 100.351L71.0536 100.026C68.5768 96.4213 68.4349 93.3135 67.5929 89.3873L67.4141 88.5903C66.9598 86.6557 66.1883 83.618 66.1426 81.1015C66.1199 79.8489 66.2733 78.6391 66.8041 77.7474C67.0754 77.2919 67.4471 76.9161 67.9393 76.6694C68.4295 76.4237 69.0086 76.3211 69.672 76.3612L69.8814 76.3807C70.3595 76.4398 70.7711 76.599 71.121 76.8469C71.5169 77.1275 71.8088 77.5036 72.0328 77.9186C72.4706 78.7302 72.6864 79.7733 72.8814 80.7366C73.0841 81.7379 73.2672 82.6676 73.6109 83.4005C73.9425 84.1073 74.3919 84.5644 75.1139 84.7119L75.6033 84.8C76.0639 84.8703 76.4442 84.8856 76.796 84.8336C77.2539 84.766 77.7019 84.5795 78.2351 84.1852C78.7698 83.7899 79.0828 83.4156 79.2829 82.9983C79.4362 82.6785 79.5332 82.3118 79.5978 81.8526L79.6527 81.3611C79.7169 80.6127 79.4043 80.0409 78.8243 79.5149C78.223 78.9696 77.389 78.5233 76.4939 78.039C75.6328 77.5731 74.7016 77.0661 74.0565 76.4128C73.7264 76.0785 73.4539 75.6896 73.3027 75.2295C73.15 74.7651 73.1309 74.2578 73.2645 73.705L73.3274 73.4696C73.4864 72.9336 73.7268 72.4912 74.0492 72.1449C74.4202 71.7465 74.8779 71.5003 75.3831 71.3751Z" fill="#F8A300" stroke="#FBF8EF"/>
<path d="M74.3954 99.5021L73.7578 98.8633C73.7578 98.8633 77.2368 98.4692 79.125 97.3933C81.6282 95.9669 81.6513 93.536 83.9779 91.8367C86.1258 90.2679 88.2542 90.8567 90.1798 89.0218C91.4429 87.8183 92.6728 85.3146 92.6728 85.3146L93.5603 86.0867C93.5603 86.0867 92.9395 89.9495 91.6438 91.1978C89.6977 93.073 87.5337 92.5068 85.3797 94.139C83.1811 95.805 83.1949 98.1628 80.7837 99.5026C78.9857 100.502 74.3954 99.5021 74.3954 99.5021Z" fill="#FBF8EF" stroke="#F8A300"/>
<path d="M36.7543 85.3098L37.2319 84.5439C37.2319 84.5439 38.4046 87.843 39.8806 89.438C41.8373 91.5527 44.2102 91.024 46.3928 92.9047C48.4077 94.641 48.3168 96.8475 50.5405 98.3069C51.999 99.2642 54.7164 99.8945 54.7164 99.8945L54.1656 100.934C54.1656 100.934 50.2627 101.205 48.7531 100.226C46.4855 98.7559 46.5463 96.5198 44.4682 94.792C42.3472 93.0285 40.0538 93.5765 38.2022 91.5318C36.8214 90.0071 36.7543 85.3098 36.7543 85.3098Z" fill="#FBF8EF" stroke="#F8A300"/>
<path d="M35.3887 44.8502L36.2815 44.9824C36.2815 44.9824 33.7248 47.3744 32.8514 49.3644C31.6936 52.0026 33.1255 53.9672 32.2723 56.7191C31.4846 59.2596 29.4252 60.057 28.9747 62.6784C28.6792 64.3978 29.1859 67.1409 29.1859 67.1409L28.013 67.0508C28.013 67.0508 26.2065 63.5805 26.5014 61.8056C26.9444 59.1396 29.0189 58.3028 29.7736 55.7078C30.544 53.0591 29.1261 51.1751 30.2617 48.6613C31.1085 46.7867 35.3887 44.8502 35.3887 44.8502Z" fill="#FBF8EF" stroke="#F8A300"/>
<path d="M92.0328 43.8041L91.1472 43.9785C91.1472 43.9785 93.8144 46.2467 94.781 48.1931C96.0625 50.7735 94.7253 52.8037 95.7079 55.5121C96.6151 58.0124 98.7099 58.7114 99.2841 61.3085C99.6608 63.012 99.2845 65.776 99.2845 65.776L100.452 65.6304C100.452 65.6304 102.092 62.0784 101.713 60.3195C101.144 57.6775 99.0327 56.9399 98.1559 54.3836C97.2609 51.7744 98.5879 49.8253 97.3345 47.3681C96.3998 45.5357 92.0328 43.8041 92.0328 43.8041Z" fill="#FBF8EF" stroke="#F8A300"/>
<path d="M52.1805 29.7407L52.0371 30.6318C52.0371 30.6318 55.0892 28.9163 57.25 28.6843C60.1146 28.3767 61.5555 30.3348 64.4365 30.3519C67.0962 30.3677 68.4781 28.6451 71.1131 29.0067C72.8416 29.244 75.3038 30.555 75.3038 30.555L75.5719 29.4096C75.5719 29.4096 72.8087 26.64 71.0276 26.3854C68.3522 26.0031 66.9283 27.7283 64.2265 27.6646C61.4689 27.5996 60.1007 25.6792 57.3613 26.0031C55.3185 26.2447 52.1805 29.7407 52.1805 29.7407Z" fill="#FBF8EF" stroke="#F8A300"/>
</g>
<defs>
<clipPath id="clip0_2811_360">
<rect width="128" height="128" fill="white"/>
</clipPath>
</defs>
</svg>
