<svg width="128" height="128" viewBox="0 0 128 128" fill="none" xmlns="http://www.w3.org/2000/svg">
<g clip-path="url(#clip0_2811_403)">
<path d="M128 0H0V128H128V0Z" fill="#FBF8EF"/>
<path d="M6 64C6 31.9675 31.9675 6 64 6C96.0325 6 122 31.9675 122 64C122 96.0325 96.0325 122 64 122C31.9675 122 6 96.0325 6 64Z" fill="#FBF8EF" stroke="#63BCE5" stroke-width="4"/>
<path d="M14 64C14 36.3858 36.3858 14 64 14C91.6142 14 114 36.3858 114 64C114 91.6142 91.6142 114 64 114C36.3858 114 14 91.6142 14 64Z" fill="#FBF8EF" stroke="#63BCE5" stroke-width="4"/>
<path d="M64 49C72.2843 49 79 55.7157 79 64C79 72.2843 72.2843 79 64 79C55.7157 79 49 72.2843 49 64C49 55.7157 55.7157 49 64 49Z" fill="#FBF8EF" stroke="#FBF8EF"/>
<path d="M124 106V124H106L124 106Z" fill="#63BCE5"/>
<path d="M106 4H124V22L106 4Z" fill="#63BCE5"/>
<path d="M22 4H4V22L22 4Z" fill="#63BCE5"/>
<path d="M22 124H4V106L22 124Z" fill="#63BCE5"/>
<path d="M62.2539 54.6562C65.0196 54.6562 68.0793 55.7611 70.4121 57.6113C72.6744 59.4057 74.3098 61.9506 74.2568 64.9326L74.2461 65.2227C73.9598 70.509 69.7366 74.8212 64.1699 74.8213C58.6276 74.8213 54.0928 70.534 54.0928 65.1953C54.0928 62.6068 54.7007 59.9917 56.0244 58.0078C57.3609 56.005 59.4247 54.6564 62.2539 54.6562Z" fill="#F8A300" stroke="#FBF8EF"/>
<path d="M59.5593 52.7411C58.6211 52.3512 57.8056 51.4815 57.0989 50.4727C55.6841 48.4532 54.488 45.5376 53.573 43.6572L53.1919 42.9003C52.8068 42.1592 52.4116 41.4623 52.0276 40.779C51.5185 39.873 51.0268 38.9874 50.6203 38.0818C49.7995 36.2529 49.3235 34.3284 49.6943 31.8663L49.7592 31.4672C50.1015 29.4792 50.7565 27.6131 51.9627 26.2115C53.2675 24.6953 55.1718 23.7746 57.855 23.7746C59.5983 23.7747 60.6789 24.5197 61.6474 25.1695C62.5486 25.7741 63.3542 26.2983 64.6105 26.3303H64.8688C66.16 26.2953 66.9163 25.7464 67.7821 25.1184C68.6017 24.524 69.5151 23.8633 70.971 23.7829L71.27 23.7753C74.2559 23.7753 76.3349 24.6949 77.7334 26.2612C79.0284 27.7117 79.6877 29.6595 80.0101 31.771L80.0709 32.195C80.3731 34.5069 79.8275 36.3578 78.9985 38.1357C78.5878 39.0163 78.1017 39.8913 77.6181 40.7852C77.2531 41.4601 76.8861 42.1521 76.5402 42.8865L76.2018 43.6365C75.4169 45.4621 74.2313 48.3634 72.7719 50.414C72.0455 51.4347 71.2029 52.3163 70.246 52.7177C69.757 52.9227 69.2348 53.0039 68.6923 52.9096C68.1521 52.8157 67.6254 52.5539 67.1158 52.1273L66.959 51.9871C66.6097 51.6554 66.3734 51.2827 66.2395 50.8753C66.088 50.4143 66.0768 49.9383 66.1435 49.4715C66.274 48.5586 66.7206 47.5915 67.1365 46.701C67.5688 45.7754 67.9743 44.919 68.1336 44.1253C68.2872 43.36 68.1976 42.7252 67.7048 42.1774L67.3637 41.8155C67.0351 41.4852 66.7384 41.2468 66.4246 41.0794C66.0162 40.8616 65.5451 40.7452 64.8819 40.7452C64.2169 40.7452 63.7428 40.86 63.3337 41.0766C63.0204 41.2426 62.7244 41.4798 62.3994 41.8107L62.0631 42.1732C61.5665 42.7368 61.4779 43.3824 61.6316 44.1502C61.7909 44.9462 62.1962 45.8008 62.628 46.7224C63.0434 47.609 63.4907 48.5703 63.621 49.4791C63.6877 49.9442 63.6755 50.4189 63.5236 50.8788C63.3703 51.3429 63.0841 51.7622 62.648 52.1273L62.4574 52.2792C62.0109 52.6156 61.5547 52.8284 61.0895 52.9152C60.5543 53.0149 60.04 52.9409 59.5593 52.7411Z" fill="#F8A300" stroke="#FBF8EF"/>
<path d="M74.0049 58.6442C74.033 57.6287 74.553 56.5557 75.2417 55.5347C76.6206 53.4905 78.9144 51.3296 80.3425 49.8018L80.9112 49.1828C83.67 46.1339 85.2495 43.7643 89.8905 41.9792L90.2785 41.8377C92.2252 41.1734 94.2266 41.1228 96.0015 41.828C97.7841 42.5364 99.283 43.9864 100.252 46.2215L100.44 46.6791C101.064 48.3068 100.755 49.5825 100.496 50.7195C100.254 51.7774 100.053 52.7173 100.473 53.9018L100.565 54.1429C101.061 55.336 101.844 55.8455 102.74 56.429C103.589 56.9813 104.533 57.5975 105.129 58.9281L105.243 59.2046C106.311 61.9868 106.246 64.3496 105.312 66.2644C104.441 68.0495 102.85 69.3747 100.888 70.2814L100.491 70.4573C98.3134 71.3794 96.4154 71.5354 94.501 71.4407C93.5517 71.3937 92.5915 71.2847 91.604 71.1785C90.8597 71.0984 90.0945 71.0197 89.2876 70.9665L88.466 70.9222C86.4803 70.8432 83.3469 70.7753 80.9096 70.1471C79.6964 69.8344 78.5716 69.3634 77.8541 68.6137C77.4875 68.2306 77.2247 67.772 77.1184 67.2318C77.0127 66.6938 77.0685 66.1083 77.2843 65.4797L77.3591 65.2831C77.5437 64.8382 77.807 64.4841 78.1394 64.2131C78.5155 63.9066 78.956 63.7257 79.4158 63.6208C80.3148 63.4156 81.3777 63.4863 82.358 63.5557C83.377 63.6278 84.3219 63.6998 85.12 63.5642C85.8896 63.4335 86.4502 63.1226 86.7852 62.4662L87.0009 62.0181C87.1916 61.593 87.3079 61.2307 87.3518 60.8777C87.4089 60.4184 87.3489 59.9368 87.1114 59.3177C86.8732 58.6968 86.5962 58.2952 86.2475 57.9909C85.9802 57.7577 85.6528 57.5663 85.2275 57.3814L84.7686 57.1973C84.0645 56.9354 83.43 57.0839 82.7682 57.5024C82.0821 57.9362 81.4292 58.6206 80.7234 59.3539C80.0445 60.0592 79.3071 60.8211 78.5053 61.2683C78.0949 61.4971 77.6473 61.6558 77.1635 61.6787C76.6753 61.7017 76.1813 61.5846 75.6843 61.3083L75.4742 61.1847C75.0002 60.8883 74.6381 60.5385 74.3905 60.1353C74.1056 59.6713 73.9906 59.1646 74.0049 58.6442Z" fill="#F8A300" stroke="#FBF8EF"/>
<path d="M54.5269 58.196C54.4376 57.184 53.8537 56.1444 53.1046 55.1668C51.6047 53.2096 49.1846 51.1912 47.6669 49.7524L47.0542 49.1585C46.4535 48.5647 45.8878 47.973 45.3284 47.3956C44.5865 46.6299 43.8558 45.8881 43.092 45.2246C41.5558 43.89 39.8637 42.8531 37.5889 42.5036L37.1892 42.4462C35.1906 42.1811 33.2144 42.2439 31.5153 42.9697C29.7918 43.7062 28.409 45.1011 27.5771 47.3811L27.4177 47.8492C26.8929 49.5116 27.2779 50.7664 27.606 51.8856C27.9112 52.927 28.1686 53.853 27.8208 55.0607L27.743 55.307C27.3208 56.5277 26.5697 57.0836 25.7101 57.7203C24.8966 58.3228 23.9915 58.9949 23.4765 60.3591L23.3792 60.6419C22.4809 63.487 22.7155 65.7802 23.7787 67.6032C24.7658 69.2954 26.4274 70.5146 28.38 71.4029L28.7741 71.5766C31.1461 72.5839 33.0654 72.6272 34.9553 72.361C35.8862 72.2299 36.8187 72.0219 37.772 71.8253C38.6121 71.6519 39.4817 71.4838 40.4248 71.3703L40.8337 71.3249C42.811 71.1261 45.9346 70.8691 48.3295 70.0949C49.5216 69.7095 50.6159 69.1714 51.2868 68.3797C51.6296 67.9752 51.8642 67.5016 51.9377 66.9559C52.0108 66.4125 51.9197 65.8315 51.6663 65.217L51.5798 65.0253C51.3687 64.5924 51.0844 64.2548 50.7363 64.0044C50.3423 63.7211 49.8917 63.5672 49.4265 63.4902C48.5167 63.3398 47.46 63.4745 46.4856 63.603C45.4728 63.7365 44.534 63.8654 43.7292 63.7783C42.9531 63.6943 42.3748 63.4178 42.0008 62.7829L41.7584 62.3486C41.5423 61.9358 41.4044 61.5811 41.3392 61.2314C41.2545 60.7764 41.2853 60.2921 41.485 59.6597C41.6852 59.0256 41.9375 58.608 42.2672 58.2832C42.5199 58.0344 42.8352 57.8235 43.2485 57.6133L43.6955 57.4018C44.3824 57.0979 45.0248 57.2078 45.7107 57.5855C46.4217 57.9771 47.1147 58.6208 47.8635 59.3101C48.5838 59.9732 49.3659 60.6891 50.1932 61.087C50.6167 61.2907 51.073 61.422 51.5573 61.4156C52.0461 61.4092 52.5321 61.2625 53.0115 60.9566L53.2137 60.8206C53.669 60.4961 54.0093 60.1251 54.2321 59.7076C54.4884 59.2273 54.5726 58.7145 54.5269 58.196Z" fill="#F8A300" stroke="#FBF8EF"/>
<path d="M54.7956 71.3741C53.8094 71.1299 52.6366 71.3444 51.4686 71.7353C49.1304 72.5181 46.4353 74.1513 44.5816 75.1194L43.8242 75.5015C43.0718 75.8696 42.3353 76.1977 41.615 76.5217C40.6601 76.9513 39.7293 77.3745 38.8587 77.8639C37.1018 78.8516 35.572 80.1179 34.4497 82.2996L34.2619 82.6744C33.3419 84.5491 32.7583 86.439 32.9002 88.263C33.0445 90.1158 33.931 91.833 35.8143 93.3513L36.204 93.6523C37.6058 94.6886 38.9176 94.7321 40.0827 94.7854C41.1668 94.835 42.1262 94.8924 43.1554 95.6136L43.3631 95.7672C44.3805 96.563 44.6623 97.4539 44.9851 98.4737C45.2907 99.4389 45.6324 100.513 46.7553 101.443L46.9912 101.627C49.3931 103.403 51.6789 103.918 53.7659 103.503C55.7062 103.118 57.4024 101.942 58.8144 100.384L59.0937 100.067C60.6381 98.2596 61.2974 96.4634 61.7016 94.5766C61.9018 93.6422 62.0413 92.6771 62.1925 91.6908C62.3065 90.9469 62.4286 90.1848 62.5897 89.3927L62.7646 88.5894C63.2189 86.6548 63.9905 83.617 64.0361 81.1005C64.0588 79.8479 63.9054 78.6381 63.3746 77.7465C63.1033 77.2909 62.7317 76.9151 62.2394 76.6684C61.7492 76.4227 61.1701 76.3202 60.5067 76.3602L60.2973 76.3797C59.8192 76.4388 59.4076 76.598 59.0578 76.8459C58.6618 77.1265 58.3699 77.5027 58.146 77.9177C57.7081 78.7293 57.4924 79.7724 57.2973 80.7356C57.0946 81.7369 56.9116 82.6667 56.5678 83.3995C56.2362 84.1063 55.7868 84.5634 55.0649 84.7109L54.5754 84.7991C54.1148 84.8693 53.7346 84.8846 53.3827 84.8326C52.9248 84.765 52.4768 84.5785 51.9436 84.1842C51.4089 83.7889 51.0959 83.4147 50.8958 82.9973C50.7425 82.6775 50.6455 82.3108 50.5809 81.8516L50.526 81.3602C50.4618 80.6118 50.7744 80.0399 51.3544 79.5139C51.9557 78.9686 52.7897 78.5224 53.6849 78.038C54.5459 77.5722 55.4771 77.0651 56.1222 76.4119C56.4523 76.0775 56.7248 75.6886 56.876 75.2285C57.0287 74.7641 57.0478 74.2568 56.9142 73.704L56.8513 73.4686C56.6923 72.9327 56.4519 72.4903 56.1295 72.1439C55.7585 71.7455 55.3008 71.4993 54.7956 71.3741Z" fill="#F8A300" stroke="#FBF8EF"/>
<path d="M75.3831 71.3741C76.3693 71.1299 77.5421 71.3444 78.7101 71.7353C81.0483 72.5181 83.7434 74.1513 85.5972 75.1194L86.3492 75.5046C90.0651 77.3823 93.1057 78.5415 95.6942 82.2421L95.9512 82.6222C97.1945 84.5245 97.7852 86.4374 97.5483 88.2877C97.2945 90.2692 96.1043 92.0777 93.9747 93.6523C92.5729 94.6886 91.2611 94.7321 90.096 94.7854C89.012 94.835 88.0525 94.8924 87.0233 95.6136L86.8157 95.7672C85.7982 96.563 85.5164 97.4539 85.1936 98.4737C84.888 99.4389 84.5463 100.513 83.4234 101.443L83.1875 101.627C80.7784 103.408 78.3542 103.916 76.2073 103.504C74.203 103.12 72.4878 101.943 71.2865 100.35L71.0536 100.025C68.5768 96.4203 68.4349 93.3126 67.5929 89.3864L67.4141 88.5894C66.9598 86.6548 66.1883 83.617 66.1426 81.1005C66.1199 79.8479 66.2733 78.6381 66.8041 77.7465C67.0754 77.2909 67.4471 76.9151 67.9393 76.6684C68.4295 76.4227 69.0086 76.3202 69.672 76.3602L69.8814 76.3797C70.3595 76.4388 70.7711 76.598 71.121 76.8459C71.5169 77.1265 71.8088 77.5027 72.0328 77.9177C72.4706 78.7293 72.6864 79.7724 72.8814 80.7356C73.0841 81.7369 73.2672 82.6667 73.6109 83.3995C73.9425 84.1063 74.3919 84.5634 75.1139 84.7109L75.6033 84.7991C76.0639 84.8693 76.4442 84.8846 76.796 84.8326C77.2539 84.765 77.7019 84.5785 78.2351 84.1842C78.7698 83.7889 79.0828 83.4147 79.2829 82.9973C79.4362 82.6775 79.5332 82.3108 79.5978 81.8516L79.6527 81.3602C79.7169 80.6118 79.4043 80.0399 78.8243 79.5139C78.223 78.9686 77.389 78.5224 76.4939 78.038C75.6328 77.5722 74.7016 77.0651 74.0565 76.4119C73.7264 76.0775 73.4539 75.6886 73.3027 75.2285C73.15 74.7641 73.1309 74.2568 73.2645 73.704L73.3274 73.4686C73.4864 72.9327 73.7268 72.4903 74.0492 72.1439C74.4202 71.7455 74.8779 71.4993 75.3831 71.3741Z" fill="#F8A300" stroke="#FBF8EF"/>
<path d="M74.3954 99.5011L73.7578 98.8623C73.7578 98.8623 77.2368 98.4682 79.125 97.3923C81.6282 95.9659 81.6513 93.535 83.9779 91.8357C86.1258 90.2669 88.2542 90.8557 90.1798 89.0208C91.4429 87.8173 92.6728 85.3136 92.6728 85.3136L93.5603 86.0857C93.5603 86.0857 92.9395 89.9485 91.6438 91.1969C89.6977 93.072 87.5337 92.5058 85.3797 94.138C83.1811 95.804 83.1949 98.1618 80.7837 99.5017C78.9857 100.501 74.3954 99.5011 74.3954 99.5011Z" fill="#FBF8EF" stroke="#F8A300"/>
<path d="M36.7543 85.3088L37.2319 84.543C37.2319 84.543 38.4046 87.842 39.8806 89.437C41.8373 91.5517 44.2102 91.023 46.3928 92.9037C48.4077 94.64 48.3168 96.8465 50.5405 98.3059C51.999 99.2632 54.7164 99.8935 54.7164 99.8935L54.1656 100.933C54.1656 100.933 50.2627 101.204 48.7531 100.225C46.4855 98.7549 46.5463 96.5189 44.4682 94.791C42.3472 93.0275 40.0538 93.5755 38.2022 91.5309C36.8214 90.0062 36.7543 85.3088 36.7543 85.3088Z" fill="#FBF8EF" stroke="#F8A300"/>
<path d="M35.3887 44.8492L36.2815 44.9814C36.2815 44.9814 33.7248 47.3734 32.8514 49.3634C31.6936 52.0016 33.1255 53.9663 32.2723 56.7181C31.4846 59.2586 29.4252 60.056 28.9747 62.6774C28.6792 64.3968 29.1859 67.1399 29.1859 67.1399L28.013 67.0498C28.013 67.0498 26.2065 63.5795 26.5014 61.8046C26.9444 59.1387 29.0189 58.3019 29.7736 55.7068C30.544 53.0582 29.1261 51.1742 30.2617 48.6603C31.1085 46.7857 35.3887 44.8492 35.3887 44.8492Z" fill="#FBF8EF" stroke="#F8A300"/>
<path d="M92.0328 43.8031L91.1472 43.9775C91.1472 43.9775 93.8144 46.2457 94.781 48.1921C96.0625 50.7725 94.7253 52.8028 95.7079 55.5111C96.6151 58.0114 98.7099 58.7104 99.2841 61.3075C99.6608 63.011 99.2845 65.775 99.2845 65.775L100.452 65.6295C100.452 65.6295 102.092 62.0774 101.713 60.3185C101.144 57.6765 99.0327 56.939 98.1559 54.3826C97.2609 51.7734 98.5879 49.8244 97.3345 47.3671C96.3998 45.5347 92.0328 43.8031 92.0328 43.8031Z" fill="#FBF8EF" stroke="#F8A300"/>
<path d="M52.1805 29.7407L52.0371 30.6318C52.0371 30.6318 55.0892 28.9163 57.25 28.6843C60.1146 28.3767 61.5555 30.3348 64.4365 30.3519C67.0962 30.3677 68.4781 28.6451 71.1131 29.0067C72.8416 29.244 75.3038 30.555 75.3038 30.555L75.5719 29.4096C75.5719 29.4096 72.8087 26.64 71.0276 26.3854C68.3522 26.0031 66.9283 27.7283 64.2265 27.6646C61.4689 27.5996 60.1007 25.6792 57.3613 26.0031C55.3185 26.2447 52.1805 29.7407 52.1805 29.7407Z" fill="#FBF8EF" stroke="#F8A300"/>
</g>
<defs>
<clipPath id="clip0_2811_403">
<rect width="128" height="128" fill="white"/>
</clipPath>
</defs>
</svg>
