<svg width="128" height="128" viewBox="0 0 128 128" fill="none" xmlns="http://www.w3.org/2000/svg">
<g clip-path="url(#clip0_2741_1285)">
<rect width="128" height="128" fill="#FBF8EF"/>
<path d="M51.0775 123.935L55.3667 123.997L56.916 121.991C56.916 121.991 55.1331 121.487 54.8565 121.396C53.9006 121.08 53.6013 119.501 53.6013 119.501C53.6013 119.501 51.7169 119.054 51.8468 118.287C51.9063 117.935 52.7957 116.104 52.7957 116.104C52.7957 116.104 51.839 116.948 51.0905 117.251C50.7592 117.386 49.9942 117.204 49.9942 117.204C49.9942 117.204 48.2495 117.653 47.455 117.164C45.9383 116.23 50.0134 113.189 50.0134 113.189C50.0134 113.189 47.5582 113.624 46.9693 113.617C45.654 113.601 45.5339 112.27 45.5339 112.27C45.5339 112.27 44.0056 114.303 42.4988 112.984C40.8162 111.512 44.7595 107.842 44.7595 107.842C44.7595 107.842 42.4147 109.313 41.4269 109.108C40.6542 108.947 40.871 107.648 40.871 107.648C40.871 107.648 36.4735 109.691 35.9167 108.273C35.5345 107.299 36.1741 106.07 36.4525 105.099C36.8049 103.868 37.1648 102.516 38.3052 101.614C38.4002 101.539 38.6435 101.437 38.7957 101.378C38.826 101.369 38.8563 101.359 38.8868 101.347C38.9713 101.314 38.9085 101.334 38.7957 101.378C38.4375 101.476 38.0894 101.343 37.7365 101.449C36.5966 101.794 35.7104 102.594 34.6093 103.027C33.6985 103.384 32.6184 104.002 31.6472 104.131C31.2669 104.182 30.5455 103.352 30.5455 103.352C30.5455 103.352 28.642 104.506 27.3771 104.397C26.3233 104.306 25.0322 103.279 25.0322 103.279C25.0322 103.279 24.494 103.664 24.131 104.034C23.7614 104.411 23.1938 104.674 22.6553 104.665C22.1898 104.658 21.8076 104.529 21.4453 104.299C20.9748 104 20.1904 103.834 19.8441 103.42C19.5289 103.043 19.5578 102.517 19.4391 102.091L17.7161 103.616C17.2671 104.428 17.361 105.569 16.3601 105.856C15.9173 105.982 13.2089 105.861 13.2089 105.861C13.2089 105.861 12.8003 107.59 12.2698 108.011C10.9482 109.062 9.52532 110.032 8.26153 111.158C8.0269 111.367 6.93143 112.922 6.93143 112.922C6.93143 112.922 9.56155 113.458 10.9345 114.301C12.4427 115.228 13.1857 116.885 14.0013 117.488C14.0013 117.488 16.4457 114.605 17.0868 114.366C19.1066 113.613 20.4892 116.373 20.4892 116.373C20.4892 116.373 22.1278 115.156 25.0322 115.449C27.9367 115.741 26.784 121.147 26.784 121.147C26.784 121.147 31.0934 115.541 32.3896 116.28C33.2121 116.75 33.3299 115.449 33.3299 115.449C33.3299 115.449 35.61 115.438 35.7432 116.592C35.851 117.526 34.6061 119.257 34.6061 119.257L35.622 121.771C35.622 121.771 36.2132 120.944 36.4054 120.492C36.6405 119.94 36.9116 119.356 37.3028 118.872C37.818 118.233 38.5561 117.6 39.5333 117.634C40.9912 117.683 41.1486 120.136 41.1413 120.613C41.1334 121.129 40.9207 122.098 40.9207 122.098L42.275 123.947C42.275 123.947 42.578 123.285 42.9245 122.942C43.4443 122.426 43.7947 122.25 44.5014 121.973C44.7822 121.863 45.2636 121.571 45.5795 121.576C46.4212 121.588 45.5339 123.405 45.5339 123.405C45.5339 123.405 47.2365 123.132 47.579 123.405C48.2479 123.937 46.9693 123.997 46.9693 123.997L51.0775 123.935Z" fill="#65D157"/>
<path d="M29.0208 110.454C29.0208 110.454 26.1732 110.464 24.3432 110.331C22.7023 110.212 20.1452 109.765 20.1452 109.765C20.1452 109.765 19.2751 108.7 18.9577 107.895C18.689 107.214 18.5574 106.064 18.5574 106.064C18.5574 106.064 18.4009 107.179 18.5032 107.882C18.6228 108.702 19.229 109.878 19.229 109.878C19.229 109.878 16.7306 110.099 15.2374 110.636C13.948 111.099 12.1264 112.258 12.1264 112.258C12.1264 112.258 14.1091 111.483 15.4348 111.191C16.9726 110.852 19.4441 110.761 19.4441 110.761C19.4441 110.761 19.5348 111.831 19.7308 112.484C19.9571 113.239 20.586 114.312 20.586 114.312C20.586 114.312 20.2268 113.211 20.1857 112.48C20.1463 111.781 20.3576 110.694 20.3576 110.694C20.3576 110.694 22.7682 111.141 24.3158 111.253C26.0468 111.378 28.7412 111.343 28.7412 111.343C28.7412 111.343 28.0455 112.447 27.8976 113.165C27.6795 114.222 27.8164 115.891 27.8164 115.891C27.8164 115.891 28.2093 114.189 28.6863 113.188C28.993 112.544 29.6096 111.613 29.6096 111.613C29.6096 111.613 32.3007 111.651 33.8323 112.432C35.7174 113.393 38.0105 116.336 38.0105 116.336C38.0105 116.336 37.1981 116.973 36.8646 117.525C36.3966 118.3 36.3425 119.784 36.3425 119.784C36.3425 119.784 36.7896 118.597 37.3055 117.993C37.7835 117.434 38.7872 116.83 38.7872 116.83C38.7872 116.83 40.2118 116.776 40.968 117.193C41.7785 117.639 42.5 119 42.5 119C42.5 119 42.0776 120.48 42.0849 121.123C42.0913 121.685 42.275 122.5 42.275 122.5C42.275 122.5 42.4862 121.69 42.6367 121.204C42.8262 120.591 43.8241 119.502 43.8241 119.502C43.8241 119.502 46.6031 119.976 47.9865 120.455C49.7933 121.081 51.7121 122.97 51.7121 122.97C51.7121 122.97 49.8174 120.799 48 120.001C46.644 119.405 43.8894 118.748 43.8894 118.748C43.8894 118.748 44.462 117.064 44.7595 116.336C45.0391 115.652 46 115 46 115C46 115 44.7579 115.309 44.3186 115.868C43.8018 116.526 43.0501 118.278 43.0501 118.278C43.0501 118.278 42.1762 117.204 41.436 116.752C40.6444 116.268 39.1848 115.992 39.1848 115.992C39.1848 115.992 38.8667 113.854 39.2856 112.594C39.5361 111.841 40.2486 110.805 40.2486 110.805C40.2486 110.805 39.2257 111.786 38.8312 112.581C38.3241 113.603 38.2922 115.452 38.2922 115.452C38.2922 115.452 36.2062 112.703 34.3075 111.753C32.7235 110.96 29.8891 110.727 29.8891 110.727C29.8891 110.727 30.4844 108.81 31.241 107.806C31.8455 107.004 33.1129 106.043 33.1129 106.043C33.1129 106.043 31.5649 106.64 30.8001 107.338C29.765 108.283 29.0208 110.454 29.0208 110.454Z" fill="#FBF8EF"/>
<path d="M77 124L72 124L71.6237 121.926C71.6237 121.926 73.456 121.441 73.742 121.352C74.73 121.043 75.2246 119.351 75.2246 119.351C75.2246 119.351 77.1503 118.933 77.1174 118.102C77.1023 117.721 76.4487 115.719 76.4487 115.719C76.4487 115.719 77.2926 116.659 77.9974 117.011C78.3094 117.166 79.0912 116.996 79.0912 116.996C79.0912 116.996 80.7665 117.537 81.616 117.037C83.2379 116.081 79.5743 112.67 79.5743 112.67C79.5743 112.67 81.9563 113.219 82.5417 113.231C83.8488 113.258 84.1344 111.828 84.1344 111.828C84.1344 111.828 85.3969 114.068 87.057 112.697C88.9109 111.166 85.4566 107.082 85.4566 107.082C85.4566 107.082 87.5995 108.745 88.6054 108.556C89.3924 108.408 89.3397 107.001 89.3397 107.001C89.3397 107.001 93.4481 109.347 94.178 107.838C94.679 106.801 94.198 105.456 94.0433 104.4C93.8473 103.063 93.6593 101.594 92.6404 100.585C92.5555 100.501 92.3269 100.382 92.1832 100.314C92.1542 100.304 92.1254 100.292 92.0967 100.278C92.0169 100.239 92.0768 100.263 92.1832 100.314C92.5263 100.432 92.8885 100.299 93.2254 100.426C94.3135 100.835 95.0928 101.726 96.1314 102.229C96.9905 102.644 97.9852 103.345 98.9327 103.517C99.3037 103.584 100.123 102.714 100.123 102.714C100.123 102.714 103.094 105.33 105 105.5C106.317 105.617 108 104 108 104C108 104 109.797 104.877 110.5 104C110.873 103.534 111.132 102.176 111.303 101.721L112.822 103.421C113.166 104.311 112.93 105.538 113.887 105.879C114.311 106.03 117.014 105.99 117.014 105.99C117.014 105.99 117.203 107.865 117.677 108.337C118.857 109.513 120.148 110.605 121.261 111.859C121.468 112.092 122.36 113.805 122.36 113.805C122.36 113.805 119.683 114.295 118.215 115.159C116.603 116.107 115.658 117.867 114.773 118.49C114.773 118.49 112.708 115.304 112.102 115.025C110.192 114.147 108.475 117.075 108.475 117.075C108.475 117.075 107.377 113.284 104.458 113.503C101.539 113.722 102.089 118.878 102.089 118.878C102.089 118.878 98.5135 112.696 97.1347 113.45C96.2599 113.928 95.8476 115.655 95.8476 115.655C95.8476 115.655 93.5863 115.568 93.3099 116.807C93.0859 117.811 94.1049 119.717 94.1049 119.717L92.7825 122.391C92.7825 122.391 92.2992 121.481 92.1649 120.988C92.0007 120.385 91.8046 119.747 91.4771 119.212C91.0456 118.507 90.3923 117.801 89.4184 117.804C87.9654 117.81 87.5025 120.447 87.4501 120.962C87.3935 121.518 87.4834 122.568 87.4834 122.568L86.5 124C86.5 124 85.6902 123.793 85.3894 123.412C84.938 122.839 84.6123 122.638 83.9457 122.316C83.6808 122.188 83.2395 121.858 82.9255 121.852C82.0888 121.837 82 124 82 124L77 124Z" fill="#65D157"/>
<path d="M100.286 109.598C100.286 109.598 103.21 109.695 105.093 109.615C106.781 109.543 109.421 109.162 109.421 109.162C109.421 109.162 110.346 108.095 110.697 107.279C110.994 106.588 111.164 105.411 111.164 105.411C111.164 105.411 111.291 106.56 111.164 107.279C111.016 108.118 110.358 109.306 110.358 109.306C110.358 109.306 112.916 109.61 114.433 110.206C115.743 110.721 117.578 111.967 117.578 111.967C117.578 111.967 115.566 111.111 114.213 110.77C112.645 110.375 110.11 110.206 110.11 110.206C110.11 110.206 109.984 111.302 109.763 111.967C109.508 112.735 108.829 113.817 108.829 113.817C108.829 113.817 109.231 112.698 109.296 111.949C109.358 111.232 109.174 110.11 109.174 110.11C109.174 110.11 106.685 110.495 105.093 110.562C103.312 110.638 100.546 110.52 100.546 110.52C100.546 110.52 101.227 111.675 101.357 112.416C101.548 113.509 101.357 115.218 101.357 115.218C101.357 115.218 101.005 113.458 100.546 112.416C100.251 111.746 99.6463 110.77 99.6463 110.77C99.6463 110.77 96.882 110.727 95.2856 111.482C93.3206 112.411 90.8762 115.363 90.8762 115.363C90.8762 115.363 91.6909 116.042 92.0164 116.619C92.4733 117.429 92.4834 118.954 92.4834 118.954C92.4834 118.954 92.0607 117.722 91.5494 117.086C91.0757 116.498 90.0636 115.847 90.0636 115.847C90.0636 115.847 88.605 115.752 87.8134 116.152C86.7026 116.713 85.9424 118.731 85.9424 118.731C85.9424 118.731 86.4394 119.696 86.4122 120.355C86.3885 120.932 85.9452 121.756 85.9452 121.756C85.9452 121.756 85.9829 120.925 85.8433 120.422C85.6673 119.787 85.0112 118.954 85.0112 118.954C85.0112 118.954 82.7102 119.438 81.2752 119.888C79.4008 120.476 76.6051 121.756 76.6051 121.756C76.6051 121.756 79.3847 120.185 81.2752 119.421C82.6857 118.851 84.9672 118.178 84.9672 118.178C84.9672 118.178 84.8274 116.909 84.5442 116.152C84.278 115.441 83.6101 114.447 83.6101 114.447C83.6101 114.447 84.5772 115.098 85.0112 115.685C85.5217 116.376 85.8433 117.722 85.8433 117.722C85.8433 117.722 86.5356 116.251 87.3463 115.685C88.1279 115.14 89.681 114.974 89.681 114.974C89.681 114.974 90.0729 112.788 89.6813 111.482C89.4472 110.701 88.7473 109.615 88.7473 109.615C88.7473 109.615 89.7676 110.654 90.1483 111.482C90.6378 112.547 90.614 114.447 90.614 114.447C90.614 114.447 92.8399 111.688 94.8185 110.77C96.4691 110.004 99.3865 109.852 99.3865 109.852C99.3865 109.852 98.8339 107.865 98.0877 106.812C97.4914 105.97 96.2195 104.944 96.2195 104.944C96.2195 104.944 97.7908 105.605 98.5547 106.345C99.5886 107.346 100.286 109.598 100.286 109.598Z" fill="#FBF8EF"/>
<path d="M83.846 23.0594C81.1973 22.2928 79.5976 20.4292 77.4952 18.609C77.4408 20.3832 75.7791 21.2894 74.5214 22.4597C72.9078 23.9613 72.6589 24.6337 72.1325 26.7819C71.7657 28.2791 70.3857 30.7167 69.3306 31.9286C68.4502 32.9397 67.7975 34.7904 66.5975 35.4029C65.9794 35.7184 63.5002 37.0004 63.5002 37.0004C63.5002 37.0004 66.1659 37.045 67.4277 38.0004C68.4964 38.8097 69.3306 40.8575 69.3306 40.8575C69.3306 40.8575 72.4325 41.0965 73.229 42.1992C74.4606 43.904 72.9946 47.2058 71.8878 48.5767C70.6752 50.0784 66.8709 51.0004 66.8709 51.0004L61.9727 55.738C61.9727 55.738 65.6179 56.7734 66.871 56.9694C68.741 57.2621 71.1588 57.8157 72.7714 58.8595C75.4185 60.5729 74.8047 66.3315 72.0417 67.7151C70.5182 68.478 69.3544 69.9359 67.7882 70.7592C65.8182 71.7947 62.1428 72.9563 60.0002 73.6186C60.0002 73.6186 61.6906 73.9476 62.5002 74.6186C63.3768 75.3452 64.0002 77.1186 64.0002 77.1186C64.0002 77.1186 69.9232 78.2793 69.0002 80.6186C68.5274 81.8171 66.5002 83.2712 66.5002 83.2712C66.5002 83.2712 65.3485 85.1866 64.5649 85.6186C63.2977 86.3172 60.5002 85.1186 60.5002 85.1186L56.0002 87.6186C56.0002 87.6186 62.6264 89.8238 64.5649 90.8057C66.9058 91.9914 68.3346 94.9429 67.339 96.9256C65.7683 100.053 64.1551 100.333 60.5002 101.119C60.5002 101.119 60.3858 102.797 59.5002 103.619C58.0633 104.952 54.9412 105.72 54.9412 105.72C54.9412 105.72 59.665 104.646 62.0002 107.119C64.591 109.861 64.0501 115.366 64 117C63.9589 118.341 64.5002 123.619 64.5002 123.619L69.5002 123.619C69.5002 123.619 68.4956 116.261 70 114C71.168 112.244 73.9069 110.646 76.7669 110.261C78.6287 110.01 81.5002 111.119 81.5002 111.119C81.5002 111.119 78.5822 109.109 77.5002 107.619C76.7658 106.607 77.0002 104.619 77.0002 104.619C77.0002 104.619 71.3634 104.811 71.4483 102.04C71.4936 100.561 71.3105 99.0633 72.1432 97.7705C74.3192 94.3922 86.5002 97.6186 86.5002 97.6186C86.5002 97.6186 84.5138 92.4466 83.8856 91.9559C82.2734 90.6966 76.7669 89.9226 76.7669 85.6186C76.7669 80.1186 83.8856 80.6186 83.8856 80.6186C83.8856 80.6186 85.9194 78.6516 87.6133 78.6186C89.6494 78.5789 94.0002 80.1186 94.0002 80.1186C94.0002 80.1186 83.0045 69.6759 87.0002 65.4273C89.3287 62.9515 99.5002 64.0004 99.5002 64.0004C99.5002 64.0004 95.8734 62.1832 95.0002 60C94.2751 58.187 95.0002 55 95.0002 55C95.0002 55 90.5858 51.1216 91.5981 47.3667C92.1227 45.4208 92.8685 44.4439 94.2026 42.9116C94.7042 42.3354 96.6101 40.8575 96.6101 40.8575C96.6101 40.8575 94.3581 39.073 93.7714 38.5728C92.0818 37.1324 91.2745 34.1816 90.92 32.1017C90.7071 30.853 89.1153 31.0105 88.2158 30.0305L88.1908 30.0033C86.8443 28.5363 85.8461 27.4488 85.8527 25.4581C85.8566 24.2666 85.0762 23.4154 83.846 23.0594Z" fill="#65D157"/>
<path d="M79.0299 23.8887C79.8139 26.1946 81.1823 29.328 81.6832 33C82.1432 36.3714 81.5931 39.227 81.6832 41.7129C81.7729 44.1854 81.8902 46.7082 81.6705 49.1875C81.4157 52.0635 81.7013 54.8992 81.7643 57.9873C81.8267 61.0485 81.6628 64.2778 80.4743 67.7793C79.6204 70.2946 78.4316 72.0193 77.2467 73.6895C76.062 75.3593 74.8871 76.967 73.9655 79.3018C72.8594 82.1038 72.2317 85.3386 71.7858 88.1797C71.5611 89.6109 71.3882 90.897 71.2174 92.0186C71.0509 93.1119 70.887 94.041 70.6832 94.6523C70.3387 95.686 70.083 96.7516 69.8151 97.8408C69.549 98.9224 69.2714 100.026 68.8854 101.093C68.2568 102.831 68.2844 104.551 67.9245 106.771C67.2609 110.865 66.3594 114.274 66.3594 117.274C66.3594 114.291 66.4026 110.806 66.9274 106.706C67.2268 104.367 67.2642 102.635 67.945 100.753C68.3106 99.742 68.5775 98.6872 68.8444 97.6025C69.1093 96.5258 69.3749 95.4162 69.735 94.3359C69.9072 93.8194 70.0603 92.9756 70.2291 91.8672C70.3937 90.7868 70.5751 89.4409 70.7975 88.0244C71.2456 85.1696 71.8872 81.8442 73.0358 78.9346C74.0083 76.471 75.2541 74.7706 76.4313 73.1113C77.6082 71.4524 78.7227 69.8264 79.527 67.457C80.662 64.1133 80.8266 61.0166 80.7653 58.0078C80.7045 55.0257 80.4134 52.0461 80.6745 49.0996C80.8874 46.696 80.7746 44.2434 80.6842 41.749C80.5943 39.2682 81.1631 36.0665 80.8043 32.4541C80.4667 29.0548 79.8258 26.2294 79.0299 23.8887Z" fill="#FBF8EF"/>
<path d="M93.4502 40.8779C92.2628 41.0476 86.7772 41.8445 84.001 43.5C82.344 44.4881 81.001 46.5 81.001 46.5C81.001 46.5 81.8764 43.665 83.501 42.5C86.235 40.5394 92.2065 41.0556 93.4502 40.8779Z" fill="#FBF8EF"/>
<path d="M73.624 36.3379C75.4501 36.8332 76.5011 36.9286 77.9708 37.9969C81.0646 40.2458 81.4288 47.1601 81.4288 47.1601C81.4288 47.1601 80.6166 42.499 78.2242 39.4397C77.2053 38.1367 75.4345 36.829 73.624 36.3379Z" fill="#FBF8EF"/>
<path d="M85.5 57.499C88.0544 57.2569 91 60.0942 91 60.0942C91 60.0942 87.8289 58.0333 85.5 58.4986C83.8316 58.832 81.001 60.9993 81.001 60.9993L81.501 58.9993C81.501 58.9993 83.6663 57.6728 85.5 57.499Z" fill="#FBF8EF"/>
<path d="M78.001 54.3686C81.1026 55.5938 81.0898 59.4018 81.0898 59.4018C81.0898 59.4018 79.8847 56.2666 77.6064 55.2866C75.3282 54.3065 70.9521 54.3686 70.9521 54.3686C70.9521 54.3686 75.9125 53.5436 78.001 54.3686Z" fill="#FBF8EF"/>
<path d="M80.498 72.4998C83.1302 72.2178 86.3828 75.6687 86.3828 75.6687C86.3828 75.6687 82.929 73.5034 80.498 73.618C78.6974 73.7028 76.127 75.1014 76.127 75.1014L76 74.574C76 74.574 78.5747 72.7059 80.498 72.4998Z" fill="#FBF8EF"/>
<path d="M72.4717 73.6177C73.595 74.1218 75.001 75.4999 75.001 75.4999L74.7627 76.0565C74.7627 76.0565 73.1483 74.9648 72.001 74.4995C69.9851 73.6819 66.501 73.6177 66.501 73.6177C66.501 73.6177 70.3444 72.663 72.4717 73.6177Z" fill="#FBF8EF"/>
<path d="M73.2812 90.9165C75.0365 90.8843 77.5488 92.3296 77.5488 92.3296C77.5488 92.3296 75.1016 91.4781 73.5 91.6392C72.3768 91.7522 71.4315 92.3628 70.6436 92.5972V91.999C71.4335 91.764 72.1056 90.9381 73.2812 90.9165Z" fill="#FBF8EF"/>
<path d="M68.166 89.0346C69.4642 89.8871 70.6973 92.102 70.6973 92.102V92.5893C69.6991 91.5517 68.9771 90.7707 67.6533 89.894C66.1673 88.9099 63.501 88 63.501 88C63.501 88 66.6062 88.0103 68.166 89.0346Z" fill="#FBF8EF"/>
<path d="M73.8652 108.444C73.6635 108.444 71.9428 108.66 71.0068 108.999C69.3739 109.591 68.1477 110.421 66.9766 110.999V110.5C68.1356 109.928 69.2736 108.496 71.0068 108.26C72.1152 108.109 73.6159 108.444 73.8652 108.444Z" fill="#FBF8EF"/>
<path d="M60.501 105C60.501 105 63.3712 104.341 64.8887 105.139C66.4242 105.946 67.501 108.731 67.501 108.731H67.1321C67.1321 108.731 65.8461 106.861 64.6543 106.11C63.2338 105.215 60.501 105 60.501 105Z" fill="#FBF8EF"/>
<path d="M5.4338 72.7796C5.4338 72.7796 7.95323 71.0026 10.0893 71.0768C11.9739 71.1422 14.5408 72.4683 14.5408 72.4683C14.5408 72.4683 11.6374 73.7825 10.3695 75.3395C8.5192 77.6115 9.90078 80.5258 8.13465 82.8766C6.97154 84.4248 4.20551 86.3329 4.20551 86.3329C4.20551 86.3329 7.7641 84.7012 9.89629 84.2471C11.3967 83.9275 13.4831 84.2775 13.4831 84.2775C13.4831 84.2775 20.7061 77 22.9617 81.5048C23.7414 83.0619 21.27 86.016 21.27 86.016C21.27 86.016 21.768 88.9392 20.7061 91.0912C19.6843 93.1619 17.0495 95.7379 17.0495 95.7379L23.3612 94.4344C23.3612 94.4344 25.0265 93.239 26.2219 92.7142C28.0018 91.9329 29.6102 92.1484 31.6035 92.7592C33.1907 93.2456 34.087 93.0536 34.6417 94.3349C35.1319 95.4672 34.0581 97.2361 34.0581 97.2361C34.0581 97.2361 35.4428 98.6956 35.4061 99.766C35.3623 101.039 33.3038 101.88 33.3038 101.88C33.3038 101.88 34.1483 103.255 34.2721 104.213C34.4052 105.242 33.8261 106.727 33.8261 106.727C33.8261 106.727 35.3598 103.369 36.9944 102.881C37.8465 102.627 39.686 102.901 39.686 102.901C39.686 102.901 44.0402 101.528 45.1729 103.916C45.9544 105.564 44.9359 108.37 44.9359 108.37C44.9359 108.37 45.9057 110.482 45.2492 111.279C44.834 111.783 43.6974 111.847 43.6974 111.847L43.598 115.915C43.598 115.915 47.2268 111.111 50.2511 111.127C52.9543 111.141 54.774 114.846 54.774 114.846C54.774 114.846 52.812 114.455 51.7211 114.846C50.7601 115.19 49.7389 116.354 49.7389 116.354C49.7389 116.354 52.4587 116.69 53.6732 117.936C54.617 118.905 54.9113 119.745 55.2632 121.049C55.6063 122.321 55.3763 124 55.3763 124L61.3075 124C61.3075 124 60.5137 121.627 61.3075 119.851C62.0639 118.158 64.691 114.626 64.691 114.626C64.691 114.626 61.8105 116.111 60.9133 115.286C60.1004 114.539 60.0835 112.565 60.0835 112.565C60.0835 112.565 57.8457 111.298 57.9762 109.641C58.248 106.192 65.8007 104.09 65.8007 104.09C65.8007 104.09 63.4338 104.005 61.9709 103.477C60.8919 103.088 59.3141 102.099 59.3141 102.099C59.3141 102.099 58.1365 102.956 57.2445 102.856C56.4564 102.767 55.347 101.872 55.347 101.872C55.347 101.872 53.1587 102.693 52.1288 101.88C48.4536 98.9786 54.6863 97.4096 54.6863 97.4096C54.6863 97.4096 54.9749 96.0238 56.0297 94.9034C56.9326 93.9443 59.3032 92.0242 59.3032 92.0242C59.3032 92.0242 57.5302 92.4494 56.4748 92.3881C55.6279 92.3389 54.4396 91.7892 54.4396 91.7892C54.4396 91.7892 53.0477 92.1166 52.1288 91.9634C51.1798 91.8052 49.7821 90.9755 49.7821 90.9755C49.7821 90.9755 44.3272 92.8128 42.5378 91.1089C40.7483 89.4049 44.9541 85.4521 44.9541 85.4521C44.9541 85.4521 44.9363 83.2753 45.5181 82.0687C46.4123 80.2139 49.6308 78.7692 49.6308 78.7692L45.1729 78.1213C45.1729 78.1213 32.4608 82.1897 34.0581 78.1213C35.2108 75.1854 41.1083 76.1798 41.1083 76.1798C41.1083 76.1798 39.7974 75.5783 39.3467 74.8085C38.2681 72.9666 43.3804 72.3236 43.3804 72.3236L37.7909 70.3392C37.7909 70.3392 32.5393 71.7587 31.7873 69.5148C30.3249 65.1514 37.2351 66.8472 37.2351 66.8472L34.5054 63.1437C34.5054 63.1437 31.8838 61.9403 30.9829 60.4005C30.0741 58.8472 30.3249 55.9408 30.3249 55.9408C30.3249 55.9408 27.5362 54.093 26.1826 52.4167C24.7811 50.6812 23.486 47.3566 23.486 47.3566C23.486 47.3566 21.2707 45.9843 20.2919 44.8683C19.2668 43.6995 18.0361 40.9217 18.0361 40.9217C18.0361 40.9217 17.6439 43.8598 16.9085 44.8683C16.2146 45.8198 14.5408 47.3566 14.5408 47.3566C14.5408 47.3566 14.1264 49.555 13.1396 51.1453C12.254 52.5725 10.2449 54.2209 10.2449 54.2209C10.2449 54.2209 9.92219 57.6526 9.21539 59.637C8.50858 61.6214 6.6672 64.2655 6.6672 64.2655L6.80984 68.9164L5.4338 72.7796Z" fill="#65D157"/>
<path d="M60.1788 104.625C60.1788 104.625 57.4121 105.092 56.2314 105.753C55.2086 106.326 54.1597 108.131 54.1597 108.131C54.1597 108.131 57.0245 111.431 57.8984 114.006C58.7883 116.628 58.4872 121.071 58.4872 121.071C58.4872 121.071 58.4188 116.672 57.3594 114.212C56.3076 111.769 53.1655 108.671 53.1655 108.671C53.1655 108.671 51.5734 108.853 50.5923 109.137C49.5125 109.449 47.9347 110.241 47.9347 110.241C47.9347 110.241 49.1366 109.17 50.0284 108.671C50.9122 108.176 52.4387 107.712 52.4387 107.712C52.4387 107.712 49.0424 104.652 47.1646 102.592C45.2868 100.533 42.8219 97.1639 42.8219 97.1639C42.8219 97.1639 41.0849 97.2443 40.1083 97.707C38.7537 98.3487 37.3943 100.421 37.3943 100.421C37.3943 100.421 38.3896 98.2039 39.5655 97.2944C40.4841 96.5839 42.2795 96.0786 42.2795 96.0786C42.2795 96.0786 39.5795 93.2379 38.1858 91.3929C36.7922 89.548 35.1422 86.6299 35.1422 86.6299C35.1422 86.6299 31.4807 86.7467 29.3974 87.6738C27.4327 88.5481 24.6519 90.5281 24.6519 90.5281C24.6519 90.5281 26.8629 87.5062 28.9321 86.614C30.9181 85.7578 34.3806 85.6223 34.3806 85.6223C34.3806 85.6223 32.8617 84.1894 31.9663 83.0514C31.0709 81.9135 29.7951 79.7946 29.7951 79.7946C29.7951 79.7946 23.587 76.3789 19.4819 77.0806C16.9572 77.5122 13.5111 79.7946 13.5111 79.7946C13.5111 79.7946 16.4608 76.7388 18.9391 75.995C22.7641 74.8471 28.9321 78.1662 28.9321 78.1662L24.2809 71.798C24.2809 71.798 19.3771 67.3767 15.578 67.4471C13.3671 67.4881 10.1551 69.0757 10.1551 69.0757C10.1551 69.0757 13.2965 66.2159 15.6822 66.2392C19.2062 66.2736 23.7541 70.2741 23.7541 70.2741C23.7541 70.2741 21.5266 65.5509 20.7061 62.3314C19.868 59.0432 19.5784 53.7158 19.5784 53.7158C19.5784 53.7158 20.7387 59.0304 21.8339 62.3314C22.8133 65.2834 24.772 69.7339 24.772 69.7339C24.772 69.7339 25.4462 65.6114 27.4717 64.5881C29.0443 63.7936 31.9844 65.1512 31.9844 65.1512C31.9844 65.1512 29.2947 65.0118 27.8356 65.7147C25.6824 66.7521 25.305 71.287 25.305 71.287L29.7951 77.0806C29.7951 77.0806 30.8121 74.4768 32.5268 73.2808C34.4334 71.9508 37.9371 72.1955 37.9371 72.1955C37.9371 72.1955 34.727 73.0004 33.0515 74.3664C31.4334 75.6856 30.3379 78.1662 30.3379 78.1662C30.3379 78.1662 31.806 80.6878 32.8245 82.0838C33.843 83.4798 35.5542 85.3155 35.5542 85.3155C35.5542 85.3155 38.4507 84.2984 40.1183 83.2864C41.6911 82.3318 43.8246 80.3779 43.8246 80.3779C43.8246 80.3779 42.2854 83.057 40.7657 84.2341C39.2479 85.4099 36.2731 86.2308 36.2731 86.2308C36.2731 86.2308 38.0747 89.2705 39.5655 91.1934C41.0562 93.1163 43.9079 96.0786 43.9079 96.0786C43.9079 96.0786 47.4228 96.1992 49.8786 95.5358C51.3735 95.132 53.4937 93.9071 53.4937 93.9071C53.4937 93.9071 51.7615 95.4762 50.4214 96.0786C48.0932 97.1252 44.4507 97.1642 44.4507 97.1642C44.4507 97.1642 46.7408 100.383 48.5066 102.346C50.2724 104.31 53.4937 107.22 53.4937 107.22C53.4937 107.22 54.9398 105.828 56.0527 105.219C57.2745 104.55 60.1788 104.625 60.1788 104.625Z" fill="#FBF8EF"/>
<path d="M124.758 78.3071C124.758 78.3071 122.555 76.7534 120.688 76.8182C119.04 76.8755 116.796 78.0348 116.796 78.0348C116.796 78.0348 119.334 79.1839 120.443 80.5452C122.061 82.5316 120.853 85.0796 122.397 87.135C123.414 88.4885 125.832 90.1569 125.832 90.1569C125.832 90.1569 122.721 88.7302 120.857 88.3332C119.545 88.0538 117.721 88.3598 117.721 88.3598C117.721 88.3598 109.357 82.5054 109.433 85.9356C109.467 87.4578 110.912 89.8798 110.912 89.8798C110.912 89.8798 110.477 92.4356 111.405 94.3171C112.299 96.1275 114.602 98.3797 114.602 98.3797L109.084 97.2401C109.084 97.2401 107.628 96.1949 106.583 95.7361C105.027 95.053 103.62 95.2414 101.878 95.7754C100.49 96.2006 99.7064 96.0328 99.2214 97.1531C98.7928 98.143 99.7316 99.6897 99.7316 99.6897C99.7316 99.6897 98.5209 100.966 98.5531 101.902C98.5913 103.015 100.391 103.749 100.391 103.749C100.391 103.749 99.6527 104.952 99.5445 105.789C99.4282 106.69 99.9344 107.988 99.9344 107.988C99.9344 107.988 98.5935 105.051 97.1644 104.625C96.4194 104.403 94.8111 104.643 94.8111 104.643C94.8111 104.643 91.0041 103.442 90.0138 105.53C89.3306 106.971 90.2211 109.424 90.2211 109.424C90.2211 109.424 89.3731 111.27 89.9471 111.967C90.3101 112.408 91.3038 112.464 91.3038 112.464L91.3908 116.021C91.3908 116.021 88.218 111.821 85.5739 111.834C83.2104 111.847 81.6194 115.086 81.6194 115.086C81.6194 115.086 83.3349 114.744 84.2887 115.086C85.1289 115.387 86.0217 116.404 86.0217 116.404C86.0217 116.404 83.6437 116.699 82.5819 117.788C81.7567 118.635 81.4995 119.369 81.1918 120.51C80.8918 121.622 81.1918 124 81.1918 124L75.9071 124C75.9071 124 76.6012 121.015 75.9071 119.462C75.2459 117.981 72.949 114.894 72.949 114.894C72.949 114.894 75.4674 116.192 76.2518 115.471C76.9626 114.818 76.9773 113.092 76.9773 113.092C76.9773 113.092 78.9339 111.984 78.8197 110.535C78.5821 107.52 71.9787 105.682 71.9787 105.682C71.9787 105.682 74.0481 105.608 75.3271 105.146C76.2705 104.806 77.65 103.941 77.65 103.941C77.65 103.941 78.6796 104.69 79.4595 104.603C80.1485 104.526 81.1185 103.742 81.1185 103.742C81.1185 103.742 83.0318 104.46 83.9322 103.749C87.1454 101.213 81.6962 99.8413 81.6962 99.8413C81.6962 99.8413 81.4438 98.6297 80.5216 97.6501C79.7322 96.8116 77.6595 95.1328 77.6595 95.1328C77.6595 95.1328 79.2097 95.5046 80.1324 95.451C80.8729 95.4079 81.9118 94.9273 81.9118 94.9273C81.9118 94.9273 83.1288 95.2136 83.9322 95.0797C84.7619 94.9413 85.9839 94.2159 85.9839 94.2159C85.9839 94.2159 90.7532 95.8223 92.3177 94.3325C93.8823 92.8427 90.2051 89.3868 90.2051 89.3868C90.2051 89.3868 90.2207 87.4835 89.712 86.4286C88.9302 84.8069 86.1162 83.5438 86.1162 83.5438L90.0138 82.9774C90.0138 82.9774 101.128 86.5344 99.7316 82.9774C98.7237 80.4104 93.5676 81.2799 93.5676 81.2799C93.5676 81.2799 94.7137 80.754 95.1077 80.081C96.0507 78.4705 91.581 77.9084 91.581 77.9084L96.4679 76.1734C96.4679 76.1734 101.059 77.4145 101.717 75.4526C102.996 71.6376 96.9539 73.1203 96.9539 73.1203L99.3405 69.8823C99.3405 69.8823 101.633 68.8301 102.42 67.4839C103.215 66.1259 102.996 63.5847 102.996 63.5847C102.996 63.5847 105.434 61.9692 106.617 60.5036C107.843 58.9862 108.975 56.0795 108.975 56.0795C108.975 56.0795 110.912 54.8796 111.767 53.9039C112.664 52.882 113.74 50.4533 113.74 50.4533C113.74 50.4533 114.083 53.0222 114.726 53.9039C115.332 54.7358 116.796 56.0795 116.796 56.0795C116.796 56.0795 117.158 58.0015 118.021 59.392C118.795 60.6397 120.552 62.081 120.552 62.081C120.552 62.081 120.834 65.0814 121.452 66.8164C122.07 68.5513 123.68 70.8631 123.68 70.8631L123.555 74.9294L124.758 78.3071Z" fill="#65D157"/>
<path d="M76.8943 106.15C76.8943 106.15 79.3132 106.558 80.3455 107.137C81.2397 107.638 82.1568 109.216 82.1568 109.216C82.1568 109.216 79.6521 112.1 78.888 114.352C78.11 116.644 78.3732 120.529 78.3732 120.529C78.3732 120.529 78.4331 116.683 79.3592 114.532C80.2789 112.396 83.026 109.688 83.026 109.688C83.026 109.688 84.418 109.847 85.2758 110.095C86.2199 110.368 87.5994 111.061 87.5994 111.061C87.5994 111.061 86.5485 110.124 85.7688 109.688C84.9961 109.255 83.6615 108.849 83.6615 108.849C83.6615 108.849 86.6309 106.174 88.2726 104.373C89.9144 102.572 92.0696 99.6269 92.0696 99.6269C92.0696 99.6269 93.5882 99.6971 94.4421 100.102C95.6264 100.663 96.815 102.475 96.815 102.475C96.815 102.475 95.9447 100.536 94.9167 99.741C94.1135 99.1197 92.5438 98.6779 92.5438 98.6779C92.5438 98.6779 94.9045 96.1943 96.1229 94.5812C97.3414 92.9682 98.7839 90.4168 98.7839 90.4168C98.7839 90.4168 101.985 90.519 103.807 91.3295C105.524 92.0939 107.956 93.8251 107.956 93.8251C107.956 93.8251 106.023 91.183 104.214 90.403C102.477 89.6543 99.4499 89.5359 99.4499 89.5359C99.4499 89.5359 100.778 88.2831 101.561 87.2882C102.344 86.2933 103.459 84.4407 103.459 84.4407C103.459 84.4407 108.887 81.4543 112.476 82.0679C114.683 82.4452 117.696 84.4407 117.696 84.4407C117.696 84.4407 115.117 81.769 112.951 81.1187C109.606 80.115 104.214 83.017 104.214 83.017L108.28 77.4492C108.28 77.4492 112.568 73.5836 115.889 73.6452C117.822 73.681 120.63 75.0691 120.63 75.0691C120.63 75.0691 117.884 72.5687 115.798 72.5891C112.717 72.6191 108.741 76.1169 108.741 76.1169C108.741 76.1169 110.688 71.9873 111.406 69.1725C112.138 66.2975 112.392 61.6397 112.392 61.6397C112.392 61.6397 111.377 66.2863 110.42 69.1725C109.563 71.7534 107.851 75.6445 107.851 75.6445C107.851 75.6445 107.261 72.0402 105.49 71.1455C104.115 70.4509 101.545 71.6378 101.545 71.6378C101.545 71.6378 103.897 71.5159 105.172 72.1305C107.055 73.0375 107.385 77.0024 107.385 77.0024L103.459 82.0679C103.459 82.0679 102.57 79.7913 101.071 78.7456C99.4037 77.5828 96.3404 77.7967 96.3404 77.7967C96.3404 77.7967 99.147 78.5005 100.612 79.6948C102.027 80.8482 102.984 83.017 102.984 83.017C102.984 83.017 101.701 85.2216 100.81 86.4422C99.9199 87.6627 98.4238 89.2676 98.4238 89.2676C98.4238 89.2676 95.8913 88.3784 94.4334 87.4936C93.0582 86.659 91.1929 84.9507 91.1929 84.9507C91.1929 84.9507 92.5387 87.2931 93.8673 88.3222C95.1943 89.3502 97.7952 90.0679 97.7952 90.0679C97.7952 90.0679 96.2201 92.7256 94.9167 94.4068C93.6133 96.088 91.1201 98.6779 91.1201 98.6779C91.1201 98.6779 88.0469 98.7834 85.8998 98.2034C84.5928 97.8503 82.7391 96.7794 82.7391 96.7794C82.7391 96.7794 84.2536 98.1513 85.4252 98.6779C87.4608 99.593 90.6455 99.6271 90.6455 99.6271C90.6455 99.6271 88.6432 102.441 87.0994 104.158C85.5555 105.875 82.7391 108.419 82.7391 108.419C82.7391 108.419 81.4748 107.202 80.5017 106.669C79.4335 106.085 76.8943 106.15 76.8943 106.15Z" fill="#FBF8EF"/>
<path d="M89.0006 85.5002C89.3703 72.471 86.2011 63.5209 81.0006 50.5002C75.8706 37.656 63.0004 19.9998 63.0004 19.9998L64.5004 18.9998C64.5004 18.9998 78.5567 37.0954 84.0006 50.5002C89.4913 64.0203 92.1806 73.3875 92.0006 87.0002C91.7899 102.929 87.0006 124 87.0006 124L81.0006 124C81.0006 124 88.525 102.26 89.0006 85.5002Z" fill="#65D157"/>
<path d="M72.9998 124.001C72.9998 124.001 91.7119 112.275 99.5014 101.001C103.027 95.8977 105.204 92.9368 107.001 87.0002C108.818 80.9936 108.804 77.269 108.5 71.0008C108.3 66.8635 107.663 64.5897 107.001 60.5007C106.304 56.1905 105.078 53.8286 104.5 49.5008C103.852 44.6467 104 37.0007 104 37.0007L103 36.001C103 36.001 101.799 43.685 102.5 49.5008C103.05 54.0636 103.802 56.4581 104.5 61.0007C105.095 64.88 105.41 67.077 105.5 71.0008C105.638 77.0806 105.854 80.7088 104 86.5007C102.375 91.5766 100.714 94.2495 97.4998 98.5007C82 119 62.4997 124.001 62.4997 124.001L72.9998 124.001Z" fill="#65D157"/>
<path d="M21.0913 38.1005C21.9544 36.542 25.3162 35.6862 25.3162 35.6862C25.3162 35.6862 24.0203 39.4232 24.0873 41.3806C24.1674 43.7213 26.8439 44.641 26.3568 46.9318C26.0124 48.5518 25.401 49.6929 23.8972 50.3867C23.4283 50.603 23.1414 50.7313 22.6253 50.7479C21.1179 50.7966 19.8075 48.1069 19.8075 48.1069C19.8075 48.1069 22.4005 50.106 23.5345 49.1126C24.236 48.4981 24.2032 47.7695 24.2645 46.8389C24.4044 44.7105 21.3205 43.698 20.7198 41.6514C20.2766 40.1413 20.3288 39.4772 21.0913 38.1005Z" fill="#65D157"/>
<path d="M28.5471 35.2919L25.3157 35.6856C25.3157 35.6856 25.1898 37.4739 25.2694 38.2872C25.4477 40.1079 26.6755 40.8066 27.1762 42.5662C27.6767 44.3248 27.211 45.4772 27.8083 47.2054C28.2392 48.4519 28.4501 49.2468 29.3521 50.2091C30.3527 51.2766 31.289 52.6274 32.6255 52.0318C33.6278 51.5851 34.1407 50.664 33.9925 49.5767C33.882 48.7662 32.8114 47.847 32.8114 47.847C32.8114 47.847 32.9895 49.9083 32.0815 50.1207C31.3691 50.2873 30.8451 49.8217 30.4447 49.2094C29 47 30.1202 44.3472 29.3521 41.5C28.8756 39.7343 28.6321 39.2007 28.4545 37.3805C28.3752 36.5679 28.5471 35.2919 28.5471 35.2919Z" fill="#65D157"/>
<path d="M31.9158 35.0211C30.818 34.6769 27.7858 35.4348 27.7858 35.4348C27.7858 35.4348 30.0794 36.8146 31.3668 37.9325C34.4546 40.6138 33 47.5 37.2724 46.5803C38.5367 46.3082 38.9182 44.6969 38.4581 43.4882C38.1263 42.6167 36.64 41.9399 36.64 41.9399C36.64 41.9399 37.1827 43.8513 36.5462 44.0322C33.9975 44.7567 35.6506 36.1922 31.9158 35.0211Z" fill="#65D157"/>
<path d="M98.3394 40.4927C98.4735 38.7404 98.8249 37.7668 99.5039 36.1459C100.292 34.2653 102.765 29.7726 102.765 29.7726L105.18 30.4191L108.56 31.3249C108.56 31.3249 106.186 35.398 107.585 38.0004C108.413 39.5385 110.258 41.0625 110.932 41.7955C112.499 43.5004 114.075 45.585 114.243 46.8241C114.479 48.5654 114.211 49.8268 113.079 51.1704C111.501 53.0412 106.989 52.6452 106.989 52.6452C106.989 52.6452 110.378 51.8496 111.758 50.2997C115.283 46.3435 104.514 38.8287 104.514 38.8287C104.514 38.8287 109.8 45.1484 109.569 49.0001C109.448 51.023 107.162 51.2287 106.412 50.9377C105.246 50.4859 104.514 48.3589 104.514 48.3589C104.514 48.3589 105.405 50.5529 107.585 50.0001C110.5 49.2614 103.184 40.6652 103.184 40.6652L102.765 36.1459C102.765 36.1459 101.337 39.4802 101.109 41.7514C100.88 44.0257 102.443 47.4923 101.5 49.5744C100.581 51.6023 98.5981 52.0129 97.0713 51.023C95.7504 50.1667 96.0452 47.125 96.0452 47.125C96.0452 47.125 96.3549 49.5744 97.4594 49.5744C101.616 49.5744 98.1394 43.1049 98.3394 40.4927Z" fill="#65D157"/>
<path d="M35.3492 124.001L33 113C33 113 30.0556 93.7397 30.2567 89.2748C30.4687 84.5682 28.0926 60.7047 28.1745 55.994C28.2664 50.7106 25.9119 39.6959 25.9119 39.6959L26.8597 38.5001C26.8597 38.5001 30.3472 49.4248 30.3178 55.7457C30.2948 60.7048 33.1834 84.5442 33 89.5C32.8434 93.7321 37.5 113 37.5 113L41.5 124.001L35.3492 124.001Z" fill="#65D157"/>
<path d="M59.369 124.001C59.369 124.001 62.4401 110.999 61.3454 104.407C60.2362 97.7273 57.3108 87.3496 56.9997 78.9993C56.6383 69.3013 56.0833 59.2116 56.1652 54.501C56.2571 49.2175 51.9993 42.0006 51.9993 42.0006L54.4973 41.3375C54.4973 41.3375 58.3379 47.9318 58.3085 54.2526C58.2855 59.2117 59.0782 69.2584 59.7483 78.9993C60.3005 87.0268 63.6837 96.9882 64.4999 103.499C65.4401 110.999 64.4999 124 64.4999 124L59.369 124.001Z" fill="#65D157"/>
<path d="M7.39462 34.1827C7.43238 34.4782 7.56767 34.7623 7.8519 34.9875L7.94904 35.0593C8.43715 35.3946 8.93599 35.3629 9.36481 35.2422C9.58017 35.1815 9.79677 35.0935 9.98601 35.0181C10.1848 34.9387 10.3657 34.8677 10.5496 34.8165L10.7411 34.7578C11.093 34.6419 11.4672 34.4734 11.7952 34.3125C11.6987 34.734 11.6085 35.2216 11.5912 35.6406L11.5643 35.9277C11.5505 36.0276 11.5325 36.1322 11.5129 36.2436C11.4761 36.4536 11.4296 36.7002 11.413 36.9331C11.3963 37.167 11.405 37.4399 11.5096 37.7019C11.6213 37.9815 11.8266 38.2073 12.1253 38.3599L12.2945 38.4313C12.683 38.5633 13.0213 38.4571 13.2487 38.3757C13.5356 38.273 13.6495 38.2226 13.8016 38.2382L13.9306 38.2659C14.055 38.3071 14.1757 38.3894 14.3801 38.5216C14.6304 38.6835 15.01 38.9114 15.5384 38.8086L15.6628 38.7775C15.9163 38.701 16.125 38.5506 16.293 38.3923C16.3479 38.8101 16.456 39.2773 16.684 39.6453C16.8055 39.8414 16.972 40.027 17.1992 40.1532C17.432 40.2824 17.6975 40.332 17.9806 40.2991L18.1678 40.2713C18.6249 40.192 19.2128 40.0105 19.5829 39.8374L19.5886 39.8336C19.5894 39.8341 19.5915 39.8353 19.597 39.8375C19.6425 39.8555 19.7055 39.8984 19.833 40.0005C19.938 40.0846 20.1024 40.2226 20.286 40.3204C20.4856 40.4267 20.7431 40.5062 21.0454 40.454L21.2045 40.4154C21.563 40.305 21.824 40.0516 22.0059 39.7923C22.0146 39.7798 22.0204 39.7653 22.029 39.7527C22.0761 39.8763 22.1289 39.9983 22.192 40.1127C22.3876 40.4674 22.6984 40.8157 23.1781 40.9358L23.3141 40.9636C23.9805 41.0644 24.4358 40.6395 24.7091 40.39C25.0627 40.0672 25.2244 39.9335 25.4518 39.9395L25.5762 39.9549C25.6956 39.9839 25.8101 40.0528 25.9944 40.1681C26.2257 40.3127 26.5757 40.5353 27.0736 40.5161L27.1981 40.5047C27.8006 40.4198 28.1415 39.9007 28.3281 39.4474C28.5386 38.9361 28.6497 38.2921 28.7104 37.6925C28.731 37.4886 28.7441 37.2849 28.7551 37.088C28.8387 37.2122 28.9264 37.3378 29.0166 37.4631C29.3513 37.9276 29.7426 38.4072 30.1448 38.7498C30.346 38.9211 30.5699 39.0751 30.8082 39.1702C31.0497 39.2665 31.3354 39.3125 31.6271 39.2182L31.7736 39.1621C32.098 39.0152 32.2992 38.7672 32.4189 38.4929C32.5418 38.2108 32.5824 37.8891 32.6131 37.6495C32.6477 37.379 32.6731 37.1833 32.7317 37.0225C32.7823 36.8835 32.8438 36.8103 32.9385 36.7624L33.0214 36.7339C33.1097 36.7168 33.2261 36.7324 33.4628 36.7685C33.7132 36.8067 34.1484 36.8718 34.5483 36.571L34.6274 36.5065C34.859 36.3004 34.9155 36.0105 34.9263 35.8001C34.9378 35.5761 34.9036 35.3295 34.8515 35.0895C34.7464 34.6056 34.5434 34.0411 34.3296 33.5184C34.2814 33.4007 34.2317 33.2844 34.1824 33.1701C34.1893 33.1741 34.1962 33.1782 34.2031 33.1822C34.6266 33.4262 35.1079 33.6638 35.5663 33.7949C35.9983 33.9185 36.5492 33.9877 36.9935 33.6973L37.1066 33.6187C37.3609 33.4315 37.5426 33.2194 37.6622 32.9836C37.7969 32.7176 37.8354 32.456 37.8458 32.2347C37.8509 32.1256 37.8497 32.0206 37.848 31.9311C37.8461 31.8367 37.8436 31.7628 37.8452 31.6914C37.8469 31.62 37.8522 31.5668 37.86 31.5265L37.8892 31.4374C38.0303 31.1731 38.2284 31.0286 38.5244 30.776C38.7731 30.5637 39.0682 30.2848 39.2139 29.8282L39.2664 29.6212C39.3808 29.0317 39.0809 28.4991 38.7446 28.1002C38.3958 27.6867 37.9182 27.3081 37.4593 26.9944C37.3381 26.9116 37.216 26.8324 37.0963 26.7568C37.2419 26.7375 37.3912 26.7163 37.5414 26.6899C38.0922 26.5931 38.6883 26.4402 39.1775 26.1908C39.6275 25.9613 40.0766 25.6023 40.223 25.0487L40.2481 24.9355C40.3224 24.5243 40.2329 24.1997 40.1667 23.9632C40.1161 23.7825 40.0817 23.6581 40.0755 23.5292L40.0794 23.396C40.1001 23.1971 40.1839 23.0604 40.3344 22.8081C40.4611 22.5959 40.6281 22.3069 40.6553 21.9123L40.6583 21.7365C40.633 21.0828 40.1028 20.6587 39.627 20.3981C39.1186 20.1197 38.472 19.9165 37.8625 19.7677C37.802 19.7529 37.741 19.7406 37.6806 19.7268C38.0459 19.5883 38.4107 19.4241 38.7084 19.2322C38.9011 19.108 39.0893 18.9572 39.2309 18.7751C39.3575 18.6123 39.4606 18.4055 39.4726 18.1632L39.4722 18.0573C39.4409 17.5355 39.1551 17.2221 38.9405 17.0084C38.7687 16.8373 38.6558 16.7348 38.5783 16.6151L38.5121 16.4869C38.4015 16.2114 38.4332 15.9653 38.4729 15.5651C38.506 15.2324 38.5392 14.7984 38.3168 14.3429L38.2056 14.1461C37.8426 13.5909 37.254 13.4016 36.696 13.3771C36.1435 13.3528 35.5461 13.4835 35.0207 13.6486C34.952 13.6702 34.8845 13.6945 34.8172 13.7174C34.9832 13.472 35.1515 13.212 35.3071 12.948C35.6491 12.3679 35.9706 11.7134 36.057 11.1486C36.1006 10.8636 36.095 10.5341 35.9336 10.2423C35.7812 9.96707 35.5311 9.79638 35.2335 9.71406L35.103 9.68391C34.6584 9.60151 34.2908 9.75416 34.0854 9.82644C33.915 9.8864 33.8274 9.9067 33.753 9.89793L33.6805 9.87995C33.5953 9.84894 33.562 9.80999 33.5325 9.74806C33.4899 9.65856 33.4631 9.52957 33.4351 9.31354C33.392 8.98109 33.3572 8.35199 32.921 7.89719L32.8281 7.80859C32.4847 7.50866 32.0877 7.38714 31.6764 7.44612C31.2907 7.50146 30.9452 7.70775 30.6526 7.95209C30.6251 7.97506 30.599 8.00054 30.5718 8.02476C30.5643 7.72377 30.5084 7.41385 30.3451 7.14622C30.1674 6.85511 29.8946 6.65919 29.5515 6.56946L29.4001 6.53776C28.9555 6.46513 28.5827 6.62837 28.3857 6.69928C28.2192 6.75919 28.1403 6.77496 28.0771 6.76449L28.0161 6.74607C27.9438 6.71531 27.9024 6.67404 27.8123 6.38805C27.7477 6.18294 27.6485 5.78775 27.3239 5.4928L27.1703 5.37387C26.899 5.19377 26.5995 5.12473 26.2967 5.17613C26.0089 5.22506 25.7637 5.37464 25.5653 5.54578C25.4198 5.67122 25.2829 5.82169 25.1561 5.98713C25.1408 5.6896 25.1006 5.40065 25.0198 5.14515C24.9374 4.88438 24.8018 4.61804 24.5718 4.42063C24.3593 4.23833 24.0986 4.14291 23.8103 4.13561L23.6857 4.13774C23.2588 4.16337 22.9486 4.36951 22.7242 4.61231C22.5161 4.83761 22.3606 5.12015 22.2424 5.3263C22.1084 5.56011 22.0142 5.71205 21.9125 5.81034C21.8549 5.86601 21.8068 5.89388 21.7454 5.90093L21.6777 5.90086C21.5233 5.88802 21.4303 5.80666 21.2036 5.48272C21.0274 5.23083 20.7365 4.76755 20.1733 4.60805L20.0571 4.58019C19.7248 4.51564 19.3963 4.56693 19.1311 4.7807C18.8855 4.9787 18.7617 5.26246 18.6964 5.5222C18.6036 5.89209 18.5985 6.34152 18.6336 6.78953C18.3906 6.49532 18.1206 6.22336 17.8282 6.01982C17.3714 5.70195 16.7914 5.50931 16.1881 5.75614L16.0679 5.8114C15.5076 6.0948 15.3103 6.62084 15.1808 6.92452C15.0511 7.22861 14.9738 7.36429 14.84 7.44015L14.7796 7.46913C14.5881 7.54592 14.4302 7.49516 14.0469 7.28892C13.7413 7.12442 13.2407 6.82322 12.6246 6.93186L12.5003 6.95946C12.1465 7.05234 11.8641 7.24832 11.6865 7.54397C11.5173 7.82584 11.4735 8.14781 11.4858 8.44873C11.5013 8.82675 11.6086 9.24091 11.7586 9.64948C11.5676 9.53029 11.3725 9.42861 11.1765 9.35686C10.9115 9.25988 10.6164 9.20542 10.3169 9.25378C10.0062 9.30397 9.72889 9.4599 9.50608 9.71616L9.4217 9.82266C9.2412 10.0764 9.17553 10.352 9.15953 10.6031C9.14242 10.8721 9.18238 11.1487 9.20594 11.3451C9.23291 11.57 9.24093 11.7078 9.22207 11.8106C9.20912 11.881 9.18829 11.9213 9.12127 11.9652L9.05352 11.999C8.98303 12.0244 8.89282 12.0248 8.71354 12.0054C8.52396 11.9849 8.1997 11.9335 7.84428 12.0428L7.69046 12.1002C7.36054 12.2452 7.10615 12.4868 7.00861 12.833C6.91816 13.154 6.98887 13.4764 7.09657 13.7439C7.31001 14.2738 7.77236 14.8376 8.23812 15.324C8.44979 15.5451 8.67334 15.7595 8.89087 15.9602C8.82051 15.9533 8.74932 15.9449 8.67788 15.9396C8.1289 15.8991 7.51792 15.9089 6.98583 16.0587C6.44822 16.2102 5.91858 16.5296 5.69211 17.153L5.6284 17.3697C5.51589 17.8643 5.64774 18.28 5.75605 18.5965C5.88616 18.9766 5.97305 19.2079 5.92858 19.5011L5.89342 19.6454C5.84608 19.7831 5.76281 19.9104 5.6414 20.1112C5.48755 20.3655 5.29153 20.722 5.34944 21.2226L5.3851 21.4128C5.49422 21.8247 5.78646 22.1092 6.10007 22.2976C5.65254 22.4373 5.20946 22.6243 4.86322 22.881C4.63689 23.0489 4.42994 23.2625 4.30046 23.5336C4.16668 23.8138 4.12967 24.1264 4.20496 24.4548L4.25063 24.6174C4.37075 24.98 4.5815 25.2187 4.75036 25.4015C4.94818 25.6155 5.07033 25.7404 5.1523 25.9449L5.18502 26.0413C5.24426 26.2675 5.19926 26.5018 5.14684 26.8842C5.09258 27.2799 5.03865 27.8533 5.51471 28.3553L5.64283 28.4745C5.90699 28.69 6.22263 28.7816 6.5231 28.8091C6.28635 29.0541 6.06616 29.3219 5.90566 29.6083C5.64579 30.0721 5.50231 30.6484 5.77221 31.2263L5.82438 31.3275C6.09491 31.8149 6.53683 32.0114 6.83329 32.1462C7.17869 32.3033 7.35199 32.39 7.46743 32.5915L7.50173 32.6636C7.56493 32.8362 7.52436 33.0475 7.44584 33.4562C7.4082 33.6521 7.36069 33.9172 7.39462 34.1827Z" fill="#F8A300" stroke="#FBF8EF"/>
<path d="M13.039 31.5898C13.1701 31.9007 13.4554 32.0358 13.7134 32.0823L13.8384 32.0986C14.1228 32.1213 14.3505 32.0436 14.4874 32.001C14.6536 31.9492 14.705 31.9414 14.7714 31.9553L14.82 31.9725C14.8689 32.0002 14.9266 32.0678 15.0586 32.2553C15.1974 32.4526 15.472 32.8659 16.028 32.9119L16.155 32.9152C16.2569 32.9123 16.354 32.8951 16.4461 32.8696C16.4225 33.0461 16.4124 33.2242 16.4294 33.3939C16.4484 33.5818 16.5018 33.7893 16.6268 33.9742C16.7584 34.1687 16.9504 34.309 17.1893 34.3777L17.3185 34.4076C17.6108 34.4585 17.8484 34.3894 18.0063 34.3406C18.1968 34.2817 18.2596 34.2612 18.3476 34.2703L18.4215 34.285C18.4929 34.3063 18.5666 34.3503 18.7075 34.4352C18.8845 34.5419 19.1647 34.7065 19.562 34.684L19.7038 34.6671C20.0258 34.6103 20.2861 34.4305 20.4809 34.2407C20.5434 34.1798 20.601 34.1139 20.6563 34.0467C20.6997 34.1747 20.7526 34.3008 20.8204 34.4155C20.9669 34.6635 21.2173 34.9176 21.5915 34.965L21.7593 34.9719L21.9288 34.9509C22.3011 34.8733 22.5178 34.6049 22.6237 34.4826C22.7815 34.3005 22.7962 34.3101 22.8076 34.3088L22.85 34.3184C22.8791 34.3326 22.9306 34.3646 23.0269 34.4337C23.1766 34.5411 23.5057 34.7962 23.9689 34.7163L24.1011 34.6847C24.397 34.5935 24.6063 34.3857 24.7467 34.1856C24.8137 34.0901 24.8692 33.9867 24.9187 33.883C24.9981 33.986 25.0866 34.0858 25.1861 34.1725C25.4019 34.3604 25.7201 34.5327 26.109 34.4687L26.2154 34.4459C26.728 34.3097 26.9044 33.8584 26.9925 33.6357C27.115 33.3256 27.1498 33.255 27.2235 33.2128L27.2975 33.1831C27.3779 33.164 27.4884 33.1765 27.7235 33.2137C27.9691 33.2527 28.4096 33.3279 28.821 33.04L28.9025 32.9773C29.2924 32.6532 29.3489 32.1967 29.294 31.8218C29.2516 31.5323 29.1376 31.2421 29.009 30.9826C29.0604 30.9993 29.1114 31.0184 29.1632 31.0346C29.5729 31.1631 30.0194 31.2817 30.393 31.3239C30.5762 31.3445 30.7801 31.3507 30.9658 31.3111C31.125 31.2771 31.3527 31.1885 31.4881 30.9661L31.5402 30.8621C31.6987 30.4692 31.5581 30.1171 31.5082 29.9706C31.4765 29.8779 31.4646 29.8409 31.4614 29.8134C31.4905 29.7971 31.5333 29.7817 31.6394 29.7484C31.7884 29.7016 32.1765 29.6008 32.3827 29.2204L32.4214 29.1403C32.5769 28.7787 32.4792 28.4352 32.3414 28.188C32.5693 28.1853 32.8046 28.1637 33.0201 28.1001C33.3309 28.0083 33.6647 27.8103 33.8171 27.431L33.8704 27.2573C33.9437 26.9281 33.8448 26.6521 33.7132 26.4476C33.5942 26.2627 33.4265 26.1046 33.3237 26.0034C33.217 25.8985 33.1626 25.8374 33.1332 25.7942C33.1581 25.7799 33.199 25.7627 33.2914 25.7328C33.4279 25.6887 33.7408 25.6087 33.9826 25.3498L34.0809 25.2272C34.2319 25.0088 34.3099 24.7396 34.2273 24.4571C34.1522 24.2002 33.9698 24.0229 33.8084 23.9073C33.5008 23.6869 33.0608 23.5422 32.6628 23.4416C33.0022 23.2644 33.3597 23.0408 33.5995 22.7686C33.7353 22.6144 33.8648 22.4101 33.9005 22.1599C33.934 21.9248 33.8774 21.7006 33.752 21.5045L33.6937 21.4224C33.5386 21.2209 33.3339 21.1217 33.2334 21.0735C33.2476 21.0566 33.2641 21.0366 33.284 21.0135C33.3489 20.9385 33.4743 20.7975 33.5534 20.6332C33.6353 20.4631 33.6799 20.2446 33.6043 20.0096L33.5643 19.9074C33.4072 19.5715 33.1069 19.4476 32.8531 19.4156C32.8761 19.3634 32.8985 19.3108 32.916 19.2567C32.9946 19.0143 33.0265 18.6997 32.8703 18.4033L32.7916 18.2775C32.4879 17.8649 32.0087 17.8752 31.8407 17.8689C31.746 17.8653 31.693 17.8574 31.6648 17.8532C31.666 17.8269 31.67 17.787 31.6826 17.7109C31.7046 17.5783 31.773 17.2626 31.6213 16.9424L31.5421 16.8052C31.2655 16.4058 30.8354 16.3589 30.5068 16.4191C30.4887 16.4224 30.4708 16.4271 30.4528 16.4311C30.5524 16.1818 30.6341 15.9192 30.6522 15.6707C30.6662 15.4773 30.648 15.2461 30.5295 15.0334C30.418 14.833 30.2431 14.6947 30.0338 14.6177L29.942 14.5879C29.5536 14.4824 29.2241 14.634 29.0865 14.6875C28.9993 14.7214 28.9644 14.7313 28.9412 14.7347C28.9397 14.7349 28.9385 14.7345 28.9377 14.7346C28.9235 14.7107 28.9074 14.6704 28.8761 14.5672C28.8341 14.429 28.7547 14.0951 28.4729 13.8542L28.3386 13.7577C27.9748 13.5366 27.6111 13.5821 27.317 13.7173C27.3528 13.4202 27.3648 13.1213 27.3211 12.849C27.2829 12.6112 27.1999 12.3597 27.0302 12.1489C26.8745 11.9555 26.6656 11.8222 26.4164 11.758L26.3064 11.7342C25.9827 11.6794 25.7277 11.7482 25.5564 11.7952C25.4249 11.8312 25.3479 11.8519 25.2728 11.8557L25.197 11.854C25.0044 11.8362 24.8779 11.7362 24.615 11.5064C24.4068 11.3243 24.0963 11.0475 23.6295 10.9804L23.4203 10.9656C22.9819 10.9647 22.6338 11.1573 22.3832 11.444C22.2476 11.5992 22.1436 11.7806 22.0599 11.9704C21.9628 11.809 21.8475 11.6579 21.7049 11.5363C21.448 11.3172 21.1242 11.2056 20.7624 11.2599L20.605 11.294C20.251 11.3918 20.0331 11.5956 19.8895 11.729C19.7784 11.8323 19.7125 11.8911 19.6407 11.9302L19.5645 11.9637C19.4749 11.9948 19.4032 11.9917 19.2131 11.9811C19.053 11.9721 18.8174 11.9605 18.5514 12.0613L18.4364 12.112C18.0123 12.321 17.8148 12.7135 17.7292 13.0737C17.7196 13.1141 17.7103 13.1547 17.7029 13.1959C17.6641 13.1616 17.6247 13.1284 17.5838 13.0976C17.3239 12.9013 16.9702 12.7468 16.5738 12.8268L16.4019 12.8762C15.9043 13.0602 15.7267 13.4801 15.6268 13.7108C15.539 13.9131 15.4937 14.0056 15.4392 14.0609L15.3794 14.107C15.2758 14.1664 15.1778 14.164 14.8822 14.1228C14.6249 14.087 14.1737 14.0146 13.7364 14.3154L13.5921 14.4319C13.4596 14.5566 13.3622 14.7067 13.3047 14.8776C13.2306 15.0981 13.2335 15.3214 13.2694 15.5214C13.2829 15.5962 13.3018 15.6709 13.3248 15.7454C13.2672 15.7301 13.2102 15.7162 13.1534 15.7081C12.9679 15.6815 12.7327 15.6889 12.5156 15.8194C12.2874 15.9567 12.164 16.1789 12.1108 16.4084L12.0885 16.5455C12.0567 16.8568 12.1635 17.1104 12.2088 17.2346C12.2699 17.4022 12.2571 17.4106 12.2526 17.4229L12.2476 17.4367C12.246 17.4387 12.2431 17.4387 12.2359 17.442C12.1928 17.4617 12.1193 17.4772 11.9599 17.4964C11.7248 17.5247 11.1465 17.549 10.7855 18.004L10.7191 18.0952C10.5761 18.3118 10.5116 18.5573 10.5445 18.815C10.5797 19.091 10.7196 19.3223 10.8739 19.5027C11.0213 19.675 11.2102 19.8329 11.4159 19.9767C11.3984 19.9815 11.3808 19.9858 11.3635 19.9911C11.1597 20.0534 10.9475 20.1557 10.7755 20.3265C10.5957 20.5051 10.4826 20.7363 10.4546 21.0065L10.4477 21.1102C10.436 21.6188 10.7359 21.9572 10.9037 22.1538C11.1146 22.401 11.1724 22.4869 11.1742 22.6105L11.171 22.6627C11.1552 22.7813 11.0726 22.8871 10.8448 23.1257C10.6306 23.3501 10.2263 23.7512 10.2909 24.3862L10.306 24.493C10.402 25.0117 10.7898 25.3115 11.1813 25.4679C11.3419 25.532 11.5157 25.5778 11.6933 25.6103C11.6044 25.683 11.5214 25.7604 11.4472 25.8424C11.1612 26.1583 10.9467 26.6244 11.1764 27.1523L11.2187 27.2402C11.4428 27.6577 11.849 27.8044 12.0485 27.8866C12.3139 27.9959 12.3449 28.0312 12.3671 28.0867L12.3781 28.132C12.3814 28.1838 12.3531 28.2668 12.2294 28.4882C12.1046 28.7116 11.8124 29.1775 12.0097 29.7368L12.0489 29.8325C12.1469 30.0486 12.3044 30.2195 12.5157 30.3253C12.7428 30.439 12.9871 30.4552 13.1995 30.436C13.228 30.4334 13.2564 30.4283 13.2852 30.4243C13.1923 30.5689 13.1148 30.7138 13.0614 30.853C12.9907 31.0372 12.923 31.3143 13.039 31.5898Z" stroke="#FBF8EF"/>
<path d="M23.6322 16.5767C23.4398 16.2146 23.0957 15.8625 22.5487 15.8592L22.3683 15.8711C21.9636 15.9293 21.6679 16.1866 21.4699 16.4587C21.3442 16.6315 21.2452 16.8298 21.1631 17.0299C21.115 16.9485 21.0628 16.8694 21.0061 16.7939C20.8009 16.5203 20.5029 16.2524 20.0907 16.1708L19.9876 16.1553C19.7465 16.1291 19.5101 16.1796 19.3075 16.3261C19.0927 16.4815 18.9712 16.7055 18.8989 16.9082C18.775 17.256 18.7492 17.6882 18.7568 18.0894C18.6222 17.96 18.4766 17.8405 18.3211 17.7451C17.9831 17.5378 17.5287 17.404 17.0603 17.6275L16.9698 17.6752C16.5387 17.9265 16.4016 18.3682 16.392 18.7576C16.3821 19.1589 16.4973 19.5913 16.6293 19.9577C16.6933 20.1351 16.7662 20.3068 16.838 20.4661C16.6196 20.4552 16.3775 20.4597 16.1417 20.5025C15.8665 20.5524 15.556 20.6611 15.3128 20.8981L15.2434 20.9715C15.0916 21.1469 15.0044 21.3551 14.9885 21.581C14.9714 21.8256 15.0408 22.0517 15.1323 22.2406C15.2941 22.5747 15.5757 22.8873 15.8535 23.1494C15.7473 23.1575 15.6412 23.1693 15.538 23.1885C15.2243 23.2469 14.853 23.3782 14.6068 23.6906L14.5516 23.7709C14.4388 23.9621 14.4377 24.1683 14.4596 24.3172C14.4849 24.4896 14.5505 24.6589 14.6223 24.8059C14.7675 25.1028 14.9921 25.4229 15.2099 25.7043C15.4317 25.9906 15.6643 26.2591 15.8398 26.454C15.9051 26.5265 15.9639 26.5886 16.011 26.6392C16.0156 26.713 16.0202 26.8043 16.0318 26.9083C16.0627 27.1855 16.1247 27.5646 16.2519 27.959C16.4837 28.6785 16.9811 29.5821 18.0253 29.85L18.2411 29.8946C18.846 29.9918 19.2851 29.9974 19.5853 29.9735C19.6582 29.9677 19.7228 29.9593 19.7797 29.9509C19.8576 30.013 19.9548 30.0873 20.0652 30.1606C20.2886 30.3088 20.6506 30.5175 21.0408 30.5525L21.2097 30.5563C21.4789 30.543 21.7191 30.4369 21.9069 30.3232C22.0982 30.2074 22.2683 30.0635 22.4054 29.9317C22.4703 29.8692 22.5298 29.8068 22.5832 29.7487C22.6753 29.796 22.7798 29.8474 22.8932 29.8955C23.0902 29.9791 23.3252 30.0617 23.5695 30.1061C23.7794 30.1442 24.0239 30.1594 24.2671 30.1021L24.372 30.0728C24.6487 29.9824 24.8707 29.8029 25.0388 29.6262C25.2098 29.4463 25.3514 29.2417 25.4611 29.0581C25.5554 28.9005 25.6303 28.7491 25.6868 28.6284C25.779 28.6138 25.888 28.5955 26.004 28.5693C26.2785 28.5073 26.6705 28.3936 26.9805 28.1764L27.1084 28.0766C27.4122 27.8098 27.6097 27.3959 27.7225 27.1147C27.763 27.0138 27.7962 26.9182 27.8234 26.8365C27.8537 26.8269 27.8864 26.8178 27.9193 26.8062L28.1209 26.7232C28.6688 26.4571 28.8328 25.9364 28.8341 25.4702C28.8354 25.0192 28.6929 24.5301 28.5305 24.1104C28.3644 23.6811 28.159 23.2776 27.9975 22.9851C27.9602 22.9176 27.9242 22.8562 27.8921 22.8006C28.0155 22.6318 28.176 22.3953 28.3216 22.1267C28.4666 21.859 28.6092 21.5371 28.6754 21.2053C28.7412 20.8751 28.7417 20.4799 28.5291 20.1228L28.4759 20.0397C28.1968 19.6446 27.761 19.5223 27.376 19.5158C26.9745 19.5092 26.5478 19.6221 26.1859 19.7514C26.1737 19.7558 26.1615 19.7603 26.1494 19.7647C26.1915 19.6612 26.2323 19.5551 26.2706 19.448C26.4185 19.0345 26.549 18.5509 26.5315 18.1236C26.5226 17.9052 26.4737 17.6619 26.3323 17.4482C26.1824 17.2218 25.9571 17.0721 25.6828 17.0074L25.5209 16.9801C25.1488 16.9415 24.8106 17.0715 24.5427 17.2383C24.3245 17.3743 24.1275 17.5515 23.9547 17.7325C23.9084 17.3538 23.8176 16.9256 23.6322 16.5767Z" fill="#F8A300" stroke="#FBF8EF"/>
<path d="M16.7764 25.1178C16.4445 25.2344 16.3021 25.4428 16.1394 25.7547C15.7694 26.4638 16.6849 27.7286 16.6849 27.7286C16.6849 27.7286 16.228 26.3338 16.6849 25.6744C17.4818 24.5243 19.3759 28.0401 19.3759 28.0401C19.3759 28.0401 18.8318 26.2927 19.5 26C20.0823 25.7449 22 28 22 28C22 28 21.2801 25.693 22.2638 25.2483C23.1758 24.8361 24.4966 26.4954 24.5 26.5C24.5016 26.5022 24.5016 26.5022 24.5 26.5C24.4984 26.4978 24.4984 26.4978 24.5 26.5C24.5 26.5 23.7527 24.1259 24.751 23.8781C25.4615 23.7018 26.4027 24.7648 26.4027 24.7648C26.3997 24.7594 26.3969 24.761 26.4027 24.7648C26.3997 24.7594 25.0299 22.2203 26 22C26.7251 21.8353 27.538 23.1766 27.6315 23.3383C27.6779 23.4188 27.7138 23.487 27.7377 23.5341C27.7496 23.5575 27.7587 23.5757 27.7645 23.5878C27.7674 23.5938 27.7698 23.5982 27.7711 23.601L27.7719 23.604C27.7719 23.604 27.7728 23.6045 28.0002 23.5006C28.2061 23.4065 28.2271 23.3969 28.2271 23.3969L28.2263 23.3939C28.2263 23.3939 28.2248 23.3906 28.2238 23.3885C28.2218 23.3843 28.2189 23.3781 28.2153 23.3707C28.208 23.3555 28.1969 23.3343 28.1833 23.3075C28.1559 23.2536 28.1163 23.1775 28.0647 23.0882C27.962 22.9104 27.8102 22.6747 27.619 22.4489C27.2542 22.018 26.1498 21.2018 25.5 21.5C24.8544 21.7963 25.3281 23.4815 25.3281 23.4815C25.3281 23.4815 24.7785 23.3588 24.4589 23.4733C23.7165 23.7391 23.8749 25.4062 23.8749 25.4062C23.8749 25.4062 22.8181 24.5177 22.1389 24.7648C20.9729 25.1889 21.4904 26.9792 21.4904 26.9792C21.4904 26.9792 20.1268 25.1352 19.1241 25.5405C18.7929 25.6744 18.6724 26.2638 18.6724 26.2587C18.4784 25.9806 18.1452 25.5586 17.8718 25.3781C17.5918 25.1933 17.1912 24.972 16.7764 25.1178Z" fill="#FBF8EF"/>
<path d="M121.867 30.0182C121.906 30.3134 121.849 30.6228 121.632 30.9135L121.556 31.0079C121.171 31.4575 120.681 31.5552 120.235 31.5488C120.012 31.5456 119.78 31.5163 119.577 31.4921C119.365 31.4666 119.172 31.4445 118.981 31.4422L118.781 31.4348C118.411 31.4133 118.006 31.3468 117.648 31.2756C117.849 31.6582 118.062 32.1062 118.186 32.5066L118.286 32.7771C118.325 32.8701 118.37 32.9666 118.417 33.0692C118.507 33.2626 118.615 33.489 118.691 33.7098C118.767 33.9315 118.829 34.1974 118.796 34.4775C118.759 34.7765 118.619 35.0474 118.37 35.2718L118.225 35.3843C117.883 35.6118 117.529 35.5962 117.288 35.576C116.985 35.5505 116.862 35.5311 116.719 35.5854L116.601 35.6454C116.491 35.7171 116.396 35.8277 116.232 36.0081C116.032 36.2289 115.724 36.5467 115.187 36.5833L115.059 36.5853C114.794 36.5766 114.554 36.485 114.351 36.3752C114.405 36.793 114.421 37.2724 114.295 37.6866C114.228 37.9073 114.115 38.1296 113.928 38.3099C113.736 38.4947 113.492 38.6109 113.21 38.652L113.022 38.6732C112.56 38.7142 111.945 38.6901 111.543 38.6179L111.537 38.6158C111.536 38.6164 111.534 38.6182 111.53 38.6217C111.49 38.6508 111.44 38.7085 111.343 38.84C111.264 38.9482 111.14 39.1239 110.988 39.2656C110.822 39.4196 110.594 39.5627 110.289 39.5901L110.125 39.5936C109.75 39.5792 109.433 39.4015 109.19 39.1977C109.179 39.1878 109.169 39.1754 109.158 39.1653C109.144 39.2969 109.124 39.4284 109.093 39.5552C108.995 39.9483 108.784 40.3648 108.352 40.6043L108.227 40.6661C107.609 40.9349 107.06 40.6414 106.732 40.4707C106.307 40.2497 106.116 40.1622 105.898 40.2263L105.782 40.2733C105.674 40.332 105.581 40.4281 105.433 40.5869C105.246 40.7861 104.965 41.0912 104.479 41.2008L104.356 41.2218C103.752 41.2947 103.289 40.8808 102.992 40.4908C102.657 40.0509 102.384 39.4571 102.171 38.8932C102.099 38.7015 102.034 38.508 101.972 38.3206C101.924 38.4621 101.871 38.6061 101.816 38.7504C101.612 39.2854 101.358 39.8494 101.057 40.284C100.907 40.5013 100.73 40.7077 100.524 40.8609C100.316 41.0161 100.051 41.134 99.7451 41.1179L99.5891 41.1014C99.2378 41.0429 98.9796 40.855 98.7934 40.6207C98.602 40.3798 98.4801 40.0793 98.3888 39.8557C98.2857 39.6032 98.2109 39.4206 98.1129 39.2803C98.0282 39.159 97.95 39.1041 97.8461 39.0822L97.7587 39.0759C97.6689 39.0821 97.5605 39.1271 97.341 39.2229C97.1089 39.3242 96.705 39.4991 96.2412 39.3113L96.1481 39.2693C95.8714 39.1297 95.7422 38.8642 95.6776 38.6635C95.6089 38.4501 95.5785 38.203 95.5671 37.9576C95.5442 37.463 95.5952 36.8653 95.6673 36.3051C95.6836 36.179 95.7017 36.0538 95.72 35.9307C95.7143 35.9363 95.7087 35.9421 95.703 35.9477C95.3565 36.2924 94.9526 36.6459 94.5434 36.8905C94.1577 37.1211 93.6432 37.3297 93.1391 37.1633L93.0095 37.1164C92.7157 37.001 92.4855 36.8428 92.3093 36.6457C92.1107 36.4233 92.0062 36.1804 91.9392 35.9692C91.9062 35.8651 91.8803 35.7633 91.859 35.6764C91.8365 35.5846 91.8199 35.5126 91.8 35.444C91.78 35.3754 91.7612 35.3254 91.7433 35.2885L91.6921 35.2099C91.4878 34.9908 91.2592 34.9021 90.9082 34.7341C90.6132 34.593 90.2563 34.3993 89.9981 33.9956L89.8941 33.8091C89.6319 33.2689 89.7847 32.677 90.0071 32.2051C90.2378 31.7158 90.6019 31.227 90.9647 30.8058C91.0605 30.6946 91.1581 30.5867 91.2543 30.4829C91.1086 30.5016 90.9589 30.5195 90.807 30.5327C90.2498 30.5809 89.6345 30.5865 89.0975 30.4713C88.6037 30.3652 88.0773 30.1339 87.7934 29.6366L87.74 29.5336C87.5624 29.1554 87.5654 28.8187 87.5686 28.5731C87.571 28.3855 87.5722 28.2564 87.5451 28.1303L87.507 28.0026C87.4359 27.8157 87.3197 27.7051 87.1094 27.5C86.9324 27.3276 86.6967 27.0912 86.5688 26.7169L86.5208 26.5478C86.377 25.9096 86.7803 25.3634 87.1731 24.9892C87.5927 24.5894 88.1652 24.2266 88.7159 23.9261C88.7707 23.8962 88.8264 23.8686 88.8812 23.8397C88.4926 23.7999 88.0978 23.7351 87.7608 23.6262C87.5426 23.5557 87.3219 23.4584 87.1382 23.3189C86.9741 23.1941 86.8213 23.0208 86.7473 22.7898L86.7204 22.6873C86.6165 22.175 86.812 21.7987 86.9644 21.5369C87.0864 21.3274 87.1692 21.1993 87.2132 21.0637L87.2443 20.9228C87.2802 20.6281 87.1863 20.3985 87.045 20.0219C86.9274 19.7089 86.7837 19.2981 86.8814 18.8007L86.9382 18.5819C87.1462 17.952 87.6663 17.6177 88.1992 17.4504C88.7269 17.2849 89.3378 17.2575 89.888 17.2818C89.96 17.285 90.0314 17.2911 90.1023 17.296C89.8788 17.1015 89.6493 16.8936 89.431 16.6785C88.9513 16.2059 88.4723 15.6561 88.2434 15.1326C88.128 14.8684 88.0487 14.5485 88.1296 14.225C88.206 13.9199 88.4038 13.6906 88.6702 13.5345L88.7886 13.4718C89.1971 13.2778 89.5916 13.3307 89.8086 13.3477C89.9887 13.3618 90.0786 13.3589 90.1482 13.3313L90.2136 13.2953C90.288 13.2434 90.3102 13.1972 90.3227 13.1297C90.3408 13.0323 90.3336 12.9008 90.3051 12.6848C90.2612 12.3524 90.133 11.7356 90.4375 11.1839L90.5045 11.0743C90.7592 10.6962 91.1115 10.4766 91.5242 10.4278C91.9111 10.3821 92.2981 10.4925 92.6437 10.6534C92.6762 10.6685 92.7079 10.6864 92.7405 10.7028C92.6703 10.41 92.6446 10.0962 92.7335 9.79552C92.8304 9.4685 93.0436 9.209 93.352 9.03403L93.4902 8.96445C93.9012 8.77988 94.3034 8.84172 94.5121 8.85957C94.6884 8.87463 94.7686 8.86959 94.827 8.84321L94.8813 8.8097C94.9431 8.7614 94.9725 8.71086 94.986 8.41133C94.9957 8.1965 94.99 7.78907 95.2277 7.42055L95.3456 7.26611C95.5614 7.02229 95.8331 6.87852 96.1389 6.85029C96.4296 6.82355 96.705 6.90501 96.9408 7.01935C97.1136 7.10315 97.2846 7.21334 97.4497 7.34058C97.388 7.04913 97.3525 6.75956 97.3648 6.49189C97.3774 6.21869 97.44 5.92642 97.6114 5.67651C97.7698 5.44568 97.9972 5.2864 98.2739 5.20518L98.3949 5.17518C98.8141 5.09013 99.1668 5.20954 99.4461 5.38644C99.7052 5.55061 99.9282 5.78365 100.095 5.95246C100.285 6.14393 100.415 6.26652 100.539 6.33534C100.609 6.37432 100.662 6.38888 100.724 6.37989L100.789 6.3624C100.935 6.31029 101.004 6.20775 101.139 5.83639C101.245 5.54765 101.407 5.02513 101.91 4.72611L102.015 4.66929C102.32 4.52144 102.65 4.4865 102.962 4.62484C103.25 4.75301 103.443 4.99538 103.572 5.22958C103.757 5.56313 103.878 5.99612 103.959 6.43809C104.118 6.09126 104.309 5.75902 104.539 5.4871C104.899 5.06243 105.41 4.72705 106.057 4.81038L106.187 4.83286C106.801 4.9626 107.127 5.42017 107.33 5.68032C107.534 5.94083 107.644 6.05205 107.792 6.09093L107.858 6.1034C108.063 6.12834 108.203 6.03866 108.52 5.74078C108.773 5.50318 109.179 5.08336 109.803 5.02985L109.93 5.02454C110.296 5.02329 110.619 5.14001 110.866 5.38004C111.103 5.60888 111.228 5.90875 111.293 6.20272C111.375 6.57199 111.378 6.99982 111.338 7.43323C111.492 7.26891 111.655 7.12046 111.826 7.0007C112.057 6.83881 112.328 6.71029 112.63 6.67996C112.943 6.64854 113.251 6.72789 113.532 6.91821L113.641 6.99942C113.881 7.19823 114.015 7.44766 114.095 7.68615C114.181 7.94168 114.214 8.2193 114.241 8.41515C114.273 8.63942 114.301 8.77463 114.346 8.86911C114.376 8.93381 114.407 8.96734 114.483 8.99255L114.557 9.00778C114.632 9.01419 114.719 8.99136 114.887 8.92652C115.065 8.85792 115.365 8.72487 115.737 8.73906L115.9 8.75496C116.256 8.81022 116.564 8.97824 116.748 9.28767C116.918 9.57464 116.932 9.90431 116.897 10.1905C116.827 10.7576 116.525 11.4213 116.2 12.0112C116.053 12.2792 115.892 12.5439 115.733 12.7938C115.799 12.7691 115.866 12.7426 115.934 12.7191C116.454 12.5388 117.047 12.3911 117.599 12.399C118.158 12.4071 118.752 12.5795 119.131 13.1237L119.248 13.3166C119.484 13.7657 119.464 14.2013 119.441 14.535C119.413 14.9358 119.388 15.1817 119.507 15.4535L119.578 15.5839C119.659 15.7048 119.772 15.8064 119.941 15.9692C120.155 16.1754 120.436 16.4695 120.509 16.9681L120.524 17.1611C120.524 17.5873 120.315 17.9373 120.06 18.2001C120.529 18.2199 121.005 18.2867 121.406 18.4457C121.667 18.5496 121.922 18.7029 122.117 18.9315C122.319 19.1678 122.435 19.4604 122.447 19.7971L122.444 19.966C122.421 20.3473 122.279 20.6322 122.163 20.8522C122.027 21.11 121.941 21.2621 121.914 21.4808L121.908 21.5824C121.909 21.8162 122.012 22.031 122.161 22.3871C122.316 22.7555 122.515 23.2957 122.184 23.9033L122.091 24.0515C121.891 24.3276 121.61 24.4973 121.327 24.6013C121.618 24.7771 121.9 24.9792 122.129 25.2147C122.499 25.5961 122.786 26.116 122.674 26.7439L122.65 26.8552C122.514 27.3957 122.137 27.6993 121.885 27.9058C121.592 28.1465 121.447 28.2749 121.387 28.4993L121.372 28.5778C121.356 28.7608 121.449 28.9546 121.63 29.3293C121.717 29.5089 121.831 29.7529 121.867 30.0182Z" fill="#F8A300" stroke="#FBF8EF"/>
<path d="M115.746 28.9646C115.699 29.2988 115.458 29.5026 115.221 29.614L115.104 29.6619C114.835 29.757 114.595 29.7405 114.452 29.7345C114.278 29.7272 114.226 29.7329 114.166 29.7634L114.123 29.7926C114.083 29.8319 114.045 29.9121 113.966 30.1272C113.882 30.3535 113.723 30.8236 113.198 31.0111L113.076 31.047C112.977 31.0704 112.878 31.0787 112.783 31.0778C112.851 31.2423 112.907 31.4118 112.934 31.5801C112.964 31.7666 112.965 31.9808 112.892 32.1917C112.815 32.4135 112.666 32.5985 112.452 32.7263L112.335 32.7884C112.066 32.9128 111.819 32.9072 111.653 32.9006C111.454 32.8927 111.388 32.8891 111.305 32.9205L111.238 32.9537C111.174 32.9926 111.115 33.0541 111 33.1724C110.857 33.321 110.628 33.5522 110.238 33.6326L110.097 33.6528C109.771 33.6808 109.473 33.574 109.236 33.4407C109.16 33.3979 109.088 33.349 109.017 33.2983C109.008 33.4331 108.989 33.5686 108.953 33.6969C108.876 33.9742 108.699 34.2842 108.35 34.4262L108.189 34.4761L108.02 34.4995C107.64 34.5202 107.362 34.3166 107.228 34.2257C107.029 34.0903 107.017 34.1033 107.006 34.105L106.967 34.1252C106.943 34.1464 106.901 34.1906 106.826 34.2821C106.709 34.4244 106.456 34.7556 105.988 34.7975L105.852 34.801C105.543 34.789 105.287 34.6421 105.1 34.4848C105.011 34.4097 104.93 34.3241 104.856 34.2366C104.806 34.3565 104.746 34.4758 104.672 34.5852C104.512 34.8223 104.249 35.0706 103.856 35.1088L103.748 35.1141C103.217 35.1144 102.931 34.7237 102.788 34.5311C102.59 34.263 102.538 34.2037 102.456 34.1818L102.377 34.1722C102.295 34.1744 102.191 34.2149 101.973 34.3114C101.746 34.4122 101.34 34.5982 100.868 34.4258L100.773 34.3862C100.313 34.1733 100.141 33.7467 100.098 33.3703C100.064 33.0796 100.1 32.7699 100.157 32.486C100.112 32.5154 100.067 32.5469 100.022 32.576C99.6587 32.8055 99.2577 33.035 98.9075 33.1718C98.7358 33.2389 98.5404 33.2974 98.3508 33.3069C98.1882 33.315 97.9454 33.2879 97.7573 33.1079L97.6801 33.0207C97.4259 32.6818 97.4712 32.3054 97.4818 32.151C97.4885 32.0532 97.4905 32.0144 97.4866 31.987C97.4543 31.9787 97.4089 31.9749 97.2978 31.97C97.1418 31.9631 96.7408 31.9655 96.4437 31.651L96.3857 31.5835C96.1424 31.2742 96.1485 30.9171 96.2181 30.6427C95.9971 30.6988 95.7642 30.7384 95.5395 30.7324C95.2156 30.7237 94.8421 30.6182 94.5973 30.2908L94.5011 30.1366C94.3456 29.8374 94.3701 29.5453 94.4447 29.3138C94.5121 29.1045 94.6335 28.9086 94.7068 28.7844C94.7829 28.6556 94.8197 28.5825 94.8371 28.5332C94.8094 28.5258 94.7653 28.5197 94.6684 28.5146C94.5251 28.507 94.2022 28.5102 93.902 28.3222L93.7754 28.229C93.5733 28.0568 93.4287 27.8168 93.4358 27.5225C93.4424 27.255 93.573 27.0367 93.6992 26.8834C93.9398 26.5914 94.3277 26.3383 94.6865 26.1388C94.3129 26.0548 93.9099 25.9307 93.6081 25.7293C93.4373 25.6153 93.2596 25.4512 93.1607 25.2186C93.0678 25 93.0648 24.7688 93.1356 24.547L93.1708 24.4527C93.2689 24.2181 93.4411 24.0695 93.5259 23.9971C93.5078 23.9844 93.4867 23.9693 93.4615 23.9522C93.3795 23.8964 93.2221 23.7924 93.1033 23.654C92.9805 23.5107 92.8811 23.3109 92.8938 23.0645L92.9061 22.9554C92.9716 22.5904 93.2299 22.3934 93.4669 22.2972C93.4312 22.2527 93.3961 22.2076 93.3652 22.1598C93.227 21.9458 93.1151 21.65 93.1898 21.3234L93.2336 21.1815C93.4209 20.7048 93.8866 20.5914 94.0473 20.5421C94.138 20.5142 94.1871 20.493 94.2133 20.4817C94.2053 20.4566 94.1912 20.4191 94.1594 20.3487C94.1041 20.2262 93.9568 19.9388 94.021 19.5904L94.0623 19.4374C94.2268 18.9803 94.6303 18.8243 94.9634 18.798C94.9817 18.7966 95.0003 18.7965 95.0187 18.7957C94.8582 18.5804 94.7117 18.3477 94.6304 18.1122C94.5671 17.9289 94.5252 17.7007 94.5849 17.4647C94.6412 17.2424 94.7746 17.0638 94.9571 16.9355L95.0381 16.8831C95.3863 16.6813 95.7437 16.7429 95.8904 16.7593C95.9834 16.7696 96.0197 16.7702 96.043 16.7675C96.0445 16.7673 96.0455 16.7666 96.0464 16.7665C96.0539 16.7397 96.0591 16.6966 96.0629 16.5889C96.0679 16.4446 96.0586 16.1015 96.269 15.7962L96.3739 15.6683C96.6687 15.3611 97.0318 15.3115 97.3508 15.3666C97.2398 15.0887 97.1513 14.8029 97.1235 14.5285C97.0992 14.2889 97.1148 14.0245 97.2245 13.7771C97.3252 13.5501 97.4927 13.3677 97.717 13.2414L97.8172 13.1902C98.116 13.054 98.3801 13.0548 98.5577 13.0562C98.694 13.0572 98.7738 13.0574 98.8473 13.0417L98.9201 13.0205C99.1017 12.9538 99.1981 12.8247 99.3931 12.5349C99.5475 12.3054 99.7763 11.958 100.21 11.7732L100.409 11.705C100.832 11.5913 101.218 11.6879 101.534 11.9006C101.705 12.0156 101.852 12.1642 101.982 12.326C102.034 12.1451 102.106 11.9694 102.213 11.8152C102.405 11.5374 102.689 11.3463 103.053 11.3057L103.214 11.2981C103.581 11.3016 103.844 11.4424 104.017 11.5345C104.151 11.6057 104.23 11.6456 104.309 11.6649L104.391 11.6776C104.486 11.6846 104.554 11.6632 104.735 11.604C104.888 11.5542 105.112 11.4824 105.395 11.5113L105.52 11.5307C105.983 11.6237 106.275 11.9521 106.45 12.2781C106.47 12.3147 106.49 12.3516 106.507 12.3894C106.536 12.3463 106.565 12.3041 106.597 12.2638C106.798 12.0073 107.1 11.767 107.503 11.7424L107.682 11.7458C108.21 11.7957 108.49 12.1557 108.646 12.353C108.783 12.5259 108.85 12.6037 108.917 12.6431L108.987 12.6722C109.102 12.7029 109.196 12.6755 109.471 12.5596C109.711 12.4587 110.128 12.2728 110.628 12.4509L110.798 12.5264C110.958 12.6128 111.091 12.7328 111.19 12.8832C111.318 13.0772 111.373 13.2937 111.39 13.4962C111.396 13.5719 111.397 13.649 111.394 13.7269C111.446 13.6973 111.497 13.6692 111.55 13.6468C111.722 13.5734 111.951 13.52 112.195 13.5902C112.451 13.6642 112.627 13.8472 112.737 14.0553L112.794 14.182C112.905 14.4747 112.867 14.7472 112.855 14.8789C112.839 15.0566 112.854 15.0614 112.862 15.0722L112.87 15.0842C112.872 15.0857 112.875 15.085 112.883 15.0863C112.929 15.0942 113.004 15.0903 113.163 15.0679C113.398 15.0348 113.963 14.9095 114.429 15.2563L114.516 15.3274C114.71 15.4998 114.836 15.7205 114.87 15.9779C114.907 16.2538 114.832 16.5133 114.729 16.7272C114.631 16.9317 114.489 17.1329 114.327 17.3247C114.345 17.3249 114.363 17.3245 114.381 17.3252C114.594 17.3329 114.826 17.3772 115.036 17.4981C115.256 17.6244 115.424 17.8187 115.521 18.0726L115.554 18.171C115.696 18.6595 115.494 19.0637 115.382 19.2969C115.242 19.59 115.208 19.6878 115.238 19.8078L115.255 19.8574C115.3 19.9679 115.407 20.0489 115.689 20.2209C115.954 20.3826 116.448 20.6662 116.548 21.2964L116.561 21.4036C116.602 21.9295 116.304 22.3189 115.966 22.5708C115.828 22.6741 115.671 22.763 115.508 22.8402C115.613 22.8875 115.713 22.9409 115.806 23.0011C116.163 23.2328 116.491 23.6281 116.404 24.1973L116.386 24.2931C116.277 24.7541 115.922 25.0005 115.75 25.1312C115.522 25.3051 115.501 25.3472 115.494 25.4065L115.495 25.4531C115.505 25.504 115.554 25.577 115.73 25.7591C115.908 25.9429 116.311 26.3179 116.264 26.9091L116.251 27.0117C116.212 27.2458 116.103 27.4514 115.926 27.608C115.736 27.7763 115.504 27.8548 115.294 27.8909C115.266 27.8957 115.237 27.8981 115.208 27.9016C115.335 28.0175 115.447 28.1375 115.535 28.2583C115.65 28.4182 115.787 28.6685 115.746 28.9646Z" stroke="#FBF8EF"/>
<path d="M101.646 17.1814C101.739 16.7821 101.981 16.3533 102.509 16.2094L102.686 16.1745C103.092 16.1266 103.444 16.2992 103.705 16.5112C103.872 16.6459 104.018 16.812 104.149 16.9842C104.174 16.8933 104.205 16.8033 104.24 16.7158C104.368 16.3987 104.587 16.0631 104.964 15.8782L105.06 15.8367C105.286 15.7494 105.528 15.7374 105.761 15.8268C106.009 15.9217 106.184 16.1069 106.306 16.2842C106.515 16.5884 106.651 16.9994 106.747 17.3891C106.844 17.2294 106.954 17.0765 107.079 16.9443C107.353 16.657 107.757 16.4108 108.267 16.5064L108.367 16.5291C108.848 16.6611 109.094 17.0527 109.204 17.4265C109.317 17.8117 109.317 18.2592 109.283 18.6472C109.267 18.8351 109.241 19.0198 109.212 19.1922C109.421 19.1255 109.656 19.0675 109.895 19.0482C110.173 19.0256 110.501 19.0509 110.797 19.2173L110.883 19.2704C111.075 19.4008 111.213 19.5796 111.286 19.7938C111.366 20.0258 111.357 20.2622 111.317 20.4682C111.247 20.8326 111.055 21.2071 110.854 21.532C110.959 21.5124 111.064 21.4965 111.169 21.4885C111.487 21.4643 111.88 21.4957 112.198 21.7343L112.272 21.7976C112.43 21.9534 112.484 22.1524 112.502 22.3019C112.521 22.475 112.502 22.6554 112.47 22.816C112.406 23.1402 112.271 23.5074 112.133 23.8352C111.993 24.169 111.837 24.4883 111.717 24.7218C111.673 24.8087 111.632 24.8838 111.6 24.9448C111.614 25.0173 111.633 25.1067 111.649 25.2102C111.69 25.486 111.728 25.8683 111.706 26.2822C111.667 27.0371 111.419 28.0382 110.479 28.5657L110.282 28.6644C109.722 28.9139 109.3 29.0323 109.003 29.0864C108.931 29.0995 108.867 29.108 108.81 29.1146C108.75 29.1946 108.676 29.2914 108.588 29.3906C108.41 29.5913 108.114 29.8861 107.746 30.0203L107.584 30.0674C107.32 30.1239 107.061 30.0831 106.85 30.0215C106.635 29.9588 106.434 29.8635 106.267 29.7714C106.189 29.7278 106.115 29.6827 106.049 29.6404C105.972 29.7097 105.884 29.7863 105.787 29.862C105.618 29.9934 105.412 30.1337 105.187 30.2394C104.994 30.3302 104.762 30.4078 104.512 30.4151L104.403 30.4137C104.113 30.3975 103.852 30.2811 103.644 30.1536C103.433 30.0238 103.243 29.8625 103.09 29.7133C102.958 29.5852 102.847 29.4582 102.761 29.3562C102.668 29.3657 102.558 29.3761 102.439 29.3806C102.158 29.3913 101.75 29.3823 101.395 29.2522L101.245 29.1886C100.883 29.0089 100.586 28.6598 100.405 28.4171C100.339 28.3299 100.283 28.2461 100.236 28.1742C100.204 28.1727 100.17 28.1723 100.135 28.1696L99.9189 28.1412C99.321 28.025 99.0285 27.5641 98.9073 27.1138C98.7901 26.6783 98.8019 26.1691 98.8509 25.7217C98.9011 25.2641 98.9957 24.8214 99.0765 24.4971C99.0952 24.4224 99.1142 24.3537 99.1309 24.2918C98.9682 24.1604 98.7523 23.9731 98.5425 23.751C98.3335 23.5297 98.1129 23.2552 97.9636 22.9516C97.8151 22.6495 97.713 22.2677 97.8265 21.868L97.8566 21.774C98.0247 21.3204 98.4142 21.09 98.7846 20.9848C99.1709 20.8751 99.6123 20.8744 99.9953 20.9063C100.008 20.9073 100.021 20.9086 100.034 20.9098C99.9667 20.8206 99.9 20.7285 99.8354 20.6349C99.5861 20.2733 99.3356 19.8395 99.2425 19.4222C99.195 19.2088 99.1797 18.9611 99.2613 18.7182C99.348 18.4609 99.5272 18.2583 99.7756 18.1252L99.925 18.0572C100.275 17.9242 100.635 17.9628 100.937 18.0551C101.183 18.1303 101.419 18.2509 101.632 18.3813C101.579 18.0035 101.557 17.5663 101.646 17.1814Z" fill="#F8A300" stroke="#FBF8EF"/>
<path d="M110.469 23.6718C110.82 23.6991 111.011 23.8638 111.248 24.1234C111.788 24.7134 111.229 26.1712 111.229 26.1712C111.229 26.1712 111.312 24.7059 110.7 24.1862C109.634 23.2798 108.709 27.1644 108.709 27.1644C108.709 27.1644 108.785 25.3359 108.064 25.225C107.436 25.1283 106.162 27.8008 106.162 27.8008C106.162 27.8008 106.265 25.3862 105.2 25.2096C104.212 25.0458 103.363 26.9891 103.361 26.9944C103.36 26.9969 103.36 26.9969 103.361 26.9944C103.362 26.9918 103.362 26.9918 103.361 26.9944C103.361 26.9944 103.472 24.5079 102.444 24.5253C101.712 24.5377 101.076 25.807 101.076 25.807C101.077 25.8011 101.08 25.8019 101.076 25.807C101.077 25.8011 101.748 22.995 100.754 23.0317C100.011 23.0591 99.5701 24.5643 99.5213 24.7446C99.4971 24.8343 99.48 24.9095 99.469 24.9611C99.4636 24.9868 99.4594 25.0068 99.4569 25.02C99.4557 25.0265 99.4545 25.0314 99.454 25.0344L99.4539 25.0375C99.4539 25.0375 99.4532 25.0382 99.2067 24.9963C98.9835 24.9584 98.9608 24.9545 98.9608 24.9545L98.9608 24.9514C98.9608 24.9514 98.9614 24.9478 98.9618 24.9455C98.9626 24.9409 98.9639 24.9342 98.9654 24.9261C98.9686 24.9096 98.9739 24.8862 98.9802 24.8568C98.9927 24.7977 99.0114 24.714 99.0383 24.6144C99.0919 24.4162 99.1779 24.1493 99.3045 23.8819C99.5463 23.3717 100.404 22.2989 101.108 22.4199C101.808 22.5401 101.784 24.2905 101.784 24.2905C101.784 24.2905 102.284 24.0306 102.622 24.0589C103.408 24.1248 103.683 25.7766 103.683 25.7766C103.683 25.7766 104.476 24.6461 105.196 24.7101C106.432 24.82 106.392 26.6832 106.392 26.6832C106.392 26.6832 107.236 24.5505 108.309 24.6843C108.663 24.7284 108.931 25.267 108.93 25.262C109.046 24.9434 109.259 24.4499 109.477 24.2052C109.7 23.9545 110.03 23.6376 110.469 23.6718Z" fill="#FBF8EF"/>
<path d="M48.0401 20.27C48.0401 20.27 47.2092 19.9863 47.2636 19.2289C47.3384 18.1885 48.3165 17.8178 49.3513 17.6868C50.4163 17.5519 52.0702 18.0923 52.0702 18.0923C52.0702 18.0923 48.9777 16.8711 49.2354 15.3534C49.3693 14.5646 49.7499 14.1255 50.4118 13.6759C51.3655 13.028 52.8693 13.8303 53.8472 14.5088C52.9255 13.7231 51.7261 12.4833 52.1089 11.6126C52.5162 10.6861 53.1947 10.2451 54.1916 10.0701C55.0936 9.91178 56.35 11.1017 57.1522 11.9987C56.4834 11.1187 55.6435 9.81111 55.7536 8.91321C55.8768 7.90888 56.8238 7.35814 57.8356 7.37094C58.7957 7.38308 59.7713 8.57084 60.3931 9.50888C59.7682 8.3803 58.9844 6.73443 59.3972 6.2147C60.046 5.39785 60.8634 4.90265 61.8653 5.19314C62.4037 5.34926 63.4079 7.27594 63.4079 7.27594C63.4079 7.27594 61.9729 4.53389 63.0411 3.51674C63.6216 2.96399 64.2051 2.71307 64.9904 2.87392C66.2553 3.13301 66.3971 5.86594 66.3971 5.86594C66.3971 5.86594 66.4131 2.62714 69.271 2.12639C69.9756 2.00293 71.0827 2.3956 71.0827 2.3956C71.0827 2.3956 68.7948 2.9924 68.4311 4.06422C67.9713 5.41888 70.2104 7.55824 69.2344 8.60416C68.5219 9.36777 66.7637 9.6278 66.7637 9.6278C66.7637 9.6278 67.0341 10.9725 66.4927 11.4411C66.0652 11.8111 65.0666 11.691 65.0666 11.691C65.0666 11.691 64.8653 12.6467 64.4103 12.9834C63.9557 13.3198 62.9839 13.2335 62.9839 13.2335C62.9839 13.2335 62.7828 14.1887 62.3282 14.5255C61.8735 14.8622 60.9012 14.7761 60.9012 14.7761C60.9012 14.7761 60.7004 15.7308 60.2461 16.0676C59.7913 16.4047 58.8185 16.3186 58.8185 16.3186C58.8185 16.3186 58.6175 17.2739 58.1628 17.6105C57.7082 17.947 56.7364 17.8607 56.7364 17.8607C56.7364 17.8607 56.4304 18.7085 56.08 19.1531C55.2817 20.1663 54.3812 20.5905 53.0916 20.5601C52.1796 20.5386 50.23 19.3721 49.3237 19.268C48.1997 19.139 48.0401 20.27 48.0401 20.27Z" fill="#F8A300"/>
<path d="M67.6839 21.0257L67.4594 20.072L68.3631 20.4497L68.3802 20.4569C68.3949 20.4626 68.4183 20.4709 68.4474 20.4811C68.5063 20.5016 68.5878 20.5279 68.678 20.5499C68.8882 20.6011 69.0344 20.6023 69.0889 20.5836L69.1638 20.5495C69.2306 20.5079 69.2746 20.439 69.3187 20.2959C69.352 20.1876 69.3759 20.0626 69.4075 19.8977C69.4371 19.7428 69.4729 19.5555 69.5289 19.367L69.5784 19.1621C69.6644 18.6984 69.5473 18.3225 69.3013 17.9614C68.9981 17.5164 68.5106 17.1111 67.9287 16.6487C67.3722 16.2065 66.7302 15.7125 66.2488 15.1298C65.754 14.5308 65.398 13.8033 65.447 12.8878L65.455 12.6156C65.462 12.3338 65.4791 12.021 65.627 11.6493L65.6806 11.5299C65.9711 10.9605 66.5602 10.7847 66.8762 10.6728C67.301 10.5223 67.4048 10.4484 67.4481 10.2954L67.4614 10.2087C67.4613 10.1195 67.42 10.0133 67.3182 9.80257C67.2013 9.56087 66.9766 9.13296 67.1265 8.60304L67.1671 8.47922C67.2752 8.19857 67.464 7.96834 67.6564 7.78804C67.8063 7.64773 67.9727 7.52531 68.1366 7.41953C67.4851 7.25382 66.8214 7.18987 66.3957 7.36441L66.2393 7.44355C65.8743 7.66051 65.5108 8.10077 65.2064 8.58563C65.0417 8.84786 64.9095 9.09772 64.8185 9.28258C64.7732 9.37471 64.7382 9.45064 64.7152 9.50186C64.7039 9.52707 64.6955 9.5464 64.69 9.55905L64.6828 9.57614L64.2127 10.7059L63.7577 9.57002L64.2211 9.38419L63.7568 9.56964L63.7563 9.56836C63.7559 9.56752 63.7561 9.5662 63.7556 9.5649C63.7546 9.56223 63.7523 9.5588 63.7506 9.55428C63.747 9.54506 63.7424 9.53167 63.7363 9.51537C63.7239 9.4825 63.7065 9.43534 63.6863 9.37765C63.6462 9.26267 63.5933 9.1018 63.5436 8.91763C63.4494 8.56841 63.3443 8.06288 63.4032 7.62423C63.3289 7.70033 63.2714 7.76842 63.2319 7.82641L63.1378 7.9764C62.9452 8.31516 62.9268 8.5836 62.8969 8.92524C62.8587 9.36143 62.801 9.87325 62.3112 10.4864L62.2135 10.5999C61.9818 10.8472 61.7325 10.98 61.5479 11.0809C61.334 11.1979 61.2043 11.2735 61.0857 11.422L61.0463 11.4775C60.9575 11.6201 60.8885 11.85 60.8607 12.1751C60.8301 12.5341 60.8545 12.9456 60.9053 13.3464C60.9558 13.7443 61.0303 14.1157 61.0926 14.3882C61.1237 14.5239 61.152 14.6345 61.1718 14.71C61.1816 14.7475 61.1899 14.7761 61.1952 14.7952C61.1979 14.8048 61.1997 14.8122 61.201 14.8167C61.2016 14.8189 61.2019 14.8206 61.2021 14.8215L61.2018 14.8224L61.4596 15.7148L60.5732 15.4367L60.5737 15.4379L60.5728 15.4376L60.5715 15.4381C60.5705 15.4378 60.5691 15.4368 60.567 15.4362C60.5622 15.4347 60.5542 15.4327 60.5443 15.4297C60.5245 15.4237 60.4946 15.4143 60.4559 15.403C60.3783 15.3803 60.2652 15.3476 60.1244 15.3095C59.8419 15.2332 59.4504 15.1345 59.0157 15.0455C58.1187 14.8621 57.1329 14.7412 56.5088 14.8713L56.3933 14.9062C56.2661 14.9537 56.1025 15.0403 55.9095 15.1704C55.7999 15.2443 55.6876 15.3268 55.5763 15.4144C55.7198 15.4028 55.8643 15.3966 56.0047 15.3993C56.3246 15.4056 56.7068 15.4569 57.0055 15.6601L57.1287 15.7525C57.4101 15.9825 57.6425 16.3033 57.797 16.5417C57.8907 16.6862 57.967 16.8185 58.02 16.9148C58.0465 16.963 58.0675 17.0029 58.0821 17.0311C58.0894 17.0453 58.0955 17.0569 58.0996 17.065C58.1015 17.0689 58.1029 17.072 58.1041 17.0744C58.1047 17.0755 58.1057 17.0765 58.1061 17.0773L58.1066 17.0786C58.1066 17.0787 58.1067 17.0789 57.6581 17.2993L58.1075 17.079L58.3104 17.4944L57.9128 17.7303L57.9119 17.73C57.9112 17.7303 57.9103 17.7311 57.9089 17.7319C57.9061 17.7336 57.9016 17.7368 57.8959 17.7402C57.8845 17.7469 57.8678 17.757 57.8461 17.77C57.802 17.7966 57.7372 17.8357 57.6578 17.8845C57.4988 17.9823 57.2795 18.1195 57.0396 18.2762C56.5497 18.5963 56.0075 18.9766 55.6956 19.2688L55.5953 19.3781C55.4289 19.5856 55.2944 19.8907 55.1912 20.2314C55.7069 19.915 56.398 19.6427 57.2109 19.7046L57.3673 19.7209C58.1411 19.8224 58.7983 20.2261 59.3617 20.7038C59.9572 21.2087 60.5055 21.8487 60.9989 22.3913C61.5137 22.9572 61.965 23.4136 62.4153 23.6684C62.8296 23.9029 63.2132 23.9528 63.6628 23.7345L63.8309 23.6401C64.0063 23.5313 64.2004 23.3823 64.3753 23.2351C64.4873 23.1408 64.5841 23.0539 64.6524 22.9908C64.6864 22.9594 64.7134 22.9341 64.7313 22.917C64.7402 22.9085 64.7468 22.902 64.7511 22.8978C64.753 22.8959 64.7542 22.8941 64.7552 22.8932L64.7568 22.8917L64.8726 22.7784L65.0334 22.7542L65.0346 22.7537C65.0356 22.7535 65.0371 22.7537 65.039 22.7534C65.0432 22.7527 65.0496 22.7522 65.0581 22.7508C65.0751 22.7482 65.1004 22.744 65.1322 22.7387C65.1956 22.7281 65.2843 22.7123 65.3848 22.6928C65.5922 22.6525 65.8272 22.5995 65.9944 22.5423L66.0387 22.5228C66.1421 22.4676 66.2453 22.3426 66.3324 22.1465C66.3774 22.0451 66.4079 21.9459 66.4273 21.8717C66.4368 21.8355 66.443 21.8065 66.4469 21.7878C66.4487 21.7786 66.4502 21.7718 66.4509 21.7683C66.4512 21.7665 66.4511 21.7653 66.4511 21.7652L66.452 21.7656L66.5629 21.0692L67.1836 21.4068L67.1854 21.4076C67.1885 21.4092 67.194 21.4127 67.2017 21.4166C67.2172 21.4244 67.2415 21.4357 67.2716 21.4493C67.3333 21.4772 67.4152 21.511 67.5017 21.5371C67.5855 21.5623 67.657 21.5737 67.709 21.5759C67.7204 21.5252 67.7272 21.4541 67.725 21.3674C67.7227 21.2771 67.712 21.189 67.7015 21.1221C67.6963 21.0893 67.6917 21.0626 67.6883 21.0455C67.6866 21.0372 67.6848 21.0313 67.6841 21.0278L67.6839 21.0257ZM67.6839 21.0257L67.6834 21.0244L67.683 21.0253L67.6839 21.0257Z" fill="#65D157" stroke="#FBF8EF"/>
<path d="M62.6483 23.7262C62.8384 22.1508 65.4981 20.3904 65.4981 20.3904L66.5 22.5C66.5 22.5 65.8131 23.7734 65.7813 24.6629C65.7036 26.8378 69.1012 26.7892 69.4668 28.843C69.7254 30.2954 69.7673 31.6237 68.5945 32.5184C67.2996 33.5062 64.4555 32.0072 64.4555 32.0072C64.4555 32.0072 67.5153 32.884 67.8683 31.5885C69.0004 27.4324 63.9196 28.3769 63.0454 26.3739C62.6272 25.4156 62.4803 25.1179 62.6483 23.7262Z" fill="#65D157"/>
<path d="M66.8969 18.4662L64.3186 19.8599C64.3186 19.8599 64.8018 21.3999 65.1363 22.0553C65.8851 23.5224 67.144 23.7036 68.1429 25.0133C69.1413 26.3222 69.1304 27.4413 70.1999 28.6928C70.9713 29.5955 71.4098 30.1922 72.4824 30.7016C73.6723 31.2668 74.9017 32.0905 75.8255 31.1514C76.5184 30.4471 76.6449 29.5064 76.1628 28.644C75.8034 28.0013 74.6036 27.5834 74.6036 27.5834C74.6036 27.5834 75.576 29.6464 74.7405 29.7291C72 30 72.0928 25.3377 70.5117 23.2047C69.5312 21.8819 68.2549 21.7138 67.5068 20.2469C67.1729 19.5921 66.8969 18.4662 66.8969 18.4662Z" fill="#65D157"/>
<path d="M69.4013 18.3576C65.7449 18.4635 65.1235 20.34 65.1235 20.34C65.1235 20.34 68.8113 19.9965 69.7849 20.9585C71.2634 22.4194 71.3578 22.6095 71.6593 24.666C71.8498 25.9651 73.7465 27.3164 74.9816 27.3653C75.9273 27.4028 76.6478 27.2334 77.2452 26.4992C77.9695 25.609 78.0794 24.4424 77.3431 23.5621C76.8121 22.9274 75.3694 22.7907 75.3694 22.7907C75.3694 22.7907 76.3787 24.2364 75.8973 24.5727C73.9698 25.9192 72.8732 18.2571 69.4013 18.3576Z" fill="#65D157"/>
<path d="M43.1073 41.2245C44.9489 41.9083 48.6598 36.7764 48.6598 36.7764C48.6598 36.7764 51.855 38.1036 53.6587 37.3265C54.9944 36.7509 56.3033 34.704 56.3033 34.704C56.3033 34.704 62.7466 40.651 65.2389 37.907C67.7786 35.1107 61.5654 34.7293 61.5654 34.7293C61.5654 34.7293 63.9688 32.9484 65.52 33.4331C67.4087 34.0233 68.6706 35.8613 67.8714 37.9214C65.6736 43.587 57.333 39.1862 57.333 39.1862C57.333 39.1862 68.1509 48.3515 62.8008 51.8519C61.4002 52.7683 58.5921 51.0414 58.5921 51.0414C58.5921 51.0414 60.9522 51.5009 62.0043 50.7368C65.4236 48.253 54.6901 41.8081 54.6901 41.8081C54.6901 41.8081 59.3975 46.8302 57.0085 51.5643C56.2201 53.1265 55.3067 54.2035 53.573 54.4408C52.188 54.6303 51.0582 54.4408 50.1566 53.3725C49.5276 52.627 49.1785 51.9538 49.3784 50.999C49.5727 50.0712 50.9671 49.1638 50.9671 49.1638C50.9671 49.1638 50.2888 51.0128 50.9542 51.7966C51.5676 52.5192 52.4084 52.5906 53.321 52.3344C54.4497 52.0175 54.7352 51.0603 55.1761 49.9739C56.423 46.9012 50.9993 42.5808 50.9993 42.5808C50.9993 42.5808 49.766 51.7682 45.4232 52.297C43.7617 52.4992 42.5713 52.4666 41.2145 51.4864C39.8705 50.5156 38.9362 49.4371 39.1262 47.7901C39.2864 46.4015 39.9526 45.4358 41.2462 44.9061C42.1978 44.5166 43.8791 44.919 43.8791 44.919C43.8791 44.919 41.1715 46.0847 41.231 47.5379C41.2817 48.7759 42.2688 49.2762 43.3283 49.9188C46.873 52.0689 48.632 40.7224 48.632 40.7224C48.632 40.7224 46.7713 44.3987 42.0432 43.3269C40.7358 43.0305 39.9779 41.7413 40.2144 40.4217C40.4328 39.2029 42.594 38.3266 42.594 38.3266C42.594 38.3266 41.8505 40.7578 43.1073 41.2245Z" fill="#65D157"/>
<path d="M47.9782 30.6615C49.116 29.4184 50.5148 29.3201 51.9536 28.9695L52.1995 28.9043C52.4427 28.8359 52.6799 28.7574 52.9226 28.6775C53.2384 28.5734 53.5708 28.4652 53.9017 28.3944C54.5883 28.2476 55.3115 28.2553 56.0664 28.7463L56.2889 28.9046C57.2005 29.6051 57.4374 30.5416 57.5969 31.5115L57.667 31.9603C57.7567 32.5442 57.8045 33.0674 57.7522 33.59C57.7059 34.0537 57.583 34.4993 57.365 34.9791L57.2658 35.1873C56.8848 35.9483 56.4052 36.4894 55.8096 36.8991C55.3706 37.2011 54.8795 37.4236 54.3442 37.6139L53.7942 37.7953C53.0509 38.0247 52.5383 38.1035 51.8271 38.0837L51.5091 38.0698C49.7298 37.9622 47.8806 37.6382 46.9663 35.8277L46.8807 35.6482C46.4957 34.7872 46.4278 33.9531 46.611 33.1488C46.7917 32.3554 47.2104 31.6183 47.7546 30.926L47.9782 30.6615Z" fill="#F8A300" stroke="#FBF8EF"/>
<circle cx="50.7848" cy="31.2521" r="0.5" transform="rotate(26.8458 50.7848 31.2521)" fill="#FBF8EF" stroke="#F8A300" stroke-width="0.177477"/>
<circle cx="53.4166" cy="31.2658" r="0.5" transform="rotate(26.8458 53.4166 31.2658)" fill="#FBF8EF" stroke="#F8A300" stroke-width="0.177477"/>
<circle cx="52.3541" cy="33.3664" r="0.5" transform="rotate(26.8458 52.3541 33.3664)" fill="#FBF8EF" stroke="#F8A300" stroke-width="0.177477"/>
<circle cx="49.7213" cy="33.3537" r="0.5" transform="rotate(26.8458 49.7213 33.3537)" fill="#FBF8EF" stroke="#F8A300" stroke-width="0.177477"/>
<circle cx="49.2028" cy="31.7726" r="0.5" transform="rotate(26.8458 49.2028 31.7726)" fill="#FBF8EF" stroke="#F8A300" stroke-width="0.177477"/>
<circle cx="49.7077" cy="35.9855" r="0.5" transform="rotate(26.8458 49.7077 35.9855)" fill="#FBF8EF" stroke="#F8A300" stroke-width="0.177477"/>
<circle cx="52.8717" cy="34.9494" r="0.5" transform="rotate(26.8458 52.8717 34.9494)" fill="#FBF8EF" stroke="#F8A300" stroke-width="0.177477"/>
<circle cx="53.9352" cy="32.8478" r="0.5" transform="rotate(26.8458 53.9352 32.8478)" fill="#FBF8EF" stroke="#F8A300" stroke-width="0.177477"/>
<circle cx="54.9997" cy="30.7472" r="0.5" transform="rotate(26.8458 54.9997 30.7472)" fill="#FBF8EF" stroke="#F8A300" stroke-width="0.177477"/>
<circle cx="56.0368" cy="33.9103" r="0.5" transform="rotate(26.8458 56.0368 33.9103)" fill="#FBF8EF" stroke="#F8A300" stroke-width="0.177477"/>
</g>
<defs>
<clipPath id="clip0_2741_1285">
<rect width="128" height="128" fill="white"/>
</clipPath>
</defs>
</svg>
