<svg width="128" height="128" viewBox="0 0 128 128" fill="none" xmlns="http://www.w3.org/2000/svg">
<g clip-path="url(#clip0_2793_244)">
<rect width="128" height="128" transform="matrix(-1 0 0 1 128 0)" fill="#FBF8EF"/>
<path d="M35.9439 45.137C35.4354 43.4489 34.2656 42.3811 32.8054 41.7469C31.2695 41.08 29.4022 40.8847 27.5967 40.9042L27.0322 40.9142C25.7141 40.948 24.3914 41.0652 23.2227 41.4658C21.9485 41.9027 20.8506 42.6794 20.1306 44.03L19.9915 44.3066C19.339 45.7001 19.5771 46.8882 19.9988 48.0069C20.1983 48.5361 20.4703 49.1242 20.686 49.6531C20.8839 50.1385 21.0612 50.633 21.1798 51.1606L21.2271 51.3886C21.3485 52.0344 21.459 52.9373 21.5961 53.9286C21.7313 54.9055 21.8908 55.9557 22.1096 56.8487C22.2191 57.2954 22.3458 57.7164 22.4979 58.0755C22.6468 58.427 22.8367 58.7608 23.0905 58.9957C23.3633 59.248 23.7245 59.394 24.141 59.303C24.4706 59.2309 24.7715 59.0223 25.0501 58.7379L25.1681 58.612C25.811 57.8922 26.2751 56.7793 26.6207 55.5846C26.8646 54.7415 27.0577 53.8259 27.2112 52.9198C27.3218 53.791 27.4592 54.6714 27.6383 55.4885C27.8676 56.5354 28.1686 57.5222 28.5753 58.2564L28.7569 58.5549C29.0026 58.9242 29.2896 59.2215 29.6421 59.3483C30.0369 59.4902 30.4042 59.3834 30.6916 59.1698C30.9584 58.9716 31.1764 58.6716 31.3587 58.3528C31.5453 58.0264 31.7174 57.6382 31.8778 57.2235C32.198 56.395 32.4897 55.407 32.7579 54.4908C33.0305 53.5602 33.276 52.7138 33.5101 52.1215L33.5986 51.909C33.8121 51.4189 34.0747 50.9724 34.355 50.539C34.6605 50.0666 35.0307 49.5472 35.3209 49.0714C35.9346 48.0653 36.3866 46.9597 36.0374 45.4824L35.9439 45.137Z" fill="#F8A300" stroke="#FBF8EF"/>
<path d="M10.3072 52.1883C8.54606 52.2705 7.22552 53.1452 6.25497 54.407C5.2342 55.7343 4.59016 57.4979 4.16941 59.2539L4.04171 59.8038C3.75363 61.0904 3.54525 62.4019 3.64928 63.633C3.76276 64.9752 4.24882 66.2291 5.38351 67.2563L5.61792 67.4586C6.81055 68.4307 8.02091 68.489 9.20865 68.3523C9.77044 68.2877 10.4071 68.1671 10.9726 68.0866C11.4916 68.0128 12.0144 67.9613 12.5549 67.9747L12.7876 67.9844C13.4435 68.0238 14.3462 68.1365 15.3411 68.2448C16.3214 68.3516 17.3788 68.4525 18.2983 68.4577C18.7582 68.4603 19.1973 68.4399 19.5827 68.3798C19.9598 68.321 20.3299 68.2181 20.6195 68.029C20.9306 67.826 21.1602 67.5111 21.1733 67.085C21.1836 66.7478 21.0546 66.4052 20.8465 66.0657L20.7532 65.9206C20.2115 65.1218 19.2452 64.4007 18.1705 63.7746C17.4121 63.3328 16.5711 62.9226 15.7297 62.5532C16.6016 62.658 17.4889 62.739 18.325 62.7643C19.3963 62.7967 20.4267 62.7451 21.2378 62.5293L21.5715 62.4258C21.9896 62.2775 22.3478 62.0714 22.5565 61.7604C22.7903 61.4121 22.7761 61.0298 22.639 60.6991C22.5117 60.392 22.2738 60.1076 22.009 59.8532C21.7378 59.5926 21.4032 59.3312 21.04 59.0748C20.3143 58.5624 19.4271 58.039 18.6038 57.5557C17.7676 57.0649 17.0064 56.6206 16.4889 56.2494L16.3044 56.1118C15.881 55.7854 15.5119 55.422 15.1597 55.0446C14.776 54.6333 14.3623 54.1478 13.9715 53.7505C13.1451 52.9103 12.1828 52.2028 10.6649 52.1817L10.3072 52.1883Z" fill="#F8A300" stroke="#FBF8EF"/>
<path d="M45.7348 50.9373C47.4959 51.0196 48.8165 51.8942 49.787 53.156C50.8078 54.4833 51.4518 56.2469 51.8726 58.0029L52.0003 58.5528C52.2884 59.8395 52.4967 61.151 52.3927 62.382C52.2792 63.7242 51.7932 64.9782 50.6585 66.0053L50.4241 66.2076C49.2314 67.1797 48.0211 67.238 46.8333 67.1014C46.2715 67.0367 45.6349 66.9161 45.0694 66.8357C44.5504 66.7619 44.0276 66.7104 43.4871 66.7238L43.2544 66.7334C42.5985 66.7729 41.6958 66.8855 40.7009 66.9938C39.7206 67.1006 38.6632 67.2016 37.7437 67.2067C37.2838 67.2093 36.8447 67.1889 36.4593 67.1288C36.0822 67.07 35.7121 66.9671 35.4225 66.7781C35.1114 66.575 34.8818 66.2601 34.8687 65.8341C34.8584 65.4968 34.9874 65.1542 35.1955 64.8147L35.2888 64.6696C35.8305 63.8708 36.7968 63.1497 37.8715 62.5236C38.6299 62.0818 39.4709 61.6716 40.3123 61.3022C39.4404 61.407 38.5531 61.488 37.717 61.5133C36.6457 61.5457 35.6153 61.4941 34.8042 61.2783L34.4705 61.1749C34.0524 61.0265 33.6942 60.8205 33.4854 60.5095C33.2517 60.1611 33.2659 59.7788 33.403 59.4481C33.5303 59.141 33.7682 58.8566 34.033 58.6022C34.3042 58.3417 34.6388 58.0803 35.002 57.8238C35.7276 57.3115 36.6149 56.788 37.4382 56.3048C38.2744 55.8139 39.0356 55.3697 39.5531 54.9985L39.7376 54.8608C40.161 54.5344 40.5301 54.171 40.8823 53.7936C41.266 53.3823 41.6797 52.8968 42.0705 52.4995C42.8969 51.6593 43.8592 50.9518 45.3771 50.9308L45.7348 50.9373Z" fill="#F8A300" stroke="#FBF8EF"/>
<path d="M49.5154 76.0403C50.2784 77.6297 50.1348 79.2071 49.4843 80.66C48.7999 82.1882 47.5529 83.5917 46.2066 84.795L45.783 85.1683C44.787 86.0322 43.7312 86.8377 42.5981 87.3301C41.3627 87.8668 40.0282 88.0337 38.5858 87.5219L38.2965 87.4115C36.875 86.8227 36.2495 85.7848 35.8065 84.6744C35.597 84.1491 35.4011 83.5314 35.2037 82.9955C35.0225 82.5036 34.8199 82.0189 34.5517 81.5494L34.4329 81.3491C34.087 80.7904 33.5597 80.0491 32.9924 79.2247C32.4334 78.4123 31.8429 77.5293 31.4023 76.7223C31.1819 76.3187 30.9915 75.9224 30.8616 75.5546C30.7345 75.1947 30.6496 74.8201 30.6786 74.4755C30.7098 74.1053 30.8782 73.7538 31.247 73.5402C31.539 73.3712 31.9019 73.3222 32.2994 73.3444L32.4714 73.3577C33.4316 73.4557 34.5248 73.9644 35.5857 74.6135C36.3344 75.0715 37.0944 75.6174 37.8187 76.1829C37.3129 75.465 36.8207 74.7223 36.4018 73.9982C35.8652 73.0705 35.4219 72.1389 35.2271 71.3225L35.1598 70.9796C35.0921 70.5413 35.1036 70.1282 35.2784 69.7969C35.4742 69.4258 35.8175 69.257 36.1737 69.2208C36.5044 69.1873 36.8676 69.2618 37.2172 69.3743C37.5752 69.4894 37.964 69.6599 38.3621 69.8581C39.1573 70.2539 40.039 70.7867 40.8549 71.2823C41.6837 71.7856 42.4358 72.245 43.0081 72.5245L43.2168 72.6217C43.705 72.8395 44.2 72.9921 44.6992 73.1231C45.2433 73.2659 45.8669 73.3998 46.4021 73.5554C47.5337 73.8843 48.613 74.3959 49.3515 75.7222L49.5154 76.0403Z" fill="#F8A300" stroke="#FBF8EF"/>
<path d="M19.6926 88.5637C18.0975 89.3146 16.5213 89.1591 15.0733 88.4977C13.5503 87.8018 12.1562 86.5442 10.9631 85.1889L10.5931 84.7625C9.73671 83.76 8.93918 82.6982 8.4554 81.5614C7.92802 80.322 7.77121 78.9862 8.29381 77.5477L8.40639 77.2593C9.00595 75.8423 10.0485 75.2246 11.1623 74.79C11.6891 74.5844 12.3083 74.3933 12.8457 74.1999C13.3389 74.0224 13.8251 73.8235 14.2967 73.5588L14.4978 73.4415C15.0591 73.0999 15.8043 72.5781 16.633 72.0171C17.4496 71.4642 18.3371 70.8805 19.1474 70.4459C19.5527 70.2286 19.9504 70.0412 20.3191 69.9141C20.68 69.7897 21.0552 69.7076 21.3996 69.7393C21.7696 69.7733 22.1197 69.9443 22.3305 70.3147C22.4974 70.6079 22.5436 70.9712 22.5184 71.3685L22.5038 71.5405C22.3986 72.4998 21.8817 73.5892 21.2246 74.6451C20.7609 75.3903 20.2093 76.1462 19.6383 76.8662C20.36 76.3658 21.1064 75.8793 21.8336 75.4659C22.7654 74.9363 23.7003 74.5 24.5181 74.3114L24.8615 74.2467C25.3004 74.1824 25.7134 74.197 26.0434 74.3742C26.4129 74.5729 26.5791 74.9174 26.6126 75.2738C26.6436 75.6048 26.5664 75.9674 26.4513 76.3162C26.3335 76.6733 26.16 77.0608 25.9589 77.4574C25.5571 78.2496 25.0176 79.1272 24.5159 79.9394C24.0063 80.7643 23.5413 81.5129 23.2575 82.0831L23.1587 82.291C22.9372 82.7776 22.7808 83.2714 22.6461 83.7697C22.4992 84.3127 22.3606 84.9352 22.201 85.4692C21.8635 86.5983 21.3438 87.6737 20.0119 88.4022L19.6926 88.5637Z" fill="#F8A300" stroke="#FBF8EF"/>
<path d="M26.8092 58.3495L26.8083 58.3505C26.8076 58.3515 26.8062 58.3535 26.8048 58.3557C26.8019 58.3601 26.7975 58.3667 26.7917 58.3754C26.7799 58.3935 26.762 58.4213 26.7387 58.4563C26.6921 58.5263 26.6232 58.6282 26.5362 58.7544C26.3617 59.0074 26.1138 59.3576 25.821 59.744C25.2282 60.5259 24.4758 61.4236 23.7853 61.9862L23.582 62.1452C23.0843 62.518 22.4407 62.9022 21.8815 63.212C21.5656 63.387 21.2833 63.5347 21.0802 63.6384C20.9787 63.6902 20.8971 63.7307 20.8412 63.7583C20.8133 63.7721 20.7916 63.7831 20.7772 63.7901C20.7703 63.7935 20.7646 63.7956 20.7612 63.7973C20.7595 63.7981 20.7582 63.7992 20.7575 63.7996L20.7565 63.7997L20.2092 64.0648L20.5741 64.5508L20.5751 64.5507L20.5752 64.5517C20.5758 64.5526 20.577 64.5544 20.5785 64.5563C20.5817 64.5607 20.5873 64.5677 20.5939 64.5766C20.6072 64.5945 20.6269 64.6219 20.6525 64.657C20.7038 64.7271 20.7785 64.8298 20.8698 64.9593C21.0528 65.2188 21.3034 65.5839 21.5724 66.0061C22.049 66.7541 22.5654 67.6525 22.8795 68.45L23.0015 68.7847C23.2387 69.5055 23.2465 70.5162 23.1798 71.3952C23.1472 71.8251 23.0985 72.2068 23.0576 72.4803C23.0372 72.6167 23.0189 72.7259 23.0059 72.8002C22.9994 72.837 22.9938 72.8651 22.9903 72.8838C22.9886 72.893 22.987 72.9003 22.9861 72.9047C22.9857 72.9069 22.9858 72.9088 22.9856 72.9097L22.9857 72.9107L22.8182 73.7586L23.6368 73.4806L23.6388 73.4805C23.6402 73.48 23.6426 73.4789 23.6454 73.4779C23.6512 73.476 23.6598 73.4727 23.6711 73.4689C23.6945 73.4611 23.7299 73.4497 23.7751 73.4348C23.8654 73.405 23.9971 73.3616 24.1605 73.3096C24.4877 73.2055 24.9426 73.0658 25.4511 72.9208C26.3519 72.664 27.3906 72.4017 28.1944 72.2914L28.5235 72.2542C29.4384 72.1741 30.7922 72.3205 31.9541 72.4984C32.5273 72.5862 33.0408 72.6792 33.4107 72.7504C33.5954 72.786 33.744 72.8165 33.8462 72.8376C33.8973 72.8481 33.9374 72.8565 33.9639 72.8621C33.9766 72.8648 33.9863 72.8671 33.9928 72.8685C33.9961 72.8692 33.9992 72.8694 34.0008 72.8698L34.0028 72.8706L35.0747 73.1037L34.5476 72.1412L34.5467 72.1413C34.5462 72.1404 34.5454 72.1386 34.5443 72.1366C34.542 72.1323 34.5386 72.125 34.5338 72.1159C34.524 72.0977 34.5094 72.0702 34.4907 72.0342C34.4531 71.9617 34.3988 71.8545 34.3343 71.7209C34.205 71.4534 34.0353 71.0799 33.8722 70.656C33.5567 69.8364 33.3004 68.9118 33.3423 68.2023L33.3543 68.0631C33.4571 67.2188 33.8982 66.0268 34.3392 65.0069C34.5559 64.5057 34.7667 64.061 34.9226 63.7412C35.0005 63.5814 35.0643 63.4529 35.1088 63.3651C35.1311 63.3212 35.1486 63.2874 35.1603 63.2647C35.1661 63.2535 35.1709 63.2447 35.1738 63.2391C35.1751 63.2365 35.1756 63.2343 35.1762 63.233L35.1771 63.232L35.5018 62.612L34.8109 62.506L34.8099 62.5061C34.8091 62.5059 34.8077 62.5057 34.8059 62.5054C34.8021 62.5048 34.796 62.5033 34.788 62.502C34.7718 62.4993 34.7474 62.495 34.7154 62.4894C34.6512 62.4783 34.5566 62.4613 34.4387 62.438C34.2025 62.3913 33.8729 62.3199 33.5025 62.222C32.7495 62.0231 31.8733 61.7265 31.2515 61.3278L30.9568 61.1309C30.2568 60.6461 29.4763 59.9929 28.8341 59.4243C28.47 59.1018 28.1552 58.811 27.9316 58.6009C27.8198 58.4959 27.7315 58.4104 27.6708 58.3522C27.6404 58.323 27.6171 58.3005 27.6015 58.2854C27.5938 58.278 27.5873 58.273 27.5835 58.2693C27.5816 58.2674 27.5801 58.2656 27.5792 58.2647L27.5781 58.2638L27.1408 57.8368L26.8092 58.3495Z" fill="#F8A300" stroke="#FBF8EF"/>
<circle cx="1.16615" cy="1.16615" r="1.16615" transform="matrix(-1 0 0 1 32.6836 63.6572)" fill="#FBF8EF"/>
<circle cx="1.16615" cy="1.16615" r="1.16615" transform="matrix(-1 0 0 1 28.7979 60.5479)" fill="#FBF8EF"/>
<circle cx="1.16615" cy="1.16615" r="1.16615" transform="matrix(-1 0 0 1 24.9111 63.6572)" fill="#FBF8EF"/>
<circle cx="1.16615" cy="1.16615" r="1.16615" transform="matrix(-1 0 0 1 26.4658 69.0977)" fill="#FBF8EF"/>
<circle cx="1.94305" cy="1.94305" r="1.94305" transform="matrix(-1 0 0 1 29.5752 64.4336)" fill="#FBF8EF"/>
<circle cx="1.16615" cy="1.16615" r="1.16615" transform="matrix(-1 0 0 1 31.9062 68.3203)" fill="#FBF8EF"/>
<path d="M8.82331 6.4499C7.74883 6.07757 6.74698 6.28769 5.87524 6.80366C4.96559 7.34211 4.18607 8.21712 3.54597 9.1215L3.15487 9.69248C2.77369 10.2744 2.43156 10.8893 2.23627 11.5286C1.98534 12.3502 1.9748 13.2192 2.4073 14.1054L2.49945 14.2828C2.98898 15.1658 3.71691 15.4929 4.44162 15.6905C4.773 15.7809 5.18131 15.8623 5.50192 15.9406C5.76244 16.0042 6.01596 16.0765 6.26398 16.1735L6.51065 16.28C6.86583 16.4476 7.3416 16.7102 7.88323 16.9986C8.41194 17.2801 8.99331 17.5793 9.5207 17.7938C9.7846 17.9012 10.0473 17.993 10.2922 18.0493C10.5289 18.1037 10.7923 18.1359 11.0382 18.0867C11.3092 18.0325 11.571 17.873 11.7052 17.5656C11.7935 17.363 11.8068 17.139 11.7807 16.9158L11.7429 16.6935C11.608 16.0765 11.2031 15.4235 10.7343 14.8225C10.6201 14.6762 10.5002 14.5293 10.3753 14.3841C10.5235 14.4547 10.6702 14.5245 10.8163 14.5882C11.4169 14.8499 12.0312 15.0633 12.5682 15.1281L12.7932 15.1473C13.0785 15.1587 13.3781 15.1229 13.6176 14.9594C13.894 14.7706 13.9922 14.4821 13.9889 14.2146C13.9858 13.9731 13.9037 13.7301 13.8077 13.5177C13.708 13.2972 13.5721 13.065 13.4225 12.8341C13.1237 12.3734 12.7365 11.8714 12.3824 11.4145C12.0191 10.9456 11.6969 10.5323 11.495 10.2157L11.3604 9.9873C11.2338 9.75616 11.1308 9.51659 11.0352 9.27012C10.9177 8.96721 10.786 8.57984 10.6554 8.26777C10.3695 7.58465 9.95826 6.91455 9.03967 6.53198L8.82331 6.4499Z" fill="#F8A300" stroke="#FBF8EF"/>
<path d="M2.9328 21.6516C2.31008 22.6031 2.26996 23.626 2.55817 24.5971C2.85895 25.6105 3.51785 26.5796 4.23917 27.4206L4.69775 27.939C5.16932 28.4503 5.68246 28.9319 6.255 29.2769C6.9908 29.7204 7.83105 29.9421 8.79584 29.7384L8.99034 29.6922C9.966 29.4324 10.4604 28.806 10.8286 28.1512C10.9969 27.8518 11.1753 27.4756 11.3293 27.1837C11.4544 26.9465 11.5863 26.7182 11.7407 26.5013L11.904 26.288C12.1531 25.9843 12.5236 25.5868 12.9352 25.1316C13.337 24.6874 13.7687 24.1963 14.1052 23.7371C14.2736 23.5072 14.4265 23.2748 14.5408 23.051C14.6512 22.8346 14.7465 22.587 14.7587 22.3366C14.7721 22.0604 14.6811 21.7677 14.4156 21.5628C14.2407 21.4278 14.0266 21.3604 13.8038 21.3313L13.579 21.3139C12.9477 21.2945 12.2158 21.5282 11.5187 21.8366C11.349 21.9117 11.1774 21.9923 11.0061 22.078C11.1107 21.9514 11.2141 21.8262 11.3114 21.7C11.7115 21.1812 12.068 20.6373 12.2617 20.1322L12.3351 19.9187C12.4155 19.6447 12.4538 19.3455 12.3535 19.0734C12.2377 18.7593 11.9818 18.5938 11.7216 18.5319C11.4865 18.4761 11.2309 18.4966 11.0015 18.538C10.7633 18.581 10.505 18.6562 10.2447 18.7452C9.72508 18.9228 9.14393 19.1762 8.61451 19.4083C8.07129 19.6465 7.592 19.8584 7.23579 19.9772L6.98144 20.0521C6.72643 20.1187 6.46901 20.1602 6.20667 20.1929C5.88428 20.2331 5.47648 20.2666 5.14201 20.3173C4.40984 20.4283 3.65979 20.664 3.06509 21.4618L2.9328 21.6516Z" fill="#F8A300" stroke="#FBF8EF"/>
<path d="M14.9477 3.76224C15.6574 2.87368 16.6166 2.51634 17.6292 2.4871C18.6858 2.4566 19.8122 2.78016 20.8363 3.20299L21.4719 3.4769C22.1049 3.76533 22.7225 4.10257 23.229 4.53883C23.8799 5.0995 24.3528 5.82857 24.4604 6.80875L24.4772 7.00795C24.5348 8.01596 24.094 8.6812 23.5868 9.23529C23.3549 9.48864 23.0532 9.77552 22.8239 10.0129C22.6376 10.2058 22.4619 10.4024 22.3039 10.6168L22.1522 10.8385C21.9414 11.1699 21.6794 11.646 21.3755 12.1791C21.0788 12.6994 20.747 13.2628 20.4157 13.7258C20.2499 13.9575 20.0768 14.1754 19.8998 14.3538C19.7287 14.5262 19.5232 14.6941 19.2891 14.7838C19.0309 14.8827 18.7244 14.8876 18.4468 14.6993C18.264 14.5752 18.1332 14.3929 18.036 14.1903L17.9493 13.9821C17.7338 13.3884 17.7275 12.6201 17.8029 11.8616C17.8213 11.6769 17.8443 11.4887 17.8723 11.2993C17.7847 11.4382 17.698 11.5755 17.6085 11.7073C17.2405 12.2493 16.835 12.7577 16.4155 13.0994L16.2356 13.2357C16.0004 13.3977 15.7281 13.5274 15.4383 13.517C15.1037 13.5051 14.8666 13.3135 14.7266 13.0857C14.6002 12.8798 14.5399 12.6305 14.5076 12.3997C14.4742 12.1599 14.465 11.891 14.4683 11.616C14.4749 11.0669 14.5342 10.4357 14.5896 9.86027C14.6464 9.26984 14.6981 8.74837 14.6998 8.37288L14.6916 8.10783C14.6752 7.84481 14.6344 7.58727 14.5836 7.32782C14.5212 7.00899 14.4257 6.61112 14.3695 6.27753C14.2464 5.54729 14.2363 4.76115 14.8086 3.94718L14.9477 3.76224Z" fill="#F8A300" stroke="#FBF8EF"/>
<path d="M28.8316 10.7743C29.9505 10.9776 30.7201 11.6526 31.2261 12.5301C31.7541 13.4459 32.0035 14.5909 32.117 15.6931L32.1774 16.3825C32.2237 17.0766 32.2198 17.7803 32.076 18.4331C31.8911 19.2721 31.4736 20.0342 30.6617 20.5938L30.4943 20.7031C29.6343 21.232 28.8395 21.1595 28.1112 20.9758C27.7781 20.8918 27.3825 20.7622 27.0647 20.673C26.8065 20.6005 26.5501 20.539 26.2865 20.5017L26.0193 20.4733C25.6276 20.4449 25.0842 20.4401 24.4707 20.4253C23.8719 20.4109 23.2186 20.3861 22.6538 20.314C22.3712 20.278 22.0973 20.2289 21.8563 20.1577C21.6233 20.0889 21.378 19.9876 21.188 19.8241C20.9785 19.6437 20.8288 19.3762 20.8629 19.0425C20.8854 18.8227 20.9839 18.621 21.1161 18.4394L21.2583 18.2643C21.6788 17.793 22.3521 17.423 23.0556 17.1297C23.2269 17.0582 23.4035 16.9892 23.5836 16.924C23.4198 16.9128 23.2578 16.9016 23.0992 16.8853C22.4475 16.8184 21.8076 16.7026 21.3079 16.4954L21.1025 16.4016C20.8484 16.2714 20.605 16.0932 20.4767 15.8332C20.3285 15.5329 20.3847 15.2334 20.5189 15.002C20.6402 14.7931 20.831 14.6217 21.0189 14.4839C21.2141 14.3407 21.4465 14.2051 21.6902 14.0775C22.1767 13.8229 22.7605 13.5757 23.2934 13.3515C23.8401 13.1215 24.3237 12.9196 24.655 12.743L24.8845 12.6101C25.1083 12.4709 25.3156 12.3128 25.5199 12.145C25.771 11.9388 26.076 11.6661 26.343 11.4583C26.9275 11.0037 27.6148 10.6218 28.6028 10.7396L28.8316 10.7743Z" fill="#F8A300" stroke="#FBF8EF"/>
<path d="M24.5251 30.1353C24.3134 31.2525 23.6326 32.017 22.7513 32.5164C21.8316 33.0375 20.6847 33.2783 19.5818 33.3835L18.8919 33.4386C18.1975 33.4797 17.4938 33.4705 16.8421 33.3217C16.0045 33.1305 15.2456 32.7073 14.6921 31.8912L14.5841 31.723C14.0617 30.8589 14.1402 30.0648 14.3294 29.3378C14.416 29.0054 14.5485 28.6107 14.6401 28.2937C14.7146 28.036 14.778 27.7801 14.8173 27.5168L14.8477 27.2498C14.879 26.8583 14.888 26.315 14.9073 25.7017C14.9263 25.103 14.956 24.4498 15.0323 23.8856C15.0705 23.6033 15.1217 23.3297 15.1947 23.0893C15.2652 22.8569 15.3684 22.6123 15.5334 22.4236C15.7153 22.2154 15.9839 22.0678 16.3174 22.1044C16.537 22.1285 16.7379 22.2285 16.9185 22.3621L17.0925 22.5056C17.5606 22.9296 17.9256 23.6057 18.2136 24.3114C18.2837 24.4833 18.3514 24.6604 18.4153 24.841C18.4277 24.6773 18.4402 24.5153 18.4576 24.3569C18.5294 23.7057 18.6501 23.0667 18.8611 22.5686L18.9564 22.3639C19.0885 22.1108 19.2685 21.8687 19.5295 21.7424C19.8309 21.5965 20.13 21.6549 20.3604 21.7908C20.5684 21.9137 20.7383 22.1058 20.8747 22.2948C21.0164 22.4911 21.1502 22.7244 21.276 22.9691C21.5269 23.4575 21.7697 24.0432 21.9898 24.5777C22.2158 25.1261 22.4139 25.6113 22.5881 25.9439L22.7192 26.1744C22.8567 26.3992 23.0133 26.6078 23.1795 26.8133C23.3838 27.066 23.6542 27.373 23.8599 27.6416C24.3102 28.2295 24.6868 28.9196 24.5616 29.9068L24.5251 30.1353Z" fill="#F8A300" stroke="#FBF8EF"/>
<path d="M11.8223 15.9062L11.8233 15.9102C11.8244 15.913 11.8266 15.9179 11.8288 15.9238C11.8333 15.9357 11.8396 15.9535 11.8482 15.9766C11.8657 16.0236 11.891 16.0929 11.9218 16.1797C11.9834 16.3535 12.0662 16.5968 12.1509 16.8749C12.3236 17.4425 12.4923 18.1137 12.5217 18.6291L12.5263 18.9388C12.521 19.2667 12.4864 19.6388 12.4465 19.9677C12.4204 20.1826 12.3928 20.3716 12.3718 20.5068C12.3612 20.5743 12.353 20.6285 12.3468 20.6651C12.3438 20.6832 12.3407 20.697 12.3391 20.7061C12.3383 20.7108 12.3378 20.7143 12.3374 20.7165L12.3373 20.7187L12.2305 21.3183L12.8387 21.307C12.8393 21.3069 12.8408 21.3068 12.8422 21.3068C12.8453 21.3068 12.8506 21.3068 12.8571 21.3067C12.8701 21.3065 12.8898 21.3066 12.9154 21.3065C12.9671 21.3063 13.0434 21.3066 13.1383 21.3077C13.3288 21.3101 13.5949 21.3168 13.8946 21.3346C14.4296 21.3664 15.0394 21.4312 15.5229 21.5552L15.7221 21.6128C16.1219 21.7403 16.5974 22.0733 17.0028 22.4164C17.1982 22.5818 17.3646 22.7393 17.4821 22.8544C17.5403 22.9115 17.5863 22.9578 17.6171 22.9896C17.6325 23.0055 17.6448 23.0178 17.6523 23.0257C17.6558 23.0293 17.6584 23.032 17.66 23.0338L17.662 23.0361L18.2506 23.669L18.5056 22.843L18.5061 22.8422L18.512 22.8229C18.5164 22.8089 18.5228 22.7876 18.5314 22.7605C18.5488 22.706 18.5746 22.626 18.607 22.5278C18.6719 22.3312 18.7642 22.0601 18.8731 21.7609C19.0676 21.2262 19.3045 20.6335 19.5284 20.2138L19.6234 20.0453C19.8965 19.589 20.4355 18.9897 20.9369 18.4816C21.182 18.2332 21.4091 18.0159 21.5746 17.8606C21.6572 17.7831 21.7247 17.7214 21.7709 17.6792C21.7939 17.6582 21.8111 17.6415 21.823 17.6308C21.829 17.6254 21.8342 17.6214 21.8371 17.6187C21.8384 17.6176 21.8393 17.6165 21.84 17.6159L21.8405 17.6151L22.6579 16.8836L21.57 16.7465L21.567 16.7458C21.5644 16.7455 21.5596 16.7455 21.554 16.7448C21.5422 16.7432 21.5241 16.7401 21.5007 16.7366C21.4533 16.7295 21.3834 16.719 21.297 16.7036C21.1233 16.6726 20.8846 16.6241 20.6245 16.5551C20.1456 16.428 19.6701 16.2496 19.3668 16.0289L19.2475 15.9318C18.8918 15.6017 18.4759 14.9827 18.1313 14.4027C17.9639 14.1207 17.8209 13.8614 17.7201 13.6727C17.6698 13.5785 17.6295 13.5023 17.6026 13.4499C17.5892 13.4237 17.5796 13.4031 17.5728 13.3897C17.5694 13.383 17.5664 13.3778 17.5648 13.3746C17.5641 13.3732 17.5636 13.372 17.5633 13.3714L17.5625 13.3709L17.2516 12.7449L16.7597 13.2417L16.7586 13.2434C16.7572 13.2449 16.7544 13.247 16.7511 13.2503C16.7445 13.2568 16.7339 13.2673 16.7202 13.2806C16.6928 13.3073 16.6518 13.3466 16.5997 13.395C16.495 13.4924 16.3458 13.6265 16.1696 13.7706C15.8075 14.067 15.3685 14.3762 14.9803 14.5284L14.5741 14.672C14.1423 14.8105 13.6473 14.9336 13.213 15.0305C12.927 15.0943 12.6733 15.1451 12.4917 15.18C12.401 15.1974 12.3279 15.2108 12.2782 15.2198C12.2535 15.2243 12.2344 15.228 12.2217 15.2302C12.2157 15.2313 12.211 15.2316 12.208 15.2322L12.204 15.2331L11.6015 15.3369L11.8223 15.9062Z" fill="#F8A300" stroke="#FBF8EF"/>
<circle cx="0.708348" cy="0.708348" r="0.708348" transform="matrix(-0.586482 0.809962 0.809962 0.586482 16.709 14.8359)" fill="#FBF8EF"/>
<circle cx="0.708348" cy="0.708348" r="0.708348" transform="matrix(-0.586482 0.809962 0.809962 0.586482 13.7949 15.6406)" fill="#FBF8EF"/>
<circle cx="0.708348" cy="0.708348" r="0.708348" transform="matrix(-0.586482 0.809962 0.809962 0.586482 13.9404 18.6592)" fill="#FBF8EF"/>
<circle cx="0.708348" cy="0.708348" r="0.708348" transform="matrix(-0.586482 0.809962 0.809962 0.586482 17.1709 19.832)" fill="#FBF8EF"/>
<circle cx="1.17997" cy="1.17997" r="1.17997" transform="matrix(-0.586482 0.809962 0.809962 0.586482 15.9834 16.6416)" fill="#FBF8EF"/>
<circle cx="0.708348" cy="0.708348" r="0.708348" transform="matrix(-0.586482 0.809962 0.809962 0.586482 18.7256 16.8789)" fill="#FBF8EF"/>
<path d="M80.1684 103.183C79.0666 103.464 78.3464 104.192 77.9033 105.103C77.4409 106.053 77.2726 107.213 77.2368 108.32L77.2251 109.012C77.2277 109.708 77.2811 110.41 77.4704 111.051C77.7138 111.875 78.1838 112.606 79.033 113.107L79.2077 113.204C80.1028 113.671 80.8905 113.543 81.6041 113.309C81.9304 113.201 82.316 113.044 82.6267 112.933C82.8792 112.842 83.1306 112.763 83.391 112.707L83.6555 112.66C84.0442 112.604 84.586 112.561 85.1969 112.504C85.7932 112.447 86.4432 112.376 87.0015 112.265C87.2809 112.209 87.5507 112.141 87.786 112.053C88.0136 111.968 88.2511 111.85 88.4292 111.673C88.6255 111.478 88.756 111.201 88.6986 110.871C88.6607 110.653 88.5483 110.459 88.4036 110.287L88.2495 110.122C87.7969 109.682 87.0992 109.36 86.3768 109.117C86.2009 109.057 86.0199 109.001 85.8357 108.949C85.9983 108.926 86.1591 108.903 86.3161 108.876C86.9615 108.763 87.5917 108.603 88.0756 108.361L88.274 108.253C88.5183 108.105 88.7486 107.91 88.8583 107.642C88.985 107.332 88.9079 107.037 88.7578 106.816C88.6221 106.616 88.4197 106.459 88.2225 106.334C88.0177 106.205 87.7764 106.086 87.5243 105.976C87.0212 105.756 86.4214 105.551 85.8741 105.365C85.3126 105.173 84.816 105.006 84.4731 104.853L84.2348 104.737C84.0018 104.614 83.7839 104.471 83.5683 104.318C83.3033 104.129 82.9799 103.879 82.699 103.69C82.0839 103.278 81.3716 102.945 80.3942 103.132L80.1684 103.183Z" fill="#F8A300" stroke="#FBF8EF"/>
<path d="M83.6301 119.115C83.6348 120.252 84.1649 121.127 84.9406 121.779C85.75 122.459 86.8339 122.904 87.8992 123.209L88.5675 123.389C89.2428 123.555 89.9364 123.675 90.6043 123.647C91.4627 123.612 92.286 123.334 92.9789 122.632L93.1157 122.486C93.7867 121.732 93.8541 120.937 93.8005 120.187C93.776 119.845 93.7175 119.432 93.6852 119.104C93.6589 118.837 93.6431 118.574 93.6524 118.308L93.6712 118.04C93.7116 117.649 93.8018 117.113 93.8945 116.507C93.9849 115.915 94.0746 115.267 94.1023 114.698C94.1162 114.414 94.1157 114.135 94.0877 113.886C94.0606 113.644 94.0037 113.385 93.8759 113.169C93.7349 112.932 93.4977 112.738 93.1632 112.713C92.9428 112.697 92.7271 112.758 92.5251 112.857L92.3279 112.966C91.7904 113.298 91.3084 113.896 90.8967 114.538C90.7964 114.694 90.6976 114.856 90.602 115.022C90.6195 114.858 90.6368 114.697 90.6485 114.538C90.6964 113.885 90.6942 113.234 90.5775 112.706L90.521 112.487C90.4372 112.214 90.3042 111.944 90.0706 111.772C89.8009 111.574 89.4961 111.576 89.2449 111.668C89.018 111.751 88.8159 111.909 88.6474 112.07C88.4723 112.237 88.2982 112.442 88.13 112.66C87.7943 113.095 87.449 113.626 87.1351 114.112C86.8131 114.61 86.5299 115.051 86.2981 115.346L86.1271 115.549C85.951 115.745 85.7591 115.921 85.5582 116.093C85.3113 116.304 84.9895 116.557 84.7383 116.784C84.1885 117.28 83.6925 117.89 83.6358 118.883L83.6301 119.115Z" fill="#F8A300" stroke="#FBF8EF"/>
<path d="M83.7987 97.5652C83.9012 96.4327 84.5048 95.6059 85.3336 95.0235C86.1985 94.4158 87.3167 94.0651 88.4043 93.8536L89.0856 93.732C89.7728 93.6238 90.474 93.5649 91.1371 93.6498C91.9892 93.759 92.7856 94.1068 93.4155 94.8655L93.5393 95.0224C94.1428 95.8318 94.1416 96.6298 94.0237 97.3717C93.9698 97.7109 93.876 98.1166 93.8155 98.441C93.7664 98.7047 93.7281 98.9655 93.7144 99.2314L93.71 99.5001C93.7167 99.8927 93.7605 100.434 93.8006 101.047C93.8397 101.644 93.8733 102.297 93.852 102.866C93.8413 103.151 93.8169 103.428 93.7675 103.675C93.7198 103.913 93.6408 104.166 93.4949 104.37C93.334 104.595 93.0809 104.768 92.7455 104.764C92.5245 104.761 92.3149 104.681 92.1222 104.565L91.9351 104.439C91.4281 104.063 90.9995 103.425 90.6445 102.751C90.558 102.586 90.4735 102.417 90.3925 102.243C90.3959 102.407 90.3992 102.57 90.3972 102.729C90.3888 103.384 90.3305 104.032 90.1688 104.548L90.0938 104.761C89.9868 105.026 89.831 105.284 89.5835 105.435C89.2977 105.609 88.9943 105.58 88.7518 105.467C88.5329 105.365 88.3452 105.19 88.1911 105.015C88.0311 104.834 87.8753 104.614 87.7264 104.383C87.4294 103.921 87.1311 103.362 86.8602 102.851C86.5822 102.327 86.338 101.864 86.1325 101.549L85.9796 101.333C85.821 101.122 85.645 100.93 85.4596 100.741C85.2319 100.51 84.9329 100.23 84.7022 99.9828C84.1971 99.4412 83.7554 98.7908 83.7845 97.7962L83.7987 97.5652Z" fill="#F8A300" stroke="#FBF8EF"/>
<path d="M99.2477 95.7657C100.293 95.3188 101.307 95.4579 102.213 95.9114C103.159 96.3846 103.998 97.2026 104.7 98.0598L105.13 98.6018C105.551 99.1555 105.936 99.7449 106.175 100.369C106.483 101.171 106.555 102.037 106.186 102.951L106.106 103.135C105.68 104.05 104.977 104.427 104.268 104.675C103.944 104.789 103.542 104.899 103.228 104.999C102.973 105.081 102.725 105.171 102.484 105.285L102.246 105.409C101.903 105.601 101.447 105.896 100.927 106.222C100.419 106.54 99.8603 106.88 99.3493 107.131C99.0936 107.256 98.838 107.366 98.5977 107.44C98.3654 107.511 98.1049 107.561 97.8562 107.529C97.582 107.494 97.3097 107.354 97.1542 107.056C97.0519 106.861 97.0229 106.638 97.0332 106.414L97.0553 106.189C97.1465 105.564 97.5045 104.884 97.9299 104.252C98.0335 104.098 98.1428 103.943 98.2572 103.789C98.1143 103.87 97.9729 103.95 97.8316 104.024C97.251 104.327 96.6531 104.583 96.122 104.686L95.8989 104.721C95.6151 104.752 95.3138 104.737 95.0634 104.591C94.7743 104.422 94.6561 104.141 94.6406 103.874C94.6267 103.633 94.6915 103.385 94.7724 103.166C94.8564 102.939 94.9755 102.698 95.1086 102.457C95.3742 101.977 95.7252 101.449 96.0463 100.968C96.3758 100.475 96.6681 100.04 96.8473 99.71L96.9655 99.4727C97.0756 99.2332 97.1615 98.987 97.2395 98.7344C97.3354 98.424 97.4396 98.0283 97.5479 97.7078C97.7851 97.0063 98.1482 96.309 99.0376 95.8628L99.2477 95.7657Z" fill="#F8A300" stroke="#FBF8EF"/>
<path d="M106.324 114.295C106.763 115.344 106.616 116.357 106.156 117.259C105.676 118.201 104.851 119.034 103.989 119.729L103.444 120.155C102.887 120.572 102.294 120.952 101.669 121.187C100.864 121.489 99.9978 121.554 99.0862 121.178L98.9034 121.097C97.9914 120.664 97.6193 119.958 97.3766 119.247C97.2656 118.922 97.1587 118.52 97.0604 118.205C96.9806 117.949 96.8925 117.7 96.7802 117.459L96.6584 117.22C96.4689 116.876 96.1769 116.417 95.8551 115.895C95.5409 115.385 95.2059 114.823 94.9586 114.31C94.8349 114.054 94.7269 113.797 94.6553 113.556C94.5861 113.324 94.5375 113.063 94.5711 112.814C94.6082 112.54 94.751 112.269 95.0494 112.116C95.246 112.015 95.4687 111.988 95.6931 112L95.9173 112.024C96.5416 112.119 97.2187 112.483 97.8479 112.913C98.0012 113.018 98.1552 113.128 98.3081 113.243C98.2282 113.1 98.1494 112.958 98.0767 112.816C97.7777 112.233 97.5263 111.633 97.4278 111.102L97.3946 110.878C97.3653 110.594 97.3822 110.293 97.5304 110.044C97.7014 109.756 97.9832 109.64 98.2504 109.626C98.4916 109.614 98.7393 109.681 98.9573 109.763C99.1837 109.849 99.4239 109.97 99.6637 110.105C100.142 110.374 100.668 110.729 101.146 111.054C101.637 111.387 102.069 111.683 102.398 111.864L102.634 111.984C102.873 112.096 103.119 112.184 103.371 112.264C103.68 112.362 104.075 112.469 104.395 112.58C105.094 112.823 105.789 113.191 106.228 114.084L106.324 114.295Z" fill="#F8A300" stroke="#FBF8EF"/>
<path d="M87.8825 109.422L87.8856 109.424C87.888 109.426 87.8925 109.429 87.8976 109.433C87.9079 109.44 87.923 109.451 87.9429 109.466C87.9834 109.496 88.0427 109.539 88.1162 109.595C88.2633 109.706 88.4666 109.863 88.6905 110.049C89.1474 110.427 89.658 110.894 89.9666 111.308L90.141 111.564C90.3173 111.841 90.4935 112.17 90.6415 112.467C90.7381 112.661 90.8193 112.833 90.8761 112.958C90.9046 113.02 90.9276 113.07 90.9426 113.104C90.95 113.12 90.9551 113.134 90.9588 113.142C90.9607 113.146 90.9622 113.15 90.9631 113.152L90.9641 113.154L91.2055 113.713L91.7067 113.368C91.7072 113.368 91.7084 113.367 91.7096 113.366C91.7121 113.364 91.7165 113.362 91.7219 113.358C91.7327 113.351 91.7492 113.34 91.7705 113.326C91.8136 113.297 91.8773 113.255 91.9572 113.204C92.1174 113.101 92.3431 112.96 92.603 112.809C93.0671 112.541 93.6116 112.259 94.0835 112.096L94.2814 112.035C94.6852 111.921 95.2655 111.936 95.7929 111.999C96.0471 112.03 96.2727 112.069 96.4342 112.101C96.5143 112.116 96.5782 112.13 96.6214 112.139C96.643 112.144 96.6601 112.147 96.6707 112.15C96.6756 112.151 96.6792 112.152 96.6816 112.152L96.6845 112.153L97.5244 112.357L97.282 111.527L97.282 111.526L97.2763 111.507C97.2722 111.493 97.2659 111.472 97.2581 111.444C97.2426 111.389 97.2201 111.308 97.193 111.208C97.1388 111.009 97.0664 110.731 96.9924 110.422C96.8601 109.868 96.7312 109.243 96.6867 108.77L96.6731 108.577C96.6496 108.045 96.7691 107.248 96.9075 106.548C96.9751 106.206 97.0449 105.899 97.0974 105.678C97.1236 105.568 97.146 105.479 97.1613 105.419C97.1689 105.389 97.1741 105.365 97.1781 105.35C97.1801 105.342 97.1822 105.336 97.1832 105.332C97.1837 105.33 97.1838 105.329 97.184 105.328L97.184 105.327L97.463 104.266L96.4797 104.751L96.4768 104.752C96.4744 104.753 96.4705 104.756 96.4653 104.759C96.4547 104.764 96.4378 104.771 96.4164 104.781C96.3729 104.801 96.3089 104.831 96.2282 104.866C96.0661 104.936 95.8403 105.027 95.5853 105.113C95.1155 105.27 94.6204 105.384 94.2457 105.367L94.0926 105.351C93.614 105.272 92.9258 104.984 92.3187 104.69C92.0235 104.547 91.7613 104.41 91.5732 104.308C91.4793 104.257 91.4037 104.215 91.3524 104.187C91.3268 104.172 91.3074 104.16 91.2944 104.153C91.2879 104.149 91.2825 104.146 91.2794 104.145C91.278 104.144 91.277 104.143 91.2764 104.143L91.2754 104.143L90.671 103.792L90.5343 104.477L90.5344 104.479C90.534 104.481 90.5328 104.485 90.5318 104.489C90.5299 104.498 90.5269 104.513 90.5228 104.532C90.5146 104.569 90.502 104.624 90.4853 104.693C90.4515 104.832 90.4009 105.027 90.3334 105.244C90.1945 105.691 89.9985 106.191 89.7585 106.532L89.4986 106.875C89.2147 107.229 88.8694 107.604 88.5604 107.924C88.3569 108.135 88.1732 108.317 88.0409 108.447C87.9748 108.511 87.9211 108.563 87.8847 108.598C87.8665 108.615 87.8526 108.628 87.8433 108.637C87.8388 108.642 87.8351 108.644 87.8329 108.647L87.8301 108.65L87.3846 109.068L87.8825 109.422Z" fill="#F8A300" stroke="#FBF8EF"/>
<circle cx="0.708348" cy="0.708348" r="0.708348" transform="matrix(-0.0430678 0.999072 0.999072 0.0430678 91.3701 105.836)" fill="#FBF8EF"/>
<circle cx="0.708348" cy="0.708348" r="0.708348" transform="matrix(-0.0430678 0.999072 0.999072 0.0430678 89.3828 108.112)" fill="#FBF8EF"/>
<circle cx="0.708348" cy="0.708348" r="0.708348" transform="matrix(-0.0430678 0.999072 0.999072 0.0430678 91.167 110.552)" fill="#FBF8EF"/>
<circle cx="0.708348" cy="0.708348" r="0.708348" transform="matrix(-0.0430678 0.999072 0.999072 0.0430678 94.5088 109.75)" fill="#FBF8EF"/>
<circle cx="1.17997" cy="1.17997" r="1.17997" transform="matrix(-0.0430678 0.999072 0.999072 0.0430678 91.7607 107.742)" fill="#FBF8EF"/>
<circle cx="0.708348" cy="0.708348" r="0.708348" transform="matrix(-0.0430678 0.999072 0.999072 0.0430678 94.1787 106.429)" fill="#FBF8EF"/>
<path d="M65.5341 96.2294C65.3203 95.369 64.7551 94.804 64.055 94.4577C63.3295 94.0989 62.4504 93.9667 61.623 93.9345L61.1071 93.9235C60.5852 93.9219 60.0505 93.9582 59.5585 94.1C58.9212 94.2837 58.3485 94.646 57.9539 95.3041L57.877 95.4396C57.5032 96.1444 57.6036 96.7696 57.7789 97.3152C57.8567 97.5573 57.9762 97.8564 58.0533 98.0763C58.1398 98.3227 58.2095 98.5623 58.2441 98.8147C58.283 99.0987 58.3113 99.4946 58.3515 99.9512C58.3904 100.393 58.4401 100.88 58.5213 101.301C58.562 101.512 58.6133 101.72 58.6806 101.904C58.745 102.08 58.8388 102.276 58.9875 102.428C59.1541 102.599 59.3996 102.718 59.6945 102.669C59.8853 102.637 60.0504 102.541 60.1901 102.425L60.3216 102.303C60.6485 101.972 60.8855 101.479 61.0666 100.977C61.1459 101.401 61.2551 101.817 61.4193 102.15L61.5028 102.305C61.6164 102.496 61.7777 102.697 62.014 102.795C62.2915 102.91 62.5554 102.841 62.7475 102.712C62.9181 102.598 63.0475 102.432 63.1442 102.28C63.2457 102.122 63.3386 101.937 63.4228 101.748C63.5906 101.371 63.7473 100.923 63.8875 100.519C64.0327 100.102 64.1568 99.7411 64.2687 99.4946L64.3521 99.327C64.4407 99.1619 64.5437 99.0056 64.6564 98.8489C64.7905 98.6625 64.9866 98.4127 65.1276 98.2056C65.4453 97.7386 65.7148 97.1777 65.5724 96.4055L65.5341 96.2294Z" fill="#F8A300" stroke="#FBF8EF"/>
<path d="M53.5917 98.6168C52.7052 98.6147 52.0195 99.0253 51.5132 99.62C50.9886 100.236 50.6463 101.057 50.4137 101.852L50.2773 102.349C50.1487 102.855 50.0538 103.382 50.0715 103.894C50.0945 104.557 50.3065 105.201 50.8488 105.744L50.9614 105.851C51.554 106.385 52.1848 106.44 52.7567 106.403C53.0104 106.386 53.3296 106.343 53.5617 106.322C53.7568 106.304 53.9459 106.294 54.1349 106.302L54.3243 106.317C54.6093 106.348 55.0002 106.417 55.4528 106.489C55.8908 106.559 56.3756 106.63 56.8038 106.653C57.0182 106.665 57.2322 106.666 57.4268 106.646C57.6131 106.626 57.8266 106.583 58.0102 106.476C58.2159 106.355 58.3915 106.146 58.4155 105.848C58.431 105.656 58.3783 105.472 58.2997 105.308L58.2135 105.151C57.9717 104.753 57.5516 104.404 57.1084 104.106C57.6084 104.136 58.1079 104.124 58.5032 104.006C58.7158 103.942 58.9498 103.835 59.1028 103.629C59.2823 103.388 59.2787 103.115 59.2009 102.898C59.1317 102.705 59.0019 102.539 58.8788 102.408C58.7496 102.271 58.5935 102.136 58.4304 102.008C58.1053 101.754 57.7087 101.492 57.3516 101.258C56.9818 101.016 56.6624 100.808 56.4506 100.639C56.2532 100.482 56.0845 100.302 55.9187 100.106C55.7706 99.9303 55.576 99.6793 55.4095 99.4922C55.0339 99.0704 54.5554 98.6724 53.7719 98.6225L53.5917 98.6168Z" fill="#F8A300" stroke="#FBF8EF"/>
<path d="M69.5643 98.8481C70.4466 98.934 71.0881 99.4106 71.5329 100.053C71.9938 100.718 72.2529 101.568 72.4056 102.382L72.4919 102.891C72.5697 103.407 72.6118 103.941 72.5434 104.449C72.4547 105.106 72.18 105.725 71.5865 106.212L71.4637 106.308C70.8211 106.78 70.1879 106.772 69.6225 106.679C69.3717 106.637 69.0584 106.563 68.8295 106.518C68.5731 106.469 68.3259 106.435 68.0712 106.438C67.7845 106.441 67.3888 106.47 66.9312 106.497C66.4884 106.523 65.999 106.545 65.5706 106.526C65.3561 106.517 65.143 106.496 64.9514 106.457C64.768 106.419 64.5598 106.355 64.3878 106.23C64.1949 106.09 64.041 105.864 64.0467 105.565C64.0504 105.372 64.121 105.195 64.2155 105.04L64.3169 104.892C64.597 104.52 65.0497 104.214 65.5203 103.961C65.0893 103.944 64.6618 103.897 64.3077 103.783L64.1423 103.723C63.937 103.639 63.7149 103.509 63.583 103.289C63.4283 103.032 63.459 102.76 63.558 102.552C63.646 102.366 63.7916 102.214 63.927 102.096C64.0692 101.972 64.238 101.854 64.4129 101.743C64.7617 101.522 65.1822 101.301 65.5608 101.104C65.9528 100.899 66.2913 100.723 66.5188 100.577L66.6725 100.47C66.8228 100.358 66.9625 100.233 67.101 100.099C67.2658 99.939 67.4842 99.7085 67.6685 99.5389C68.0842 99.1564 68.5997 98.8079 69.3844 98.8359L69.5643 98.8481Z" fill="#F8A300" stroke="#FBF8EF"/>
<path d="M70.9278 110.378C71.2707 111.195 71.1554 111.986 70.8012 112.682C70.4341 113.404 69.8084 114.035 69.1643 114.556L68.7574 114.873C68.3399 115.186 67.8896 115.477 67.4104 115.657C66.7897 115.891 66.1141 115.943 65.4043 115.651L65.2616 115.588C64.5407 115.247 64.2474 114.686 64.0617 114.144C63.9794 113.903 63.8964 113.592 63.8268 113.369C63.7683 113.182 63.7045 113.004 63.6245 112.833L63.5383 112.663C63.3997 112.412 63.1858 112.078 62.945 111.688C62.712 111.311 62.4605 110.89 62.2739 110.504C62.1805 110.311 62.0974 110.114 62.0415 109.926C61.988 109.747 61.9457 109.533 61.974 109.322C62.0058 109.086 62.1312 108.844 62.3971 108.707C62.5691 108.618 62.7587 108.596 62.9401 108.606L63.1184 108.625C63.5786 108.695 64.063 108.948 64.5085 109.243C64.288 108.793 64.1068 108.328 64.064 107.917C64.0411 107.696 64.0504 107.439 64.181 107.219C64.3345 106.96 64.5878 106.859 64.8186 106.847C65.0236 106.836 65.2268 106.892 65.3947 106.956C65.5709 107.022 65.7555 107.115 65.9361 107.216C66.2962 107.418 66.6898 107.684 67.0433 107.923C67.4094 108.171 67.7244 108.386 67.9614 108.517C68.1823 108.639 68.4132 108.725 68.6583 108.803C68.8772 108.872 69.1837 108.955 69.4205 109.037C69.9544 109.221 70.5057 109.51 70.8532 110.214L70.9278 110.378Z" fill="#F8A300" stroke="#FBF8EF"/>
<path d="M57.1001 115.696C56.2801 116.033 55.4901 115.911 54.7967 115.552C54.0782 115.179 53.4514 114.549 52.9358 113.901L52.6217 113.492C52.3116 113.072 52.0245 112.619 51.8476 112.139C51.6186 111.516 51.5718 110.84 51.8688 110.133L51.9326 109.991C52.2795 109.272 52.8429 108.983 53.3865 108.802C53.6276 108.721 53.9395 108.641 54.1624 108.573C54.4123 108.496 54.6466 108.411 54.8705 108.289C55.1225 108.153 55.4584 107.941 55.8503 107.704C56.2295 107.473 56.6518 107.225 57.0393 107.041C57.2333 106.949 57.4312 106.868 57.6191 106.813C57.799 106.761 58.013 106.721 58.2235 106.75C58.4594 106.784 58.7009 106.911 58.8357 107.178C58.9228 107.351 58.9433 107.541 58.9324 107.722L58.9119 107.9C58.8382 108.36 58.5814 108.842 58.2835 109.285C58.6722 109.099 59.0722 108.94 59.4383 108.875L59.6126 108.851C59.8336 108.83 60.0908 108.841 60.31 108.973C60.5673 109.129 60.667 109.383 60.6772 109.614C60.6861 109.819 60.6286 110.021 60.564 110.189C60.4961 110.365 60.4025 110.548 60.2998 110.728C60.0949 111.087 59.8262 111.478 59.5841 111.83C59.3332 112.194 59.1161 112.508 58.9836 112.744L58.8978 112.91C58.8172 113.079 58.752 113.255 58.6925 113.438C58.6216 113.657 58.5363 113.963 58.4527 114.199C58.2642 114.731 57.9715 115.28 57.2648 115.623L57.1001 115.696Z" fill="#F8A300" stroke="#FBF8EF"/>
<path d="M60.6451 101.868L60.6442 101.87C60.643 101.871 60.6412 101.874 60.6386 101.878C60.6332 101.885 60.6242 101.896 60.6133 101.911C60.5916 101.94 60.5598 101.983 60.5189 102.037C60.4367 102.144 60.3201 102.292 60.1831 102.456C59.9017 102.791 59.5609 103.156 59.266 103.372L59.0835 103.496C58.8844 103.621 58.6447 103.748 58.4252 103.856C58.2829 103.926 58.1558 103.984 58.0645 104.025C58.0188 104.046 57.9824 104.062 57.9576 104.073C57.9453 104.078 57.9358 104.082 57.9296 104.085C57.9266 104.086 57.9243 104.087 57.9229 104.088L57.921 104.088L57.3602 104.325L57.7015 104.829C57.7017 104.829 57.7029 104.83 57.7035 104.831C57.7047 104.833 57.7062 104.836 57.7087 104.839C57.7139 104.847 57.722 104.859 57.7323 104.875C57.7531 104.906 57.7837 104.954 57.821 105.013C57.8956 105.13 57.9979 105.296 58.1065 105.487C58.3022 105.83 58.5024 106.226 58.6164 106.563L58.6602 106.704C58.7353 106.978 58.7233 107.385 58.6745 107.773C58.6513 107.957 58.6217 108.121 58.5982 108.238C58.5866 108.296 58.5766 108.342 58.5695 108.373C58.566 108.389 58.5627 108.401 58.5609 108.409C58.5601 108.412 58.5596 108.415 58.5592 108.417L58.5593 108.418L58.3499 109.256L59.1813 109.019C59.1819 109.019 59.183 109.018 59.1842 109.018C59.1867 109.017 59.1907 109.016 59.1958 109.015C59.2061 109.012 59.2215 109.008 59.2413 109.002C59.2817 108.991 59.3412 108.975 59.4147 108.956C59.562 108.917 59.7667 108.864 59.9951 108.811C60.3471 108.729 60.7319 108.652 61.0486 108.613L61.339 108.587C61.7153 108.573 62.2911 108.663 62.8088 108.769C63.0598 108.82 63.2846 108.873 63.4467 108.913C63.5277 108.932 63.5935 108.948 63.6379 108.96C63.6599 108.966 63.6769 108.97 63.6881 108.973C63.6937 108.974 63.6983 108.976 63.701 108.976L63.7029 108.977L63.7039 108.977L64.7629 109.263L64.2843 108.277L64.2833 108.276C64.2826 108.274 64.2818 108.272 64.2801 108.268C64.2766 108.261 64.2714 108.248 64.2643 108.232C64.25 108.201 64.2289 108.154 64.204 108.096C64.1541 107.978 64.089 107.814 64.0281 107.629C63.914 107.282 63.8397 106.935 63.852 106.686L63.8633 106.585C63.9209 106.251 64.1283 105.757 64.3492 105.309C64.4555 105.093 64.5581 104.902 64.6339 104.764C64.6716 104.696 64.7029 104.641 64.7242 104.604C64.7349 104.585 64.7428 104.57 64.7482 104.561C64.7509 104.556 64.7534 104.553 64.7547 104.551L64.7556 104.548L65.1107 103.946L64.4259 103.805L64.4249 103.805C64.4236 103.804 64.4212 103.804 64.418 103.803C64.4116 103.802 64.4017 103.799 64.3885 103.796C64.3617 103.79 64.3215 103.781 64.2713 103.769C64.1705 103.744 64.0302 103.705 63.8727 103.655C63.5457 103.551 63.1924 103.408 62.958 103.241L62.7103 103.051C62.4551 102.843 62.1814 102.589 61.9465 102.359C61.7926 102.209 61.6595 102.073 61.5653 101.975C61.5181 101.927 61.4812 101.887 61.4559 101.86C61.4432 101.847 61.4329 101.836 61.4265 101.83C61.4234 101.826 61.4209 101.824 61.4194 101.822L61.4184 101.82L61.0028 101.372L60.6451 101.868Z" fill="#F8A300" stroke="#FBF8EF"/>
<circle cx="0.524912" cy="0.524912" r="0.524912" transform="matrix(-0.998766 -0.0496723 -0.0496723 0.998766 63.3896 104.543)" fill="#FBF8EF"/>
<circle cx="0.524912" cy="0.524912" r="0.524912" transform="matrix(-0.998766 -0.0496723 -0.0496723 0.998766 61.7129 103.06)" fill="#FBF8EF"/>
<circle cx="0.524912" cy="0.524912" r="0.524912" transform="matrix(-0.998766 -0.0496723 -0.0496723 0.998766 59.8984 104.37)" fill="#FBF8EF"/>
<circle cx="0.524912" cy="0.524912" r="0.524912" transform="matrix(-0.998766 -0.0496723 -0.0496723 0.998766 60.4746 106.848)" fill="#FBF8EF"/>
<circle cx="0.874401" cy="0.874401" r="0.874401" transform="matrix(-0.998766 -0.0496723 -0.0496723 0.998766 61.9756 104.822)" fill="#FBF8EF"/>
<circle cx="0.524912" cy="0.524912" r="0.524912" transform="matrix(-0.998766 -0.0496723 -0.0496723 0.998766 62.9355 106.62)" fill="#FBF8EF"/>
<path d="M119.776 19.2602C120.683 17.8488 120.733 16.3414 120.29 14.894C119.825 13.3727 118.815 11.9043 117.69 10.6147L117.335 10.2144C116.5 9.2853 115.601 8.40193 114.591 7.80443C113.489 7.15243 112.247 6.83674 110.825 7.14985L110.537 7.22142C109.123 7.61072 108.409 8.51853 107.861 9.51281C107.603 9.98172 107.345 10.5418 107.098 11.0201C106.838 11.5235 106.553 12.0138 106.183 12.4726C105.793 12.9564 105.212 13.5901 104.582 14.2987C103.961 14.9965 103.302 15.7576 102.792 16.4653C102.538 16.8193 102.312 17.171 102.146 17.503C101.984 17.8276 101.858 18.1729 101.844 18.5055C101.83 18.864 101.949 19.2233 102.279 19.4736C102.539 19.6711 102.88 19.7608 103.259 19.7868L103.424 19.7941C104.344 19.8148 105.435 19.4631 106.508 18.9773C107.218 18.6561 107.944 18.2608 108.648 17.8456C108.127 18.4234 107.617 19.0205 107.17 19.6104C106.557 20.4195 106.03 21.2458 105.75 21.994L105.645 22.3094C105.529 22.7155 105.49 23.1121 105.619 23.4518C105.763 23.8335 106.075 24.0371 106.412 24.1144C106.724 24.1858 107.078 24.1576 107.421 24.0927C107.773 24.0261 108.16 23.9115 108.558 23.7718C109.352 23.4928 110.243 23.095 111.067 22.7253C111.906 22.3493 112.666 22.0067 113.235 21.8116L113.648 21.6854C114.061 21.5739 114.475 21.5038 114.89 21.4485C115.415 21.3786 116.019 21.3248 116.54 21.2415C117.645 21.0646 118.727 20.7087 119.582 19.5413L119.776 19.2602Z" fill="#F8A300" stroke="#FBF8EF"/>
<path d="M98.9327 5.0953C97.7848 3.87107 96.3346 3.45651 94.8231 3.53342C93.2343 3.61436 91.5642 4.23606 90.0395 5.0131L89.565 5.25963C88.4605 5.84336 87.3849 6.50026 86.5594 7.33467C85.6586 8.24526 85.0502 9.3724 85.0075 10.8285L85.007 11.1245C85.0402 12.591 85.747 13.5043 86.5779 14.278C86.9697 14.6428 87.4503 15.0288 87.8541 15.3851C88.1727 15.6663 88.4811 15.9593 88.765 16.2866L89.04 16.6264C89.4143 17.1224 89.8874 17.8403 90.4213 18.6241C90.947 19.3958 91.5247 20.2204 92.0871 20.8869C92.3684 21.2203 92.6546 21.5245 92.9363 21.7664C93.2115 22.0028 93.5158 22.2091 93.8351 22.3031C94.1793 22.4044 94.5568 22.3764 94.8798 22.1175C95.1347 21.9131 95.3048 21.6041 95.4223 21.2426L95.4695 21.085C95.7134 20.198 95.638 19.054 95.4282 17.8944C95.2895 17.1277 95.0829 16.3271 94.8514 15.5439C95.285 16.1897 95.7401 16.8294 96.2033 17.4066C96.9296 18.3116 97.7046 19.113 98.4498 19.543C98.8155 19.7541 99.1907 19.8885 99.5515 19.8467C99.9569 19.7996 100.23 19.5469 100.387 19.2387C100.532 18.9535 100.591 18.603 100.612 18.2546C100.633 17.8974 100.616 17.494 100.577 17.0742C100.5 16.2356 100.331 15.2746 100.173 14.385C100.013 13.4803 99.8655 12.66 99.8149 12.0605L99.7929 11.6292C99.7854 11.2011 99.8182 10.7829 99.8656 10.3671C99.9257 9.84034 100.021 9.24166 100.066 8.71621C100.164 7.6013 100.082 6.46509 99.1582 5.35137L98.9327 5.0953Z" fill="#F8A300" stroke="#FBF8EF"/>
<path d="M121.614 29.8462C122.643 31.1723 122.824 32.6696 122.511 34.1502C122.181 35.7066 121.305 37.2581 120.298 38.6418L119.98 39.0717C119.229 40.0707 118.412 41.0297 117.458 41.7138C116.417 42.4603 115.208 42.884 113.764 42.6973L113.471 42.6513C112.028 42.388 111.237 41.5465 110.604 40.6043C110.305 40.16 109.999 39.6248 109.711 39.17C109.483 38.8111 109.242 38.4605 108.964 38.1287L108.671 37.8037C108.24 37.3561 107.606 36.776 106.916 36.1256C106.236 35.4851 105.513 34.785 104.943 34.1248C104.658 33.7946 104.402 33.4641 104.208 33.148C104.018 32.839 103.862 32.5061 103.819 32.176C103.773 31.8202 103.86 31.4518 104.166 31.1735C104.408 30.9538 104.74 30.8345 105.116 30.7752L105.279 30.7534C106.193 30.6519 107.311 30.9062 108.423 31.2956C109.159 31.5531 109.917 31.8829 110.654 32.2347C110.084 31.7049 109.524 31.155 109.027 30.6068C108.247 29.7473 107.578 28.856 107.27 28.0524C107.119 27.6581 107.045 27.2664 107.143 26.9167C107.253 26.5238 107.546 26.2935 107.875 26.1869C108.179 26.0883 108.535 26.0853 108.882 26.1197C109.238 26.1551 109.634 26.2352 110.043 26.3394C110.859 26.5474 111.781 26.8652 112.635 27.1609C113.503 27.4617 114.29 27.7361 114.874 27.8803L115.297 27.9698C115.718 28.0444 116.136 28.0779 116.554 28.0964C117.084 28.1199 117.69 28.1203 118.216 28.1575C119.333 28.2364 120.442 28.4957 121.397 29.5833L121.614 29.8462Z" fill="#F8A300" stroke="#FBF8EF"/>
<path d="M105.862 48.0272C105.183 49.5617 103.951 50.4317 102.498 50.858C100.972 51.306 99.1903 51.2704 97.4946 51.0401L96.9652 50.9641C95.73 50.7776 94.4978 50.5126 93.4432 49.9974C92.2923 49.4352 91.3459 48.572 90.825 47.2116L90.7268 46.9324C90.2742 45.5371 90.6399 44.4417 91.1688 43.4371C91.4183 42.9634 91.7445 42.4404 92.0081 41.9708C92.2853 41.4767 92.538 40.9689 92.7178 40.4076C92.9074 39.8158 93.1171 38.982 93.3623 38.0659C93.6038 37.164 93.877 36.1949 94.1879 35.3801C94.3434 34.9725 94.5132 34.5909 94.6992 34.2697C94.881 33.9557 95.1001 33.6604 95.3705 33.4663C95.6619 33.2571 96.0275 33.1589 96.4179 33.2967C96.726 33.4055 96.9885 33.6411 97.2187 33.9435L97.3153 34.0767C97.8384 34.8335 98.1447 35.9382 98.3295 37.1021C98.4516 37.8716 98.5209 38.6956 98.5608 39.5113C98.757 38.7585 98.9754 38.0045 99.2222 37.3067C99.5606 36.3495 99.9611 35.4551 100.432 34.8096L100.638 34.5485C100.913 34.2286 101.223 33.9779 101.577 33.8983C101.975 33.8089 102.317 33.9573 102.567 34.1963C102.798 34.4176 102.969 34.729 103.104 35.0511C103.241 35.3814 103.359 35.7677 103.461 36.1768C103.665 36.9939 103.823 37.9568 103.967 38.8486C104.114 39.7556 104.246 40.5786 104.396 41.1611L104.518 41.5755C104.652 41.9821 104.821 42.3661 105.003 42.7429C105.233 43.2203 105.52 43.7541 105.737 44.235C106.197 45.2552 106.495 46.3547 105.991 47.711L105.862 48.0272Z" fill="#F8A300" stroke="#FBF8EF"/>
<path d="M78.4726 34.2567C76.9433 33.5657 76.0826 32.3271 75.6673 30.8717C75.2308 29.3419 75.2799 27.5606 75.5229 25.8666L75.603 25.3379C75.7988 24.1041 76.0731 22.8739 76.5962 21.8232C77.1671 20.6766 78.0374 19.7368 79.4017 19.2262L79.6817 19.1301C81.0803 18.688 82.1729 19.0619 83.1735 19.5985C83.6453 19.8515 84.1658 20.1817 84.6334 20.4487C85.0025 20.6595 85.3793 20.8567 85.7808 21.0197L86.1912 21.1703C86.7815 21.3643 87.6137 21.5803 88.5279 21.8324C89.4281 22.0808 90.3951 22.3612 91.2075 22.6782C91.6139 22.8368 91.9942 23.0095 92.314 23.1979C92.6266 23.3821 92.9202 23.6034 93.1123 23.8753C93.3193 24.1683 93.4147 24.5346 93.274 24.9239C93.1629 25.2312 92.9253 25.4919 92.6212 25.7199L92.4873 25.8154C91.7265 26.3328 90.6195 26.6308 89.4542 26.8067C88.6838 26.923 87.8594 26.9861 87.0434 27.0199C87.7947 27.2217 88.547 27.4458 89.2429 27.6978C90.3339 28.0929 91.3426 28.5676 91.9903 29.134C92.3082 29.412 92.5565 29.7237 92.6335 30.0786C92.7198 30.4775 92.5689 30.8178 92.328 31.0659C92.105 31.2954 91.7923 31.4644 91.4691 31.5963C91.1379 31.7316 90.7506 31.8458 90.3408 31.9448C89.5222 32.1426 88.5582 32.2932 87.6653 32.431C86.7572 32.5712 85.9332 32.6966 85.3496 32.8423L84.9343 32.9609C84.5267 33.092 84.1414 33.2581 83.7632 33.4372C83.2841 33.6641 82.7481 33.9473 82.2657 34.1604C81.242 34.6127 80.1403 34.9023 78.7878 34.3875L78.4726 34.2567Z" fill="#F8A300" stroke="#FBF8EF"/>
<path d="M104.618 20.761L104.617 20.761C104.616 20.7611 104.614 20.7621 104.611 20.7624C104.607 20.763 104.599 20.764 104.589 20.7652C104.569 20.7678 104.538 20.7713 104.499 20.776C104.42 20.7854 104.304 20.7991 104.16 20.814C103.871 20.8439 103.467 20.88 103.009 20.9066C102.082 20.9603 100.975 20.9702 100.149 20.8192L99.9103 20.7698C99.338 20.641 98.6672 20.4145 98.1007 20.2023C97.7809 20.0825 97.5011 19.9698 97.3018 19.8873C97.2023 19.8461 97.1228 19.8127 97.0687 19.7896C97.0416 19.778 97.0209 19.7689 97.0071 19.7629C97.0003 19.7599 96.9953 19.7575 96.9919 19.756C96.9902 19.7553 96.9885 19.755 96.9877 19.7547L96.987 19.754L96.4301 19.5098L96.2973 20.1029L96.298 20.1036L96.2973 20.1042C96.297 20.1054 96.2965 20.1073 96.2959 20.1098C96.2948 20.1147 96.2935 20.1225 96.2912 20.1326C96.2865 20.1531 96.279 20.184 96.2695 20.2238C96.2505 20.3038 96.2217 20.4206 96.1846 20.566C96.1103 20.857 96.0014 21.2615 95.8629 21.7144C95.6172 22.517 95.2891 23.4394 94.9092 24.1532L94.7433 24.4453C94.3729 25.0545 93.6537 25.6789 92.9801 26.1709C92.6512 26.411 92.3472 26.6099 92.1255 26.7483C92.0149 26.8174 91.9245 26.8714 91.8631 26.9076C91.8325 26.9256 91.8091 26.9397 91.7936 26.9486C91.786 26.9529 91.78 26.9556 91.7763 26.9577C91.7745 26.9587 91.773 26.96 91.7722 26.9604L91.7715 26.9611L91.0185 27.3835L91.7607 27.8264L91.7627 27.8271C91.7639 27.8278 91.7654 27.8292 91.7676 27.8305C91.7726 27.8335 91.7804 27.8376 91.7904 27.8436C91.8105 27.8556 91.8406 27.8737 91.879 27.897C91.956 27.9438 92.0674 28.0124 92.2051 28.098C92.481 28.2695 92.861 28.5105 93.2777 28.7874C94.0165 29.2785 94.8428 29.8646 95.4147 30.3742L95.6428 30.588C96.2604 31.1953 96.9856 32.2585 97.5715 33.2046C97.8603 33.6709 98.1092 34.0974 98.2851 34.4073C98.3729 34.5619 98.4421 34.6874 98.4897 34.7738C98.5134 34.8169 98.5318 34.8505 98.544 34.873C98.55 34.8841 98.5542 34.8929 98.5572 34.8985C98.5586 34.9012 98.56 34.9034 98.5607 34.9047L98.5621 34.9061L99.0806 35.8727L99.4699 34.8477L99.4706 34.847C99.4709 34.8461 99.4712 34.8447 99.4719 34.8428C99.4736 34.8386 99.4766 34.8311 99.4801 34.8221C99.4872 34.804 99.4978 34.7766 99.5122 34.7411C99.5412 34.6698 99.5851 34.5657 99.6415 34.4375C99.7546 34.1803 99.9187 33.8282 100.123 33.4507C100.52 32.7202 101.025 31.9719 101.557 31.5698L101.663 31.4941C102.331 31.0515 103.458 30.6384 104.463 30.3291C104.957 30.1772 105.407 30.0543 105.732 29.9701C105.895 29.9281 106.027 29.8965 106.117 29.8746C106.162 29.8637 106.197 29.8548 106.221 29.8493C106.233 29.8465 106.242 29.8443 106.248 29.843C106.25 29.8424 106.252 29.8418 106.253 29.8416L106.255 29.8409L106.937 29.6861L106.57 29.091L106.569 29.0903C106.569 29.0897 106.568 29.0887 106.568 29.0875C106.566 29.0845 106.563 29.0796 106.559 29.0731C106.551 29.0599 106.539 29.0395 106.523 29.0131C106.492 28.9602 106.446 28.8815 106.39 28.7824C106.279 28.584 106.128 28.3038 105.971 27.9776C105.652 27.3134 105.329 26.5027 105.234 25.8138L105.195 25.4818C105.114 24.6814 105.105 23.7191 105.12 22.9071C105.128 22.4469 105.144 22.041 105.158 21.751C105.165 21.6063 105.171 21.4905 105.176 21.4112C105.178 21.3716 105.18 21.3411 105.181 21.3207C105.182 21.3104 105.182 21.3023 105.183 21.2972L105.183 21.2903L105.224 20.6811L104.618 20.761Z" fill="#F8A300" stroke="#FBF8EF"/>
<circle cx="1.10476" cy="1.10476" r="1.10476" transform="matrix(-0.649166 -0.760646 -0.760646 0.649166 104.41 28.2803)" fill="#FBF8EF"/>
<circle cx="1.10476" cy="1.10476" r="1.10476" transform="matrix(-0.649166 -0.760646 -0.760646 0.649166 104.261 23.5723)" fill="#FBF8EF"/>
<circle cx="1.10476" cy="1.10476" r="1.10476" transform="matrix(-0.649166 -0.760646 -0.760646 0.649166 99.6328 22.6836)" fill="#FBF8EF"/>
<circle cx="1.10476" cy="1.10476" r="1.10476" transform="matrix(-0.649166 -0.760646 -0.760646 0.649166 96.6689 27.1484)" fill="#FBF8EF"/>
<circle cx="1.83977" cy="1.83977" r="1.83977" transform="matrix(-0.649166 -0.760646 -0.760646 0.649166 101.94 26.5205)" fill="#FBF8EF"/>
<circle cx="1.10476" cy="1.10476" r="1.10476" transform="matrix(-0.649166 -0.760646 -0.760646 0.649166 100.574 30.5879)" fill="#FBF8EF"/>
<path d="M57.9639 99.8114C57.9624 99.8074 57.9602 99.8017 57.9576 99.7953C57.9525 99.7825 57.9456 99.7649 57.9362 99.7429C57.917 99.6983 57.8882 99.635 57.8501 99.5552C57.7738 99.3956 57.6579 99.1691 57.4939 98.891C57.1657 98.3345 56.6452 97.5701 55.8699 96.7183C54.4141 95.1192 52.0654 93.2195 48.4147 91.8047L47.667 91.5286C45.027 90.5995 42.0712 90.6674 39.1566 91.2611C36.239 91.8555 33.3265 92.9836 30.7482 94.2161C28.1681 95.4495 25.9087 96.7939 24.2949 97.8292C24.0376 97.9942 23.7987 98.1553 23.5753 98.3031C23.8947 97.7442 24.2617 97.0928 24.6459 96.3843C25.8414 94.1799 27.2343 91.3967 27.9749 89.1566L28.1277 88.6711C28.8577 86.2315 29.0825 83.6393 29.1228 81.6271C29.1444 80.5508 29.113 79.6335 29.0766 78.9841C29.0583 78.6594 29.0394 78.4014 29.0243 78.2236C29.0167 78.1351 29.0101 78.0663 29.0055 78.0192C29.0032 77.9957 29.0009 77.977 28.9996 77.9645C28.9989 77.9583 28.9982 77.9535 28.9978 77.9502C28.9977 77.9485 28.9984 77.9471 28.9983 77.9462L28.9978 77.9449L28.0133 77.8889L28.0119 77.8925L27.9979 77.9552C27.9877 77.9994 27.9722 78.0654 27.9519 78.1511C27.9111 78.3229 27.8502 78.5749 27.7704 78.8927C27.6109 79.5285 27.376 80.4291 27.0743 81.485C26.5456 83.3354 25.8145 85.6549 24.9297 87.8644L24.5414 88.8031C23.4863 91.2665 22.3541 93.1075 21.1388 94.8815C20.0819 96.4243 18.9342 97.9543 17.7376 99.78L17.2214 100.582C14.6415 104.67 11.4744 110.218 8.95578 114.738C7.6959 116.999 6.59715 119.005 5.8131 120.446C5.42104 121.166 5.10742 121.746 4.89204 122.145C4.78456 122.344 4.70137 122.499 4.6451 122.603C4.61695 122.656 4.59595 122.696 4.58155 122.723C4.57437 122.737 4.56822 122.747 4.56458 122.753C4.56278 122.757 4.56139 122.759 4.56047 122.761L4.55941 122.764L5.3987 123.302L5.39941 123.3C5.40054 123.299 5.40307 123.296 5.40533 123.293C5.40987 123.287 5.41642 123.278 5.42524 123.266C5.44327 123.243 5.47074 123.208 5.50596 123.162C5.57665 123.069 5.68118 122.932 5.8161 122.756C6.08607 122.405 6.47775 121.895 6.96526 121.268C7.94055 120.011 9.29813 118.279 10.8272 116.376C13.8903 112.563 17.6253 108.082 20.3542 105.354L21.024 104.696C28.0097 97.9557 36.9871 93.0697 47.4333 94.4942L47.776 94.5535C48.5914 94.7218 49.5187 95.0995 50.4815 95.6041C51.5752 96.1774 52.6829 96.8972 53.6774 97.606C54.6707 98.314 55.5444 99.0066 56.1699 99.5222C56.4824 99.7797 56.7329 99.9928 56.9044 100.141C56.9901 100.215 57.056 100.274 57.1004 100.313C57.1224 100.332 57.1394 100.347 57.1505 100.357C57.1559 100.361 57.1602 100.365 57.1629 100.368C57.1642 100.369 57.1652 100.37 57.1658 100.371L57.1667 100.371L57.9673 99.8189L57.9639 99.8114Z" fill="#65D157" stroke="#FBF8EF"/>
<path d="M33.8142 4.46447L33.8164 4.46488C33.8179 4.46548 33.8204 4.46678 33.8233 4.46798C33.8299 4.47062 33.8399 4.47444 33.8531 4.47986C33.8802 4.49096 33.9212 4.50794 33.975 4.5306C34.0832 4.57615 34.2447 4.64488 34.4515 4.73676C34.8652 4.92049 35.4634 5.19672 36.1979 5.56394C37.6678 6.2989 39.68 7.39807 41.8459 8.85228C46.054 11.6777 50.791 15.8102 53.3049 21.176L53.5414 21.6998C54.7823 24.5542 54.3053 27.6191 52.9875 30.7229C51.6677 33.8312 49.5405 36.8963 47.5888 39.7155L47.1565 40.3291C44.9244 43.4484 41.6918 47.2517 38.9388 50.3561C37.4729 52.0091 36.1463 53.459 35.1872 54.4961C34.7076 55.0146 34.3203 55.4301 34.0525 55.7155C33.9186 55.8581 33.8147 55.9687 33.7444 56.0432C33.7095 56.0801 33.6824 56.1078 33.6645 56.1267C33.6555 56.1362 33.6488 56.1439 33.6443 56.1487C33.642 56.151 33.6399 56.1531 33.6388 56.1543L33.6381 56.1555L33.6372 56.1558L34.3396 56.8663L34.3406 56.866L34.3583 56.8499C34.371 56.8383 34.3898 56.8203 34.4155 56.7972C34.4671 56.7505 34.5454 56.6811 34.6475 56.5914C34.8518 56.4121 35.1539 56.1517 35.5437 55.8313C36.3239 55.1902 37.4534 54.3083 38.846 53.349C41.4615 51.5472 44.9874 49.4853 48.8615 48.2217L49.6415 47.9796C55.2671 46.3252 61.752 47.9423 67.1233 50.6794C69.8007 52.0438 72.1782 53.6752 74.0039 55.2854C75.7283 56.8063 76.9193 58.2725 77.4376 59.446L77.5324 59.677C77.7757 60.3217 77.9111 61.7357 77.8052 63.6676C77.7007 65.5731 77.3662 67.912 76.7252 70.3622C75.439 75.2778 72.9404 80.5589 68.6763 83.7292L68.3826 83.9392C65.2974 86.0578 60.8672 86.5 57.0764 86.3707C55.1348 86.3045 53.3905 86.089 52.1318 85.8905C51.5032 85.7914 50.9967 85.6962 50.6483 85.6263C50.4741 85.5914 50.3388 85.5634 50.2484 85.5436C50.2034 85.5337 50.169 85.5258 50.1465 85.5207C50.1354 85.5182 50.1268 85.5158 50.1215 85.5146C50.1189 85.514 50.1171 85.5134 50.116 85.5131L50.1141 85.5136C50.1139 85.5143 50.1138 85.516 50.1129 85.5201L49.7765 86.4475L49.7777 86.4482L49.7799 86.4486C49.7817 86.4495 49.784 86.4511 49.7871 86.4526C49.7937 86.4559 49.8032 86.4609 49.8155 86.4669C49.84 86.4788 49.8758 86.4958 49.9223 86.5179C50.0156 86.5621 50.1529 86.6256 50.3292 86.7041C50.6824 86.8615 51.1959 87.0796 51.8384 87.3244C53.1225 87.8136 54.9306 88.4122 57.0265 88.8481C61.0733 89.6896 66.2688 89.9414 70.8328 87.5439L71.2721 87.3029C73.7884 85.8722 75.7847 83.489 77.3628 80.7663C78.9429 78.0402 80.1235 74.9396 80.9967 72.0285C81.8704 69.1151 82.4398 66.3766 82.7907 64.3676C82.9393 63.517 83.0483 62.7962 83.1253 62.2471C83.3282 62.504 83.5703 62.8099 83.8431 63.1624C84.7456 64.3287 86.0004 65.9917 87.4064 67.9745C90.0452 71.6958 93.2081 76.5314 95.5842 81.3274L96.0483 82.286C96.5332 83.3105 96.7372 84.8107 96.7433 86.5418C96.7493 88.2589 96.5614 90.1451 96.3051 91.9038C96.0491 93.6603 95.7267 95.279 95.4681 96.4592C95.3388 97.0491 95.2259 97.5293 95.1452 97.8608C95.1049 98.0265 95.0721 98.155 95.0501 98.242C95.0391 98.2853 95.0308 98.3184 95.0252 98.3404C95.0223 98.3514 95.0205 98.36 95.0191 98.3654C95.0184 98.3681 95.017 98.3699 95.0166 98.3712L95.0172 98.3731L95.9111 98.7848L95.9118 98.7836C95.9123 98.783 95.9133 98.7821 95.9141 98.781C95.9158 98.7785 95.9183 98.7752 95.9214 98.7708C95.9278 98.7615 95.9371 98.7472 95.9492 98.7294C95.9735 98.6938 96.0095 98.642 96.0546 98.5747C96.1452 98.4399 96.2747 98.244 96.4326 97.9989C96.7483 97.5088 97.1779 96.8191 97.633 96.0221C98.4797 94.5391 99.4387 92.6431 99.9013 90.951L99.9869 90.6152C100.246 89.5208 100.373 88.1086 100.436 86.9907C100.446 86.8008 100.454 86.6185 100.461 86.4466C100.515 86.5177 100.571 86.5926 100.629 86.6691C101.274 87.515 102.18 88.682 103.223 89.9673C105.172 92.3696 107.62 95.211 109.746 97.1317L110.166 97.5029C111.011 98.2309 112.244 98.8662 113.579 99.4092C114.922 99.9557 116.408 100.424 117.786 100.806C119.166 101.187 120.446 101.483 121.381 101.684C121.849 101.784 122.23 101.862 122.495 101.914C122.628 101.939 122.731 101.959 122.802 101.972C122.837 101.978 122.865 101.983 122.883 101.986C122.893 101.988 122.9 101.99 122.905 101.991C122.907 101.991 122.909 101.992 122.91 101.992L122.912 101.991L122.913 101.992L123.239 101.061L123.238 101.06C123.237 101.059 123.235 101.059 123.234 101.058L123.157 101.015C123.102 100.985 123.02 100.941 122.916 100.883C122.708 100.768 122.406 100.601 122.035 100.392C121.293 99.9733 120.271 99.3886 119.155 98.7242C116.911 97.389 114.322 95.7519 112.832 94.4932L112.357 94.0827C109.969 91.9751 107.373 89.0322 105.319 86.5404C104.226 85.2147 103.292 84.0225 102.631 83.1622C102.301 82.7322 102.039 82.3856 101.86 82.1464C101.77 82.0268 101.701 81.934 101.655 81.8714C101.632 81.8402 101.614 81.816 101.602 81.8001C101.6 81.7974 101.599 81.7947 101.597 81.7924L91.1475 66.2895C92.0808 66.9629 93.2309 67.7474 94.516 68.52C97.7602 70.4702 101.963 72.4205 105.683 72.259L106.041 72.2368C111.244 71.8136 115.606 68.1244 118.628 64.6412C120.148 62.889 121.35 61.1647 122.172 59.8788C122.583 59.2358 122.899 58.7012 123.114 58.3264C123.221 58.1389 123.303 57.991 123.359 57.8897C123.386 57.839 123.407 57.7994 123.421 57.7726L123.443 57.734L123.443 57.7319L123.444 57.7307L122.661 57.132L122.66 57.1335C122.658 57.1347 122.656 57.136 122.654 57.1382C122.649 57.143 122.64 57.1506 122.63 57.1603C122.608 57.1797 122.577 57.209 122.535 57.2468C122.452 57.3228 122.328 57.4346 122.168 57.5771C121.848 57.8621 121.384 58.2697 120.81 58.7593C119.661 59.7388 118.071 61.0442 116.309 62.348C114.546 63.653 112.619 64.9498 110.793 65.9178C108.95 66.8949 107.276 67.5003 106.001 67.5004L105.548 67.4945C100.93 67.3863 97.7706 65.6199 94.7375 63.2386C93.1529 61.9944 91.64 60.6139 89.9392 59.187C88.2522 57.7719 86.4162 56.3434 84.2542 55.0688L83.0829 54.362C80.4368 52.7276 78.3636 51.1951 76.2088 49.7288C73.7501 48.0557 71.2162 46.4927 67.6906 45.0382L67.2383 44.8567C65.4816 44.1728 63.6147 43.6732 61.9697 43.3142C62.3107 43.2979 62.663 43.2837 63.0234 43.2647C66.1879 43.0976 70.0313 42.8223 72.9985 42.3841L73.5801 42.2946C77.3968 41.6768 81.9497 39.826 85.5206 38.1489C87.312 37.3076 88.868 36.5044 89.9761 35.9116C90.5304 35.6151 90.9734 35.3703 91.2779 35.2001C91.4298 35.1152 91.5472 35.0483 91.627 35.0028C91.667 34.9801 91.6981 34.9624 91.7188 34.9505C91.7289 34.9447 91.7373 34.9407 91.7425 34.9377C91.7451 34.9362 91.7472 34.9347 91.7486 34.9339L91.7502 34.9325L91.3487 34.0231L91.3468 34.0236C91.3456 34.024 91.3439 34.0253 91.3414 34.0261C91.3363 34.0277 91.3282 34.0295 91.318 34.0328C91.297 34.0394 91.2651 34.0496 91.2238 34.0624C91.1413 34.0882 91.0192 34.1267 90.861 34.1753C90.5442 34.2727 90.0825 34.4125 89.5058 34.5832C88.3522 34.9246 86.7375 35.388 84.8933 35.8754C81.1976 36.8522 76.6066 37.919 72.961 38.3035L72.2773 38.3692C68.8041 38.6717 64.5156 38.5962 60.9992 38.4361C59.1275 38.3509 57.481 38.2424 56.3026 38.1547C55.8659 38.1222 55.4933 38.0908 55.1978 38.0665C55.3642 37.7699 55.575 37.3868 55.8114 36.9317C56.398 35.8021 57.1505 34.2281 57.8136 32.4555C58.4759 30.6852 59.0546 28.7012 59.2823 26.7542C59.5094 24.8114 59.3923 22.8647 58.6214 21.1988L58.2947 20.5179C54.8379 13.5768 48.9037 9.35053 43.8029 6.85215C41.1673 5.56127 38.7436 4.7261 36.9778 4.2136C36.0944 3.95723 35.3746 3.78143 34.8741 3.66924C34.6238 3.61314 34.4281 3.57243 34.2942 3.54613C34.2276 3.53305 34.1762 3.52391 34.1409 3.51744C34.1235 3.51423 34.1096 3.51136 34.1002 3.50969C34.0955 3.50886 34.0911 3.50837 34.0885 3.50792C34.0874 3.50772 34.0861 3.5079 34.0854 3.50778L34.0852 3.50684C34.0849 3.50678 34.0839 3.50719 33.9994 4L34.0842 3.5071L33.8142 4.46447Z" fill="#65D157" stroke="#FBF8EF"/>
<path d="M8.62951 43.3779C9.08144 44.7524 9.96114 46.1796 11.0096 47.541C12.1327 48.9995 13.474 50.4142 14.7577 51.6486C16.0423 52.8839 17.2766 53.945 18.1889 54.6975C18.6453 55.074 19.022 55.3739 19.2849 55.5798C19.4164 55.6828 19.5198 55.7627 19.5903 55.8167C19.6254 55.8436 19.6522 55.8645 19.6706 55.8785C19.6799 55.8855 19.6874 55.8902 19.6922 55.8939C19.6946 55.8957 19.6965 55.8973 19.6978 55.8982L19.6993 55.8998L20.3942 55.1926L20.3939 55.1916L20.3926 55.191C20.3919 55.1901 20.3915 55.1884 20.3902 55.1867C20.3872 55.1829 20.3822 55.1774 20.3763 55.1697C20.3642 55.1542 20.3459 55.1309 20.3222 55.1002C20.2749 55.0388 20.2053 54.9474 20.1156 54.8294C19.9364 54.5935 19.6785 54.2501 19.364 53.822C18.7345 52.9653 17.8795 51.7699 16.9799 50.4158C15.2821 47.8602 13.46 44.7927 12.6528 42.3724L12.5058 41.8974C12.207 40.8539 12.1068 39.4778 12.138 37.9714C12.169 36.4725 12.3291 34.8781 12.5292 33.4136C12.7292 31.9506 12.9682 30.6245 13.158 29.664C13.2528 29.1839 13.3352 28.7949 13.3936 28.5272C13.4228 28.3936 13.4463 28.2901 13.4622 28.2203C13.4701 28.1855 13.476 28.1588 13.4801 28.1412C13.4821 28.1324 13.4837 28.1254 13.4847 28.1211C13.4852 28.119 13.486 28.1175 13.4863 28.1165L13.486 28.1156L13.4869 28.1153L12.5577 27.7672L12.9999 28.0007C12.5576 27.7674 12.5568 27.7674 12.5567 27.7675L12.557 27.7685L12.5533 27.7759C12.5506 27.781 12.5464 27.7886 12.5413 27.7984C12.5309 27.8184 12.5153 27.8484 12.4956 27.8867C12.4559 27.9638 12.3981 28.0773 12.3254 28.2224C12.1799 28.513 11.9737 28.9328 11.7313 29.4509C11.2467 30.4866 10.6141 31.9198 10.0247 33.5063C9.43611 35.0908 8.88635 36.8405 8.57146 38.5066C8.25877 40.1611 8.16685 41.7894 8.54521 43.1033L8.62951 43.3779Z" fill="#65D157" stroke="#FBF8EF"/>
<path d="M59.9507 17.1493C62.377 12.1822 71.9402 8.31318 71.9402 8.31318C71.9402 8.31318 72.5718 16.9404 69.7491 21.1884C66.9355 25.4226 60.5589 23.0391 58.7596 27.6896C58.5367 28.2654 58.3037 29.2036 58.3037 29.2036L58.23 26.7036C58.23 26.7036 58.8592 26.1091 59.2003 25.6748C61.2645 23.0462 58.4314 20.2594 59.9507 17.1493Z" fill="#65D157"/>
<path d="M61.8729 27.2121C67.0939 21.9211 74.139 30.2942 74.139 30.2942C74.139 30.2942 67.8802 34.7378 64.196 33.0945C62.4306 32.3071 61.4155 29.2398 59.4854 29.3448C57.9876 29.4262 57.5969 31.4504 57.5969 31.4504L57.4883 29.4534C57.4883 29.4534 60.1172 28.9913 61.8729 27.2121Z" fill="#65D157"/>
<path d="M74.0002 66.5002C77.7407 65.6934 78.3151 61.0835 78.3151 61.0835L78.3149 60.0815L77.9999 59.5001C77.9999 59.5001 79 63 74 62.5007C71.8817 62.2891 69.8561 60.1375 67.8427 60.8286C64.942 61.8243 62.6448 66.7152 62.6448 66.7152C62.6448 66.7152 71.3958 67.062 74.0002 66.5002Z" fill="#65D157"/>
<path d="M13.4977 42.5035C12.6016 45.0863 13.9997 46.5004 13.9997 46.5004C13.9997 46.5004 13 44.5 15.4999 43.5008C17.4767 42.7108 20.4984 42.0034 21.7433 39.5762C23.1429 36.8474 21.7433 33.7106 21.7433 33.7106C21.7433 33.7106 14.7689 38.8394 13.4977 42.5035Z" fill="#65D157"/>
<path d="M80.6721 86.8682C80.4499 90.3136 78.3214 95.3909 78.3214 95.3909C78.3214 95.3909 72 90 74 87.5C78.2528 82.184 78 78.5 78 78.5L78.4999 75.5002C78.4999 75.5002 79.4995 75.0003 79 76C77.2528 79.4966 80.9236 82.9675 80.6721 86.8682Z" fill="#65D157"/>
<path d="M43.5803 109.452C43.5803 109.452 45.2751 106.849 47.0004 106.501C48.5287 106.192 49.4023 107.298 50.9994 107.5C51.9686 107.623 53.4972 107.634 53.4972 107.634C53.4972 107.634 51.928 108.389 50.9994 109C49.726 109.839 49.1679 111.116 48 111.5C46.0755 112.133 43.5803 109.452 43.5803 109.452Z" fill="#65D157"/>
<path d="M63.5005 116.167C64.1793 118.333 60.9016 121.096 60.9016 121.096C60.9016 121.096 58.0462 118.212 58.5 116.167C58.7682 114.959 59.983 114.695 60.5003 113.5C60.7371 112.953 60.954 112.043 60.954 112.043C60.954 112.043 61.2365 112.953 61.5003 113.5C62.0655 114.673 63.2072 115.231 63.5005 116.167Z" fill="#65D157"/>
<path d="M85.0003 41.9204C88.2735 43.3285 90.328 49.3277 90.328 49.3277C90.328 49.3277 84.4107 50.0772 81.3426 48.3304C78.3998 46.6549 78.8443 42.032 75.5 41.5C74.7287 41.3773 72 42 72 42L76.0004 40.9998C76.0004 40.9998 77.1868 41.6419 78.0004 41.9199C80.5871 42.804 82.4892 40.8402 85.0003 41.9204Z" fill="#65D157"/>
<path d="M102.181 59.6172C105.173 57.0458 112.148 61.2638 112.148 61.2638C112.148 61.2638 107.999 66.6385 104.367 66.3944C98.5 66 91 61.5 91 61.5L91 60.9998C91 60.9998 96.5 64.5 102.181 59.6172Z" fill="#65D157"/>
<path d="M72.8018 77.4047C69.1007 81.5109 59.5675 82.4277 59.5675 82.4277C59.5675 82.4277 62 69.0005 71.5 70.5C76.5553 71.298 78 67 78 67L77.9993 69.0005C77.9993 69.0005 77.0473 69.5585 76.4993 70.0005C73.9836 72.0295 74.9657 75.004 72.8018 77.4047Z" fill="#65D157"/>
<path d="M110.991 76.1756C116.921 74.7788 123.243 85.8323 123.243 85.8323C123.243 85.8323 113.223 90.5566 108.895 86.9703C103.5 82.5 95.9996 75 95.9996 75L94.9996 73C94.9996 73 99 79 110.991 76.1756Z" fill="#65D157"/>
<path d="M118.209 105.786C122.749 109.836 116.955 121.315 116.955 121.315C116.955 121.315 105.941 113.843 108.455 108.815C112.955 99.8153 106.955 93.3153 106.955 93.3153L108.955 94.8153C108.955 94.8153 110.954 99.3154 118.209 105.786Z" fill="#65D157"/>
<path d="M71.7725 121.235C71.7725 121.235 72.9908 117.034 75.1351 115.681C77.2492 114.347 79.5584 115.536 82 115C83.3882 114.695 84.9993 113.999 84.9993 113.999C84.9993 113.999 83.0117 115.021 82 116C80.4408 117.509 80.9849 119.537 79.2347 120.819C76.8805 122.544 71.7725 121.235 71.7725 121.235Z" fill="#65D157"/>
<path d="M84.772 79.5221C84.1941 84.2239 87.9646 91.2248 87.9646 91.2248C87.9646 91.2248 95.2149 85.1438 93.1359 81.2992C90 75.5 91.0008 71.5 91.0008 71.5L88.5 68L89.5 70C91.3569 73.7137 85.2785 75.401 84.772 79.5221Z" fill="#65D157"/>
<path d="M124.013 51.6544C124.013 51.6544 118.519 52.6249 116 51.6546C112.755 50.404 113.231 46.2869 110.5 44.5C109.769 44.0217 108.966 43.953 108.966 43.953L108.501 42.5001C108.501 42.5001 109.085 43.1091 109.5 43.4534C112.609 46.0324 116.481 42.5556 119.736 44.9478C122.239 46.7872 124.013 51.6544 124.013 51.6544Z" fill="#65D157"/>
<path d="M112 50.4997C112.773 53.5633 108.727 57.596 108.727 57.596C107.602 54.9063 105.681 53.6193 105.847 50.7087C105.987 48.2543 108.2 47.4399 108.5 45C108.619 44.031 108.5 42.5 108.5 42.5L109.5 44C109.5 44 108.579 45.0866 109.401 46.4657C110.223 47.8447 111.607 48.9432 112 50.4997Z" fill="#65D157"/>
<path d="M43.4578 22.489C38.9632 22.6051 33.0014 17.6712 33.0014 17.6712C33.0014 17.6712 39.0081 13.7085 43.1014 14.3814C46.657 14.9659 53.0008 18.9995 53.0008 18.9995L54.0008 21.4995C54.0008 21.4995 52.8342 19.2603 52.0008 18.9995C48.8029 17.9985 47.0605 22.3959 43.4578 22.489Z" fill="#65D157"/>
<path d="M36.9974 40.6917C36.8735 36.4232 41.4841 30.7199 41.4841 30.7199C41.4841 30.7199 44.8289 35.9868 44.9922 38.9844C45.2172 43.1162 41.285 44.4336 40.5271 48.0018C40.3203 48.9757 41.0349 49.9998 41.0349 49.9998L39.0395 51.0071C39.0395 51.0071 39.8907 50.1926 40.033 49.5028C40.1117 49.1207 40.0456 48.8935 40.0291 48.5037C39.8907 45.2342 37.0924 43.9628 36.9974 40.6917Z" fill="#65D157"/>
<path d="M53.6442 65.5003C56.775 64.4681 60.8797 66.5218 60.8797 66.5218C60.8797 66.5218 57.2534 71.8215 53.6446 72.646C50.5098 73.3623 43.5 69.5 43.5 69.5C43.5 69.5 46.8229 69.9497 49.0005 69.0005C51.0823 68.0931 51.8947 66.077 53.6442 65.5003Z" fill="#65D157"/>
<path d="M5.59177 103.431C5.25473 98.4152 9.62499 91.207 9.62499 91.207C9.62499 91.207 14.6365 97.375 14.5535 102.012C14.4859 105.786 11.8072 107.314 10.9998 111.001C10.7457 112.161 10.4998 114.001 10.4998 114.001L7.99976 117.501C7.99976 117.501 9.99976 113.563 9.99976 112.001C9.99976 108.501 5.99966 109.501 5.59177 103.431Z" fill="#65D157"/>
<path d="M19.9999 111.5C27.6817 108.848 41 116.501 41 116.501C41 116.501 28.2746 121.902 21.4994 121.5C17.1874 121.244 17.2545 120.163 14.4997 119.431C10.9994 118.5 10.4253 118.672 7.99938 120C7.38181 120.338 6.49939 121 6.49939 121L7.49939 119C7.49939 119 8.468 118.995 10.9994 118C14.3311 116.691 17.3747 112.407 19.9999 111.5Z" fill="#65D157"/>
<path d="M25.0001 103C27.7457 100.254 34.9903 104.717 34.9903 104.717C34.9903 104.717 31.2299 109.825 27.6726 110.25C25.4474 110.515 23.7556 108.313 21.5236 108.112C18.0002 107.794 15.0002 110.5 15.0002 110.5L16.5002 108.5C16.5002 108.5 20.5 107.5 25.0001 103Z" fill="#65D157"/>
</g>
<defs>
<clipPath id="clip0_2793_244">
<rect width="128" height="128" fill="white" transform="matrix(-1 0 0 1 128 0)"/>
</clipPath>
</defs>
</svg>
