<svg width="128" height="128" viewBox="0 0 128 128" fill="none" xmlns="http://www.w3.org/2000/svg">
<g clip-path="url(#clip0_2741_1351)">
<rect width="128" height="128" fill="#FBF8EF"/>
<path d="M107.346 5.4413C104.434 4.28365 101.189 10.5858 101.189 10.5858L100.837 18.6687L103.718 23.3173L107.927 27.1426L116.374 27.4226C116.374 27.4226 123.343 24.2632 122.444 20.9026C121.87 18.7568 119.597 18.8319 118.234 17.0772C116.54 14.8947 117.723 11.8009 115.194 10.6889C113.32 9.86509 109.975 11.1663 109.975 11.1663C109.975 11.1663 109.632 6.35018 107.346 5.4413Z" fill="#F8A300"/>
<path d="M19.8482 5.4413C22.76 4.28365 26.0058 10.5858 26.0058 10.5858L26.3577 18.6687L23.4764 23.3173L19.2669 27.1426L10.8205 27.4226C10.8205 27.4226 3.85124 24.2632 4.75043 20.9026C5.32457 18.7568 7.59782 18.8319 8.9599 17.0772C10.6541 14.8947 9.47107 11.8009 12.0004 10.6889C13.874 9.86509 17.2197 11.1663 17.2197 11.1663C17.2197 11.1663 17.5621 6.35018 19.8482 5.4413Z" fill="#F8A300"/>
<path d="M118.359 18.6439C118.359 18.6439 114.855 21.0819 111.998 22.5587C109.171 24.0195 105.054 26.8213 105.054 26.8213L105.689 27.8564C105.689 27.8564 109.845 24.8239 112.655 23.111C115.285 21.5085 118.359 18.6439 118.359 18.6439Z" fill="#FBF8EF"/>
<path d="M8.83486 18.6439C8.83486 18.6439 12.3388 21.0819 15.1967 22.5587C18.0234 24.0195 22.1403 26.8213 22.1403 26.8213L21.5049 27.8564C21.5049 27.8564 17.3498 24.8239 14.539 23.111C11.9092 21.5085 8.83486 18.6439 8.83486 18.6439Z" fill="#FBF8EF"/>
<path d="M118.616 23.2386C118.616 23.2386 115.136 23.3347 113 24C110.285 24.8456 106.331 26.7708 106.331 26.7708L106.777 27.9006C106.777 27.9006 109.733 26.026 112 25C114.337 23.9421 118.616 23.2386 118.616 23.2386Z" fill="#FBF8EF"/>
<path d="M8.5779 23.2386C8.5779 23.2386 12.0584 23.3347 14.1943 24C16.9089 24.8456 20.8636 26.7708 20.8636 26.7708L20.417 27.9006C20.417 27.9006 17.461 26.026 15.1943 25C12.8572 23.9421 8.5779 23.2386 8.5779 23.2386Z" fill="#FBF8EF"/>
<path d="M115.235 16.0001C115.235 16.0001 114.716 17.5939 113 19.5C111.313 21.3736 106.891 25.4917 106.891 25.4917L106.067 24.5994C106.067 24.5994 109.13 22.7299 111 21C112.837 19.3007 115.235 16.0001 115.235 16.0001Z" fill="#FBF8EF"/>
<path d="M11.9596 16.0001C11.9596 16.0001 12.478 17.5939 14.1943 19.5C15.8814 21.3736 20.303 25.4917 20.303 25.4917L21.1269 24.5994C21.1269 24.5994 18.0643 22.7299 16.1943 21C14.3575 19.3007 11.9596 16.0001 11.9596 16.0001Z" fill="#FBF8EF"/>
<path d="M47.3924 27.4932L49.5097 28.5519C49.5097 28.5519 49.1386 33.067 48.9802 35.9651C47.0837 70.6671 56.4996 76.4993 56.4996 76.4993C56.4996 76.4993 45.2639 70.582 46.8621 35.9651C47.015 32.6537 47.3924 27.4932 47.3924 27.4932Z" fill="#65D157"/>
<path d="M77.7108 28.2869L79.1475 28.1172C79.1475 28.1172 78.5113 37.5197 77.711 43.4999C75.9716 56.497 69.9055 62.4551 67.5229 75.5035C67.3356 76.6286 67.1604 77.7918 66.9993 79C67.1438 77.7773 67.32 76.6147 67.5229 75.5035C69.7379 62.2008 73.6501 54.2191 75.9993 40C76.7528 35.439 77.7108 28.2869 77.7108 28.2869Z" fill="#65D157"/>
<path d="M98.3754 57.3636C97.0854 57.6759 94.3168 58.2945 93.3097 59.1589C89.4624 62.4609 96.5475 68.6172 96.5475 68.6172L103.248 72.401L108.761 85.3856C108.761 85.3856 114.368 87.6768 116.424 86.0918C117.929 84.9314 117.259 83.1703 118.38 81.6354C119.719 79.802 122.629 80.2347 122.901 77.9808C123.227 75.2719 116.553 74.8701 116.553 74.8701C116.553 74.8701 120.898 69.2398 119.631 66.8225C118.638 64.9265 116.352 65.6909 114.822 64.1932C112.805 62.2176 114.494 58.4954 111.809 57.6213C109.534 56.8805 105.428 61.8207 105.428 61.8207C105.428 61.8207 104.956 54.9784 102.575 54.7352C100.65 54.5386 100.256 56.9082 98.3754 57.3636Z" fill="#F8A300"/>
<path d="M29.1031 57.3636C30.3931 57.6759 33.1617 58.2945 34.1689 59.1589C38.0161 62.4609 30.931 68.6172 30.931 68.6172L24.2308 72.401L18.7173 85.3856C18.7173 85.3856 13.1107 87.6768 11.0547 86.0918C9.54946 84.9314 10.2195 83.1703 9.09868 81.6354C7.75989 79.802 4.84929 80.2347 4.57789 77.9808C4.2517 75.2719 10.9259 74.8701 10.9259 74.8701C10.9259 74.8701 6.58096 69.2398 7.84715 66.8225C8.84029 64.9265 11.127 65.6909 12.6561 64.1932C14.6733 62.2176 12.9849 58.4954 15.6696 57.6213C17.945 56.8805 22.0502 61.8207 22.0502 61.8207C22.0502 61.8207 22.5225 54.9784 24.9032 54.7352C26.828 54.5386 27.2226 56.9082 29.1031 57.3636Z" fill="#F8A300"/>
<path d="M62.9998 80.0003L63.9998 76.0008C63.9998 76.0008 64.5495 92.5576 65.6899 101.28C66.8303 110.003 66.9999 124 66.9999 124L61.9998 124C61.9998 124 62.2434 109.905 61.7591 101.194C61.3836 94.4403 62.9998 80.0003 62.9998 80.0003Z" fill="#65D157"/>
<path d="M116.166 26.0689C117.02 26.7399 117.535 27.684 117.63 29.0378L117.635 29.2395C117.629 29.7175 117.497 30.2352 117.378 30.6195C117.307 30.8479 117.235 31.0475 117.18 31.1897C117.152 31.261 117.129 31.3187 117.112 31.3589C117.104 31.3791 117.097 31.3953 117.092 31.4065C117.09 31.4117 117.088 31.416 117.087 31.4191C117.086 31.4207 117.085 31.4224 117.085 31.4234L117.085 31.4243L117.084 31.4245L116.834 31.9945L116.332 31.629L116.331 31.6281L116.324 31.6223C116.318 31.6181 116.309 31.6119 116.297 31.6036C116.273 31.5867 116.238 31.5619 116.194 31.5312C116.106 31.4697 115.982 31.384 115.84 31.2905C115.622 31.1473 115.373 30.9926 115.146 30.8708L114.929 30.7624C114.087 30.3741 113.338 30.4841 112.437 30.6481C111.61 30.7988 110.643 30.9994 109.554 30.6641L109.334 30.5897C108.634 30.3301 107.848 29.8426 107.258 29.4397C106.958 29.2349 106.7 29.045 106.517 28.9068C106.425 28.8378 106.352 28.7813 106.301 28.7418C106.294 28.7358 106.286 28.7295 106.28 28.7243C106.259 28.7159 106.234 28.7061 106.205 28.6941C106.114 28.6564 105.985 28.6012 105.825 28.5303C105.505 28.3887 105.064 28.1838 104.579 27.9294C103.685 27.4601 102.588 26.7964 101.841 26.0261L101.698 25.8711C100.956 25.0376 100.541 24.4291 100.134 23.4901L99.959 23.0652C99.7653 22.5732 99.6157 21.936 99.5162 21.4422C99.4656 21.1912 99.4265 20.9693 99.3999 20.8099C99.3995 20.8076 99.3993 20.8054 99.3989 20.8031C99.3909 20.7988 99.3825 20.7947 99.3742 20.7901C99.2197 20.7044 99.0084 20.5802 98.7819 20.4263C98.4055 20.1704 97.92 19.7884 97.6214 19.3216L97.5056 19.1169C97.2917 18.6784 96.9629 18.1102 96.7482 17.5889C96.5501 17.1076 96.4017 16.5703 96.4476 15.9919L96.48 15.742C96.6494 14.7843 97.3666 14.2023 97.8981 13.7539C98.4459 13.2917 98.8301 12.9463 98.9553 12.4564L98.9768 12.3564C99.1537 11.356 99.0671 9.71795 99.0637 9.65682L99.0263 8.98494L99.6803 9.1429C99.7328 9.15562 100.199 9.2704 100.756 9.4781C101.298 9.67987 101.996 9.99449 102.465 10.4308L102.585 10.5498C103.169 11.1572 103.446 11.9491 103.549 12.7528C103.659 13.6095 103.579 14.5219 103.433 15.3413C103.3 16.0838 103.108 16.7683 102.94 17.2952C103.027 17.2672 103.119 17.2396 103.215 17.2122C104.017 16.9821 105.126 16.7834 106.309 16.9412L106.529 16.9761C107.642 17.1749 108.888 17.7556 109.845 18.2735C110.364 18.5542 110.814 18.8257 111.134 19.0268C111.295 19.1274 111.423 19.2105 111.512 19.269C111.556 19.2983 111.59 19.3216 111.614 19.3375C111.626 19.3455 111.635 19.3518 111.641 19.3561C111.644 19.3582 111.647 19.3597 111.649 19.3609L111.651 19.3625C111.651 19.3626 111.652 19.3628 111.442 19.6687L111.652 19.3624L112.127 19.6886L111.737 20.113L111.735 20.1163C111.733 20.1183 111.729 20.1207 111.726 20.1246C111.719 20.1326 111.708 20.1454 111.694 20.161C111.666 20.1922 111.624 20.2377 111.573 20.2948C111.47 20.4097 111.326 20.5709 111.166 20.7564C110.842 21.1306 110.46 21.5907 110.195 21.9637L110.011 22.2345C109.582 22.8939 109.152 23.7343 108.81 24.4575C108.711 24.6681 108.62 24.8673 108.54 25.0465C108.87 24.9849 109.264 24.915 109.684 24.8529C110.252 24.7688 110.876 24.6945 111.457 24.6659C112.027 24.6378 112.598 24.6507 113.042 24.7612L113.487 24.8767C114.513 25.1554 115.446 25.5036 116.166 26.0689Z" fill="#65D157" stroke="#FBF8EF"/>
<path d="M11.0284 26.0689C10.1742 26.7399 9.65939 27.684 9.5645 29.0378L9.55969 29.2395C9.5657 29.7175 9.69684 30.2352 9.81634 30.6195C9.88735 30.8479 9.95955 31.0475 10.0146 31.1897C10.0422 31.261 10.0652 31.3187 10.0819 31.3589C10.0902 31.3791 10.0976 31.3953 10.1024 31.4065C10.1046 31.4117 10.106 31.416 10.1074 31.4191C10.1081 31.4207 10.1093 31.4224 10.1097 31.4234L10.1095 31.4243L10.1105 31.4245L10.3602 31.9945L10.8628 31.629L10.8629 31.6281L10.8707 31.6223C10.8766 31.6181 10.8857 31.6119 10.8973 31.6036C10.9209 31.5867 10.9561 31.5619 11 31.5312C11.0881 31.4697 11.2121 31.384 11.3544 31.2905C11.5724 31.1473 11.8215 30.9926 12.048 30.8708L12.2649 30.7624C13.1077 30.3741 13.8567 30.4841 14.7572 30.6481C15.5842 30.7988 16.5518 30.9994 17.6407 30.6641L17.8603 30.5897C18.5607 30.3301 19.3468 29.8426 19.9363 29.4397C20.2359 29.2349 20.4941 29.045 20.6776 28.9068C20.7692 28.8378 20.8424 28.7813 20.8931 28.7418C20.9008 28.7358 20.9079 28.7295 20.9145 28.7243C20.9352 28.7159 20.9603 28.7061 20.9892 28.6941C21.0798 28.6564 21.2097 28.6012 21.3695 28.5303C21.689 28.3887 22.1302 28.1838 22.6149 27.9294C23.509 27.4601 24.6062 26.7964 25.3529 26.0261L25.4968 25.8711C26.2383 25.0376 26.6535 24.4291 27.0605 23.4901L27.2354 23.0652C27.429 22.5732 27.5786 21.936 27.6781 21.4422C27.7287 21.1912 27.7678 20.9693 27.7944 20.8099C27.7948 20.8076 27.7951 20.8054 27.7955 20.8031C27.8034 20.7988 27.8118 20.7947 27.8201 20.7901C27.9746 20.7044 28.1859 20.5802 28.4124 20.4263C28.7888 20.1704 29.2743 19.7884 29.5729 19.3216L29.6888 19.1169C29.9026 18.6784 30.2315 18.1102 30.4461 17.5889C30.6443 17.1076 30.7926 16.5703 30.7467 15.9919L30.7143 15.742C30.545 14.7843 29.8277 14.2023 29.2962 13.7539C28.7485 13.2917 28.3642 12.9463 28.239 12.4564L28.2176 12.3564C28.0407 11.356 28.1273 9.71795 28.1307 9.65682L28.168 8.98494L27.514 9.1429C27.4615 9.15562 26.9956 9.2704 26.4382 9.4781C25.8968 9.67987 25.1987 9.99449 24.7298 10.4308L24.6091 10.5498C24.0253 11.1572 23.7484 11.9491 23.6451 12.7528C23.5349 13.6095 23.6154 14.5219 23.7616 15.3413C23.8941 16.0838 24.0863 16.7683 24.2545 17.2952C24.1672 17.2672 24.0752 17.2396 23.9796 17.2122C23.1772 16.9821 22.0678 16.7834 20.8857 16.9412L20.6652 16.9761C19.5523 17.1749 18.3062 17.7556 17.3491 18.2735C16.8303 18.5542 16.3803 18.8257 16.06 19.0268C15.8998 19.1274 15.7713 19.2105 15.6826 19.269C15.6384 19.2983 15.6041 19.3216 15.5804 19.3375C15.5686 19.3455 15.5593 19.3518 15.5529 19.3561C15.5498 19.3582 15.547 19.3597 15.5453 19.3609L15.5431 19.3625C15.543 19.3626 15.5425 19.3628 15.7526 19.6687L15.5421 19.3624L15.0671 19.6886L15.4573 20.113L15.4598 20.1163C15.4616 20.1183 15.4649 20.1207 15.4684 20.1246C15.4757 20.1326 15.4863 20.1454 15.5004 20.161C15.5288 20.1922 15.5702 20.2377 15.6215 20.2948C15.7245 20.4097 15.8684 20.5709 16.0287 20.7564C16.3522 21.1306 16.734 21.5907 16.9989 21.9637L17.1832 22.2345C17.6124 22.8939 18.0424 23.7343 18.384 24.4575C18.4835 24.6681 18.574 24.8673 18.6545 25.0465C18.3246 24.9849 17.9305 24.915 17.5104 24.8529C16.9419 24.7688 16.318 24.6945 15.7372 24.6659C15.1672 24.6378 14.596 24.6507 14.1525 24.7612L13.7074 24.8767C12.6811 25.1554 11.7481 25.5036 11.0284 26.0689Z" fill="#65D157" stroke="#FBF8EF"/>
<path d="M89.6385 97.9377C85.413 97.6829 88.5001 106.96 78.3117 115C74.7204 117.834 70.8125 124 70.8125 124L75.8117 124C75.8117 124 78.1277 118.839 81.3125 117.5C85.0044 115.948 87.6259 117.593 91.5133 118.556C95.2451 119.481 97.8257 124.089 100.667 122.18C102.044 121.255 100.667 118.556 100.667 118.556C100.667 118.556 106.418 122.754 107.583 120.983C108.204 120.041 107.688 118.129 107.688 118.129C107.688 118.129 111.134 120.027 112.161 118.556C112.684 117.807 112.526 116.264 112.526 116.264C112.526 116.264 115.294 117.183 116.999 116.691C117.966 116.411 118.867 116.401 119.288 115.477C119.802 114.351 118.948 113.39 117.988 112.668C117.027 111.945 114.919 112.196 114.919 112.196C114.919 112.196 115.802 111.56 115.964 110.659C116.414 108.148 111.782 109.141 108.075 110.016C106.328 110.428 98.117 110.218 98.7921 108.477C99.2503 107.295 100.488 107.444 101.653 106.96C103.913 106.021 105.332 105.858 107.747 105.663C110.208 105.465 112.275 106.575 114.738 106.534C115.286 106.524 115.684 106.805 116.142 106.489C116.977 105.913 114.53 104.545 114.53 104.545C114.53 104.545 116.001 105.22 116.767 104.758C117.255 104.464 117.212 103.955 117.651 103.59C118.042 103.265 118.578 103.441 118.796 102.983C119.13 102.281 117.444 101.601 117.444 101.601C117.444 101.601 119.218 101.641 119.993 100.949C120.798 100.229 122.446 98.4626 123.207 97.6951C123.744 97.1536 124.602 97.4751 124.923 96.7849C125.443 95.669 121.462 94.9076 121.462 94.9076C121.462 94.9076 126.907 93.9009 125.876 92.1493C125.27 91.1203 124.145 90.6579 123.073 90.9275C121.855 91.234 120.422 92.6604 120.422 92.6604C120.422 92.6604 121.905 90.8248 120.911 90.3571C120.465 90.1469 119 90.6455 119 90.6455C119 90.6455 118.392 89.9119 117.848 90.0057C116.614 90.2192 113.672 92.8922 113.672 92.8922C113.672 92.8922 114.627 91.2596 114.036 90.6001C113.363 89.8496 112.358 90.6911 111.487 91.2519C110.528 91.8693 109.718 93.589 109.718 93.589C109.718 93.589 110.227 91.8828 109.51 91.6003C107.464 90.7938 108.284 96.2352 103.891 99.4768C102 100.873 101.52 102.769 99.2611 103.331C98.1889 103.598 96.9526 104.388 96.4521 103.421C95.7507 102.065 99.2918 102.282 100.95 100.61C102.323 99.2268 103.1 97.2879 104.308 95.7577C105.017 94.8592 106.988 94.0526 106.077 93.4206C105.444 92.9817 104.1 93.769 104.1 93.769C104.1 93.769 105.458 92.1274 105.609 90.8701C105.703 90.0894 106.007 89.3546 105.401 88.8813C104.631 88.2794 103.598 89.0654 102.793 89.6781L102.773 89.6933C101.905 90.3536 101.213 92.1493 101.213 92.1493C101.213 92.1493 101.043 91.1079 100.564 90.7467C99.5561 89.9869 98.8007 91.8287 97.9624 92.8254C96.9096 94.077 96.1412 96.5895 96.1412 96.5895C96.1412 96.5895 96.0339 93.3181 94.5812 93.2188C93.2356 93.1267 92.7074 94.5676 92.24 95.8593C91.8574 96.9165 91.7166 99.7985 90.7711 100.39C89.9054 100.931 90.664 97.9996 89.6385 97.9377Z" fill="#65D157"/>
<path d="M38.735 97.9371C42.9604 97.6823 41.5003 110.015 50.0618 115C54.0153 117.302 57.561 123.999 57.561 123.999L52.5618 124C52.5618 124 50.2457 118.838 47.061 117.499C43.3691 115.947 40.7475 117.592 36.8602 118.555C33.1283 119.48 30.5477 124.088 27.7065 122.18C26.3293 121.255 27.7065 118.555 27.7065 118.555C27.7065 118.555 21.9558 122.753 20.79 120.982C20.1699 120.04 20.6855 118.128 20.6855 118.128C20.6855 118.128 17.2395 120.027 16.2121 118.555C15.689 117.806 15.8476 116.263 15.8476 116.263C15.8476 116.263 13.0798 117.183 11.3741 116.69C10.4076 116.411 9.50617 116.4 9.08518 115.476C8.57192 114.35 9.42521 113.39 10.3851 112.667C11.3467 111.944 13.4541 112.196 13.4541 112.196C13.4541 112.196 12.5709 111.559 12.4095 110.658C11.9594 108.147 16.5919 109.14 20.2988 110.015C22.0455 110.427 30.2564 110.217 29.5814 108.476C29.1231 107.294 27.8853 107.443 26.7202 106.959C24.4609 106.021 23.0415 105.857 20.626 105.663C18.1657 105.465 16.0985 106.574 13.6355 106.533C13.087 106.524 12.6899 106.805 12.231 106.488C11.3965 105.912 13.8432 104.544 13.8432 104.544C13.8432 104.544 12.372 105.219 11.6065 104.758C11.1183 104.463 11.1619 103.954 10.722 103.589C10.3312 103.265 9.79548 103.441 9.57754 102.982C9.24367 102.28 10.9298 101.6 10.9298 101.6C10.9298 101.6 9.15533 101.641 8.38081 100.949C7.57529 100.229 5.92762 98.462 5.16668 97.6945C4.62987 97.153 3.77139 97.4745 3.44996 96.7843C2.93029 95.6684 6.9111 94.907 6.9111 94.907C6.9111 94.907 1.46627 93.9003 2.4974 92.1487C3.10313 91.1197 4.22859 90.6573 5.30014 90.9269C6.51843 91.2334 7.95107 92.6598 7.95107 92.6598C7.95107 92.6598 6.46868 90.8242 7.46226 90.3565C7.90871 90.1463 9.37363 90.6449 9.37363 90.6449C9.37363 90.6449 9.98183 89.9113 10.5249 90.0051C11.7599 90.2186 14.7019 92.8916 14.7019 92.8916C14.7019 92.8916 13.746 91.259 14.3374 90.5995C15.0103 89.849 16.015 90.6905 16.8863 91.2513C17.8457 91.8687 18.6553 93.5884 18.6553 93.5884C18.6553 93.5884 18.146 91.8822 18.863 91.5997C20.9099 90.7932 20.0896 96.2346 24.4822 99.4762C26.3735 100.872 26.8534 102.768 29.1124 103.33C30.1845 103.597 31.4208 104.387 31.9213 103.42C32.6228 102.065 29.0816 102.282 27.4232 100.61C26.0509 99.2262 25.2731 97.2873 24.0654 95.7571C23.3562 94.8586 21.385 94.052 22.2965 93.42C22.9295 92.9811 24.2732 93.7684 24.2732 93.7684C24.2732 93.7684 22.9156 92.1268 22.7642 90.8695C22.6702 90.0888 22.3663 89.354 22.9719 88.8807C23.7422 88.2788 24.7751 89.0648 25.5804 89.6775L25.6003 89.6927C26.4682 90.353 27.1607 92.1487 27.1607 92.1487C27.1607 92.1487 27.3309 91.1073 27.8098 90.7461C28.8173 89.9863 29.5727 91.8281 30.411 92.8248C31.4638 94.0764 32.2323 96.5889 32.2323 96.5889C32.2323 96.5889 32.3396 93.3175 33.7922 93.2182C35.1378 93.1261 35.666 94.567 36.1334 95.8587C36.516 96.9159 36.6569 99.7979 37.6024 100.389C38.468 100.931 37.7094 97.999 38.735 97.9371Z" fill="#65D157"/>
<path d="M87.7243 25.2904C87.0413 26.449 84.6838 27.0378 84.6838 27.0378C84.6838 27.0378 84.1901 28.3454 83.4738 28.7937C82.4804 29.4154 80.4277 28.7797 80.4277 28.7797C80.4277 28.7797 79.8523 29.7462 79.2149 29.9484C78.2071 30.268 76.7725 28.7629 76.7725 28.7629C76.7725 28.7629 75.2528 29.6895 74.3385 29.3388C73.7112 29.0982 73.1144 28.1589 73.1144 28.1589C73.1144 28.1589 71.5885 28.4216 70.6776 28.1477C67.9071 27.3146 70.7334 21.9646 69.5488 20.5C69.0191 19.845 67.0488 20 67.0488 20C67.0488 20 67.5765 18.5643 68.1931 18.1544C68.6877 17.8256 69.7107 18.1544 69.7107 18.1544C69.7107 18.1544 69.8993 16.7242 70.0095 15.8142C70.1231 14.8762 71.4495 13.3665 71.0488 12.5C70.6986 11.7427 68.7755 12.2862 68.7755 12.2862C68.7755 12.2862 69.6211 10.7808 70.5948 10.5331C71.7575 10.2375 73.0344 11.1315 73.0344 11.1315C73.0344 11.1315 74.7489 9.33864 74.2388 8.20136C73.9748 7.61279 73.5955 7.37913 73.0397 7.0368L73.0148 7.02146C72.3782 6.62925 71.1844 6.42591 71.1844 6.42591C71.1844 6.42591 72.1667 5.42131 73.0064 5.26001C73.9667 5.07556 75.446 5.85837 75.446 5.85837C75.446 5.85837 76.8136 4.63413 77.8756 4.69526C79.0642 4.76368 80.3225 6.46793 80.3225 6.46793C80.3225 6.46793 81.5635 4.77528 82.7509 4.71768C83.8122 4.66621 85.1909 5.90317 85.1909 5.90317C85.1909 5.90317 82.7805 6.50797 82.7649 7.65343C82.7537 8.47997 84.003 11.7691 84.003 11.7691C84.003 11.7691 84.688 11.1458 85.2186 11.1875C85.8897 11.2404 86.4426 12.3674 86.4426 12.3674C86.4426 12.3674 84.7248 12.0437 84.5488 13C84.3633 14.008 85.7479 15.4533 85.853 16.4747C85.9499 17.4163 85.255 18.8205 85.255 18.8205C85.255 18.8205 85.8896 18.1242 86.5488 18C87.3892 17.8417 88.301 18.8345 88.301 18.8345C88.301 18.8345 86.985 18.6145 86.5496 19.5006C85.7117 21.2057 88.6896 23.6526 87.7243 25.2904Z" fill="#65D157"/>
<path d="M39.5716 25.2904C40.2546 26.449 42.6121 27.0378 42.6121 27.0378C42.6121 27.0378 43.1058 28.3454 43.8221 28.7937C44.8155 29.4154 46.8682 28.7797 46.8682 28.7797C46.8682 28.7797 47.4436 29.7462 48.081 29.9484C49.0888 30.268 50.5234 28.7629 50.5234 28.7629C50.5234 28.7629 52.0431 29.6895 52.9574 29.3388C53.5847 29.0982 54.1815 28.1589 54.1815 28.1589C54.1815 28.1589 55.7074 28.4216 56.6183 28.1477C59.3888 27.3146 56.5625 21.9646 57.7471 20.5C58.2768 19.845 60.2471 20 60.2471 20C60.2471 20 59.7194 18.5643 59.1028 18.1544C58.6082 17.8256 57.5852 18.1544 57.5852 18.1544C57.5852 18.1544 57.3966 16.7242 57.2864 15.8142C57.1728 14.8762 55.8464 13.3665 56.2471 12.5C56.5973 11.7427 58.5203 12.2862 58.5203 12.2862C58.5203 12.2862 57.6748 10.7808 56.7011 10.5331C55.5384 10.2375 54.2615 11.1315 54.2615 11.1315C54.2615 11.1315 52.547 9.33864 53.0571 8.20136C53.3211 7.61279 53.7004 7.37913 54.2562 7.0368L54.2811 7.02146C54.9177 6.62925 56.1115 6.42591 56.1115 6.42591C56.1115 6.42591 55.1292 5.42131 54.2895 5.26001C53.3292 5.07556 51.8499 5.85837 51.8499 5.85837C51.8499 5.85837 50.4823 4.63413 49.4203 4.69526C48.2317 4.76368 46.9734 6.46793 46.9734 6.46793C46.9734 6.46793 45.7324 4.77528 44.545 4.71768C43.4837 4.66621 42.105 5.90317 42.105 5.90317C42.105 5.90317 44.5154 6.50797 44.531 7.65343C44.5422 8.47997 43.2929 11.7691 43.2929 11.7691C43.2929 11.7691 42.6079 11.1458 42.0773 11.1875C41.4062 11.2404 40.8533 12.3674 40.8533 12.3674C40.8533 12.3674 42.5711 12.0437 42.7471 13C42.9326 14.008 41.548 15.4533 41.4429 16.4747C41.346 17.4163 42.0409 18.8205 42.0409 18.8205C42.0409 18.8205 41.4063 18.1242 40.7471 18C39.9067 17.8417 38.9949 18.8345 38.9949 18.8345C38.9949 18.8345 40.3109 18.6145 40.7463 19.5006C41.5842 21.2057 38.6063 23.6526 39.5716 25.2904Z" fill="#65D157"/>
<path d="M104.364 34.3619C106.384 34.31 107.333 35.4943 109.325 35.8309C111.377 36.1777 112.892 34.9473 114.65 36.061C116.016 36.9264 117.019 39.4582 117.019 39.4582C117.019 39.4582 119.205 38.6471 119.683 39.5726C120.2 40.5764 117.708 41.6857 117.708 41.6857C117.708 41.6857 118.985 41.7526 119.568 42.2366C120.615 43.1052 119.89 45.7042 119.89 45.7042C119.89 45.7042 122.125 46.556 122.003 47.6789C121.867 48.9343 118.972 48.8047 118.972 48.8047C118.972 48.8047 119.762 49.7026 119.845 50.4121C119.934 51.1646 119.294 52.2723 119.294 52.2723C119.294 52.2723 120.325 54.1197 119.8 55.1199C118.946 56.7482 116.754 54.1818 115.827 52.5944C115.367 51.8082 115.137 50.3669 115.137 50.3669C115.137 50.3669 114.98 51.1475 114.77 51.6071C113.403 54.6029 111.974 47.0742 109.234 45.2466C108.163 44.5318 106.318 43.7084 106.318 43.7084C106.318 43.7084 107.534 45.5964 108.064 46.9232C109.281 49.9728 112.195 55.8305 108.958 55.2837C106.95 54.9446 105.352 51.518 105.352 51.518C105.352 51.518 104.443 52.244 103.744 52.3909C101.465 52.8697 100.505 47.385 100.505 47.385C100.505 47.385 100.601 49.2878 99.773 49.866C98.4463 50.792 97.4049 46.4669 97.4049 46.4669C97.4049 46.4669 96.1421 46.702 95.3616 46.5341C93.0857 46.0447 92.1221 41.5302 92.1221 41.5302C92.1221 41.5302 90.4989 41.6458 89.5006 41.919C86.5622 42.723 85.3483 45.1652 85.0668 45.8309L85 46C85 46 85.0211 45.9388 85.0668 45.8309L86.6109 41.919L90.9998 38.499C90.9998 38.499 93.3232 35.5264 95.3617 34.3615C96.8189 33.5289 98.2529 32.3673 99.4011 32.894C100.375 33.3408 101.5 34.9996 101.5 34.9996C101.5 34.9996 102.891 34.3997 104.364 34.3619Z" fill="#65D157"/>
<path d="M17.8688 35.8314C19.861 35.4948 20.8098 34.3105 22.8295 34.3624C24.3028 34.4002 25.6939 35.0001 25.6939 35.0001C25.6939 35.0001 26.8188 33.3413 27.7927 32.8945C28.9408 32.3678 30.3748 33.5294 31.832 34.362C33.8706 35.5269 36.1939 38.4995 36.1939 38.4995L42.9994 41.9191L44.4994 46.5001C44.4994 46.5001 41.9996 42.9999 37.6931 41.9195C36.6893 41.6676 35.0716 41.5307 35.0716 41.5307C35.0716 41.5307 34.108 46.0452 31.8322 46.5346C31.0516 46.7025 29.7889 46.4674 29.7889 46.4674C29.7889 46.4674 28.7474 50.7925 27.4208 49.8665C26.5924 49.2883 26.6884 47.3855 26.6884 47.3855C26.6884 47.3855 25.7283 52.8702 23.4496 52.3914C22.7505 52.2445 21.8422 51.5185 21.8422 51.5185C21.8422 51.5185 20.2438 54.9451 18.2361 55.2842C14.9983 55.831 17.9129 49.9733 19.1302 46.9237C19.6599 45.5969 20.8761 43.7089 20.8761 43.7089C20.8761 43.7089 19.0305 44.5323 17.9593 45.2471C15.2201 47.0747 13.7904 54.6034 12.4237 51.6076C12.214 51.148 12.0564 50.3674 12.0564 50.3674C12.0564 50.3674 11.8266 51.8087 11.3671 52.5949C10.4394 54.1823 8.24782 56.7487 7.3938 55.1204C6.86918 54.1202 7.89947 52.2728 7.89947 52.2728C7.89947 52.2728 7.26016 51.1651 7.3486 50.4126C7.43197 49.7031 8.22151 48.8052 8.22151 48.8052C8.22151 48.8052 5.32647 48.9348 5.1903 47.6794C5.0685 46.5565 7.30339 45.7047 7.30339 45.7047C7.30339 45.7047 6.57893 43.1057 7.62543 42.2371C8.20843 41.7531 9.48569 41.6862 9.48569 41.6862C9.48569 41.6862 6.99325 40.5769 7.51102 39.5731C7.98838 38.6476 10.175 39.4587 10.175 39.4587C10.175 39.4587 11.1773 36.9269 12.5437 36.0615C14.3022 34.9478 15.8164 36.1782 17.8688 35.8314Z" fill="#65D157"/>
<path d="M103.001 25.0005C103.001 25.0005 99.574 28.4145 96.9998 30.7511C82.8977 43.5514 81.0568 54.8897 75.9996 73.2511C70.8661 91.8893 68.0001 124 68.0001 124L65.5008 124C65.5008 124 67.9861 91.5567 73.5 72.5C78.8643 53.9603 81.094 42.6352 94.9995 29.2513C98.0979 26.2692 102.501 22.0005 102.501 22.0005L103.001 25.0005Z" fill="#65D157"/>
<path d="M24.1924 24.9985C24.1924 24.9985 29.1198 28.4492 31.9982 30.998C46.9708 44.2562 48.3991 57.771 53.9021 76.998C59.0293 94.9118 61.0001 124 61.0001 124L64.4995 124C64.4995 124 61.8862 93.8056 55.9993 75.4998C49.807 56.2445 48.1004 43.0818 33.1928 28.9982C30.0669 26.0451 24.6924 21.9985 24.6924 21.9985L24.1924 24.9985Z" fill="#65D157"/>
<path d="M70.4521 33.4482C71.3947 33.4816 72.2965 33.8298 73.1426 34.6387L73.3008 34.8057C73.651 35.2105 73.8732 35.7298 74.0088 36.2959C74.1644 36.9455 74.2146 37.6935 74.1953 38.4844C74.1567 40.0658 73.836 41.8953 73.4336 43.6162C73.0301 45.3418 72.5389 46.9802 72.1494 48.1855C72.0738 48.4194 72.0003 48.6368 71.9336 48.8359C72.1104 48.731 72.3032 48.6173 72.5107 48.498C73.5955 47.8748 75.0788 47.0809 76.6621 46.4023C78.2388 45.7266 79.9466 45.1512 81.4736 44.9912C82.9873 44.8326 84.4595 45.0715 85.377 46.1992L85.6006 46.4961C86.6329 47.9837 86.3973 49.5032 86.04 50.9365C85.6492 52.5046 85.137 53.9516 85.4785 55.5547L85.5293 55.7725C85.6612 56.2885 85.8791 56.8574 86.1416 57.4717C86.2907 57.8207 86.4506 58.178 86.6152 58.5439C86.7792 58.9082 86.9479 59.2807 87.1074 59.6543C87.6921 61.0237 88.2272 62.5288 88.0361 63.8799L87.9883 64.1484C87.8431 64.8109 87.4633 65.297 86.9316 65.6191C86.4164 65.9313 85.7753 66.0809 85.0947 66.1328C83.7353 66.2365 82.053 65.9609 80.4492 65.5674C79.0469 65.2233 77.6712 64.7774 76.5645 64.3877C77.5393 65.3264 78.7619 66.5639 79.9111 67.9053C81.1386 69.338 82.3061 70.9135 82.9932 72.3818C83.6228 73.7276 83.9237 75.1502 83.251 76.2695L83.1035 76.4893C81.9303 78.0587 80.3039 78.0169 78.8223 77.8721C77.3731 77.7304 76.0403 77.5032 74.7988 78.0391L74.5518 78.1572C73.9032 78.4956 73.4161 79.0106 72.9951 79.626C72.5659 80.2535 72.234 80.9384 71.8545 81.6387C71.4883 82.3143 71.0764 83.0045 70.5098 83.5107C69.9573 84.0043 69.2711 84.3121 68.3828 84.3135L68.2031 84.3096C67.5432 84.2809 66.9892 83.9606 66.5381 83.4922C66.0923 83.0293 65.7268 82.4029 65.4229 81.6992C64.8146 80.2912 64.4039 78.458 64.123 76.667C64.1207 76.652 64.1185 76.637 64.1162 76.6221C64.0947 76.8083 64.0729 76.9954 64.0488 77.1826C63.7993 79.1264 63.4098 81.1288 62.7939 82.707C62.2323 84.1462 61.4139 85.4084 60.1836 85.7666L59.9326 85.8262C58.932 86.0087 58.0923 85.8556 57.3564 85.4805C56.6364 85.1133 56.0392 84.545 55.4932 83.9395C55.219 83.6354 54.9491 83.3121 54.6816 82.9932C54.412 82.6716 54.1432 82.352 53.8604 82.042C53.3655 81.4996 52.8401 80.999 52.2334 80.5967L51.9678 80.4307C51.3147 80.0445 50.5845 79.8105 49.8184 79.6318C49.4357 79.5426 49.0506 79.4687 48.6631 79.3945C48.2788 79.321 47.8895 79.2469 47.5156 79.1602C46.7731 78.9879 46.0346 78.7535 45.4258 78.3184C44.8772 77.9263 44.4551 77.3868 44.21 76.6396L44.1162 76.3057C43.9876 75.7683 44.0702 75.1756 44.2598 74.5869C44.4513 73.9925 44.7661 73.3577 45.1523 72.7139C45.925 71.4259 47.0219 70.0422 48.1289 68.7783C49.0804 67.6919 50.0493 66.6838 50.8447 65.8867C49.9643 66.2136 48.9071 66.5857 47.8027 66.9238C46.3804 67.3593 44.8617 67.7465 43.5352 67.9131C42.8721 67.9963 42.2408 68.0261 41.6846 67.9736C41.2033 67.9282 40.7433 67.8179 40.3652 67.5967L40.209 67.4951C39.1774 66.7548 38.727 65.8552 38.6875 64.8486C38.6499 63.8873 38.9902 62.8739 39.4092 61.8828C39.6209 61.382 39.8619 60.8662 40.0986 60.3525C40.3372 59.835 40.5737 59.3149 40.7842 58.7891C41.2063 57.7345 41.5116 56.6879 41.5244 55.6523L41.5176 55.0107C41.4978 54.375 41.4416 53.7579 41.3799 53.1494C41.2985 52.3473 41.2059 51.5449 41.1875 50.7705C41.1501 49.1938 41.4182 47.6647 42.7002 46.1865L42.8662 46.0107C43.7254 45.1788 44.9849 45.0489 46.25 45.2227C47.6157 45.4103 49.1351 45.9683 50.5322 46.6104C51.9357 47.2554 53.2474 48.0001 54.2061 48.5811C54.2587 48.6129 54.3099 48.6449 54.3604 48.6758C54.3471 48.6452 54.3328 48.6144 54.3193 48.583C53.8933 47.5916 53.3404 46.2392 52.833 44.8018C52.3268 43.3676 51.8608 41.8326 51.6162 40.4785C51.4939 39.8015 51.4236 39.1549 51.4365 38.5811C51.4493 38.0144 51.5437 37.4744 51.7861 37.042L51.8887 36.8672C52.4132 36.0195 53.0973 35.5364 53.8955 35.3164C54.7187 35.0896 55.6238 35.1545 56.5205 35.2998C56.9728 35.3731 57.4383 35.4693 57.9023 35.5674C58.37 35.6662 58.8372 35.7665 59.3086 35.8516C60.2526 36.0218 61.1804 36.1242 62.0742 36.0273L62.4404 35.9775C63.2901 35.8411 64.1198 35.5589 64.9434 35.2227C65.414 35.0305 65.8759 34.8244 66.3379 34.6191C66.7965 34.4154 67.256 34.2128 67.709 34.0361C68.6094 33.685 69.5328 33.4158 70.4521 33.4482Z" fill="#F8A300" stroke="#FBF8EF"/>
<path d="M102.812 92.5002C102.812 92.5002 96.9595 97.9742 93.8115 102C91.7682 104.613 90.7067 106.156 89 109C87.5 111.5 83.3125 114.5 83.3125 114.5C83.3125 114.5 90.8115 112.5 102.312 112.5C107.782 112.5 114.31 114 114.313 114C114.318 114.001 114.315 114.001 114.313 114C114.307 114 107.082 111.896 102.312 111.5C97.5161 111.102 90 112 90 112C90 112 96.6355 107.868 100.313 106C105.162 103.537 106.367 101.217 113.312 101.255C114.487 101.262 116.312 101.5 116.312 101.5C116.312 101.5 114.53 100.927 113.312 100.726C111.652 100.452 108.5 101 108.5 101L120.007 94.0089L120.006 94.0095L108 100.5C108 100.5 108.98 98.5443 109.205 97.5301C109.414 96.5916 109.376 95.0743 109.376 95.0743C109.377 95.0716 109.377 95.0716 109.376 95.0743C109.376 95.0743 108.73 99.7937 106 101.5C102 104 89 111 89 111C89 111 92.3245 105.837 94.6434 102.662C97.6462 98.5501 102.812 92.5002 102.812 92.5002Z" fill="#FBF8EF"/>
<path d="M25.5614 92.5002C25.5614 92.5002 31.4135 97.9742 34.5615 102C36.6049 104.613 37.5637 106.22 39.373 109C41 111.5 45.0605 114.5 45.0605 114.5C45.0605 114.5 37.5615 112.5 26.0615 112.5C20.5907 112.5 14.0634 114 14.0605 114C14.0547 114.001 14.0577 114.001 14.0605 114C14.0664 114 21.2906 111.896 26.0615 111.5C30.857 111.102 38.373 112 38.373 112C38.373 112 31.7375 107.868 28.0605 106C23.2112 103.537 22.006 101.217 15.0615 101.255C13.8861 101.262 12.0615 101.5 12.0615 101.5C12.0615 101.5 13.8431 100.927 15.0615 100.726C16.7206 100.452 19.873 101 19.873 101L8.36648 94.0089L8.36744 94.0095L20.373 100.5C20.373 100.5 19.3931 98.5443 19.1677 97.5301C18.9591 96.5916 18.9969 95.0743 18.9969 95.0743C18.9965 95.0716 18.9965 95.0716 18.9969 95.0743C18.9969 95.0743 19.643 99.7937 22.373 101.5C26.373 104 39.373 111 39.373 111C39.373 111 36.0485 105.837 33.7297 102.662C30.7269 98.5501 25.5614 92.5002 25.5614 92.5002Z" fill="#FBF8EF"/>
<path d="M68.5 54.5C68.5 54.5 67.5894 52.8315 66.5 52.5C65.1924 52.1021 64 52.5 64 52.5C64 52.5 62.0653 52.3459 61.5 52.5C60.8207 52.6852 59.9999 53.5004 59.9999 53.5004C59.9999 53.5004 58.5337 53.8089 58 54.5C57.5079 55.1373 57.4999 56.5004 57.4999 56.5004C57.4999 56.5004 56.4488 57.298 56.4999 58C56.5316 58.4356 56.9999 59.0004 56.9999 59.0004C56.9999 59.0004 56.3607 60.2315 56.5004 61C56.6109 61.6075 57.4999 62.5004 57.4999 62.5004C57.4999 62.5004 57.6685 63.479 58 64C58.2965 64.4659 58.9999 65.0004 58.9999 65.0004C58.9999 65.0004 59.714 66.2385 60.5 66.5004C61.0557 66.6856 61.9999 66.5004 61.9999 66.5004C61.9999 66.5004 63.1973 67.0617 64 67C64.6157 66.9527 65.5002 66.5004 65.5002 66.5004C65.5002 66.5004 67.3493 66.7536 68 66C68.4034 65.5327 68.4999 64.5004 68.4999 64.5004C68.4999 64.5004 69.5798 64.065 70.0002 63.5C70.4806 62.8542 70.5002 61.5004 70.5002 61.5004C70.5002 61.5004 71.3149 60.6793 71.5 60C71.7617 59.0395 71.0002 57.5004 71.0002 57.5004C71.0002 57.5004 70.9433 56.2523 70.5 55.5C70.1426 54.8934 68.5 54.5 68.5 54.5Z" fill="#FBF8EF" stroke="#FBF8EF"/>
<path d="M73.9141 18.9997C73.8864 19.8139 73.11 20.9245 73.11 20.9245C73.11 20.9245 72.2908 19.2012 71.7908 18.7009C70.9025 17.8121 68.5494 17.9999 68.5494 17.9999C68.5494 17.9999 70.4103 17.9854 71.5 19.0765C71.9994 19.5766 73.11 21.7539 73.11 21.7539C73.11 21.7539 73.6684 20.9667 73.8087 20.6955C74.0502 20.2291 74.3907 19.7505 74.408 19.0765C74.4307 18.1917 73.5 17 73.5 17C73.5 17 74.5044 17.4138 75 17.9218C76.1284 19.0786 76.5011 22.0149 76.5 22C76.5 22 76.3761 17.5478 78.3915 16.991C78.9209 16.8448 79.7958 16.9126 79.7958 16.9126C79.7958 16.9126 78.8816 17.814 79.0156 18.4869C79.0529 18.6741 79.2927 19.1278 79.5665 19.4741C79.6963 19.6382 80.4016 20.2961 80.4016 20.2961C80.4016 20.2961 80.7035 18.3406 81.5986 17.6359C82.2645 17.1116 83.6618 16.9625 83.6618 16.9625C83.6618 16.9625 82.817 17.6539 82.697 18.2803C82.5648 18.9696 83.0838 19.6959 83.2306 19.9965C83.3779 20.2982 84.1102 21.5991 84.1126 21.6033C84.115 21.6074 84.115 21.6074 84.1126 21.6033C84.115 21.6074 84.1035 21.5875 84.1126 21.6033C84.1172 21.6111 84.1102 21.5991 84.1126 21.6033C84.1126 21.6033 84.4747 19.7732 85.2153 18.9122C86 18 86.5488 18 86.5488 18C86.5488 18 85.5083 18.1184 85 18.5C84.3297 19.0032 84.0036 20.4009 84.0036 20.4009C84.0036 20.4009 83.1408 18.9495 83.1893 18.369C83.2695 17.4089 84.994 16.6868 84.994 16.6868C84.994 16.6868 82.3058 16.2953 81.2125 17.3182C80.5522 17.9359 80.1479 19.3741 80.1479 19.3741C80.1479 19.3741 79.5839 18.8486 79.508 18.3998C79.3732 17.6018 80.7269 16.7237 80.7269 16.7237C80.7269 16.7237 79.0322 16.1846 78.0843 16.5958C76.7869 17.1585 76.3097 19.7524 76.3097 19.7524C76.3097 19.7524 75.9705 18.3182 75.3772 17.6384C74.5342 16.6724 72.3752 16.3094 72.3752 16.3094C72.3752 16.3094 73.9552 17.79 73.9141 18.9997Z" fill="#FBF8EF"/>
<path d="M53.3818 18.9997C53.4095 19.8139 54.1859 20.9245 54.1859 20.9245C54.1859 20.9245 55.0051 19.2012 55.5051 18.7009C56.3934 17.8121 58.7465 17.9999 58.7465 17.9999C58.7465 17.9999 56.8856 17.9854 55.7959 19.0765C55.2965 19.5766 54.1859 21.7539 54.1859 21.7539C54.1859 21.7539 53.6275 20.9667 53.4872 20.6955C53.2457 20.2291 52.9052 19.7505 52.8879 19.0765C52.8652 18.1917 53.7959 17 53.7959 17C53.7959 17 52.7915 17.4138 52.2959 17.9218C51.1675 19.0786 50.7948 22.0149 50.7959 22C50.7959 22 50.9198 17.5478 48.9044 16.991C48.375 16.8448 47.5001 16.9126 47.5001 16.9126C47.5001 16.9126 48.4143 17.814 48.2803 18.4869C48.243 18.6741 48.0032 19.1278 47.7294 19.4741C47.5996 19.6382 46.8943 20.2961 46.8943 20.2961C46.8943 20.2961 46.5924 18.3406 45.6973 17.6359C45.0314 17.1116 43.6341 16.9625 43.6341 16.9625C43.6341 16.9625 44.4789 17.6539 44.5989 18.2803C44.7311 18.9696 44.2121 19.6959 44.0653 19.9965C43.918 20.2982 43.1857 21.5991 43.1833 21.6033C43.1809 21.6074 43.1809 21.6074 43.1833 21.6033C43.1809 21.6074 43.1924 21.5875 43.1833 21.6033C43.1787 21.6111 43.1857 21.5991 43.1833 21.6033C43.1833 21.6033 42.8212 19.7732 42.0806 18.9122C41.2959 18 40.7471 18 40.7471 18C40.7471 18 41.7876 18.1184 42.2959 18.5C42.9662 19.0032 43.2923 20.4009 43.2923 20.4009C43.2923 20.4009 44.1551 18.9495 44.1066 18.369C44.0264 17.4089 42.3019 16.6868 42.3019 16.6868C42.3019 16.6868 44.9901 16.2953 46.0834 17.3182C46.7437 17.9359 47.148 19.3741 47.148 19.3741C47.148 19.3741 47.712 18.8486 47.7879 18.3998C47.9227 17.6018 46.569 16.7237 46.569 16.7237C46.569 16.7237 48.2637 16.1846 49.2116 16.5958C50.509 17.1585 50.9862 19.7524 50.9862 19.7524C50.9862 19.7524 51.3254 18.3182 51.9187 17.6384C52.7617 16.6724 54.9207 16.3094 54.9207 16.3094C54.9207 16.3094 53.3406 17.79 53.3818 18.9997Z" fill="#FBF8EF"/>
<path d="M71.5483 10.5C71.5483 10.5 72.6514 10.9186 73.0483 11.5001C73.7298 12.4987 72.7413 14.576 72.7402 14.5807C72.7407 14.5785 72.7396 14.5829 72.7402 14.5807C72.7424 14.5711 72.7396 14.5829 72.7402 14.5807C72.7407 14.5785 74.4518 12.6784 75.7197 13.0211C76.8812 13.3351 78 16 78 16C78.0028 16.006 77.9987 15.997 78 16C78.0002 15.9946 77.9972 15.994 78 16C77.9998 16.0054 77.9998 16.0054 78 16C77.9998 16.0054 77.9972 15.994 78 16C78.0002 15.9946 77.2767 12.0123 78.8388 11.4479C79.2444 11.3013 79.9325 11.2945 79.9325 11.2945C79.9325 11.2945 79.0305 12.153 79.0234 12.86C79.0158 13.6054 79.4504 14.1621 80 14.6656C80.5481 15.1678 81.7137 15.3287 81.7137 15.3287C81.7137 15.3287 82.4378 13.7548 82.9838 12.86C83.6481 11.7713 85.0487 11.1764 85.0487 11.1764C85.0617 11.1749 83.5489 11.5 82.5489 12.7076C81.9832 13.3909 81.3974 14.6656 81.3974 14.6656C81.3974 14.6656 80.4009 14.4524 80 14C79.6979 13.6591 79.5552 13.392 79.5175 12.9381C79.444 12.0539 80.8613 11.1061 80.8613 11.1061C80.8613 11.1061 79.3542 10.6335 78.5478 11.0416C77.4192 11.6128 77.3681 14.0582 77.3681 14.0582C77.3681 14.0582 76.6717 12.7855 75.8779 12.5465C74.9598 12.2701 73.5292 13.2613 73.5292 13.2613C73.5292 13.2613 73.701 12.0533 73.3437 11.4553C72.816 10.5722 71.5483 10.5 71.5483 10.5Z" fill="#FBF8EF"/>
<path d="M55.7476 10.5C55.7476 10.5 54.6445 10.9186 54.2476 11.5001C53.566 12.4987 54.5546 14.576 54.5557 14.5807C54.5552 14.5785 54.5563 14.5829 54.5557 14.5807C54.5535 14.5711 54.5563 14.5829 54.5557 14.5807C54.5552 14.5785 52.8441 12.6784 51.5762 13.0211C50.4147 13.3351 49.2959 16 49.2959 16C49.2931 16.006 49.2972 15.997 49.2959 16C49.2957 15.9946 49.2987 15.994 49.2959 16C49.2961 16.0054 49.2961 16.0054 49.2959 16C49.2961 16.0054 49.2987 15.994 49.2959 16C49.2957 15.9946 50.0192 12.0123 48.4571 11.4479C48.0515 11.3013 47.3633 11.2945 47.3633 11.2945C47.3633 11.2945 48.2654 12.153 48.2725 12.86C48.2801 13.6054 47.8455 14.1621 47.2959 14.6656C46.7478 15.1678 45.5822 15.3287 45.5822 15.3287C45.5822 15.3287 44.8581 13.7548 44.3121 12.86C43.6478 11.7713 42.2472 11.1764 42.2472 11.1764C42.2342 11.1749 43.747 11.5 44.747 12.7076C45.3127 13.3909 45.8985 14.6656 45.8985 14.6656C45.8985 14.6656 46.895 14.4524 47.2959 14C47.598 13.6591 47.7407 13.392 47.7784 12.9381C47.8519 12.0539 46.4346 11.1061 46.4346 11.1061C46.4346 11.1061 47.9417 10.6335 48.7481 11.0416C49.8767 11.6128 49.9278 14.0582 49.9278 14.0582C49.9278 14.0582 50.6242 12.7855 51.418 12.5465C52.3361 12.2701 53.7667 13.2613 53.7667 13.2613C53.7667 13.2613 53.5949 12.0533 53.9522 11.4553C54.4799 10.5722 55.7476 10.5 55.7476 10.5Z" fill="#FBF8EF"/>
<path d="M117.999 52.0011C117.999 52.0011 116.837 47.0651 114.999 44.5011C113.415 42.2906 112.275 41.0561 109.863 39.7982C105.921 37.7417 98.49 39.2737 98.49 39.2737C98.49 39.2737 101.606 41.0982 103.01 42.8609C104.328 44.5162 105.411 47.7179 105.411 47.7179C105.411 47.7179 104.043 44.5446 102.499 43.0009C100.999 41.5009 99.2863 39.8786 96.9991 39.5009C95.5883 39.2679 93.4995 39.5011 93.4995 39.5011C93.4995 39.5011 96.2215 38.9495 97.9873 38.7505C100.322 38.4873 105.948 37.0688 110.135 39.3104C112.574 40.6165 113.788 41.8258 115.341 44.1161C117.164 46.8058 117.999 52.0011 117.999 52.0011Z" fill="#FBF8EF"/>
<path d="M9.19488 52.0011C9.19488 52.0011 10.3572 47.0651 12.1949 44.5011C13.7792 42.2906 14.9197 41.0561 17.3309 39.7982C21.2731 37.7417 28.7043 39.2737 28.7043 39.2737C28.7043 39.2737 25.5885 41.0982 24.1847 42.8609C22.8665 44.5162 21.783 47.7179 21.783 47.7179C21.783 47.7179 23.1516 44.5446 24.6953 43.0009C26.1953 41.5009 27.908 39.8786 30.1953 39.5009C31.606 39.2679 33.6949 39.5011 33.6949 39.5011C33.6949 39.5011 30.9728 38.9495 29.207 38.7505C26.8719 38.4873 21.2462 37.0688 17.0597 39.3104C14.6204 40.6165 13.4061 41.8258 11.8534 44.1161C10.0298 46.8058 9.19488 52.0011 9.19488 52.0011Z" fill="#FBF8EF"/>
<path d="M54.8943 77.4467C54.8943 77.4467 55.598 73.0021 56.6051 70.5525C57.6012 68.1296 59.6052 64.5526 59.6052 64.5526L60.4996 64.9998C60.4996 64.9998 58.3091 68.6246 57.1051 71.0525C55.9786 73.3241 54.8943 77.4467 54.8943 77.4467Z" fill="#FBF8EF"/>
<path d="M73.4446 76.0034C73.4446 76.0034 72.7409 71.5588 71.7338 69.1092C70.7377 66.6862 68.7337 63.1092 68.7337 63.1092L67.8393 63.5564C67.8393 63.5564 70.0297 67.1812 71.2338 69.6092C72.3603 71.8807 73.4446 76.0034 73.4446 76.0034Z" fill="#FBF8EF"/>
<path d="M62.3055 40C62.3055 40 62.2337 43.4043 62.3048 46.0519C62.3752 48.6707 62.9777 52.7263 62.9777 52.7263L63.9727 52.626C63.9727 52.626 63.2128 48.4594 62.9498 45.7621C62.7038 43.2386 62.3055 40 62.3055 40Z" fill="#FBF8EF"/>
<path d="M82.5448 54.927C82.5448 54.927 79.1398 54.9239 76.4942 55.0485C73.8774 55.1717 69.8347 55.8559 69.8347 55.8559L69.9551 56.8486C69.9551 56.8486 74.1054 56.0049 76.7969 55.6875C79.3149 55.3906 82.5448 54.927 82.5448 54.927Z" fill="#FBF8EF"/>
<path d="M114 65C114 65 111.115 67.0073 108.762 68.2232C106.435 69.4258 103.045 71.7327 103.045 71.7327L103.568 72.585C103.568 72.585 106.989 70.0881 109.304 68.6779C111.469 67.3585 114 65 114 65Z" fill="#FBF8EF"/>
<path d="M13.4785 65C13.4785 65 16.3635 67.0073 18.7164 68.2232C21.0437 69.4258 24.4333 71.7327 24.4333 71.7327L23.9102 72.585C23.9102 72.585 20.4892 70.0881 18.1749 68.6779C16.0097 67.3585 13.4785 65 13.4785 65Z" fill="#FBF8EF"/>
<path d="M99.4284 59.3012C99.4284 59.3012 100.8 62.5369 101.507 65.0894C102.206 67.6142 103.767 71.4053 103.767 71.4053L104.709 71.0684C104.709 71.0684 102.968 67.2075 102.063 64.6529C101.217 62.2629 99.4284 59.3012 99.4284 59.3012Z" fill="#FBF8EF"/>
<path d="M28.0501 59.3012C28.0501 59.3012 26.6782 62.5369 25.9715 65.0894C25.2725 67.6142 23.7111 71.4053 23.7111 71.4053L22.7695 71.0684C22.7695 71.0684 24.5104 67.2075 25.4153 64.6529C26.2618 62.2629 28.0501 59.3012 28.0501 59.3012Z" fill="#FBF8EF"/>
<path d="M116.955 81.2772C116.955 81.2772 114.127 79.19 112.22 77.3523C110.333 75.5347 107.06 73.0658 107.06 73.0658L106.421 73.835C106.421 73.835 109.884 76.2726 111.963 78.0112C113.908 79.6378 116.955 81.2772 116.955 81.2772Z" fill="#FBF8EF"/>
<path d="M10.5237 81.2772C10.5237 81.2772 13.3514 79.19 15.2586 77.3523C17.1452 75.5347 20.4186 73.0658 20.4186 73.0658L21.0576 73.835C21.0576 73.835 17.5942 76.2726 15.5153 78.0112C13.5703 79.6378 10.5237 81.2772 10.5237 81.2772Z" fill="#FBF8EF"/>
<path d="M46.047 55.927C46.047 55.927 49.452 55.9239 52.0976 56.0485C54.7144 56.1717 58.7571 56.8559 58.7571 56.8559L58.6367 57.8486C58.6367 57.8486 54.4864 57.0049 51.7949 56.6875C49.2769 56.3906 46.047 55.927 46.047 55.927Z" fill="#FBF8EF"/>
<path d="M59.4647 76.1863C59.4647 76.1863 59.071 73.2999 59.4641 71.5005C59.9637 69.2135 61.484 65.8569 61.484 65.8569L62.4426 66.1425C62.4426 66.1425 61.1436 69.068 60.4641 71.0005C59.7634 72.9931 59.4647 76.1863 59.4647 76.1863Z" fill="#FBF8EF"/>
<path d="M68.8741 74.7429C68.8741 74.7429 69.2678 71.8566 68.8748 70.0571C68.3752 67.7702 66.8549 64.4135 66.8549 64.4135L65.8963 64.6991C65.8963 64.6991 67.1952 67.6246 67.8748 69.5571C68.5754 71.5497 68.8741 74.7429 68.8741 74.7429Z" fill="#FBF8EF"/>
<path d="M66.9805 41.8026C66.9805 41.8026 65.5871 44.3608 65.3152 46.1825C64.9698 48.4978 65.1984 52.1756 65.1984 52.1756L66.196 52.2491C66.196 52.2491 66.0211 49.053 66.0724 47.0051C66.1253 44.8936 66.9805 41.8026 66.9805 41.8026Z" fill="#FBF8EF"/>
<path d="M80.8381 59.6363C80.8381 59.6363 78.2523 58.2948 76.4255 58.0598C74.1038 57.7611 70.4313 58.0639 70.4313 58.0639L70.3779 59.0627C70.3779 59.0627 73.5699 58.8234 75.6183 58.8333C77.7305 58.8436 80.8381 59.6363 80.8381 59.6363Z" fill="#FBF8EF"/>
<path d="M114.212 68.7823C114.212 68.7823 111.302 68.6406 109.544 69.1884C107.309 69.8845 104.097 71.6905 104.097 71.6905L104.464 72.6206C104.464 72.6206 107.266 71.0727 109.132 70.228C111.057 69.357 114.212 68.7823 114.212 68.7823Z" fill="#FBF8EF"/>
<path d="M13.2666 68.7823C13.2666 68.7823 16.1762 68.6406 17.9348 69.1884C20.1697 69.8845 23.3818 71.6905 23.3818 71.6905L23.0141 72.6206C23.0141 72.6206 20.2123 71.0727 18.3461 70.228C16.4218 69.357 13.2666 68.7823 13.2666 68.7823Z" fill="#FBF8EF"/>
<path d="M103.173 59.8699C103.173 59.8699 102.437 62.6884 102.612 64.5219C102.834 66.8522 103.942 70.3667 103.942 70.3667L104.928 70.1979C104.928 70.1979 103.988 67.1379 103.545 65.138C103.088 63.0759 103.173 59.8699 103.173 59.8699Z" fill="#FBF8EF"/>
<path d="M113.9 83.3241C113.9 83.3241 112.92 80.5808 111.742 79.1647C110.245 77.3648 107.35 75.0857 107.35 75.0857L106.63 75.7807C106.63 75.7807 109.131 77.7791 110.624 79.1815C112.164 80.6274 113.9 83.3241 113.9 83.3241Z" fill="#FBF8EF"/>
<path d="M13.5788 83.3241C13.5788 83.3241 14.5588 80.5808 15.7365 79.1647C17.2333 77.3648 20.1288 75.0857 20.1288 75.0857L20.8481 75.7807C20.8481 75.7807 18.3477 77.7791 16.8544 79.1815C15.3147 80.6274 13.5788 83.3241 13.5788 83.3241Z" fill="#FBF8EF"/>
<path d="M47.7537 60.6363C47.7537 60.6363 50.3395 59.2948 52.1663 59.0598C54.488 58.7611 58.1605 59.0639 58.1605 59.0639L58.2139 60.0627C58.2139 60.0627 55.0219 59.8234 52.9735 59.8333C50.8613 59.8436 47.7537 60.6363 47.7537 60.6363Z" fill="#FBF8EF"/>
<path d="M53 71C53 71 54.2616 68.2105 55.5 66.4999C56.7173 64.8184 59.0003 62.4996 59.0003 62.4996L59.7529 63.1581C59.7529 63.1581 57.3796 65.4201 56 66.9999C54.6449 68.5517 53 71 53 71Z" fill="#FBF8EF"/>
<path d="M75.3391 69.5571C75.3391 69.5571 74.0775 66.7675 72.8391 65.057C71.6217 63.3755 68.7526 61.8415 68.7526 61.8415L68 62.5C68 62.5 70.9595 63.9772 72.3391 65.557C73.6942 67.1088 75.3391 69.5571 75.3391 69.5571Z" fill="#FBF8EF"/>
<path d="M58.2837 44.6272C58.2837 44.6272 59.9859 47.172 60.7842 49.1271C61.5688 51.049 62.3318 54.2124 62.3318 54.2124L61.3751 54.5035C61.3751 54.5035 60.7082 51.2934 60.0955 49.2876C59.4937 47.3172 58.2837 44.6272 58.2837 44.6272Z" fill="#FBF8EF"/>
<path d="M77.8373 50.9996C77.8373 50.9996 75.3274 52.7528 73.3888 53.5903C71.4832 54.4136 68.3358 55.2402 68.3358 55.2402L68.0254 54.2896C68.0254 54.2896 71.2214 53.5581 73.2145 52.9051C75.1723 52.2636 77.8373 50.9996 77.8373 50.9996Z" fill="#FBF8EF"/>
<path d="M111.603 61.9994C111.603 61.9994 110.052 64.6392 108.639 66.2085C107.25 67.7511 104.734 69.8143 104.734 69.8143L104.055 69.0796C104.055 69.0796 106.656 67.0825 108.195 65.6582C109.708 64.2592 111.603 61.9994 111.603 61.9994Z" fill="#FBF8EF"/>
<path d="M15.8753 61.9994C15.8753 61.9994 17.4261 64.6392 18.8392 66.2085C20.2282 67.7511 22.7447 69.8143 22.7447 69.8143L23.4231 69.0796C23.4231 69.0796 20.8228 67.0825 19.2832 65.6582C17.7709 64.2592 15.8753 61.9994 15.8753 61.9994Z" fill="#FBF8EF"/>
<path d="M95.9999 61.0291C95.9999 61.0291 98.2648 63.089 99.5104 64.7943C100.735 66.4706 102.237 69.3572 102.237 69.3572L101.379 69.8702C101.379 69.8702 99.9584 66.9152 98.8807 65.1159C97.822 63.3484 95.9999 61.0291 95.9999 61.0291Z" fill="#FBF8EF"/>
<path d="M31.4786 61.0291C31.4786 61.0291 29.2137 63.089 27.9681 64.7943C26.7437 66.4706 25.2413 69.3572 25.2413 69.3572L26.0997 69.8702C26.0997 69.8702 27.5201 66.9152 28.5978 65.1159C29.6565 63.3484 31.4786 61.0291 31.4786 61.0291Z" fill="#FBF8EF"/>
<path d="M119.028 78.0458C119.028 78.0458 116.03 77.4252 114.09 76.5911C112.183 75.7712 109.421 74.0508 109.421 74.0508L109.898 73.1724C109.898 73.1724 112.625 74.9933 114.468 75.9938C116.279 76.9765 119.028 78.0458 119.028 78.0458Z" fill="#FBF8EF"/>
<path d="M8.4506 78.0458C8.4506 78.0458 11.4486 77.4252 13.3887 76.5911C15.2958 75.7712 18.058 74.0508 18.058 74.0508L17.5801 73.1724C17.5801 73.1724 14.8536 74.9933 13.0102 75.9938C11.1995 76.9765 8.4506 78.0458 8.4506 78.0458Z" fill="#FBF8EF"/>
<path d="M50.7545 51.9996C50.7545 51.9996 53.2644 53.7528 55.203 54.5903C57.1086 55.4136 60.256 56.2402 60.256 56.2402L60.5664 55.2896C60.5664 55.2896 57.3704 54.5581 55.3773 53.9051C53.4195 53.2636 50.7545 51.9996 50.7545 51.9996Z" fill="#FBF8EF"/>
<path d="M118.978 71.9686L118.479 71.9999L118.978 71.9694L118.978 71.9707L118.978 71.9729C118.979 71.9748 118.979 71.9776 118.979 71.9807C118.979 71.9872 118.979 71.9963 118.98 72.0075C118.981 72.0304 118.982 72.0632 118.983 72.1042C118.985 72.1861 118.986 72.3026 118.983 72.4466C118.976 72.734 118.952 73.1341 118.882 73.5876C118.744 74.4824 118.418 75.6463 117.635 76.5454L117.453 76.7447C116.53 77.7042 115.471 78.0816 114.339 78.1889C113.467 78.2717 112.52 78.1936 111.568 78.1097L110.616 78.0298C110.118 77.9925 109.535 77.8866 109.007 77.7729C109.366 78.2092 109.735 78.7231 109.956 79.2192L110.042 79.4438C110.21 79.9697 110.158 80.4982 110.034 80.9883C109.897 81.532 109.645 82.1138 109.449 82.6326C109.035 83.7222 108.787 84.709 109.408 85.7435L109.498 85.8624C109.611 85.9853 109.787 86.1172 110.034 86.2489C110.353 86.4189 110.737 86.5617 111.117 86.6766C111.494 86.7907 111.855 86.8733 112.122 86.9275C112.255 86.9545 112.365 86.9748 112.44 86.9876C112.477 86.994 112.506 86.9979 112.525 87.0009L112.552 87.0058L112.479 88.0003L112.477 87.9998C112.475 87.9998 112.472 88 112.47 88C112.464 88 112.455 88.0002 112.444 88.0002C112.421 88.0001 112.389 87.9995 112.348 87.999C112.265 87.998 112.146 87.9965 112.001 87.9925C111.71 87.9846 111.309 87.9685 110.871 87.9366C110.129 87.8825 109.206 87.7779 108.545 87.5588L108.279 87.4582C106.888 86.8484 105.873 86.2894 105.066 85.4952C104.255 84.6967 103.691 83.6961 103.134 82.2659C102.56 80.7944 102.426 79.2074 102.243 77.8129C102.055 76.3808 101.816 75.1458 101.111 74.1689C100.443 73.2418 99.4288 72.8783 98.1124 72.5975C96.918 72.3427 95.4507 72.1586 94.0649 71.5756L93.7888 71.4535C92.034 70.6379 90.5564 69.5966 89.6232 68.1158C88.7418 66.717 88.3811 64.9822 88.6571 62.7938L88.7211 62.35C88.8166 61.7557 89.1039 61.1923 89.448 60.6982C89.7943 60.2007 90.2177 59.7456 90.6208 59.3633C91.0251 58.9799 91.4178 58.6613 91.7089 58.4392C91.8548 58.3278 91.9764 58.2392 92.0619 58.1787L92.1894 58.0902C92.1925 58.0881 92.1954 58.0872 92.1972 58.0859L92.2004 58.0837C92.2024 58.0865 92.2253 58.1191 92.4783 58.4995L92.2012 58.0832L92.885 58.789L92.8847 58.7903C92.8842 58.7911 92.8831 58.7919 92.8821 58.7934C92.8795 58.7971 92.8753 58.8034 92.8697 58.8115C92.8585 58.8276 92.8415 58.8529 92.8199 58.8853C92.7765 58.9503 92.7137 59.0459 92.6401 59.1658C92.4921 59.4071 92.3011 59.743 92.125 60.1226C91.948 60.5041 91.7921 60.9171 91.7083 61.3153C91.6237 61.7174 91.6203 62.0677 91.7068 62.3458L91.8193 62.6672C92.4241 64.2151 93.6546 64.8987 95.0191 65.3295C95.7652 65.565 96.492 65.7087 97.2042 65.8895C97.8755 66.0599 98.5613 66.2695 99.0423 66.6571L99.3276 66.9037C99.7303 67.2763 100.117 67.7321 100.462 68.187C100.34 67.3346 100.269 66.3893 100.383 65.5876L100.416 65.3824C100.8 63.3393 101.501 62.0077 102.902 60.5909L103.191 60.3056C103.794 59.7289 104.704 59.26 105.42 58.9439C105.786 58.7823 106.116 58.6533 106.356 58.5654C106.476 58.5214 106.573 58.488 106.641 58.4647C106.675 58.4531 106.702 58.4444 106.72 58.4383C106.73 58.4352 106.737 58.432 106.742 58.4303C106.745 58.4295 106.747 58.429 106.748 58.4286L106.75 58.4283L107.513 58.1828L107.399 58.9755L107.398 58.976C107.398 58.9767 107.398 58.9781 107.398 58.9795C107.398 58.9825 107.397 58.9871 107.396 58.9931C107.394 59.0052 107.392 59.0233 107.389 59.0466C107.382 59.0932 107.373 59.1615 107.361 59.2465C107.338 59.4166 107.307 59.6543 107.274 59.9249C107.209 60.4703 107.138 61.1376 107.114 61.653L107.107 62.0369C107.118 62.9099 107.301 63.6363 107.467 64.4301C107.656 65.3344 107.812 66.2956 107.552 67.5042L107.468 67.8461C107.242 68.6556 106.833 69.5349 106.476 70.2226C106.4 70.3685 106.325 70.5065 106.254 70.6358C106.374 70.615 106.5 70.5925 106.632 70.5721C107.459 70.4438 108.532 70.3294 109.397 70.4299L109.667 70.473C110.988 70.7342 111.894 71.7176 112.631 72.4144C113.472 73.2087 114.102 73.6655 115.035 73.3964L115.314 73.3063C115.968 73.0741 116.629 72.6957 117.161 72.3451C117.461 72.1474 117.713 71.9634 117.889 71.8295C117.976 71.7628 118.044 71.7085 118.09 71.6715C118.113 71.6531 118.131 71.639 118.142 71.6297C118.148 71.625 118.153 71.6215 118.155 71.6194L118.157 71.6169L118.916 70.9807L118.978 71.9686Z" fill="#65D157" stroke="#FBF8EF"/>
<path d="M8.50068 71.9686L8.99963 71.9999L8.50013 71.9694L8.50037 71.9707L8.50006 71.9729C8.49995 71.9748 8.49954 71.9776 8.49937 71.9807C8.49903 71.9872 8.49909 71.9963 8.4986 72.0075C8.49759 72.0304 8.49667 72.0632 8.4957 72.1042C8.49374 72.1861 8.49244 72.3026 8.49576 72.4466C8.50238 72.734 8.52647 73.1341 8.59647 73.5876C8.73464 74.4824 9.06083 75.6463 9.84332 76.5454L10.0259 76.7447C10.9483 77.7042 12.0073 78.0816 13.139 78.1889C14.0117 78.2717 14.9584 78.1936 15.9105 78.1097L16.8623 78.0298C17.361 77.9925 17.9431 77.8866 18.4719 77.7729C18.1121 78.2092 17.7436 78.7231 17.5226 79.2192L17.4368 79.4438C17.2689 79.9697 17.3203 80.4982 17.444 80.9883C17.5813 81.532 17.8332 82.1138 18.03 82.6326C18.4431 83.7222 18.6912 84.709 18.0709 85.7435L17.98 85.8624C17.8679 85.9853 17.6911 86.1172 17.4443 86.2489C17.1256 86.4189 16.7419 86.5617 16.3616 86.6766C15.9841 86.7907 15.6236 86.8733 15.3564 86.9275C15.2232 86.9545 15.1138 86.9748 15.0389 86.9876C15.0016 86.994 14.9727 86.9979 14.9536 87.0009L14.9264 87.0058L14.9992 88.0003L15.002 87.9998C15.0035 87.9998 15.0061 88 15.009 88C15.0149 88 15.0239 88.0002 15.035 88.0002C15.0572 88.0001 15.0897 87.9995 15.1309 87.999C15.2136 87.998 15.3322 87.9965 15.4778 87.9925C15.7689 87.9846 16.1698 87.9685 16.6079 87.9366C17.3494 87.8825 18.2725 87.7779 18.9339 87.5588L19.2 87.4582C20.59 86.8484 21.606 86.2894 22.4123 85.4952C23.2231 84.6967 23.7872 83.6961 24.345 82.2659C24.9188 80.7944 25.0526 79.2074 25.2357 77.8129C25.4238 76.3808 25.6629 75.1458 26.3673 74.1689C27.0359 73.2418 28.0497 72.8783 29.3661 72.5975C30.5605 72.3427 32.0279 72.1586 33.4136 71.5756L33.6898 71.4535C35.4445 70.6379 36.9221 69.5966 37.8553 68.1158C38.7368 66.717 39.0974 64.9822 38.8214 62.7938L38.7574 62.35C38.662 61.7557 38.3746 61.1923 38.0305 60.6982C37.6842 60.2007 37.2608 59.7456 36.8577 59.3633C36.4534 58.9799 36.0607 58.6613 35.7696 58.4392C35.6237 58.3278 35.5021 58.2392 35.4166 58.1787L35.2891 58.0902C35.286 58.0881 35.2831 58.0872 35.2813 58.0859L35.2781 58.0837C35.2761 58.0865 35.2532 58.1191 35.0002 58.4995L35.2773 58.0832L34.5935 58.789L34.5938 58.7903C34.5943 58.7911 34.5954 58.7919 34.5964 58.7934C34.599 58.7971 34.6033 58.8034 34.6088 58.8115C34.62 58.8276 34.637 58.8529 34.6586 58.8853C34.702 58.9503 34.7648 59.0459 34.8384 59.1658C34.9864 59.4071 35.1775 59.743 35.3535 60.1226C35.5305 60.5041 35.6864 60.9171 35.7702 61.3153C35.8548 61.7174 35.8582 62.0677 35.7717 62.3458L35.6592 62.6672C35.0544 64.2151 33.8239 64.8987 32.4594 65.3295C31.7133 65.565 30.9865 65.7087 30.2744 65.8895C29.603 66.0599 28.9172 66.2695 28.4362 66.6571L28.151 66.9037C27.7483 67.2763 27.3615 67.7321 27.0164 68.187C27.1388 67.3346 27.2091 66.3893 27.0959 65.5876L27.0624 65.3824C26.6784 63.3393 25.9777 62.0077 24.5765 60.5909L24.2872 60.3056C23.6843 59.7289 22.7741 59.26 22.0584 58.9439C21.6926 58.7823 21.362 58.6533 21.1228 58.5654C21.0029 58.5214 20.9052 58.488 20.8372 58.4647C20.8033 58.4531 20.7766 58.4444 20.7581 58.4383C20.7488 58.4352 20.7414 58.432 20.7363 58.4303C20.7339 58.4295 20.7317 58.429 20.7304 58.4286L20.7282 58.4283L19.9654 58.1828L20.0797 58.9755L20.0805 58.976C20.0806 58.9767 20.0802 58.9781 20.0804 58.9795C20.0808 58.9825 20.082 58.9871 20.0829 58.9931C20.0846 59.0052 20.0865 59.0233 20.0897 59.0466C20.0962 59.0932 20.1059 59.1615 20.1174 59.2465C20.1403 59.4166 20.1714 59.6543 20.204 59.9249C20.2697 60.4703 20.3403 61.1376 20.3644 61.653L20.3713 62.0369C20.3609 62.9099 20.1777 63.6363 20.0118 64.4301C19.8227 65.3344 19.6661 66.2956 19.926 67.5042L20.0109 67.8461C20.2367 68.6556 20.6457 69.5349 21.0027 70.2226C21.0784 70.3685 21.154 70.5065 21.2246 70.6358C21.1049 70.615 20.9783 70.5925 20.8468 70.5721C20.02 70.4438 18.9463 70.3294 18.0817 70.4299L17.8117 70.473C16.4901 70.7342 15.5847 71.7176 14.8473 72.4144C14.0067 73.2087 13.3764 73.6655 12.443 73.3964L12.1643 73.3063C11.5106 73.0741 10.8492 72.6957 10.3173 72.3451C10.0172 72.1474 9.76556 71.9634 9.58987 71.8295C9.50235 71.7628 9.43406 71.7085 9.38804 71.6715C9.36507 71.6531 9.3476 71.639 9.33628 71.6297C9.33061 71.625 9.32577 71.6215 9.32319 71.6194L9.32134 71.6169L8.56234 70.9807L8.50068 71.9686Z" fill="#65D157" stroke="#FBF8EF"/>
<path d="M86.5001 81.5C82.0718 85.5148 80.1275 88.4369 76.9996 93.5005C72.0656 101.488 70.3639 124 70.3639 124L74.864 124C74.864 124 75.2073 102.476 79.4997 94.9999C82.3259 90.0775 84.3193 87.3789 88.4999 83.5001C93.7044 78.6713 104.5 74.5 104.5 74.5L103 72.5C103 72.5 91.8836 76.6191 86.5001 81.5Z" fill="#65D157"/>
<path d="M42.203 81.5C46.6313 85.5148 48.5757 88.4369 51.7035 93.5005C56.6375 101.488 58.3392 124 58.3392 124L53.8391 124C53.8391 124 53.4958 102.476 49.2035 94.9999C46.3772 90.0775 44.3839 87.3789 40.2032 83.5001C34.9987 78.6713 24.5 74.5 24.5 74.5L26 72.5C26 72.5 36.8196 76.6191 42.203 81.5Z" fill="#65D157"/>
</g>
<defs>
<clipPath id="clip0_2741_1351">
<rect width="128" height="128" fill="white"/>
</clipPath>
</defs>
</svg>
