<svg width="32" height="32" viewBox="0 0 32 32" fill="none" xmlns="http://www.w3.org/2000/svg">
<g clip-path="url(#clip0_2778_18)">
<path d="M24.9996 15C24.483 15.0019 23.9759 15.1398 23.5296 15.4C23.26 14.9724 22.8867 14.6198 22.4444 14.3751C22.0021 14.1303 21.5051 14.0013 20.9996 14C20.483 14.0019 19.9759 14.1398 19.5296 14.4C19.1658 13.8275 18.6187 13.3952 17.9776 13.1737C17.3365 12.9521 16.6393 12.9543 15.9996 13.18V8C15.9996 7.20435 15.6835 6.44129 15.1209 5.87868C14.5583 5.31607 13.7952 5 12.9996 5C12.2039 5 11.4409 5.31607 10.8783 5.87868C10.3157 6.44129 9.99959 7.20435 9.99959 8V19.1L7.76959 17.58C7.25839 17.1993 6.63697 16.9957 5.99959 17C5.40457 16.9985 4.82255 17.174 4.32754 17.5042C3.83252 17.8344 3.44687 18.3043 3.21961 18.8542C2.99236 19.4041 2.93376 20.0092 3.05128 20.5925C3.1688 21.1758 3.45712 21.711 3.87959 22.13L11.8796 29.43C13.0122 30.4437 14.4796 31.0029 15.9996 31H20.9996C22.8561 31 24.6366 30.2625 25.9493 28.9497C27.2621 27.637 27.9996 25.8565 27.9996 24V18C27.9996 17.2044 27.6835 16.4413 27.1209 15.8787C26.5583 15.3161 25.7952 15 24.9996 15Z" fill="white"/>
<path d="M20 8H18C18 6.67392 17.4732 5.40215 16.5355 4.46447C15.5979 3.52678 14.3261 3 13 3C11.6739 3 10.4021 3.52678 9.46447 4.46447C8.52678 5.40215 8 6.67392 8 8H6C6 6.14348 6.7375 4.36301 8.05025 3.05025C9.36301 1.7375 11.1435 1 13 1C14.8565 1 16.637 1.7375 17.9497 3.05025C19.2625 4.36301 20 6.14348 20 8Z" fill="black"/>
<path d="M24.9996 15C24.483 15.0019 23.9759 15.1398 23.5296 15.4C23.26 14.9724 22.8867 14.6198 22.4444 14.3751C22.0021 14.1303 21.5051 14.0013 20.9996 14C20.483 14.0019 19.9759 14.1398 19.5296 14.4C19.1658 13.8275 18.6187 13.3952 17.9776 13.1737C17.3365 12.9521 16.6393 12.9543 15.9996 13.18V8C15.9996 7.20435 15.6835 6.44129 15.1209 5.87868C14.5583 5.31607 13.7952 5 12.9996 5C12.2039 5 11.4409 5.31607 10.8783 5.87868C10.3157 6.44129 9.99959 7.20435 9.99959 8V19.1L7.76959 17.58C7.25839 17.1993 6.63697 16.9957 5.99959 17C5.40457 16.9985 4.82255 17.174 4.32754 17.5042C3.83252 17.8344 3.44687 18.3043 3.21961 18.8542C2.99236 19.4041 2.93376 20.0092 3.05128 20.5925C3.1688 21.1758 3.45712 21.711 3.87959 22.13L11.8796 29.43C13.0122 30.4437 14.4796 31.0029 15.9996 31H20.9996C22.8561 31 24.6366 30.2625 25.9493 28.9497C27.2621 27.637 27.9996 25.8565 27.9996 24V18C27.9996 17.2044 27.6835 16.4413 27.1209 15.8787C26.5583 15.3161 25.7952 15 24.9996 15ZM25.9996 24C25.9996 25.3261 25.4728 26.5979 24.5351 27.5355C23.5974 28.4732 22.3257 29 20.9996 29H15.9996C14.9888 29.0122 14.008 28.6568 13.2396 28L5.28959 20.7C5.10485 20.5137 5.0007 20.2623 4.99959 20C4.99959 19.8143 5.05131 19.6322 5.14894 19.4743C5.24658 19.3163 5.38627 19.1886 5.55238 19.1056C5.71849 19.0225 5.90444 18.9874 6.0894 19.004C6.27436 19.0207 6.45102 19.0886 6.59959 19.2L11.9996 22.9V8C11.9996 7.73478 12.1049 7.48043 12.2925 7.29289C12.48 7.10536 12.7344 7 12.9996 7C13.2648 7 13.5192 7.10536 13.7067 7.29289C13.8942 7.48043 13.9996 7.73478 13.9996 8V19H15.9996V16C15.9996 15.7348 16.1049 15.4804 16.2925 15.2929C16.48 15.1054 16.7344 15 16.9996 15C17.2648 15 17.5192 15.1054 17.7067 15.2929C17.8942 15.4804 17.9996 15.7348 17.9996 16V19H19.9996V17C19.9996 16.7348 20.1049 16.4804 20.2925 16.2929C20.48 16.1054 20.7344 16 20.9996 16C21.2648 16 21.5192 16.1054 21.7067 16.2929C21.8942 16.4804 21.9996 16.7348 21.9996 17V19H23.9996V18C23.9996 17.7348 24.1049 17.4804 24.2925 17.2929C24.48 17.1054 24.7344 17 24.9996 17C25.2648 17 25.5192 17.1054 25.7067 17.2929C25.8942 17.4804 25.9996 17.7348 25.9996 18V24Z" fill="black"/>
</g>
<defs>
<clipPath id="clip0_2778_18">
<rect width="32" height="32" fill="white"/>
</clipPath>
</defs>
</svg>
